<?xml version="1.0" encoding="UTF-8"?>
<svg id="Layer_2" data-name="Layer 2" xmlns="http://www.w3.org/2000/svg" viewBox="0 0 425.2 191.04">
  <defs>
    <style>
      .cls-1 {
        fill: #a2f4e6;
      }
    </style>
  </defs>
  <g id="Layer_1-2" data-name="Layer 1">
    <g>
      <path class="cls-1" d="M387.5,71.23l9.23-15.58c1.39-2.34,3.9-3.87,6.59-2.79,1.9.76,3.28,2.09,4.98,3.54.87-.45,1.6-1.15,2.37-1.87,1.27-1.2,2.99-2.04,4.34-3.16.85-.71,1.52-1.3,2.62-1.73,1.55-.6,3.08-1.67,4.87-.97.83.32,1.94,1.4,2.38,2.24.66,1.27.24,2.89-.58,4.04l-11.11,15.6c-1.14,1.6-2.94,2.27-4.81,2.05-1.63-.2-2.96-1.27-4.11-3.17l-5,3.98c-2.42,1.92-7.52,8.04-11.39,3.78-1.56-1.72-1.62-3.82-.35-5.95Z"/>
      <path class="cls-1" d="M418.53,131.35c.95,1.24,2.2,2.32,2.31,3.86.1,1.37-.71,2.8-1.58,3.52-1.13.94-2.67.96-4.15.47l-17.85-5.97c-1.79-.6-2.99-2.08-3.37-3.58-.48-1.93.28-3.54,1.77-5.3-1.91-1.38-3.78-2.7-5.76-3.95-3.02-1.92-8.85-4.58-6.54-9.24,1.05-2.13,3.3-2.88,5.65-2.3l7.61,1.86,10.83,2.69c2.99.74,4.61,3.91,3.54,6.72l-1.69,4.45c2.38,1.4,4.56,3.04,6.71,4.72.85.66,1.77,1.08,2.51,2.05Z"/>
      <g>
        <path class="cls-1" d="M174.92,93.73c1.07-.58,2.38.51,2.82,1.47.6,1.3.63,2.89.28,4.32-1.01,4.13-1.37,8.1-1.59,12.34l-.89,16.99c-.54,10.46,3.04,23.08.7,36.75-.29,1.71-1.09,3.29-2.61,4.15-3.46,1.94-6.72-2.42-7.99-5.39-3.59-8.42-5.79-16.96-7.53-26.17-.26,1.31-.35,2.66-.38,3.97l-.34,15.45c-.09,4.17-.91,10.74-4.98,12.78-2.28,1.15-4.96.24-6.54-1.74-3.06-3.83-4.8-15.68-5.61-20.97-2.04-13.28-4.74-26.15-7.45-39.29l-2.19-10.58c-.37-1.78-.59-5.01,1.7-5.09.99-.04,1.93.62,2.18,1.72,2.05,8.7,3.3,17.36,5.23,26.1l2.6,11.79,2.93,15.16c.88,4.53,1.42,12.98,4.42,16.55.61-2.08,1.01-3.89,1.05-5.9l.37-15.46c.06-2.58.28-5.06.8-7.53.64-2.99,3.3-7.11,6.51-6.32,2.71.66,3.97,7,4.53,9.67.84,4.03,1.86,7.84,3.22,11.7,1.21,3.44,2.23,6.68,3.98,10.23.36-2.57.38-5.01.33-7.71l-.51-26.83-.14-11.99c-.06-5.14.38-10.1,1.62-15.04.51-2.03,1.54-4.07,3.5-5.13Z"/>
        <path class="cls-1" d="M232.15,130.26c-.71-1.18-2.37-2.87-3.8-2.36-4.18,1.47-8.17,2.65-12.85,3.05.83,5.07,1.96,10,3.5,15.02l4.88,15.89c.44,1.57,1.11,4.4-.52,5.16-2.1.98-3.99-2.18-4.42-3.79l-1.77-6.63-6.25-20.48c-2.92-9.57-4.08-19.31-4.7-29.26-.24-3.86-.59-7.45-1.16-11.25-.16-1.07.36-2.15,1.28-2.44,1.08-.34,2.02.27,2.66,1.42,3.74-4.41,11.35-4.56,16.82-4.17,4.15.3,7.75,2.35,10.23,5.76,3.01,4.14,5.09,9.3,4.87,14.59s-3.34,10.07-7.36,13.43c4.42,2.52,5.76,6.79,6.66,11.87.96,5.33,1.79,10.53,3.24,15.76l3.82,13.85c.22.78-.57,2.15-1.1,2.55-.58.43-1.94.51-2.76,0-1.2-.76-2.1-2-2.51-3.4l-3.82-13.09c-1.83-6.26-2.58-17.55-4.92-21.46ZM214.44,124.5c6.36-1.03,10.02-1.37,14.99-5.44,3.35-2.76,5.34-6.79,5.12-11.18-.27-5.49-3.12-12.25-9.42-11.99-2.73.11-5.35.37-8.05.83-3.75.65-3.83,1.95-6.76,3.23l2,13.34,2.11,11.22Z"/>
        <path class="cls-1" d="M127.46,163.65c-2.46,3.8-6.72,5.47-11.03,4.26-3.55-1-7.11-3.02-8.8-6.46-2.65-5.39-3.9-11.1-5.29-16.92-1.66-6.96-1.97-13.7-1.37-20.84l1.61-19.15c.26-3.08.96-6,2.13-8.79,1.99-4.73,7.44-6.83,11.9-4.36,1.51.84,2.07,2.55,1.52,4.12,6.88,6.76,8.23,12.06,10.33,21.36,2.11,9.35,3.28,18.67,3.08,28.26-.13,6.38-.52,13.02-4.09,18.52ZM118.75,161.61c4.16.68,5.54-7.43,5.79-10.06.99-10.38.11-20.66-2.04-30.86l-1.98-9.37c-.68-3.22-1.89-6.36-3.19-9.37l-2.32-5.39c-2.07-1.19-4.32-.46-5.35,1.72-1.45,3.09-2.21,6.34-2.6,9.78-.44,3.91-1.32,7.63-1.52,11.62-.3,6.03-.14,11.99.75,17.93.6,3.98,1.65,7.75,2.81,11.58.93,3.07,2.4,5.89,3.91,8.69,1.11,2.06,3.37,3.35,5.73,3.73Z"/>
        <path class="cls-1" d="M85.83,156.39l1.48,5.27c.48,1.69-.1,3.74-1.74,4.41-1.84.75-3.81-.5-4.45-2.35-.41-1.16-.31-2.49-.52-3.78-1.19-7.28-3.19-14.12-5.32-21.17-2.19-7.29-4.18-14.3-5.93-21.69l-4.15-17.51c-.22-.93.2-2.33.68-3.08.42-.66,1.48-.99,2.47-1.18,2.12-5.13,7.56-8.39,13.09-7.31,2.93.57,5.22,2.31,7.41,4.18,3.34,2.86,5.78,6.34,7.03,10.65,1.54,5.3,2.16,10.97.84,16.43-1.03,4.27-3.82,8-7.11,10.77-2.93,2.46-6.26,3.73-9.89,4.81l2.92,10.49,3.19,11.06ZM90.25,117.85c1.09-4.52.51-9.24-.85-13.57-.98-3.14-2.89-5.51-5.37-7.55-1.21-.99-2.61-2.08-4.22-2.27-4.37-.53-5.28,4.37-8.35,6.32,1.95,9.33,4.13,18.44,6.66,27.61,5.57-1.19,10.93-5.57,12.13-10.54Z"/>
        <path class="cls-1" d="M189.67,154.76c.35,2.33,1,4.22,1.95,6.17,3.67.71,7.07.75,10.81.39,2.25-.21,5.27.12,6.36,2.38.36,1.54-1.6,3.02-2.93,3.5-3.62,1.32-7.37,1.08-11.05.16-4.27-1.07-7.41-1.54-8.97-6.53-1.41-4.53-2.08-9.04-2.61-13.79-.88-7.75-1.64-15.24-1.68-23.07l-.08-15.71c-.02-3.99-.2-7.78,1.01-11.62,2.05-6.53,7.61-6.98,13.5-5.7,1.01.22,1.82,1.32,1.9,2.12.31,3.08-4.33,3.12-6.62,3.18-1.78.05-3.15.98-3.7,2.76-.87,2.82-1.04,5.81-1,8.86l.23,17.54,5.79-1.01c1.1-.19,5.16-1.44,5.87,1.78,1.07,4.84-7.96,5.7-11.26,5.11.62,7.8,1.31,15.54,2.49,23.47Z"/>
        <path class="cls-1" d="M105.9,51.92c-.16-2.27-1.95-4.73-4.25-4.05-2.16.63-4.27,1.97-6.49,1.81l-.59,8.42c-.26,3.66-.27,7.19-.98,10.74-.18.9-1.1,1.71-1.84,1.74-2.8.08-2.76-6.99-2.93-9.61-.44-6.64.55-15.63,2.22-22.06l1.6-6.15c.86-3.31,2.74-9.35,5.99-10.87,2.22-1.04,4.89-1.54,7.35-1.21,2.79.37,4.76,2.64,5.52,5.22,2.02,6.88.19,14.19-5.94,18.62,4.51,1.84,5.07,5.92,5.14,10.11l-.89,10.61c-.09,1.08-1.08,4.61-2.78,4.4-2.09-.26-2.28-4.49-1.94-6.66.59-3.7,1.08-7.17.81-11.08ZM95.62,43.08c2.18-.65,3.86-1.77,5.71-2.92,4.61-2.87,6.52-8.4,4.13-13.49-1.49-.05-2.75.35-4.18.88-1.78,2.57-3.55,5.19-4.19,8.32l-1.47,7.21Z"/>
        <path class="cls-1" d="M200.78,51.74l-2.43-9.76-2.8-10.2c-.99-3.61-1.43-7.36-.21-11.03,3.79,1.71,5.3,6.86,6.01,10.31l4.17,20.28,3.68,15.18,3.17-14.2c2.41-10.79,5.48-20.78,10.07-30.83.32-.71,1.3-1.06,1.96-.9,2.09.51.86,4.93.4,6.58-1.22,4.39-2.32,8.64-3.31,13.1l-2.31,10.31c-1.51,6.72-3.39,13.09-6.32,19.31-.66,1.41-1.48,4.37-3.95,4.32-2.88-.06-3.82-4.72-4.46-7.34l-3.67-15.14Z"/>
        <path class="cls-1" d="M155.43,49.44c-4.01,1.15-8.77-.63-12-2.53l-1.23,17.33c-.11,1.59-1.02,5.28-2.73,5.75-1.8.49-3-3.6-2.9-5.29l.95-16.4c.4-6.86.85-13.45,2.04-20.19.5-2.81,2.03-5.3,3.9-7.35,2.41-2.64,6.44-2.76,8.94-.13,2.05,2.15,3.08,5.1,3.5,8.04l1.02,7.09c.64,4.48,1.09,8.82,1.15,13.4l.17,13.8c.03,2.48.82,9.26-1.41,9.18-.68-.02-1.52-.89-1.55-1.68-.3-7.6.4-13.35.13-21.05ZM154.95,44.53c-.84-5.61-1.72-10.53-3.1-15.65-.38-1.42-1.05-2.65-1.81-3.88-.48-.26-1.15-.59-1.55-.59-1.93,0-2.63,6.35-2.8,7.44l-1.97,12.2c3.84.3,7.34.59,11.24.48Z"/>
        <path class="cls-1" d="M231.32,64.02c.06.92.26,1.79.61,2.53,3.54,1.09,8.83,0,10.83,2.09,1.16,1.22.69,3-.52,4.04-2.4,2.05-7.49,1.06-10.86.5s-6.09-3.26-6.45-6.91c-.47-4.83-.29-9.83.59-14.71l2.7-15.03c1.01-5.61,2.89-14.9,9.55-16.52,3.49-.85,11.64.06,10.69,3.61-1.03,3.83-9.99-2.8-12.73,5.86-1.58,4.99-2.48,10.09-3.39,15.25,3.19-.76,6.11-.99,9.23-.57.99.13,1.89,1.09,2.15,1.95.27.91-.11,1.87-.73,2.8-2.62,2.16-8,.3-10.99-1.03-.43,2.68-.78,5.41-.75,8.18l.09,7.96Z"/>
        <path class="cls-1" d="M167.83,70.94l.5-6.53c.44-5.71.26-11.21.31-16.98.06-7.36.24-14.52.95-21.83-2.52-.07-4.81-.53-7.15-1.11l-2.81-.7c-1.43-3.52,4.66-4.39,6.97-4.46,3.98-.13,7.75-.48,11.68-1.2,2.3-.42,5.77-.39,5.97,2.43.27,3.88-7.24,3.94-10.01,4.68l.44,32.82c.05,3.69.08,7.03-.1,10.68-.09,1.89-.31,3.77-1.39,5.26-.91,1.25-2.55,1.75-3.81.68-.92-.79-1.67-2.3-1.56-3.73Z"/>
        <path class="cls-1" d="M119.06,50.61c-.03,1.79-.03,14.09,2.05,14.24l5.61.39c1.73.12,3.61.76,4.92,1.79.76.6.04,2.12-.53,2.63-1.52,1.39-3.51,1.97-5.58,1.68l-4.4-.63c-3.36-.48-5.64-2.74-5.85-6.21l-.31-5.34c-.36-6.07-.13-12,.78-18.05l1.91-12.7c.84-5.59,3.92-9.43,9.91-9.48,1.9-.02,3.81.18,5.35,1.23.94.64,1.29,1.91.96,2.85-1.22,3.58-9.54-1.76-11.46,4.57-1.17,3.85-2.05,7.76-2.81,11.86,2.3-.39,7.47-.78,9.56-.57,1.68.17,2.81,1.57,2.9,2.96.1,1.6-1.03,3.19-2.79,3.4-2.78.34-7.42.73-10.12-.3l-.1,5.67Z"/>
        <path class="cls-1" d="M73.88,65.97c.64,1.08,2.83,1.02,3.85.84,2.64-.48,4.66-1.96,6.66-3.87,1.3,1.4,1.28,3.33.43,4.96-1.5,2.86-4.44,4.27-7.69,3.57-2.17-.47-4.81-1.17-6.13-3.13-2.38-3.55-2.91-7.78-3.06-11.96-.35-9.43,1.64-28.27,9.53-34.32,2.5-1.91,5.73-2.49,8.58-1,1.78.93,3.26,3.72,1.84,4.96-1.59,1.39-5.36-2.6-8.32,1.57-1.39,1.96-2.52,4.1-3.31,6.42-.96,2.8-1.97,5.47-2.56,8.39-1.2,5.98-2.99,18.16.2,23.56Z"/>
        <path class="cls-1" d="M187.36,73.25c-2.62-.31-1.33-5.38-1.32-8.93l.03-5.64.14-12.11c.09-7.84-.04-15.46.87-23.23.11-.97.6-2.18,1.55-2.39s1.83.98,1.93,1.95c.69,6.91,1.3,13.8.72,20.79l-.67,8.05-1.37,16.43.02,3.15c0,.89-.91,2.06-1.89,1.94Z"/>
        <path class="cls-1" d="M373.8,86.15c-.3-1.35-.52-2.5-.73-3.9-.59-3.99-2.93-14.09-6.35-16.32l-2.57-.1-9.14.03c-.64-7.6-1.75-14.71-2.81-22.18-1.37-9.58-3.77-18.66-8.17-27.24-2.43-4.73-5.98-9.12-10.9-11.47-1.46-3.57-5.61-5.33-9.29-3.52l-8.36-.68c-7.74-.63-15.23-.54-23.01-.72-10.47-.24-20.59.25-31.06.47l-17.83.37-20.01.3h-25.36s-18.77-.27-18.77-.27l-16.12-.31-20.17-.28-47.99-.02-14.37.29-11.45.31-9.14.25c-6.81.19-13.55.69-20.31.28-2.71-.16-4.64-.09-6.62,2.17l-5.19,5.94c-3.58,4.1-6.49,8.3-9.23,12.98-5.07,8.68-8.93,17.61-11.93,27.23-2.24,7.19-4.42,14.1-5.37,21.62C.35,81.08-.13,90.59.03,100.37c.22,13.14,4.49,30.38,7.64,43.29,2.24,9.18,5.69,17.67,10.46,25.78l3.77,6.41c1.09,1.86,2.33,4.4,4.32,5.46,5.06,2.71,29.29,4.44,36.05,4.67l19.43.67,51.93.02,34.26-.32,26.37-.3,28.14.64,13.43.38c8.99.25,17.69.49,26.69,1.02l39.53,2.32c7.84.46,15.51,1.13,23.26.11l7.31-.97c3.41-.45,6.53-1.11,9.32-3.18,5.71-4.23,8.65-10.5,10.74-17.25,5.43-17.51,6.99-32.24,6.49-50.42,1.99-.05,3.81-.14,5.58-.28,1.43-.11,1.87-1.38,2.69-1.99,1.84-1.38,3.55-2.65,4.49-4.93,1.32-3.22,2.18-6.61,2.47-10.19.41-5.05.52-10.2-.58-15.15ZM35.75,91.4c-2.58-.04-5.13.08-7.73.16l-8.94.26c-1.16.03-2.17-.48-2.51-1.51-.24-.72.05-2.48,1.16-2.56,6.31-.5,11.9.39,18.61.18,2.68-.08,5.25-.08,7.51,1.39-.6,2.42-6.26,2.11-8.11,2.07ZM254.42,157.07l3.02,9.38c1.36,4.23,5.33,12.56,8.74,15.71l-29.44-.87-14.78-.7c-13.91-.66-27.46-1.13-41.41-1l-28.84.28-19.27.2-55.15-.07c-3.09-7.09-8.14-13.18-10.12-20.83l-3.49-13.49c-.92-3.55-1.68-7-2.39-10.62l-3.69-18.64c-1.84-9.32-2.06-18.65-2.63-28.12-.27-4.49.3-8.75.31-13.22.02-10.93,1.28-20.2,3.91-30.76.9-3.63,1.99-6.95,3.41-10.41l4.36-10.64c1.59-3.87,7.15-11.7,9.1-15.9l38.87-.49,41.32.23,35.24.64c17.16.31,33.99-.04,51.08-.91l25.07-1.27-4.07,10.45c-4.79,12.31-6.05,18.94-8.42,31.82l-1.74,9.47-3.16,16.43c-1.87,9.74-1.38,19.34-1.72,29.26-.62,18.34.26,36.59,5.89,54.07ZM294.18,94.9c-.34,1-2.05,1.49-3.12,1.53l-8.43.27c.52,2.43,1.07,9.06-1.54,9.25-2.67.2-3.22-6.85-3.18-9.11l-4.75-.1c-1.22-.03-4.36-.47-4.55-1.7-.23-1.53,7.63-2.53,9-2.93.19-1.52-.17-8.18,1.22-8.81,1.18-.54,2.13,1.73,2.26,2.62l.9,5.81c1.45.09,13.16.31,12.19,3.17ZM352.09,137.91c-.52,9.74-4.07,26.73-8.18,35.53-1.43,3.05-3.29,5.76-6.04,7.67-1.84,1.27-4.08,2.22-6.32,1.55-3.7-1.11-6.73-3.61-8.84-6.89-4.42-6.87-6.93-14.59-8-22.72-.66-5.06-.99-9.78-1.02-14.88l-.28-44.37c-.05-7.27-.29-14.09.15-21.32.69-11.33,2.1-26.85,4.55-37.77l4.04-18.08c.71-3.16,1.79-6.18,3.36-8.88,1.01-1.74,2.83-2.52,4.59-1.57,2.06,1.1,3.76,2.61,5.21,4.48,8.43,10.85,10.69,22.09,12.58,35.44.95,6.71,1.76,13.16,2.04,19.91-2.07.08-4.15.18-6.08-.32-2.08-.54-3.83.21-4.44,2.34-1.09,1.82-2.05,3.71-2.92,5.69-2.61,5.88-4.48,6.41-5,14.02-.38,5.54.52,10.59,2.4,15.76,1.4,3.87,3.1,7.37,5.35,10.78,1,1.53,1.67,2.55,3.64,3.01,1.52.35,3.2.82,4.86.86l5.42.13-1.05,19.65ZM356.19,100.97c.32,3.84,1.01,7.36,2.34,10.84l-3.73-.16-9.43-.27c-2.29-3.12-3.96-6.32-5.18-10.01-.73-2.21-1.56-4.39-1.86-6.76-.94-7.39.74-16.98,4.67-23.38,1.4-.31,2.7-.58,4.09-.56l12.27.22c-3.72,8.47-3.72,20.91-3.18,30.08ZM368.72,109.36c-.39,1.07-1.11,2.15-1.99,2.92-1.38,1.2-3.13.72-3.98-.74-1.08-1.85-1.74-3.97-2.08-6.22-1.21-8.11-.84-16.26.81-24.29.41-2.02,2.65-9.52,5.44-8.96l2.2,13.23c1.33,8.02,2.39,16.36-.39,24.06Z"/>
      </g>
    </g>
  </g>
</svg>