<?xml version="1.0" encoding="UTF-8"?>
<svg id="Layer_2" data-name="Layer 2" xmlns="http://www.w3.org/2000/svg" viewBox="0 0 310 382.98">
  <defs>
    <style>
      .cls-1 {
        fill: #a2f4e6;
      }
    </style>
  </defs>
  <g id="Layer_1-2" data-name="Layer 1">
    <g>
      <g>
        <path class="cls-1" d="M148.41,151.83c.65.14,1.56.15,2.01,0l-.46-6.41c-.88,2.23-1.25,4.08-1.55,6.4Z"/>
        <path class="cls-1" d="M309.47,238.94c-.63-8.96-1.07-17.54-1.06-26.58l.04-48.77c.01-11.85.57-23.32.12-35.08l-.32-8.51-.58-31.04c-.03-1.64-.02-3.42-.72-4.87-2.72-1.38-5.53-1.61-8.5-1.9l-16.5-1.63-41.48-2.17-57.03-2.18-15.91-.7c-8.78-.39-4.26-1.6-14.27,1.31-2.85-6.55-6.57-12.2-10.76-17.87-3.01-4.08-4.83-8.68-7.36-13.05l-7.82-13.51c-4.57-7.9-8.95-15.65-14.35-23.03l-2.62-3.58c-2.32-3.16-6.56-4.76-10.44-4.49-1.55.11-2.84,1.11-4.19,1.75-2.01-3.74-8.6-3.34-11.33-1.02-3.1-1.89-5.81-3.14-9.07-.49-2.17,1.77-3.51,4.3-4.1,7.01l-8.63,6.5c-3.01,2.27-6.08,4.36-8.7,7.06l-5.04,5.19-11.14,10.16-7.45,7.98c-2.56,2.74-5.76,4.71-8.21,7.57l-7.86,9.14c-1.65,1.92-2.18,4.07-2.56,6.49-.58,3.69-.74,7.31.64,10.89-2.06,2.48-3.39,4.95-4.88,7.76C2.42,96.66-.37,107.1.04,117.85c.09,2.4,1.32,4.61,1.82,6.81.52,2.34,1.73,3.92,3.52,5.32,2.39,1.86,5.01,2.64,8.06,2.77,3.01.13,5.57-.73,7.9-2.62,5.77-4.68,6.69-10.81,5.29-17.92l-1.58-8.01c-1.03-5.24-2-10.39-2.2-15.69,5.08-1.41,4.81-4.91,9.24-8.8l6.39-5.62,9.25-8.09c3.41-2.99,6.46-6.05,9.29-9.6,2.79-3.51,6.17-6.03,9.49-8.98l9.57-8.52c2.84,1.08,5.93.86,7.9-1.62,2.12,1.36,4.5,1.8,6.61.25,2.89,3.1,4.89,1.73,8.02.15l2.85,5.95c1.06,2.22,2.07,4.42,3.54,6.41,3.87,5.23,7.07,10.58,10.37,16.19l7.99,13.62c1.57,2.68,3.66,4.87,5.06,7.76l-11.08,5.93c-3.91,2.09-7.3,4.52-11.05,6.87l-16.33,10.2-4.61,3.06c-2.67,1.77-3.65,3.98-3.59,7.01.08,4.51-.24,8.95-.28,13.48l-.14,14.9c-.05,4.93.47,9.59.57,14.53l.31,15.12.33,7.42.33,6.49.28,9.87-.24,8.96-.02,18.82.15,7.64-.32,24.81c-.04,3.47-.61,6.76-.85,10.2l-.68,10.01c-.24,3.57-.02,7.05.02,10.68.06,5.35-.41,10.39-.75,15.76l-2.24,34.85-1.53,23.2c-.24,3.63-.42,7.09-.15,10.63.45,6.09,8.17,4.15,12.89,4l18.2-.59c2.48-.08,4.93-.25,7.35.07,6.04.8,11.86,1.15,17.97,1.26l10.84.19,24.06-.37,20.58-.11,24.51-.05,10.11.2c2.24.04,3.02-1.43,4.63-2.3l17.37-9.39,10.73-6.02,17.42-10.03c4.16-2.4,7.92-4.9,11.93-7.55,4.66-3.08,9.48-5.57,14.44-8.11,2.52-1.29,4.79-2.74,7.11-4.26,1.66-1.09,2.73-2.23,2.95-4.37.3-2.86-.07-5.66-.22-8.59-.25-4.76-.28-9.42-.22-14.21l.18-14.22-.03-22.83.58-14.53c.23-5.88-.03-11.43-.44-17.3ZM7.79,119.08c-1.07-6.53-1.22-14.02,2.07-19.81.14-.24,1-.34,1.13-.14,1.89,2.99-2.83,8.43-.43,19.05.2.89-.12,1.7-.82,2.05-.54.27-1.83-.39-1.95-1.15ZM10.99,125.16c-.49-.28-1.22-1.32-.9-1.92.29-.54,1.32-.77,1.74-.59.5.21,1.35,1.1,1.26,1.67-.21,1.34-1.48,1.21-2.1.85ZM25.39,70.98c-1.36.94-2.36,1.77-3.54,2.95l-6.07,2.63c-.77-4.59-1.42-13.54,4.95-14.33,1.51-.19,3.24,1.03,3.77,2.45.76,2.04,1.03,4.29.9,6.3ZM25.86,62.42l-3.54-2.59c4.62-6.85,8.91-8.34,14.77-15.35,2.79-3.33,5.86-6.13,9.08-9.06l10.37-9.43,9.59-7.99c2.45-2.04,4.84-3.99,7.11-6.34l-.34,10.08c-4.64,3.31-8.93,6.9-13.29,10.66-4.55,3.58-8.41,7.58-12.84,11.23l-7.16,5.89-10.85,9.81-2.9,3.08ZM74.37,37.64l-9.2,6.53c-4.2,2.98-8.23,5.78-11.52,9.83-2.77,3.4-5.83,6.2-9.04,9.18l-8.98,8.32c-2.29,2.12-4.37,4.11-6.85,5.92-.51-3.33-.83-6.44-.91-9.5l4.72-4.04,5.74-4.8c3.52-2.95,6.75-5.94,10.41-8.72,2.01-1.53,3.69-3.26,5.63-4.86l9.33-7.69c1.88-1.55,3.68-3.11,5.34-4.84l4.34-4.53.94,6.78c.09.65.02,1.75.04,2.44ZM266.05,113.11c.29,2.23.25,4.54.73,6.74.83,3.81,1.37,7.45,1.87,11.32l1.91,14.78c.2,1.52.29,3.12.34,4.64l.45,12.83c-2.09-1.27-3.61-2.89-5.27-4.68-3.39-3.65-6.54-7.11-10.13-10.38-1.79-1.63-3.6-3.19-4.96-5.19-2.63-3.85-5.8-6.84-9.05-10.15-3.62-3.69-5.72-8.01-10.07-11.58l6.69-3.84c9.51-5.46,17.65-6.73,27.3-11.05-.45,2.26-.09,4.35.2,6.57ZM270.93,117.25c-.23-3.88.68-8.32-1.69-12.31l8.33-4.52c2.63-1.43,5.11-2.85,7.62-4.44,2.91-1.85,5.86-3.29,9.1-4.45l7.34-2.62c-.67,2.53-.93,4.55-1.8,6.64l-12.84,30.94-5.52,14.89-7.22,21.36-.89-8.61-1.18-16.27-1.24-20.61ZM158.47,77.79l4.11.17,12.35.6,31.21,2.1,46.8,3.42,32.21,2.03c5.61.35,10.82.54,16.42.33l-9.75,2.76c-2.28.64-4.44,1.63-6.52,2.81-6.35,3.62-12.61,6.97-19.33,10.09-3.37-.97-6.61-1.25-10.29-1.28l-15.59-.15-16.84-.08c-8.17-.04-16.08-.94-24.24-1.48l-14.51-.96-16.54-1.32c.84-2.97-.56-6.19-3.51-7.51-1.63-.73-3.49-.92-5.26-1.09l-4.56-9.18c.97-.35,2.74-1.31,3.82-1.26ZM121.61,29.95c2.07,4.08,4.11,7.88,6.5,11.77,5.09,8.28,7.6,14.75,13.24,22.58,3.13,4.35,5.33,9.01,7.92,13.69l6.41,11.53,5.37,9.19-6.59,2.19c-1.11-2.13-2.14-4.15-3.02-6.42-2.56-6.63-5.88-12.6-9.3-18.81l-3.4-6.18-7.25-10.99-14.1-21.68c-2.69-4.13-5.3-7.95-8.35-11.77-1.47-1.84-2.64-3.55-4.27-5.34l4.01-9.32c4.39,4.91,9.92,13.87,12.82,19.57ZM96.41,9.52c.15-.5.27-1.24.36-1.86,3.12-3.74,6.35-2.66,10.17-.37.71.82,1.07,1.83.59,2.73l-4.27,8c-4.36-2.54-5.59-1.07-9.54.15l2.68-8.65ZM85.73,7.01l1.94-1.83c.88-.83,3.6-1.05,4.37-.09,1.04,1.31,1.71,2.54,3.28,3.2l-2.87,8.52c-2.14-1.98-4.94-2.79-7.8-1.52l1.08-8.29ZM80.97,33.53l-.25,1.38c-.07.37-1.19.63-1.62.49l-2.62-.81-1.11-8.58c1.7.32,3.07-.53,3.64-2.04l.74-1.97,2.2,1.46c.08,3.42-.35,6.63-.98,10.06ZM82.25,17.76c-2.34-1.61-4.94-1.82-7.26.36-.06-2.67-.06-5.31.34-7.91,2.16-1.36,1.35-4.5,3.69-5.56.94-.42,2.05.43,2.72.97l2.13,1.69-1.63,10.44ZM88.99,32.04c-.08.54-.57,1.72-.78,2.42-2.7.84-3.26-2.07-4.75-3.05l.53-7.55c1.83-.46,2.96-2.06,3.78-3.78,1.06-.45,3.37,1.02,3.27,2.2-.83,3.33-1.56,6.51-2.05,9.76ZM98.05,33.6c-.98.74-2.4,1.63-3.74,1.68-1.01.04-1.65-1.6-2.23-2.28l-1.19-1.38c.21-2.71.77-5.34,1.49-8.04,4.32,3.17,4.96-3.21,9.15-1.49-1.44,3.84-2.61,7.59-3.48,11.5ZM122.42,71.26l-5.24-9.27c-2.81-4.97-6.02-9.46-9.33-14.1-.99-1.38-4.77-8.59-5.62-10.45l-1.6-3.53,2.22-8.76c1.06,2.06,1.96,3.86,3.09,5.69l6.36,10.36c3.13,5.1,6.67,9.65,10.19,14.5,5.36,7.38,9.74,14.99,14.08,22.99,2.29,4.22,4.63,8.1,6.67,12.43,1.87,3.97,4.06,7.42,6.54,11.23l-8,.93-6.81-10.7-5.95-10.61c-2.09-3.72-4.5-6.99-6.6-10.71ZM130.1,90.76l2.4,3.79-10.12.7,7.72-4.49ZM101.07,173.75c-1.82-.35-3.91-1.57-5.28-2.95-2.07-2.09-2.74-4.96-3.16-7.79-.43-2.96-.77-5.8-.69-8.76.15-5.83-.39-12.7,3.4-17.18,1.91-2.27,5.53-2.96,8.12-1.52,2.44,1.36,4.2,3.98,4.6,6.63.23,1.53-.72,2.83-1.86,3.19-3.38,1.05-3.48-4.2-5.94-3.57-2.02,1.47-1.63,13.44-1.5,16.21.1,2.02.69,8.61,3.08,9.18l.36-2.69c.23-1.69,1.5-2.74,2.84-2.91,1.49-.19,3.12.76,3.48,2.44.4,1.87.21,4-.41,5.81-1.02,2.98-3.78,4.53-7.02,3.9ZM122.21,331.75c-.94.49-2.61.46-3.07-.59-1.27-2.92-2.18-5.83-2.82-8.93l-1.83-8.74-5.97-27.3c-.25-1.17-.76-2.54.52-3.33l7.27,27.13c1.16,4.33,1.99,8.53,2.9,12.89.54,2.56.93,4.77,1.84,7.38l5.81-5.09c1.13-.99,2.58-1.56,4.11-1.9.15,2.64-7.03,7.56-8.77,8.47ZM186.34,318.53c-1.71,6.74-3.54,13.19-5.84,19.74l-2.73,7.79-5.65,15.49c-.57,1.58-1.29,2.84-2.62,3.86.19-2.56.87-4.86,1.65-7.28l3.76-11.67,5.71-16.22,4.3-12.03c.09-.26.68-.69.95-.71.27-.02.53.76.46,1.02ZM194.1,265.99c-1.22,4.52-2.54,8.68-3.95,13.12l-3.52,11.03c-1.34,4.2-2.68,8.19-3.93,12.44l-3.36,11.45-2.46,8.04c-.97,3.19-2.38,6.16-3.18,9.41-.98,3.99-2.21,7.67-3.62,11.5l-2.82,7.71-1.91,5.21-1.34,4.11c-.34,1.04-1.19,1.89-1.98,2.2-.94.38-2.36.61-3.14-.4-.59-.77-1.71-2.36-1.86-3.38-.62-4.17-1.38-8.07-1.66-12.31l-2.19-33.03-.59-8.16-11.68,5.38c-4.41,2.03-8.45,4.26-12.49,6.97-.71.48-2.1.67-2.81.36-.62-.27-1.55-1.16-1.8-1.98-1.08-3.51-1.74-6.88-2.51-10.49l-4.45-20.86-6.32-30.76c-.66-3.2-2.15-6.18-2.58-9.29-.28-2.02,2.48-2.69,3.77-3.11,3.98-1.28,7.6-2.34,11.6-3.34,2.1-.52,4.13-1.26,6.26-1.66,4.15-.79,7.98-2.07,12.07-3.06l8.53-2.06,19.92-5.66c.9-.26,2.21.12,2.77.63.67.6.99,1.69.84,2.7-.63,4.08-1.9,7.92-2.04,12.09-.26,7.62-.26,14.98-1.7,22.46l-1.4,7.28c3.07-1.19,5.81-2.02,8.86-3,3.43-1.1,6.72-2.16,10.19-3.05,1.44-.37,4.45-1.86,6.05-.25.31.31.55,1.29.43,1.75ZM124.44,159.52l.75,5.72c.33,2.51,1.15,8.57-2.93,8.57-1.01,0-2.78-.9-2.99-2.44l-1.54-11.49c-.14-1.01-.78-1.88-1.99-2.23l-.16,13.81c-.02,1.82-2.07,2.93-3.46,2.81-1.6-.13-3.05-1.46-3.06-3.33l-.06-11.4c-.04-6.36-.18-12.5.32-18.82.13-1.59,1.19-2.64,2.31-3.45,1.69-1.24,3.37-1.61,5.38-1.47,2.9.2,4.93,1.55,6.57,3.89,3.07,4.39,2.48,10.15-1.88,13.77,1.56,1.84,2.46,3.76,2.76,6.05ZM167.7,207.09c1.16-1.7-.3-5.51,3.42-6.25,1.66-.33,3.58.62,3.99,2.5.58,2.66.03,5.38-1.5,7.73-2.25,3.46-7.71,4.44-10.71,1.35-4.47-4.59-4.24-13.3-4.14-19.49.05-3.39.76-6.75,2.64-9.42,2.7-3.82,7.56-4.34,10.97-1.3,1.51,1.35,2.7,3.03,2.44,5.17-.16,1.34-.96,2.52-2.1,2.93-1.15.41-2.56,0-3.4-.97l-1.85-2.16c-.89,1.33-1.4,2.62-1.49,4.16-.2,3.18-.57,13.35,1.75,15.77ZM173.52,143.12c-1.25.62-2.88.51-4.53.44l-.45,13.99v13.71c.01,1.74-1.62,2.96-3.1,3.08-1.41.11-3.36-1.15-3.38-2.94l-.17-13.69.41-14.11-3.22-.51c-1.69-.27-2.8-1.88-2.68-3.39.13-1.65,1.58-3.12,3.42-3.04l4.64.22c3.98.19,10.12-.98,10.86,2.81.27,1.38-.4,2.76-1.79,3.44ZM156.98,147.79l.51,9.3c.25,4.53.55,8.93.42,13.38-.06,1.97-1.48,3.39-3.18,3.51-1.79.12-3.46-1.41-3.53-3.38l-.41-11.63-3.16-.32-.79,4.93-.76,7.14c-.2,1.83-1.58,3.51-3.53,3.32-2.04-.2-3.36-2.27-3.17-4.28.25-2.57.43-5.03.82-7.52.4-2.57.85-4.98.78-7.58l1.42-7.83c.42-2.31,1.46-4.33,2.67-6.29,1.42-2.29,3.62-3.89,6.42-4,5.14-.2,5.3,7.54,5.5,11.25ZM157.57,210.68c-.07,1.08-1.35,2.42-2.34,2.8-1.35.51-2.55.07-3.37-.71-.64-.61-1.27-1.89-1.26-2.99l.21-12.85c.08-4.95,0-9.69.47-14.56.11-1.14,1.38-1.98,2.3-2.14,3.3-.59,3.76,6.39,3.9,8.7.42,7.34.55,14.43.1,21.75ZM140.19,206.45c.12.5,1.5.28,1.73-.16.71-1.31,1.16-2.62,1.18-4.09l.09-8.97c.04-3.75-2.18-12.82,3.21-12.74,1.55.02,3.18,1.35,3.2,3.24l.09,7.96c.07,5.73.94,14.7-2.65,19.36-2.56,3.32-7.82,3.99-11.04,1.5-1.47-1.14-2.62-2.61-3.01-4.3-.8-3.47-.86-6.86-.72-10.39l.43-10.93c.07-1.86,1.02-5.86,3.52-6.09.9-.08,2,.51,2.55,1.34,1.48,2.24,1.23,4.79,1.15,7.39l-.21,7.39c-.09,3.26-.29,6.26.48,9.51ZM132.84,142l-.05,9.7c2.29-.16,6.19-.2,6.5,2.77.32,3-3.41,4.11-6.59,3.92l.02,9.77,2.68-.35c1.75-.23,3.17.94,3.52,2.44.39,1.66-.59,3.3-2.44,3.85-2.16.64-5.07.9-7.21,0-2.81-1.18-3.26-4.43-3.25-7.09l.04-7.45.05-18.52c0-1.84.36-3.89,2.28-4.62,4.33-1.66,12.28-.6,11.83,3.23-.34,2.9-5.17,2.31-7.39,2.37ZM126.19,181.25c1.07-1.15,2.78-1.04,3.81.12,1.11,1.26,1.59,3,1.56,4.74l-.13,9.89c-.05,3.51-.12,6.82-.8,10.27-.82,4.18-4.06,7.69-8.52,7.94-3.02.17-6.36-1.54-7.87-4.3-1.95-3.58-2.9-12.96,2.17-12.83,1.49.04,3.07,1.26,3.2,3.03.15,1.99-.19,7.42,2.52,6.46,2.26-.79,2.13-6.11,2.17-8.74l.18-11.74c.03-1.79.51-3.58,1.7-4.86ZM175.97,140.02c.09-1.42,1.56-2.62,2.53-2.8,1.55-.27,2.99.53,3.55,2.08.3.84.4,1.97.42,2.95l.27,14.53-.14,15.09c-.02,2.1-1.92,3.34-3.46,3.26-1.87-.09-3.14-1.57-3.13-3.54l.09-14.52c.04-5.79-.46-11.37-.12-17.07ZM176.09,189.87c.34-3.49,2.12-6.72,5.36-8.11,2.86-1.22,10.08-2.04,10.14,2.34.04,3.49-3.72,3.64-6.04,3.78-3.11.18-2.43,4.05-2.59,6.53,2.46-.09,5.74.4,6.01,3,.25,2.45-2.55,4.37-5.87,4.06-.26,1.94-.15,3.78.29,5.93l4.49-.26c1.96-.11,3.54,1.13,3.77,2.95.62,4.8-6.77,4.41-9.93,3.94-4.79-.72-5.84-5.9-5.89-10-.06-4.8-.21-9.43.25-14.17ZM178.16,246.97c.41,0,.96.04,1,.24.05.19.18.84.15,1.05l-1.44,9.86c1.6-.43,6.11-2.39,7.19-1.3.96.96-1.98,2.34-3.2,2.7-2.65.78-5.2,2.31-5.92,1.49-1.28-1.45,1.67-11.72,2.22-14.03ZM194.51,172.83c-.29,1.59-1.71,2.53-3.05,2.61-1.51.09-3.03-.88-3.39-2.54-.96-4.41-1.53-8.76-2.26-13.22l-1.5-9.19-1.41-10.04c-.24-1.72.62-3.25,2.21-3.69,1.39-.39,3.31.29,3.89,2.08,1.25,3.8,1.46,10.56,2.44,14.6l2.55-10.23.72-3.59c.33-1.63,1.8-2.5,3.24-2.45,5.23.2,2.15,8.27,1.55,10.92l-2.29,10.2-2.7,14.57ZM211.83,153.57c1.46,1.47.77,3.83-1.08,4.86-1.45.81-3.11.88-4.99,1.12l-.53,8.8,6.35-.56c1.81-.16,3.31,1.39,3.53,2.78.25,1.62-.86,3.47-2.69,3.7l-8.31,1.04c-1.48.18-2.85.77-4.16-.11-1.21-.82-1.76-2.25-1.67-3.92l.5-9.84,1.65-13.66.63-4.29c.88-5.98,4.13-5.93,10.72-7.01,1.65-.27,3.28.94,3.6,2.32.96,4.19-4.6,4.66-7.56,5.22l-1.19,8.68c2.06-.36,3.83-.51,5.2.86ZM219.09,120.36c-26.53.16-54.94-3.43-82.39-2.39l-31.67,1.21c-6.13.23-11.87-.03-18.23-.41.14-.51.58-1.11,1.06-1.44l4.41-3.05,16.86-10.91c3.14-2.03,6.02-4.08,9.26-5.82,4.87,1.12,9.52,1.59,14.51,1.69-.92,2.39.06,4.96,2.53,6.02,3.12,1.34,6.46,1.48,9.86.93,3.15-.07,6.05-.7,8.94-1.81l9.94-3.81,15.98.55,13.32.24c5.76.1,11.2.1,16.98.49,8.54.57,16.77.79,25.29.8l15.18.63c3.58.15,6.91.43,10.52.82-8.23,3.23-15.25,4.75-23.32,9.26-2.17,1.21-4.29,2.27-6.51,3.36l-6.22,3.07c-1.81.9-4.23.58-6.31.59ZM305.19,252.55l-.94,51.53-.33,17.64c-.05,2.5.04,4.93.25,7.38.14,1.61-.61,2.43-1.94,3.19l-17.66,10.06-9.1,5.77-17.33,9.49-8.71,4.6c-3.2,1.69-6.34,3.11-9.34,5.25l-10.54,7.51c-.15.1-.74.31-.78.18-.04-.13-.13-.46-.14-.6-.31-7.97-2.42-16.56-2.49-24.97l-.33-42.86-.2-9.23-.37-7.26-.87-14.51c-.74-12.41,1.04-24.65.91-37.69l-.25-24.7.84-21.31c.18-4.64.07-8.96.01-13.62l-.36-28.08,1.56-10.59c.6-4.06.94-8.03,1.08-12.3,3.96,2.58,6.75,6.08,10.01,9.33l8.81,8.78c2.4,2.39,4.79,4.43,7.49,6.46,4.29,3.22,7.9,7.02,11.54,10.93,1.74,1.88,3.69,3.27,6.2,3.76,2.64.52,4.97-.77,6.06-3.3l5.63-13.1,4.98-12.99,8.06-21.6,6.33-18.31.56,27.26.53,26.36v60.89s.38,13.47.38,13.47c.25,9.15.58,17.97.41,27.19Z"/>
        <path class="cls-1" d="M115.85,142.54l-.15,7.2c2.52-1.39,3.92-3.92,2.78-5.83-.56-.93-1.23-1.43-2.62-1.37Z"/>
      </g>
      <path class="cls-1" d="M242.62,230.92c-1.57,2.22-6.04,5.95-7.95,3.71-.43-.5-.36-1.41-.35-2.25.08-4.35-.76-8.52-1.03-12.88l-.39-6.2c-.19-3.07,2.27-5.94,4.96-6.69,1.91-.53,3.69.03,4.81,1.74,1.48,2.26,1.67,5.07.56,7.63,2.39,1.17,2.96,3.58,2.62,6.01-.46,3.28-1.3,6.2-3.23,8.93ZM236.91,216.94c3.06-.96,4.2-4.42,2.9-6.81-1.55-.29-3.5,1.47-3.48,3.13.01,1.25.3,2.66.59,3.68ZM238.43,229.34c2.32-2.64,3.74-5.83,3.63-9.49-1.64,0-3.59.92-4.65,2.06l1.02,7.43Z"/>
      <path class="cls-1" d="M252.93,237.28c.1-1.18.97-1.89,1.85-1.83.64.05,1.59,1.03,1.61,1.93l.23,16.64c.01.83.37,2.15,1.02,2.51.5.28,2.07-.32,2.2-.9.39-1.78.38-3.96.33-5.89-.14-4.71-.2-9.18-.07-13.86.03-1.1,1.29-1.85,2.07-1.77,1.12.12,1.92,1.08,1.94,2.35l.19,13.59c.03,2.41.16,5.01-.89,7.23-.97,2.07-3.86,3.64-6.1,3.41-2.77-.29-4.44-3.09-4.67-5.73-.52-5.89-.25-11.63.28-17.69Z"/>
      <path class="cls-1" d="M292.46,274.51c-.14.26-1.03.47-1.26.33-.29-.18-.62-.89-.58-1.24l1.02-7.64-2.18,1.12c-.3.15-1.19,0-1.41-.24s-.46-.93-.44-1.3l.67-10.79c.14-2.19.97-3.18,3.23-3.49,1.65-.23,3.87-.79,5.52-.47.59.12,1.52,1.39,1.4,1.94-.35,1.69-.92,3.36-1.53,5.22l2.33-.48c.35-.07,1.23.16,1.45.44s.32,1.13.11,1.5l-3.26,5.76-5.07,9.34Z"/>
      <path class="cls-1" d="M244.91,193.84c-.08.39-.59.95-.9.99s-1.12-.48-1.18-.85l-1.68-10.58-1.11-6.43c-.06-.33.25-.99.45-1.15.24-.2,1.1-.35,1.38-.18l2.39,1.44.04-4.58c.01-1.13,1.03-2.44,2.27-2.24,1.81.29,3.36,1.44,4.84,2.2,1.9.96,2.64,2.07,2.04,4.16l-3,10.52c-.13.44-.63,1.1-1,1.23s-1.26-.15-1.52-.44l-1.48-1.63-1.57,7.55Z"/>
      <path class="cls-1" d="M268.87,223.02c-1.05,1.58-2.59,2.42-4.22,2.39-3.85-.07-4.57-4.33-5.19-7.19-.92-4.2-1.57-8.32-1.27-12.64.18-2.61,3.7-6.63,7.51-5.46,1.38.42,2.13,1.81,2.93,3.26,1.32,2.38,1.65,4.89,2.04,7.6.6,4.13.62,8.38-1.81,12.05ZM267.21,215.02l-.47-4.53c-.22-2.15-.67-4.03-1.49-6.02l-.39-.95c-.19-.46-2.95.4-2.87,4.22.04,2.04.72,14.07,2.7,14.08s2.76-4.46,2.51-6.81Z"/>
      <path class="cls-1" d="M249.69,227.97c-3.76-3.3-4.06-13.62-3.06-18.31.55-2.59,2.81-5.98,5.68-5.14,1,.29,2.27,1.1,2.85,2.15,2.44,4.39,3.1,9.36,2.63,14.38-.22,2.38-.54,4.81-1.99,6.72s-4.32,1.77-6.1.2ZM251.56,208.06c-2.93,1.9-1.74,17.76,1.37,17.26,2.4-2.69,1.23-13.98-1.37-17.26Z"/>
      <path class="cls-1" d="M269.67,250.27c.03,2.43-.06,4.56-.15,6.91-.03.84-1.09,1.66-1.77,1.7-.89.05-1.95-.74-1.99-1.77l-.38-9.51c-.17-4.13-.36-8.07-.23-12.19.07-2.3,4.37-5.11,7.59-4.09s3.57,7.54,2,11c-.99,2.18-2.92,3.33-5.12,4.3l.04,3.65ZM271.54,234.98c-.82-.11-1.87.22-2.57.73-.02,2.21.08,4.33.39,6.51,2.82-.88,2.95-5.19,2.19-7.23Z"/>
      <path class="cls-1" d="M281.89,216.08c-.95,4.49-5.91,7.39-8.7,5.46-.72-.5-1.45-1.53-1.48-2.7-.02-.64.76-1.65,1.29-1.67.66-.01,1.44.23,2.22.49,1.05.35,2.33-.97,2.59-2.09.33-1.47.92-6-1.52-5.96-3.05.05-5.19-2.16-5.26-5.12-.04-1.67.24-3.46.87-5.04.87-2.18,3.19-3.66,5.5-3.15,1.57.35,2.63,1.8,2.75,3.43.03.4-.42,1.34-.79,1.47-1.43.5-1.93-.89-3.08-.79-.8,1.55-1.1,3.27-.84,5.02,2.95-.38,5.42,1.07,6.41,3.95.68,1.99.5,4.52.04,6.68Z"/>
      <path class="cls-1" d="M287.55,216.23l.32-17.89c-1.95.12-5.06,2.68-6.27.45-1.46-2.69,3.15-3.74,4.93-4.34,3.11-1.06,5.96-2.01,9.18-2.9.45-.12,1.5.52,1.62.95.57,2.11-4.26,3.72-5.9,4.5.23,6.3.32,13.2-.17,19.47-.06.81-1.23,1.54-1.88,1.54s-1.84-.77-1.82-1.8Z"/>
      <path class="cls-1" d="M280.83,249.19c-.02,1.26-1.45,2.06-2.26,1.95-1.08-.15-1.85-1.08-1.82-2.3l.49-17.93c.02-.86.65-1.77,1.3-1.92.82-.18,1.83.51,1.95,1.5.32,2.51.51,4.95.48,7.54l-.15,11.17Z"/>
      <path class="cls-1" d="M278.4,252.92c1.21-.43,2.21.31,2.63,1.26s-.26,2.17-1.18,2.56c-1,.42-2.14-.11-2.53-.88-.55-1.09-.25-2.47,1.08-2.94Z"/>
      <path class="cls-1" d="M31.28,201.87c-.19-5.89-.6-11.45-1.4-17.29l-2.29-16.72c-.4-2.91-1.38-15.39-5.03-15.24-2.42.1-3.53,4.59-3.83,6.7-.73,5.21-3.12,17.54-4.72,22.26l-6.32,18.64c-1.41,4.17-2.42,8.2-2.23,12.58.19,4.36.98,8.42,3.51,12.09,3.19,4.61,8.39,6.27,13.27,2.82,7.94-5.61,9.34-16.81,9.04-25.83ZM15.1,222.1c-.45.23-1.33-.32-1.4-.75-.09-.52.07-1.45.41-1.73.36-.3,1.47-.21,1.78.16.61.71.19,1.83-.79,2.32ZM14.35,208.93c-.71,4.35.71,7.45-.84,7.81-.42.1-1.09-.43-1.53-.93-.43-5.37.47-10.4,2.28-15.5l3.45-9.72c.1-.29.62-.65.85-.7.22-.04.57.63.56.95-.16,6.43-3.49,10.28-4.76,18.1Z"/>
      <path class="cls-1" d="M299.01,287.55c-.82-2.66-3.56-4.8-6.35-4.76-1.8.03-3.32,1.35-4.94,1.8l-11.37,3.1c-2.94.8-5.63,1.72-8.49,2.69-5.67,1.9-10.94,4.16-16.29,6.88-6.34,3.22-10.73,4.11-14.94,9.92-1.62,2.24-2.58,4.58-2.77,7.45l-.31,4.63.35,20.07c.09,4.95-.01,9.71.83,14.49,1.64,9.31,18.07-.61,22.48-2.83l13.15-6.62c5.6-2.82,10.94-5.48,16.28-8.73,16.98-10.34,11.11-15.6,12.53-29.06l.82-7.78c.4-3.78.14-7.55-1-11.24ZM244.55,348.89c-.39.11-1.14-.69-1.19-1.22-.82-10.02-1.14-26.66-.51-36.67.03-.54.96-1.29,1.41-1.2.45.09,1.1.86,1.11,1.47l.31,20.34c.04,2.88.9,16.74-1.13,17.29ZM251.34,345.91c-2.2.77-1.39-11.23-1.42-13.08-.09-6.16-.12-12.04.14-18.2l.31-7.4c.01-.27.48-.94.67-.85,1.21.54,1.03,6,1.03,7.91v13.79s.32,9.2.32,9.2c.07,2.24.96,7.93-1.06,8.64ZM261.35,336.28c0,1.81-.03,5.72-2.27,6-2.48.3-2.86-3.47-2.8-5.43l.62-20.98c.07-2.44-.72-14.19,1.59-14.81,2.03-.55,2.46,4.43,2.53,5.78.21,4.29.36,8.43.34,12.74l-.04,8.64.03,8.07ZM266.81,337.99c-2.71-.05-2.77-4.61-2.74-6.68l.06-5.57-.09-7.43c-.08-6.42.69-12.61,1.46-18.95.07-.56.87-1.29,1.32-1.32.45-.03,1.31.68,1.38,1.21.61,4.66,1.09,9.11,1.26,13.81l.29,8.34c.13,3.72-.3,7.37-.38,11.08-.03,1.24.31,5.55-2.56,5.5ZM274.89,331.9c-.18,1.1-.22,2.02-1.34,2.83-1.6-2.04-.79-4.09-.79-6.21,0-5.56.33-10.8.57-16.39l.63-14.77c0-.15.14-.58.21-.68.11-.14.4-.27.55-.19.15.09.39.64.39.88l.03,11.36-.26,23.16ZM285.69,319.26c-.32,3.42-.5,6.59-1.28,9.89-.13.57-1.1,1.25-1.59,1.37-.57.14-1.75-.55-1.87-1.46-.83-6.29-.54-12.25-.3-18.44.15-3.91.22-7.59.79-11.41l.77-5.16c.08-.55,1.09-1.28,1.59-1.2.5.08,1.25.91,1.35,1.58,1.25,8.28,1.31,16.48.54,24.82ZM291.98,309.67l-.15,8.66c-.04,2.45.32,4.88-.99,6.56-1.87,2.39-1.51-10.31-1.26-10.86-.23-3.61.04-6.92.16-10.57l.34-10.64c.01-.38.57-1.02.87-1.09.35-.09.97.65.98,1.12l.18,10.96-.12,5.86Z"/>
    </g>
  </g>
</svg>