<?xml version="1.0" encoding="UTF-8"?>
<svg id="Layer_2" data-name="Layer 2" xmlns="http://www.w3.org/2000/svg" viewBox="0 0 500 236.9">
  <defs>
    <style>
      .cls-1 {
        fill: #a2f4e6;
      }
    </style>
  </defs>
  <g id="Layer_1-2" data-name="Layer 1">
    <g>
      <path class="cls-1" d="M51.86,27.42c-5.22,2.98-14.26,7.02-20.24,5.41-1.47-.4-2.2-1.92-1.74-3.36,1.51-4.75,8.28-7.67,13.39-7.13,2.29.24,9.65,1.82,9.86,4.23.03.37-.86.61-1.27.85Z"/>
      <path class="cls-1" d="M20.47,55.04c-3.71,3.28-5.91,6.53-9.89,8.37-2.25,1.04-5.06.19-5.66-2.41-.32-1.38.35-3.08,1.32-4.25,3.63-4.4,9.65-6.62,15.32-5.61.75,1.36-.1,3.02-1.09,3.9Z"/>
      <path class="cls-1" d="M68.88,10.8c-4.94-1.19-7.14-.54-10.83-2.15-2.31-1.01-4.22-2.71-5.02-5.14-.55-1.66.45-3.14,2.16-3.41,2.03-.32,4.02.2,6.03.8,4.25,1.27,7.95,3.79,9.84,7.92.22.47.15,1.4-.1,1.77-.35.52-1.31.4-2.08.21Z"/>
      <path class="cls-1" d="M60.67,52.28c-2.89,3.37-11.24,15.56-16.26,10.45-.96-.98-1.17-2.64-.7-4.13,2.03-6.4,9.77-8.85,15.91-8.59l1.04,2.26Z"/>
      <path class="cls-1" d="M16.33,18.25c-3.84,1.95-7.28,3.97-10.63,6.39-1.57,1.14-3.17.73-4.42-.66s-1.74-3.08-.78-4.82c1.09-1.97,2.76-3.7,4.91-4.55,3.37-1.33,7.05-1.56,10.52-.7,1.27.31,1.79,1.27,1.48,2.52.02.57-.39,1.46-1.09,1.82Z"/>
      <path class="cls-1" d="M497.99,35.49c-1.76-7.3-5.86-14.96-11.1-20.34-4.31-4.42-9.28-7.98-14.68-11.01-4.64-2.6-9.64-3.41-14.95-3.33-7.03.11-13.84.99-20.22,3.98-7.66,3.6-22.58,13.1-28.32,19.02-5.89,6.07-10.04,13.2-13.97,20.57-.12-.07-.58-.37-.63-.42-.59-2.1-1.55-5.07-2.03-7.35-.63-3.06-1.59-5.43-3.82-7.7-8.28-8.44-25.46-15.7-36.6-17.92l-20.68-4.12c-6.94-1.38-13.56-2.85-20.68-3-4.28-.09-8.35-.52-12.73-.37-14.07.46-27.83,1.38-41.83,2.85-13.7,1.43-32.46,6.46-44.04,13.83-3.72,2.37-5.93,5.83-7.53,9.82l-3.25,8.07c-.96,2.38-2.05,4.7-2.81,7.15-1.27,4.13-2.43,8.05-3.37,12.32-2.38,10.8-4.82,21.35-7.94,32.19l-8.94-7.55c-1.58-1.33-3.08-2.55-4.8-3.7l-3.13-2.44c-2.95-2.3-5.5-4.61-8.29-7.07-4.13-3.64-11.77-7.59-16.26-11.01-2.94-2.24-5.68-4.67-8.24-7.36-3.79-3.99-7.64-7.47-11.89-10.96-5.46-4.48-2.66-7.46-4.2-15.07-.5-2.46-2.24-3.83-4.23-5.03l-6.85-4.14c-.96-.58-2.16-.85-3.17-1.24-2.17-.81-4.06-1.42-6.42-.69-8.5,2.61-13.84,10.45-17.99,17.8-2.35,4.17-3.69,8.4-4.89,13-1.52,5.82-3.37,11.35-3.85,17.42-.4,5.04,1.92,9.93,6.13,12.45,3.45,2.07,6.68,3.79,10.27,5.51,1.58.76,3.45,1.71,5.3,1.21,3.86-1.04,9.62-4.98,12.91-7.49.78-.6,2.48-1.31,3.4-.75l4.44,6.18c2.9,4.05,5.62,8,8.87,11.8l11.25,13.14,11.2,13.89c2.21,2.74,4.48,5.27,6.81,7.89l6.49,7.3c6.46,7.27,10.13,13.73,17.79,19.72l-1.33,7.94c-2.32,13.88-3.45,21.5-1.46,35.81,1.24,8.88,5.01,17.12,11.36,23.46,8.87,8.86,23.37,12.99,35.47,15.06,7.87,1.35,15.52,2.12,23.54,2.09l41.46-.12c7.25-.02,14.06-.66,21.19-1.43l18.03-1.95,20.85-2.38,24.46-3.1c6.8-.86,13.23-2.11,19.87-3.62,4.68-1.07,8.87-2.99,12.87-5.58,8.27-5.36,10.92-8.79,15.41-17.61,6.58-4.41,16.72-15.74,21.08-22.36l7.97-12.08c2.96-4.48,5.9-8.65,8.66-13.28l11.92-19.99c4.19-7.02,8.43-13.63,12.37-20.82,4.41-8.05,8.03-16.23,11.14-24.85,2.47-6.86,4.08-13.53,5.33-20.7,1.85-10.57,1.8-21.1-.72-31.54ZM99.44,27.04c1.45-.64,2.84.13,3.39,1.39.53,1.22.05,2.81-1.53,3.39-.97.36-2.44-.04-3.1-1.29-.57-1.08-.29-2.81,1.24-3.49ZM97.2,41.54c.3-.59,1.22-1.14,1.9-1.13,1.63.02,3.07,1.24,3.09,2.93.01,1.36-1.21,2.17-2.28,2.2-1.1.04-2.08-.68-2.6-1.85-.28-.64-.36-1.64-.1-2.15ZM95.93,53.86c.37,1.04-.32,2.38-1.42,2.79-1.15.43-2.44-.08-2.99-1.32-.46-1.04.06-2.56,1.46-2.98,1.29-.39,2.52.3,2.95,1.51ZM89.42,35.64c.23-1.42,1.33-2.31,2.81-2.31,1.85,0,3.09,1.51,2.86,3.15-.24,1.67-2.02,2.71-3.86,2.01-1.32-.5-1.97-1.8-1.8-2.85ZM88.62,44.51c1.15-.29,2.34.53,2.66,1.46.44,1.28-.25,2.55-1.46,2.91-1.17.35-2.45-.33-2.85-1.55-.36-1.11.26-2.46,1.65-2.82ZM86.3,64.74c-1.51.59-3.14-.29-3.68-1.79-.53-1.48.29-3.2,1.92-3.7,1.57-.49,3.03.46,3.57,1.8.6,1.5-.37,3.13-1.81,3.69ZM192.81,113.68c-.16,2.99-.04,5.9-.35,8.88-.21,2.01-1.03,3.96-1.57,5.91-.59,2.14-1.54,4.03-2.35,6.21-1.74,4.72-3.45,9-6.25,13.06-.36.52-.66,1.11-1.24,1.51l-4.52-4.09c-2.04-1.84-4.04-3.61-5.86-5.69l-9.51-10.83-6.24-7.26c-3.37-3.92-6.32-7.78-9.2-12.06-2.57-3.81-5.61-7-8.53-10.58l-15.05-18.42c-3.44-4.21-8.8-14.39-14.15-11.42-2.1,1.16-4.04,2.41-6.01,3.76-2.68,1.85-5.72,3.19-9.06,2.64l-5.05-2.22c8.12-4.98,14.26-16.21,17.7-24.77,3.4-8.46,6.91-18.24,5.36-27.28,1.42,1.22,3.34,2.14,4.17,3.6,1.71,2.98,1.59,7.45,3.24,12.28.93,2.73,2.34,4.55,4.53,6.41l10.78,9.16c2.21,1.88,4.19,3.71,6.52,5.41,1.81,1.33,3.64,2.58,5.34,4.06,4.09,3.54,8.08,6.88,12.43,10.12,3.49,2.6,6.5,5.49,9.68,8.45,2.34,2.18,4.68,4.03,7.24,5.94,3.79,2.83,7.28,5.74,10.9,8.76,1.94,1.62,3.94,2.91,6.06,4.35.61.42,1.2,1.31,1.23,2.12.16,4.1-.05,7.91-.26,11.96ZM388.69,79.39c.87,2.12-4.27,3.18-5.75,3.5l-17.79,3.86c-6.18,1.34-12.14,1.93-18.42,2.9-11.73,1.8-23.13,2.89-35.03,2.95-7.46.04-14.48.32-21.93-.24-12.64-.95-24.79-3.01-37.19-5.55l-24.69-5.06c-3.93-.81-7.65-1.97-11.24-4.23,4.11-1.35,8.11-.89,12.17-.07l24.52,4.95c21.38,4.32,33.27,5.86,55.22,5.96,13.15.06,25.76-.61,38.8-2.2,9.32-1.14,18.02-2.99,27.17-4.85l12.63-2.57c.44-.09,1.38.28,1.53.65ZM210.17,28.7c1.61-2.16,3.56-3.89,5.95-5.25,12.38-7.06,30.46-11.97,44.61-13.21l28.22-2.48c3.45-.3,6.74-.16,10.22-.2,5.31-.06,10.3.12,15.54,1.11l27.41,5.18c11.82,2.24,28.37,7.26,38.61,13.59,2.96,1.83,9.43,6.76,6.91,10.71-8.31,13-55.95,11.87-70.21,11.42-20.75-.66-41.2-1.99-61.83-4.45-8.9-1.06-17.4-2.44-26.09-4.28-3.74-.79-24.29-5.52-19.34-12.15ZM208.93,119.57c4.77,1.48,9.27,2.59,14.22,3.37,8.97,1.42,17.65,2.93,26.71,3.91,16.66,1.79,33.13,2.6,49.91,2.66,25.11.09,45.18-1.02,69.39-7.97l19.18-5.51c2.28-.66,4.6-1.12,6.94.09-3.56,3.63-12.52,5.37-17.42,6.88-14.79,4.58-29.66,7.86-45.16,9.25-23.56,2.12-60.11.38-83.9-2.36-10.65-1.23-20.89-3.12-31.31-5.2-14.71-2.92-9.46-5.41-8.57-5.13ZM389.24,164.06l-16.82,4.69c-8.3,2.32-16.73,2.77-25.33,3.44l-20.35,1.58-24.75,1.99-16.59.73c-20.2.89-42.31-2.31-62.31-5.47-7.24-1.14-14.09-2.63-20.98-4.97-1-.34-1.73-.71-2.69-1.65,2.22-.79,4.02-.93,6.08-.67l6.38.82,30.79,4.82c15.89,2.49,39.62,3.59,55.53,2.57l31.3-2.01,17.19-1.1c6.98-.45,13.75-.72,20.68-1.81,6.62-1.04,12.83-2.71,19.26-4.45l11.3-3.05c.49-.13,1.11-.79,1.5-1.11,4.42,2.24-8.63,5.19-10.2,5.63ZM416.91,138.46c-2.63-11.77-4.92-23.26-6.8-35.14-1.04-6.55-2.79-12.53-4.64-18.86l-5.51-18.82,7.05-9.78c2.88-3.99,6.08-7.59,9.98-10.63,4.25-3.31,8.56-6.2,13.11-9.07,3.54-2.23,7.41-3.18,11.25-4.68,7.32-2.87,14.73-3.57,22.44-1.91,10.05,2.16,11.81,9.83,12.99,18.49.74,5.4.66,10.58-.75,15.96-2.74,10.52-5.47,20.8-8.8,31.2-2.58,8.05-6.23,15.44-10.47,22.69-3.71,6.34-7.77,12.06-12.05,17.96-1.46,2.02-2.61,4.08-3.83,6.26-2.99,5.54-6.05,10.81-9.58,16.05-2.91,4.33-5.51,8.52-8.22,13.16-1.53-11.25-3.73-21.9-6.18-32.87ZM492.8,65.65c-2.88,16.73-9.9,34.51-18.73,48.84l-10.75,17.46-10.94,17.85c-2.85,4.65-5.64,8.98-8.79,13.42-2.84,4-5.31,7.97-7.94,12.13-3.93,6.19-7.95,12.05-12.47,17.9.42-3.42,1.03-6.5.86-9.81l-.4-8.01c.93-.8,1.93-1.64,2.67-2.63l9.76-12.93c5.05-6.7,10.12-17.02,12.95-20.71,4.39-5.71,7.97-11.59,11.68-17.77,5.24-8.72,8.95-17.84,11.84-27.64,2.89-9.81,5.95-19.25,8.3-29.19.8-3.37,1.36-6.64,1.26-10.08-.15-5.33-.94-10.49-2.21-15.57-2.01-8.01-8.13-13.59-16.13-15.16-8.35-1.64-16.57-.93-24.65,1.84-4.4,1.51-8.72,2.73-12.72,5.22-5.62,3.48-10.75,7.43-15.5,12.05-5.26,5.12-9.01,11.14-12.25,17.5l-2.64-10.7c1.97-2.87,3.64-6.13,5.85-9.02,6.63-8.69,14.82-15.68,23.93-21.64,4.9-3.21,9.58-6.19,14.92-8.54,5.27-2.33,10.83-2.85,16.56-2.98,5.1-.12,9.77.87,14.11,3.57,4.52,2.81,8.83,5.72,12.32,9.81,3.74,4.39,6.5,9.45,8.01,15.06,2.61,9.79,2.82,19.78,1.11,29.72Z"/>
      <path class="cls-1" d="M344.42,44.86l-7.68.36c-3.71.17-7.23.27-10.95.21l-15.67-.23c-1.79-.03-3.37-.79-4.5-2.18-1.69-2.08-3.41-4.11-4.96-6.32-2.86-4.08-5.9-7.67-9.36-11.27-2.8-2.91-5.26-5.97-7.87-9.03-1.2-1.4-.98-3.26.64-4.35,2.82-1.91,10.63-.71,14.49-.64,9.36.18,18.26,1.3,27.45,2.97,7.2,1.31,14,2.84,20.95,5.12l14.82,4.88c4.81,1.58,13.23,7.54,10.65,13.49-.61,1.4-2.08,2.59-3.86,3.17-9.04,2.91-14.44,3.37-24.13,3.82Z"/>
    </g>
  </g>
</svg>