<svg xmlns="http://www.w3.org/2000/svg" version="1.1" xmlns:xlink="http://www.w3.org/1999/xlink" width="291" height="291"><svg xmlns="http://www.w3.org/2000/svg" version="1.1" xmlns:xlink="http://www.w3.org/1999/xlink" width="291" height="291"><svg width="291" height="291" viewBox="0 0 291 291" fill="none" xmlns="http://www.w3.org/2000/svg">
<rect width="290" height="290" fill="#A1CCFF"></rect>
<path d="M289.337 45.4135C289.337 21.3412 268.123 1.71422 244.11 1.71422C192.703 1.71422 141.387 0.0820534 90.0782 0.0328424C79.512 0.0164388 68.9459 0.00823697 58.3798 3.51448e-05C30.0206 -0.0245703 2.20162 12.8687 2.20162 45.4217C2.20162 61.3989 2.10341 77.1628 3.33108 93.0907C5.19713 117.22 1.12946 141.654 0.671126 165.701C0.163689 192.202 0 218.702 0 245.21C0 256.217 4.78791 267.453 10.9017 276.401C18.636 287.712 38.2214 286.572 50.1626 287.827C62.6111 289.139 75.9109 288.499 88.4986 288.499C113.568 288.499 142.762 285.161 153.958 258.989C157.985 249.565 156.413 239.173 156.29 229.216C156.266 227.387 155.668 224.189 158.247 226.379C160.154 228.002 162.322 229.307 164.663 230.192C169.132 231.89 174.1 232.038 178.708 230.807C187.342 228.503 194.258 221.531 196.247 212.772C196.427 211.968 196.517 211.082 196.533 210.155C196.599 205.694 195.199 201.429 194.062 197.172C193.726 195.917 193.112 193.694 194.52 192.759C195.69 191.98 197.802 193.26 198.94 193.629C201.272 194.4 203.638 195.089 206.06 195.548C210.766 196.442 215.628 196.401 220.154 194.711C229.73 191.135 233.977 181.949 229.541 172.509C227.757 168.72 225.163 165.111 222.126 161.707C219.229 158.467 216.029 155.515 212.706 152.726C211.175 151.447 205.062 147.994 205.258 145.968C205.545 142.982 212.379 140.866 214.507 139.447C218.321 136.905 221.938 134.075 225.146 130.794C225.719 130.212 226.259 129.63 226.783 129.039C243.054 110.651 233.486 91.7046 209.473 93.1563C205.946 93.3696 202.443 93.8863 198.989 94.6245C197.311 94.9853 191.336 97.5443 189.986 96.7979C187.31 95.3134 190.559 88.145 190.862 86.0207C191.426 81.9362 191.672 77.7451 191.107 73.6442C189.937 65.1717 184.781 58.8563 176.555 56.3384C166.988 53.4103 161.275 54.0664 154.457 61.4645C151.936 64.2039 149.669 67.173 147.599 70.265C146.526 71.8644 145.512 73.4966 144.538 75.1533C143.924 76.2032 142.95 79.1312 141.976 79.7545C138.506 81.9772 135.085 72.865 133.742 70.9786C131.009 67.1484 127.858 63.6134 124.199 60.6443C119.6 56.9125 112.111 56.8141 106.734 58.6759C99.6131 61.1446 97.7143 66.7547 96.4948 73.7754C95.6273 78.7703 95.3899 83.8473 95.5209 88.9078C95.5863 91.3683 96.3311 93.7961 96.0528 96.273C95.9383 97.3064 95.6845 99.0452 94.6124 99.5784C93.3929 100.193 92.2553 99.0862 91.1094 98.668C84.2918 96.1828 75.829 96.7487 69.2569 99.6522C62.251 102.744 56.5546 108.961 54.664 116.392C52.5197 124.807 55.7444 132.492 61.9155 138.266C65.0337 141.178 68.6349 143.557 72.3343 145.656C74.9451 147.141 78.5545 147.789 80.6415 150.069C83.5961 153.3 76.4347 157.319 74.2658 159.247C72.2197 161.067 70.1736 162.888 68.3403 164.914C54.6395 180.096 65.7376 194.957 84.079 195.203C86.8044 195.236 89.5053 194.367 92.2471 194.67C97.0841 195.195 95.0216 198.328 94.154 201.806C91.3304 213.067 91.9361 227.617 98.099 233.325C101.782 236.737 107.568 240.822 112.757 240.067C120.533 238.927 126.957 233.67 131.983 227.92C133.374 226.329 134.675 224.673 135.911 222.967C136.32 222.401 137.049 220.777 137.695 220.531C140.486 219.44 140.077 229.503 140.159 230.824C140.437 235.63 140.65 240.436 140.65 245.251C140.65 277.878 96.8222 275.721 74.0612 276.738C58.3961 277.435 36.8137 278.616 25.3064 265.649C7.77524 245.899 16.6554 212.928 15.5505 189.364C13.6926 149.913 15.485 109.945 15.4932 70.4455C15.4932 43.4123 20.6412 11.335 54.7459 11.5236C88.4658 11.7122 121.801 14.5501 155.48 12.9589C186.548 11.4908 275.775 -5.01948 275.775 45.4545C275.775 61.4727 277.134 76.9987 275.612 93.0579C273.148 119.074 275.358 143.655 275.186 169.507C275.022 194.752 274.965 220.006 274.965 245.251C274.965 262.081 260.921 276.943 244.134 276.943C223.141 276.943 202.344 274.679 181.278 275.237C176.4 275.368 171.301 273.818 169.631 279.313C168.6 282.717 171.301 287.95 174.452 289.327C176.179 290.09 178.135 290.066 180.025 290.025C201.37 289.623 222.838 288.105 244.134 288.105C282.266 288.105 287.332 252.239 285.76 221.999C284.926 205.981 286.129 189.528 286.587 173.493C287.234 150.479 285.098 127.243 288.478 104.409C291.35 85.0201 289.37 65.1307 289.37 45.4545L289.337 45.4135ZM124.428 161.445C112.348 149.24 121.924 132.681 132.891 122.839C136.419 119.673 140.093 117.196 143.236 115.785C149.759 112.865 158.32 114.727 164.254 118.246C192.482 134.986 153.303 190.635 124.428 161.453V161.445Z" fill="#007A4E"></path>
</svg></svg><style>@media (prefers-color-scheme: light) { :root { filter: none; } }
@media (prefers-color-scheme: dark) { :root { filter: none; } }
</style></svg>