<?xml version="1.0" encoding="UTF-8"?>
<svg id="Layer_2" data-name="Layer 2" xmlns="http://www.w3.org/2000/svg" viewBox="0 0 43.83 70.87">
  <defs>
    <style>
      .cls-1 {
        fill: #8accff;
      }
    </style>
  </defs>
  <g id="Layer_1-2" data-name="Layer 1">
    <g>
      <path class="cls-1" d="M21.22,16.51c-.42-.37-.85-.74-1.07-1.27-.26-.62-.51-.8-1.08-1.08-.14-.07-.29-.13-.44-.1-.46.11-.61.37-1.14.3-.54-.07-1.02-.34-1.4-.73-.5-.55-.8-.26-1.13.16l-.06.07c-.89.93-2.05.69-1.74,2.45.23.89-.59,1.53-.4,2.4.17.75,1,.96,1.59,1.3.28.17.6.41.68.75.08.32.03.63.17.96.11.27.3.51.56.63.23.11.5.1.75.1.14,0,.28,0,.41-.06.27-.11.54-.51.8-.69.32-.22.67-.43,1.06-.45.65-.08,1.47.13,1.8-.26.33-.34-.02-1.11.11-1.76.14-.69.93-1.26.97-1.93.02-.35-.22-.6-.46-.8ZM19.36,18.75c-.14.19-.28.39-.46.49-.31.13-.68.1-.95.35-.44.34-.44.92-1.18.75-.29-.07-.51-.24-.75-.39-.26-.16-.24-.26-.36-.54-.05-.11-.13-.21-.22-.3-.38-.41-.82-.9-.73-1.51.04-.33.08-.72.24-1.01.12-.21.34-.38.54-.51.26-.17.49-.22.7-.45.03-.03.05-.05.08-.07.19-.14.4-.1.64.01.3.14.56.37.88.49.49.16.9.05,1.26.36.72.51.91,1.69.3,2.33Z"/>
      <path class="cls-1" d="M30.17,46.12c.45-.86.75-1.8,1.24-2.65.91-1.59,2.02-2.81,3.83-3.25,0,0,.05-.01.05-.01,1.38-.4,3.04-.47,4.21-1.59.57-.57,1.1-1.25,1.61-1.89.96-1.54,2.48-2.87,2.72-4.72.02-.78-1.06-.7-1.39-1.12-.29-.37-.08-.97-.3-1.38-.28-.64-1.5.04-1.71-.71-.5-2.2-4.46.88-4.98,1.51-.93,1.03-1.76,2.28-2.28,3.56-.25.61-.19,1.21-.35,1.85-.18.71-.52,1.37-.92,1.97-.66.98-1.5,1.83-2.24,2.75-1.03,1.28-1.88,2.72-2.5,4.24-.15.36-.39.8-.78.76-.37-.04-.52-.48-.59-.84-.16-.84-.13-1.77-.34-2.59-.19-.76-.48-1.52-.68-2.3-.45-1.76-.86-3.58-1.54-5.27-.35-.86-.77-1.71-1.16-2.55-.09-.21-.16-.51.04-.62.17-.09.36.06.51.17.46.36,1.04.55,1.6.72,1.99.63,4.02-.9,4.33-2.96.23-1.51,1.22-2.88,2.34-3.92.76-.78,2.35-3.06.99-3.93-.3-.19-.65-.3-.94-.51-.77-.56-.35-1.03.28-1.54.3-.24.64-.4.98-.58,1.53-.82,1.98-2.61,1.85-4.22-.07-.81-.26-1.69-.64-2.41-.5-.95-1.35-1.17-2.11-1.84-1-.88-.99-2.57-1.65-3.71-.94-1.62-2.81-2.31-4.59-1.79-1.07.31-2.49,2.15-3.22.48-.17-.39-.23-.82-.37-1.22-.7-1.89-2.77-2.09-4.45-2.46-1.57-.35-2.67-1.82-4.34-1.48-1.33.27-2.65,1.31-3.31,2.47-.34.6-.54,1.27-.62,1.95-.04.35-.07.72-.04,1.07.03.3.3.86.22,1.12-.06.18-.23.31-.41.33-.15.01-.3-.04-.45-.1-2.22-.9-4.96-1.54-5.82,1.42-.22.74-.28,1.52-.52,2.26C1.18,12.27.09,13.68,0,15.53c-.07,1.54.49,3.12,1.58,4.22.95.96,1.86,1.31,3.18,1.38,1.56.08-.42,3.01-.62,3.86-.36,1.52-.28,3.3.89,4.46.55.54,1.25.9,1.99,1.1.84.23,1.71.4,2.49.81.74.39,1.21,1.15,1.88,1.64,2.25,1.89,4.53,2.3,6.63-.17.08-.09.19-.18.3-.13.07.03.1.11.12.18.26.82.77,1.56,1.08,2.37.35.91.52,1.88.73,2.84.49,2.23.97,4.47,1.42,6.71.45,2.24.66,4.62,1.39,6.78,1.56,4.58,4.98,9.01,8.06,12.68,1.01,1.2,7.84,9.65,9.08,5.4.19-.65.13-1.33.06-2-.04-.39-.07-.79-.21-1.15-.34-.91-1.21-1.48-1.97-2.07-2.08-1.61-3.7-3.75-5.28-5.85l-1.66-2.21c-.95-1.26-1.9-2.54-2.53-3.99-.71-1.64-.66-2.49.15-4.03.41-.79,1.01-1.46,1.41-2.24ZM39.77,33.47c.33-.46.69-.72.9-.19.22.54-.21,1.12-.53,1.51-.51.63-.96,1.25-1.62,1.74-.18.14-.45.52-.72.47-.3-.06-.23-.37-.09-.57.38-.55.85-.97,1.23-1.53.11-.17.46-.92.83-1.43ZM35.11,35.12c.15-.73.77-1.25,1.14-1.85.36-.59.73-1.19,1.23-1.68.15-.15.44-.47.69-.59.42-.21.41.32.33.54-.12.37-.37.67-.61.97-.62.8-1.13,1.69-1.51,2.63-.09.22-.18.44-.34.61-.49.52-1.05-.05-.93-.62ZM20.28,22.41c-.7-.01-1.5-.09-2.08.33-.51.36-.92.91-1.57.98-.63.07-1.35-.15-1.8-.58-.57-.54-.76-1.13-1.06-1.81-.3-.67-1.1-.88-1.59-1.38-.45-.46-.84-1.41-.49-2.04.45-.79,0-1.59.01-2.43,0-.47.36-1.13.77-1.38.5-.3,1.1-.23,1.52-.73.2-.24.31-.55.5-.8.21-.28.53-.42.87-.45.36-.03.74.05,1.04.22.54.31.99.85,1.69.67.15-.04.29-.12.45-.17.82-.27,2.06.56,2.37,1.31.16.38.21.7.52.98.72.65,1.16,1.02,1.42,2,.06.21.11.42.11.63,0,.74-.62,1.2-.93,1.81-.2.41-.12.91-.15,1.35-.08,1-.5,1.52-1.57,1.5Z"/>
    </g>
  </g>
</svg>