<?xml version="1.0" encoding="UTF-8"?>
<svg id="Layer_2" data-name="Layer 2" xmlns="http://www.w3.org/2000/svg" viewBox="0 0 198.43 198.43">
  <defs>
    <style>
      .cls-1 {
        fill: none;
      }

      .cls-2 {
        fill: #3d6be3;
      }
    </style>
  </defs>
  <g id="Layer_1-2" data-name="Layer 1">
    <g>
      <g>
        <path class="cls-2" d="M142.87,82.07c-2.9-1.43-5.26-2.05-5.36-2.07-.55-.14-1.13-.29-1.67-.43.17.54.6,1.44,1,2.25.6,1.23,1.19,2.12,1.92,2.89.49.52.68.7.93.81.8.33,1.86.04,3.16-.87.05-.04.11-.08.16-.11.11-.11.18-.19.24-.26.09-.09.13-.13.2-.22l.06-.07c.22-.26.67-.8.68-1.01-.03-.26-.97-.73-1.33-.9Z"/>
        <path class="cls-2" d="M137.92,85.51c-.82-.86-1.47-1.84-2.12-3.18-.67-1.37-1.13-2.33-1.18-3.03-.36-.07-.67-.12-.88-.12.06.2.17.5.38.98.75,1.78,1.1,2.59,1.87,3.55.72.89,1.46,1.8,2.42,2.3-.15-.14-.3-.3-.49-.5Z"/>
        <path class="cls-2" d="M52.29,114.46c-.26-.8-.55-1.7-.54-3.09.02-1.84.54-3.25,1.5-5.33-1.59-1.86-2.65-3.82-3.17-5.87-.75,1.16-1.42,2.38-1.99,3.64-.89,1.94-1.5,3.29-1.61,4.57.02.39.04.79.04,1.18.17,1.01.56,1.41,1.28,2.14.58.58,1.29,1.31,2.1,2.6,1.18,1.88,1.83,3.82,2.2,5.56.37-.89.58-1.78.63-2.69.07-1.2-.16-1.91-.43-2.73Z"/>
        <path class="cls-2" d="M177.48,64.34c.77-2.05-.37-4.4-.98-5.67-.34-.69-1.13-2.32-2.78-3.59-.46-.35-.85-.58-1.23-.79-.67-.38-1.3-.74-1.85-1.59-.77-1.19-.75-2.35-.72-3.37,0-.19,0-.37,0-.56-.02-4.11-2.73-8.72-5.79-9.87-.4-.15-.6-.17-.86-.19-.37-.04-.78-.07-1.51-.41-1.5-.7-2.14-1.64-2.82-2.64-.18-.27-.37-.55-.58-.83h0s0,0,0,0c-.34-.45-.74-.92-1.29-1.43-.89-.81-1.42-1.03-1.99-1.27-.11-.05-.22-.09-.34-.14-.74-.13-1.26.04-2.56.45-.88.28-2.09.66-3.84,1.09-.37.09-.85.17-1.39.27-.82.14-1.83.32-2.93.6-1.71.43-2.65.4-3.74.36-.79-.03-1.68-.06-3.09.1-2.26.25-3.29.7-4.2,1.1-.95.42-1.86.81-3.67.85-1.96.03-3.15-.37-4.2-.73-1.05-.36-1.95-.67-3.56-.57-1.34.08-1.9.37-2.75.81-.75.39-1.68.86-3.35,1.33-3.12.86-5.26.68-7.15.53-1.95-.16-3.49-.29-5.71.72-1.1.5-1.53.9-2.03,1.36-.6.55-1.27,1.17-2.97,1.89-1.87.8-3.16.95-4.3,1.08-1.15.13-2.15.25-3.64,1.05-.96.52-1.52.99-2.06,1.45-.73.62-1.48,1.26-3.02,1.85-1.84.71-3.34.79-4.43.85l-.42.02c-3.78.25-6.66,1.76-10.64,3.85-3.92,2.05-7.49,4.77-10.61,8.06-.01.73.07.97.12,1.13.14.4.3.69.48.98.25.43.53.92.71,1.72.18.81.19,1.66.03,2.53.46-.17.98-.35,1.57-.56,1.77-.64,3.02-1.1,3.94-1.44,2.11-.78,2.55-.94,3.67-1.19,1.32-.29,4.03-.77,7.42-.74h.19c1.91.02,3.57.04,5.65.61,2.33.63,4.03,1.62,6.85,3.26,1.53.89,2.4,1.47,3.1,1.94.84.56,1.4.94,2.6,1.48,1.57.71,3.19,1.45,5.35,1.66,2.9.28,5.16-.57,6.97-1.25,1.28-.48,2.21-.97,3.39-1.59,1.26-.66,2.83-1.49,5.37-2.58.7-.3,1.3-.55,2.15-.77,1.63-.42,2.78-.36,3.9-.31.62.03,1.21.06,1.87,0,.65-.06.85-.15,1.73-.53.57-.25,1.42-.62,2.8-1.15,4.54-1.74,6.81-2.62,8.93-2.36,1.24.15,1.89.49,2.53.82.62.33,1.27.67,2.71.91,1.34.23,2.04.15,2.72.07.71-.08,1.44-.17,2.65.08,1.88.39,2.82,1.14,3.72,1.88.81.65,1.57,1.27,3.14,1.75,1.7.52,3.21.53,5.96.54.46,0,.88,0,1.28-.01.32,0,.63-.01.93-.01,1.43,0,2.75.11,4.22.83.79.39,1.68.82,2.34,1.71,1.91,2.58.11,6.47-2.36,11.85-.3.64-.68,1.36-1.33,2.56-.24.45-.52.97-.84,1.57-.34.64-.64,1.2-.91,1.7-.15.28-.3.55-.43.8.16-.13.33-.26.51-.4.7-.54,1.55-1.21,2.62-2.02.9-.69,1.8-1.39,2.7-2.09l1.56-1.2c3.05-2.35,3.44-2.69,3.57-3.28.11-.51.02-.99-.07-1.49-.14-.76-.32-1.72.36-2.65.37-.51.75-.68,1.03-.81.2-.09.29-.13.45-.32.66-.79.57-2.24.26-3.32-.14-.5-.28-.72-.43-.96-.19-.3-.41-.65-.47-1.29-.11-1.21.46-1.99.96-2.67.3-.41.61-.83.82-1.4ZM69.39,63.01c-.6-.16-1.07-.25-1.5-.33-.85-.16-1.52-.29-2.35-.83-1.25-.81-1.87-1.83-2.17-2.53-.29-.7-.43-1.45-.41-2.23l1.16.03c-.02.62.09,1.21.32,1.75.24.56.73,1.36,1.73,2.01.64.42,1.13.51,1.94.66.44.08.94.18,1.57.35l-.3,1.12ZM79.44,62.19c-.16-.03-.32-.06-.49-.1-.47-.09-.99-.19-1.6-.39-2.8-.96-5.82-3.75-5.91-7.03-.02-.84.16-1.69.53-2.54l1.06.47c-.31.69-.45,1.37-.43,2.03.07,2.65,2.67,5.11,5.13,5.96.52.18.98.27,1.43.35.17.03.35.07.52.1l-.24,1.13ZM109.91,64.91c-.59,0-1.18-.07-1.75-.2-3.65-.87-5.53-4.19-5.86-4.84-.45-.87-.61-1.54-.79-2.3-.21-.89-.45-1.9-1.24-3.64-.89-1.94-1.41-2.46-2.08-2.74-.69-.28-1.42-.22-2.01-.06.43.55.85,1.16,1.22,1.85,1.35,2.49,1.57,4.85,1.66,5.85.17,1.94-.06,3.13-.24,4.08-.18.95-.31,1.58.06,2.55.71,1.85,2.44,2.96,3.78,3.57l-.48,1.05c-1.53-.7-3.53-1.99-4.38-4.21-.44-1.14-.35-1.97-.18-2.86-.48-.52-1.02-.96-1.61-1.33-1.6-1-3.08-1.11-5.77-1.32l-.46-.04c-4.6-.36-6.5-.53-7.35-1.11-2.7-1.83-3.08-5.34-3.14-6.37-.06-1.04.07-2.09.38-3.1l1.11.34c-.27.89-.38,1.8-.33,2.71.03.64.32,3.9,2.63,5.47.63.43,3.08.62,6.79.91l.46.04c2.78.21,4.46.34,6.3,1.49.44.27.85.59,1.24.94.1-.71.15-1.55.05-2.7-.09-1.01-.28-3.13-1.52-5.4-1.64-3.01-4.15-4.49-4.98-4.97-1.02-.6-2.11-1.07-3.26-1.39l.32-1.11c1.24.35,2.42.86,3.52,1.51.59.35,1.97,1.16,3.36,2.62,1.19-.43,2.32-.45,3.28-.05,1.07.44,1.77,1.31,2.69,3.33.84,1.84,1.1,2.96,1.32,3.85.17.72.31,1.29.69,2.04.3.58,1.94,3.49,5.1,4.25,2.09.5,4-.18,5.24-.83l.54,1.02c-1.42.76-2.88,1.14-4.3,1.14ZM119.22,63.03c-.26-.38-.66-.65-2.16-1.15-1.51-.51-2.36-.66-3.05-.79-.57-.11-1.06-.2-1.68-.45-2.66-1.08-3.98-3.59-4.55-4.67-1.05-1.99-1.2-3.7-1.44-6.28-.16-1.77-.16-3.55,0-5.3l1.15.1c-.15,1.68-.15,3.4,0,5.09.23,2.53.37,4.06,1.31,5.84.55,1.05,1.7,3.21,3.96,4.14.51.21.91.28,1.45.38.72.13,1.62.3,3.2.83,1.64.55,2.28.92,2.74,1.59l-.95.66ZM126.47,61.78c-1.22-1.26-1.84-2.5-2.25-3.31-.07-.15-.14-.28-.21-.41-1.13-2.13-2.9-3.34-3.65-3.85-1.6-1.09-2.87-1.18-4.09-1.27-1.23-.09-2.51-.18-3.82-1.35-.73-.65-.92-1.15-1.23-1.98-.28-.74-.7-1.85-1.78-3.81-1.44-2.6-2.12-3.78-3.22-4.57-.57-.41-1.23-.72-1.97-.93l.32-1.11c.86.25,1.64.62,2.32,1.1,1.36.97,2.14,2.39,3.56,4.95,1.12,2.03,1.56,3.19,1.85,3.96.29.77.4,1.06.92,1.52,1.02.91,1.95.97,3.13,1.06,1.31.1,2.8.2,4.66,1.47.76.52,2.76,1.89,4.03,4.27.07.13.14.27.22.43.11.22.24.47.38.73.07-2.58-.48-4.44-1.65-5.52-.48-.44-.86-.58-1.5-.8-.68-.24-1.62-.57-3.09-1.43-2.3-1.34-3.96-2.31-4.85-4.3-.23-.51-.27-.8-.34-1.24-.07-.49-.18-1.23-.63-2.89-.33-1.23-.56-1.88-.84-2.4l1.02-.55c.32.6.58,1.32.93,2.64.47,1.72.58,2.5.66,3.02.06.4.08.57.25.94.74,1.65,2.19,2.5,4.38,3.78,1.38.8,2.22,1.1,2.89,1.34.7.25,1.25.44,1.9,1.04,1.67,1.54,2.31,4.22,1.92,7.96.18.23.38.46.61.7l-.83.8ZM138.11,59.22c-.35-1.62-1.58-2.58-2.1-2.99-1.04-.81-1.86-.99-2.66-1.16-.84-.18-1.72-.37-2.6-1.28-.98-1.02-1.27-2.21-1.81-4.38-.29-1.19-.33-1.85-.36-2.38-.03-.5-.05-.87-.28-1.55-.25-.76-1.03-3.09-3.25-4.21-1.68-.85-3.41-.61-4.29-.39l-.28-1.12c1.04-.26,3.08-.53,5.09.48,2.65,1.33,3.53,4,3.83,4.88.27.82.3,1.32.33,1.85.03.51.06,1.08.33,2.17.51,2.1.75,3.06,1.51,3.85.64.66,1.21.78,2.01.95.84.18,1.88.4,3.13,1.38.62.49,2.08,1.63,2.52,3.65l-1.13.25ZM163.44,66.25c-2.89,0-4.75-.68-5.69-2.07-.63-.93-.6-1.86-.57-2.77.03-.92.06-1.87-.49-3.09-.1-.23-1.06-2.26-3.13-3.33-1.16-.6-1.96-.53-2.97-.45-.93.08-1.98.16-3.48-.22-4.27-1.1-6.71-4.61-6.98-5-.74-1.11-1.01-1.96-1.28-2.79-.28-.86-.53-1.67-1.37-2.73-.97-1.25-2.26-2.26-3.83-3.01l.5-1.04c1.74.83,3.17,1.95,4.25,3.34.96,1.23,1.26,2.18,1.56,3.09.25.78.49,1.52,1.14,2.5.1.14,2.38,3.52,6.3,4.52,1.31.34,2.22.26,3.09.19,1.1-.09,2.14-.17,3.6.58,2.37,1.23,3.46,3.45,3.65,3.88.66,1.47.62,2.65.59,3.6-.03.85-.05,1.46.37,2.08.75,1.12,2.56,1.64,5.35,1.55l.04,1.16c-.22,0-.44.01-.66.01ZM166.49,62.7c-2.28-.17-3.86-.88-4.7-2.13-.44-.65-.5-1.2-.57-1.89-.04-.34-.08-.72-.17-1.22-.58-3.12-1.68-4.77-2.51-5.62-.75-.76-1.32-.93-1.99-1.11-.72-.21-1.53-.44-2.55-1.4-1.3-1.23-1.81-2.68-2.82-5.56-.5-1.44-.77-2.45-.98-3.27-.3-1.18-.47-1.83-1.1-2.63-.86-1.1-2.12-1.91-3.75-2.4l.33-1.11c1.86.56,3.32,1.5,4.33,2.8.78.99.99,1.81,1.31,3.06.21.8.46,1.78.95,3.17.95,2.71,1.43,4.07,2.52,5.11.81.76,1.39.93,2.07,1.12.72.2,1.53.44,2.49,1.42.94.96,2.2,2.81,2.83,6.22.1.54.14.96.18,1.3.07.63.1.95.38,1.37.63.94,1.91,1.48,3.82,1.62l-.08,1.15ZM172.85,79.27l-1.1-.37c.33-.97.55-1.69.48-2.66-.04-.62-.11-1.56-.83-2.21l.79-.85c1.05.97,1.14,2.28,1.19,2.98.09,1.28-.24,2.25-.53,3.12ZM175.29,63.24c-.15-.46-.4-1.23-.8-2.14.05.62.05,1.22-.02,1.81-.05.43-.12.78-.2,1.14-.11.54-.23,1.11-.3,2.08-.04.49-.1,1.81.07,3.51.08.8.2,1.52.39,2.4l-1.13.25c-.2-.92-.33-1.68-.41-2.53-.18-1.79-.11-3.19-.07-3.71.08-1.05.21-1.68.32-2.23.07-.35.14-.66.18-1.04.19-1.61-.15-3.35-1-5.18-.7-.84-1.27-1.33-1.82-1.79-.71-.6-1.44-1.22-2.34-2.51-.12-.18-.24-.36-.36-.55.03.25.06.51.11.76.14.83.3,1.42.46,2.03.21.78.42,1.59.63,2.96.36,2.41.55,3.61.21,5.05-.24,1.03-.72,2.02-1.43,2.95l-.92-.7c.61-.8,1.02-1.65,1.22-2.51.29-1.22.12-2.36-.22-4.61-.2-1.31-.4-2.09-.6-2.84-.16-.61-.33-1.25-.48-2.13-.34-1.94-.41-3.98-.22-6.07l1.15.1c-.07.73-.09,1.45-.08,2.16.41.96.91,1.88,1.5,2.73.82,1.17,1.43,1.69,2.14,2.29.6.51,1.23,1.04,2.02,2,2.01,2.45,2.8,4.91,3.14,5.97l-1.1.35Z"/>
        <path class="cls-2" d="M59.47,137.82c.31-.15.57-.28.84-.57.68-.76.54-1.77.25-3.34-.29-1.58-.65-3.55.34-5.56.53-1.07,1.17-1.6,1.69-2.01.54-.44.89-.73,1.14-1.6.21-.71.17-1.22.12-1.82-.06-.75-.13-1.6.35-2.75.43-1.04.95-1.47,1.41-1.86.36-.3.64-.53.94-1.1.53-1.01.43-1.78.3-2.76-.13-.95-.27-2.04.23-3.35.55-1.45,1.46-2.01,2.34-2.56.67-.41,1.36-.84,2.14-1.74,2.15-2.51,2.36-5.81,2.53-8.72.13-2.2-.1-3.52-.3-4.68-.26-1.45-.48-2.69.2-4.77.18-.55.37-1.01.56-1.46.41-.98.73-1.76.7-3.01-.02-.62-.12-1.11-.21-1.58-.16-.82-.33-1.66.17-2.6.45-.85,1.09-1.12,1.65-1.36.45-.19.87-.37,1.39-.88,1.31-1.29,1.58-3.16,1.62-3.52.07-.59.02-1.01-.02-1.42-.07-.59-.14-1.21.27-1.94.47-.84,1.35-1.42,2.61-1.73,0-.28.01-.48.03-.68.1-.97.35-1.91.73-2.84-.55-.22-1.09-.41-1.69-.57-1.87-.51-3.35-.52-5.22-.54h-.19c-3.21-.04-5.78.42-7.02.7-1,.22-1.37.36-3.44,1.12-.92.34-2.18.8-3.96,1.44-2.26.82-3.52,1.26-4.33,1.54-1.07.37-1.29.45-1.97.75-3.32,1.47-5.47,2.95-7.37,4.25-2.73,1.87-4.04,2.82-4.26,3.8-.15.67-.03,1.3.1,1.97.19.99.4,2.11-.38,3.24-.42.61-.88.85-1.22,1.02-.29.15-.44.23-.63.53-.29.46-.26.85-.22,1.43.04.61.09,1.37-.3,2.23-.4.86-.94,1.16-1.62,1.54-.39.22-.88.49-1.54.97-1.3.95-3.09,2.24-3.89,4.24-.25.63-.34,1.15-.42,1.65-.14.81-.27,1.65-1.16,2.33-.64.49-1.22.53-1.73.57-.3.02-.62.04-1.01.16-1.98.55-3.15,2.46-3.54,3.08-.32.52-.38.75-.69,1.88-.19.68-.47,1.71-.95,3.26-.53,1.73-.76,2.37-.87,2.67q-.08.22-.11.4c-.28,1.64,0,2.65.31,3.72.33,1.18.67,2.39.26,4.26-.13.58-.29,1.03-.42,1.4-.23.66-.31.91-.18,1.33.16.51.5.82.87,1.15.47.42,1.06.95,1.04,1.86-.02.95-.68,1.45-1.39,1.98-.4.3-.9.67-1.47,1.23-1.1,1.07-2.24,2.17-2.19,3.24.05,1.15,1.42,2.26,2.71,2.67,1.63.51,3.7,0,4.33-1.06.26-.44.22-.88.14-1.55-.1-.78-.22-1.75.49-2.71.81-1.09,2.25-1.55,3.33-1.52.73.02,1.26.26,1.55.69.52.79-.03,1.52-.52,2.17-.49.65-1.1,1.46-1.37,2.68-.13.6-.48,2.66.57,4.05.56.74,1.25.95,2.06,1.2.93.28,1.98.6,2.63,1.79.59,1.08.39,2.04.23,2.81-.15.69-.21,1.06.04,1.48.64,1.05,2.84,1.49,4.62.92,1.65-.53,3.01-1.98,3.31-3.52.25-1.32-.29-2.46-.82-3.56-.57-1.19-1.15-2.42-.34-3.56.45-.63,1.03-.79,1.6-.95.52-.15,1.17-.33,2.07-.98.42-.31.73-.59.98-.82.44-.4.98-.9,1.66-.54.81.43.57,1.3.31,2.22-.25.89-.59,2.1-.57,3.59.01.65.04,2.38,1.03,4.04.5.84.93,1.14,1.48,1.51.58.4,1.24.85,1.96,1.91,1.1,1.62,1.41,3.29,1.87,5.82.16.85.24,1.54.31,2.09.15,1.22.22,1.63.64,2.11.7.78,1.69,1.1,1.99,1.03.03-.24-.08-.86-.18-1.36-.21-1.12-.49-2.66-.44-4.74.04-1.48.22-2.33.37-3.01.16-.73.26-1.18.08-2.15-.14-.76-.37-1.39-.58-1.93-.37-1-.72-1.94-.23-3.05.38-.86.99-1.15,1.47-1.38ZM55.52,73.28l1.12.28c-.39,1.55-.52,3.11-.39,4.65.3,3.5,1.93,6.12,3.81,9.16.43.69.79,1.22,1.13,1.72.63.92,1.18,1.71,1.92,3.2.45.9,1.56,3.19,1.99,5,.79,3.27-.21,6.55-1.49,9.1.04-.03.07-.06.1-.09,2.29-2.04,4.09-3.64,5.04-6.06.85-2.17.77-4.32.72-5.61-.04-1.04-.16-1.72-.27-2.32-.06-.36-.12-.69-.15-1.04-.47-3.03-1.49-5.69-3.05-7.91-.71-1.02-1.32-1.64-1.85-2.18-.77-.79-1.44-1.48-2-2.92-1.02-2.6-.95-5.76.18-8.46l1.07.45c-1.02,2.43-1.08,5.27-.17,7.59.48,1.22,1.01,1.77,1.75,2.53.56.58,1.2,1.24,1.97,2.33,1.16,1.66,2.04,3.54,2.64,5.61.22-.47.48-.82.73-1.15.38-.51.75-.99,1.01-2,.29-1.11.18-1.8.06-2.53-.13-.83-.27-1.69.16-3.02.35-1.08,1.06-2.01,2.47-3.85,1.18-1.54,1.89-2.47,3.13-3.46l.72.9c-1.13.9-1.81,1.79-2.93,3.26-1.33,1.74-2,2.61-2.29,3.51-.35,1.07-.24,1.72-.12,2.48.12.78.26,1.66-.08,3.01-.32,1.23-.79,1.85-1.2,2.41-.4.53-.75.99-.96,2-.11.52-.12.91-.09,1.3.04.28.09.55.12.83,0,.04.01.07.02.11.11.61.24,1.36.29,2.48.05,1.29.14,3.69-.8,6.08-1.05,2.67-3.04,4.45-5.35,6.5-.64.57-1.16.99-1.58,1.32-.86.69-1.3,1.04-1.77,1.89-.61,1.11-.68,1.99-.88,4.34l-.03.3c-.46,5.46-.63,7.38-.92,7.99-.76,1.61-1.78,2.27-2.96,3.04-.55.36-1.11.73-1.74,1.24l-.73-.9c.68-.55,1.3-.95,1.84-1.31,1.12-.73,1.92-1.26,2.55-2.57.21-.45.47-3.45.81-7.59l.02-.3c.2-2.39.29-3.48,1.02-4.8.22-.4.44-.71.68-.99,1.64-2.33,4.22-6.86,3.16-11.26-.41-1.69-1.47-3.88-1.9-4.75-.71-1.41-1.24-2.18-1.84-3.06-.35-.52-.72-1.05-1.16-1.77-1.96-3.16-3.66-5.9-3.98-9.67-.14-1.66,0-3.35.41-5.03ZM28.99,125.64c-.52-.88-1.44-1.23-2.41-1.59l.27-.72-.07.18.2-.54-.13.36.14-.36c1.06.4,2.27.85,3,2.09l-1,.59ZM51.03,129.56c.29-1.53.43-3.09.4-4.64-.01-.81-.04-1.99-.22-3.35h0s0-.01,0-.02c-.27-1.98-.87-4.35-2.29-6.62-.48-.78-.94-1.33-1.34-1.78-.72.11-2,.44-2.92,1.52-.65.76-1.33,2.16-.85,4.48.3,1.42.98,2.18,1.77,3.05.51.57,1.04,1.15,1.52,1.96.92,1.53,1.37,3.38,1.34,5.49h-1.16c.02-1.91-.37-3.56-1.18-4.9-.43-.72-.92-1.26-1.39-1.78-.73-.81-1.47-1.64-1.89-3.01-1.44.4-3.64,1.33-5.39,3.42-1.65,1.98-2.1,4.07-2.27,4.86-.3,1.38-.49,3.52.27,5.85.39,1.2.73,2.24,1.55,2.61.44.2.82.1,1.41-.08.6-.19,1.35-.42,2.18-.02,1.4.68,1.98,2.61,1.83,4.17-.11,1.14-.63,2.01-1.04,2.53l-.91-.72c.32-.4.71-1.06.8-1.92.11-1.12-.31-2.59-1.18-3.01-.4-.19-.75-.1-1.33.08-.61.19-1.36.43-2.23.03-1.29-.58-1.74-1.97-2.18-3.31-.84-2.57-.63-4.93-.3-6.45.05-.26.14-.65.28-1.12.05-1.41-.03-5.83-2.59-8.05-.71-.61-2.29-1.62-4.07-2.4-.64-.28-1.31-.53-1.98-.74l.35-1.1c.71.23,1.41.49,2.09.78,1.65.71,3.41,1.75,4.37,2.58,1.93,1.67,2.64,4.34,2.88,6.42.32-.57.7-1.15,1.19-1.73,1.03-1.23,2.19-2.09,3.29-2.7-.06-1.55-.49-2.87-1.28-3.91-.2-.26-.57-.74-3.31-2.46-1.45-.9-2.39-1.42-3.08-1.8-1.08-.6-1.53-.84-2.07-1.6-1.03-1.45-1.14-2.97-1.3-5.27-.04-.63-.06-1.27-.04-1.9l1.16.03c-.02.59,0,1.19.04,1.78.15,2.18.24,3.5,1.08,4.68.39.54.66.69,1.68,1.26.7.39,1.66.91,3.13,1.83,2.7,1.68,3.27,2.28,3.62,2.74.85,1.11,1.34,2.48,1.48,4.06.59-.25,1.14-.43,1.62-.56-.08-.55-.1-1.06-.08-1.53-.33-1.73-.91-3.39-1.72-4.92-.51-.97-.92-1.51-1.38-2.13-.46-.61-.97-1.31-1.65-2.51-1.29-2.3-1.97-4.34-2.33-5.65-.27-.99-.71-2.65-.79-4.83l1.16-.04c.07,2.04.5,3.62.75,4.56.47,1.76,1.26,3.68,2.22,5.39.63,1.14,1.11,1.77,1.56,2.38.47.63.92,1.23,1.47,2.29.52.99.94,2.03,1.28,3.11.21-.42.45-.77.69-1.05.87-1.02,1.96-1.51,2.86-1.75-.6-.63-1.07-1.26-1.26-2.43-.08-.47-.09-.92-.05-1.38-.09-2.25-.39-4.46-.91-6.59-.56-2.28-.84-3.42-1.67-4.82-.4-.67-.77-1.15-1.12-1.62-.52-.68-1.02-1.32-1.41-2.37-.09-.24-.17-.49-.23-.72l1.12-.31c.06.2.12.41.2.62.33.89.74,1.41,1.24,2.07.36.47.77,1,1.2,1.74.91,1.55,1.21,2.75,1.8,5.13.3,1.21.52,2.45.69,3.7.23-.55.5-1.14.79-1.78.39-2.19.49-4.38.31-6.5-.11-1.21-.43-2.74-1.07-5.78-.81-3.81-1.14-4.67-1.27-5-.18-.47-.39-.94-.62-1.4l1.04-.52c.24.49.47.99.66,1.49.15.38.5,1.27,1.33,5.18.65,3.09.98,4.64,1.09,5.92.11,1.22.11,2.47.04,3.72.4-.68.83-1.34,1.28-1.98-.2-1.76.07-3.48.57-6.76.17-1.11.37-2.23.59-3.34l1.14.23c-.22,1.1-.41,2.2-.58,3.29-.51,3.31-.76,4.97-.54,6.66.29,2.17,1.25,4.27,2.84,6.25.02-.05.04-.09.07-.14.65-1.37,1.1-2.09,1.51-2.72.42-.66.79-1.24,1.3-2.45,1.02-2.43,1.64-3.9,1.37-5.75-.35-2.4-2-4.09-3.09-5.2-.78-.79-1.24-1.08-1.73-1.38-.5-.31-1.03-.63-1.83-1.43-.81-.81-3.29-3.27-3.74-7.05l1.15-.14c.4,3.38,2.58,5.55,3.4,6.37.71.71,1.15.98,1.62,1.26.53.32,1.08.66,1.96,1.56,1.12,1.15,3,3.07,3.41,5.84.32,2.18-.38,3.84-1.45,6.37-.55,1.3-.96,1.94-1.39,2.62-.4.63-.82,1.29-1.44,2.59-1.32,2.8-1.98,4.2-2,6.14-.01,1.2.23,1.94.48,2.72.28.86.57,1.74.49,3.16-.09,1.55-.59,3.08-1.48,4.55.14,1.25.16,2.33.18,3.09.03,1.63-.11,3.27-.42,4.88l-1.14-.22ZM53.42,138.45c-.25.49-.47,1.01-.65,1.54l-1.1-.37c.2-.59.44-1.16.72-1.7.48-.93,1.93-3.75,5.26-5.24.39-.18.81-.33,1.23-.46l.33,1.11c-.37.11-.74.25-1.09.4-2.96,1.32-4.27,3.88-4.7,4.72Z"/>
        <path class="cls-2" d="M79.61,46.7l.44-.03c1.03-.06,2.32-.13,3.91-.74,1.27-.48,1.82-.95,2.52-1.55.58-.49,1.24-1.05,2.36-1.65,1.79-.96,3.05-1.1,4.26-1.25,1.07-.12,2.18-.25,3.82-.95,1.42-.61,1.93-1.08,2.47-1.57.53-.49,1.14-1.05,2.49-1.67,2.63-1.2,4.55-1.04,6.58-.88,1.83.15,3.73.31,6.54-.47,1.5-.41,2.3-.83,3.01-1.19.62-.32,1.19-.61,2.01-.8-.32.03-.63.06-.96.09-3.46.33-7.03.67-11.63,1.44-4.43.74-7.62,1.27-11.72,2.57-2.38.75-3.43,1.24-4.88,1.92-1.3.61-2.92,1.36-6.05,2.54-2.38.9-3.68,1.31-6.05,2.05-1.6.5-3.58,1.13-6.68,2.15-3.22,1.06-6.46,2.16-9.65,3.26-.44.39-.83.64-1.17.86-.5.32-.87.56-1.3,1.18-.54.78-.75,2.21-1.15,5.11-.03.19-.05.36-.07.53,2.88-2.76,6.08-5.08,9.56-6.9,4.02-2.1,7.19-3.77,11.34-4.04Z"/>
        <path class="cls-2" d="M94.64,71.9c-.19-.09-.38-.17-.56-.26-1.15-.52-1.78-.91-2.5-1.39-.08.67-.3,1.24-.67,1.69-.21.25-.42.41-.58.53-.19.15-.23.18-.24.25-.03.11.08.27.4.72.19.26.42.58.68,1,.33.52.52.88.67,1.18.22.43.34.66.7,1.04.21.22.77.79.95.78.11-.04.29-.33.51-1.5.09-.47.09-.77.08-1.11,0-.3,0-.63.05-1.09.08-.62.25-1.23.49-1.84Z"/>
        <path class="cls-2" d="M78.21,42.91c2.34-.74,3.63-1.14,5.96-2.02,3.07-1.16,4.65-1.9,5.93-2.49,1.45-.68,2.6-1.21,5.09-2,4.21-1.33,7.46-1.87,11.95-2.63,4.67-.78,8.27-1.12,11.76-1.45,4.74-.45,8.44-.66,12.45-.87,6.86-.36,13.96-.67,21.09-.92.09-.03.17-.05.25-.07,0,0,0,0,0,0-.62-.68-.99-1.27-1.32-1.78-.43-.68-.77-1.23-1.6-1.87-.6-.46-1.01-.64-1.58-.88-.31-.13-.64-.27-1.03-.47-2.15-1.1-3.36-2.54-4.32-3.7-.28-.34-.55-.66-.82-.95-1.67-1.79-4.5-2.6-10.14-4.23-2.25-.65-5.41-1.1-11.72-2-3-.43-4.79-.63-6.8.1-.36.13-.64.26-.92.39-.52.24-1.06.49-1.96.66-1.53.29-2.54.07-3.52-.13-.63-.13-1.29-.27-2.13-.28-.86-.02-1.16.11-1.91.39-.68.26-1.61.61-3.36,1.03-1.96.48-3.01.57-3.85.64-.82.07-1.41.12-2.59.5-1.21.38-1.79.71-3.06,1.42-.71.4-1.58.89-2.86,1.55-2.21,1.15-3.35,1.64-4.26,2.03-.7.3-1.26.54-2.07.99-4.13,2.27-6.55,5.34-9.12,8.58-3.46,4.37-5.2,6.56-6.05,9.92-.12.49-.23.99-.33,1.48-.25,1.23-.51,2.48-1.08,3.66,2.4-.82,4.81-1.64,7.22-2.43,3.11-1.02,5.1-1.65,6.71-2.15ZM141.43,20.55c.98,1.19,2.08,2.53,2.36,4.47.18,1.25,0,2.53-.55,3.82l-1.07-.45c.46-1.09.62-2.16.47-3.2-.23-1.62-1.15-2.73-2.11-3.9l.89-.74ZM127.91,16.18c.8.43,1.53.83,2.17,1.2,2.43,1.38,3.43,2.1,4.24,3.37.99,1.54,1.4,3.3,1.17,4.94-.23,1.59-.97,2.62-1.91,3.94l-.94-.67c.88-1.23,1.52-2.12,1.7-3.42.26-1.85-.51-3.4-1-4.15-.64-1.01-1.4-1.59-3.84-2.98-.63-.36-1.35-.76-2.14-1.18l.55-1.02ZM118.72,15.41c1.99.94,3.71,1.76,4.74,3.72,1.04,1.98.74,3.96.64,4.61-.36,2.4-1.7,3.96-2.87,5.34-.55.65-1.16,1.27-1.79,1.84l-.78-.86c.6-.54,1.17-1.13,1.69-1.74,1.13-1.32,2.3-2.69,2.61-4.76.09-.62.34-2.26-.52-3.9-.85-1.62-2.33-2.32-4.21-3.21l.5-1.05ZM115.26,20.83c-.41-1.11-1.41-1.93-2.78-3.07-.26-.21-.51-.41-.76-.6l.69-.93c.26.19.53.4.8.63,1.46,1.21,2.61,2.17,3.13,3.56.35.94.57,2.43-.88,5.57-.97,2.09-2.28,4.08-3.91,5.91l-.87-.77c1.55-1.75,2.8-3.65,3.72-5.63,1.27-2.75,1.12-3.94.85-4.68ZM103.52,16.44c.38.21.65.27,1.05.37.19.04.39.09.63.16,1.29.36,3.23.91,4.03,2.37.61,1.12.31,2.29-.02,3.53-.35,1.32-.83,2.11-2.17,4.21-.73,1.14-1.24,1.93-1.63,2.54-.64.98-.96,1.48-1.39,2.21l-1-.59c.44-.75.79-1.28,1.41-2.25.39-.61.91-1.4,1.63-2.53,1.29-2.03,1.72-2.72,2.02-3.88.29-1.1.52-1.97.12-2.68-.57-1.03-2.23-1.5-3.33-1.81-.23-.06-.42-.11-.59-.15-.44-.1-.82-.19-1.34-.48l.56-1.02ZM95.2,18.48c.15.41.44.62.98.97.2.13.41.26.62.42,1.31.98,2.31,2.5,2.81,4.28.5,1.78.17,3.3,0,4.03-.29,1.32-.75,2.09-1.2,2.84-.39.65-.75,1.25-1.05,2.25l-1.11-.33c.34-1.14.78-1.87,1.16-2.52.44-.73.81-1.36,1.06-2.49.15-.69.43-1.97,0-3.47-.43-1.54-1.28-2.84-2.39-3.66-.19-.14-.38-.26-.56-.38-.57-.37-1.16-.75-1.45-1.55l1.09-.39ZM90.67,19.97c.09.33.34.5.84.82.38.24.86.54,1.33,1.03,1.39,1.46,1.51,3.41,1.6,4.84.08,1.21-.06,2.59-.96,5.41-.41,1.28-.9,2.57-1.44,3.83l-1.06-.46c.53-1.22,1-2.48,1.4-3.73.9-2.8.97-4.05.91-4.98-.09-1.39-.19-2.96-1.29-4.11-.36-.38-.74-.62-1.1-.84-.56-.35-1.14-.71-1.35-1.5l1.12-.3ZM86.16,23.81c.09.27.2.5.28.68.36.75.74,1.11,1.15,1.49.31.29.64.6.92,1.06.81,1.35.51,2.93.07,4.7-.52,2.07-1.22,4.25-2.08,6.48l-1.08-.42c.85-2.19,1.53-4.33,2.04-6.35.46-1.84.6-2.93.07-3.82-.2-.33-.44-.55-.72-.81-.44-.41-.95-.88-1.4-1.84-.09-.19-.23-.48-.34-.82l1.1-.36ZM79.94,25.02l1.15.16c-.16,1.13.17,2.03.33,2.46.29.78.61,1.17.99,1.61.28.33.57.68.85,1.19.8,1.45.74,2.82.65,4.7-.07,1.47-.34,2.96-.79,4.42l-1.1-.35c.43-1.37.68-2.75.74-4.12.08-1.83.14-2.93-.51-4.1-.23-.41-.47-.7-.73-1.01-.41-.49-.83-.99-1.19-1.96-.19-.52-.59-1.6-.39-3.02ZM74.6,40.44c.27-1.55.37-3.18.57-6.72.04-.67.06-1.21.09-1.66.07-1.48.1-1.98.28-2.9l1.14.23c-.17.84-.19,1.28-.26,2.73-.02.45-.05.99-.09,1.66-.19,3.33-.29,5.17-.58,6.85-.04.25-.09.52-.16.81l-1.13-.24c.06-.28.11-.54.15-.78ZM69.45,43.32c.45-1.62.85-3.27,1.18-4.91.34-1.7.62-3.43.82-5.14l1.15.14c-.21,1.75-.49,3.51-.84,5.23-.33,1.67-.74,3.35-1.2,4.99l-1.11-.31Z"/>
        <path class="cls-2" d="M125.67,34.42c1.01.35,1.96.67,3.6.64,1.47-.03,2.12-.31,3.01-.71.97-.43,2.18-.96,4.7-1.24,1.54-.17,2.5-.14,3.35-.1,1.03.04,1.78.07,3.25-.31.16-.04.3-.07.46-.11-4.26.18-8.48.37-12.61.59-2.97.16-5.77.31-8.95.56,1.35.05,2.28.36,3.19.67Z"/>
        <path class="cls-2" d="M139.41,107.69s-.08-.03-.14-.03c-.25,0-.72.2-1.08.51-.21.19-.39.43-.49.65.49.49.74.96.92,1.36.3-.29.64-.76.79-1.35.19-.78.06-1.08,0-1.13Z"/>
        <path class="cls-2" d="M162.5,86.62c.26-.49.57-1.05.91-1.69.32-.6.6-1.12.84-1.57.63-1.17,1-1.87,1.28-2.46,2.38-5.17,3.78-8.42,2.54-10.09-.4-.54-1-.84-1.7-1.18-1.42-.69-2.66-.68-4.36-.65-.42,0-.85,0-1.32.01-2.81-.01-4.51-.02-6.46-.62-1.9-.58-2.87-1.37-3.73-2.06-.84-.68-1.51-1.22-2.98-1.52-.94-.19-1.45-.13-2.1-.06-.76.09-1.63.19-3.21-.08-1.71-.29-2.55-.73-3.23-1.09-.58-.31-1.01-.53-1.93-.64-1.69-.2-3.83.62-8.1,2.26-1.34.52-2.15.87-2.73,1.12-.95.41-1.34.58-2.26.67-.78.07-1.46.04-2.11,0-1.03-.05-2-.09-3.38.26-.73.19-1.24.4-1.89.68-2.48,1.07-4.01,1.87-5.25,2.52-1.24.65-2.21,1.16-3.59,1.68-1.88.7-4.45,1.66-7.75,1.35-1.67-.16-3.05-.6-4.28-1.1-.2.51-.34,1.02-.41,1.53-.05.38-.05.65-.05.93,0,.37,0,.75-.11,1.34-.16.86-.41,2.15-1.36,2.4-.1.03-.2.04-.3.04-.7,0-1.29-.62-1.78-1.14-.47-.5-.66-.85-.89-1.3-.15-.29-.32-.62-.62-1.1-.25-.4-.47-.7-.64-.94-.43-.6-.74-1.04-.58-1.67.12-.47.42-.7.67-.89.14-.1.26-.2.39-.35.32-.39.46-.96.43-1.7-.56-.36-1.25-.8-2.23-1.37-1.29-.75-2.29-1.33-3.17-1.78-.3.74-.5,1.51-.58,2.28-.05.48-.05,1.13.43,4.25.19,1.22.32,1.97.41,2.47.14.81.19,1.08.18,1.71-.01.97-.13,1.58-.23,2.07-.1.53-.17.88-.07,1.54.07.47.26,1.7,1.22,2.71,1.02,1.07,2.57,1.6,3.97,1.33.42-.08,1.54-.29,2.19-1.23.7-1.01.63-2.51-.17-3.81l1.48-.91c1.17,1.89,1.21,4.13.12,5.71-1.05,1.52-2.74,1.84-3.29,1.95-.35.07-.71.1-1.07.1-1.66,0-3.3-.7-4.48-1.94-1.33-1.4-1.58-3.03-1.67-3.64-.15-.96-.04-1.53.08-2.13.09-.47.19-.95.19-1.76,0-.47-.02-.61-.16-1.39-.09-.51-.22-1.27-.41-2.51-.14-.95-.25-1.68-.32-2.26-.62.19-1.04.46-1.24.82-.13.23-.12.4-.06.9.05.43.11,1.02.02,1.81-.07.65-.45,2.9-2.13,4.56-.75.74-1.44,1.03-1.94,1.24-.48.2-.64.28-.79.57-.2.38-.15.7,0,1.44.1.49.22,1.11.24,1.88.05,1.62-.38,2.64-.83,3.73-.17.42-.35.85-.51,1.33-.54,1.67-.38,2.57-.14,3.93.21,1.2.47,2.68.33,5.09-.2,3.19-.42,6.8-2.95,9.75-.95,1.1-1.83,1.65-2.54,2.09-.8.5-1.29.79-1.63,1.7-.35.91-.25,1.65-.13,2.51.14,1.08.3,2.3-.49,3.8-.46.87-.95,1.29-1.35,1.62-.38.32-.66.55-.92,1.19-.31.76-.27,1.28-.22,1.94.05.67.11,1.42-.18,2.44-.4,1.39-1.1,1.96-1.72,2.46-.46.38-.86.7-1.23,1.44-.74,1.49-.46,3.01-.19,4.48.3,1.66.62,3.38-.66,4.81-.49.56-1.01.8-1.38.98-.4.19-.52.26-.64.53-.2.44-.06.85.27,1.74.22.58.49,1.31.66,2.22.25,1.32.09,2.02-.09,2.84-.14.64-.3,1.36-.33,2.68-.05,1.9.22,3.34.41,4.38.15.81.29,1.56.14,2.16,4.72,3.73,9.91,6.7,15.44,8.83,14.72,5.65,20.02,4.25,21.88,2.08.67-.78.71-1.4.73-3.25.02-1.66.05-4.17.81-8.18.69-3.6,1.75-7.25,3.08-10.55,1.67-4.15,3.91-8.11,6.65-11.8-2.05-1.16-4.35-2.89-6.85-5.12-4.28-3.82-7.1-6.35-9.56-10.76-2.78-4.98-3.45-9.34-4-12.85-.75-4.83-.75-9.77,0-14.7l1.72.26c-.72,4.75-.72,9.52,0,14.17.52,3.37,1.17,7.56,3.8,12.27,2.32,4.16,4.91,6.47,9.2,10.31.39.35.76.67,1.14.99.11.09.22.18.32.27.3.25.59.49.88.72.08.07.16.13.25.2.35.28.7.54,1.04.79.09.07.18.13.27.2.28.2.55.39.82.58.08.05.16.11.23.16,1.46.98,2.81,1.7,4.01,2.13,2.86,1.03,5.32,1.92,7.57.89,2.46-1.13,5.19-4.76,6.21-6.94l.04-.09c.26-.56.79-1.68,1.92-2.43-.87-.55-1.38-1.23-1.99-2.12-1.53-2.23-2.45-3.57-3.25-5.65-.42-1.08-.76-2.26-.47-3.6.09-.4.29-1.33,1.1-1.85.89-.57,1.9-.29,2.57-.1,1.34.37,2.22.65,2.93.87.36.11.66.21.94.29,1.21.35,2.53.57,3.8.79l.18.03c1.06.18,2.06.36,2.86,1.17.38-.42.88-.77,1.49-1.02.01,0,.02,0,.03-.01-.51-.44-.9-.93-1.17-1.48-.05-.1-.09-.21-.14-.32-.15-.36-.3-.71-.66-1.06-.36-.36-.67-.45-1.06-.56-.47-.14-1.05-.31-1.52-.95-.67-.91-.71-2.28-.11-3.85.3-.78.79-1.49,1.42-2.06l1.17,1.28c-.44.4-.76.87-.97,1.4-.37.97-.41,1.8-.11,2.21.11.15.22.2.61.31.24.07.53.16.85.31.2-.35.45-.64.67-.83.63-.55,1.86-1.15,2.68-.53.39.29.78.93.43,2.33-.22.9-.78,1.66-1.33,2.11.7.84,2.03,1.49,3.99,1.96.9.13,1.98.23,2.64.07,2.74-.66,4.44-7.38,5.35-10.98l.13-.51c.32-1.3.66-2.62,1.4-3.78h0c1-1.73,1.96-3.5,2.87-5.27.93-1.81,1.82-3.66,2.65-5.52l1.58.71c-.85,1.88-1.75,3.76-2.69,5.6-.33.64-.67,1.27-1.01,1.91.23-.11.5-.27.87-.55,1.86-1.38,2.96-3.43,4.35-6.01.27-.56.65-1.27,1.16-2.21ZM87.65,74.31c-.12-1.09-.42-1.64-.77-2.29-.32-.59-.68-1.26-.89-2.36-.09-.49-.14-.99-.15-1.5h1.16c0,.43.05.86.13,1.28.18.92.46,1.46.77,2.03.37.69.75,1.4.9,2.71.12,1.05.09,2.59.08,3.04-.02.61-.05,1.11-.07,1.47l-1.15-.09c.03-.34.06-.83.07-1.41.01-.43.04-1.9-.07-2.88ZM91,82.38c-.3.2-.65.29-.99.29-.54,0-1.07-.24-1.39-.7-.26-.38-.35-.84-.24-1.32.11-.5.43-.93.87-1.18.41-.23.91-.29,1.38-.16.44.12.79.4,1,.78.42.76.14,1.78-.62,2.28ZM146.84,85.28c-1.07,1.24-2.46,1.53-3,1.59l-.07-.59c-.19.2-.32.36-.42.46-.08.09-.14.15-.17.19-.76.81-2.1,1.18-3.25,1.18-.24,0-.46-.02-.68-.05-2.2-.31-3.53-1.95-4.59-3.27-.93-1.15-1.36-2.15-2.13-3.97-.59-1.38-.78-2.1-.37-2.7.76-1.13,2.34-.72,5.8.19.27.07,2.69.72,5.69,2.2.9.44,2.14,1.05,2.28,2.26.05.42-.07.82-.26,1.18.22-.32.62-.99.58-1.81-.06-1.36-1.3-2.31-2.04-2.89-1.09-.84-3.28-1.55-6.17-2-1.92-.3-3.88-.44-5.85-.42v-1.74c2.05-.02,4.11.13,6.12.44,3.26.5,5.61,1.29,6.97,2.34.92.71,2.63,2.02,2.72,4.19.07,1.66-.86,2.87-1.15,3.21ZM153.74,89.96c-.53,2.3-1.4,4.54-2.59,6.65l-1.01-.57c1.13-2.01,1.96-4.15,2.47-6.34.43-1.88.88-3.82.43-6.26-.26-1.4-.77-2.74-1.52-4l1-.59c.82,1.37,1.38,2.84,1.66,4.38.5,2.67,0,4.83-.44,6.73Z"/>
        <path class="cls-2" d="M110.87,140.66c2.71,3.02,5.11,5.47,7.12,7.28,3.29,2.96,7.39,6.64,13.4,8.8.12.04,1.47.53,3.33,1.32-.6-1.43-.85-2.87-.74-4.28.1-1.25.45-2.22.74-3,.35-.95.46-1.34.25-1.67-.55-.91-2.78-1.15-4.4-1.32-.62-.07-1.07-.07-1.44-.08-.72-.01-1.29-.02-1.99-.5-.88-.6-1.17-1.38-1.4-2.01-.2-.54-.35-.96-.83-1.36-.32-.26-.48-.28-.91-.33-.47-.05-1.11-.13-2.07-.56-1.17-.52-1.74-1.08-2.23-1.58-.47-.47-.87-.87-1.82-1.32-.6-.28-1.01-.39-1.37-.49-.35-.09-.68-.18-1.03-.39-.07-.05-.32-.21-.55-.42-1.09-.97-1.31-2.63-1.31-3.85-.57-.19-1.15-.4-1.73-.61-.36-.13-.72-.28-1.1-.45-.91,1.22-1.78,2.46-2.57,3.74.87,1.03,1.75,2.06,2.65,3.06ZM126.5,151.2c.34-1.04.92-1.99,1.72-2.82l.84.8c-.68.71-1.17,1.51-1.45,2.38-.11.33-.19.68-.25,1.04l-1.14-.18c.07-.42.16-.84.29-1.22ZM120.01,146.83c.4-.81,1-1.52,1.79-2.11l.7.93c-.64.48-1.13,1.05-1.45,1.7-.21.42-.3.76-.38,1.19l-1.14-.21c.1-.51.21-.96.48-1.5ZM115.09,142.36c.28-.64.8-1.17,1.54-1.58l.55,1.02c-.51.28-.85.62-1.03,1.02-.12.27-.13.51-.12.84l-1.16.05c-.02-.38-.02-.83.22-1.35Z"/>
        <path class="cls-2" d="M135.74,115.21c-.4-.44-.95-.55-1.97-.72l-.18-.03c-1.32-.23-2.69-.46-3.99-.83-.29-.08-.61-.18-.98-.3-.7-.22-1.56-.49-2.87-.85-.34-.09-.65-.17-.89-.17-.12,0-.22.02-.29.07-.2.13-.29.53-.34.75-.18.85.01,1.62.39,2.61.7,1.81,1.44,2.93,3.06,5.29.59.86.93,1.31,1.55,1.68,1.03.62,1.49.6,1.66.55.1-.1.18-.21.23-.35.04-.16.07-.36.1-.6.1-.76.25-1.78,1.13-2.54.02-.02.03-.03.05-.05,0,0,0,0,.01,0,0,0,0,0,0,0,0,0,0,0,.01,0,.52-.43.97-.5,1.33-.56.14-.02.27-.05.42-.09.18-.06.4-.16.67-.32.36-.22,1.03-.65,1.34-1.27.19-.55.04-1.1-.02-1.34-.05-.18-.16-.59-.43-.89ZM131.86,119.41c-.46-.39-.95-.79-1.46-1.17-.73-.55-1.24-.91-1.79-1.28-.34-.23-.69-.47-1.09-.76-.85-.61-1.7-1.27-2.52-1.98l.75-.88c.8.68,1.62,1.33,2.45,1.92.39.28.73.51,1.07.74.56.38,1.09.75,1.84,1.32.52.4,1.03.81,1.51,1.21l-.75.88Z"/>
        <polygon class="cls-2" points="26.78 123.5 26.85 123.32 26.98 122.96 26.78 123.5"/>
        <path class="cls-2" d="M152.22,172.15c-.72-.88-1.22-1.15-2.06-1.6-.88-.47-2.09-1.12-4.04-2.76-1.52-1.28-2.21-2.09-2.76-2.74-.3-.35-.53-.62-.84-.89,0,0-.48-.41-1.06-.77-4.44-2.76-10.6-4.99-10.66-5.02-6.33-2.28-10.74-6.25-13.97-9.14-2.06-1.85-4.51-4.35-7.26-7.41-.77-.86-1.54-1.75-2.3-2.64-1.18,2.05-2.22,4.17-3.09,6.34-.54,1.35-1.04,2.77-1.49,4.22,1.92,2.14,3.83,4.36,5.68,6.6,1.58,1.91,2.87,3.53,3.91,4.84,3.43,4.32,4.59,5.77,7.04,6.42,1.17.31,1.97.27,2.9.22,1.22-.06,2.61-.13,4.82.67,2.03.74,3.4,1.74,6.13,3.72,2.45,1.78,4.36,3.46,6.56,5.39,1.13.99,1.92,1.71,2.54,2.27,1.31,1.19,1.75,1.59,2.83,2.26,2.1,1.3,4.26,2.64,6.17,1.94,1.53-.56,2.26-2.13,2.54-2.72,1.4-3.02.25-6.91-1.62-9.19ZM110.44,147.88c-.32.59-.5,1.44-.53,2.54-.03,1.36.19,2.75.64,4.1l-1.1.37c-.5-1.49-.74-3-.7-4.5.03-1.29.26-2.33.67-3.08.35-.64.84-1.2,1.44-1.67l.71.91c-.48.37-.86.81-1.14,1.31ZM117.44,155.76c-.96,2.31-.86,4.5-.61,5.93l-1.14.2c-.28-1.58-.39-4.01.68-6.58.43-1.02,1.01-1.98,1.72-2.85l.89.74c-.64.78-1.16,1.64-1.55,2.56ZM126.81,160.34c-.25.88-.53,1.88-.64,3.11-.09.98-.06,1.99.08,2.99l-1.15.17c-.16-1.09-.19-2.19-.09-3.26.12-1.35.42-2.39.68-3.32.16-.58.35-1.15.54-1.69l1.09.39c-.19.52-.36,1.06-.52,1.61ZM136.18,167.51c-.34,1.1-.79,2.17-1.35,3.19l-1.02-.56c.52-.95.94-1.96,1.26-2.98.31-1.01.78-2.53.63-4.49l1.15-.09c.17,2.19-.34,3.83-.67,4.92ZM147,174.12c-.6,1.84-1.91,3.5-3.79,4.8l-.66-.95c1.69-1.17,2.82-2.58,3.35-4.2.44-1.35.43-2.77.41-3.31l1.16-.05c.03.61.04,2.19-.46,3.72Z"/>
      </g>
      <rect class="cls-1" width="198.43" height="198.43"/>
    </g>
  </g>
</svg>