<?xml version="1.0" encoding="UTF-8"?>
<svg id="Layer_2" data-name="Layer 2" xmlns="http://www.w3.org/2000/svg" viewBox="0 0 198.43 198.43">
  <defs>
    <style>
      .cls-1 {
        fill: none;
      }

      .cls-2 {
        fill: #3d6be3;
      }
    </style>
  </defs>
  <g id="Layer_1-2" data-name="Layer 1">
    <g>
      <g>
        <path class="cls-2" d="M89.39,49.91c.61.97,1.37,1.84,2.24,2.62.79-.3,1.61-.59,2.43-.84,2.57-.77,4.69-1.07,6.39-1.25,1.09-1.27,1.97-2.65,2.63-4.14.39-.89.56-1.5,1.19-3.94.41-1.57.72-2.78.97-3.76-1.47-2.89-3.29-5.54-5.44-7.85-2.06-2.22-4.7-4.16-7.43-5.46-1.82-.87-2.98-1.13-3.53-.78-.49.31-.65,1.1-.73,1.49-.55,2.69-.62,5.94-.17,9.12.47,3.38.38,6.92-.26,10.56.4,1.47.77,2.74,1.7,4.21ZM92.73,30.39c.5,2.13,1.18,4.23,2.01,6.27.39.94.72,1.65,1.01,2.28.48,1.04.87,1.87,1.2,3.09.61,2.25.71,4.7.3,7.27l-1.53-.24c.38-2.35.29-4.58-.27-6.62-.3-1.09-.64-1.83-1.11-2.84-.3-.64-.64-1.37-1.04-2.35-.86-2.11-1.56-4.29-2.08-6.5l1.51-.35Z"/>
        <path class="cls-2" d="M110.42,55.78c.76-.85,1.48-1.75,2.14-2.69-.53-.13-1.07-.25-1.61-.35-3.46-.64-6.19-.38-9.09-.1-1.75.17-4.14.39-7.14,1.28-.98.29-1.98.64-2.9,1.02-1.29.53-2.55,1.14-3.76,1.84,1.06.68,2.15,1.34,3.23,1.97,1.13.65,2.29,1.3,3.45,1.91l.51.27,1.56,9.09c.07-.01.14-.02.2-.04,4.24-.74,8.12.09,11.35,1.47l-1.67-12.09.48-.41c1.14-.97,2.23-2.04,3.22-3.16ZM105.42,60.18c-.43-.04-.85-.06-1.27-.06h-.02c-1.75,0-3.13.34-4.58.69-.86.21-1.73.46-2.58.73l-.48-1.47c.89-.29,1.79-.54,2.69-.76,1.55-.38,3.01-.73,4.95-.74h.02c.46,0,.94.02,1.4.06l-.13,1.54ZM106.69,56.43c-1.75-.14-3.07.03-4.6.23l-.19.02c-1.96.26-3.81.51-6.07,1.36-.57.22-1.14.46-1.7.73l-.67-1.39c.59-.29,1.21-.55,1.82-.78,2.43-.92,4.46-1.19,6.42-1.45l.19-.02c1.55-.21,3.02-.4,4.93-.24.58.05,1.17.13,1.76.23l-.28,1.52c-.54-.1-1.08-.17-1.61-.21Z"/>
        <path class="cls-2" d="M111.28,29.26c-1.38,2.21-2.07,4.1-2.48,5.23-.35.96-.48,1.48-1.23,4.38-.27,1.03-.61,2.35-1.06,4.09-.66,2.53-.85,3.23-1.31,4.28-.45,1.01-.99,1.98-1.62,2.91,2.35-.18,4.84-.24,7.79.3.58.11,1.16.23,1.74.38.49-1,.88-2.04,1.16-3.11.58-2.22.51-3.87.41-6.38-.03-.86-.07-1.8-.09-2.87-.06-3.49-.09-5.41.28-7.79.53-3.42,1.62-6.11,2.43-8.01-.09.08-.18.15-.27.23-1.58,1.32-3.74,3.13-5.75,6.34ZM112.85,38.44c.03.73.09,1.37.14,1.96.13,1.58.24,2.95-.15,4.71-.36,1.58-1.03,3.09-2,4.5l-1.27-.88c.86-1.24,1.45-2.58,1.77-3.96.35-1.53.25-2.67.12-4.24-.05-.61-.1-1.27-.14-2.02-.1-2.31.03-4.69.4-7.09l1.53.24c-.36,2.29-.48,4.58-.38,6.78Z"/>
        <path class="cls-2" d="M87.83,12.56c-.85,1.55-2.41,5.07-3.36,11.34-.49,3.22-.71,6.54-.66,9.86.62,1.12,1.06,2.18,1.39,2.98.1.24.3.91.73,2.47-.01-1.26-.1-2.5-.27-3.71-.49-3.49-.42-7.01.19-9.95.12-.59.44-2.14,1.77-2.98,1.67-1.06,3.85-.26,5.77.65,2.98,1.43,5.87,3.55,8.12,5.97,1.73,1.87,3.27,3.93,4.59,6.16.19-.69.33-1.1.53-1.66.35-.97.9-2.47,1.87-4.25-1.36-3.99-3.01-7.87-4.94-11.52-1.67-3.16-3.31-5.74-5.91-8.08-2.01-1.81-3.35-2.9-4.83-2.75-2.1.21-3.63,3-4.98,5.46ZM89.95,18.6c-.04.73-.04,1.47,0,2.2l-1.54.09c-.04-.78-.04-1.58,0-2.37.06-1.12.21-2.26.45-3.37l1.51.33c-.22,1.03-.36,2.08-.42,3.13ZM98.91,14.89c.93,1.44,1.78,2.95,2.53,4.5,1.51,3.1,2.64,6.4,3.36,9.81l-1.51.32c-.7-3.29-1.78-6.47-3.24-9.46-.72-1.49-1.54-2.94-2.44-4.33l1.3-.84ZM94.46,11.04c.17,1.89.42,3.8.75,5.67.33,1.9.76,3.8,1.25,5.67l-1.49.4c-.51-1.91-.94-3.86-1.28-5.8-.34-1.91-.6-3.86-.77-5.8l1.54-.14Z"/>
        <path class="cls-2" d="M122.54,188.78c-2.87-21.1-4.72-35.57-5.51-43.01-.02-.16-1.73-16.16-2.49-21.63-.19-.91-.23-1.81-.27-2.69-.02-.54-.05-1.1-.11-1.67-.03-.24-.06-.49-.1-.72-.04-.21-.08-.43-.13-.65-.05-.2-.09-.3-.12-.35-.09,0-.29.02-.64.11-.24.06-.46.11-.65.17-.41.13-.68.22-.85.32-.02.01-.04.02-.05.03-.03.02-.06.05-.08.07,0,.01-.01.03-.02.04-.01.09-.07.49.05,1.49.05.26.11.53.16.8.12.55.25,1.18.34,1.84,0,.03.04.22.08.54.11.74.15,1.34.19,2.07.01.25.03.5.04.78.11,2.43.18,5.17-.66,8.47-.3,1.52-.77,3.16-1.74,4.95-.47.87-1.03,1.71-1.62,2.51,0,.01-.02.03-.03.04-.1.15-.22.28-.32.43-.03.04-.06.09-.1.13-.43.57-.88,1.13-1.36,1.66-.01,1.56,0,3.12.03,4.68.01.7.04,1.39.06,2.09.03,1.12.07,2.24.12,3.37.03.71.07,1.42.11,2.14.06,1.12.13,2.23.21,3.35.05.7.11,1.4.16,2.1.09,1.12.2,2.23.31,3.35.07.7.14,1.4.22,2.1.18,1.57.36,3.13.58,4.7.02.16.04.32.07.47.22,1.58.46,3.16.72,4.74.09.53.17,1.05.26,1.54.25,1.45.51,2.89.79,4.33.05.27.1.53.15.79.34,1.72.71,3.43,1.09,5.13l11.12-.56ZM115.19,145.87l5.23,39.09-1.53.21-5.23-39.09,1.53-.21ZM113.38,152.95l1.66,15.09-1.54.17-1.66-15.09,1.54-.17Z"/>
        <path class="cls-2" d="M82.88,45.2c.18,1,.29,1.81.38,2.53.2,1.59.33,2.55,1.05,3.92.62,1.17,1.49,2.22,2.55,3.15.8-.46,1.62-.89,2.45-1.28-.71-.73-1.34-1.52-1.88-2.37-1.17-1.84-1.61-3.47-2.04-5.05-1.32-4.87-2.19-8.08-2.34-8.47-.82-2.01-2.2-5.37-5.42-7.04-.89-.46-1.86-.76-2.7-.93.81.8,2.3,2.42,4.29,5.18,2.37,3.29,3,6.72,3.66,10.36Z"/>
        <path class="cls-2" d="M99.33,190.36c4.23.69,9.03,1.47,9.86.58.06-.06.08-.17.08-.28-.4-1.87-.77-3.67-1.12-5.49-.02-.11-.04-.23-.07-.35-.69-3.45-1.29-6.93-1.79-10.42-.03-.2-.06-.4-.09-.61-.07-.51-.14-1.02-.21-1.52-.09-.68-.18-1.38-.27-2.09-.02-.17-.04-.34-.06-.51-.03-.24-.06-.48-.09-.73-.02-.14-.03-.28-.04-.42-.06-.48-.11-.97-.17-1.45-.05-.44-.08-.88-.12-1.32-.11-1.11-.22-2.23-.31-3.35-.06-.72-.12-1.43-.17-2.15-.08-1.12-.15-2.24-.21-3.36-.04-.72-.08-1.45-.11-2.17-.05-1.14-.09-2.27-.12-3.41-.02-.7-.04-1.4-.06-2.1,0-.23-.01-.45-.02-.68,0-.52,0-1.04-.01-1.56-.2.21-.4.41-.59.6-1.33,1.37-1.92,2.01-1.91,2.83l-2.32.03c-.02-1.82,1.12-2.99,2.57-4.48.19-.2.4-.41.61-.63.49-.51,1.06-1.11,1.64-1.75v-.02s.31-.32.31-.32c0,0,.01-.02.02-.02.02-.02.04-.05.07-.08.46-.52.94-1.08,1.39-1.66.04-.05.07-.09.11-.14.12-.15.23-.3.34-.45.78-1.12,2.16-3.41,2.99-6.62.13-.69.23-1.37.33-2.04.57-4.03.19-7.55.05-8.61-.08-.48-.16-.83-.23-1.18-.11-.5-.23-1.02-.33-1.83,0,0,0-.01,0-.02-.17-.97-.23-1.91.12-2.71.05-.12.1-.22.15-.31.01-.02.03-.05.05-.07.01-.02.03-.05.04-.07.09-.12.18-.22.27-.32.01-.01.02-.03.03-.04.02-.02.04-.03.05-.04.12-.12.25-.22.39-.31.07-.05.15-.09.22-.13.05-.03.1-.05.14-.07.32-.16.68-.29,1.11-.41,1.02-.32,2.08-.66,3.07-.1,0,0,0,0,0,0,0,0,0,0,0,0,.12.07.23.15.33.23.07.06.13.12.2.19.02.02.04.04.06.06.18.2.32.43.43.68.02.04.04.08.05.12.03.09.07.18.09.27.02.05.03.1.04.14.08.28.14.59.19.91.05.27.08.54.11.8,0,.06.02.12.02.19,0,.02,0,.04,0,.07,0,0,0,.01,0,.02.06.49.08.87.09,1.26.02.43.03.91.12,1.71.06.53.11.91.13,1.1.09.41.31,1.43.57,1.85.56-.39,2.04-2.18,4.22-7.37l.04-.09c1.51-3.57,2.48-6.27,1.35-8.49-.37-.72-.96-1.41-1.71-2-.72-.56-2.22-1.74-4.44-2.03-1.07-.14-2.15.08-4.49.58-1.66.35-3.31.79-4.9,1.28l-.69-2.21c1.66-.52,3.38-.97,5.11-1.34,2.35-.5,3.76-.81,5.28-.61,2.85.37,4.76,1.86,5.57,2.5,0,0,.01.01.02.02.2-.86.33-1.73.37-2.61.06-1.34.06-2.07-.23-2.94-.44-1.31-1.49-2.04-3.65-3.42-1.16-.75-2.64-1.58-4.78-2.11-1.56-.39-5.69-1.41-9.67.77-1.62.89-3.04,2.24-4.12,3.9l-1.95-1.26c1.29-1.98,3-3.6,4.95-4.67,4.78-2.62,9.55-1.44,11.35-.99,2.48.62,4.22,1.61,5.47,2.41.13.08.25.16.38.25.04-.95-.09-1.84-.41-2.65-.45-1.11-1.59-2.17-4.09-4.32-2.07-1.78-3.1-2.67-4.46-3.45-.99-.56-2.65-1.33-4.89-1.78-2.24-.44-3.86-.76-5.5-.07-1.19.5-1.88,1.33-3.39,3.16-1.18,1.42-2.21,2.96-3.07,4.59l-2.05-1.08c.93-1.77,2.06-3.44,3.34-4.99,1.65-1.99,2.57-3.09,4.27-3.81,2.3-.97,4.41-.55,6.85-.07,2.55.51,4.45,1.39,5.59,2.04,1.56.89,2.65,1.83,4.82,3.7.21.18.4.34.59.51.09-1.46-.06-3.22-.85-4.99-.23-.51-.92-2.05-3.43-4.19-3.08-2.62-9.35-6.83-16.76-5.54-2.07.36-3.86.67-5.21,2.06-.81.83-1.96,3.46-3.7,7.42-.29.65-.44,1-.66,1.53-1.15,2.72-1.62,4.18-2.07,5.59-.38,1.18-.77,2.4-1.55,4.3-.21.52-.42,1-.62,1.47-.75,1.77-1.4,3.3-2.02,5.74-.02.08-.08.32-.17.71-.74,3.19-1.28,7.68-1.6,13.34l-.03.53c-.2,3.54-.51,8.88-1.33,14.45-.25,1.73-.42,2.57-.62,3.54-.21,1.03-.44,2.2-.85,4.82-.29,1.88-.59,4.01-.79,6.74-.09,1.25-.13,2.3-.16,2.96-.12,3.63.06,6.48.33,10.43.17,2.54.38,5.7.55,9.83.03.74.05,1.1.05,1.36.17,5.73-.34,9.98-.72,13.09-.43,3.59-.6,5.35.3,6.11.67.57,1.69.51,2.6.46h.08c7.27-.44,14.37.71,20.08,1.64Z"/>
      </g>
      <rect class="cls-1" width="198.43" height="198.43"/>
    </g>
  </g>
</svg>