<?xml version="1.0" encoding="UTF-8"?>
<svg id="Layer_2" data-name="Layer 2" xmlns="http://www.w3.org/2000/svg" viewBox="0 0 160.56 141.73">
  <defs>
    <style>
      .cls-1 {
        fill: #8accff;
      }
    </style>
  </defs>
  <g id="Layer_1-2" data-name="Layer 1">
    <g>
      <path class="cls-1" d="M61.04,19.33c-.26-.05-.53-.06-.78-.15-.36-.13-.5-.38-.52-.67-.01-.18.02-.38.08-.58-.07-.04-.16-.03-.22.02-.06.05-.11.11-.15.18-.24.38-1.13,2.03-.04,2.03.61,0,1.21-.18,1.72-.5.06-.04.12-.09.12-.16,0-.1-.12-.14-.22-.16Z"/>
      <path class="cls-1" d="M160.38,90.97c-.32-1.04-.88-2-1.29-3.01-.39-.98-.64-2.02-.73-3.07-.08-.9.16-1.71-.09-2.6-.19-.67-.48-1.25-.83-1.83v.26h-.18v-.36h.12c-.07-.11-.13-.23-.21-.34-.44-.72-.9-1.6-.75-2.47.12-.72.78-1.27.74-2.03-.42-1.94-1.9-3.31-3.46-4.4-1.31-.92-3.9-1.87-4.46-3.46-.17-.47-.24-.96-.44-1.42-.6-1.42-2.17-2.13-3.61-2.72-.51-.21-1.02-.41-1.53-.62-.69-.28-1.11-1.08-1.63-1.6-.52-.52-1.07-1-1.67-1.42-1.28-.89-2.71-1.4-4.18-1.88-5.19-1.7-11.04-2.56-16.47-3.42-2.06-.32-4.09-.76-6.17-1-1.81-.21-3.49-.35-5.31-.32-1.71.03-2.82-.05-4.35-.82-1.23-.62-2.68-.53-4.05-.43-1.09.08-2.64.48-3.7.21-.94-.24-1.67-1.23-2.41-1.79-1.25-.97-2.96-.8-4.43-.97-2.51-.57-5.42-.5-7.93-.95-1.51-.17-2.15-1.75-3.34-2.44-.86-.4-1.9-.28-2.79-.69-1.53-.7-2.7-2.6-3.24-4.13-.26-.76-.47-1.7-.11-2.47.66-1.39,1.64-.43,2.77-.78.93-.28,1.63-1.17,2.6-1.31.34-.05.69,0,1.03-.03,1.29-.12,2.15-1.25,3.16-1.93.48-.33.99-.56,1.52-.79.92-.4,1.93-.73,2.48-1.66.7-1.19,1.2-2.54,1.77-3.8.8-1.78,1.46-3.9,1.13-5.87-.05-.33-.14-.67-.33-.94-.45-.64-1.42-.79-2.15-.86-.55-.05-1.48,0-1.89-.46-.59-.67.77-1.04,1.2-1.11.39-.07.85-.1,1.24.02.46.14.67.55.89.93.12.2.43.62.7.54.33-.1.25-.75.25-1.01,0-.95-.34-1.85-1.01-2.54-1.37-1.42-3.29-1.91-5.19-2.11-1.92-.2-3.88-.38-5.81-.46-1.3-.05-2.6-.21-3.89-.33-.79-.07-1.57-.35-2.31-.63-.95-.35-1.77-.6-2.61-1.22-1.54-1.13-2.8-2.39-4.5-3.29-1.5-.8-3.5-.61-4.84-1.73-.97-.87-1.02-2.42-1.35-3.59-.38-2.46-3.24-4.16-5.68-3.8h-.05c-1.73-.03-3.2,1.11-3.94,2.62,0,.13-.15.34-.19.47-.05.15-.09.31-.12.47-.06.31-.08.64-.1.95-.02.64-.05,1.28-.01,1.92,0,.08,0,.16-.02.24-.02.08-.08.15-.16.16-.33.06-.43-.96-.5-1.16-.15-.48-.37-.94-.64-1.37-.53-.84-1.26-1.54-2.11-2.04-1.76-1.04-3.97-1.18-5.78-.19-2.44,1.15-2.32,4-2.82,6.26-.1.46-.19,1.24-.52,1.61-.4.45-1.16.4-1.66.75-.98.7-1.15,2.07-2.1,2.8-.48.37-1.11.49-1.53.92-.77.81-.64,2.17-1.23,3.08-.98,1.51-2.61,2.68-3.44,4.2-.66.95-.27,2.06-.13,3.09.11,2.05-2.46,3.07-2.72,5.03-.22,1.11.5,2.02.31,3.07-.08.43-.28.82-.41,1.24-.61,1.89.01,4.25.54,6.09.51,1.76-.49,3.44-.33,5.26.1,1.32.54,2.41.67,3.72,0,2.54.06,5.11-.34,7.63-.41,2.54-1.3,4.36-2.93,6.29-1,1.19-1.22,2.6-1.36,4.08-.02.26-.05.52-.14.76-.1.29-.28.54-.46.79-1.06,1.48-2.14,3-3.28,4.42-1.03,1.28-2.26,2.32-2.64,4-.53,2.37-2.21,3.58-3.93,5.13-1.12,1.01-2.18,2.16-2.62,3.6-.25.82-.28,1.7-.52,2.52-.27.92-.86,1.59-1.34,2.39-.51.85-.93,1.79-1.3,2.71-.84,2.07-1.91,5.09-.82,7.22.38.75.9,1.43,1.22,2.21,1.17,2.79-.2,5.92.72,8.77.5,1.55.73,3.21,1.22,4.8.54,1.74,1.18,3.45,1.73,5.19.76,2.53,2.61,3.93,5.28,4.7,3.72,1.37,8.28-.44,11.49-2,1.76-1.22,2.38-3.58,3.38-5.42,5.31-6.69-5.63-14.34,3.37-18.84,1.17-.7,1.35-2.11,1.47-3.36.04-1.65,1.68-.99,2.65-1.39,1.72-.86,1.53-5.01,4.12-3.73,2.92,2.44,2.14,7.24,3.76,10.62.92,2.38.95,4.89,1.32,7.41.43,2.92,1.72,5.69,1.48,8.67-.14,2.75,1.03,5.87-.21,8.48-1.39,2.02-4.6,1.98-6.45,3.46-1.95,1.43-3.34,4.4-2,6.69,2.43,3.98,10.34,2.65,14.51,2.69,3.03-.07,5.91.35,8.8-.67,3.83-.95,5.39-4.2,6.45-7.68.63-1.8,1.67-3.48,2.23-5.34.23-.98.28-2.05.39-3.05.12-1.06-.09-2.07.4-3.09.2-.42.49-.8.68-1.23.74-1.68-.13-3.92,1.04-5.5,1.78-2.41.58-5.66.81-8.27.22-2.51,2.41-.77,3.65-.28.39.15.85.18,1.21-.02.16-.09.29-.21.46-.26.22-.07.46,0,.67.1.95.42,1.7,1.3,2.73,1.47,1.29.21,2.09-.25,2.97.91.62.82,1.09,1.77,1.52,2.7.67,1.48,1.64,3.46,1.56,5.13-.16,1.55-.57,3.21.12,4.69,4.65,9.95.86,7.57-6.04,11.49-2.87,1.71-2.94,6.52.16,8.01,2.47.98,5.41.34,8,.6,5.33.18,11.56.93,15.9-2.78,1.68-1.49,2.23-3.98,3.55-5.63.38-.45.85-.9,1.31-1.26.37-.28.84-.45,1.06-.9.14-.29.19-.62.24-.94.15-1.04.32-1.9,1.04-2.7.85-.94,2.48-1.68,2.52-3.08.07-2.58-.49-5.33,2.25-6.72.53-.27,1.3-.44,1.8,0,.5.44.55,1.34.94,1.92.33.49.82.89,1.4.98.68.11,1.51.1,1.81.83.2.49.46.95.76,1.38.13.19.28.38.49.48.32.16.69.08,1.04.12.67.06,1.25.52,1.63,1.07.94,1.38,1.02,2.85,1.34,4.4.54,2.64-1.34,3.75-3.68,3.88-4.04.16-7.95,5.68-4.85,9.07,4.02,3.33,16.8,2.08,21.76.93,3.46-.44,6.4-2.61,8.22-5.54.91-1.46,1.55-3.09,1.9-4.77.17-.81.2-1.62.32-2.43.15-1.08.75-1.92,1.12-2.92.24-.65.34-1.35.39-2.04.1-1.29.08-2.59-.08-3.88-.07-.57-.16-1.15-.07-1.71.08-.49.3-.95.47-1.42.52-1.42.42-2.92.28-4.39-.12-1.18-.6-3.19.08-4.26.15-.24.36-.45.51-.7.32-.55.28-1.23.24-1.86-.12-1.7-.58-4.06.66-5.47.91-.5,1.93.35,2.61.88,1.39,1.23,3.35.2,3.51-1.54.23-1.33.04-2.64.36-3.97.29-1.23.58-2.26.2-3.53ZM85.29,29.95l-.36.36-.09-.36h.45ZM1.03,99.67c-.22-.15-.13-.51-.09-.73.02-.16.02-.23.03-.06.02.22.05.56.08.81h-.02ZM8.63,124.29h-.45v-.18h.45v.18ZM8.64,106.47c-.01.1-.04.22-.13.27-.13.06-.26-.07-.32-.19-.18-.32-.19-.68-.4-.99-.23-.33-.54-.59-.48-1.04.09-.65-.64-1.66,0-2.14.15-.11.39-.21.63-.24.17-.02.34,0,.46.09.05.04.09.1.11.16.22.5.12.89.06,1.4-.02.23.01.47.04.7.08.65.09,1.32.02,1.97ZM10.07,125.01h-.27v-.36h.27v.36ZM10.13,90.93c-.07.21-.25.37-.41.53-.67.63-1.28,1.33-1.81,2.08-.11.16-.23.32-.38.44-.16.12-.37.17-.55.09-.6-.27.1-1.3.3-1.6.3-.55.58-1.27,1-1.77.18-.2.44-.22.59-.34.2-.1.36-.39.58-.55.25-.18.45.08.58.4.11.28.15.59.11.72ZM16.82,76.44c.34-.4.61-.7.8-1.16.11-.24.2-.54.43-.7.26-.2.62-.21.86-.05.17.11.29.3.27.57-.02.25-.15.48-.28.71-.36.62-.73,1.25-1.09,1.87-.05.09-.11.19-.2.26-.11.08-.25.11-.39.15-.5.13-.93.45-1.37.73-.07.04-.15.09-.23.07-.12-.02-.19-.17-.16-.29.15-.74.9-1.55,1.34-2.15ZM17.06,110c-.07.32-.02.65-.12.98-.05.15-.14.32-.3.33-.1.01-.2-.05-.26-.13s-.09-.18-.12-.28c-.16-.56-.24-1.14-.37-1.71-.12-.5-.3-.99-.39-1.5-.02-.12-.03-.24,0-.35.06-.24.28-.53.48-.68.23-.16.4-.18.54-.11.4.21.46,1.2.53,1.59.02.13.04.27.08.4.04.14.09.27.12.42.08.39-.12.68-.19,1.04ZM17.02,88.88c-.18.16-.37.34-.61.36-.36.03-.47-.34-.44-.62.43-.96,1.19-1.75,1.75-2.65.1-.16.37-.5.66-.7.28-.2.58-.26.76.09.27.53-.33,1.03-.53,1.46-.08.17-.12.35-.2.53-.17.38-.48.68-.79.97-.21.19-.41.38-.62.58ZM19.92,95.98c-.1.5-.38.86-.37,1.42,0,.41.08.81.15,1.21.05.31.03,1.03-.43,1.02-.28,0-.66-.39-.73-.65-.13-.48-.36-.87-.37-1.37-.03-.22-.09-.52,0-.75.08-.27.2-.39.21-.59-.02-.19-.02-.46.16-.66.16-.22.68-.4,1.04-.34.17.03.3.11.35.27.05.14.02.29-.01.44ZM27.46,86.74c-.17.25-.18.47-.27.73-.1.28-.36.5-.58.68-.43.34-.73.11-.75-.37-.02-.53.32-.95.36-1.46.07-.24.2-.35.38-.57.21-.21.33-.59.49-.89.15-.29.56-.73.9-.78.09-.01.18,0,.26.04.27.13.47.51.46.79-.02.72-.87,1.27-1.24,1.82ZM31.16,46.35c.04.28.69,3.07-.22,2.56-.9-.83-.72-1.81-1-2.88-.12-.42-.29-1.07-.15-1.57,0,0,.02-.09.02-.09.1-.49.79-1.32,1.36-.95.41.27.22.74.11,1.08-.19.63-.23,1.19-.13,1.85ZM33.32,29.41c-.18.37-.51.64-.81.92-.46.43-.87.92-1.23,1.44-.17.25-.76,1.29-1.15,1.05-.38-.22.03-1.15.17-1.4.22-.39.3-.82.58-1.2.52-.7.86-1.58,1.72-1.93.24-.09.42-.05.55.06.26.23.32.74.17,1.06ZM38.86,18.97c-.27.15-.59.19-.89.25-.63.13-1.23.36-1.78.69-.3.18-1.42.83-1.47.09-.03-.39.64-.78.9-.98.29-.22.54-.5.88-.64.56-.24,1.2-.42,1.81-.47.26-.02.55.06.74.2.29.22.37.57-.18.87ZM40.02,95.52v-.36h.36c.1.08-.29.46-.36.36ZM42.1,32.03c-.25.73-.88,1.25-1.18,1.97-.14.35-.27,2.63-.95,1.88-.25-.28-.25-.9-.27-1.26-.04-.64.2-1.21.42-1.81.21-.57.46-1.32,1-1.67.35-.22.95-.1,1.03.36.03.17,0,.35-.06.52ZM42.39,9.5c-.71.06-.75-1.7-1.02-2.09-.26-.38-.78-.41-1.18-.23-1.56.64-.12,2.55-.76,3.57-.09.15-.26.26-.43.23-.53-.08-.52-2.27-.54-2.71,0-2.5,3.51-3.38,4.26-.87l.02.09c.12.41.34,1.94-.35,2ZM44.28,21.2c.46-.42,1.16-.39,1.75-.62.27-.07,1.03-.56,1.35-.37.6.35-.37,1.18-.63,1.35-.53.35-1.06.69-1.59,1.04-.15.1-.32.21-.51.19-.29-.03-.55-.37-.65-.62-.14-.34.05-.72.28-.96ZM44.22,44.56c-.06-.27-.11-.54-.17-.81-.08-.39-.11-.8.24-1.06.25-.18.64-.21.86.05.08.09.12.21.15.33.02.06.03.13.04.19.09.44.18.88.27,1.32.06.29.12.58.28.82.08.12.19.22.25.35.06.12.07.26.08.39.02.24.05.47.07.71.08.79-.6.35-.91.06-.38-.34-.69-.78-.87-1.25-.14-.35-.22-.73-.29-1.1ZM47.09,97.73c-.05.06-.11.12-.18.15-.2.06-.37-.15-.47-.34-.72-1.35-1.3-2.77-1.71-4.24-.08-.28-.15-.58-.12-.87.06-.46.4-.75.85-.66,0,0,.07.04.07.04.48.25.74,1,.82,1.47.08.46.16.93.35,1.35.21.46.64.73.63,1.27.02.63.18,1.29-.24,1.82ZM48.96,113.02c-.09.19-.31.64-.55.66-.25.02-.38-.28-.44-.53-.12-.57-.25-1.15-.37-1.72-.17-.8-.35-1.65-.11-2.43.06-.21.16-.42.32-.58.37-.36.59-.3.72-.08.19.32.21.96.27,1.24.12.62.33,1.19.1,1.82-.06.51.3,1.1.06,1.62ZM50.33,13.24c-.05.2-.27.32-.44.41-.1.06-.22.07-.33.08-.87.09-1.77-.06-2.56-.44-.31-.15-.89-.45-.98-.82-.07-.27.05-.6.4-.55,0,0,.08.01.08.01.91.1,1.86.63,2.82.59.46-.02,1.16.06,1,.71ZM52.93,120.4c-.07.42-.04.85-.1,1.28-.1.77-.47,1.5-1.04,2.03-.07.07-.15.13-.25.14-.14,0-.26-.11-.29-.24-.04-.13-.01-.27.01-.41.23-1.23.47-2.43.52-3.68,0-.39.39-.81.77-.76.09.01.19.06.27.14.19.18.25.46.24.73-.02.26-.1.52-.14.78ZM53.17,28.33c-.16.2-.33.41-.57.5-.24.09-.56,0-.64-.24-.07-.21-.03-.48.06-.75.2-.63.69-1.33.91-1.72.15-.39.45-.81.86-.96.47-.16.82.12.69.65-.13.53-.27,1.07-.56,1.53-.12.2-.27.39-.42.58-.11.14-.22.28-.34.42ZM55.51,103.89c-.06.42-.08.85-.04,1.28.01.19.03.39-.07.55-.11.17-.34.24-.52.15-.3-.14-.4-1.21-.49-1.54-.19-.71-.32-1.43-.43-2.16-.07-.51-.18-1.09-.08-1.6.04-.23.19-.49.38-.61.17-.1.38-.1.6.13.16.17.22.41.27.64l.36,1.68c.05.25.11.5.1.76,0,.24-.05.47-.08.71ZM56.33,42.51c-.07.2-.32.29-.52.24s-.37-.19-.51-.34c-.53-.58-.89-1.4-1.09-2.15-.17-.63-.32-1.8.03-2.38.34-.56,1-.47,1.24.11.12.3,0,.53,0,.82.01.43.13.85.22,1.28.05.24.11.49.23.71.08.15.19.28.27.43.06.11.09.23.12.36.04.22.04.45.05.68,0,.08,0,.16-.03.24ZM63.84,30.65c.19.38-.07.82.01,1.26.13.7.29,1.35.5,2.03.14.44.07,1.45-.62,1.42-.37-.01-.73-.63-.88-.92-.23-.47-.3-1-.33-1.53-.03-.41-.04-.82-.03-1.23,0-.27.02-.54.15-.78.08-.16.32-.35.57-.43.25-.08.5-.07.62.17ZM59.61,127.63c-.11.42-.43.76-.73,1.08-.09.09-.19.18-.31.17-.21-.02-.26-.3-.25-.51.04-.91.02-1.85.2-2.75.07-.35.08-.72.04-1.07-.03-.28.22-.68.5-.76.14-.04.28,0,.4.18.11.16.11.37.11.56,0,.32,0,.64,0,.96,0,.27,0,.55.02.82.04.44.15.89.04,1.31ZM58.97,21.05c-.88-.2-1.49-.76-1.11-1.7.34-1,1.07-1.75,1.66-2.75.51-.86,1.51-1.19,2.47-1,.25.05.44.14.6.26.54.42.59,1.2.78,1.97.08.33.07.51.09.84-.1,1.89-2.8,2.83-4.48,2.38ZM62.03,112.68c-.18.88-.54,1.81-.92,2.62-.09.19-.23.4-.44.4-.15,0-.28-.13-.34-.27-.05-.14-.05-.3-.04-.45.01-.24.03-.48.04-.72.04-.67.09-1.33.13-2,.05-.7.16-1.27.86-1.55.09-.03.19-.06.28-.05.1.01.19.08.21.17.02.06,0,.13-.02.2,0,.02,0,.03,0,.05-.03.34.21.66.26,1.01.03.2,0,.4-.04.6ZM63.58,101.9c-.05.23-.17.45-.38.55-.21.1-.49.05-.61-.15-.41-.72-.56-1.78-.66-2.59-.06-.46-.26-1.29-.16-1.73.06-.27.25-.5.5-.61.13-.06.29-.12.46-.15.12-.02.24-.02.34.02.92.38.29,1.69.29,2.41,0,.5.17,1.05.22,1.56.02.23.05.46,0,.69ZM65.87,49.13c-1.14-.27-1.87-1.38-2.62-2.21-.42-.46-.79-1.05-.4-1.66.4-.63,1.01-.63,1.33.03.33.66.62,1.31,1.03,1.93.32.46.77.83.98,1.37.14.35.15.66-.33.55ZM70.95,40.5h-.36v-.18h.36v.18ZM77.9,47.27h-.18v-.27h.18v.27ZM86.92,50.24h-.36v-.18h.36v.18ZM90.23,111.05c-.03.14-.13.26-.23.36-.07.07-.16.14-.25.12-.04-.01-.07-.04-.11-.07-.59-.52-.54-1.16-.6-1.87-.02-.27-.11-.53-.16-.8-.05-.28-.05-.56-.04-.84,0-.48-.17-1.4.1-1.83.05-.08.11-.14.18-.19.3-.2.73-.1.91.25.13.25.02.55,0,.83-.03.28.03.55.06.83.02.26-.09.48-.09.71,0,.31.12.63.14.94.03.44.06.88.1,1.32,0,.08.02.16,0,.24ZM92.96,50.97h-.36c-.1-.07.28-.46.36-.36v.36ZM95.36,116.64c.14.63-.25,1.28-.28,1.89-.05.54-.25.92-.53,1.37-.06.1-.15.22-.27.22-.16,0-.24-.19-.27-.35-.15-.65-.3-1.32-.19-1.98.05-.28.14-.56.18-.84.06-.42,0-.85.05-1.27.08-.58.49-1.19,1.13-.89l.07.04c.53.42,0,1.38.11,1.8ZM100.05,125.02c-.06.6-.36,1.16-.44,1.76-.02.15-.03.31-.1.45-.05.1-.13.19-.2.28-.36.39-.69.82-.92,1.3-.04.09-.08.18-.15.25-.11.12-.3.17-.45.1-.41-.21.1-1.49.15-1.84.35-.68.44-1.37.74-2.08.09-.2.12-.53.28-.68.08-.08.25-.13.42-.15.22-.02.55.13.65.34.04.09.04.19.03.28ZM107.22,114.78c-.01.15.01.31.02.46,0,.04,0,.08,0,.12-.02.7-.35,1.43-.78,2.02-.17.24-.48.68-.8.8-.42.16-.62-.17-.52-.59.04-.19.17-.36.22-.55.04-.15.03-.3.04-.45,0-.52.13-1.02.34-1.5.14-.34.41-.65.46-1.02.01-.12,0-.24.03-.36.11-.51,1.48-.94,1.36-.19-.07.43-.33.82-.36,1.26ZM126.38,117.39c-.73-.46-1.4-1.01-2.06-1.57-.14-.11-.28-.23-.38-.38-.32-.47-.04-2.2.82-1.67,0,0,.06.04.06.04.2.17.32.5.6.72.21.2.51.45.65.66.31.46.88.81,1.1,1.33.25.62-.04,1.34-.79.86ZM133.63,126.95c-.08.53-.16,1.05-.24,1.58-.06.37-.17.81-.53.92-.1.03-.22.03-.31-.04-.28-.21-.18-1.1-.18-1.43,0-.65.11-1.33-.05-1.97-.02-.31-.12-.7-.08-1,.05-.32.44-.47.78-.46.12,0,.22.02.31.06.31.14.41.53.43.87.03.49-.05.98-.12,1.47ZM133.98,66.53c-.39-.51-.37-1.85.56-1.68,0,0,.08.01.08.01.59.26.89.73,1.42,1.12.42.45.73.93,1.27,1.25.31.18.86.42.82.85-.05.54-.76.61-1.15.5-.86-.25-1.38-1.15-2.18-1.56-.29-.15-.62-.24-.81-.49ZM137.61,116.82c-.04.2-.17.39-.38.47-.04.02-.09.03-.13.02-.05,0-.1-.05-.13-.08-.42-.42-.54-1.07-.75-1.59-.26-.61-.51-1.22-.77-1.83-.12-.3-.25-.61-.17-.92.13-.47.71-.51,1.11-.28.3.17.54.52.58.83.03.21.01.42.07.62.06.22.2.43.29.65.09.23.13.47.16.72.04.27.07.53.11.8.03.2.06.4.01.6ZM140.07,80.38c-.11.02-.21,0-.32-.02-.45-.09-.87-.26-1.22-.54-.19-.15-.45-.13-.68-.2-.33-.1-.58-.36-.81-.62-.28-.31-1.19-1.39-1.11-1.79.06-.33.44-.51.77-.49.39.03.7.23.96.48.27.26.49.58.73.85.1.12.21.25.32.37.44.5.9.97,1.39,1.41.1.09.22.21.19.35-.02.11-.12.18-.23.2ZM143.96,89.3c.22-.05.45.02.6.27.18.28.25.65.42.94.13.24.32.41.44.66.12.24.17.53.21.81.05.33.11.66.16.98.06.34.11.7.02,1.03-.46,1.62-1.49-1.29-1.73-1.64-.08-.11-.16-.22-.23-.34-.16-.3-.2-.69-.32-1.02-.07-.19-.17-.36-.21-.56-.13-.57.24-1.04.64-1.13ZM144.08,123.34c-.03.2-.12.36-.26.54-.23.28-.46.95-.9,1.09-.22.07-.49.03-.64-.1-.11-.09-.14-.22-.14-.34-.01-.38.23-.74.3-1.12.08-.4-.02-.82.05-1.22.05-.29.17-.57.2-.85.02-.24-.03-.48.09-.7.13-.24.61-.41.92-.27.02,0,.03.02.05.03.27.16.31.71.34.93.11.67.03,1.35,0,2.03ZM146.69,107.72c-.1.43-.93,1.35-1.38.66-.24-.36.03-.9.05-1.28.01-.27-.1-.51-.14-.84-.02-.36.07-.77-.04-1.08-.1-.27-.39-.69-.31-.98.07-.27.39-.37.7-.33.17.02.34.09.46.2.19.17.28.4.35.61.34.98.54,2.02.31,3.03ZM150.55,78.67c-.09.35-.53.72-.79.35-.58-.82-1.25-1.32-1.91-2.05-.22-.25-.44-.5-.58-.81-.22-.48-.16-2.32.78-1.83,0,0,.06.03.06.03.1.07.21.17.28.27.32.51.82.99,1.05,1.54.23.53.3,1.01.7,1.48.22.27.51.66.42,1.01ZM153.89,92.99c-.14-.11-.26-.25-.37-.4-.13-.16-.25-.32-.35-.5-.21-.41-.3-.72-.58-1.06-.27-.33-.45-.72-.44-1.19.02-.43.53-1.73,1.11-1.16.37.37.45,1.06.76,1.53.26.51.64,1,.69,1.61.02.15.04.3.09.44.25.77-.3,1.18-.91.73Z"/>
    </g>
  </g>
</svg>