<?xml version="1.0" encoding="UTF-8"?>
<svg id="Layer_2" data-name="Layer 2" xmlns="http://www.w3.org/2000/svg" viewBox="0 0 225.48 113.39">
  <defs>
    <style>
      .cls-1 {
        fill: #8accff;
      }
    </style>
  </defs>
  <g id="Layer_1-2" data-name="Layer 1">
    <g>
      <path class="cls-1" d="M27.48,20.41c-.33-.18-.78-.04-1.16-.03-.83.11-1.74.26-2.45.73-.67.44-.46,1.54-.59,2.25-.07.68.85.25.78-.27-.15-1.21.21-1.86,1.38-2.18.26-.07.54-.12.66.21.17.34.22,1.25.68,1.06.41-.17,1.18-1.29.76-1.73l-.04-.04Z"/>
      <path class="cls-1" d="M224.42,23.17c-.93-.77-2.61-.66-3.79-.99-1.01-.44-1.72-1.58-2.83-1.83-3.25.04-6.03,2.31-9.21,2.78-.78.12-1.27.57-2.03.72-5.68.95-3.04-2.4-8.82-1.17-.44.12-.87.3-1.21.61-1.28.91-2.58,1.36-4.16,1.91-2.66,1.42-2.73-.22-4.88-.74-4.18-.5-8.55,2-12.68,2.71-.91.17-2.01.15-2.88.43-.33.09-.68.14-.95.11-1.68.08-4.45.87-6.28,1.16-1.02.23-1.79.23-2.75.37-.65.07-1.59-.11-2.32.12-.78.26-1.29,0-2.05-.11-1.79-.03-3.15-1.15-4.81-1.66-.74-.23-1.25-.67-1.93-1.07-1.94-.87-3.71-2.18-5.8-2.65-1.28-.29-2.7.33-3.94-.09-.99-.33-1.54-1.34-2.36-1.99-1.51-1.19-3.61-1.62-5.46-1.2-2.64.69-2.83.34-4.71-1.41-2.93-1.6-6.45,0-9.5.39-1.65.08-3.33.42-4.89.85-1.26.14-2.75-.87-4.03-.93-.84-.04-1.63.24-2.48.34-6.36.65-12.89,1.56-19.2,2.37-1.68.27-3.75.09-5.4-.2-.77-.12-1-.8-1.48-1.31-1.03-1.07-2.46-1.55-3.94-1.76-2.97-.39-6.44.4-9.27.56-1.44.08-4.57.39-5.78-.38-.6-.38-1.05-1.34-1.63-1.82-.59-.49-1.26-.87-2-1.08-1.25-.35-2.63-.05-3.41-1.36-.27-.46-.17-.85-.64-1.25-1.2-1-2.84-1.15-4.32-1.37-1.47-.22-2.4-.79-3.38-1.93-1.28-1.47-2.93-2.99-3.82-4.74-1.33-1.49-2.52-3.26-4.1-4.41l-.07-.05c-1.02-.53-2.67-1.59-3.77-.9-1.41,1.18-2,5.88-2.81,8.22-.09.23-.22.54-.42.63-.28.17-.68-.12-.9-.34-1.68-1.35-6.45-9.51-8.62-5.88-.89,2.22-.97,4.89-1.92,7.12-1.14,5.06-.25,4.84-4.75,8.25-3.02,2.34-6.43,4.38-9.88,6.03C3.91,25.27.46,25.87.01,28.66c-.06.37.14,1.68.4,1.93.06.05.12.1.2.11.73.07.45-1.91.67-2.28.24-.4.76-.5,1.23-.55.42-.05.84-.1,1.27-.15.45-.05.99-.07,1.24.3.24.35.07.83-.15,1.2-.57,1-1.54,1.88-2.75,1.84-1.57-.05-1.24.58-1.11,1.83.14,1.37.38,2.88,1.18,4.06.78,1.22,2.64.99,3.51,2.23.1.14.19.3.33.4.17.13.39.16.6.18,1.29.11,2.54-.41,3.84,0,.72.23,1.62.65,2.44.65.52.02,1-.13,1.51-.11.92.03,2.11.75,3.09,1.04.83.3,1.53-.29,2.3-.46.54-.08,1.04.51,1.71.46.67-.03,1.32-.5,1.99-.48.66.01,1.02.63,1.53.96.68.47,1.44.03,2.15.03.61.03,1.23.24,1.83.39,1.07.3,1.8.51,2.76.35.66-.11,1.54-.43,1.9.35.34.61.43,1.46.57,2.12.16.58.92,1.1,1.52,1.4,1.9.65,1.45,2.36.6,3.75-1.05,1.7-1.97,3.48-2.75,5.29-.59,1.49-1.4,2.68-2.9,3.38-3.97,3.01-15.03,8.25-16.48,12.17-.28.88-.87,1.54-1.33,2.35-1.31,2.49-2.46,4.94-3.23,7.55-1.87,3.82-3.88,8.17-2.75,12.45.24,1.01,1.14,1.28,1.88,1.88.6.51,1.03,1.09,1.73,1.5,2.77,1.82,7,1.04,8.36-2.17,2.63-5.81,5.45-12.08,10.29-16.34,2.35-1.12,4.13-3.4,6.57-4.28,1.4-.94,3.26-.72,4.68-1.61.65-.39,1.18-.96,1.53-1.63.36-.89.68-1.59,1.64-1.66.64-.11,1.43-.14,1.95-.52,1.31-1.23,2.14-3.08,3.98-3.61,2.42-1.13,4.79.65,3.21,3.09-2.37,2.69-5.72,4.65-8.61,6.88-3.96,3.34-9.04,5.34-12.74,8.97-.65.48-.91,1.09-1.51,1.86-.49.78-1.17,1.23-1.74,1.95-1.12,1.75-2.02,3.71-3.05,5.54-.84,1.47-1.78,2.78-2.13,4.43-.78,1.9-1.58,4.69-.79,6.69.82,1.38,2.05,3.09,3.66,3.42,1.45.62,3,1.26,4.62,1.12,1.46.08,2.35-.85,2.98-2.01,2.91-4.22,6.36-8.21,9.44-12.38,2.36-3.08,6.75-3.76,9.54-6.38,1.01-1.04,1.85-2.92,2.81-3.7,1.14-.93,3.16-.14,4.52-.96,1.31-.78,1.4-2.64,2.63-3.48,1.09-.75,2.59-.42,3.65-1.34.74-.71,1.44-.93,2.13-1.87.49-.83,1.23-1.39,1.99-1.96,1.66-1.35,3.75-3.24,5.98-3.48,2.54-.06,6.57,2.23,8.02-.84.54-.72,1.02-1.26,1.96-1.42,3.38-.24,6.83,1.26,10.19,1.2,2.56.23,5.68,1.63,8.44,1.36,1.48-.65,1.13-2.13,3.37-1.23,2.4,1.19,4.73,2.27,7.36,2.44,1.71.3,2.12-.02,2.72-1.45,1.33-.54,5.52,2.54,6.97,2.8.79.07,1.37.8,2.16.89,1.23.18,1.77-1.23,2.65-1.72,1.04-.45,2.35-.51,3.33,0,1.42.22,2.74.34,3.99,1.08,3.76.71,5.4,3.16,7.57,6.08,1.45,1.83,2.91,3.6,4.25,5.5,4.11,5.75,7.57,10.89,12.24,15.51,1.13,1.12,2.25,2.67,3.18,3.93,3.87,5.28,9.86,7.81,16.26,7.91,1.23-.03,2.4-.47,3.45-1.07.81-.68,1.31-1.69,1.96-2.59.63-.86.52-1.76.74-2.72.2-1.01.5-1.71.19-2.78-1.3-5.81-15.41-7-18.4-16.55-.32-.75-.73-1.43-.9-2.22-.2-.88-.18-1.94-.71-2.62-.42-.57-1.56-.87-1.97-1.38-.59-1.13-.18-2.98-1.27-3.86-.74-.62-2.01-.83-2.4-1.79-.13-.38-.1-.81-.21-1.2-.23-.59-.03-1.41-.2-2.11-.55-2.18-3.61-2.57-4.14-4.82-.11-.35.03-.76.14-1.1.13-.39.56-.56.95-.57.4-.01.75.1,1.11.25,2.27.93,3.43,3.36,5.07,5.04,4.3,4.38,7.93,9.37,12.3,13.7,4.56,4.52,9.8,8.07,15.24,11.42,3.84,2.36,10.19,3.84,14.15,1.12.59-.36,1.26-.71,1.72-1.21.54-.86,1.31-1.97,1.89-2.9.2-.6.49-1.14.48-1.66-.11-1.28-.35-2.94-1.08-4.06-1.2-2.28-3.63-2.93-6.02-3.81-1.88-.68-3.61-.32-5.47-1.2-3.01-1.44-5.49-4.39-8.08-7.06-5.26-5.18-8.76-11.35-11.57-17.99-.55-1.02-.88-2.23-2.02-2.68-.84-.47-2.25-.32-2.87-.73-.84-.86-.67-2.49-1.23-3.57-1.48-2.48-4.16-.17-5.81-3.49-.67-.83-1.9-1.29-2.23-2.41-.25-.65.29-1.25.97-1.05.48.1.68.54,1.05.69.7.28,1.42.55,2,1.07,2.14,1.47,4.85,1.84,7.27,2.85,2.25.94,4.58,2.1,7.02,2.53.69.09,1.23.43,1.85.68,1.49.55,3.13.02,4.72-.29.99-.3,1.97-.12,3.04-.32.65-.42,1.21-.91,1.78-1.45.55-.77.64-1.67,1.6-1.9.54-.19,1.15-.08,1.68-.27.4-.11.82-.52,1.33-.73.82-.3,1.84-.4,2.72-.52,1.56-.13,2.83.37,4.27-.2,2.05-.89,2.8-3.49,4.27-4.99.83-.86,2.29-.56,3.24-.35.86.01,1.65-.61,2.49-1.14.65-.46.87-1.18,1.13-1.86.99-1.15.98-2.88,1.61-4.23.49-.62,1.44-.71,2.12-1.03.61-.2,1.17-.75,1.48-1.03.74-.51,1.59-.87,2.19-1.6.42-.5.59-1.03,1.03-1.5,1.2-1.09,1.43-4.04-.08-4.99ZM23.34,32.63c.17-.27.34-.52.49-.75.12-.18.25-.36.43-.47s.42-.16.61-.06c.21.11.31.36.33.6.08.77-.41,1.48-.55,2.25-.04.24-.05.49-.1.73-.07.32-.21.61-.36.9-.09.19-.18.37-.32.53-.45.51-1.43.6-1.74-.05-.25-.52.18-1.39.33-1.89.17-.57.52-1.2.88-1.78ZM27.28,23.19c-.62.51-1.34.91-2.1,1.17-.65.21-1.68.46-2.33.18-.21-.09-.34-.21-.4-.35-.11-.22-.08-.49-.06-.8.12-1.69-.13-2.69,1.6-3.36,1.15-.45,3.28-1.68,4.33-.41,1,1.21-.06,2.77-1.03,3.57ZM31.36,32.96c-.71-.74-.96-2.27-1.24-3.09-.18-.52.22-1.38.85-1.35.39.02.65.39.85.72.43.7.86,1.41,1.29,2.11.07.12.15.25.17.39.04.27-.12.52-.17.78-.02.14-.02.28-.06.41-.1.32-.47.49-.8.47-.35-.02-.64-.18-.88-.43ZM16.22,79.68c.1.31.09.77-.03,1.02-.22.47-.61.83-.89,1.26-.15.23-.27.47-.41.7-.3.46-.92,1.1-1.5,1.17-.77.1-.35-.56-.1-1,.23-.4.46-.81.69-1.21.25-.44.51-.87.76-1.3.08-.14.15-.38.28-.49.14-.13.37-.14.52-.29.37-.35.59-.18.7.14ZM20.52,71.1c-.25.53-.26,1.17-.58,1.67-.25.4-.67.67-.97,1.03-.15.19-.28.4-.47.55-.23.17-.97.2-.96-.21,0-.93.88-1.53,1.34-2.13.34-.44.5-.98.83-1.42.18-.24.61-.64.96-.5.47.19.08.59-.09.91-.02.03-.04.07-.05.1ZM24.68,77.33c-.2.47-.65.77-1.06,1.08-.69.52-.79,1.73-1.79,1.86-.2.03-.41-.03-.53-.19-.13-.18-.11-.42-.06-.64.13-.56.42-1.07.82-1.48.62-.64.88-1.27,1.81-1.53.76-.22,1.14.13.81.91ZM27.61,69.57c-.33.09-.66.17-.93.37-.42.31-.89,1.14-1.52.7-.7-.49-.08-1.11.3-1.45.49-.45,4.29-3.39,4.32-1.67,0,.31-.15.59-.34.84-.4.53-.97.94-1.61,1.15-.07.02-.14.04-.22.07ZM33.44,61.74c0-.19.02-.4.09-.56.09-.23.19-.47.35-.65.12-.13.26-.22.4-.33.49-.39,1.51-2.9,2.23-2.13.27.29.27.73.26,1.12-.04,1.09-1.23,1.95-1.93,2.74-.17.19-.34.38-.58.45-.57.18-.79-.21-.82-.63ZM36.62,67.78c-.28.18-.59.32-.91.4-.26.07-.57.09-.78-.09-.47-.41-.46-1.18.2-1.25,1.23-.14,1.47-1.65,2.51-1.91,1.27-.32.73,1.09.23,1.7-.36.44-.78.85-1.26,1.15ZM41.25,25.32c.14.4.08.83-.45.98-1.09.32-2.8-1.57-3.34-2.34-.22-.31-.52-.91-.36-1.29.36-.89.78.02,1.27.22.23.1.49.1.73.15,1.03.19,1.83,1.35,2.15,2.28ZM40.43,13.36c-.87.18-2.14.43-2.6-.22-.35-.51.19-1.01.7-1.12.65-.14,2.55.25,2.96-.51.14-.25-.04-.54-.22-.75-.67-.8-1.26-1.75-1.71-2.7-.21-.44-.6-1.16-.47-1.66s.68-.85,1.12-.31c1.01,1.25,1.75,2.84,2.45,4.28.18.36.35.73.43,1.12.26,1.3-1.21,1.62-2.17,1.79-.14.02-.31.06-.49.1ZM42.95,42.57c-.32.32-.85.36-1.32-.08-.84-.79-1.22-2.17-1.21-3.28,0-.47.29-2.34,1.15-1.9l.06.03c.46.21.48,1.21.63,1.56.37.83.79,1.69.96,2.59.09.47-.04.85-.27,1.08ZM45.51,18.04c-.56-.06-1.12.12-1.68.12-.52,0-1.39-.36-1.19-1.03.19-.62,1.67-.72,2.22-.87.21-.06.42-.11.63-.11.24,0,.47.08.69.15.33.11.65.21.98.32.78.25,1.07,1.22.18,1.6-.57.24-1.21-.11-1.84-.18ZM51.66,36.13c-.07.04-.16.07-.26.1-.29.08-.6.02-.88-.07-.55-.18-1.06-.48-1.48-.87-.19-.17-.36-.36-.57-.5-.26-.17-.57-.25-.81-.45-.53-.43-.56-1.57-.08-2.06.3-.31.76,0,1,.14,0,0,.06.04.06.04.35.21.63.55.91.85.12.13.24.32.4.41.2.11.43.04.64.1.08.02.15.07.22.12.51.36,1.74,1.7.85,2.19ZM52.36,26.58c.05.19,0,.38-.19.55-.23.21-.57.27-.88.3-.21.02-.43.04-.64,0-.39-.08-.71-.36-1.01-.63-.52-.47-1.05-.94-1.57-1.41-.54-.49-1.19-1.63.08-1.24.86.29,2.46.91,3.19,1.36.32.2.91.63,1.02,1.07ZM32.13,90.82c-.17.12-.36.23-.57.25-.82.07-.63-1.03-.33-1.42.45-.59,1.25-1.03,1.86-1.43.45-.3,2.58-1.93,1.94-.16-.31.85-.51,1.14-1.23,1.63-.55.37-1.1.75-1.67,1.13ZM37,93.06c-.08.35-.26.69-.33,1.04-.12.55.03.87-.47,1.25-.22.17-.46.31-.63.52-.26.31-1.67,1.06-1.55.08.02-.18.13-.34.23-.49.66-.96,1.23-1.88,1.97-2.77.08-.1.17-.18.28-.25.15-.09.36-.14.5-.02.1.08.09.33.02.64ZM45.49,85.88c-.12.33-.33.66-.43.82-.07.12-.15.24-.26.31-.1.06-.23.08-.34.12-.85.28-1.31,1.41-2.26,1.53-.49.06-1.22-.36-.92-.9.3-.53.91-.72,1.38-1.02.6-.38,1.15-.84,1.74-1.23.18-.12.63-.51.86-.46.02,0,.04.01.06.02.3.14.28.47.16.8ZM47.66,79.8c-.06.05-.13.1-.19.15-.62.49-1.23.97-1.85,1.46-.16.13-.33.26-.53.28-.27.04-1.03-.16-1.27-.27-.25-.11-.4-.23-.3-.54.15-.48.95-.61,1.34-.76.55-.21,1.01-.4,1.42-.79.3-.28,2.23-1.71,1.93-.25-.04.19-.16.34-.29.48-.08.08-.17.16-.26.23ZM56.21,79.41c.03.07.04.14.03.22,0,.2-.11.38-.23.53-.28.35-.67.6-1.1.7-.24.06-.5.07-.73.15-.3.11-.53.33-.77.54s-.49.42-.79.5c-.54.15-1.19-.34-.9-.88.18-.33.75-.5,1.05-.68.53-.32,1.06-.63,1.58-.96.22-.14.53-.25.77-.38.24-.13.59-.08.84,0,.12.04.2.14.25.26ZM57.39,71.29c-.73.68-1.45,1.36-2.14,2.09-.12.13-.27.27-.44.26-.55-.04-1.05-.82-.85-1.31.24-.59.89-.43,1.32-.75.4-.3.68-.74,1.03-1.08.37-.42.78-.95,1.27-1.23.69-.4.96.48.66,1.08-.14.28-.38.5-.61.71-.08.07-.16.15-.24.23ZM58.71,21.7c.22.18.44.4.47.68.04.32-.22.65-.54.67-.12.01-.25-.02-.37-.04-1.19-.27-2.39-.55-3.58-.82-.28-.06-.63-.22-.61-.51.01-.12.1-.23.18-.32.54-.59.8-.99,1.62-.75.06.02.13.04.19.05.99,0,1.88.39,2.6.99.01.01.03.02.04.04ZM65.91,73.78c-.2.16-.41.31-.62.47-.33.26-.74.52-1.15.41-.25-.07-.45-.27-.56-.5-.53-1.15.91-1.37,1.6-1.9.35-.27.74-.58.95-.98.17-.33.39-.94.9-.75.45.17.25.92.22,1.31-.02.27-.05.56-.23.76-.35.4-.68.84-1.1,1.18ZM168.93,95.82c.28.03.58.14.75.25.44.28.79.71,1.26.96.21.11.43.18.63.3.48.29.75.81.99,1.32.08.17.16.34.18.52s-.06.39-.22.48c-.14.07-.3.05-.46.03-1.36-.21-2.35-1.55-3.29-2.49-.25-.24-.78-.64-.57-1.06.13-.26.43-.33.73-.3ZM167.57,101.12c.06.02.14.07.24.16.54.52.99,1.19,1.57,1.68,0,0,.04.04.04.04.77.67,1.42.86,1.73,1.93.09.31.02.71-.27.86-.17.09-.37.08-.55.03-.52-.13-.94-.53-1.27-.96s-.57-.92-.91-1.34c-.27-.35-.61-.66-.76-1.07-.09-.26-.23-1.43.18-1.32ZM160.42,83.32c.29-.3.73-.18.96.24.1.19.17.39.27.58.14.26.36.48.61.64.14.09.3.15.42.26.13.11.21.26.29.41.21.37.42.74.63,1.1.09.16.19.33.22.51.12.63-.54,2.24-1.31,1.23-.11-.14-.16-.31-.22-.48-.28-.8-.72-1.53-1.29-2.15-.1-.11-.2-.21-.31-.31-.07-.06-.14-.12-.2-.2-.07-.09-.11-.21-.15-.32-.12-.38-.27-.95-.07-1.33.04-.07.08-.13.13-.18ZM159.07,90.83c.27.34.33.8.52,1.18l.03.06c.43.69.88,1.54,1.34,2.22.37.54,1.07.83,1.31,1.46.22.57-.21,1.03-.85.81-.4-.14-.68-.49-.94-.82-.6-.78-1.2-1.56-1.79-2.34-.13-.16-.25-.33-.34-.51-.11-.22-.17-.47-.23-.71-.12-.53.06-2.47.95-1.35ZM153.01,83.07c.14.2.27.39.4.57.1.13.2.29.17.45-.01.09-.06.16-.12.23-.35.44-1.04.56-1.52.27-.32-.19-.53-.52-.72-.84-.59-.96-1.18-1.91-1.77-2.87-.26-.43-1.12-1.57-.49-1.98s1.11.67,1.4,1.05c.09.12.18.25.25.4.05.11.1.23.2.3.88.53,1.57,1.51,2.19,2.42ZM153.41,75.77c-.04-.12-.08-.25-.12-.38-.09-.36-.2-.75-.43-1.05-.25-.32-.47-.32-.43-.76.04-.43,0-.92.32-1.26.12-.12.27-.19.4-.08.1.07.14.19.17.31s.05.24.1.34c.11.23.33.39.48.59.55.74,1.05,1.48,1.65,2.2.14.16.28.34.31.55.02.17-.03.34-.09.51-.13.38-.27.78-.56,1.05-.05.04-.1.08-.16.09-.08,0-.15-.04-.21-.09-.73-.59-1.17-1.2-1.45-2.02ZM191.25,84.75c.55-.04.79.58,1.08.86l.05.04c.6.47,1.57.82,2.11,1.31.18.21,1.2,1.22.9,1.6-.41.53-1.25.65-1.79.25-.26-.19-.44-.47-.69-.67-.22-.18-.49-.29-.71-.47-.48-.38-1.65-1.33-1.69-1.96-.02-.33.33-1,.74-.96ZM184.25,85.72c.2.15.54.23.59.51.11.71-.98.81-1.41.66-.4-.15-.72-.44-1.02-.74-.68-.68-1.28-1.42-1.8-2.22-.08-.12-.16-.24-.2-.38-.58-1.65.85-.86,1.45-.35s1.07,1.1,1.64,1.62c0,0,.05.06.05.06.25.28.41.6.72.84ZM182.24,75.01c.63.46,1.28.91,1.91,1.36.45.32,1.2.97,1.35,1.52.09.33-.01.69-.25.93-.05.05-.1.09-.16.1-.05,0-.1,0-.15-.02-.93-.26-1.39-.93-1.87-1.71-.45-.72-1.63-.83-1.73-1.94-.01-.12.17-.5.3-.54.11-.03.22.02.31.08.1.06.21.13.3.2ZM172.51,62.52c.12-.21.33-.32.68-.14.2.1.35.29.51.45.41.4.94.64,1.44.92.78.44,1.42,1.17,1.84,1.96.05.09.1.19.09.29,0,.15-.1.27-.19.38-.15.19-.36.39-.6.35-.11-.02-.2-.09-.29-.15-.86-.65-1.57-1.59-2.46-2.18-.35-.23-.78-.47-1-.85-.15-.27-.18-.75-.03-1.03ZM171.68,71.55c.12-.03.26,0,.44.12.62.42,1.16,1.64,1.6,2.26.29.41,1.75,1.48.91,1.99-.61.37-1.39-.56-1.73-.92-.52-.55-2-1.32-1.78-2.25.09-.39.2-1.1.56-1.2ZM163.85,52.8c-.25-.35-.34-.74.02-1.15.5-.55,1.53.05,1.99.35.18.12.37.24.48.43.21.33.03.67.15,1,.1.28.45.58.63.83.11.16.22.32.33.48.18.26.56,1.63-.23,1.21-.41-.22-.89-.45-1.24-.74-.31-.26-.42-.7-.66-1.01-.1-.13-.22-.24-.34-.35-.28-.26-.83-.62-1.13-1.05ZM164.44,62.38s.03.03.04.05c.26.33.59.56.91.83.54.47,1.11,1.36.9,2.12-.36,1.25-1.56.05-1.98-.45-.46-.54-.9-1.16-1.26-1.77-.21-.36-1-1.28-.8-1.74s1.07-.2,1.38,0c.37.25.56.63.82.96ZM170.29,40.78c-.04,1-1.55.49-2.18.18-.57-.27-1.15-.55-1.62-.97-.43-.37-1.23-1.29-.51-1.66.36-.19,1.31.41,1.66.53.72.36,2.5.66,2.65,1.68.01.08.02.16.01.23ZM174.14,33.11c-.72.8-3.63.47-4.37.3-.26-.06-.52-.14-.71-.32-1.23-1.24.94-1.16,1.57-1.14.64.02,4.07-.38,3.65.94-.03.08-.07.16-.13.23ZM181.38,30.33c.18-.2.47-.36.85-.43.13-.03.27-.05.4-.08.18-.03.36-.07.54-.08.09,0,.17,0,.25-.02.63-.14,1.09-.66,1.7-.85.55-.17,1.54.12.93.85-.22.26-.56.28-.8.5-.26.24-.31.63-.61.83-.25.17-.67.22-.97.29-.45.12-.89.31-1.35.33-1.18.05-1.46-.79-.95-1.35ZM178.84,38.12c-.06-.13-.07-.25-.01-.35.25-.44,1.51.11,1.88.15.08,0,.17.01.25.04.06.02.11.05.17.07.08.03.16.04.24.05.34.04.69-.04,1.03-.03.4,0,.86-.03,1.08.36.17.32.04.79-.24,1-.26.2-.61.22-.94.18s-.64-.13-.97-.13c-.31,0-.62.08-.91-.01-.12-.04-.22-.1-.33-.17-.24-.16-1.04-.71-1.26-1.17ZM185.26,47.33c-.46-.09-.83-.44-1.27-.6-.65-.23-1.34-.33-1.99-.6-.29-.12-.66-.27-.85-.54-.56-.77.96-1.24,1.49-.93.15.09.28.21.44.3.14.07.29.12.43.16.29.09.58.2.87.31.35.15.7.32.99.56.47.4,1.03,1.56-.11,1.33ZM194.4,36.12c-.48.13-.9.48-1.4.48-.32,0-.61-.15-.9-.3-.25-.13-.49-.26-.74-.38-1.57-.81,1.66-1.06,2.1-1.08.41-.03.81-.08,1.21-.13.19-.02.41-.07.6-.05.33.05,1.14.04,1.05.56-.03.17-.17.28-.31.38-.26.19-.54.39-.86.45-.19.03-.38,0-.57.03-.06,0-.12.02-.18.04ZM199.39,41.58s.05.1.07.15c.1.26.03.61-.21.74-.08.04-.17.06-.26.09-.08.03-.16.08-.23.12-1.34.74-3.17-.09-4.12-1.12-.08-.09-.16-.18-.19-.3-.27-1.18,1.31-.35,1.68-.3.26.04.48-.06.73-.05.34.02.64.2.99.2.67,0,1.22-.22,1.56.46ZM199.21,27.86c-.15.29-.35.56-.5.67-.48.39-1.11.99-1.7,1.16-.18.05-.36.06-.53.13-.12.05-.22.12-.33.17-.71.36-1.46-.11-1.13-.88.26-.61.9-.91,1.5-1.08.4-.11.85-.15,1.22-.35s.63-.6,1.05-.74c.82-.27.7.35.41.9ZM211.58,35.61c-.12.26-.49.25-.77.2-.69-.13-1.38-.25-2.07-.38-.17-.03-.34-.06-.5-.13-.11-.05-.21-.11-.32-.13-.24-.05-.48.06-.72.02-.5-.08-.87-1.13-.5-1.49.31-.32,1.02-.19,1.41-.13.15.02.3.04.45.07.68.1,1.38.23,2.03.49.52.21,1.32.78,1,1.49ZM216.66,26.78c-.22.29-.52.57-.71.75-.43.42-1.11.37-1.68.53-.39.11-.76.33-1.16.41-.46.09-1.64-.35-1.29-1.02.08-.15.33-.3.5-.42.03-.02.06-.04.08-.06.25-.21.51-.43.81-.56.33-.14.69-.16,1.05-.19.31-.02.56-.04.85-.15.53-.19,1.16-.39,1.7-.16.05.02.1.04.12.09.03.05.03.12.02.18-.03.18-.15.39-.31.59Z"/>
    </g>
  </g>
</svg>