<?xml version="1.0" encoding="UTF-8"?>
<svg id="Layer_2" data-name="Layer 2" xmlns="http://www.w3.org/2000/svg" viewBox="0 0 133.76 113.39">
  <defs>
    <style>
      .cls-1 {
        fill: #8accff;
      }
    </style>
  </defs>
  <g id="Layer_1-2" data-name="Layer 1">
    <g>
      <path class="cls-1" d="M48.63,47.54c-1.32,1.09-.62,3.36-.72,4.9,0,1.46,1.85.34,1.59-.75-.59-2.53,0-3.99,2.4-4.92.54-.22,1.12-.37,1.43.29.44.68.76,2.6,1.68,2.08.82-.46,2.2-3.01,1.2-3.83l-.1-.08c-.73-.3-1.65.09-2.47.2-1.72.43-3.61.96-5.01,2.11Z"/>
      <path class="cls-1" d="M129.56,37.87c-.34-.56-.61-1.16-.77-1.81-.17-.69-.19-1.42-.41-2.09-.92-2.77-4-4.52-6.69-4.96-2.73-.45-5.57.51-7.52-2.07-.69-.91-.55-1.76-1.65-2.48-2.77-1.82-6.26-1.76-9.45-1.88-3.16-.12-5.25-1.12-7.6-3.29-3.04-2.81-6.89-5.63-9.18-9.12-3.15-2.83-6.09-6.29-9.69-8.37l-.16-.08c-2.28-.87-6.01-2.73-8.18-1.01-2.7,2.82-2.86,12.89-4.02,18.03-.13.51-.34,1.18-.74,1.44-.54.43-1.47-.1-1.98-.51-3.88-2.46-15.85-18.58-19.6-10.41-1.37,4.91-.91,10.56-2.4,15.5-1.22,10.95.61,10.29-8.1,18.54-5.83,5.66-12.56,10.76-19.47,15.06C7.46,61,.3,63.07,0,69.07c-.04.79.68,3.51,1.3,3.98.13.1.28.18.44.18,1.56-.03.51-4.15.88-4.97.41-.9,1.5-1.23,2.46-1.45.88-.21,1.76-.41,2.64-.62.93-.22,2.07-.38,2.7.35.59.69.33,1.74-.03,2.58-.98,2.24-2.81,4.34-5.38,4.54-3.33.26-2.49,1.52-1.93,4.13.62,2.85,1.49,5.99,3.45,8.3,1.93,2.39,5.81,1.48,7.95,3.89.25.28.47.59.79.78.39.23.86.25,1.31.24,2.76-.06,5.28-1.45,8.12-.89,1.57.31,3.57.99,5.31.79,1.1-.07,2.07-.5,3.17-.59,1.94-.16,4.64,1.08,6.78,1.47,1.82.44,3.17-.97,4.76-1.51,1.12-.29,2.32.84,3.72.57,1.41-.22,2.67-1.37,4.09-1.48,1.4-.12,2.31,1.1,3.47,1.68,1.55.84,3.05-.28,4.56-.44,1.29-.09,2.65.22,3.96.4,2.32.38,3.91.66,5.92.1,1.37-.39,3.16-1.27,4.11.3.87,1.21,1.24,2.99,1.71,4.34.47,1.2,2.21,2.1,3.55,2.61,1.82.69,3.06,1.55,3.17,3.67.13,2.46-.2,5.05-.09,7.6.05,1.19.18,2.52,1.1,3.26,1.13.9,2.76.42,4.15.07,2.39-.6,4.91-.69,7.34-.26,1.17.2,2.32.53,3.5.61,3.96.27,5.66-3.92,8.19-6.15,2.89-2.52,6.38-.99,9.61-2.27s3.52-3.98,4.31-7.15c.54-2.17,1.35-4.65,3.45-5.44.64-.24,1.35-.29,1.99-.53,3.39-1.28,3.32-4.94,3.09-7.96-.19-2.55-1.05-5.89-.19-8.33.7-2,2.95-3.76,3.88-5.79,1.3-3.34-1.4-7.37-2.31-10.54-.97-3.36-1.8-7.67.83-10.53.35-.38.79-.67,1.14-1.05,1.46-1.63.68-4.26-.61-6.04-.9-1.23-2.03-2.36-2.8-3.65ZM76.3,27.42c-.86-.99.16-2.17,1.22-2.53,1.34-.45,5.45-.08,6.14-1.78.23-.56-.22-1.12-.65-1.54-1.6-1.54-3.07-3.41-4.24-5.31-.54-.88-1.53-2.3-1.38-3.41.15-1.13,1.24-1.96,2.28-.92,2.42,2.41,4.36,5.6,6.18,8.47.46.72.92,1.45,1.17,2.26.85,2.69-2.18,3.71-4.17,4.28-.28.08-.63.2-1.02.33-1.79.59-4.43,1.42-5.54.13ZM89.86,77.63s.14.05.14.05c1.03.33,1.29,2.44,1.7,3.16.97,1.67,2.07,3.38,2.63,5.24.29.96.11,1.81-.33,2.36-.61.76-1.72.95-2.81.13-1.96-1.47-3.1-4.3-3.32-6.66-.09-.99.07-5.01,1.99-4.28ZM53.32,76.56c-.07.69-.31,1.34-.54,1.99-.15.41-.3.83-.55,1.19-.82,1.19-2.88,1.61-3.7.3-.65-1.04.05-2.98.25-4.07.22-1.25.82-2.66,1.45-3.96.29-.6.59-1.17.86-1.7.21-.41.44-.81.8-1.1.35-.29.85-.44,1.28-.27.47.18.73.7.84,1.19.34,1.61-.52,3.23-.63,4.88-.03.52,0,1.04-.05,1.56ZM103.5,65.67s.14.07.14.07c.79.36,1.47,1.02,2.11,1.58.29.25.59.63.94.77.45.18.92-.02,1.38.06.18.03.34.12.5.2,1.17.64,4.07,3.18,2.31,4.43-.14.1-.32.19-.52.28-.59.24-1.25.18-1.88.05-1.2-.25-2.35-.76-3.34-1.48-.44-.32-.84-.68-1.33-.92-.59-.3-1.27-.4-1.82-.76-1.22-.79-1.54-3.2-.66-4.34.56-.72,1.6-.2,2.15.06ZM67.35,62.85c1.08,1.38,2.15,2.77,3.23,4.15.18.24.37.48.45.77.15.55-.14,1.12-.18,1.69-.02.29.02.59-.04.87-.14.69-.88,1.14-1.59,1.18-.75.04-1.4-.23-1.96-.7-1.67-1.4-2.56-4.56-3.35-6.24-.5-1.06.14-2.97,1.47-3.05.82-.05,1.46.67,1.96,1.32ZM100.68,48.27c1.89.42,5.41,1.34,7.06,2.14.72.34,2.06,1.12,2.4,2.02.14.39.1.8-.26,1.21-.44.5-1.14.7-1.79.84-.44.1-.9.18-1.35.13-.85-.08-1.59-.6-2.28-1.1-1.22-.87-2.43-1.74-3.65-2.61-1.26-.9-2.9-3.17-.12-2.63ZM79.71,47.91c.51.15,1.05.1,1.58.14,2.21.17,4.18,2.43,5.07,4.32.39.82.35,1.73-.71,2.18-2.23.94-6.29-2.66-7.61-4.16-.53-.6-1.31-1.79-1.07-2.64.56-1.97,1.65-.15,2.74.17ZM56.34,51.14c-1.19,1.23-2.62,2.25-4.17,2.96-1.32.6-3.44,1.36-4.88.92-.47-.14-.76-.36-.93-.64-.28-.44-.28-1.02-.32-1.67-.15-3.61-.91-5.66,2.6-7.48,2.32-1.21,6.55-4.31,9.06-1.88,2.39,2.32.52,5.87-1.35,7.79ZM116.18,39.01c.14.02.28.05.41.07,2.08-.23,4.06.38,5.73,1.49.03.02.07.04.1.07.5.34,1.01.74,1.15,1.32.16.67-.32,1.42-.99,1.55-.26.05-.53.02-.79,0-2.59-.3-5.17-.59-7.76-.89-.61-.07-1.39-.31-1.4-.93,0-.26.15-.5.31-.71.99-1.37,1.46-2.28,3.25-1.96ZM97.59,35.95c-1.15.65-2.58.05-3.93.05-1.2.01-2.34.52-3.53.64-1.1.11-3.02-.44-2.75-1.9.25-1.36,3.36-1.9,4.49-2.35.43-.17.86-.34,1.32-.38.5-.05,1.01.05,1.5.16.72.15,1.43.3,2.15.45,1.7.35,2.54,2.32.75,3.34Z"/>
    </g>
  </g>
</svg>