<?xml version="1.0" encoding="UTF-8"?>
<svg id="Layer_2" data-name="Layer 2" xmlns="http://www.w3.org/2000/svg" viewBox="0 0 32.26 56.69">
  <defs>
    <style>
      .cls-1 {
        fill: #8accff;
      }
    </style>
  </defs>
  <g id="Layer_1-2" data-name="Layer 1">
    <path class="cls-1" d="M30.2,21.03c-.08-.05-.16-.11-.21-.19-.06-.11-.07-.24-.06-.36.05-.58.44-1.08.78-1.55.7-.99,2.54-3.11.84-3.9-.91-.48-2.97-.72-2.29-2.17.45-1.04,2.09-1.98,1.62-3.33-.44-1.14-1.69-1.53-2.76-1.91-1.75-.61.18-3.66-1.71-4.19-.41-.11-.85-.11-1.22-.3-.95-.47-.76-1.86-1.4-2.63-.59-.71-1.61-.63-2.23.03-.36.38-.56.88-.73,1.37-.2.6-.51.8-.96,1.18-.42.38-1.11.66-1.66.9-2.85,1.22.95,5.81-1.07,6.41-.47.12-1.14-.04-1.59.21-.66.34-.82,1.2-.71,1.89.09,1.49,1.89,3.03,1,4.37-1.06.63-2.19-.77-3.4-.53-2.91.64-.63,4.34.29,5.74.27.46.62,1.59-.18,1.62-.98-.24-1.56-1.27-2.55-1.49-.39-.09-.82-.04-1.15.19-1.1.75-.58,2.54-.34,3.57.08.34.16.69.26,1.02.32,1.02.94,2.03,1.18,3.06.05.22.09.45.07.67-.03.22-.14.45-.34.56-.6.35-1.47-1-1.88-1.36-.18-.16-.35-.31-.53-.47-.35-.31-.72-.64-1.18-.76-.8-.21-1.32.62-1.5,1.32-.05.2-.04.4-.02.6.11,1.03.35,1.75.72,2.69.28.71.76,1.37.91,2.13.13.65-.22.72-.8.46-.59-.27-.87-.89-1.31-1.32-.72-.7-1.65-.46-2.11.44-.31.6-.35,1.31-.23,1.98.15.87.56,1.61,1,2.37.23.41,1.07,1.48.7,1.91-.08.1-.2.15-.32.19-.5.17-1.04.11-1.55.25-.72.19-1.32.79-1.51,1.51-.54,2.05,2.08,2.77,3.38,3.73,1.35,1,2.57,2.43,1.71,4.16-.54,1.1-2.46,2.38-2,3.79.5,1.53,3.24,2.42,4.46,1.29,1.42-1.31,1.79-3.54,3.41-4.66.99-.69,2.28-.73,3.49-.75.91-.01,1.82-.03,2.73-.04,1.25-.02,3.16-.04,3.84-1.34.15-.29.22-.62.17-.93-.1-.66-.73-1.04-.96-1.62-.22-.53.13-1.15.62-1.45.49-.3,1.08-.35,1.65-.43,1.1-.14,2.19-.38,3.25-.7.85-.26,1.64-.37,1.78-1.41.21-1.6-2.02-1.77-2.8-2.4-.92-.95.89-1.5,1.66-1.66,3.63-.54,6.99-4.89,1.28-5.03-1.04-.17-.02-.86.4-1.07,1.25-.63,2.61-.95,3.4-2.22.33-.54.52-1.24.27-1.81-.03-.07-.07-.15-.12-.21-.51-.75-1.55-.82-2.34-1-.4-.09-1.06-.17-1.09-.63.05-.39.5-.64.82-.84,1.04-.56,2.35-.99,2.88-2.11.67-1.66-.55-2.05-1.75-2.85ZM22.63,19.83c-.12,1.01-.29,2-.51,2.99-.52,2.33-1.31,4.61-2.2,6.84-.84,2.11-1.86,4.39-3.33,6.18-1.39,1.71-2.54,3.58-3.99,5.29-.79.93-1.45,2.02-2.07,3.06-.35.58-.51,1.36-.72,2-.14.42-.17.84-.38,1.25-.02.03-.04.07-.07.09-.09.07-.23,0-.28-.1-.04-.1-.02-.22,0-.33.17-.78.28-1.53.5-2.3.22-.77.43-1.54.72-2.29.75-1.93,2.35-3.65,3.51-5.38,1.3-1.93,2.55-3.9,3.76-5.88.62-1.02,1.24-2.06,1.71-3.16.81-1.88,1.16-3.98,1.77-5.93.65-2.09.96-4.3,1.09-6.48.07-1.17.18-2.35.27-3.52.04-.52-.12-3.36.26-3.62.18-.13.35.18.36.39.15,3.63.02,7.26-.4,10.87Z"/>
  </g>
</svg>