<?xml version="1.0" encoding="UTF-8"?>
<svg id="Layer_2" data-name="Layer 2" xmlns="http://www.w3.org/2000/svg" viewBox="0 0 188.56 99.19">
  <defs>
    <style>
      .cls-1 {
        fill: #3d6be3;
      }
    </style>
  </defs>
  <g id="Layer_1-2" data-name="Layer 1">
    <g>
      <g>
        <path class="cls-1" d="M103.22,22.28c1.04,1.59,3.84,5.6,7.38,8.44,1.88,1.51,3.4,2.22,4.51,2.12.08,0,.17-.02.26-.03.42-.05.99-.13,1.74.01.92.17,1.79.62,2.58,1.31l.06.06.03.08c.29.72.62,1.44.99,2.13.17.33.35.65.54.97-.06-.9-.04-1.77.01-2.6-.35-1.19-.56-2.41-.63-3.64-.03-.64-.03-1.29.02-1.93l.02-.26.26-.02c.25-.02.48-.08.7-.19.28-.14.48-.33.61-.51,0-.03.01-.06.02-.09.32-1.41.65-2.86,1.29-4.64.12-2.19.06-4.39-.16-6.55-.35-3.38-1.12-5.91-2.64-10.95-.31-1.01-1.12-3.69-1.47-3.91-.05.01-.38.17-.9,1.94-.38,1.32-.75,3.11-1.14,5.01-.56,2.76-.85,4.14-.97,5.91-.33,4.83-.6,8.64,1.38,10.52l-.5.52c-2.22-2.11-1.94-6.07-1.6-11.09.07-.99.18-1.86.37-2.9-.15-.86-.35-1.71-.61-2.55-.5-1.64-1.52-3.74-2.86-5.9-.8-1.29-1.38-2.23-1.84-2.83C110.13-.02,109.94,0,109.93,0c-.03,0-.32.11-.49,1.51-.12,1.01-.14,2.37-.17,3.81-.06,3.19-.11,6.49,1.11,10.43.32,1.02.8,2.56,1.82,4.43.48.87.94,1.57,1.27,2.08.19.29.33.5.42.68.11.11.21.22.32.34.48.5,1.47,1.55,2.29,2.74.52.75.92,1.34,1.26,2.25.28.77.51,1.38.46,2.22-.02.3-.06.52-.1.69-.03.12-.05.22-.04.28l-.72.03c0-.16.02-.3.06-.46.03-.16.07-.34.09-.59.04-.69-.15-1.21-.41-1.93-.3-.83-.67-1.36-1.17-2.09-.79-1.14-1.75-2.17-2.22-2.66-2.51-2.65-5.17-4.65-5.28-4.74-.24-.18-.62-.46-1.09-.79-1.37-.96-2.51-1.62-3.24-2.04-2.9-1.66-5.22-2.98-5.77-3.02-.05.14-.09.79,1.28,3.26,1.02,1.83,2.47,4.06,3.64,5.84ZM119.88,9.4c.28,2.66.46,5.37.52,8.04.07,2.89.02,5.83-.16,8.72l-.6-.04c.18-2.87.23-5.79.16-8.67-.07-2.66-.24-5.35-.52-7.99l.6-.06ZM113.97,17.74c-1.01-2.28-1.8-4.67-2.36-7.1-.44-1.9-.73-3.85-.89-5.79l.6-.05c.15,1.92.44,3.84.87,5.71.55,2.39,1.33,4.74,2.32,6.99l-.55.24ZM101.78,16.84c2.82,3.14,5.82,6.2,8.91,9.07,1.58,1.47,3.21,2.93,4.86,4.32l-.39.46c-1.65-1.4-3.3-2.86-4.88-4.34-3.1-2.89-6.11-5.95-8.95-9.11l.45-.4Z"/>
        <path class="cls-1" d="M106.78,39.55c2.82,1.88,5.2,3.39,8.33,5.11,4.69,2.58,6.22,2.95,7.87,2.82,1.17-.09,2.33-.44,3.45-1.04-.11-.36-.17-.65-.21-.9-.08-.44-.12-.62-.32-.77-.09-.07-.14-.08-.29-.1-.12-.02-.27-.04-.49-.1-1.73-.53-2.61-2.5-2.91-3.15-.1-.23-.2-.5-.3-.8h-.01c-.82-.74-1.54-1.24-2.01-1.56-2.6-1.75-4.97-2.32-8.55-3.18-2.35-.57-3.97-.76-7.19-1.14-2.91-.35-3.8-.26-4.07-.19.23.38,1.48,1.53,6.69,5ZM105.7,36.28c1.19.33,2.38.72,3.55,1.15,1.38.5,3.84,1.5,9.27,4.37,1.67.88,3.37,1.81,5.04,2.75l-.29.52c-1.67-.94-3.36-1.86-5.03-2.75-5.4-2.85-7.83-3.84-9.19-4.34-1.15-.42-2.33-.8-3.51-1.13l.16-.58Z"/>
        <path class="cls-1" d="M131.74,62.63c.32-.04,3.2-.46,6.9-1.72.52-.18,1.05-.37,1.56-.56l.18-.07.16.11c.51.34,1.01.7,1.5,1.06.46.34.83.62,1.15.86.73.56,1.17.89,1.85,1.23.06.03.12.06.18.08-.66-.91-1.24-1.76-1.66-2.4h0c-1.2-.91-2.39-1.86-3.54-2.8-1.53-1.25-2.37-1.94-3.5-3-1.04-.97-2.04-1.98-2.96-3-.33-.37-.72-.84-1.32-1.56-.3-.37-.66-.8-1.1-1.32-.44-.53-1.05-1.25-1.77-2.28-1.11-1.59-1.45-2.41-1.32-3.22.05-.3.13-.43.24-.6.08-.13.19-.3.35-.65,0-.02.77-1.74.91-4.72v-.17c0-.05.01-.18.02-.35,0,0,0-.32,0-.6-.02-1.89-.79-6.59-.83-6.79h0c-.33-1.96-.46-2.63-.56-3.1-.07-.35-.13-.59-.18-.83-.07-.31-.13-.6-.23-1.07-.2-1-.32-1.7-.44-2.38l-.06-.35c-.32-1.91-.59-3.49-.79-4.18-.08.21-.18.49-.29.79-.17.47-.37,1.04-.66,1.8-.37.96-.55,1.37-.7,1.69-.14.31-.25.55-.46,1.15-.64,1.76-.97,3.21-1.29,4.61-.2.88-.37,1.74-.51,2.56,0,.03-.11.68-.19,1.3-.29,2.2-.65,4.94.14,7.79.12.46.27.88.41,1.18.26.57,1.05,2.32,2.46,2.76.16.05.27.06.38.08.18.03.37.05.62.23.44.32.51.74.6,1.22.06.3.12.64.28,1.08.16.42.45,1.21,1.18,1.75.23.17.5.3.78.39l.11.04.07.09c.88,1.19,1.81,2.36,2.78,3.48.87,1.01,1.79,1.99,2.74,2.94.19.09.4.2.62.32l-.34.63c-.23-.13-.45-.24-.65-.33-.91-.43-2.95-1.03-5.74-1.29-3.59-.33-8.68.17-12.32.64-3.99.52-4.94.86-5.13,1.02.15.25,1.25,1.03,7.56,3.26,6.54,2.31,10.15,3.58,12.87,3.21ZM125.82,42.08c-.16-2.34-.27-4.72-.33-7.06-.08-3.17-.08-6.39,0-9.56l.6.02c-.08,3.16-.08,6.37,0,9.53.06,2.34.17,4.71.33,7.04l-.6.04ZM132.04,57.3c1.7.33,3.4.76,5.05,1.27l-.18.57c-1.63-.51-3.31-.93-4.99-1.26-4.16-.8-8.45-1.04-12.74-.69l-.05-.6c4.35-.35,8.69-.12,12.9.7Z"/>
        <path class="cls-1" d="M144.47,54.26l.18.15c.73.58,1.51,1.15,2.29,1.69.01,0,1.05.72,2.09,1.36.31.19.62.37.67.4h0s.02.02.03.02c.16-.37.3-.75.43-1.14,0,0,.05-.15.1-.29.33-1.05.58-2.31.72-3.64.19-1.87.19-4.03,0-6.24-.12-1.36-.24-1.91-.49-3.13-.19-.95-.46-2.24-.87-4.59-.11-.64-.21-1.2-.29-1.7-.27-1.59-.52-3.09-.73-3.13-.01,0-.29-.03-.95,1.14-.47.83-.98,2-1.48,3.14-1.05,2.39-1.71,3.97-2.19,6.31-.61,2.98-.6,6.1,0,9.28.15.12.31.25.47.38ZM147.4,40.03l.59.08c-.36,2.56-.56,5.17-.61,7.75-.04,2.26.05,4.54.25,6.79l-.6.05c-.21-2.27-.29-4.58-.26-6.86.04-2.61.25-5.24.61-7.83Z"/>
        <path class="cls-1" d="M168.28,75.02l.14.04c1.83.51,6.5,1.81,7.51,2.09,1.53.43,4.35,1.21,8.06,1.83,3.67.61,4.42.42,4.57.31-.01-.07-.1-.28-.58-.74-.56-.53-1.25-.65-1.47-.68h-.02c-.97-.17-4.61-.94-11.87-2.47-.52-.11-1.91-.41-3.47-.85-.64-.18-1.2-.35-1.55-.46-.59-.18-1.19-.38-1.76-.58l-.2-.07-.04-.2c-.08-.43-.14-.87-.18-1.31-.05-.59-.08-.92-.02-1.27.1-.57.39-.91.7-1.26.11-.13.22-.26.34-.41,1.13-1.48,1.52-3.28,1.81-4.6,0,0,.03-.16.06-.3.72-3.74-2.41-11.21-3.91-14.8-.43-1.03-.93-2.21-1.44-3.25-.71-1.44-1.07-1.82-1.2-1.91-.07.08-.21.29-.43.81,0,0-.15.37-.21.77v.04c-.36,2.64-.58,4.91-.58,4.93-.67,6.95-.58,8.83-.4,10.43,0,.05.6,4.99,1.62,6.82.39.7.92,1.26.92,1.26.17.18.28.29.44.42.1.08.18.14.26.19.13.09.27.19.43.35,0,0,.19.19.35.42.46.65.49,1.59.48,1.97v.48s-.47-.15-.47-.15c-.05-.02-.16-.05-.28-.09-1.37-.47-2.7-1.05-3.94-1.74-.08-.04-.19-.11-.32-.18l-.13-.08-.04-.15c-.1-.41-.15-.83-.15-1.25.01-1.36.58-2.43,1.05-3.08l.03.02c-.62-2.21-.95-4.98-.97-5.13-.18-1.64-.28-3.56.4-10.58h0c.03-.3.24-2.43.56-4.83-.39-.73-.55-1.36-.66-1.83-.04-.18-.08-.34-.12-.47-.06-.18-.11-.34-.16-.48-.04-.13-.08-.24-.11-.34-.13.29-.3.75-.47,1.23-.5,1.38-1.25,3.46-2.67,6.29-2.81,5.61-1.98,11.14-1.17,12.8.37.76,1.6,2.59,2.01,3.07.2.23.69.93.91,1.38.37.77.47,1.87.49,2.46l.02.49-.47-.13c-.3-.08-.6-.18-.89-.3-.46-.18-.9-.41-1.31-.68l-.15-.1v-.18c-.02-.23-.04-.46-.08-.68-.33-2.4-1.68-4.03-2.86-5.47-.02-.03-2.09-2.52-4.94-4.16h0s-.02,0-.03-.02c-.06-.03-.19-.11-.36-.21l-.04-.02c-.1-.06-.38-.22-.64-.39-1.06-.65-2.12-1.38-2.13-1.38-.8-.55-1.58-1.13-2.33-1.72l-.19-.15c-.37-.29-.7-.56-.99-.8-1.26-1.01-1.96-1.57-2.93-2.15-.56-.33-.87-.47-1.04-.52.03.18.15.54.52,1.29,2.75,5.41,4.05,7.42,4.06,7.44.46.7,1.55,2.37,2.8,4.02.02,0,.03.01.05.02v.03c.56.75,1.16,1.49,1.74,2.13.49.53.97,1,1.11,1.13,1.08,1.04,1.68,1.61,2.55,2.11.37.21,1.36.77,2.73.94.38.05.72.02,1.08-.01.62-.05,1.26-.1,2.04.23.02,0,.02,0,.7.36,1.76.9,1.98,1.02,1.97,1.44-.01.47-.59.72-1.15.91-1.1.36-1.97.34-2.81.33-.61-.01-1.25-.02-2,.11-.54.09-.92.23-1.69.51-2.03.73-5.7,2.87-11.69,8.94l-.16.17c-1.87,1.88-3.16,3.19-3.99,4.18-1.1,1.31-1,1.62-.97,1.67.02.03.26.31,2.16-.21,1.34-.37,3.13-1.02,5.02-1.72h.01c4.12-1.52,6.18-2.28,8.38-3.77,4.37-2.96,7.43-7.06,7.85-7.74v-.02c.09-.12.24-.38.52-.67.77-.81,1.84-1.23,2.05-1.31h.02c.11-.04.36-.14.65-.33.09-.06.17-.12.25-.18l.17-.14.2.09c.9.41,1.83.77,2.77,1.09.2.07.41.13.61.2l.44.14-.24.39c-.2.33-.46.61-.76.83-.56.41-1.14.51-1.33.54h-.02c-.82.14-2.44.96-4.34,2.19-3.53,2.29-5.67,8.39-8.15,15.46-.98,2.78-1.55,4.7-1.18,4.99.11.09.82.41,3.71-1.74,1.68-1.25,3.24-2.71,3.31-2.78,6.87-6.44,9.44-14.26,8.97-16.04-.05-.19-.45-1.84.22-2.7.04-.06.21-.26.47-.48.14-.11.29-.21.44-.3l.13-.07ZM154.79,68.5c-1.39-1.38-2.78-2.79-4.13-4.2-2.24-2.34-4.45-4.76-6.57-7.2l.45-.39c2.12,2.43,4.32,4.85,6.55,7.18,1.35,1.41,2.73,2.82,4.12,4.19l-.42.43ZM150.73,80.01c-3.11,2.09-6.29,4.19-9.43,6.25l-.33-.5c3.14-2.06,6.31-4.16,9.42-6.25,1.99-1.33,4.01-2.69,6-4.05l.34.5c-1.99,1.35-4.01,2.72-6,4.05ZM160.65,64.44l-.6.05c-.25-2.95-.34-5.95-.27-8.91.06-2.74.27-5.51.61-8.24l.6.07c-.34,2.7-.54,5.46-.6,8.18-.07,2.94.02,5.91.27,8.84ZM160.09,85.43c-1.96,3.02-3.84,6.16-5.57,9.32l-.53-.29c1.74-3.17,3.62-6.32,5.59-9.36,1.41-2.18,2.91-4.34,4.44-6.44l.48.35c-1.52,2.09-3.01,4.25-4.42,6.41ZM166.94,67.63l-.6-.04c.16-2.2.16-4.43,0-6.63-.25-3.53-.91-7.04-1.95-10.45l.57-.18c1.06,3.45,1.72,7,1.97,10.58.16,2.23.16,4.48,0,6.71Z"/>
        <path class="cls-1" d="M135.78,37.35c-1.93,5.32-2.15,6.61-2.29,8.09-.11,1.22-.35,3.76.61,6.56.85.94,1.77,1.87,2.73,2.78.41-.21.8-.45,1.16-.73.37-.28.7-.6,1.01-.94-.02-.05-.05-.09-.07-.14-.56-1.11-.83-1.87-.4-2.24.23-.2.58-.21,1.55.32.31-.84.55-1.71.72-2.58.24-1.26.31-2.39.27-4.3-.07-3.16-.4-5.64-.55-6.83l-.02-.14c-.62-4.8-1.06-7.55-1.32-8.21-.6.59-1.91,4.21-3.42,8.37ZM137.54,47.16c-.31,1.88-.67,3.77-1.09,5.63l-.58-.13c.41-1.85.78-3.73,1.09-5.6.62-3.82,1.02-7.72,1.18-11.6l.6.03c-.16,3.9-.56,7.83-1.19,11.67Z"/>
        <path class="cls-1" d="M144.31,73.98c1.75-.69,3.31-1.62,3.75-1.88,1.07-.65,2.09-1.4,3.05-2.21-.74-.49-1.35-1.07-2.26-1.95-.13-.13-.58-.56-1.05-1.07-2.82-.43-5.59-.39-8.24.12-2.27.44-4.39,1.4-8.98,3.52-2.41,1.12-4.08,1.9-5.22,2.51-1.52.82-1.67,1.12-1.68,1.2.01.06.22.72,4.17,1,2.43.17,5.35.15,7.48.13,4.05-.03,6.57-.42,9-1.37ZM129.94,73.64l-.12-.59c3.47-.72,6.98-1.52,10.42-2.38,2.45-.61,4.93-1.27,7.37-1.96l.16.58c-2.44.69-4.93,1.35-7.38,1.97-3.45.86-6.97,1.67-10.45,2.38Z"/>
      </g>
      <g>
        <path class="cls-1" d="M85.34,22.28c-1.04,1.59-3.84,5.6-7.38,8.44-1.88,1.51-3.4,2.22-4.51,2.12-.08,0-.17-.02-.26-.03-.42-.05-.99-.13-1.74.01-.92.17-1.79.62-2.58,1.31l-.06.06-.03.08c-.29.72-.62,1.44-.99,2.13-.17.33-.35.65-.54.97.06-.9.04-1.77-.01-2.6.35-1.19.56-2.41.63-3.64.03-.64.03-1.29-.02-1.93l-.02-.26-.26-.02c-.25-.02-.48-.08-.7-.19-.28-.14-.48-.33-.61-.51,0-.03-.01-.06-.02-.09-.32-1.41-.65-2.86-1.29-4.64-.12-2.19-.06-4.39.16-6.55.35-3.38,1.12-5.91,2.64-10.95.31-1.01,1.12-3.69,1.47-3.91.05.01.38.17.9,1.94.38,1.32.75,3.11,1.14,5.01.56,2.76.85,4.14.97,5.91.33,4.83.6,8.64-1.38,10.52l.5.52c2.22-2.11,1.94-6.07,1.6-11.09-.07-.99-.18-1.86-.37-2.9.15-.86.35-1.71.61-2.55.5-1.64,1.52-3.74,2.86-5.9.8-1.29,1.38-2.23,1.84-2.83C78.43-.02,78.62,0,78.63,0c.03,0,.32.11.49,1.51.12,1.01.14,2.37.17,3.81.06,3.19.11,6.49-1.11,10.43-.32,1.02-.8,2.56-1.82,4.43-.48.87-.94,1.57-1.27,2.08-.19.29-.33.5-.42.68-.11.11-.21.22-.32.34-.48.5-1.47,1.55-2.29,2.74-.52.75-.92,1.34-1.26,2.25-.28.77-.51,1.38-.46,2.22.02.3.06.52.1.69.03.12.05.22.04.28l.72.03c0-.16-.02-.3-.06-.46-.03-.16-.07-.34-.09-.59-.04-.69.15-1.21.41-1.93.3-.83.67-1.36,1.17-2.09.79-1.14,1.75-2.17,2.22-2.66,2.51-2.65,5.17-4.65,5.28-4.74.24-.18.62-.46,1.09-.79,1.37-.96,2.51-1.62,3.24-2.04,2.9-1.66,5.22-2.98,5.77-3.02.05.14.09.79-1.28,3.26-1.02,1.83-2.47,4.06-3.64,5.84ZM68.68,9.4c-.28,2.66-.46,5.37-.52,8.04-.07,2.89-.02,5.83.16,8.72l.6-.04c-.18-2.87-.23-5.79-.16-8.67.07-2.66.24-5.35.52-7.99l-.6-.06ZM74.59,17.74c1.01-2.28,1.8-4.67,2.36-7.1.44-1.9.73-3.85.89-5.79l-.6-.05c-.15,1.92-.44,3.84-.87,5.71-.55,2.39-1.33,4.74-2.32,6.99l.55.24ZM86.78,16.84c-2.82,3.14-5.82,6.2-8.91,9.07-1.58,1.47-3.21,2.93-4.86,4.32l.39.46c1.65-1.4,3.3-2.86,4.88-4.34,3.1-2.89,6.11-5.95,8.95-9.11l-.45-.4Z"/>
        <path class="cls-1" d="M81.78,39.55c-2.82,1.88-5.2,3.39-8.33,5.11-4.69,2.58-6.22,2.95-7.87,2.82-1.17-.09-2.33-.44-3.45-1.04.11-.36.17-.65.21-.9.08-.44.12-.62.32-.77.09-.07.14-.08.29-.1.12-.02.27-.04.49-.1,1.73-.53,2.61-2.5,2.91-3.15.1-.23.2-.5.3-.8h.01c.82-.74,1.54-1.24,2.01-1.56,2.6-1.75,4.97-2.32,8.55-3.18,2.35-.57,3.97-.76,7.19-1.14,2.91-.35,3.8-.26,4.07-.19-.23.38-1.48,1.53-6.69,5ZM82.86,36.28c-1.19.33-2.38.72-3.55,1.15-1.38.5-3.84,1.5-9.27,4.37-1.67.88-3.37,1.81-5.04,2.75l.29.52c1.67-.94,3.36-1.86,5.03-2.75,5.4-2.85,7.83-3.84,9.19-4.34,1.15-.42,2.33-.8,3.51-1.13l-.16-.58Z"/>
        <path class="cls-1" d="M56.82,62.63c-.32-.04-3.2-.46-6.9-1.72-.52-.18-1.05-.37-1.56-.56l-.18-.07-.16.11c-.51.34-1.01.7-1.5,1.06-.46.34-.83.62-1.15.86-.73.56-1.17.89-1.85,1.23-.06.03-.12.06-.18.08.66-.91,1.24-1.76,1.66-2.4h0c1.2-.91,2.39-1.86,3.54-2.8,1.53-1.25,2.37-1.94,3.5-3,1.04-.97,2.04-1.98,2.96-3,.33-.37.72-.84,1.32-1.56.3-.37.66-.8,1.1-1.32.44-.53,1.05-1.25,1.77-2.28,1.11-1.59,1.45-2.41,1.32-3.22-.05-.3-.13-.43-.24-.6-.08-.13-.19-.3-.35-.65,0-.02-.77-1.74-.91-4.72v-.17c0-.05-.01-.18-.02-.35,0,0,0-.32,0-.6.02-1.89.79-6.59.83-6.79h0c.33-1.96.46-2.63.56-3.1.07-.35.13-.59.18-.83.07-.31.13-.6.23-1.07.2-1,.32-1.7.44-2.38l.06-.35c.32-1.91.59-3.49.79-4.18.08.21.18.49.29.79.17.47.37,1.04.66,1.8.37.96.55,1.37.7,1.69.14.31.25.55.46,1.15.64,1.76.97,3.21,1.29,4.61.2.88.37,1.74.51,2.56,0,.03.11.68.19,1.3.29,2.2.65,4.94-.14,7.79-.12.46-.27.88-.41,1.18-.26.57-1.05,2.32-2.46,2.76-.16.05-.27.06-.38.08-.18.03-.37.05-.62.23-.44.32-.51.74-.6,1.22-.06.3-.12.64-.28,1.08-.16.42-.45,1.21-1.18,1.75-.23.17-.5.3-.78.39l-.11.04-.07.09c-.88,1.19-1.81,2.36-2.78,3.48-.87,1.01-1.79,1.99-2.74,2.94-.19.09-.4.2-.62.32l.34.63c.23-.13.45-.24.65-.33.91-.43,2.95-1.03,5.74-1.29,3.59-.33,8.68.17,12.32.64,3.99.52,4.94.86,5.13,1.02-.15.25-1.25,1.03-7.56,3.26-6.54,2.31-10.15,3.58-12.87,3.21ZM62.74,42.08c.16-2.34.27-4.72.33-7.06.08-3.17.08-6.39,0-9.56l-.6.02c.08,3.16.08,6.37,0,9.53-.06,2.34-.17,4.71-.33,7.04l.6.04ZM56.52,57.3c-1.7.33-3.4.76-5.05,1.27l.18.57c1.63-.51,3.31-.93,4.99-1.26,4.16-.8,8.45-1.04,12.74-.69l.05-.6c-4.35-.35-8.69-.12-12.9.7Z"/>
        <path class="cls-1" d="M44.09,54.26l-.18.15c-.73.58-1.51,1.15-2.29,1.69-.01,0-1.05.72-2.09,1.36-.31.19-.62.37-.67.4h0s-.02.02-.03.02c-.16-.37-.3-.75-.43-1.14,0,0-.05-.15-.1-.29-.33-1.05-.58-2.31-.72-3.64-.19-1.87-.19-4.03,0-6.24.12-1.36.24-1.91.49-3.13.19-.95.46-2.24.87-4.59.11-.64.21-1.2.29-1.7.27-1.59.52-3.09.73-3.13.01,0,.29-.03.95,1.14.47.83.98,2,1.48,3.14,1.05,2.39,1.71,3.97,2.19,6.31.61,2.98.6,6.1,0,9.28-.15.12-.31.25-.47.38ZM41.16,40.03l-.59.08c.36,2.56.56,5.17.61,7.75.04,2.26-.05,4.54-.25,6.79l.6.05c.21-2.27.29-4.58.26-6.86-.04-2.61-.25-5.24-.61-7.83Z"/>
        <path class="cls-1" d="M20.28,75.02l-.14.04c-1.83.51-6.5,1.81-7.51,2.09-1.53.43-4.35,1.21-8.06,1.83-3.67.61-4.42.42-4.57.31.01-.07.1-.28.58-.74.56-.53,1.25-.65,1.47-.68h.02c.97-.17,4.61-.94,11.87-2.47.52-.11,1.91-.41,3.47-.85.64-.18,1.2-.35,1.55-.46.59-.18,1.19-.38,1.76-.58l.2-.07.04-.2c.08-.43.14-.87.18-1.31.05-.59.08-.92.02-1.27-.1-.57-.39-.91-.7-1.26-.11-.13-.22-.26-.34-.41-1.13-1.48-1.52-3.28-1.81-4.6,0,0-.03-.16-.06-.3-.72-3.74,2.41-11.21,3.91-14.8.43-1.03.93-2.21,1.44-3.25.71-1.44,1.07-1.82,1.2-1.91.07.08.21.29.43.81,0,0,.15.37.21.77v.04c.36,2.64.58,4.91.58,4.93.67,6.95.58,8.83.4,10.43,0,.05-.6,4.99-1.62,6.82-.39.7-.92,1.26-.92,1.26-.17.18-.28.29-.44.42-.1.08-.18.14-.26.19-.13.09-.27.19-.43.35,0,0-.19.19-.35.42-.46.65-.49,1.59-.48,1.97v.48s.47-.15.47-.15c.05-.02.16-.05.28-.09,1.37-.47,2.7-1.05,3.94-1.74.08-.04.19-.11.32-.18l.13-.08.04-.15c.1-.41.15-.83.15-1.25-.01-1.36-.58-2.43-1.05-3.08l-.03.02c.62-2.21.95-4.98.97-5.13.18-1.64.28-3.56-.4-10.58h0c-.03-.3-.24-2.43-.56-4.83.39-.73.55-1.36.66-1.83.04-.18.08-.34.12-.47.06-.18.11-.34.16-.48.04-.13.08-.24.11-.34.13.29.3.75.47,1.23.5,1.38,1.25,3.46,2.67,6.29,2.81,5.61,1.98,11.14,1.17,12.8-.37.76-1.6,2.59-2.01,3.07-.2.23-.69.93-.91,1.38-.37.77-.47,1.87-.49,2.46l-.02.49.47-.13c.3-.08.6-.18.89-.3.46-.18.9-.41,1.31-.68l.15-.1v-.18c.02-.23.04-.46.08-.68.33-2.4,1.68-4.03,2.86-5.47.02-.03,2.09-2.52,4.94-4.16h0s.02,0,.03-.02c.06-.03.19-.11.36-.21l.04-.02c.1-.06.38-.22.64-.39,1.06-.65,2.12-1.38,2.13-1.38.8-.55,1.58-1.13,2.33-1.72l.19-.15c.37-.29.7-.56.99-.8,1.26-1.01,1.96-1.57,2.93-2.15.56-.33.87-.47,1.04-.52-.03.18-.15.54-.52,1.29-2.75,5.41-4.05,7.42-4.06,7.44-.46.7-1.55,2.37-2.8,4.02-.02,0-.03.01-.05.02v.03c-.56.75-1.16,1.49-1.74,2.13-.49.53-.97,1-1.11,1.13-1.08,1.04-1.68,1.61-2.55,2.11-.37.21-1.36.77-2.73.94-.38.05-.72.02-1.08-.01-.62-.05-1.26-.1-2.04.23-.02,0-.02,0-.7.36-1.76.9-1.98,1.02-1.97,1.44.01.47.59.72,1.15.91,1.1.36,1.97.34,2.81.33.61-.01,1.25-.02,2,.11.54.09.92.23,1.69.51,2.03.73,5.7,2.87,11.69,8.94l.16.17c1.87,1.88,3.16,3.19,3.99,4.18,1.1,1.31,1,1.62.97,1.67-.02.03-.26.31-2.16-.21-1.34-.37-3.13-1.02-5.02-1.72h-.01c-4.12-1.52-6.18-2.28-8.38-3.77-4.37-2.96-7.43-7.06-7.85-7.74v-.02c-.09-.12-.24-.38-.52-.67-.77-.81-1.84-1.23-2.05-1.31h-.02c-.11-.04-.36-.14-.65-.33-.09-.06-.17-.12-.25-.18l-.17-.14-.2.09c-.9.41-1.83.77-2.77,1.09-.2.07-.41.13-.61.2l-.44.14.24.39c.2.33.46.61.76.83.56.41,1.14.51,1.33.54h.02c.82.14,2.44.96,4.34,2.19,3.53,2.29,5.67,8.39,8.15,15.46.98,2.78,1.55,4.7,1.18,4.99-.11.09-.82.41-3.71-1.74-1.68-1.25-3.24-2.71-3.31-2.78-6.87-6.44-9.44-14.26-8.97-16.04.05-.19.45-1.84-.22-2.7-.04-.06-.21-.26-.47-.48-.14-.11-.29-.21-.44-.3l-.13-.07ZM33.77,68.5c1.39-1.38,2.78-2.79,4.13-4.2,2.24-2.34,4.45-4.76,6.57-7.2l-.45-.39c-2.12,2.43-4.32,4.85-6.55,7.18-1.35,1.41-2.73,2.82-4.12,4.19l.42.43ZM37.83,80.01c3.11,2.09,6.29,4.19,9.43,6.25l.33-.5c-3.14-2.06-6.31-4.16-9.42-6.25-1.99-1.33-4.01-2.69-6-4.05l-.34.5c1.99,1.35,4.01,2.72,6,4.05ZM27.91,64.44l.6.05c.25-2.95.34-5.95.27-8.91-.06-2.74-.27-5.51-.61-8.24l-.6.07c.34,2.7.54,5.46.6,8.18.07,2.94-.02,5.91-.27,8.84ZM28.47,85.43c1.96,3.02,3.84,6.16,5.57,9.32l.53-.29c-1.74-3.17-3.62-6.32-5.59-9.36-1.41-2.18-2.91-4.34-4.44-6.44l-.48.35c1.52,2.09,3.01,4.25,4.42,6.41ZM21.62,67.63l.6-.04c-.16-2.2-.16-4.43,0-6.63.25-3.53.91-7.04,1.95-10.45l-.57-.18c-1.06,3.45-1.72,7-1.97,10.58-.16,2.23-.16,4.48,0,6.71Z"/>
        <path class="cls-1" d="M52.78,37.35c1.93,5.32,2.15,6.61,2.29,8.09.11,1.22.35,3.76-.61,6.56-.85.94-1.77,1.87-2.73,2.78-.41-.21-.8-.45-1.16-.73-.37-.28-.7-.6-1.01-.94.02-.05.05-.09.07-.14.56-1.11.83-1.87.4-2.24-.23-.2-.58-.21-1.55.32-.31-.84-.55-1.71-.72-2.58-.24-1.26-.31-2.39-.27-4.3.07-3.16.4-5.64.55-6.83l.02-.14c.62-4.8,1.06-7.55,1.32-8.21.6.59,1.91,4.21,3.42,8.37ZM51.02,47.16c.31,1.88.67,3.77,1.09,5.63l.58-.13c-.41-1.85-.78-3.73-1.09-5.6-.62-3.82-1.02-7.72-1.18-11.6l-.6.03c.16,3.9.56,7.83,1.19,11.67Z"/>
        <path class="cls-1" d="M44.25,73.98c-1.75-.69-3.31-1.62-3.75-1.88-1.07-.65-2.09-1.4-3.05-2.21.74-.49,1.35-1.07,2.26-1.95.13-.13.58-.56,1.05-1.07,2.82-.43,5.59-.39,8.24.12,2.27.44,4.39,1.4,8.98,3.52,2.41,1.12,4.08,1.9,5.22,2.51,1.52.82,1.67,1.12,1.68,1.2-.01.06-.22.72-4.17,1-2.43.17-5.35.15-7.48.13-4.05-.03-6.57-.42-9-1.37ZM58.62,73.64l.12-.59c-3.47-.72-6.98-1.52-10.42-2.38-2.45-.61-4.93-1.27-7.37-1.96l-.16.58c2.44.69,4.93,1.35,7.38,1.97,3.45.86,6.97,1.67,10.45,2.38Z"/>
      </g>
    </g>
  </g>
</svg>