<?xml version="1.0" encoding="UTF-8"?>
<svg id="Layer_2" data-name="Layer 2" xmlns="http://www.w3.org/2000/svg" viewBox="0 0 28.82 56.69">
  <defs>
    <style>
      .cls-1 {
        fill: #8accff;
      }
    </style>
  </defs>
  <g id="Layer_1-2" data-name="Layer 1">
    <path class="cls-1" d="M26.66,21.24c-2.14-.13-4.46.12-6.65.17-1.12.04-2.08.07-2.76-.54-.8-.73-.74-2.05-.75-3.07-.03-1.78.1-3.42.12-5.26.03-2.9-.13-5.8-.13-8.7,0-.55,0-1.1-.09-1.64-.1-.59-.3-1.42-.7-1.88-.28-.32-.67-.36-1.07-.26-1.64.41-2.29,2.27-3.11,3.55-.63.99-.99,2.09-1.51,3.15-1.14,2.32-2.27,4.65-3.39,6.98-1.83,3.82-3.64,7.64-5.43,11.48-.46,1-1.92,2.9-.73,3.84.65.51,1.93.3,2.67.3,2.28,0,4.54-.27,6.82-.26.48,0,.98.02,1.37.3.58.41.66,1.23.67,1.93.09,3.37-.01,6.71.06,10.08.07,3.24.14,6.49.23,9.74.03,1.03-.15,5.38,1.26,5.56,1.17.15,2.12-2.34,2.62-3.16,1.35-2.23,2.38-4.72,3.39-7.14,2.36-5.67,4.72-11.34,7.08-17.01.63-1.51,1.25-3.01,1.8-4.55.73-2.04.62-3.46-1.77-3.58ZM23.66,27.41c-.42,1.18-.91,2.35-1.39,3.51-.19.46-.38.93-.56,1.4-.59,1.55-1.08,3.13-1.67,4.68-.56,1.5-1.26,2.98-1.87,4.47-.06.14-.41,1.05-.69.75-.34-.36.03-1.46.11-1.88.12-.67.43-1.31.68-1.94.53-1.38,1.1-2.75,1.64-4.13.63-1.62,1.26-3.24,1.88-4.86.31-.79,1.76-3.01.47-3.61-.3-.14-.65-.13-.98-.11-1.97.11-3.95.27-5.92.26-.29,0-.58,0-.86-.07-1.77-.42-1.55-2.37-1.55-3.76,0-1.74,0-3.49,0-5.23,0-.88-.1-1.76-.06-2.65.04-.76.21-1.35.64-1.98.35-.51.32.74.33.92.03.97-.03,1.95-.07,2.92-.08,1.78-.13,3.56-.15,5.34,0,.61-.01,1.25.2,1.82.49,1.34,2.07,1.56,3.31,1.52,1.69-.04,3.48-.23,5.13-.13,1.84.09,1.92,1.19,1.36,2.76Z"/>
  </g>
</svg>