<?xml version="1.0" encoding="UTF-8"?>
<svg id="Layer_2" data-name="Layer 2" xmlns="http://www.w3.org/2000/svg" viewBox="0 0 141.73 142.26">
  <defs>
    <style>
      .cls-1 {
        fill: none;
      }

      .cls-2 {
        fill: #8accff;
      }
    </style>
  </defs>
  <g id="Layer_1-2" data-name="Layer 1">
    <g>
      <path class="cls-2" d="M109.86,28.64c1.13-.3,1.82-.92,2.6-1.74,2.28-2.39,4.7-4.76,6.06-7.6.47-1.06-.26-1.75-1.27-1.72-1.35.03-2.92-.34-4.43-.28-1.99-.23-4.03.64-5.93,1.15-.05.01-.1.03-.15.02-.27-.02-.26-.41-.18-.67.8-2.42,1.12-4.89,1.17-7.43.04-1.75.59-4.01-.55-5.55-.51-.56-1.36-.32-1.97.03-1.26.72-2.29,1.69-3.32,2.69-1.01.98-2.02,1.9-2.96,2.96-.26.29-1.32,1.86-1.71,1.8-.37-.05-.21-.59-.22-.86-.03-.45-.12-.89-.23-1.32-.22-.85-.54-1.67-.86-2.48-.96-2.45-1.59-7.1-4.57-7.64-1.06.09-1.53,1.3-1.87,2.2-.82,2.31-1.46,4.11-1.88,5.59-.24,1.06-.51,2.11-.74,3.17-.02.07-.03.15-.08.21-.05.06-.13.09-.2.06-.06-.03-.08-.1-.1-.16-.46-1.34-1.88-2.02-2.89-2.87-1.05-.89-2.12-1.77-3.24-2.57-.92-.66-1.87-1.26-2.86-1.79-.56-.3-1.96-1.15-2.53-.43-.13.16-.16.45-.19.65-.23,1.57.58,3.17.94,4.66.27,1.1.48,2.21.64,3.33.16,1.17.42,2.31.37,3.51,0,.08-.02.18-.08.22-.03.02-.08.02-.12.02-.31,0-.58-.19-.86-.33-1.13-.56-2.63-.39-3.85-.66-.42-.12-.86-.15-1.29-.28-.48-.14-.97-.28-1.44-.45-.49-.17-.92-.44-1.4-.63-.59-.23-1.17-.47-1.75-.72-.93-.44-2.41-.82-2.94.26-.74,2.05-.33,4.38.66,6.27.61,1.15,1.47,2.19,2.5,2.99.42.33.88.61,1.35.88.23.13,1.22.48,1.19.78-.02.21-.52.26-.69.31-1.16.35-2.52.75-3.49,1.47-1.51,1.11-3.12,2.08-4.52,3.33-.71.63-1.4,1.33-1.87,2.17-.24.43-.52,1.11-.37,1.61.04.13.1.24.19.33.47.5,1,.3,1.58.3.79,0,1.61.09,2.4.17,1.01.11,2.01.27,2.98.55.86.25,1.7.44,2.54.76.15.06.32.15.37.31.04.11,0,.24-.06.34-.18.26-.47.48-.7.69-.83.76-1.63,1.56-2.42,2.36-.75.76-1.5,1.53-2.13,2.39-.49.68-1.21,1.52-1.42,2.34-.24.93-.19,1.53.85,1.62.4.04.81.07,1.21,0,1.2-.2,2.37-.79,3.52-1.18,1.11-.37,2.23-.75,3.34-1.13.85-.29,1.69-.6,2.51-.96.34-.15.53-.08.35.27-.15.3-.36.57-.55.85-.67.95-1.27,1.95-1.81,2.99-.86,1.67-1.64,3.58-1.78,5.47-.33,4.26,5.3.64,6.89-.04.1-.04.23-.08.3,0,.04.05.05.12.04.19-.08,1.1-.81,2.34-1.27,3.33-3.36,7.05-6.75,14.08-9.26,21.51-.36,1.07-.95,2.35-2.08,2.41-.33.02-.65-.08-.96-.19-1.96-.68-4.68-2.05-5.62-4.01-.86-1.78-1.05-4.1-2.98-5.18-3.29-1.61-7.54-.15-10.81.94-2.24.56-4.72,1.06-7.05,1.29-3.68.45-12.02.43-13.89,4.31-.18.88.92,1.56,1.76,1.75,1.83.44,3.07.98,3.95,1.86,1.09.83,2.08,2.94,2.84,4.29,1.79,3.13,3.94,6.03,6.35,8.71,1.54,1.71,3.05,3.67,5.15,4.74,2.01,1.02,4.98.91,7.16.5,2.61-.49,4.74-3.8,5.42-6.18.57-1.98.54-4.16.95-6.19.21-1.02-.07-1.77-.05-2.72,0-.35.23-.72.58-.77.16-.02.33.02.49.07,2.02.62,3.24,2.23,4.73,3.72.59.42,1.24.74,1.75,1.26.74.73.94,1.68.95,2.78-.04,4.38.09,8.83.64,13.15.44,4.41,1.92,7.93,1.64,12.22-.55,7.02-5.16,12.88-9.06,18.54-1.61,2.01-5.1,5.1-3.37,7.62,1.42.55,3.16-.52,4.65-.49,1.69-.46,3.33,1.2,5.02,1.04,3.12-.39,2.62-3.56,3.51-5.79.66-1.64,1.85-2.92,2.71-4.44,1.37-2.43,2.75-5.04,3.37-7.77,1.69-7.42-.43-14.94-1.49-22.48-1.37-5.78-2.08-11.21-1.2-16.95.48-2.55,1.14-5.07,1.95-7.54.59-1.82,1-3.97,2.49-5.3,3.61-3.22,2.58,2.98,3.01,4.56.4,1.5,1.04,3.43,2.03,4.58,2.71,2.94,6.45,1.73,9.94,1.52,2.39-.21,4.64-.22,7.09.65,1.4.5,2.63,1.5,4.09,1.83,1.3.29,3.3-.22,4.37-1.02,1.56-1.16,2.18-3.86,2.23-5.7.1-3.29.25-6.83,0-10.23.02-3.19-1.91-6.27-4.32-8.59-2.97-2.53-7.77-1.32-10.81.58-2.14,1.5-4.06,3.34-6.37,4.59-1.4.76-2.97,1.3-4.57,1.4-1.02.06-1.97-.02-2.97-.19-.38-.06-.83-.2-.92-.57-.15-.67.65-2.16.89-2.79.65-1.78,1.3-3.55,2.15-5.25.46-.92.95-1.82,1.46-2.72.5-.88,1.11-1.77,1.53-2.68.24-.52,1.09,1.13,1.13,1.2.72,1.38,1.29,3,2.26,4.23,1,1.27,2.53,2.89,4.01,1.18.32-.38.54-.83.74-1.29.68-1.5.95-2.9.93-4.54-.02-1.36.04-2.74-.14-4.08-.14-1.07.2-1.89,1.46-1.33,2.71,1.18,5.45,2.53,7.58,4.62,1.08,1.06,4.34,4.59,5.84,2.2.76-1.2.79-2.96.77-4.34-.02-1.52-.27-3.04-.65-4.51-.19-.74-.43-1.47-.7-2.19-.13-.35-.81-1.37-.36-1.67.25-.17,1.09.22,1.36.28.57.14,1.15.25,1.74.34,2.27.36,4.74.53,7.02.21,2.37-.33,1.45-2.96.66-4.38-.96-1.71-1.74-3.4-3.02-4.91-.8-.94-1.73-1.77-2.79-2.4-.54-.32-1.1-.59-1.69-.81-.16-.06-.54-.1-.44-.33.05-.13.3-.23.42-.26ZM98.79,32.89c-.57.49-1.42.67-1.77,1.32-.38.69-.02,1.59-.32,2.31-.34.81-1.37,1.08-2.24,1.01-.86-.07-1.75-.42-2.61-.28-.76.12-1.26.64-1.89,1.05-.96.62-2.26.49-3.26-.05-.22-.12-.44-.26-.6-.45-.18-.21-.3-.46-.42-.71-.32-.69-.38-1.27-1.15-1.42-.48-.09-.99,0-1.47-.02-1.11-.05-1.79-.51-1.91-1.68-.03-.82.46-1.45.26-2.34-.13-.6-.42-1.16-.72-1.69-.17-.3-.36-.6-.44-.94-.18-.82.36-1.65,1.03-2.16.92-.69,2.09-.81,2.55-1.94.35-.86.52-1.78,1.38-2.29.9-.54,1.97-.28,2.92-.09,1.79.45,2.95-2.6,4.68-.64l.1.12c.45.49.4,1.29.89,1.72.29.25.72.21,1.35.07,1.15-.3,2.71.09,3.24,1.36.57,1.35-1.01,2.82-.13,4.07.28.4.68.7.94,1.11.5.8.33,1.95-.39,2.56ZM88.76,72.56c-.05-.23-.14-.43-.29-.6-.41-.43-1.18-.5-1.73-.64-.77-.2-1.52-.47-2.23-.82-.18-.09-.37-.19-.44-.38-.08-.19-.01-.41.13-.56s.33-.23.53-.27c.68-.14,1.32.21,1.94.44s1.32.41,2.01.47c2.35.35,5.53-.94,7.63-1.9.49-.26,1.05-.48,1.59-.63.57-.15,1.42-.2,1.89.22.25.22.37.64.17.91-.31.42-.76.14-1.15.15-.61,0-1.3.36-1.86.58-.34.13-1.65.63-1.53,1.13.11.47,1.92.74,2.31.85,2.12.57,3.06,2.05,3.68,4.05.31,1-.36,1.34-1.09.53-.52-.57-.94-1.23-1.42-1.84-.37-.46-.6-.97-1.18-1.22-1.18-.51-2.55-.84-3.84-.83-.72,0-1.43.07-2.15.11-.5.03-1.07.09-1.34.51-.14.23-.17.51-.18.77-.05.88-.11,1.75-.16,2.63-.02.39-.04,1.1-.45,1.27-.52.22-1.12-.14-1.09-.71.05-.9.11-1.77.22-2.66.06-.45.17-1.06.06-1.57ZM41.84,74.98c.54-.48.97-.34,1.78.04.59.28,1.26.64,1.72,1.1.6.61,1.1,1.5,2.04,1.65.97.15,2.26-.64,3.29-.65.33,0,1.07.01,1.19.41.15.48-.82,1.01-1.18,1.13-.43.15-.88.2-1.32.28-.79.15-1.89.37-2.41,1.06-.35.46-.28,1.34-.53,1.87-.3.64-.86,1.08-1.35,1.56-.95.92-1.88,1.86-2.21,3.17-.12.49-.83,1.81-1.44,1.07-.64-.78.05-2.5.57-3.21.14-.19.29-.37.47-.52.16-.13.33-.24.49-.38.74-.66,1.78-1.9,1.62-2.98-.12-.79-1.3-.73-1.94-.87-.65-.14-1.33-.29-1.87-.68-1.45-1.03-3.02-2.1-4.92-1.65-.69.16-3.44.75-2.6-.62,1.03-.74,2.38-.85,3.61-.84,1.36,0,2.39.43,3.55,1.16.57.36,1.11.77,1.74,1s1.39.24,1.92-.16c.06-.04.11-.09.14-.16.03-.08.01-.17-.02-.25-.19-.49-.78-.65-1.26-.85-.36-.15-.7-.36-1-.61-.43-.37-.48-.71-.07-1.07Z"/>
      <rect class="cls-1" y=".53" width="141.73" height="141.73"/>
    </g>
  </g>
</svg>