<?xml version="1.0" encoding="UTF-8"?>
<svg id="Layer_2" data-name="Layer 2" xmlns="http://www.w3.org/2000/svg" viewBox="0 0 199.94 200.15">
  <defs>
    <style>
      .cls-1 {
        fill: #8accff;
      }
    </style>
  </defs>
  <g id="Layer_1-2" data-name="Layer 1">
    <g>
      <g>
        <path class="cls-1" d="M6.41,106.13c4.92-.65,9.55,3.57,7.87,9.34l-4.01.53c1.77-3,.08-6.57-3.37-6.12-3.61.48-4.11,4.33-1.79,6.79l-3.91.51c-3.22-5.13.48-10.44,5.21-11.06Z"/>
        <path class="cls-1" d="M15.05,117.54l1.03,3.6-5.1,1.46,1.07,3.71,5.09-1.46,1.04,3.61-13.44,3.86-1.04-3.61,5.42-1.56-1.07-3.71-5.42,1.56-1.03-3.6,13.44-3.86Z"/>
        <path class="cls-1" d="M10.38,138.77l-2.46,1.15-1.54-3.3,12.67-5.91,1.94,4.17c.88,1.89,2.03,5.21-1.81,7-3.66,1.71-5.51-.79-6.09-1.75-1.65,1.96-.97,3.45,1.06,2.64l1.27,2.72c-.67.31-1.39.47-2.12.51-1.71.07-3.09-.76-3.79-2.27-.63-1.36-.33-3.02.89-4.96ZM15.27,137.81l.05.11c.52,1.11,1.26,1.38,2.27.9,1.03-.48,1.31-1.25.82-2.32l-.05-.11c-.52-1.11-1.26-1.38-2.28-.9-1.03.48-1.31,1.25-.81,2.32Z"/>
        <path class="cls-1" d="M28.98,147.98c5.62,8.13-6.75,16.4-12.23,8.49s6.6-16.61,12.23-8.49ZM19.89,154.25l.04.07c1.42,2.06,3.13,2.34,5.1.97,1.94-1.34,2.26-3,.8-5.1-1.42-2.06-3.12-2.39-5.06-1.05-1.97,1.37-2.34,3.01-.89,5.11Z"/>
        <path class="cls-1" d="M31.69,163.25l-4.97,4.9-2.63-2.66,9.95-9.82,3.09,3.1c-2.09,3.75-3.25,8.75-3.25,8.75l6.01-5.93,2.63,2.66-9.95,9.82-2.74-2.78s.64-4.54,1.86-8.05Z"/>
        <path class="cls-1" d="M44.49,165.69l2.92,2.33-8.71,10.93-2.92-2.33,8.71-10.93Z"/>
        <path class="cls-1" d="M45.13,175.16c2.67-4.18,8.87-5.01,12.2,0l-2.18,3.4c-1.16-3.28-4.97-4.29-6.84-1.36-1.96,3.07.67,5.93,4.04,5.74l-2.12,3.32c-5.99-.84-7.67-7.09-5.1-11.1Z"/>
        <path class="cls-1" d="M59.49,175.81l3.32,1.59-4.62,9.63,3.59,1.72-1.43,2.98-6.91-3.31,6.05-12.61Z"/>
        <path class="cls-1" d="M67.89,179.71l7.24,2.52-1.08,3.1-3.08-1.07c-.57-.2-.94.03-1.16.66-.22.64-.05,1.06.48,1.25l2.91,1.01-1.08,3.1-2.89-1.01c-.59-.2-.99.04-1.21.68-.24.68-.07,1.12.49,1.32l3.1,1.08-1.08,3.1-7.23-2.52,4.6-13.2Z"/>
        <path class="cls-1" d="M74.35,195.82l.72-3.3c1.13.25,2.24,1.74,3.46,2,.88.19,1.52-.12,1.68-.84.12-.57-.36-1.18-1.46-1.85-1.35-.85-3.22-2.21-2.64-4.89.56-2.58,2.91-3.95,5.68-3.35,2.03.44,3.68,1.82,3.68,1.82l-.72,3.3c-1.09-.24-2.23-1.69-3.42-1.95-.7-.15-1.28.13-1.4.72-.17.8.86,1.33,1.9,2.01,1.93,1.22,2.65,2.77,2.21,4.7-.37,1.72-2.16,4.4-6.01,3.57-1.97-.43-3.66-1.92-3.66-1.92Z"/>
        <path class="cls-1" d="M100.26,185.26c9.88-.16,9.88,14.73.26,14.88-9.62.15-10.14-14.72-.26-14.88ZM100.42,196.31h.08c2.5-.04,3.68-1.3,3.64-3.7-.04-2.36-1.24-3.54-3.8-3.5-2.5.04-3.72,1.26-3.68,3.62.04,2.4,1.2,3.62,3.76,3.58Z"/>
        <path class="cls-1" d="M109.49,185.29l7.73-1.19.5,3.24-3.38.52c-.59.09-.82.47-.72,1.12.1.67.45.96,1.01.88l2.73-.42.5,3.26-2.71.42c-.61.09-.86.48-.75,1.17l.66,4.29-3.44.53-2.12-13.82Z"/>
        <path class="cls-1" d="M126.16,189.11c-1.66-4.67,1.49-10.08,7.48-9.64l1.35,3.81c-3.3-1.1-6.44,1.29-5.27,4.57,1.22,3.43,5.1,3.11,7.02.33l1.32,3.71c-4.34,4.22-10.3,1.71-11.9-2.78Z"/>
        <path class="cls-1" d="M144,186.52l1.27,2.4-3.22,1.71-6.55-12.35,4.06-2.16c1.84-.97,5.1-2.3,7.08,1.45,1.89,3.57-.5,5.54-1.44,6.17,2.04,1.54,3.5.79,2.58-1.19l2.65-1.41c.35.65.54,1.36.61,2.1.16,1.71-.6,3.13-2.07,3.91-1.33.7-3,.48-5-.63ZM142.79,181.68l.11-.06c1.08-.57,1.31-1.33.79-2.32-.53-1.01-1.32-1.25-2.36-.7l-.11.06c-1.08.57-1.31,1.33-.79,2.32.53,1.01,1.32,1.25,2.36.69Z"/>
        <path class="cls-1" d="M147.14,171.8l6.23-4.46,1.91,2.67-2.65,1.9c-.49.35-.52.79-.13,1.33.4.55.84.66,1.29.33l2.5-1.79,1.91,2.67-2.49,1.78c-.5.36-.54.83-.14,1.38.42.59.87.7,1.36.35l2.67-1.91,1.91,2.67-6.23,4.46-8.14-11.37Z"/>
        <path class="cls-1" d="M158.22,163.15l2.81-2.68,13.26,6.67-2.81,2.68-1.22-.61c-.35-.16-.66-.28-1.01-.28-.71.01-1.35.38-1.92.89l-.12.11c-.54.54-.96,1.17-1.04,1.84-.02.35.07.68.21,1.04l.56,1.31-2.79,2.66-5.95-13.64ZM166.4,167.18l-3.5-1.91,1.72,3.61,1.78-1.7Z"/>
        <path class="cls-1" d="M168.29,157.46l-1.72,2.1-2.54-2.08,5.83-7.12,2.54,2.08-1.74,2.12,8.28,6.78-2.37,2.89-8.28-6.78Z"/>
        <path class="cls-1" d="M170.74,148.96l2.09-3.1,11.59,7.82-2.09,3.1-11.59-7.82Z"/>
        <path class="cls-1" d="M173.83,144.74l1.62-3.15c3.28.72,6.44.95,8.95.85-1.36-2.12-3.39-4.56-5.88-6.81l1.62-3.15c6.41,5.6,9.62,12.71,9.62,12.71,0,0-7.65,1.53-15.92-.45Z"/>
        <path class="cls-1" d="M180.48,130.97l1.3-3.51,13.11,4.87-1.3,3.51-13.11-4.87Z"/>
        <path class="cls-1" d="M186.27,124.19l-.7,2.63-3.17-.85,2.38-8.89,3.17.85-.71,2.65,10.33,2.77-.97,3.61-10.33-2.77Z"/>
        <path class="cls-1" d="M193.47,112.88l-8.46,3.79.55-4.32,4.44-1.84-3.86-2.8.55-4.36,7.23,5.93,6.01.76-.46,3.61-6.01-.76Z"/>
      </g>
      <g>
        <path class="cls-1" d="M6.96,76l-.71,2.63-3.17-.86,2.4-8.88,3.17.86-.71,2.64,10.33,2.79-.98,3.61-10.33-2.79Z"/>
        <path class="cls-1" d="M6.47,65.79l1.46-3.44,4.88,2.07,1.51-3.55-4.88-2.07,1.47-3.46,12.87,5.46-1.47,3.46-5.19-2.2-1.51,3.55,5.19,2.2-1.46,3.44-12.87-5.46Z"/>
        <path class="cls-1" d="M16.18,45.39c5.35-8.31,17.73-.04,12.52,8.04-5.21,8.09-17.87.26-12.52-8.04ZM25.45,51.39l.04-.07c1.35-2.1.96-3.78-1.06-5.08-1.98-1.28-3.63-.94-5.02,1.22-1.35,2.1-1.02,3.79.97,5.07,2.02,1.3,3.68,1.01,5.06-1.14Z"/>
        <path class="cls-1" d="M32.82,45.58l-2.53-2.24c.77-.87,2.61-1.1,3.43-2.03.6-.67.64-1.38.09-1.88-.43-.38-1.21-.27-2.33.37-1.4.76-3.51,1.72-5.56-.09-1.97-1.75-2.02-4.47-.14-6.59,1.38-1.56,3.39-2.31,3.39-2.31l2.53,2.24c-.74.84-2.57,1.12-3.38,2.03-.48.54-.51,1.18-.06,1.58.61.54,1.58-.09,2.68-.67,2-1.08,3.71-.96,5.18.37,1.32,1.17,2.78,4.04.16,6.99-1.34,1.51-3.46,2.25-3.46,2.25Z"/>
        <path class="cls-1" d="M31.44,27.52l5.73-5.08,2.18,2.46-2.44,2.16c-.45.4-.43.84,0,1.33.45.51.9.56,1.32.19l2.3-2.04,2.18,2.45-2.29,2.03c-.46.41-.45.88,0,1.39.48.54.94.61,1.39.21l2.46-2.18,2.18,2.46-5.73,5.08-9.28-10.46Z"/>
        <path class="cls-1" d="M52.38,28.41l-7.06-12.06,3.24-1.9c4.3-2.52,7.75-1.85,10.06,2.11,2.35,4.02,1.23,7.48-2.93,9.92l-3.31,1.94ZM55.46,18.46c-1.22-2.09-2.94-2.52-5.18-1.21l3.75,6.4c2.24-1.31,2.68-3.05,1.43-5.19Z"/>
        <path class="cls-1" d="M61.71,7.74l3.61-1.43,9.8,11.15-3.61,1.43-.9-1.02c-.26-.28-.5-.51-.83-.64-.66-.25-1.4-.16-2.11.1l-.15.06c-.7.3-1.33.72-1.65,1.32-.15.32-.19.66-.19,1.04l.03,1.43-3.59,1.42-.41-14.87ZM67.79,14.54l-2.53-3.08.25,3.99,2.29-.91Z"/>
        <path class="cls-1" d="M79.24,13.79l.58,2.66-3.55.78-3.01-13.65,4.49-.99c2.03-.45,5.53-.85,6.44,3.29.87,3.95-1.97,5.2-3.03,5.56,1.55,2.03,3.16,1.7,2.81-.46l2.93-.65c.16.72.16,1.46.03,2.18-.3,1.69-1.42,2.85-3.04,3.21-1.46.32-3.02-.34-4.65-1.95ZM79.37,8.81l.12-.03c1.19-.26,1.62-.93,1.38-2.02-.25-1.11-.94-1.56-2.09-1.3l-.12.03c-1.19.26-1.62.93-1.38,2.02.25,1.11.94,1.56,2.09,1.3Z"/>
        <path class="cls-1" d="M88.2,9.92l-.28-3.97,3.31-.24.29,4.07c.08,1.06.65,1.54,1.71,1.46,1.1-.08,1.58-.61,1.51-1.65l-.66-9.33,3.67-.26.66,9.31c.12,1.66.01,4.95-4.83,5.29-4.75.34-5.25-3.01-5.37-4.69Z"/>
        <path class="cls-1" d="M101.62.04l7.65.42-.18,3.28-3.26-.18c-.6-.03-.9.29-.93.95-.04.68.24,1.04.8,1.07l3.08.17-.18,3.28-3.06-.17c-.62-.03-.94.31-.98.99-.04.72.24,1.1.84,1.13l3.28.18-.18,3.28-7.65-.42L101.62.04Z"/>
        <path class="cls-1" d="M112.96.88l7.55,1.29-.55,3.23-3.21-.55c-.59-.1-.92.19-1.04.84-.11.67.12,1.06.68,1.15l3.04.52-.55,3.23-3.02-.52c-.61-.1-.97.2-1.08.87-.12.71.11,1.12.71,1.22l3.23.55-.55,3.23-7.55-1.29,2.36-13.78Z"/>
        <path class="cls-1" d="M124.09,3.03l3.54,1.02-2.97,10.26,3.82,1.11-.92,3.17-7.36-2.13,3.88-13.43Z"/>
        <path class="cls-1" d="M133.98,6.13l3.48,1.36-5.07,13.02-3.48-1.35,5.07-13.02Z"/>
        <path class="cls-1" d="M141.13,16.83l-3.29,6.16-3.3-1.76,6.59-12.33,3.87,2.05c-.88,4.2-.51,9.32-.51,9.32l3.98-7.44,3.3,1.76-6.59,12.33-3.44-1.84s-.74-4.52-.61-8.24Z"/>
        <path class="cls-1" d="M155.92,33.67c-2.85-.32-6.19-2.8-6.5-6.39-.7-6.22,6.67-10.69,11.64-6.82,1.61,1.25,2.66,3.09,2.72,5.32l-3.61.43c.21-2.7-3.66-5.22-6.22-1.94-1.87,2.4-.49,5.12,2.28,5.76.16-.53.37-1.06.62-1.54l-1.69-1.32,1.86-2.38,5.94,4.64-1.84,2.39-1.83-1.43c-.52.66-.64,2.93.17,3.55l-1.86,2.38c-.85-.66-1.45-1.62-1.68-2.66Z"/>
        <path class="cls-1" d="M162.54,41.41l10.86-8.81,2.37,2.92c3.14,3.87,3,7.38-.56,10.27-3.62,2.94-7.21,2.35-10.25-1.39l-2.42-2.98ZM172.84,42.94c1.88-1.53,2.05-3.29.41-5.3l-5.76,4.68c1.64,2.02,3.43,2.19,5.35.63Z"/>
        <path class="cls-1" d="M184.39,47.51l1.96,3.34-9.52,11.38-1.96-3.35.87-1.04c.24-.3.43-.58.5-.92.15-.69-.06-1.4-.42-2.07l-.08-.14c-.4-.65-.91-1.2-1.56-1.43-.34-.1-.68-.09-1.06-.03l-1.41.25-1.95-3.33,14.63-2.67ZM178.6,54.54l2.66-2.97-3.9.85,1.24,2.12Z"/>
        <path class="cls-1" d="M183.53,62.94l5.5-7.46,1.65,4.03-2.97,3.79,4.74.54,1.67,4.07-9.22-1.61-5.61,2.3-1.38-3.37,5.61-2.3Z"/>
        <path class="cls-1" d="M181.81,73.38l3.27-.85c.29,1.12-.54,2.78-.23,3.98.23.87.79,1.3,1.51,1.12.56-.15.9-.85,1-2.14.15-1.59.53-3.88,3.18-4.56,2.56-.66,4.84.81,5.55,3.56.52,2.01.03,4.1.03,4.1l-3.27.85c-.28-1.08.51-2.75.2-3.94-.18-.7-.69-1.08-1.27-.93-.79.21-.8,1.36-.94,2.6-.22,2.27-1.28,3.61-3.2,4.09-1.7.44-4.9.05-5.89-3.77-.5-1.96.07-4.13.07-4.13Z"/>
      </g>
      <g>
        <path class="cls-1" d="M81.65,89.97c-1.32,1.09-.62,3.36-.72,4.9,0,1.46,1.85.34,1.59-.75-.59-2.53,0-3.99,2.4-4.92.54-.22,1.12-.37,1.43.29.44.68.76,2.6,1.68,2.08.82-.46,2.2-3.01,1.2-3.83l-.1-.08c-.73-.3-1.65.09-2.47.2-1.72.43-3.61.96-5.01,2.11Z"/>
        <path class="cls-1" d="M162.57,80.29c-.34-.56-.61-1.16-.77-1.81-.17-.69-.19-1.42-.41-2.09-.92-2.77-4-4.52-6.69-4.96-2.73-.45-5.57.51-7.52-2.07-.69-.91-.55-1.76-1.65-2.48-2.77-1.82-6.26-1.76-9.45-1.88-3.16-.12-5.25-1.12-7.6-3.29-3.04-2.81-6.89-5.63-9.18-9.12-3.15-2.83-6.09-6.29-9.69-8.37l-.16-.08c-2.28-.87-6.01-2.73-8.18-1.01-2.7,2.82-2.86,12.89-4.02,18.03-.13.51-.34,1.18-.74,1.44-.54.43-1.47-.1-1.98-.51-3.88-2.46-15.85-18.58-19.6-10.41-1.37,4.91-.91,10.56-2.4,15.5-1.22,10.95.61,10.29-8.1,18.54-5.83,5.66-12.56,10.76-19.47,15.06-4.48,2.66-11.64,4.72-11.94,10.72-.04.79.68,3.51,1.3,3.98.13.1.28.18.44.18,1.56-.03.51-4.15.88-4.97.41-.9,1.5-1.23,2.46-1.45.88-.21,1.76-.41,2.64-.62.93-.22,2.07-.38,2.7.35.59.69.33,1.74-.03,2.58-.98,2.24-2.81,4.34-5.38,4.54-3.33.26-2.49,1.52-1.93,4.13.62,2.85,1.49,5.99,3.45,8.3,1.93,2.39,5.81,1.48,7.95,3.89.25.28.47.59.79.78.39.23.86.25,1.31.24,2.76-.06,5.28-1.45,8.12-.89,1.57.31,3.57.99,5.31.79,1.1-.07,2.07-.5,3.17-.59,1.94-.16,4.64,1.08,6.78,1.47,1.82.44,3.17-.97,4.76-1.51,1.12-.29,2.32.84,3.72.57,1.41-.22,2.67-1.37,4.09-1.48,1.4-.12,2.31,1.1,3.47,1.68,1.55.84,3.05-.28,4.56-.44,1.29-.09,2.65.22,3.96.4,2.32.38,3.91.66,5.92.1,1.37-.39,3.16-1.27,4.11.3.87,1.21,1.24,2.99,1.71,4.34.47,1.2,2.21,2.1,3.55,2.61,1.82.69,3.06,1.55,3.17,3.67.13,2.46-.2,5.05-.09,7.6.05,1.19.18,2.52,1.1,3.26,1.13.9,2.76.42,4.15.07,2.39-.6,4.91-.69,7.34-.26,1.17.2,2.32.53,3.5.61,3.96.27,5.66-3.92,8.19-6.15,2.89-2.52,6.38-.99,9.61-2.27s3.52-3.98,4.31-7.15c.54-2.17,1.35-4.65,3.45-5.44.64-.24,1.35-.29,1.99-.53,3.39-1.28,3.32-4.94,3.09-7.96-.19-2.55-1.05-5.89-.19-8.33.7-2,2.95-3.76,3.88-5.79,1.3-3.34-1.4-7.37-2.31-10.54-.97-3.36-1.8-7.67.83-10.53.35-.38.79-.67,1.14-1.05,1.46-1.63.68-4.26-.61-6.04-.9-1.23-2.03-2.36-2.8-3.65ZM109.31,69.84c-.86-.99.16-2.17,1.22-2.53,1.34-.45,5.45-.08,6.14-1.78.23-.56-.22-1.12-.65-1.54-1.6-1.54-3.07-3.41-4.24-5.31-.54-.88-1.53-2.3-1.38-3.41.15-1.13,1.24-1.96,2.28-.92,2.42,2.41,4.36,5.6,6.18,8.47.46.72.92,1.45,1.17,2.26.85,2.69-2.18,3.71-4.17,4.28-.28.08-.63.2-1.02.33-1.79.59-4.43,1.42-5.54.13ZM122.88,120.05s.14.05.14.05c1.03.33,1.29,2.44,1.7,3.16.97,1.67,2.07,3.38,2.63,5.24.29.96.11,1.81-.33,2.36-.61.76-1.72.95-2.81.13-1.96-1.47-3.1-4.3-3.32-6.66-.09-.99.07-5.01,1.99-4.28ZM86.34,118.98c-.07.69-.31,1.34-.54,1.99-.15.41-.3.83-.55,1.19-.82,1.19-2.88,1.61-3.7.3-.65-1.04.05-2.98.25-4.07.22-1.25.82-2.66,1.45-3.96.29-.6.59-1.17.86-1.7.21-.41.44-.81.8-1.1.35-.29.85-.44,1.28-.27.47.18.73.7.84,1.19.34,1.61-.52,3.23-.63,4.88-.03.52,0,1.04-.05,1.56ZM136.52,108.09s.14.07.14.07c.79.36,1.47,1.02,2.11,1.58.29.25.59.63.94.77.45.18.92-.02,1.38.06.18.03.34.12.5.2,1.17.64,4.07,3.18,2.31,4.43-.14.1-.32.19-.52.28-.59.24-1.25.18-1.88.05-1.2-.25-2.35-.76-3.34-1.48-.44-.32-.84-.68-1.33-.92-.59-.3-1.27-.4-1.82-.76-1.22-.79-1.54-3.2-.66-4.34.56-.72,1.6-.2,2.15.06ZM100.36,105.27c1.08,1.38,2.15,2.77,3.23,4.15.18.24.37.48.45.77.15.55-.14,1.12-.18,1.69-.02.29.02.59-.04.87-.14.69-.88,1.14-1.59,1.18-.75.04-1.4-.23-1.96-.7-1.67-1.4-2.56-4.56-3.35-6.24-.5-1.06.14-2.97,1.47-3.05.82-.05,1.46.67,1.96,1.32ZM133.7,90.7c1.89.42,5.41,1.34,7.06,2.14.72.34,2.06,1.12,2.4,2.02.14.39.1.8-.26,1.21-.44.5-1.14.7-1.79.84-.44.1-.9.18-1.35.13-.85-.08-1.59-.6-2.28-1.1-1.22-.87-2.43-1.74-3.65-2.61-1.26-.9-2.9-3.17-.12-2.63ZM112.73,90.33c.51.15,1.05.1,1.58.14,2.21.17,4.18,2.43,5.07,4.32.39.82.35,1.73-.71,2.18-2.23.94-6.29-2.66-7.61-4.16-.53-.6-1.31-1.79-1.07-2.64.56-1.97,1.65-.15,2.74.17ZM89.36,93.57c-1.19,1.23-2.62,2.25-4.17,2.96-1.32.6-3.44,1.36-4.88.92-.47-.14-.76-.36-.93-.64-.28-.44-.28-1.02-.32-1.67-.15-3.61-.91-5.66,2.6-7.48,2.32-1.21,6.55-4.31,9.06-1.88,2.39,2.32.52,5.87-1.35,7.79ZM149.2,81.43c.14.02.28.05.41.07,2.08-.23,4.06.38,5.73,1.49.03.02.07.04.1.07.5.34,1.01.74,1.15,1.32.16.67-.32,1.42-.99,1.55-.26.05-.53.02-.79,0-2.59-.3-5.17-.59-7.76-.89-.61-.07-1.39-.31-1.4-.93,0-.26.15-.5.31-.71.99-1.37,1.46-2.28,3.25-1.96ZM130.61,78.37c-1.15.65-2.58.05-3.93.05-1.2.01-2.34.52-3.53.64-1.1.11-3.02-.44-2.75-1.9.25-1.36,3.36-1.9,4.49-2.35.43-.17.86-.34,1.32-.38.5-.05,1.01.05,1.5.16.72.15,1.43.3,2.15.45,1.7.35,2.54,2.32.75,3.34Z"/>
      </g>
    </g>
  </g>
</svg>