<?xml version="1.0" encoding="UTF-8"?>
<svg id="Layer_2" data-name="Layer 2" xmlns="http://www.w3.org/2000/svg" viewBox="0 0 149.58 161.98">
  <defs>
    <style>
      .cls-1 {
        fill: #3d6be3;
      }
    </style>
  </defs>
  <g id="Layer_1-2" data-name="Layer 1">
    <g>
      <path class="cls-1" d="M116.37,64.66c-2.76-1.36-5.01-1.95-5.1-1.98-.53-.14-1.07-.28-1.59-.41.16.52.57,1.37.95,2.15.57,1.17,1.13,2.02,1.83,2.75.47.49.65.67.88.77.76.32,1.77.04,3.01-.83.05-.04.1-.07.15-.11.1-.11.18-.19.23-.24.08-.09.12-.13.19-.21l.06-.07c.21-.25.64-.76.65-.96-.03-.25-.93-.69-1.26-.86Z"/>
      <path class="cls-1" d="M111.66,67.93c-.78-.82-1.4-1.75-2.02-3.03-.63-1.3-1.07-2.22-1.12-2.89-.34-.07-.64-.11-.84-.12.06.19.16.48.36.93.72,1.69,1.04,2.46,1.79,3.38.69.85,1.39,1.72,2.3,2.19-.14-.13-.29-.28-.47-.47Z"/>
      <path class="cls-1" d="M30.1,95.51c-.25-.76-.53-1.62-.52-2.94.02-1.75.52-3.09,1.43-5.07-1.51-1.77-2.52-3.64-3.02-5.59-.71,1.11-1.35,2.27-1.9,3.47-.84,1.85-1.43,3.14-1.54,4.36.01.37.04.75.04,1.13.16.96.54,1.34,1.22,2.03.55.56,1.23,1.25,2,2.48,1.12,1.79,1.74,3.63,2.09,5.3.35-.84.55-1.7.6-2.56.06-1.14-.16-1.82-.41-2.6Z"/>
      <path class="cls-1" d="M149.33,47.78c.74-1.95-.35-4.19-.93-5.4-.32-.66-1.07-2.21-2.64-3.42-.44-.34-.81-.55-1.18-.75-.64-.36-1.24-.71-1.76-1.51-.74-1.13-.71-2.24-.69-3.21,0-.18,0-.35,0-.53-.02-3.91-2.6-8.31-5.51-9.4-.38-.14-.57-.16-.82-.18-.35-.03-.75-.07-1.43-.39-1.43-.66-2.04-1.56-2.68-2.52-.18-.26-.35-.52-.55-.79h0s0,0,0,0c-.32-.43-.7-.88-1.23-1.36-.85-.77-1.36-.98-1.9-1.21-.11-.04-.21-.09-.32-.14-.7-.12-1.2.03-2.44.43-.84.27-1.99.63-3.66,1.04-.36.09-.81.17-1.33.26-.78.13-1.74.3-2.79.57-1.63.41-2.52.38-3.56.34-.75-.03-1.6-.06-2.94.09-2.15.24-3.13.67-4,1.05-.91.4-1.77.77-3.5.81-1.87.03-3-.35-4-.7-1-.34-1.86-.64-3.39-.54-1.28.08-1.81.35-2.62.77-.71.37-1.6.82-3.19,1.26-2.97.82-5.01.65-6.81.5-1.86-.15-3.33-.27-5.44.69-1.05.48-1.46.86-1.93,1.3-.57.52-1.21,1.12-2.83,1.8-1.78.76-3.01.9-4.09,1.03-1.1.13-2.05.24-3.47,1-.91.49-1.45.94-1.96,1.38-.69.59-1.41,1.2-2.88,1.76-1.75.67-3.18.75-4.22.81l-.4.02c-3.6.24-6.34,1.68-10.14,3.66-3.74,1.96-7.13,4.54-10.1,7.68-.01.7.07.92.12,1.08.14.38.29.65.45.94.24.41.51.88.67,1.64.17.77.18,1.58.03,2.41.44-.16.94-.34,1.5-.54,1.69-.61,2.88-1.05,3.76-1.37,2.01-.74,2.43-.9,3.49-1.13,1.25-.28,3.84-.74,7.06-.71h.18c1.82.02,3.4.04,5.38.58,2.22.6,3.84,1.55,6.52,3.11,1.45.85,2.28,1.4,2.95,1.85.8.54,1.33.89,2.48,1.41,1.49.68,3.03,1.38,5.1,1.58,2.76.27,4.91-.54,6.64-1.19,1.22-.46,2.11-.92,3.23-1.51,1.2-.63,2.7-1.42,5.11-2.46.66-.29,1.24-.52,2.05-.73,1.56-.4,2.65-.35,3.71-.3.59.03,1.15.05,1.78,0,.62-.06.81-.14,1.64-.5.54-.24,1.36-.59,2.67-1.1,4.32-1.66,6.49-2.49,8.5-2.25,1.18.14,1.8.47,2.41.79.6.31,1.21.64,2.58.87,1.28.22,1.95.14,2.59.06.67-.08,1.37-.16,2.52.08,1.79.37,2.68,1.09,3.54,1.79.77.62,1.5,1.21,2.99,1.67,1.62.5,3.06.5,5.67.51.43,0,.84,0,1.22-.01.3,0,.6,0,.89,0,1.36,0,2.61.11,4.02.79.75.37,1.6.78,2.23,1.63,1.81,2.46.11,6.16-2.25,11.28-.28.61-.65,1.3-1.26,2.44-.23.43-.49.92-.8,1.49-.33.61-.61,1.15-.86,1.62-.14.27-.28.52-.41.76.16-.12.32-.25.48-.38.66-.51,1.48-1.15,2.49-1.92.86-.66,1.72-1.32,2.58-1.99l1.48-1.15c2.9-2.24,3.28-2.56,3.4-3.12.11-.49.02-.94-.07-1.42-.13-.73-.3-1.63.34-2.53.35-.49.71-.65.98-.77.19-.08.28-.13.43-.31.63-.76.54-2.13.25-3.16-.13-.48-.27-.69-.41-.91-.18-.29-.39-.62-.44-1.23-.11-1.16.44-1.89.91-2.54.29-.39.58-.79.79-1.33ZM46.39,46.51c-.57-.15-1.02-.24-1.42-.31-.81-.15-1.45-.28-2.24-.79-1.19-.77-1.78-1.74-2.06-2.41-.28-.67-.41-1.38-.39-2.12l1.1.03c-.02.59.09,1.15.31,1.67.22.53.69,1.3,1.65,1.92.61.4,1.08.48,1.85.63.42.08.89.17,1.5.33l-.28,1.07ZM55.96,45.73c-.15-.03-.31-.06-.46-.09-.44-.08-.95-.18-1.52-.38-2.67-.92-5.54-3.58-5.63-6.69-.02-.8.15-1.61.51-2.42l1.01.45c-.29.65-.43,1.3-.41,1.94.07,2.53,2.54,4.87,4.89,5.68.5.17.94.25,1.36.33.17.03.33.06.49.1l-.23,1.08ZM84.98,48.32c-.57,0-1.12-.06-1.67-.19-3.48-.83-5.26-3.99-5.59-4.61-.43-.83-.58-1.46-.75-2.19-.2-.85-.43-1.81-1.18-3.47-.84-1.85-1.35-2.34-1.98-2.61-.66-.27-1.35-.21-1.91-.06.41.52.81,1.1,1.17,1.76,1.29,2.37,1.49,4.62,1.58,5.58.16,1.84-.06,2.98-.23,3.89-.18.91-.29,1.5.06,2.43.67,1.76,2.33,2.82,3.6,3.4l-.46,1c-1.46-.66-3.36-1.9-4.17-4.01-.42-1.09-.33-1.87-.17-2.72-.46-.49-.97-.92-1.53-1.27-1.52-.95-2.93-1.06-5.5-1.26l-.44-.03c-4.38-.34-6.19-.5-7-1.06-2.57-1.74-2.94-5.08-2.99-6.06-.05-.99.07-1.99.36-2.96l1.06.32c-.26.85-.36,1.71-.32,2.58.03.61.31,3.72,2.51,5.21.6.41,2.94.59,6.47.87l.44.03c2.65.2,4.24.33,6,1.42.42.26.81.56,1.18.89.09-.67.14-1.48.04-2.57-.09-.97-.27-2.98-1.45-5.15-1.56-2.87-3.96-4.27-4.74-4.74-.97-.57-2.01-1.02-3.1-1.33l.3-1.06c1.18.34,2.31.82,3.36,1.44.56.33,1.88,1.11,3.2,2.49,1.13-.41,2.21-.43,3.12-.05,1.02.42,1.68,1.25,2.56,3.17.8,1.75,1.05,2.81,1.25,3.67.16.69.29,1.23.66,1.94.28.55,1.85,3.33,4.86,4.05,1.99.47,3.81-.17,4.99-.79l.52.97c-1.36.72-2.75,1.09-4.09,1.09ZM93.84,46.53c-.25-.36-.62-.62-2.06-1.1-1.44-.48-2.25-.63-2.9-.75-.54-.1-1.01-.19-1.6-.43-2.53-1.03-3.79-3.42-4.33-4.44-1-1.9-1.15-3.52-1.37-5.98-.15-1.68-.15-3.38,0-5.05l1.1.1c-.15,1.6-.15,3.24,0,4.85.22,2.41.35,3.87,1.24,5.57.53,1,1.62,3.06,3.78,3.94.49.2.86.27,1.38.36.69.13,1.54.28,3.05.79,1.56.52,2.17.88,2.61,1.51l-.9.63ZM100.75,45.34c-1.16-1.2-1.75-2.38-2.14-3.16-.07-.14-.14-.27-.2-.39-1.07-2.03-2.76-3.18-3.48-3.67-1.52-1.04-2.73-1.13-3.89-1.21-1.17-.09-2.39-.17-3.64-1.28-.7-.62-.88-1.1-1.17-1.88-.26-.7-.66-1.76-1.69-3.62-1.37-2.48-2.02-3.6-3.07-4.35-.54-.39-1.17-.68-1.87-.89l.3-1.06c.82.24,1.57.59,2.21,1.05,1.3.93,2.04,2.27,3.39,4.72,1.07,1.93,1.48,3.04,1.76,3.77.28.73.38,1.01.87,1.45.97.86,1.86.93,2.99,1.01,1.25.09,2.67.19,4.43,1.4.72.49,2.63,1.8,3.83,4.07.07.12.13.26.21.41.11.21.23.45.36.7.07-2.45-.45-4.22-1.57-5.25-.46-.42-.82-.55-1.43-.76-.65-.23-1.54-.55-2.94-1.36-2.19-1.28-3.77-2.2-4.62-4.1-.22-.49-.26-.76-.32-1.18-.07-.47-.17-1.17-.6-2.75-.32-1.17-.53-1.79-.8-2.29l.97-.52c.31.58.55,1.26.89,2.52.45,1.64.56,2.38.63,2.87.06.39.08.54.24.89.7,1.57,2.08,2.38,4.17,3.6,1.31.77,2.11,1.05,2.75,1.28.66.23,1.19.42,1.81.99,1.59,1.46,2.2,4.02,1.83,7.58.18.22.37.44.58.67l-.79.76ZM111.83,42.9c-.34-1.54-1.5-2.45-2-2.85-.99-.77-1.77-.94-2.53-1.1-.8-.17-1.64-.35-2.48-1.22-.94-.97-1.21-2.11-1.72-4.17-.28-1.13-.31-1.76-.34-2.26-.03-.48-.05-.83-.26-1.48-.24-.73-.98-2.95-3.09-4.01-1.6-.81-3.25-.58-4.09-.37l-.26-1.07c.99-.24,2.93-.51,4.85.46,2.52,1.27,3.37,3.81,3.64,4.65.26.79.29,1.26.32,1.76.03.48.06,1.03.31,2.06.49,2,.71,2.91,1.44,3.67.61.63,1.15.74,1.91.91.8.17,1.79.38,2.98,1.31.59.46,1.98,1.55,2.4,3.48l-1.08.23ZM135.96,49.59c-2.75,0-4.53-.65-5.42-1.97-.6-.89-.57-1.78-.54-2.64.03-.87.06-1.78-.47-2.94-.1-.22-1.01-2.15-2.98-3.17-1.1-.57-1.86-.51-2.83-.43-.88.07-1.89.15-3.31-.21-4.07-1.04-6.39-4.39-6.65-4.76-.7-1.06-.97-1.87-1.22-2.66-.26-.82-.51-1.59-1.3-2.6-.92-1.19-2.15-2.15-3.65-2.87l.48-1c1.65.79,3.01,1.86,4.04,3.18.91,1.17,1.2,2.07,1.48,2.95.24.75.47,1.45,1.09,2.38.09.14,2.27,3.35,6,4.31,1.25.32,2.11.25,2.95.18,1.05-.09,2.04-.17,3.42.55,2.25,1.17,3.29,3.29,3.48,3.7.63,1.4.59,2.53.56,3.43-.03.81-.04,1.39.35,1.98.72,1.07,2.43,1.56,5.09,1.48l.04,1.1c-.21,0-.42.01-.63.01ZM138.86,46.22c-2.17-.16-3.68-.84-4.47-2.03-.42-.62-.47-1.14-.54-1.8-.03-.32-.07-.69-.16-1.16-.55-2.97-1.6-4.55-2.39-5.35-.72-.73-1.26-.88-1.89-1.06-.68-.2-1.46-.42-2.42-1.33-1.24-1.17-1.72-2.55-2.68-5.3-.48-1.37-.73-2.34-.93-3.11-.29-1.12-.45-1.74-1.05-2.51-.82-1.05-2.02-1.82-3.57-2.29l.32-1.06c1.77.53,3.16,1.43,4.12,2.66.74.94.94,1.73,1.25,2.91.2.76.44,1.7.9,3.02.91,2.58,1.36,3.88,2.4,4.87.77.73,1.32.89,1.97,1.07.68.19,1.46.42,2.37,1.35.9.91,2.09,2.68,2.69,5.92.09.51.14.92.17,1.24.07.6.1.91.36,1.3.6.89,1.82,1.41,3.64,1.54l-.08,1.1ZM144.92,61.99l-1.04-.36c.32-.93.52-1.61.45-2.53-.04-.59-.11-1.48-.79-2.11l.75-.81c1,.92,1.09,2.17,1.14,2.84.09,1.22-.23,2.15-.51,2.97ZM147.24,46.73c-.14-.44-.38-1.17-.77-2.03.05.59.05,1.16-.02,1.73-.05.41-.12.74-.19,1.09-.11.52-.22,1.05-.29,1.98-.03.47-.1,1.73.07,3.34.08.77.19,1.45.37,2.28l-1.08.24c-.19-.88-.31-1.6-.39-2.41-.17-1.7-.11-3.04-.07-3.53.07-1,.2-1.6.31-2.12.07-.34.13-.63.17-.99.18-1.53-.14-3.19-.96-4.93-.67-.8-1.21-1.26-1.74-1.71-.67-.57-1.37-1.16-2.23-2.39-.12-.17-.23-.34-.34-.52.03.24.06.49.1.73.14.79.28,1.35.44,1.93.2.75.4,1.52.6,2.82.35,2.29.52,3.44.2,4.81-.23.98-.69,1.92-1.36,2.81l-.88-.67c.58-.76.97-1.57,1.16-2.39.28-1.17.11-2.24-.21-4.39-.19-1.25-.38-1.99-.57-2.71-.15-.58-.31-1.19-.46-2.03-.32-1.85-.39-3.79-.21-5.78l1.1.1c-.06.69-.08,1.38-.08,2.06.39.92.87,1.79,1.43,2.6.78,1.11,1.36,1.61,2.04,2.18.58.49,1.17.99,1.92,1.91,1.92,2.33,2.67,4.68,2.99,5.68l-1.05.33Z"/>
      <path class="cls-1" d="M36.93,117.76c.29-.14.55-.26.8-.54.65-.72.51-1.68.24-3.18-.28-1.51-.62-3.38.33-5.29.51-1.02,1.12-1.52,1.61-1.92.51-.42.85-.69,1.09-1.52.2-.68.16-1.17.11-1.73-.06-.71-.12-1.52.33-2.61.41-.99.9-1.4,1.34-1.77.34-.28.61-.51.89-1.05.51-.96.41-1.69.29-2.63-.12-.91-.26-1.94.22-3.19.53-1.38,1.39-1.92,2.23-2.43.64-.39,1.3-.8,2.04-1.66,2.05-2.39,2.24-5.53,2.41-8.31.13-2.09-.09-3.35-.29-4.46-.24-1.38-.45-2.57.19-4.55.17-.52.35-.96.53-1.39.39-.94.7-1.68.66-2.86-.02-.59-.11-1.06-.2-1.51-.16-.78-.32-1.58.16-2.48.43-.81,1.04-1.07,1.58-1.29.43-.18.83-.35,1.32-.83,1.25-1.23,1.51-3.01,1.55-3.35.06-.57.02-.96-.02-1.35-.06-.57-.13-1.15.26-1.85.45-.8,1.29-1.35,2.48-1.65,0-.27,0-.46.03-.65.09-.92.33-1.82.7-2.7-.52-.21-1.04-.39-1.61-.54-1.78-.48-3.19-.5-4.97-.52h-.19c-3.05-.04-5.5.4-6.68.67-.95.21-1.31.34-3.28,1.07-.88.32-2.07.76-3.77,1.38-2.15.78-3.36,1.2-4.12,1.46-1.02.35-1.23.43-1.87.71-3.16,1.4-5.21,2.81-7.02,4.05-2.6,1.78-3.85,2.68-4.06,3.62-.14.64-.03,1.24.1,1.88.18.94.38,2.01-.36,3.09-.4.58-.84.81-1.16.97-.27.14-.42.22-.6.51-.27.44-.25.81-.21,1.36.04.58.09,1.3-.29,2.12-.38.82-.89,1.1-1.55,1.46-.38.21-.84.47-1.47.92-1.24.9-2.94,2.13-3.71,4.04-.24.6-.32,1.09-.4,1.57-.13.77-.26,1.58-1.1,2.21-.61.46-1.16.5-1.65.54-.29.02-.59.04-.97.15-1.89.53-3,2.34-3.37,2.93-.3.49-.36.71-.66,1.79-.18.65-.45,1.62-.9,3.11-.51,1.65-.73,2.25-.83,2.54q-.08.21-.11.38c-.27,1.56,0,2.53.29,3.55.32,1.12.64,2.28.25,4.05-.12.55-.27.99-.4,1.33-.22.63-.29.87-.17,1.27.15.49.48.78.83,1.1.45.4,1.01.91.99,1.77-.02.9-.65,1.38-1.32,1.88-.38.29-.86.64-1.4,1.17C1.04,109.61-.04,110.67,0,111.68c.05,1.1,1.35,2.16,2.58,2.55,1.56.49,3.52,0,4.13-1.01.25-.42.21-.84.13-1.48-.09-.74-.21-1.67.47-2.58.77-1.04,2.15-1.48,3.17-1.45.69.02,1.2.25,1.48.66.5.75-.03,1.45-.5,2.07-.47.62-1.05,1.39-1.31,2.56-.13.57-.46,2.53.54,3.86.53.7,1.19.91,1.96,1.14.88.27,1.88.58,2.5,1.71.56,1.03.37,1.94.21,2.68-.14.65-.2,1.01.04,1.41.61,1,2.7,1.42,4.4.88,1.57-.51,2.87-1.89,3.15-3.36.24-1.26-.28-2.34-.78-3.39-.54-1.13-1.1-2.3-.32-3.39.43-.6.98-.76,1.52-.91.5-.14,1.12-.32,1.97-.93.4-.29.7-.56.94-.78.41-.38.93-.86,1.59-.51.77.41.54,1.24.29,2.11-.24.84-.56,2-.54,3.42.01.62.04,2.27.98,3.85.48.8.89,1.08,1.41,1.44.55.38,1.18.81,1.87,1.82,1.05,1.55,1.34,3.13,1.78,5.54.15.81.23,1.47.29,1.99.14,1.16.21,1.55.61,2.01.66.74,1.61,1.05,1.9.98.03-.22-.08-.82-.17-1.3-.2-1.07-.47-2.53-.42-4.52.04-1.41.21-2.22.35-2.87.15-.7.25-1.12.07-2.05-.14-.73-.36-1.32-.55-1.84-.35-.95-.69-1.85-.22-2.91.37-.82.94-1.1,1.4-1.32ZM33.18,56.29l1.07.27c-.37,1.48-.49,2.97-.37,4.42.29,3.33,1.84,5.83,3.63,8.73.41.66.75,1.16,1.08,1.64.6.88,1.12,1.63,1.83,3.04.43.86,1.48,3.04,1.9,4.76.75,3.11-.2,6.24-1.41,8.67.03-.03.06-.06.1-.09,2.18-1.94,3.9-3.47,4.8-5.77.81-2.06.73-4.12.68-5.34-.04-.99-.15-1.64-.26-2.21-.06-.34-.12-.66-.14-.99-.45-2.88-1.42-5.42-2.9-7.53-.68-.97-1.25-1.56-1.76-2.08-.74-.75-1.37-1.41-1.91-2.78-.97-2.47-.9-5.48.17-8.06l1.02.43c-.97,2.32-1.03,5.02-.16,7.23.46,1.16.96,1.69,1.67,2.41.54.55,1.15,1.18,1.88,2.22,1.11,1.58,1.94,3.37,2.51,5.35.21-.45.46-.78.7-1.1.37-.49.71-.95.96-1.91.27-1.06.17-1.72.06-2.41-.13-.79-.26-1.61.16-2.88.33-1.03,1.01-1.91,2.35-3.67,1.12-1.46,1.8-2.35,2.98-3.29l.69.86c-1.08.86-1.72,1.7-2.79,3.1-1.27,1.66-1.91,2.49-2.18,3.34-.33,1.02-.23,1.64-.12,2.36.12.74.25,1.58-.08,2.86-.3,1.17-.75,1.77-1.15,2.29-.38.51-.71.94-.91,1.91-.1.49-.12.87-.09,1.24.04.26.08.53.11.79,0,.03.01.07.02.1.1.58.23,1.3.27,2.37.05,1.23.14,3.51-.76,5.79-1,2.55-2.9,4.23-5.09,6.19-.61.55-1.11.94-1.5,1.26-.82.66-1.24.99-1.68,1.8-.58,1.05-.65,1.89-.84,4.13l-.02.29c-.44,5.2-.6,7.03-.88,7.61-.73,1.53-1.7,2.17-2.82,2.9-.52.34-1.06.69-1.66,1.18l-.7-.86c.64-.53,1.23-.91,1.75-1.25,1.06-.69,1.83-1.2,2.43-2.45.2-.43.44-3.28.77-7.23l.02-.28c.19-2.28.28-3.32.97-4.57.21-.38.42-.68.65-.94,1.57-2.22,4.02-6.54,3.01-10.72-.39-1.61-1.4-3.7-1.81-4.52-.68-1.34-1.18-2.07-1.76-2.92-.34-.49-.68-1-1.11-1.68-1.87-3.01-3.48-5.62-3.79-9.21-.14-1.58,0-3.19.39-4.79ZM7.91,106.15c-.5-.84-1.37-1.17-2.29-1.52l.26-.69-.07.17.19-.52-.13.34.13-.34c1.01.38,2.16.81,2.85,1.99l-.95.56ZM28.9,109.89c.28-1.45.41-2.94.38-4.42-.01-.77-.04-1.89-.21-3.19h0s0-.01,0-.02c-.25-1.88-.83-4.14-2.18-6.3-.46-.74-.89-1.27-1.28-1.69-.68.1-1.9.42-2.78,1.45-.62.73-1.27,2.06-.81,4.27.28,1.35.93,2.07,1.68,2.91.48.54.99,1.1,1.45,1.87.87,1.46,1.3,3.22,1.28,5.23h-1.1c.02-1.82-.35-3.39-1.12-4.67-.41-.68-.87-1.2-1.32-1.7-.69-.77-1.4-1.57-1.8-2.86-1.37.38-3.47,1.26-5.14,3.26-1.57,1.88-2,3.88-2.16,4.63-.28,1.32-.47,3.35.26,5.57.37,1.15.7,2.13,1.48,2.49.42.19.78.09,1.34-.08.57-.18,1.28-.4,2.08-.02,1.33.65,1.88,2.49,1.74,3.97-.11,1.09-.6,1.91-.99,2.41l-.86-.68c.3-.38.68-1.01.76-1.83.1-1.07-.29-2.47-1.12-2.87-.38-.18-.71-.1-1.27.08-.58.18-1.3.4-2.12.03-1.22-.55-1.66-1.87-2.07-3.15-.8-2.45-.6-4.69-.29-6.14.05-.25.13-.61.26-1.06.04-1.34-.03-5.55-2.47-7.67-.68-.58-2.18-1.55-3.88-2.28-.61-.26-1.25-.5-1.89-.71l.33-1.05c.68.22,1.35.47,1.99.74,1.57.68,3.25,1.67,4.16,2.46,1.84,1.59,2.51,4.14,2.74,6.11.3-.54.67-1.1,1.13-1.65.98-1.17,2.09-1.99,3.14-2.57-.06-1.48-.47-2.73-1.22-3.72-.19-.25-.54-.71-3.15-2.34-1.38-.86-2.28-1.36-2.93-1.72-1.03-.57-1.46-.8-1.97-1.52-.98-1.38-1.08-2.83-1.23-5.02-.04-.6-.05-1.21-.04-1.81l1.1.03c-.02.56,0,1.13.04,1.7.14,2.08.23,3.34,1.03,4.46.37.51.63.66,1.6,1.2.67.37,1.58.87,2.98,1.75,2.57,1.6,3.11,2.17,3.45,2.61.81,1.06,1.28,2.36,1.41,3.86.57-.24,1.09-.41,1.54-.54-.08-.53-.1-1.01-.08-1.46-.32-1.65-.86-3.23-1.63-4.68-.49-.93-.87-1.44-1.31-2.03-.43-.58-.93-1.24-1.57-2.39-1.22-2.19-1.88-4.14-2.22-5.38-.25-.95-.68-2.53-.75-4.6l1.1-.04c.07,1.94.47,3.45.71,4.35.45,1.68,1.2,3.5,2.11,5.13.6,1.08,1.05,1.68,1.49,2.27.45.6.88,1.17,1.4,2.18.5.94.9,1.93,1.22,2.96.2-.4.43-.73.66-1,.83-.97,1.86-1.44,2.72-1.67-.57-.6-1.02-1.2-1.2-2.32-.07-.45-.08-.88-.05-1.31-.09-2.14-.37-4.25-.87-6.28-.53-2.17-.8-3.26-1.59-4.59-.38-.64-.73-1.1-1.07-1.54-.5-.65-.97-1.26-1.34-2.26-.09-.23-.16-.46-.22-.69l1.06-.29c.05.19.12.39.19.59.32.84.7,1.34,1.19,1.97.34.45.73.95,1.14,1.65.87,1.48,1.15,2.62,1.71,4.89.28,1.15.5,2.33.65,3.52.22-.52.47-1.08.75-1.69.37-2.09.47-4.17.29-6.19-.1-1.15-.41-2.61-1.02-5.5-.77-3.63-1.09-4.45-1.21-4.76-.18-.45-.38-.9-.59-1.33l.99-.49c.23.47.44.94.63,1.42.14.36.48,1.21,1.26,4.93.62,2.94.93,4.41,1.04,5.63.1,1.17.11,2.35.04,3.55.38-.65.79-1.27,1.22-1.89-.19-1.68.06-3.31.54-6.44.16-1.05.35-2.12.56-3.18l1.08.22c-.21,1.04-.39,2.1-.55,3.14-.48,3.15-.73,4.74-.51,6.34.27,2.06,1.19,4.06,2.7,5.95.02-.05.04-.09.06-.14.62-1.31,1.05-1.99,1.43-2.59.4-.63.75-1.18,1.24-2.33.97-2.31,1.56-3.71,1.3-5.48-.34-2.29-1.9-3.89-2.94-4.95-.74-.76-1.18-1.03-1.65-1.31-.48-.29-.98-.6-1.75-1.36-.77-.77-3.13-3.12-3.56-6.72l1.1-.13c.39,3.22,2.46,5.29,3.24,6.07.68.68,1.1.93,1.54,1.2.51.31,1.03.63,1.86,1.48,1.07,1.09,2.86,2.92,3.24,5.56.3,2.07-.37,3.66-1.38,6.07-.52,1.24-.91,1.85-1.32,2.5-.38.6-.78,1.23-1.37,2.47-1.26,2.66-1.89,4-1.91,5.85-.01,1.14.22,1.84.46,2.59.27.82.54,1.66.47,3.01-.08,1.48-.56,2.93-1.41,4.33.14,1.19.16,2.22.17,2.95.03,1.55-.11,3.12-.4,4.64l-1.08-.21ZM31.18,118.35c-.24.47-.45.96-.62,1.47l-1.05-.35c.19-.56.42-1.1.68-1.62.46-.88,1.84-3.57,5.01-4.99.38-.17.77-.31,1.17-.43l.32,1.06c-.35.11-.7.23-1.03.38-2.82,1.26-4.07,3.69-4.48,4.49Z"/>
      <path class="cls-1" d="M56.12,30.98l.42-.02c.98-.05,2.21-.12,3.72-.7,1.21-.46,1.73-.91,2.4-1.48.55-.47,1.18-1,2.25-1.57,1.7-.91,2.9-1.05,4.06-1.19,1.02-.12,2.07-.24,3.64-.91,1.35-.58,1.84-1.02,2.35-1.5.51-.47,1.08-1,2.37-1.59,2.5-1.14,4.33-.99,6.26-.83,1.74.14,3.55.29,6.23-.45,1.42-.39,2.19-.79,2.87-1.14.59-.31,1.14-.58,1.91-.76-.3.03-.6.05-.91.08-3.29.31-6.69.63-11.08,1.37-4.22.71-7.26,1.21-11.16,2.45-2.27.72-3.27,1.18-4.64,1.83-1.24.58-2.78,1.3-5.76,2.42-2.27.86-3.51,1.25-5.76,1.95-1.52.48-3.41,1.07-6.37,2.04-3.07,1.01-6.16,2.05-9.19,3.11-.42.37-.79.61-1.11.82-.48.31-.83.53-1.24,1.12-.51.74-.72,2.1-1.1,4.86-.02.18-.05.34-.07.5,2.74-2.63,5.79-4.84,9.1-6.57,3.83-2,6.85-3.59,10.8-3.85Z"/>
      <path class="cls-1" d="M70.44,54.98c-.18-.08-.36-.16-.54-.24-1.09-.5-1.69-.87-2.38-1.32-.08.64-.28,1.18-.64,1.61-.2.24-.4.39-.55.51-.18.14-.21.17-.23.23-.02.1.08.26.38.68.18.25.4.55.65.95.31.49.49.84.64,1.12.21.41.33.63.67.99.2.21.74.76.91.74.11-.04.28-.31.49-1.42.09-.45.08-.73.08-1.06,0-.28,0-.6.05-1.04.08-.59.23-1.17.47-1.75Z"/>
      <path class="cls-1" d="M54.79,27.37c2.23-.7,3.45-1.09,5.68-1.92,2.92-1.1,4.43-1.81,5.64-2.37,1.38-.65,2.47-1.15,4.85-1.9,4.01-1.27,7.1-1.78,11.38-2.5,4.45-.74,7.88-1.07,11.2-1.38,4.52-.43,8.04-.63,11.86-.83,6.54-.34,13.29-.64,20.09-.88.08-.02.16-.05.24-.07,0,0,0,0,0,0-.59-.65-.94-1.21-1.25-1.7-.41-.65-.74-1.17-1.53-1.78-.57-.44-.96-.61-1.51-.84-.29-.13-.61-.26-.98-.45-2.05-1.05-3.2-2.42-4.12-3.52-.27-.32-.52-.63-.79-.91-1.59-1.7-4.29-2.48-9.66-4.03-2.14-.62-5.15-1.05-11.16-1.9-2.85-.41-4.56-.6-6.47.1-.34.13-.61.25-.87.37-.49.23-1.01.46-1.87.63-1.46.28-2.42.07-3.36-.13-.6-.13-1.22-.26-2.03-.27-.82-.02-1.1.1-1.82.37-.65.24-1.53.58-3.2.98-1.87.45-2.86.54-3.66.61-.78.07-1.34.12-2.47.47-1.15.36-1.7.67-2.91,1.35-.67.38-1.51.85-2.73,1.48-2.1,1.09-3.19,1.56-4.06,1.94-.67.29-1.2.51-1.97.94-3.93,2.17-6.24,5.08-8.69,8.17-3.3,4.16-4.95,6.25-5.76,9.45-.12.47-.22.94-.31,1.41-.24,1.17-.49,2.36-1.03,3.49,2.29-.78,4.58-1.56,6.88-2.31,2.96-.97,4.86-1.57,6.39-2.05ZM115,6.07c.93,1.13,1.98,2.41,2.25,4.26.17,1.19,0,2.41-.52,3.63l-1.01-.43c.44-1.03.59-2.06.45-3.04-.22-1.54-1.09-2.6-2.01-3.72l.85-.7ZM102.12,1.91c.77.41,1.46.79,2.07,1.14,2.31,1.32,3.27,2,4.04,3.21.94,1.47,1.33,3.14,1.11,4.7-.22,1.51-.92,2.5-1.82,3.75l-.9-.64c.84-1.17,1.44-2.02,1.62-3.26.25-1.76-.49-3.23-.95-3.96-.61-.96-1.33-1.52-3.66-2.84-.6-.35-1.29-.72-2.04-1.13l.52-.97ZM93.36,1.18c1.9.9,3.53,1.67,4.51,3.54.99,1.88.7,3.77.61,4.39-.35,2.28-1.62,3.77-2.74,5.09-.53.62-1.1,1.21-1.71,1.75l-.74-.82c.57-.52,1.11-1.07,1.61-1.65,1.08-1.26,2.19-2.56,2.49-4.53.09-.59.33-2.15-.49-3.72-.81-1.54-2.22-2.21-4.01-3.06l.47-1ZM90.07,6.34c-.39-1.05-1.34-1.84-2.65-2.93-.25-.2-.49-.39-.72-.57l.66-.88c.25.18.5.39.76.6,1.39,1.15,2.49,2.06,2.98,3.39.33.9.54,2.31-.84,5.3-.92,1.99-2.17,3.88-3.72,5.63l-.82-.73c1.48-1.67,2.67-3.47,3.55-5.36,1.21-2.62,1.07-3.76.81-4.46ZM78.89,2.16c.37.2.62.26,1,.35.18.04.37.09.6.15,1.23.35,3.08.87,3.84,2.26.58,1.06.29,2.18-.02,3.36-.33,1.25-.79,2.01-2.06,4.01-.69,1.08-1.18,1.84-1.56,2.42-.61.94-.91,1.41-1.32,2.1l-.95-.56c.42-.72.75-1.22,1.35-2.14.38-.58.86-1.33,1.55-2.41,1.23-1.93,1.64-2.59,1.93-3.69.27-1.05.49-1.87.12-2.55-.54-.99-2.12-1.43-3.17-1.73-.22-.06-.4-.1-.56-.14-.42-.1-.78-.18-1.27-.46l.53-.97ZM70.97,4.1c.14.39.42.59.94.92.19.12.39.25.59.4,1.25.93,2.2,2.38,2.68,4.07.48,1.69.16,3.14,0,3.84-.27,1.26-.72,1.99-1.14,2.71-.37.61-.72,1.19-1,2.14l-1.06-.31c.32-1.08.74-1.78,1.11-2.4.42-.7.78-1.3,1.01-2.38.14-.66.41-1.88,0-3.31-.41-1.46-1.22-2.7-2.27-3.49-.18-.14-.36-.25-.53-.36-.54-.35-1.1-.71-1.38-1.47l1.04-.37ZM66.65,5.52c.09.32.32.48.8.78.37.23.82.51,1.26.98,1.32,1.39,1.44,3.25,1.53,4.6.07,1.15-.06,2.47-.92,5.15-.39,1.22-.85,2.45-1.37,3.65l-1.01-.44c.5-1.16.95-2.36,1.33-3.55.86-2.67.92-3.86.87-4.74-.08-1.32-.18-2.82-1.22-3.92-.35-.36-.7-.59-1.05-.8-.53-.33-1.08-.68-1.28-1.43l1.07-.28ZM62.36,9.18c.08.26.19.48.27.65.34.72.71,1.06,1.09,1.42.3.28.61.57.88,1.01.77,1.29.49,2.79.06,4.47-.49,1.97-1.16,4.05-1.98,6.17l-1.03-.4c.81-2.09,1.46-4.12,1.94-6.04.44-1.75.57-2.79.06-3.64-.19-.31-.42-.52-.68-.77-.42-.39-.9-.84-1.34-1.75-.09-.18-.22-.45-.32-.78l1.05-.34ZM56.43,10.33l1.09.16c-.15,1.08.16,1.93.31,2.34.28.74.58,1.11.94,1.54.27.32.54.65.81,1.14.76,1.39.7,2.68.62,4.48-.07,1.4-.32,2.81-.76,4.21l-1.05-.33c.41-1.3.65-2.62.71-3.92.08-1.74.13-2.79-.48-3.9-.22-.39-.45-.67-.69-.96-.39-.46-.79-.94-1.13-1.86-.18-.5-.57-1.53-.37-2.88ZM51.35,25.02c.26-1.47.35-3.03.54-6.4.04-.64.06-1.15.08-1.58.07-1.41.09-1.89.27-2.76l1.08.22c-.16.8-.18,1.22-.25,2.6-.02.43-.05.94-.08,1.58-.18,3.17-.28,4.92-.56,6.53-.04.23-.09.49-.15.78l-1.08-.23c.06-.27.1-.52.14-.74ZM46.45,27.76c.43-1.54.81-3.11,1.12-4.67.32-1.61.59-3.26.78-4.9l1.1.13c-.2,1.66-.47,3.34-.8,4.98-.32,1.59-.7,3.19-1.14,4.75l-1.06-.3Z"/>
      <path class="cls-1" d="M99.99,19.28c.96.33,1.87.64,3.43.61,1.4-.03,2.02-.3,2.87-.67.93-.41,2.08-.91,4.48-1.18,1.47-.16,2.38-.13,3.19-.1.98.04,1.69.06,3.09-.29.15-.04.29-.07.43-.1-4.06.17-8.08.36-12.01.56-2.83.15-5.49.3-8.52.54,1.29.05,2.18.34,3.04.64Z"/>
      <path class="cls-1" d="M113.07,89.06s-.07-.03-.13-.03c-.24,0-.69.19-1.03.49-.2.18-.37.41-.47.62.47.46.71.92.88,1.29.28-.28.61-.73.75-1.29.18-.74.06-1.03,0-1.08Z"/>
      <path class="cls-1" d="M135.06,68.99c.25-.47.54-1,.86-1.61.31-.57.57-1.07.8-1.5.6-1.11.96-1.78,1.22-2.35,2.27-4.92,3.6-8.02,2.42-9.61-.38-.52-.96-.8-1.62-1.12-1.35-.66-2.53-.64-4.16-.61-.4,0-.81,0-1.26.01-2.68-.01-4.3-.02-6.15-.59-1.8-.55-2.73-1.3-3.55-1.97-.8-.65-1.44-1.16-2.84-1.45-.89-.18-1.38-.13-2-.06-.73.08-1.55.18-3.06-.08-1.63-.28-2.43-.7-3.07-1.04-.56-.29-.96-.5-1.83-.61-1.61-.19-3.65.59-7.71,2.15-1.28.49-2.04.82-2.6,1.07-.9.39-1.27.55-2.16.63-.74.07-1.39.04-2.01,0-.98-.05-1.91-.09-3.22.25-.69.18-1.18.38-1.8.65-2.36,1.02-3.82,1.79-5,2.4-1.18.62-2.11,1.11-3.42,1.6-1.79.67-4.24,1.59-7.38,1.29-1.59-.15-2.91-.57-4.07-1.04-.19.48-.32.97-.39,1.46-.05.36-.05.62-.04.89,0,.35,0,.72-.1,1.27-.15.82-.39,2.05-1.3,2.29-.1.03-.19.04-.28.04-.67,0-1.23-.59-1.7-1.08-.45-.47-.63-.81-.85-1.24-.14-.28-.31-.59-.59-1.04-.24-.38-.45-.67-.61-.9-.41-.57-.71-.99-.56-1.59.11-.45.4-.67.63-.85.13-.1.25-.19.37-.33.3-.37.44-.91.41-1.62-.53-.35-1.19-.76-2.12-1.3-1.23-.72-2.18-1.27-3.02-1.7-.29.71-.48,1.43-.55,2.17-.05.46-.05,1.08.41,4.05.18,1.16.3,1.87.39,2.35.13.77.18,1.03.17,1.63-.01.93-.12,1.51-.22,1.98-.1.5-.16.84-.07,1.46.07.44.25,1.62,1.16,2.58.97,1.02,2.45,1.52,3.78,1.27.4-.08,1.47-.28,2.09-1.17.67-.97.6-2.39-.16-3.63l1.41-.87c1.11,1.8,1.16,3.94.11,5.44-1,1.45-2.61,1.75-3.14,1.85-.34.06-.68.1-1.02.1-1.58,0-3.15-.67-4.27-1.85-1.27-1.34-1.5-2.88-1.59-3.47-.14-.91-.03-1.46.08-2.03.09-.44.18-.9.19-1.68,0-.44-.02-.58-.15-1.33-.09-.49-.21-1.21-.39-2.39-.14-.9-.24-1.6-.3-2.15-.59.18-.99.44-1.18.78-.12.22-.11.38-.06.86.05.41.11.97.02,1.72-.07.62-.43,2.76-2.03,4.34-.72.71-1.37.98-1.84,1.18-.46.19-.61.27-.76.54-.19.36-.14.66,0,1.37.09.47.21,1.05.23,1.79.05,1.54-.36,2.52-.79,3.55-.17.4-.34.81-.49,1.27-.52,1.59-.37,2.45-.14,3.75.2,1.14.45,2.56.31,4.85-.19,3.04-.4,6.48-2.81,9.29-.9,1.05-1.75,1.57-2.42,1.99-.77.47-1.23.76-1.56,1.62-.33.86-.24,1.57-.13,2.39.14,1.03.29,2.19-.46,3.61-.44.83-.91,1.22-1.29,1.54-.36.3-.62.52-.88,1.14-.3.72-.26,1.22-.21,1.85.05.64.11,1.36-.17,2.32-.38,1.33-1.05,1.87-1.63,2.34-.44.36-.82.67-1.17,1.37-.7,1.42-.44,2.86-.18,4.26.29,1.58.59,3.22-.63,4.58-.47.53-.96.76-1.32.94-.38.18-.49.25-.61.5-.19.42-.06.81.26,1.66.21.56.46,1.25.63,2.12.23,1.26.09,1.93-.08,2.7-.13.61-.28,1.3-.32,2.55-.05,1.81.21,3.18.39,4.17.14.78.28,1.48.14,2.06,4.49,3.55,9.44,6.38,14.71,8.41,14.02,5.38,19.07,4.05,20.83,1.98.63-.74.67-1.34.69-3.1.02-1.58.05-3.97.77-7.79.65-3.43,1.67-6.91,2.93-10.05,1.59-3.95,3.72-7.72,6.33-11.24-1.95-1.11-4.14-2.75-6.53-4.88-4.07-3.64-6.76-6.05-9.11-10.25-2.65-4.74-3.29-8.9-3.81-12.24-.71-4.6-.71-9.31,0-14l1.64.25c-.69,4.52-.69,9.06,0,13.5.5,3.21,1.11,7.2,3.62,11.68,2.21,3.96,4.68,6.17,8.76,9.82.37.33.73.64,1.08.94.1.09.21.17.31.26.28.24.56.47.84.69.08.06.16.13.23.19.33.26.66.51.99.75.09.06.17.13.26.19.26.19.52.37.78.55.07.05.15.1.22.15,1.39.93,2.67,1.61,3.82,2.03,2.72.98,5.07,1.83,7.21.85,2.35-1.08,4.94-4.53,5.92-6.61l.04-.09c.25-.54.75-1.6,1.83-2.32-.83-.53-1.31-1.17-1.89-2.02-1.45-2.12-2.33-3.4-3.1-5.38-.4-1.03-.73-2.15-.45-3.43.08-.38.27-1.26,1.05-1.76.85-.54,1.81-.27,2.45-.1,1.27.35,2.12.62,2.79.83.34.11.63.2.89.27,1.15.33,2.41.55,3.62.75l.17.03c1.01.17,1.96.34,2.73,1.11.36-.4.84-.73,1.42-.97,0,0,.02,0,.03,0-.49-.42-.86-.89-1.11-1.41-.05-.1-.09-.2-.14-.31-.15-.35-.29-.67-.63-1.01-.34-.34-.64-.43-1.01-.53-.45-.13-1-.29-1.45-.91-.64-.87-.68-2.17-.11-3.67.28-.74.75-1.42,1.35-1.97l1.12,1.22c-.42.38-.73.83-.92,1.33-.35.93-.39,1.71-.11,2.1.11.15.21.19.58.3.23.07.51.15.81.3.19-.33.43-.61.64-.79.6-.53,1.77-1.1,2.55-.51.37.28.74.89.41,2.22-.21.86-.74,1.58-1.27,2.01.66.8,1.93,1.42,3.8,1.86.86.12,1.88.22,2.51.07,2.61-.63,4.23-7.02,5.1-10.46l.12-.49c.3-1.23.62-2.49,1.34-3.6h0c.95-1.65,1.87-3.34,2.73-5.02.88-1.72,1.73-3.49,2.52-5.25l1.51.68c-.81,1.79-1.67,3.59-2.56,5.33-.31.61-.64,1.21-.96,1.82.22-.11.47-.26.83-.52,1.77-1.32,2.82-3.26,4.14-5.73.26-.53.62-1.21,1.1-2.1ZM63.78,57.27c-.11-1.03-.4-1.57-.73-2.18-.3-.56-.64-1.2-.84-2.24-.09-.46-.14-.94-.14-1.43h1.1c0,.41.05.82.12,1.22.17.88.44,1.39.73,1.93.35.66.72,1.34.86,2.58.11,1,.08,2.47.07,2.89-.02.58-.05,1.06-.07,1.4l-1.1-.08c.02-.33.05-.79.07-1.35.01-.41.04-1.81-.07-2.74ZM66.97,64.96c-.29.19-.62.28-.94.28-.52,0-1.02-.23-1.32-.67-.25-.36-.33-.8-.23-1.25.11-.48.41-.89.82-1.12.39-.22.87-.28,1.31-.15.41.12.75.38.95.74.4.73.14,1.7-.59,2.17ZM120.14,67.72c-1.02,1.18-2.34,1.45-2.86,1.52l-.07-.57c-.18.19-.31.34-.4.44-.08.09-.13.15-.17.18-.72.77-2,1.12-3.1,1.12-.22,0-.44-.01-.64-.04-2.09-.29-3.36-1.86-4.38-3.12-.89-1.1-1.29-2.05-2.02-3.78-.56-1.31-.74-2-.35-2.58.72-1.08,2.23-.68,5.53.18.25.07,2.56.68,5.42,2.09.86.42,2.04,1,2.17,2.16.05.4-.06.78-.24,1.12.21-.3.59-.94.56-1.72-.06-1.29-1.24-2.2-1.95-2.75-1.04-.8-3.13-1.48-5.88-1.9-1.82-.28-3.69-.42-5.57-.4v-1.65c1.95-.02,3.91.13,5.82.42,3.11.48,5.34,1.23,6.63,2.22.87.67,2.5,1.92,2.59,3.99.07,1.58-.82,2.74-1.1,3.05ZM126.72,72.18c-.5,2.19-1.33,4.32-2.46,6.33l-.96-.54c1.08-1.92,1.87-3.95,2.35-6.04.41-1.79.84-3.64.41-5.96-.25-1.33-.73-2.61-1.44-3.8l.95-.56c.78,1.31,1.31,2.71,1.58,4.17.47,2.54,0,4.6-.42,6.41Z"/>
      <path class="cls-1" d="M85.89,120.46c2.58,2.87,4.86,5.21,6.79,6.93,3.14,2.82,7.04,6.32,12.76,8.38.11.04,1.4.51,3.17,1.26-.57-1.37-.81-2.73-.71-4.08.09-1.19.43-2.12.7-2.86.33-.9.44-1.28.24-1.59-.53-.86-2.65-1.09-4.19-1.26-.59-.06-1.02-.07-1.37-.08-.68-.01-1.23-.02-1.89-.47-.84-.57-1.11-1.32-1.33-1.92-.19-.51-.34-.92-.79-1.29-.3-.25-.46-.27-.86-.32-.44-.05-1.05-.12-1.97-.53-1.12-.49-1.65-1.03-2.13-1.5-.44-.44-.83-.83-1.74-1.25-.57-.27-.96-.37-1.31-.47-.33-.09-.65-.18-.98-.37-.07-.04-.31-.2-.53-.4-1.04-.92-1.25-2.5-1.25-3.66-.54-.18-1.09-.38-1.64-.58-.34-.12-.69-.27-1.05-.43-.87,1.16-1.69,2.35-2.45,3.56.83.98,1.67,1.96,2.52,2.91ZM100.78,130.49c.33-.99.88-1.9,1.64-2.69l.8.76c-.64.67-1.11,1.44-1.38,2.27-.1.31-.18.64-.24.99l-1.09-.17c.06-.4.16-.8.28-1.16ZM94.6,126.34c.38-.77.96-1.45,1.7-2.01l.66.88c-.61.46-1.07,1-1.38,1.62-.2.4-.28.73-.36,1.14l-1.08-.2c.09-.49.2-.92.46-1.42ZM89.91,122.08c.27-.61.76-1.12,1.46-1.5l.53.97c-.48.26-.81.59-.98.97-.11.26-.13.48-.11.8l-1.1.05c-.02-.36-.01-.79.21-1.29Z"/>
      <path class="cls-1" d="M109.57,96.22c-.38-.42-.9-.52-1.87-.69l-.18-.03c-1.26-.21-2.56-.44-3.8-.79-.28-.08-.58-.17-.93-.29-.66-.21-1.49-.47-2.74-.81-.32-.09-.62-.16-.84-.16-.11,0-.21.02-.28.06-.19.12-.28.51-.32.71-.18.81.01,1.55.38,2.48.67,1.72,1.37,2.79,2.92,5.04.56.82.89,1.24,1.48,1.6.98.59,1.42.57,1.58.52.1-.09.17-.2.22-.33.04-.15.07-.34.1-.57.1-.72.24-1.7,1.08-2.42.02-.01.03-.03.05-.05,0,0,0,0,.01,0,0,0,0,0,0,0,0,0,0,0,.01,0,.49-.41.92-.48,1.26-.53.13-.02.26-.04.4-.09.17-.06.38-.15.64-.3.35-.21.98-.62,1.28-1.21.18-.52.04-1.05-.02-1.28-.05-.17-.15-.56-.41-.85ZM105.88,100.23c-.44-.38-.91-.75-1.39-1.12-.69-.53-1.19-.87-1.71-1.22-.32-.22-.65-.45-1.04-.72-.81-.58-1.62-1.21-2.4-1.88l.72-.84c.76.65,1.55,1.26,2.33,1.83.38.27.7.49,1.02.71.54.37,1.04.71,1.76,1.26.5.38.98.77,1.43,1.16l-.72.84Z"/>
      <polygon class="cls-1" points="5.81 104.12 5.87 103.95 6 103.6 5.81 104.12"/>
      <path class="cls-1" d="M125.27,150.45c-.69-.84-1.17-1.1-1.96-1.52-.84-.45-1.99-1.07-3.85-2.63-1.44-1.22-2.1-1.99-2.63-2.61-.28-.33-.51-.59-.8-.85,0,0-.46-.39-1.01-.73-4.23-2.63-10.1-4.76-10.15-4.78-6.02-2.17-10.23-5.95-13.3-8.71-1.97-1.77-4.29-4.14-6.91-7.06-.74-.82-1.47-1.67-2.19-2.52-1.13,1.95-2.11,3.97-2.94,6.04-.52,1.29-.99,2.64-1.41,4.02,1.83,2.04,3.64,4.15,5.41,6.28,1.5,1.82,2.74,3.37,3.73,4.61,3.27,4.11,4.37,5.5,6.71,6.11,1.11.29,1.88.25,2.76.21,1.17-.06,2.49-.13,4.59.64,1.94.71,3.24,1.65,5.83,3.54,2.34,1.7,4.15,3.29,6.25,5.14,1.07.94,1.83,1.63,2.42,2.16,1.24,1.13,1.66,1.51,2.7,2.15,2,1.24,4.06,2.51,5.88,1.85,1.46-.53,2.16-2.03,2.42-2.59,1.34-2.88.24-6.58-1.54-8.75ZM85.48,127.34c-.31.56-.48,1.37-.5,2.42-.03,1.3.18,2.61.61,3.91l-1.04.35c-.48-1.42-.7-2.86-.67-4.29.03-1.23.24-2.22.64-2.93.34-.61.8-1.14,1.37-1.59l.68.87c-.45.35-.82.77-1.08,1.25ZM92.15,134.85c-.92,2.2-.82,4.28-.58,5.65l-1.09.19c-.26-1.51-.37-3.82.65-6.26.41-.98.96-1.89,1.64-2.71l.85.7c-.61.74-1.11,1.56-1.47,2.44ZM101.07,139.2c-.24.84-.5,1.79-.61,2.97-.08.94-.06,1.9.08,2.85l-1.09.16c-.15-1.04-.18-2.08-.09-3.11.12-1.28.4-2.28.64-3.16.16-.55.33-1.09.52-1.61l1.04.37c-.18.49-.34,1.01-.49,1.53ZM109.99,146.03c-.32,1.05-.75,2.07-1.29,3.04l-.97-.53c.5-.91.9-1.86,1.2-2.84.3-.96.74-2.4.6-4.28l1.1-.09c.16,2.08-.32,3.65-.64,4.69ZM120.3,152.33c-.57,1.76-1.82,3.34-3.61,4.57l-.63-.91c1.61-1.11,2.68-2.46,3.19-4,.42-1.29.41-2.64.39-3.15l1.1-.05c.03.58.04,2.08-.44,3.55Z"/>
    </g>
  </g>
</svg>