<?xml version="1.0" encoding="UTF-8"?>
<svg id="Layer_2" data-name="Layer 2" xmlns="http://www.w3.org/2000/svg" viewBox="0 0 310.03 155.91">
  <defs>
    <style>
      .cls-1 {
        fill: #8accff;
      }
    </style>
  </defs>
  <g id="Layer_1-2" data-name="Layer 1">
    <g>
      <path class="cls-1" d="M37.78,28.07c-.45-.25-1.07-.06-1.6-.05-1.14.15-2.39.36-3.37,1-.93.61-.64,2.12-.81,3.1-.1.94,1.16.35,1.08-.37-.2-1.67.28-2.56,1.89-2.99.36-.1.74-.16.9.29.24.47.3,1.72.93,1.45.56-.24,1.63-1.78,1.04-2.38l-.06-.06Z"/>
      <g>
        <path class="cls-1" d="M119.32,59.49c-.06-1.02-.61-1.51-1.67-1.45h-.11c-1.09.07-1.57.6-1.51,1.6.06,1.02.61,1.51,1.67,1.45h.11c1.09-.07,1.57-.6,1.51-1.6Z"/>
        <path class="cls-1" d="M91.73,60.6l.77,6.61c2.32-.27,3.31-1.54,3.05-3.75-.25-2.16-1.5-3.13-3.82-2.86Z"/>
        <path class="cls-1" d="M123.39,75.99l.29,6.66c2.33-.1,3.41-1.3,3.31-3.52-.1-2.17-1.27-3.23-3.61-3.13Z"/>
        <polygon class="cls-1" points="104.61 63.99 106.81 63.8 105.42 60.5 104.61 63.99"/>
        <polygon class="cls-1" points="136.03 80.33 138.23 80.3 137.09 76.91 136.03 80.33"/>
        <path class="cls-1" d="M308.57,31.86c-1.28-1.06-3.59-.9-5.22-1.36-1.38-.6-2.37-2.18-3.9-2.52-4.47.05-8.29,3.18-12.67,3.82-1.08.17-1.75.79-2.79.99-7.81,1.3-4.19-3.3-12.12-1.61-.61.16-1.2.42-1.66.83-1.77,1.25-3.55,1.87-5.72,2.62-3.66,1.96-3.75-.3-6.71-1.01-5.74-.69-11.75,2.75-17.44,3.73-1.25.23-2.77.2-3.97.6-.45.12-.94.19-1.3.16-2.32.11-6.11,1.2-8.64,1.6-1.4.31-2.46.31-3.78.51-.89.09-2.19-.15-3.19.17-1.08.36-1.77,0-2.82-.14-2.46-.04-4.34-1.58-6.61-2.28-1.02-.31-1.72-.92-2.65-1.47-2.67-1.19-5.1-2.99-7.97-3.64-1.76-.39-3.71.45-5.42-.13-1.35-.45-2.12-1.84-3.25-2.73-2.07-1.63-4.96-2.23-7.5-1.65-3.62.95-3.9.46-6.47-1.94-4.03-2.2-8.87,0-13.06.54-2.27.11-4.58.58-6.72,1.17-1.73.19-3.78-1.2-5.54-1.28-1.15-.06-2.25.33-3.41.46-8.75.89-17.72,2.15-26.39,3.26-2.31.38-5.16.12-7.42-.27-1.06-.16-1.38-1.09-2.04-1.8-1.42-1.48-3.38-2.14-5.42-2.42-4.09-.54-8.85.54-12.75.77-1.98.11-6.29.53-7.95-.52-.83-.52-1.44-1.84-2.24-2.5-.81-.67-1.73-1.2-2.76-1.48-1.72-.48-3.62-.07-4.69-1.87-.38-.63-.23-1.17-.88-1.71-1.65-1.37-3.9-1.58-5.94-1.88-2.02-.3-3.29-1.09-4.65-2.66-1.76-2.03-4.03-4.11-5.26-6.51-1.82-2.04-3.47-4.48-5.64-6.07l-.1-.06c-1.4-.72-3.67-2.18-5.19-1.23-1.93,1.62-2.75,8.08-3.87,11.3-.12.32-.3.74-.58.87-.38.24-.94-.17-1.23-.47-2.32-1.86-8.87-13.07-11.86-8.08-1.23,3.06-1.34,6.73-2.64,9.79-1.56,6.96-.34,6.66-6.53,11.34-4.15,3.22-8.84,6.02-13.59,8.3-3.07,1.39-7.82,2.21-8.44,6.04-.08.5.19,2.31.55,2.65.08.07.17.14.27.15,1.01.09.62-2.63.92-3.13.33-.55,1.05-.68,1.69-.76l1.74-.21c.61-.07,1.36-.09,1.71.42.33.48.09,1.15-.2,1.65-.79,1.37-2.11,2.59-3.78,2.53-2.16-.07-1.71.8-1.53,2.52.2,1.88.53,3.96,1.63,5.58,1.07,1.67,3.63,1.37,4.83,3.07.14.2.26.41.45.56.23.18.54.22.83.25,1.78.16,3.5-.56,5.28,0,.98.31,2.22.89,3.35.89.71.03,1.37-.18,2.08-.15,1.26.04,2.9,1.03,4.25,1.43,1.14.41,2.11-.4,3.17-.63.74-.11,1.43.7,2.35.63.92-.04,1.81-.69,2.73-.66.91.02,1.4.87,2.11,1.32.93.65,1.98.04,2.96.04.84.04,1.69.33,2.52.54,1.47.41,2.47.7,3.8.49.91-.15,2.12-.59,2.62.48.47.84.59,2.01.79,2.91.21.8,1.27,1.51,2.09,1.93,2.61.89,2,3.25.83,5.15-1.44,2.34-2.71,4.78-3.79,7.28-.81,2.05-1.93,3.68-3.98,4.65-5.46,4.15-20.67,11.35-22.66,16.74-.38,1.21-1.19,2.12-1.83,3.24-1.8,3.42-3.39,6.79-4.44,10.37-2.57,5.25-5.33,11.24-3.77,17.12.32,1.39,1.57,1.76,2.58,2.58.83.7,1.42,1.5,2.38,2.06,3.81,2.51,9.63,1.42,11.49-2.98,3.62-7.98,7.49-16.61,14.15-22.47,3.24-1.55,5.67-4.67,9.04-5.89,1.92-1.29,4.48-1,6.44-2.21.89-.54,1.63-1.32,2.11-2.25.5-1.23.94-2.18,2.25-2.28.88-.15,1.97-.19,2.68-.72,1.8-1.69,2.94-4.24,5.47-4.97,3.33-1.56,6.59.9,4.41,4.25-3.26,3.69-7.87,6.39-11.84,9.46-5.44,4.59-12.43,7.34-17.52,12.33-.89.66-1.24,1.5-2.07,2.56-.68,1.07-1.61,1.69-2.4,2.68-1.55,2.41-2.78,5.1-4.2,7.62-1.16,2.02-2.44,3.82-2.93,6.1-1.07,2.61-2.17,6.45-1.09,9.2,1.12,1.9,2.82,4.25,5.03,4.7,1.99.85,4.12,1.73,6.35,1.54,2,.11,3.23-1.17,4.1-2.76,4-5.8,8.74-11.28,12.99-17.02,3.25-4.23,9.28-5.17,13.12-8.78,1.39-1.42,2.54-4.01,3.87-5.08,1.57-1.28,4.35-.2,6.21-1.32,1.8-1.07,1.92-3.63,3.61-4.79,1.5-1.03,3.57-.58,5.01-1.85,1.01-.97,1.98-1.28,2.93-2.58.68-1.14,1.7-1.91,2.73-2.69,2.28-1.85,5.15-4.46,8.23-4.79,3.49-.09,9.03,3.07,11.02-1.16.74-.99,1.41-1.73,2.7-1.95,4.64-.33,9.38,1.73,14.01,1.65,3.51.31,7.82,2.24,11.61,1.86,2.04-.89,1.55-2.93,4.63-1.69,3.3,1.63,6.5,3.12,10.12,3.35,2.35.41,2.91-.03,3.74-1.99,1.83-.75,7.59,3.49,9.58,3.85,1.08.1,1.88,1.1,2.98,1.22,1.69.25,2.44-1.69,3.64-2.37,1.43-.61,3.23-.7,4.58-.01,1.96.3,3.77.47,5.49,1.49,5.18.98,7.42,4.34,10.4,8.36,1.99,2.52,4,4.95,5.85,7.56,5.65,7.91,10.41,14.97,16.83,21.32,1.55,1.54,3.1,3.67,4.37,5.4,5.32,7.25,13.56,10.73,22.36,10.88,1.69-.04,3.3-.64,4.74-1.47,1.11-.94,1.8-2.33,2.7-3.56.87-1.18.72-2.42,1.01-3.74.27-1.39.68-2.36.26-3.82-1.78-7.99-21.19-9.62-25.31-22.76-.43-1.03-1.01-1.96-1.24-3.05-.28-1.21-.24-2.67-.98-3.6-.58-.78-2.15-1.2-2.7-1.89-.81-1.56-.24-4.1-1.74-5.3-1.02-.86-2.76-1.14-3.3-2.47-.18-.53-.14-1.12-.29-1.65-.31-.81-.04-1.93-.27-2.9-.75-3-4.96-3.53-5.69-6.63-.15-.49.04-1.04.19-1.51.17-.54.78-.77,1.31-.79.55-.02,1.03.14,1.52.34,3.12,1.28,4.71,4.62,6.97,6.93,5.91,6.02,10.91,12.88,16.91,18.83,6.27,6.21,13.48,11.1,20.95,15.7,5.29,3.25,14.01,5.29,19.46,1.54.82-.5,1.73-.98,2.37-1.67.74-1.18,1.8-2.71,2.6-3.99.27-.83.67-1.57.66-2.28-.15-1.75-.49-4.05-1.48-5.58-1.66-3.13-5-4.03-8.27-5.24-2.58-.94-4.96-.44-7.51-1.65-4.14-1.98-7.55-6.03-11.12-9.7-7.23-7.12-12.04-15.61-15.9-24.74-.76-1.41-1.2-3.07-2.77-3.68-1.15-.65-3.1-.43-3.94-1-1.16-1.18-.92-3.43-1.69-4.91-2.04-3.41-5.73-.23-7.99-4.79-.92-1.14-2.61-1.78-3.07-3.32-.35-.9.4-1.71,1.34-1.44.67.13.94.74,1.45.95.97.39,1.95.75,2.75,1.48,2.94,2.03,6.67,2.52,10,3.92,3.09,1.29,6.29,2.88,9.65,3.48.94.12,1.69.59,2.55.93,2.04.75,4.3.02,6.48-.39,1.36-.41,2.71-.17,4.18-.44.9-.58,1.67-1.25,2.45-1.99.76-1.05.88-2.3,2.2-2.61.74-.26,1.58-.12,2.31-.37.55-.16,1.12-.72,1.83-1.01,1.13-.42,2.54-.56,3.74-.71,2.14-.17,3.88.51,5.87-.27,2.82-1.23,3.85-4.8,5.87-6.87,1.15-1.18,3.14-.76,4.45-.48,1.18.02,2.27-.84,3.42-1.57.9-.63,1.19-1.62,1.55-2.55,1.36-1.58,1.35-3.95,2.21-5.81.67-.85,1.98-.98,2.92-1.42.83-.27,1.61-1.04,2.03-1.42,1.01-.7,2.19-1.2,3.01-2.2.58-.69.81-1.41,1.42-2.07,1.65-1.5,1.97-5.55-.11-6.86ZM33.9,47.01c-.06.33-.07.67-.14,1-.09.44-.29.84-.49,1.24-.12.25-.25.51-.44.73-.61.71-1.97.83-2.4-.07-.34-.72.24-1.91.45-2.6.23-.79.72-1.65,1.21-2.44.23-.36.46-.71.67-1.03.16-.25.34-.49.59-.65.25-.16.58-.22.84-.09.29.15.42.5.45.83.1,1.06-.57,2.04-.75,3.09ZM37.51,31.89c-.85.71-1.84,1.26-2.89,1.6-.89.29-2.31.63-3.21.25-.29-.13-.46-.29-.55-.48-.15-.3-.11-.68-.09-1.1.16-2.33-.18-3.7,2.2-4.63,1.58-.61,4.52-2.31,5.96-.56,1.37,1.66-.09,3.81-1.42,4.91ZM45.52,44.7c-.03.19-.03.38-.09.56-.14.44-.65.67-1.11.64-.49-.03-.88-.25-1.21-.59-.97-1.02-1.32-3.12-1.71-4.25-.24-.72.3-1.9,1.16-1.86.53.03.89.53,1.17.99.59.97,1.19,1.93,1.78,2.9.1.17.21.34.23.53.05.37-.17.71-.24,1.07ZM22.26,110.97c-.3.64-.84,1.13-1.23,1.73-.2.31-.37.65-.57.96-.41.63-1.27,1.51-2.07,1.61-1.06.14-.48-.77-.13-1.37.31-.55.63-1.11.95-1.66.35-.6.7-1.19,1.04-1.79.11-.2.21-.52.38-.67.19-.18.51-.2.71-.39.5-.48.81-.25.96.19.14.43.12,1.06-.05,1.41ZM28.28,97.62s-.05.09-.07.14c-.34.73-.36,1.61-.8,2.29-.35.55-.92.92-1.33,1.42-.21.26-.38.55-.65.75-.32.24-1.33.28-1.32-.29,0-1.28,1.21-2.1,1.84-2.92.46-.6.69-1.35,1.14-1.96.25-.34.84-.88,1.32-.69.65.26.11.82-.12,1.25ZM33.94,106.33c-.27.65-.89,1.06-1.45,1.48-.95.71-1.09,2.38-2.47,2.56-.27.03-.57-.04-.73-.26-.18-.24-.15-.58-.08-.88.18-.76.58-1.48,1.13-2.04.85-.87,1.21-1.74,2.48-2.11,1.05-.3,1.56.18,1.12,1.25ZM40.48,93.99c-.56.73-1.34,1.29-2.21,1.58-.1.03-.2.06-.3.09-.45.13-.9.23-1.28.51-.57.42-1.23,1.56-2.09.97-.97-.67-.11-1.52.41-2,.68-.62,5.9-4.66,5.94-2.3,0,.42-.21.82-.46,1.15ZM52.99,16.52c.89-.2,3.51.34,4.07-.71.19-.35-.06-.74-.31-1.03-.92-1.1-1.73-2.41-2.35-3.71-.28-.6-.82-1.59-.65-2.29.18-.72.94-1.17,1.53-.43,1.39,1.72,2.4,3.91,3.37,5.89.24.5.49,1,.59,1.54.36,1.79-1.67,2.23-2.98,2.46-.19.03-.42.08-.68.14-1.19.25-2.95.6-3.57-.31-.48-.7.26-1.38.97-1.54ZM47.1,85.76c-.78.24-1.09-.29-1.12-.87-.01-.27.03-.55.12-.77.12-.32.26-.64.49-.9.16-.17.36-.31.54-.45.67-.54,2.07-3.98,3.07-2.93.37.39.38,1,.36,1.54-.05,1.51-1.69,2.68-2.65,3.76-.23.26-.47.52-.8.62ZM52.08,91.62c-.5.6-1.07,1.17-1.73,1.58-.39.24-.81.44-1.25.55-.36.1-.79.12-1.07-.12-.65-.57-.63-1.62.27-1.72,1.69-.19,2.02-2.27,3.46-2.63,1.75-.44,1.01,1.5.32,2.34ZM51.51,32.94c-.3-.42-.71-1.25-.5-1.78.5-1.23,1.07.02,1.75.31.32.13.67.14,1.01.2,1.41.26,2.51,1.86,2.95,3.14.19.55.1,1.14-.61,1.35-1.5.45-3.85-2.16-4.6-3.22ZM59.06,58.54c-.44.44-1.17.49-1.81-.11-1.15-1.08-1.68-2.98-1.66-4.52,0-.64.4-3.22,1.59-2.61,0,0,.09.05.09.05.64.28.65,1.66.87,2.15.5,1.14,1.09,2.32,1.31,3.55.12.64-.06,1.17-.38,1.49ZM62.58,24.81c-.77-.08-1.54.17-2.31.16-.71,0-1.91-.5-1.63-1.42.26-.86,2.29-.99,3.06-1.19.29-.08.58-.15.87-.15.33,0,.64.11.95.21.45.15.9.29,1.35.44,1.07.35,1.47,1.67.24,2.2-.79.34-1.66-.15-2.53-.24ZM71.03,49.68c-.1.05-.22.1-.36.14-.4.11-.82.03-1.21-.1-.75-.25-1.46-.65-2.04-1.19-.26-.24-.49-.5-.79-.69-.36-.23-.79-.35-1.12-.62-.73-.59-.76-2.16-.11-2.83.41-.42,1.04-.01,1.38.19,0,0,.08.06.08.06.48.29.87.76,1.25,1.17.17.18.34.45.55.56.28.15.59.05.88.14.11.03.21.1.31.17.71.49,2.39,2.33,1.17,3.01ZM71.74,37.3c-.32.29-.78.37-1.21.41-.29.03-.59.05-.88-.01-.54-.11-.98-.5-1.39-.87-.72-.65-1.44-1.29-2.16-1.94-.74-.67-1.64-2.24.11-1.7,1.19.41,3.38,1.25,4.39,1.88.44.27,1.25.86,1.4,1.47.07.26,0,.52-.25.76ZM44.18,124.87c-.24.16-.49.32-.78.35-1.13.1-.87-1.41-.46-1.95.62-.81,1.72-1.41,2.56-1.97.62-.41,3.55-2.65,2.67-.22-.42,1.16-.7,1.57-1.69,2.24-.76.51-1.52,1.03-2.3,1.56ZM50.87,127.96c-.11.49-.36.95-.46,1.43-.16.75.04,1.19-.65,1.72-.3.23-.63.42-.87.71-.35.43-2.3,1.46-2.13.11.03-.25.18-.47.32-.67.91-1.31,1.69-2.59,2.7-3.8.11-.13.23-.25.39-.35.21-.13.5-.19.69-.03.14.11.12.45.02.88ZM62.55,118.08c-.16.45-.45.91-.59,1.13-.1.16-.2.33-.36.43-.14.09-.31.11-.47.16-1.16.38-1.8,1.94-3.11,2.1-.67.08-1.68-.49-1.26-1.24.41-.72,1.25-.98,1.9-1.4.82-.52,1.58-1.16,2.4-1.69.24-.16.87-.7,1.18-.63.03,0,.06.02.09.03.41.2.39.65.22,1.11ZM66.28,108.75c-.05.25-.22.47-.4.66-.11.11-.23.22-.36.32-.09.07-.18.14-.27.21-.85.67-1.7,1.34-2.54,2.01-.22.17-.45.35-.73.39-.37.05-1.42-.22-1.74-.37-.34-.15-.55-.31-.42-.74.21-.66,1.31-.84,1.85-1.05.75-.3,1.38-.56,1.95-1.08.42-.39,3.06-2.35,2.65-.35ZM77.02,110.22c-.38.48-.92.82-1.51.96-.33.08-.68.09-1,.21-.41.15-.74.45-1.06.74-.32.29-.67.58-1.09.69-.75.2-1.64-.47-1.24-1.21.25-.46,1.03-.69,1.45-.94.73-.44,1.46-.86,2.18-1.32.31-.2.73-.34,1.06-.53.33-.18.81-.11,1.16.01.16.06.28.19.34.36.04.09.05.2.05.3-.01.27-.15.52-.32.73ZM80.08,96.74c-.19.39-.52.69-.83.98-.11.1-.22.21-.34.31-1.01.93-2,1.88-2.94,2.88-.17.18-.36.37-.61.35-.76-.05-1.45-1.12-1.17-1.8.33-.81,1.23-.59,1.81-1.03.54-.41.94-1.02,1.42-1.49.51-.58,1.07-1.3,1.75-1.69.95-.55,1.32.66.91,1.49ZM80.63,31.7c-.17.02-.34-.02-.51-.06-1.64-.37-3.28-.75-4.93-1.12-.39-.09-.87-.3-.83-.7.02-.17.13-.31.25-.44.74-.81,1.1-1.36,2.23-1.03.09.03.17.05.26.07,1.35,0,2.58.54,3.57,1.37.02.02.04.03.06.05.3.25.6.55.65.93.05.44-.31.89-.75.93ZM153.92,41.56l3.91.13-.04,1.18-1.61-.05c-.61-.02-.98.36-1,1.02-.03.79.46,1.08.93,1.1l1.48.05-.04,1.19-1.48-.05c-.62-.02-1,.37-1.02,1.04-.02.53.22,1.11.95,1.13l1.61.05-.04,1.18-3.91-.13.26-7.84ZM149.81,59.47l2.76.05-.05,2.94-2.75-.05c-.56-.01-.83.31-.84.92-.01.65.25.97.79.98l2.94.05-.05,2.94-6.87-.12.23-12.54,6.87.12-.05,2.94-2.92-.05c-.54,0-.79.29-.81.88-.01.61.25.92.75.93ZM150.25,41.26c.85.02,1.65.34,2.03.51l-.03,1.35c-.39,0-1.17-.57-1.88-.59-.7-.01-1.21.29-1.22.9-.01.75.8,1.05,1.68,1.41,1.14.47,1.67,1.14,1.65,2.19-.02.87-.63,2.52-2.81,2.48-.84-.02-1.66-.37-2.04-.56l.03-1.36c.48,0,1.18.59,1.92.6.82.02,1.34-.29,1.35-.99.02-.84-1.03-1.23-1.39-1.36-1.01-.39-1.94-.92-1.92-2.26.03-1.41,1.09-2.35,2.63-2.32ZM139.37,42.38c.74-.84,1.81-1.28,3.1-1.27,1.29,0,2.35.45,3.09,1.3.66.74,1.03,1.76,1.03,2.87,0,1.09-.38,2.15-1.05,2.91-.74.86-1.81,1.31-3.07,1.31-1.27,0-2.33-.45-3.08-1.32-.66-.76-1.04-1.84-1.04-2.94s.36-2.11,1.02-2.86ZM140.62,59.39h2.77s.01,2.93.01,2.93h-2.75c-.56.01-.83.34-.82.95,0,.65.27.97.81.97h2.95s.01,2.93.01,2.93l-6.88.03-.05-12.55,6.88-.03v2.95s-2.92.01-2.92.01c-.54,0-.79.31-.79.9,0,.61.27.91.78.91ZM132.24,41.5l.06,3.12,3.25-.06-.06-3.12,1.48-.03.14,7.84-1.48.03-.06-3.32-3.25.06.06,3.32-1.47.03-.14-7.84,1.47-.03ZM131.08,63.17l-.24-8.4,3.3-.09.24,8.38c.04,1.49-.18,4.44-4.54,4.57-4.27.12-4.59-2.9-4.63-4.41l-.1-3.57,2.98-.09.1,3.66c.03.95.52,1.4,1.48,1.38.99-.03,1.44-.49,1.41-1.42ZM129.73,41.56l.05,1.32-1.7.06.23,6.51-1.47.05-.23-6.51-1.69.06-.05-1.32,4.87-.17ZM92.46,98.78c-.02.37-.07.77-.32,1.05-.49.55-.93,1.16-1.52,1.62-.28.21-.57.42-.86.65-.46.36-1.02.71-1.58.56-.34-.09-.62-.37-.77-.69-.72-1.57,1.25-1.89,2.2-2.62.48-.37,1.02-.79,1.31-1.34.24-.45.53-1.29,1.23-1.03.62.23.34,1.27.31,1.8ZM92.86,70.13l-3.42.4-1.46-12.46,3.35-.39c4.44-.52,7.03,1.27,7.51,5.35.49,4.15-1.68,6.59-5.98,7.1ZM108.91,68.5l-.51-1.11c-.15-.31-.3-.57-.55-.76-.5-.39-1.16-.49-1.84-.45h-.14c-.68.09-1.33.29-1.76.73-.21.24-.33.52-.43.85l-.34,1.24-3.45.3,3.46-12.91,3.47-.31,5.57,12.11-3.47.31ZM116.88,65.49l.14,2.44-3.26.19-.72-12.53,4.12-.24c1.86-.11,5.02.04,5.24,3.84.21,3.62-2.48,4.33-3.48,4.5,1.09,2.02,2.56,1.96,2.55,0l2.69-.15c.04.66-.07,1.32-.28,1.94-.51,1.45-1.66,2.33-3.15,2.41-1.34.08-2.63-.73-3.84-2.39ZM123.83,85.59l-3.44.15-.55-12.54,3.37-.15c4.47-.2,6.93,1.78,7.11,5.89.18,4.18-2.16,6.46-6.48,6.65ZM139.97,85.14l-.43-1.14c-.13-.32-.26-.59-.5-.8-.47-.42-1.12-.58-1.8-.58h-.14c-.68.03-1.34.18-1.8.58-.23.22-.37.49-.49.82l-.43,1.21-3.46.05,4.4-12.61,3.48-.05,4.66,12.48-3.48.05ZM149.96,79.75l-.07,5.44-3.27-.04.07-5.44-4.24-7.16,3.91.05,2.09,3.78,2.11-3.72,3.95.05-4.56,7.05ZM155.3,54.84l3.3.13-.37,9.58,3.57.14-.12,2.96-6.87-.27.49-12.54ZM158.52,85.78c-1.81-.07-3.53-1.13-3.53-1.13l.12-3.03c1.04.04,2.25,1.18,3.37,1.23.81.03,1.33-.34,1.35-1.01.02-.52-.5-.99-1.58-1.41-1.33-.54-3.2-1.45-3.1-3.91.09-2.37,1.95-3.95,4.5-3.85,1.87.07,3.54,1.04,3.54,1.04l-.12,3.03c-1-.04-2.24-1.15-3.33-1.19-.65-.03-1.11.32-1.13.85-.03.74.97,1.04,1.99,1.48,1.89.77,2.78,2.03,2.69,3.81-.06,1.58-1.23,4.23-4.76,4.09ZM166.55,67.94l-3.35-.19.72-12.53,3.35.19-.72,12.53ZM179.63,68.92l-3.49-.28s-2.22-3.46-3.45-6.56l-.5,6.24-3.35-.27,1.01-12.51,3.92.3c.78,3.77,2.92,7.85,2.92,7.85l.61-7.55,3.35.27-1.01,12.5ZM194.54,65.39l-2.07-.23c-.08.75.89,2.54,1.8,2.64l-.31,2.69c-.96-.11-1.87-.56-2.53-1.24-2.33,1.09-6.05.76-7.98-1.84-3.45-4.44.09-11.32,5.71-10.68,1.82.21,3.49,1.12,4.58,2.79l-2.56,2.02c-1.11-2.17-5.25-2.27-5.67,1.44-.31,2.71,2.02,4.15,4.45,3.34-.13-.48-.21-.98-.25-1.47l-1.91-.22.31-2.69,6.72.76-.29,2.7ZM231.28,132.16c.18-.36.58-.45,1-.41.39.04.79.2,1.03.35.61.39,1.09.98,1.73,1.31.28.15.59.25.87.41.66.39,1.03,1.12,1.37,1.81.11.23.23.46.24.72.02.25-.08.53-.31.65-.19.1-.42.07-.63.04-1.87-.29-3.23-2.13-4.52-3.42-.35-.33-1.07-.89-.79-1.46ZM230.41,139.04c.09.02.2.09.32.22.75.72,1.36,1.63,2.16,2.31l.06.05c1.06.92,1.95,1.18,2.39,2.65.13.43.02.98-.38,1.19-.23.12-.51.11-.76.04-.72-.18-1.3-.72-1.74-1.32s-.79-1.26-1.25-1.84c-.38-.48-.84-.91-1.04-1.48-.13-.36-.32-1.97.24-1.81ZM220.4,114.81c.05-.1.11-.18.18-.25.4-.41,1-.25,1.33.33.14.26.23.54.37.8.2.36.49.67.84.88.19.12.41.21.58.36.17.15.29.36.4.56.29.51.57,1.01.86,1.52.13.22.25.45.3.7.16.87-.74,3.08-1.8,1.69-.15-.19-.22-.43-.3-.66-.38-1.09-.99-2.11-1.77-2.96-.13-.15-.27-.29-.42-.42-.1-.09-.19-.17-.27-.27-.1-.13-.16-.28-.2-.44-.16-.53-.37-1.31-.1-1.83ZM218.72,124.89c.37.47.46,1.1.72,1.63l.04.08c.59.94,1.21,2.12,1.84,3.06.5.75,1.47,1.13,1.8,2.01.3.79-.29,1.42-1.17,1.12-.55-.19-.94-.67-1.29-1.13-.82-1.07-1.64-2.15-2.47-3.22-.17-.22-.35-.45-.47-.7-.15-.31-.23-.64-.31-.98-.17-.73.08-3.4,1.3-1.86ZM211.01,115.94c-.48.6-1.42.77-2.09.38-.44-.26-.73-.72-1-1.15-.81-1.32-1.62-2.63-2.43-3.95-.36-.59-1.53-2.16-.68-2.73.86-.58,1.53.92,1.93,1.44.13.17.25.35.34.56.07.15.13.32.28.41,1.21.72,2.16,2.08,3.02,3.32.19.27.37.53.55.78.13.18.27.4.24.62-.02.12-.08.22-.16.32ZM214.21,105.51c-.18.52-.37,1.07-.77,1.45-.06.06-.13.11-.22.12-.11,0-.2-.06-.29-.13-1.01-.81-1.61-1.65-2-2.78-.06-.17-.11-.34-.16-.53-.13-.49-.27-1.04-.58-1.45-.34-.44-.65-.44-.59-1.05.06-.6-.01-1.27.44-1.73.16-.17.36-.25.56-.11.13.1.2.26.24.42s.07.33.14.47c.15.31.46.54.66.82.76,1.02,1.45,2.04,2.27,3.03.19.22.38.47.42.76.03.24-.05.47-.12.7ZM262.97,116.53c.76-.06,1.09.8,1.49,1.18l.07.06c.83.64,2.15,1.12,2.9,1.8.25.29,1.65,1.68,1.24,2.21-.56.73-1.72.89-2.46.34-.36-.26-.6-.65-.94-.93-.3-.25-.68-.4-.98-.64-.65-.52-2.27-1.83-2.33-2.7-.03-.45.46-1.38,1.01-1.32ZM249.72,102.75c.15-.04.3.03.43.11.14.09.28.18.42.28.87.63,1.76,1.26,2.62,1.88.61.44,1.65,1.33,1.85,2.09.12.45-.02.95-.34,1.28-.06.06-.14.12-.23.14-.07.01-.14,0-.21-.02-1.27-.36-1.92-1.28-2.57-2.34-.61-1-2.24-1.15-2.38-2.66-.01-.16.23-.69.41-.74ZM250.03,114.4c.8.69,1.47,1.52,2.25,2.23l.07.08c.35.38.56.82.99,1.16.28.21.75.31.81.7.15.97-1.35,1.12-1.94.9-.54-.2-.99-.6-1.4-1.01-.93-.93-1.76-1.96-2.48-3.06-.11-.17-.22-.34-.28-.52-.8-2.27,1.17-1.19,1.99-.48ZM237.2,85.97c.16-.3.46-.44.94-.19.28.14.48.4.7.61.56.55,1.29.88,1.98,1.26,1.08.61,1.95,1.6,2.53,2.69.07.12.13.26.13.4,0,.2-.14.37-.27.53-.21.26-.49.54-.82.48-.15-.02-.28-.12-.4-.21-1.18-.89-2.16-2.18-3.38-2.99-.48-.32-1.08-.65-1.37-1.17-.21-.38-.25-1.03-.04-1.42ZM235.28,100.03c.13-.53.27-1.51.77-1.65.16-.04.36,0,.6.16.85.58,1.6,2.25,2.2,3.1.39.56,2.4,2.03,1.26,2.74-.83.51-1.91-.77-2.38-1.26-.72-.76-2.75-1.81-2.45-3.09ZM224.98,84.46c.51.34.77.86,1.12,1.32.02.02.04.05.06.07.36.45.81.76,1.25,1.14.75.64,1.53,1.88,1.23,2.91-.5,1.72-2.14.06-2.72-.61-.63-.75-1.23-1.59-1.73-2.44-.29-.49-1.37-1.76-1.1-2.39.28-.64,1.48-.28,1.89,0ZM231.14,56.32c-.78-.38-1.58-.76-2.23-1.33-.59-.51-1.69-1.78-.71-2.29.5-.26,1.8.56,2.28.73.99.5,3.44.91,3.64,2.31.02.12.02.22.02.32-.06,1.37-2.13.67-3,.25ZM239.63,45.21c-.04.12-.1.22-.18.31-.99,1.1-4.99.64-6.01.41-.35-.08-.72-.19-.98-.45-1.7-1.7,1.29-1.59,2.15-1.57.88.03,5.59-.52,5.01,1.3ZM248.08,54.25c-.16-.05-.31-.14-.45-.23-.33-.22-1.44-.98-1.73-1.6-.08-.17-.1-.34-.02-.48.34-.6,2.07.15,2.59.2.11.01.23.02.34.06.08.03.16.07.24.1.11.04.22.06.33.07.47.06.94-.05,1.42-.04.55,0,1.19-.05,1.48.49.24.44.06,1.08-.33,1.37-.36.27-.84.3-1.29.25-.45-.05-.88-.18-1.33-.18-.42,0-.85.11-1.25-.02ZM254.74,65.08c-.64-.13-1.15-.61-1.75-.83-.9-.32-1.85-.46-2.73-.83-.4-.17-.91-.38-1.17-.74-.76-1.06,1.32-1.7,2.05-1.28.21.12.39.29.6.41.19.1.39.16.6.22.4.12.8.27,1.19.43.48.2.96.43,1.36.78.64.55,1.41,2.15-.15,1.83ZM255.83,40.86c-.3.36-.77.39-1.1.69-.35.33-.43.86-.84,1.15-.34.23-.93.3-1.33.4-.62.16-1.22.43-1.86.46-1.62.06-2.01-1.09-1.31-1.85.25-.27.64-.49,1.17-.59.19-.04.37-.07.56-.11.25-.05.49-.09.75-.11.12,0,.24,0,.35-.03.87-.2,1.5-.91,2.34-1.17.75-.23,2.12.16,1.28,1.16ZM268.16,40.05c.36-.84,1.23-1.25,2.06-1.48.55-.15,1.17-.2,1.68-.48.52-.29.86-.82,1.45-1.01,1.13-.37.97.48.56,1.24-.21.4-.49.77-.68.92-.66.54-1.52,1.36-2.34,1.6-.24.07-.5.09-.73.18-.16.06-.3.16-.45.24-.97.5-2-.15-1.55-1.21ZM265.37,50.32c-.44,0-.84-.21-1.23-.41-.34-.18-.68-.35-1.02-.53-2.16-1.12,2.28-1.45,2.88-1.49.56-.04,1.11-.11,1.67-.18.26-.03.56-.1.82-.06.45.06,1.57.05,1.45.77-.04.23-.24.39-.43.53-.36.27-.74.54-1.18.61-.26.04-.53.01-.79.05-.08.01-.17.03-.25.05-.66.18-1.24.66-1.92.66ZM273.96,58.39c-.11.06-.24.08-.36.13-.11.04-.22.11-.32.17-1.84,1.02-4.36-.13-5.67-1.54-.11-.12-.22-.25-.26-.41-.38-1.63,1.8-.49,2.3-.41.36.05.66-.09,1.01-.07.46.03.88.27,1.36.28.92.01,1.68-.3,2.14.63.03.06.06.13.09.21.13.36.05.84-.29,1.02ZM290.92,48.97c-.17.35-.67.34-1.05.27-.95-.17-1.89-.34-2.84-.52-.23-.04-.47-.09-.69-.18-.15-.06-.29-.15-.45-.18-.32-.07-.66.08-.99.03-.69-.11-1.19-1.55-.69-2.05.43-.43,1.4-.26,1.94-.18.2.03.41.06.61.09.94.14,1.9.31,2.78.67.71.29,1.82,1.07,1.37,2.05ZM298.34,36.01c-.04.25-.21.53-.42.81-.31.4-.71.78-.97,1.04-.59.58-1.52.51-2.32.73-.54.15-1.04.45-1.59.56-.64.13-2.26-.48-1.77-1.4.11-.2.45-.41.68-.58.04-.03.08-.06.11-.09.35-.29.7-.59,1.12-.76.45-.19.95-.23,1.45-.26.43-.03.78-.06,1.17-.2.73-.26,1.6-.54,2.34-.22.07.03.13.06.17.12.05.07.04.17.03.25ZM225.3,72.6c-.35-.48-.47-1.02.03-1.58.68-.76,2.1.06,2.74.48.25.16.51.34.67.59.29.46.04.92.2,1.37.14.39.62.8.86,1.15.15.22.31.44.46.66.25.36.77,2.24-.32,1.66-.56-.3-1.22-.62-1.71-1.02-.43-.35-.58-.96-.91-1.39-.14-.18-.3-.33-.47-.49-.38-.35-1.14-.86-1.56-1.44Z"/>
        <path class="cls-1" d="M142.44,47.96h.04c1.77,0,2.65-.95,2.65-2.69,0-1.73-.86-2.65-2.66-2.65-1.78,0-2.67.94-2.67,2.64,0,1.76.85,2.69,2.64,2.7Z"/>
      </g>
    </g>
  </g>
</svg>