<?xml version="1.0" encoding="UTF-8"?>
<svg id="Layer_2" data-name="Layer 2" xmlns="http://www.w3.org/2000/svg" viewBox="0 0 350 235.37">
  <defs>
    <style>
      .cls-1 {
        fill: #a2f4e6;
      }
    </style>
  </defs>
  <g id="Layer_1-2" data-name="Layer 1">
    <g>
      <path class="cls-1" d="M164.76,113.95c1.1-.31,2.09.97,2.29,1.95.28,1.33-.02,2.8-.65,4.04-1.79,3.59-2.96,7.19-4.05,11.05l-4.36,15.48c-2.69,9.53-2.02,21.91-7.03,34.03-.63,1.51-1.69,2.81-3.27,3.28-3.59,1.07-5.69-3.64-6.24-6.64-1.55-8.51-1.79-16.84-1.48-25.7-.51,1.15-.88,2.38-1.18,3.58l-3.54,14.17c-.95,3.82-3.08,9.71-7.26,10.74-2.34.58-4.63-.82-5.67-2.97-2.02-4.17-1.15-15.46-.79-20.5.89-12.67,1.09-25.09,1.33-37.78l.19-10.21c.03-1.72.5-4.74,2.63-4.34.92.17,1.65.97,1.65,2.04.07,8.44-.58,16.69-.63,25.15l-.07,11.41-.47,14.58c-.14,4.36-1.4,12.26.62,16.18,1-1.79,1.74-3.38,2.2-5.22l3.56-14.17c.59-2.36,1.31-4.61,2.31-6.78,1.22-2.64,4.56-5.86,7.31-4.48,2.38,1.2,2.21,7.27,2.17,9.87-.07,3.89.07,7.61.52,11.46.4,3.43.66,6.62,1.53,10.27.87-2.3,1.4-4.54,1.92-7.04l5.13-24.85,2.37-11.09c1.02-4.75,2.46-9.23,4.63-13.53.89-1.76,2.27-3.44,4.3-4Z"/>
      <path class="cls-1" d="M209.9,159.58c-.4-1.24-1.59-3.14-3.01-2.97-4.16.49-8.08.74-12.48.13-.29,4.85-.28,9.63.09,14.58l1.18,15.67c.08,1.54.11,4.29-1.56,4.65-2.14.46-3.22-2.84-3.28-4.42l-.25-6.48-1.48-20.19c-.69-9.43.27-18.65,1.77-27.96.58-3.61,1.01-6.99,1.28-10.61.08-1.02.79-1.91,1.69-1.98,1.07-.09,1.81.67,2.15,1.87,4.37-3.28,11.42-1.84,16.38-.34,3.76,1.14,6.65,3.78,8.23,7.44,1.92,4.44,2.75,9.64,1.44,14.47s-5.18,8.59-9.59,10.84c3.55,3.25,3.9,7.46,3.66,12.34-.23,5.12-.54,10.08-.31,15.21l.63,13.56c.04.77-.97,1.86-1.53,2.11-.7.31-1.89.08-2.56-.58-.95-.94-1.52-2.28-1.61-3.65l-.79-12.86c-.38-6.15,1.28-16.72-.06-20.81ZM194.77,150.57c6.08.38,9.52.83,14.96-1.89,3.67-1.85,6.34-5.15,7.05-9.24.9-5.12-.32-11.95-6.18-13.02-2.54-.47-5.01-.78-7.59-.91-3.6-.19-3.94,1-6.9,1.57l-.94,12.71-.4,10.79Z"/>
      <path class="cls-1" d="M106.26,168.64c-2.98,2.82-7.09,3.46-10.7,1.59-3.16-1.64-6.11-4.31-6.97-7.89-1.33-5.52-1.28-11.05-1.34-16.7-.08-6.76,1.04-13.05,3.09-19.5l5.49-17.32c.88-2.79,2.14-5.33,3.8-7.65,2.83-3.95,8.29-4.75,11.88-1.53,1.22,1.09,1.38,2.78.54,4.11,4.93,7.67,5.07,12.84,5.07,21.85s-.88,17.9-3.06,26.7c-1.46,5.88-3.25,12.07-7.78,16.35ZM98.8,164.8c3.69,1.49,6.66-5.69,7.44-8.07,3.08-9.36,4.42-19.02,4.56-28.87l.13-9.05c.05-3.11-.42-6.26-.98-9.3l-1.02-5.46c-1.66-1.53-3.89-1.32-5.29.47-1.99,2.54-3.36,5.39-4.43,8.48-1.22,3.51-2.81,6.76-3.83,10.39-1.53,5.5-2.64,11.02-3.05,16.69-.28,3.79-.09,7.49.18,11.26.22,3.02.99,5.94,1.79,8.83.59,2.13,2.41,3.79,4.51,4.64Z"/>
      <path class="cls-1" d="M69.55,153.12l.27,5.16c.09,1.66-.87,3.43-2.52,3.7-1.85.31-3.41-1.26-3.61-3.09-.13-1.16.23-2.36.31-3.6.42-6.96,0-13.68-.48-20.62-.5-7.18-.87-14.05-.94-21.24l-.17-17.01c0-.9.67-2.1,1.27-2.7.52-.52,1.57-.6,2.52-.57,3.02-4.29,8.72-6.16,13.59-4.01,2.58,1.14,4.33,3.22,5.96,5.41,2.48,3.33,4.01,7.05,4.26,11.29.31,5.21-.3,10.56-2.66,15.32-1.84,3.72-5.2,6.58-8.81,8.44-3.22,1.66-6.55,2.13-10.12,2.37l.5,10.28.63,10.87ZM81.66,118.51c1.95-3.94,2.4-8.41,2.05-12.69-.25-3.1-1.51-5.69-3.38-8.08-.91-1.17-1.98-2.46-3.41-2.97-3.92-1.4-5.78,2.93-9.02,4.08-.15,9.01-.04,17.87.38,26.84,5.38.07,11.24-2.85,13.38-7.18Z"/>
      <path class="cls-1" d="M165.62,173.3c-.17,2.22.04,4.1.51,6.1,3.24,1.42,6.37,2.17,9.88,2.62,2.12.27,4.84,1.21,5.37,3.52.01,1.5-2.11,2.45-3.43,2.62-3.61.46-7.02-.54-10.22-2.16-3.72-1.88-6.51-2.97-6.9-7.89-.36-4.47-.03-8.76.47-13.26.81-7.32,1.67-14.39,3.27-21.62l3.2-14.5c.81-3.69,1.44-7.22,3.35-10.5,3.25-5.59,8.47-4.84,13.63-2.44.89.41,1.4,1.6,1.31,2.35-.36,2.91-4.65,1.97-6.77,1.55-1.65-.33-3.11.24-3.99,1.77-1.39,2.42-2.17,5.14-2.77,7.96l-3.45,16.22,5.55.28c1.06.05,5.05-.25,5.04,2.87-.03,4.68-8.53,3.59-11.44,2.36-1.06,7.32-2.04,14.6-2.6,22.16Z"/>
      <path class="cls-1" d="M109.86,60.99c.33-2.13-.81-4.76-3.07-4.62-2.12.13-4.35.92-6.36.32l-2.31,7.64c-1,3.32-1.75,6.58-3.15,9.7-.35.79-1.38,1.35-2.06,1.22-2.6-.51-1.08-7.03-.69-9.47.98-6.21,3.77-14.3,6.65-19.87l2.76-5.33c1.45-2.8,4.41-7.91,7.6-8.71,2.31-.58,4.96-.47,7.23.37,2.49.92,3.84,3.43,4,5.96.42,6.76-2.78,13.12-9.37,15.93,3.77,2.64,3.44,6.52,2.62,10.4l-3.04,9.6c-.31.98-1.96,4.03-3.48,3.48-1.88-.68-1.16-4.62-.39-6.55,1.31-3.29,2.49-6.39,3.06-10.04ZM102.23,50.7c2.14-.14,3.93-.83,5.87-1.5,4.85-1.68,7.77-6.39,6.62-11.57-1.36-.36-2.61-.26-4.04-.06-2.18,2-4.36,4.04-5.6,6.79l-2.86,6.34Z"/>
      <path class="cls-1" d="M197.38,80.64l-.2-9.5-.45-9.99c-.16-3.54.22-7.08,2.1-10.21,3.14,2.37,3.45,7.43,3.39,10.76l-.39,19.57.22,14.76,5.89-12.43c4.47-9.44,9.4-18.02,15.72-26.32.45-.59,1.4-.71,1.99-.42,1.82.9-.24,4.73-1,6.15-2.04,3.79-3.94,7.49-5.79,11.38l-4.18,8.81c-2.86,6.02-5.98,11.62-10.08,16.86-.82,1.05-2.32,3.75-4.63,2.94-2.43-.85-2.33-5.12-2.37-7.64l-.22-14.72Z"/>
      <path class="cls-1" d="M156.04,69.05c-3.93.22-7.96-2.41-10.53-4.84l-4.75,15.72c-.44,1.44-2.04,4.66-3.71,4.73-1.76.08-2.02-3.94-1.57-5.48l4.3-14.92c1.8-6.24,3.59-12.23,6.1-18.19,1.05-2.49,2.98-4.46,5.13-5.96,2.78-1.93,6.51-1.2,8.27,1.75,1.44,2.41,1.78,5.35,1.55,8.15l-.54,6.75c-.34,4.27-.83,8.36-1.74,12.6l-2.73,12.76c-.49,2.29-1.18,8.71-3.22,8.17-.62-.16-1.21-1.13-1.08-1.87,1.31-7.07,3.16-12.23,4.52-19.37ZM156.63,64.42c.4-5.35.61-10.07.41-15.08-.06-1.39-.42-2.66-.86-3.95-.39-.35-.94-.79-1.31-.87-1.78-.41-3.75,5.31-4.14,6.27l-4.37,10.83c3.48,1.08,6.65,2.08,10.26,2.79Z"/>
      <path class="cls-1" d="M222.97,98.34c-.14.86-.13,1.71.04,2.46,3.04,1.74,8.14,1.84,9.55,4.19.82,1.36,0,2.91-1.33,3.61-2.64,1.39-7.13-.59-10.12-1.8s-4.93-4.28-4.5-7.72c.57-4.56,1.78-9.12,3.61-13.44l5.72-13.51c2.08-4.91,5.78-12.93,12.16-13.01,3.41-.05,10.72,2.49,9.1,5.56-1.75,3.31-8.62-4.67-12.97,2.75-2.5,4.27-4.4,8.79-6.31,13.35,3.1-.04,5.84.36,8.63,1.4.89.33,1.52,1.4,1.57,2.24.06.9-.49,1.7-1.25,2.43-2.87,1.44-7.43-1.4-9.92-3.24-.95,2.38-1.85,4.83-2.4,7.39l-1.58,7.35Z"/>
      <path class="cls-1" d="M162.98,91.46l1.82-5.91c1.6-5.17,2.59-10.28,3.83-15.59,1.59-6.77,3.25-13.34,5.44-19.93-2.31-.6-4.33-1.49-6.36-2.52l-2.45-1.23c-.58-3.54,5.21-3.07,7.36-2.66,3.7.71,7.24,1.17,11.02,1.33,2.21.1,5.4.85,5,3.49-.56,3.63-7.5,2.12-10.21,2.22l-6.44,30.35c-.72,3.41-1.39,6.5-2.32,9.82-.48,1.72-1.07,3.41-2.38,4.55-1.1.96-2.72,1.08-3.65-.17-.68-.92-1.06-2.47-.66-3.77Z"/>
      <path class="cls-1" d="M122.27,62.54c-.4,1.64-2.97,12.99-1.08,13.55l5.09,1.53c1.57.47,3.17,1.45,4.17,2.68.58.71-.41,1.96-1.04,2.32-1.69.96-3.65,1.09-5.49.38l-3.92-1.5c-3-1.14-4.63-3.7-4.1-6.94l.83-4.98c.94-5.67,2.39-11.09,4.49-16.48l4.41-11.31c1.94-4.97,5.59-7.87,11.12-6.67,1.76.38,3.48.96,4.67,2.25.73.79.79,2.03.29,2.83-1.88,3.05-8.43-3.62-11.52,1.82-1.88,3.31-3.51,6.73-5.07,10.35,2.2.12,7.05.84,8.93,1.47,1.51.51,2.26,2.03,2.05,3.33-.24,1.5-1.62,2.72-3.28,2.55-2.63-.27-7-.88-9.27-2.39l-1.27,5.21Z"/>
      <path class="cls-1" d="M77.4,67.26c.36,1.13,2.39,1.53,3.37,1.58,2.53.11,4.7-.84,6.95-2.18.91,1.56.49,3.34-.64,4.66-1.97,2.32-4.98,3.01-7.84,1.68-1.9-.88-4.19-2.08-4.99-4.17-1.46-3.77-1.06-7.78-.33-11.66,1.65-8.77,7.41-25.73,15.95-29.65,2.7-1.24,5.8-1.1,8.12.87,1.45,1.23,2.23,4.11.66,4.96-1.74.94-4.48-3.52-8-.28-1.07.98-2.25,2.08-3.09,3.31-1.97,2.89-3.84,5.71-5.31,8.9-2.41,5.22-6.65,16.3-4.85,21.97Z"/>
      <path class="cls-1" d="M180.51,97.67c-2.35-.83-.11-5.24.65-8.51l1.2-5.19,2.65-11.14c1.72-7.21,3.19-14.26,5.65-21.23.31-.87,1.01-1.88,1.93-1.88s1.48,1.28,1.37,2.2c-.8,6.52-1.68,13-3.68,19.32l-2.3,7.28-4.69,14.86-.64,2.91c-.18.82-1.27,1.7-2.15,1.39Z"/>
      <path class="cls-1" d="M349.95,140.9c-.14-4.02-.13-9.47-2.53-12.53l-2.38-.64-8.43-1.88c1.01-7.23,1.48-14.1,2.05-21.29.73-9.03.38-17.82-1.86-26.57-1.24-4.86-3.62-9.67-7.65-12.85-.6-3.6-4.06-6.08-7.83-5.18l-7.56-2.37c-7.09-2.22-14.09-3.72-21.31-5.53-9.52-2.38-18.87-4.03-28.49-5.99l-16.52-3.38-18.51-3.91-23.38-5.31-17.25-4.16-14.8-3.65-18.54-4.47-44.25-10.04-13.31-2.74-10.62-2.11-8.99-1.76L59.49.83c-2.16-1.34-4.47-.96-6.43.46l-6.09,4.41c-4.16,3.01-7.71,6.29-11.21,10.04-6.49,6.94-11.92,14.37-16.68,22.61-3.57,6.16-7.02,12.07-9.46,18.81-3.15,8.67-5.58,17.34-7.47,26.39C-.4,95.72-.07,112.51.14,125.06c.15,8.93,1.56,17.48,4.26,25.95l2.13,6.7c.62,1.95,1.23,4.54,2.84,5.94,4.13,3.58,26.3,10.27,32.52,11.9l17.51,4.6,46.54,10.57,32.44,7.03,25.02,5.36,25.57,6.41,12.44,3.18c8.7,2.22,17.09,4.42,25.75,6.92l34.39,9.93c7.2,2.08,14.21,4.34,21.64,5.01l6.94.63c3.24.3,6.25.34,9.26-.99,6.15-2.71,10.17-7.88,13.51-13.66,8.41-14.58,13.15-27.99,16.38-44.5.04-.23.1-.6.22-.58l.5.09c2.53.48,6.15,1.59,7.44-.65,5.13-.9,8.15-7.91,9.64-12.34,2.36-7.06,3.13-14.27,2.88-21.68ZM36.94,82.74c-2.37-.58-4.74-.99-7.16-1.47l-8.29-1.63c-1.08-.21-1.9-.87-2-1.92-.07-.71.57-2.26,1.61-2.11,5.92.85,10.89,2.84,17.12,4.06,2.49.49,4.85,1.02,6.63,2.85-1.06,2.11-6.21.63-7.91.22ZM244.73,96.75l-6.34,14.49c-3.76,8.59-5.31,17.54-7.69,26.62-4.4,16.78-7.4,33.79-5.86,51.08l.83,9.28c.37,4.18,2.29,12.7,4.78,16.31l-26.96-6.95-13.48-3.73c-12.69-3.51-25.08-6.78-37.97-9.57l-26.65-5.77-17.8-3.84-50.83-11.58c-1.37-7.18-4.75-13.85-4.98-21.32l-.4-13.17c-.11-3.46-.08-6.81.01-10.29l.49-17.96c.24-8.97,2-17.62,3.44-26.47.69-4.2,2.1-8,3.04-12.12,2.3-10.08,5.4-18.36,10.03-27.54,1.59-3.16,3.29-5.99,5.32-8.89l6.24-8.9c2.27-3.24,9.03-9.3,11.71-12.76l35.94,7.66,38.05,8.84,31.57,7.76c16.02,3.94,31.87,7.21,48.07,10.02l23.38,4.06-5.93,8.79c-6.99,10.35-9.54,16.2-14.41,27.58l-3.58,8.37ZM274.48,139.93c-.52.85-2.2.95-3.2.76l-7.83-1.51c-.02,2.35-.9,8.57-3.35,8.21-2.5-.37-1.53-6.99-1.03-9.07l-4.35-1.08c-1.12-.28-3.92-1.35-3.84-2.52.1-1.45,7.56-.74,8.91-.82.49-1.37,1.55-7.57,2.96-7.87,1.19-.25,1.6,2.03,1.54,2.89l-.38,5.55c1.32.39,12.07,3.04,10.57,5.47ZM318.89,191.67c-2.51,8.87-9.33,23.79-14.96,31.05-1.95,2.52-4.23,4.63-7.17,5.81-1.96.79-4.23,1.2-6.15.11-3.18-1.8-5.45-4.73-6.71-8.2-2.64-7.26-3.35-14.89-2.63-22.62.45-4.8,1.13-9.23,2.17-13.93l9.01-40.97c1.48-6.71,2.68-13.05,4.59-19.63,3-10.3,7.54-24.31,12.08-33.88l7.5-15.83c1.31-2.76,2.94-5.33,4.95-7.48,1.29-1.39,3.13-1.73,4.56-.49,1.66,1.45,2.92,3.19,3.86,5.22,5.51,11.76,5.24,22.6,4.19,35.3-.53,6.38-1.12,12.5-2.28,18.78-1.93-.36-3.87-.7-5.54-1.57-1.8-.94-3.58-.6-4.58,1.23-1.38,1.45-2.66,2.99-3.88,4.64-3.63,4.88-5.47,4.97-7.54,11.88-1.51,5.03-1.73,9.87-1.08,15.03.48,3.86,1.32,7.44,2.68,11.06.61,1.62,1,2.7,2.73,3.53,1.33.64,2.78,1.42,4.3,1.81l4.97,1.25-5.07,17.9ZM330.27,168.96l-3.4-.93-8.64-2.22c-1.46-3.35-2.33-6.65-2.68-10.31-.21-2.19-.52-4.37-.3-6.62.67-7.01,4.23-15.5,9.19-20.58,1.35,0,2.61.03,3.89.34l11.27,2.76c-5.2,7.03-7.79,18.5-9.21,27.07-.51,3.6-.6,7-.1,10.48ZM345.56,146.73c-.45,7.67-1.22,15.58-5.38,22.1-.58.91-1.48,1.75-2.45,2.28-1.52.82-3.04,0-3.52-1.52-.61-1.93-.78-4.02-.61-6.17.58-7.73,2.62-15.17,5.81-22.23.8-1.77,4.43-8.23,6.88-7.12l-.73,12.66Z"/>
    </g>
  </g>
</svg>