<?xml version="1.0" encoding="UTF-8"?>
<svg id="Layer_2" data-name="Layer 2" xmlns="http://www.w3.org/2000/svg" viewBox="0 0 99.17 141.73">
  <defs>
    <style>
      .cls-1 {
        fill: #8accff;
      }
    </style>
  </defs>
  <g id="Layer_1-2" data-name="Layer 1">
    <g>
      <path class="cls-1" d="M54.11,10.72s.07,0,.1,0c.61.13,1.27.5,1.61,1.04.27.43.52,1.31-.05,1.61-.25.13-.56.12-.84.11-.16,0-.36-.06-.37-.22,0-.09.05-.16.1-.23.09-.12.15-.24.2-.36.22-.52.1-1.06-.39-1.49-.12-.1-.24-.2-.36-.3-.04-.03-.08-.07-.07-.12,0-.03.04-.06.07-.06Z"/>
      <path class="cls-1" d="M.01,101.77c.23-1.3.67-2.52.75-3.86.03-3.14-.17-6.36,1.06-9.31.47-2.26.79-4.83,2.07-6.79.68-1.67.14-3.67,1.22-5.24,1.22-3.18,4.88-4.68,5.74-7.97.19-1.56,1.06-2.83,2.21-3.94,1.49-1.23,3.41-2.24,5.06-3.29.91-.52,1.94-.7,2.71-1.43.75-.87,1.21-1.98,2.23-2.62,1.09-.76,2.62-1.24,3.16-2.22.7-2.15,2.9-3.08,4.65-4.14,2.57-1.54,4.6-3.16,6.85-5.19,1.36-1.53,3.28-2.44,4.69-3.83.32-.52.42-1.18.67-1.74.34-.88,1.2-1.36,1.64-2.17.58-1.73,1.76-3.57,2.31-5.2.22-1.02-.77-1.81-.73-2.79.72-2.88.57-3.74-2.68-3.68-1.63.39-2.95-.05-4.32-1.01-1.45-.44-2.59-1.26-3.49-2.51-.47-.53-.99-.91-1.25-1.57-.28-.73-.18-1.42-.34-2.14-.43-1.18-1.12-2.02-.46-3.47,1.11-2.59,1.4-3.58,3.73-5.41.48-.38.74-1.15,1.08-1.65.56-.82,1.66-.81,2.19-1.63.1-.16.19-.34.3-.49.7-.99,1.72-.82,2.75-1.16,1.14-.38.98-1.12,1.01-2.18,0-.19.01-.39.07-.58.14-.41.53-.68.91-.86,1-.47,2.17-.55,3.23-.24.73.22,1.29.47,2.05.36.63-.09,1.2-.23,1.79-.49,1.14-.51,2.25-1.25,3.54-1.26.48,0,.95.09,1.43.09.71,0,1.42-.24,2.12-.14.47.07.9.29,1.36.42.76.22,1.56.18,2.34.29.89.12,1.61.53,2.27,1.12.57.51,1.11,1.34,1.94,1.42,1.06.1,2.04-.74,3.02-1.04,1.29-.34,2.66-.17,3.64.79.37.36.7.79.8,1.3.19.95-.53,1.96-.11,2.84.37.78,1.36,1.41,2.19,1.54,1.58.23,2.5,1.6,2.88,3.04.26.98.59,1.71,1.27,2.46.64.7,1.44,1.31,1.96,2.11.54.84.63,1.91,1.2,2.73.37.52.91.9,1.35,1.37.52.57.88,1.28,1.02,2.04.13.66.09,1.36.35,1.99.39.95,1.35,1.52,2.08,2.24.98.96,1.57,2.29,1.68,3.65.06.73-.09,1.38.07,2.08.18.79.46,1.56.66,2.35.8,3.21,1.42,6.44,2.3,9.62.43,1.56.71,3.57.71,5.19.26,2.12.62,4.12,1.16,6.06.5,1.81,1.17,3.59,2.05,5.38,1.2,3.37,1.48,7.42.21,10.83-.34,1.27-.97,2.53-1.63,3.67-.8,1.39-1.77,2.66-2.75,3.94-.81,1.07-2.64,1.95-3.87,2.39-1.11.4-2.77.6-3.87,0-1.23-.67-2.24-2.92-2.35-4.25-.17-2.06.56-4.12,1.59-5.87.35-.59,1.09-1.58.84-2.31-.14-.42-.56-.6-.67-1.1-.13-.56.04-1.16.03-1.73,0-.75-.35-1.14-.58-1.8-.27-.75.29-2.33-.48-2.87-1.27-.88-3.06,1.56-2.83,2.68.5,3.18.65,6.03.8,9.19,0,2.2-.78,4.28-1.81,6.19-1.04,1.94-2.28,3.35-3.87,4.86-1.52,1.44-3.16,2.78-4.97,3.85-1.62.96-3.82,2.09-5.76,2.1-2.83,0-3.65-2.47-4.4-4.71-.47-1.4-.49-2.56.19-3.87.63-1.21,1.5-2.33,2.48-3.28.72-.7,1.71-.92,2.5-1.5.88-.62.99-1.89,1.9-2.71.37-.39,1.89-1.42.9-1.8-.56-.22-1.82.43-2.32.66-.65.29-1.17.34-1.65.86-.41.45-.87.93-1.21,1.43-.31.45-.49.95-.88,1.35-.3.31-.67.53-1.04.76-.77.47-2.25,1-2.74,1.79-.21.33-.21.74-.27,1.13-.11.74-.44,1.45-.94,2.02-.33.38-.74.7-1.06,1.09-1.08,1.28-.78,3.36-1.73,4.77-.82,1.22-1.6,1.92-1.8,3.47-.17,1.35-.09,2.72-.09,4.08,0,1.78-1.13,3.18-1.13,4.92,0,1.38-.09,2.81-.23,4.19-.42,4.15-.62,8.37-1.39,12.48-.38,2.04-.94,4.06-1.79,5.95-.76,1.69-1.87,3.82-3.69,4.58-.92.38-2.12.25-2.72-.55-.53-.7-.55-1.6-1.18-2.25-.66-.68-1.2-1.22-1.27-2.24-.03-.42.03-.86-.12-1.26-.19-.51-.68-.83-1.02-1.25-.34-.42-.53-.95-.54-1.49-.01-.87-.03-1.25-.41-2.03-1.01-2.05,1.09-4.06,1.05-6.12-.29-1.5.22-2.89.46-4.36-.07-1.29,0-2.32.27-3.47.29-1.27-1.06-1.55-1.64-.58-.65,1.11-.1,2.56-.75,3.69-.18.32-.45.58-.64.9-.68,1.13-.2,2.6-.53,3.88-.27,1.04-1.04,1.86-1.52,2.81-.48.95-.67,2.07-.44,3.11.33,1.45,1.43,1.93,2.27,2.98.71.89,1.55,2.43,1.04,3.58-.13.31-.37.58-.46.9-.22.72.26,1.5.08,2.23-.18.77-1.01,1.22-1.3,1.95-.2.51-.12,1.1-.35,1.6-.35.79-1.33,1.12-1.81,1.84-.2.3-.31.67-.55.94-.36.41-.97.53-1.51.44-1.17-.19-2.06-1.22-2.89-2-1-.95-1.9-2.01-2.64-3.18-1.52-2.43-2.99-5.12-3.64-7.98-.23-1.02-.21-2.14-.79-3.01-.15-.23-.33-.43-.47-.66-.62-1.09.02-2.38.13-3.51.13-1.32-.5-2.65-.67-3.96-.17-1.3-1.49-1.24-2.19-.32-.69.89.14,1.9.02,2.87-.14,1.1-.92,1.89-.79,3.07.12,1.11.91,2.01,1.12,3.1.27,1.35-.52,2.59.37,3.87.87,1.26.22,2.95,1.04,4.1.7.97,1.56,1.81,2.27,2.77.69.93.94,1.97,1.43,3,.46.97,1.29,1.47,1.99,2.23.67.73,1.25,1.62,1.65,2.52.2.45.38.9.48,1.38.3,1.37.05,3.32-1.51,3.62-1.74.33-3.18-.11-4.67-.95-1.18-.66-2.44-1.03-3.61-1.61-1.62-.81-2.83-1.69-4.27-2.78-.65-.5-1.22-.8-1.73-1.49-.55-.75-.97-1.59-1.57-2.31-.88-1.05-2.09-1.77-3.12-2.68-1.23-1.1-2.07-2.44-2.75-3.91-.77-1.67-.55-3.47-1.12-5.19-.51-1.56-1.59-2.99-1.68-4.66-.03-.32-.11-.72-.14-1.11-.67-3.74-2.51-4.18-1.82-8.82.1-1.63-.79-2.92-.67-4.33ZM41.57,13.77c-.25-.46-.68-.52-1.15-.42-.58.13-1.21.52-1.6.7-.81.39-1.68.83-2.28,1.52-1.24,1.43.08,3.07,1.18,4.11.32.35.42.84.63,1.25.17.35.57.89.87.31.18-.34.31-.77.66-.99,1-.44,2.35-.19,3.16-1.09,1.12-1.19-.81-4.18-1.47-5.4ZM96.17,56.37c0-.14,0-.34,0-.44l-.04-.05c-.06-.03-.16-.12-.23-.14-.07-.14-.16.29-.08.26.06.1.18.06.15.17-.01.07-.13.15-.16.25.06.38.2.14.35-.05ZM93.82,72.67c.18.56.66.11,1.03-.35.23-.28.42-.56.49-.63.13-.13.26-.27.33-.42.14-.29.05-.63.12-.94.24-.5.28-1.3-.04-1.78-.15-.23-.43-.4-.7-.34-.27.06-.44.34-.48.6s0,.54.02.82c.04.56-.06,1.13-.26,1.65-.11.3-.62,1.05-.51,1.38ZM90.84,56.45c.06.26.15.51.24.75.18.5.02,1.03.53,1.43.29.22.46.36.68.62.14.17.28.45.54.51.45.1.51-.45.43-.74-.18-.6-.52-1.09-.65-1.71-.06-.27-.17-.53-.3-.82-.15-.33-.59-1.45-1.13-1.14-.08.04-.16.12-.24.23-.19.25-.16.58-.09.87ZM89.27,67.34c.42.77.9-.25,1.13-.73.19-.38.25-.81.32-1.23.06-.37.11-.76-.05-1.1-.07-.14-.17-.26-.25-.4-.19-.33-.27-1.18-.77-1.17-.22,0-.34.16-.41.34-.05.15-.07.32-.07.45,0,.52.21,1.01.2,1.56-.02.69-.47,1.63-.11,2.28ZM88.44,44.29c0,.47.52.88.73,1.26.1.18.14.42.31.53.19.12.47.02.59-.17.12-.19.11-.44.05-.66-.06-.22-.17-.42-.24-.64-.33-.95.02-2.11-.55-2.94-.13-.19-.32-.36-.54-.42-.23-.06-.39-.02-.5.09-.48.51.2,2.49.17,2.95ZM85.85,33.4c.26.26.37.7.72.81.36.11.66-.21.59-.55-.04-.17-.22-.32-.23-.5-.05-.65-.25-1.17-.66-1.62-.36-.4-.54-.98-.91-1.36-.48-.48-.95-.06-.97.49-.02.67.37,1.33.7,1.89.12.21.25.42.44.58.1.09.23.16.32.26ZM83.78,51.16c.06.2.11.4.21.59.16.33.87,1.11,1.34.95.61-.21,0-.97.04-1.35.04-.38-.22-1-.39-1.33-.16-.31-.26-.65-.41-.97-.06-.12-.12-.24-.19-.35-.27-.42-.88-.7-1.13-.14-.3.7.34,1.94.53,2.61ZM72.59,5.32c-.12-.7-1.01-.9-1.68-.71-.3.09-.98.4-.93.8.02.2.21.33.38.42.09.05.2.09.3.08.26-.03.37-.38.61-.49.16-.07.36-.02.46.12.19.26.03.54.06.82.04.41.77.53.91.13.12-.37-.05-.8-.12-1.17ZM76.31,31.85c0-.22.04-.6-.05-.74l-.03-.05c-.11-.21-.31-.65-.48-.92-.24-.37-.82-.9-1.33-.65-.23.12-.38.4-.33.65.03.17.13.32.22.46.26.4.48.83.62,1.28.1.33.16.68.28,1,.12.32.32.64.63.8.04.02.08.04.13.04.1,0,.17-.09.21-.17.12-.22.16-.47.1-.71-.09-.4.02-.62,0-1ZM79.81,23.61c-.29-.72-.79-1.33-1.26-1.94-.43-.56-.57-1.04-1.33-1.02-.04,0-.09,0-.13.01-.14.02-.28.08-.36.2-.09.14-.06.32,0,.48.25.62.9.94,1.21,1.51.1.19.13.41.27.57.22.25.61.32.89.51.19.13.44.32.63.18.15-.1.14-.33.07-.5ZM79.93,43.75c.54.16.32-1.33.36-1.57.06-.35.02-.72-.12-1.04-.14-.33-.37-.63-.37-.99,0-.13.03-.26.04-.39.03-.42-.19-1.06-.69-1.09-1.04-.05-.68,1.28-.67,1.87,0,.25-.03.51.01.76.02.14.07.27.12.4.26.66.67,1.4,1.16,1.92.05.05.1.1.16.12ZM77.28,66.16c.2.51.21,1.07.28,1.62.07.54.22,1.11.62,1.49.06.05.13.11.21.1.1,0,.17-.11.21-.2.31-.66.28-1.19.16-1.77-.06-.26-.13-.52-.2-.81-.07-.68-.11-1.16-.37-1.72-.2-.44-.96-.43-1.17,0-.2.41.09.88.26,1.3ZM76.69,55.05c.05.25.25.45.41.66.27.37.43.82.44,1.28,0,.18-.01.36.05.52.05.12.13.23.22.33l.62.74c.19.22.47.47.73.34.17-.09.23-.31.19-.5-.04-.19-.14-.36-.23-.53-.5-.99-.32-2.26-1.1-3.11-.17-.2-.52-.5-.81-.47-.33.04-.59.43-.53.75ZM73.21,81.68c.06.08.14.15.23.22.09.07.18.14.29.15.06,0,.12,0,.18,0,.2-.04.38-.11.55-.21.83-.45,1.34-1.27,1.9-1.95.12-.14.24-.29.29-.47.1-.37-.08-.94-.58-1.02-.1-.02-.2,0-.29.03-.35.13-.59.57-.75.82-.07.1-.13.21-.24.28-.09.06-.21.07-.31.11-.32.11-.55.35-.77.59-.29.32-.79,1.04-.5,1.45ZM72.9,75.47c.26,0,.43-.12.63-.27.19-.13.4-.18.58-.32.17-.13.32-.28.46-.43.26-.3.47-.96.59-1.34.12-.41.02-1.08-.24-1.42-.11-.14-.43-.27-.72-.29-.43-.03-.32.24-.32.56,0,.34-.05.7-.26.98-.1.13-.22.24-.29.38-.09.19-.08.41-.14.61-.08.27-1.3,1.55-.28,1.55ZM74.16,14.83c.07.02.16.05.23.02.1-.04.13-.16.13-.27,0-.3-.06-.47-.26-.69-.16-.19-.37-.32-.5-.42-.21-.16-.16-.35-.4-.53-.27-.16-.69-.31-.92-.54-.16-.16-.69-.61-1.06-.64-.19-.01-.34.08-.38.38-.02.14.06.27.14.39.22.32.44.64.71.93.62.67,1.46,1.1,2.32,1.39ZM68.52,62.62c.01.33.07.67.26.92.22.29.44.57.69.84.19.21.4.41.61.61.29.28.58.55.88.83.07.07.16.14.26.13.2-.02.21-.3.16-.49-.18-.7-.37-1.42-.8-2-.17-.23-.38-.44-.47-.71-.08-.25-.04-.53-.1-.79-.13-.52-1.03-1.02-1.39-.43-.09.15-.09.34-.1.52,0,.18,0,.38,0,.58ZM65.3,21.25c.08.44.42.8.69,1.14.23.29.44.77.72,1,.18.14.46.14.6.33.19.26.22.57.61.62.62.08-.09-1.45-.16-1.59-.24-.48-.55-.91-.8-1.38-.22-.28-.24-.45-.25-.7-.08-.22-.38-.17-.63-.18-.14,0-.33.03-.48.09-.11.05-.2.11-.25.21-.08.14-.08.31-.05.47ZM64.45,33.62c.54-.38.24-1.26.17-1.81-.07-.48-.02-1.08-.31-1.42-.33-.37-1.18-1.79-1.49-.63,0,0,0,.01,0,.02-.23.9.46,1.87.48,2.78,0,.23-.03.46,0,.69.03.23.15.46.36.56.26.12.56-.02.8-.19ZM62.1,72.93c.27.03.52-.17.72-.35.14-.13.29-.26.39-.43.07-.12.11-.26.15-.4.29-.97.44-1.96.28-2.96-.12-.49-.45-.42-.76-.19-.3.23-.59.61-.65.81-.06.18-.08.37-.11.56-.08.48-.19.94-.35,1.4-.1.29-.22.59-.21.9s.22.64.53.67ZM54.68,81.47s.07.1.12.12c.14.07.3-.04.41-.15.39-.38.51-.78.64-1.28.1-.38.04-.97.27-1.29.05-.07.12-.13.16-.21.27-.45.29-.84.22-1.36,0-.05-.01-.1-.04-.15-.03-.04-.07-.07-.11-.09-.19-.12-.4-.2-.62-.23-.05,0-.1-.01-.15-.02-.11,0-.22,0-.33.04-.19.07-.32.25-.39.44s-.09.39-.1.59c-.04.47-.06.89,0,1.36.06.45-.09.68-.22,1.11-.12.37-.07.79.14,1.11ZM54.07,26.81c.09.76.18,1.51.27,2.27.03.28.08.58.27.78.09.09.23.16.34.09.05-.03.08-.09.11-.14.13-.25.36-.51.47-.76.16-.34.06-.62.08-.96.02-.39-.16-.88-.23-1.21-.09-.18-.14-.2-.22-.35-.12-.23-.03-.54-.31-.67-.07-.03-.14-.04-.21-.04-.25.02-.49.25-.55.48-.05.17-.03.34,0,.51ZM54.15,14.19c.34.09.82.1,1.14.12.48.03.94.03,1.38-.24,1.12-.99.2-2.98-.96-3.53-.76-.42-1.62-.98-2.52-.73-.78.15-1.41,1.07-1.56,1.93-.06.34-.04.68.08.95.39.87,1.57,1.28,2.44,1.5ZM50.32,87.8c.05.61.07,1.22.18,1.83.05.29.1,1.4.84,1.07.16-.07.24-.23.24-.37s-.04-.29-.07-.43c-.2-.94.4-1.87.5-2.83.02-.18.02-.38-.11-.53-.16-.19-.44-.29-.71-.27-.13.01-.27.06-.37.14-.14.11-.23.27-.3.42-.1.22-.19.44-.21.67,0,.1,0,.21.01.31ZM49.51,105.1c.12-.29.08-.63.04-.94-.12-.88.08-1.78-.06-2.64-.07-.41-.33-.81-.61-.85-.18-.02-.37.1-.51.48-.19.49-.41,1.28-.36,1.81.05.62.15,1.24.29,1.84.07.29.18.62.46.72.3.11.63-.13.75-.42ZM47.51,115.25c.03.17.08.38.24.43.05.02.11.02.17.02.16.01.32.07.48.08.73.04.76-1.4.89-1.88.07-.69-.03-1.54-.61-2-.04-.03-.08-.06-.13-.09-.42-.26-.37.45-.43.73-.08.38-.07,1.02-.43,1.25-.18.11-.25.33-.27.54-.03.33.04.59.09.92ZM45.01,95.11c.1.2.23.39.3.61.07.21.08.44.1.67.03.34.11.88.31,1.17.05.07.12.13.2.15.1.02.19-.03.26-.1.07-.07.11-.16.15-.25.12-.26.22-.54.23-.83.01-.4-.06-.88-.11-1.26-.06-.38,0-.87-.15-1.22-.09-.2-.23-.39-.41-.53-.1-.08-.21-.14-.32-.19-.12-.05-.26-.08-.37-.02-.05.03-.09.07-.13.12-.36.48-.32,1.17-.06,1.7ZM43.12,108.32c-.05.5.11.71.25,1.16.06.2.13.41.28.55.15.14.42.19.56.04.17-.17.08-.45.03-.68-.09-.4-.05-.83.11-1.21.27-.63.5-1.09.44-1.8-.05-.57-.44-.85-.83-.84-.32,0-.66.22-.81.63-.25.66.03,1.47-.03,2.14ZM37.45,93.68c.04.22.15.43.2.65.06.3-.4,3.02.69,2.51.14-.06.19-.23.22-.38.17-.83.52-2.03.24-2.85-.09-.27-.08-.6-.2-.77-.09-.13-.4-.21-.63-.22-.07,0-.14,0-.18.02-.1.03-.16.12-.21.21-.13.25-.18.54-.12.82ZM32.72,104.84c.22-.35.19-1.05.22-1.44.04-.68.11-2.9-1.13-2.53-.11.03-.21.1-.29.21-.23.29.07.78.08,1.1.02.4-.17.78,0,1.18.17.39.48,2.51,1.12,1.49ZM30.19,114.91s0,.09,0,.14c.01.18.06.37.23.43.17.06.36-.07.47-.22.43-.55.44-1.31.73-1.94.23-.51.42-1.78-.46-1.74-1.28.05-.95,2.61-.98,3.34ZM27.71,122.97c.22.19.46.4.77.44,1.18.18.2-.83.02-1.11-.39-.62-.52-1.34-.65-2.03-.06-.32-.1-.99-.65-1.03-.66-.03-.39.67-.38,1.02s-.17.7-.17,1.05c0,.65.54,1.19,1.06,1.65ZM25.27,107.82c.04.58.08.75.27,1.19.14.33.66.85.89.39.09-.18.04-.63.09-.85.06-.31.15-.62.13-.95,0-.17-.04-.33-.08-.5-.1-.5.07-1.33-.28-1.71-.13-.12-.32-.14-.49-.14-.33-.01-.5.21-.58.54-.16.65.04,1.69.06,2.02ZM19.65,101.88c.01.27.12.81.36,1.07.09.1.21.16.34.15.48.01.65-1.57.74-1.91.07-.25.13-.49.15-.75.01-.24-.02-.48-.06-.72-.02-.16-.05-.33-.12-.47-.22-.44-.99-.64-1.26-.14-.32.59-.18,2.07-.15,2.76ZM20.07,135.41c.28.13,1.81,1.48,1.83.61,0-.45-.44-.62-.59-1.04-.03-.09-.06-.19-.1-.28-.07-.15-.18-.27-.3-.39-.27-.29-.66-.86-1.05-.99-.09-.03-.18-.03-.27-.03-.23,0-.48.01-.65.17-.08.07-.12.17-.15.27-.02.08-.02.17-.01.25.08.71.7,1.16,1.29,1.43ZM15.65,126.58c.05.09.1.17.18.23.23.16.95.94,1.25.8.43-.2-.02-1.31-.14-1.61-.12-.31-.29-.6-.38-.93-.11-.41.06-1.85-.75-1.62-.08.02-.15.06-.21.11-.14.11-.23.28-.27.46-.16.72-.05,1.91.31,2.55ZM13.1,109.89l.02.07c.06.27.13.82.21,1.09.03.37-.06.54-.08.87.04.42.22.97.43,1.34.1.18.31.32.52.27.18-.56.03-1.2.22-1.76.12-.36.39-.69.37-1.08,0-.26-.15-.5-.29-.72-.14-.22-.27-.44-.41-.66-.44-.73-1.3-.14-.99.58ZM12.93,99.23c0,.47.28,1.15.86.81.5-.29.34-1.04.39-1.51.06-.52.33-.98.45-1.49.11-.45-.19-1.29-.61-1.51-.01,0-.03-.01-.04-.02-.77-.34-1,1.25-1.11,1.74-.16.7.07,1.29.06,1.97ZM8.52,118.3c.09.3.11.62.07.93-.02.14-.05.29-.03.43.02.12.07.22.13.33.28.56.57,1.12.98,1.6.05.06.11.13.19.15.72.21.51-1.25.44-1.51-.21-.82-.36-1.65-.46-2.49-.02-.16-.04-.33-.11-.48-.11-.24-.36-.42-.63-.45-.12-.01-.23,0-.34.02-.28.07-.49.27-.48.63,0,.29.14.56.22.83ZM6.95,91.95c.15-.53.29-1.07.25-1.62-.02-.37-.13-.74-.05-1.11.11-.5-.05-1.2-.72-1.06-.24.05-.39.18-.48.35-.16.31-.13.75-.15,1.07-.05.32-.29.49-.23.95.07.54-.34,2.39.78,2.2.34-.06.49-.45.58-.78ZM5.08,103.95c.05.2.13.38.15.59.02.16.36,2.99,1.09,2.39.05-.04.07-.12.07-.19.05-.42-.04-.86,0-1.27.05-.41.23-.78.25-1.21.02-.32-.01-.65-.1-.97-.14-.53-.41-1.11-1.08-.93-.1.03-.19.08-.27.16-.31.33-.17,1.03-.12,1.42Z"/>
    </g>
  </g>
</svg>