<?xml version="1.0" encoding="UTF-8"?>
<svg id="Layer_2" data-name="Layer 2" xmlns="http://www.w3.org/2000/svg" viewBox="0 0 141.73 141.73">
  <defs>
    <style>
      .cls-1 {
        fill: none;
      }

      .cls-2 {
        fill: #8accff;
      }
    </style>
  </defs>
  <g id="Layer_1-2" data-name="Layer 1">
    <g>
      <path class="cls-2" d="M99.02,56.23c-.16-.11-.32-.22-.42-.39-.13-.21-.14-.47-.12-.72.11-1.17.87-2.15,1.55-3.11,1.41-1.97,5.08-6.22,1.69-7.8-1.82-.97-5.93-1.43-4.57-4.35.9-2.08,4.18-3.97,3.24-6.65-.89-2.29-3.37-3.07-5.53-3.82-3.51-1.22.36-7.31-3.41-8.37-.81-.23-1.69-.23-2.45-.6-1.91-.94-1.52-3.73-2.81-5.27-1.18-1.41-3.23-1.26-4.46.05-.71.76-1.11,1.76-1.45,2.75-.41,1.2-1.03,1.59-1.91,2.36-.84.75-2.22,1.32-3.31,1.79-5.69,2.44,1.9,11.62-2.14,12.82-.93.24-2.29-.08-3.18.42-1.32.68-1.64,2.39-1.42,3.78.17,2.98,3.78,6.06,2.01,8.74-2.11,1.26-4.38-1.54-6.81-1.05-5.81,1.29-1.26,8.68.58,11.48.54.92,1.24,3.18-.37,3.25-1.95-.47-3.12-2.54-5.09-2.99-.78-.18-1.65-.08-2.31.37-2.19,1.49-1.15,5.08-.68,7.13.16.69.32,1.38.53,2.05.64,2.04,1.89,4.07,2.35,6.12.1.44.19.9.13,1.35-.06.45-.28.9-.67,1.13-1.2.69-2.94-1.99-3.77-2.73-.35-.31-.71-.63-1.06-.94-.71-.63-1.45-1.27-2.36-1.52-1.6-.42-2.64,1.24-3.01,2.65-.1.39-.09.8-.04,1.2.22,2.06.69,3.5,1.45,5.38.57,1.42,1.51,2.74,1.83,4.25.27,1.3-.45,1.45-1.6.93-1.18-.54-1.73-1.78-2.62-2.65-1.43-1.4-3.29-.92-4.22.89-.62,1.2-.69,2.62-.47,3.95.3,1.74,1.13,3.23,2,4.73.47.81,2.14,2.95,1.4,3.82-.16.19-.4.3-.64.38-.99.33-2.09.22-3.1.5-1.44.39-2.63,1.58-3.01,3.02-1.08,4.1,4.17,5.55,6.77,7.47,2.7,1.99,5.13,4.85,3.43,8.32-1.08,2.2-4.93,4.76-4.01,7.57,1,3.05,6.47,4.83,8.92,2.58,2.85-2.63,3.59-7.09,6.82-9.32,1.99-1.37,4.56-1.46,6.98-1.5,1.82-.03,3.64-.06,5.46-.09,2.5-.04,6.33-.08,7.67-2.68.3-.57.45-1.23.35-1.87-.21-1.31-1.45-2.08-1.93-3.24-.43-1.06.26-2.3,1.24-2.89.98-.59,2.16-.7,3.3-.85,2.2-.29,4.38-.76,6.51-1.4,1.7-.52,3.28-.74,3.55-2.81.43-3.2-4.04-3.54-5.6-4.8-1.85-1.9,1.78-2.99,3.32-3.32,7.25-1.08,13.98-9.78,2.55-10.07-2.09-.33-.04-1.72.81-2.14,2.5-1.25,5.22-1.9,6.8-4.43.67-1.08,1.03-2.49.55-3.62-.06-.15-.14-.29-.23-.43-1.03-1.51-3.1-1.65-4.69-1.99-.79-.17-2.11-.34-2.19-1.27.1-.77.99-1.27,1.64-1.67,2.08-1.12,4.71-1.98,5.75-4.22,1.34-3.32-1.11-4.09-3.49-5.7ZM83.87,53.84c-.23,2.01-.58,4.01-1.03,5.98-1.05,4.66-2.63,9.22-4.4,13.68-1.68,4.23-3.72,8.77-6.65,12.37-2.78,3.41-5.08,7.16-7.98,10.59-1.57,1.86-2.89,4.04-4.15,6.11-.7,1.16-1.03,2.72-1.45,4.01-.27.84-.35,1.68-.77,2.5-.04.07-.07.14-.14.19-.18.14-.47,0-.55-.2-.09-.2-.04-.44,0-.65.34-1.55.56-3.07,1-4.59.44-1.54.87-3.08,1.45-4.57,1.5-3.86,4.7-7.29,7.02-10.75,2.6-3.87,5.1-7.79,7.52-11.77,1.25-2.05,2.47-4.12,3.42-6.32,1.63-3.77,2.32-7.96,3.53-11.87,1.3-4.18,1.92-8.61,2.18-12.95.14-2.35.36-4.69.53-7.04.07-1.03-.23-6.71.52-7.24.36-.26.71.35.73.78.3,7.25.03,14.53-.79,21.74Z"/>
      <rect class="cls-1" width="141.73" height="141.73"/>
    </g>
  </g>
</svg>