<?xml version="1.0" encoding="UTF-8"?>
<svg id="Layer_2" data-name="Layer 2" xmlns="http://www.w3.org/2000/svg" viewBox="0 0 417.74 107.72">
  <defs>
    <style>
      .cls-1 {
        fill: #8accff;
      }
    </style>
  </defs>
  <g id="Layer_1-2" data-name="Layer 1">
    <g>
      <g>
        <path class="cls-1" d="M56.7,49.66c-.05-2.25-.05-9.83-5.19-16.87-9-12.31-25.21-16.53-39.81-15.5-3.35.24-8.45-.06-9.58,3.95-.98,3.5,1.03,6.83,1.58,10.17,1.24,7.56-.01,15.63-1.44,23.07-1.11,5.76-3.43,12.91-1.54,18.73.78,2.4,2.14,3.33,2.43,3.51,2.33,1.49,5.38.63,6.25.4,11.21-2.9,26.65,5.1,37.95-3.76,9.54-7.48,9.4-21.69,9.35-23.72ZM41.16,63.74c-.5-.48-.8-1.25-.86-1.91-.03-.31.02-1.55.62-1.33,0,0,.04.02.04.02.32.1.4.76.53.98.19.32.38.64.55.98-.28.44-.57.86-.88,1.26ZM38.79,43.14c-.5-.48-.95-1.06-1.31-1.64-.17-.27-.47-.71-.43-1.06.05-.35.39-.61.71-.29.75.75,1.35,1.73,1.92,2.63.14.22.28.45.36.7.26.83-.68,1.15-1.29,1.33-.09.03-.2.06-.32.1-.55.18-1.37.44-1.72.04-.27-.31.05-.67.38-.78.41-.14,1.69-.02,1.9-.55.07-.17-.07-.35-.2-.48ZM36.92,51.24c.17-.61.51-.05.85.05.16.05.33.03.49.04.69.05,1.29.75,1.57,1.34.12.25.11.54-.22.67-.69.29-1.95-.83-2.36-1.29-.16-.18-.41-.56-.33-.82ZM40.15,47.21c.08-.42,1.04-.59,1.39-.73.13-.05.27-.1.41-.12.16-.02.31.02.47.05.22.05.44.09.67.14.53.11.79.72.23,1.03-.36.2-.8.02-1.22.02-.37,0-.72.16-1.09.2-.34.03-.94-.14-.85-.59ZM45.28,52.92c-.33-.23-.65-.47-.98-.7-.39-.28-.9-.98-.04-.82.3.07.72.17,1.13.29-.03.41-.07.82-.12,1.22ZM14.83,68.13c-1.82-.38-2.75-.58-3.37-1.02-7.05-5.03,3.64-24.88,2.9-39.33-.02-.34-.07-1.21.48-1.92,2.89-3.71,20.61-.39,27.5,11.55,1.07,1.86,1.86,3.9,2.38,6.01-.82-.08-1.41-.39-2.07-1-.94-.87-2.13-1.74-2.85-2.82-.98-.88-1.89-1.95-3-2.59l-.05-.02c-.71-.27-1.86-.85-2.53-.31-.84.87-.89,3.99-1.25,5.59-.04.16-.11.37-.23.44-.17.13-.45-.03-.61-.16-1.2-.76-4.91-5.76-6.07-3.22-.42,1.52-.28,3.27-.74,4.8-.38,3.39.19,3.19-2.51,5.74-1.81,1.75-3.89,3.33-6.03,4.67-1.39.82-3.61,1.46-3.7,3.32-.01.24.21,1.09.4,1.23.04.03.09.06.14.06.48-.01.16-1.29.27-1.54.13-.28.46-.38.76-.45.27-.06.55-.13.82-.19.29-.07.64-.12.84.11.18.21.1.54,0,.8-.3.69-.87,1.34-1.67,1.41-1.03.08-.77.47-.6,1.28.19.88.46,1.86,1.07,2.57.6.74,1.8.46,2.46,1.21.08.09.15.18.25.24.12.07.27.08.41.08.86-.02,1.64-.45,2.52-.28.49.1,1.11.31,1.64.25.34-.02.64-.16.98-.18.6-.05,1.44.34,2.1.45.56.14.98-.3,1.47-.47.35-.09.72.26,1.15.18.44-.07.83-.42,1.27-.46.43-.04.71.34,1.07.52.48.26.94-.09,1.41-.14.4-.03.82.07,1.23.12.72.12,1.21.2,1.84.03.43-.12.98-.39,1.27.09.27.38.39.93.53,1.34.14.37.68.65,1.1.81.02,0,.03.01.05.02-.01.01-.03.02-.04.03-6.67,4.58-16.68,2.48-22.97,1.16ZM35.02,57.97c0,.09,0,.18-.01.27-.04.22-.27.35-.49.36-.23.01-.43-.07-.61-.22-.52-.44-.79-1.41-1.04-1.93-.15-.33.04-.92.46-.95.25-.01.45.21.61.41.33.43.67.86,1,1.29.06.07.12.15.14.24.05.17-.04.35-.06.52ZM29.24,53.21c-.41.19-1.07.42-1.51.29-.15-.04-.23-.11-.29-.2-.09-.14-.09-.32-.1-.52-.05-1.12-.28-1.75.81-2.32.72-.37,2.03-1.34,2.81-.58.74.72.16,1.82-.42,2.41-.37.38-.81.7-1.29.92ZM29.61,59.69c-.01.16,0,.32-.01.48-.02.21-.09.42-.17.62-.05.13-.09.26-.17.37-.25.37-.89.5-1.15.09-.2-.32.02-.92.08-1.26.07-.39.25-.83.45-1.23.09-.19.18-.36.27-.53.06-.13.14-.25.25-.34.11-.09.26-.14.4-.09.15.06.23.22.26.37.11.5-.16,1-.2,1.51Z"/>
        <path class="cls-1" d="M30.49,50.49l-.03-.03c-.23-.09-.51.03-.76.06-.53.13-1.12.3-1.55.65-.41.34-.19,1.04-.22,1.52,0,.45.57.11.49-.23-.18-.78,0-1.24.74-1.53.17-.07.35-.12.44.09.14.21.24.8.52.64.25-.14.68-.93.37-1.19Z"/>
      </g>
      <path class="cls-1" d="M187.84,35.03c1.62-2.17,3.85-3.73,6.22-3.56,3,.21,4.29,3.55,4.44,6.13.36,5.9-.34,12.13-.86,18.02-.69,7.89-1.98,15.78-1.99,23.71,0,1.14.03,3.61,1.48,4.46,1.96,1.14,4.97-1.16,9.85-4.01,3.93-2.3,9.78-4.39,13.97-2.12,2.91,1.57,5.64,5.72,4.26,9.63-1.37,3.86-6.17,5.85-8.75,4.8-1.43-.58-1.78-1.73-4.28-3.26-1.09-.66-2.11-1.01-3.1-1.12-2.73-.31-3.81,1.28-9.1,3.03-1.89.63-4.34,1.32-6.33.89-3.26-.71-4.95-3.31-5.17-6.54-.37-5.45.56-11.06.85-16.51,0-4.82-.13-9.69-.67-14.48-.44-3.9-2.14-6.83-3.16-10.53-.67-2.42.38-5.92,2.33-8.54Z"/>
      <path class="cls-1" d="M201.99,53.05c.45-.16,1.04-.18,1.8-.02,1.35.29,2.94,1.08,3.96,2.03.45.42.75,1.1.91,2.09.4,2.5-.66,5.38-1.01,7.96-.56,4.1,1.11,4.19.25,7.16-.87,3.03-3.52,6.16-6.16,6.06-.24,0-.81-.04-1.39-.36-4.04-2.24.55-13.33.3-21.7-.05-1.59.26-2.82,1.34-3.21Z"/>
      <path class="cls-1" d="M213.6,49.96c.06-.08.12-.15.18-.23.63-.72,1.78-1.23,2.74-.98.82.21,1.11.95,2.09.84,1.63-.2,3.04-2.24,4.63-2.8,3.55-1.25,7.89.11,10.42,2.55.35.34.8.78,1.24,1.49,1.38,2.22.77,4.97,1.21,7.44.52,2.89,1.81,5.39,3.05,8.03,1.19,2.54,2.44,6.02.69,8.6-1.47,2.16-4.35,4.24-7.1,3.26-1.9-.68-2.64-3.04-3.17-4.73-.69-2.21-.7-4.06-.41-7.87.62-8.13,1.4-9.85.1-11.15-1.42-1.42-4.22-1.25-6.03-.41-2.05.95-2.97,2.84-3.17,3.26-1.07,2.34-.53,4.74.33,7.05.83,2.25,2.3,4.77,1.99,7.27-.25,1.98-2.04,3.28-3.91,3.44-1.02.09-2.05-.11-3.05-.31-1.13-.22-2.28-.47-3.24-1.09-2.64-1.7-1.6-6-1.02-8.54.68-2.99,1.06-5.95,1.54-8.98.3-1.91-.27-4.51.89-6.14Z"/>
      <path class="cls-1" d="M119.39,52.41c1.19-.16,2.17.22,2.53,1.66.66,2.66-1.13,5.36-1.16,7.99-.03,2.34.73,4.65,1.64,6.77,1.65,3.86,3.98,6.66,6.45,9.91,2.07,2.73,4.22,5.13,5.13,8.52.32,1.22.73,2.73.62,4.56-.4,7.14-8.21,15-16.29,14.7-5.67-.21-10.11-4.41-10.33-4.69-1.84-2.32-3.79-4.56-5.85-6.69-1.77-1.84-4.06-2.56-6.61-2.8-5.75-.54-9.09,2.47-11.87.03-2.2-1.94-2.9-4.44-2.3-7.34.39-1.86,1.44-3.62,3.03-4.67,3.39-2.24,9.08-.73,12.43.83,4.08,1.9,7.62,4.85,10.3,8.46,2.3,3.08,4.65,7.96,9.08,8.07,2.29.06,3.98-1.4,5.05-3.38,3.22-5.95-.5-12.06-2.93-17.62-1.92-4.37-4.44-8.57-5.48-13.28-.65-2.94-.87-7.5,2.08-9.35,1.28-.8,2.97-1.48,4.47-1.68Z"/>
      <path class="cls-1" d="M85.73,73.77c-.51-1.49-2.37-2.09-3.37-3.28-1.49-1.77-.7-4.13.03-6.04,1.07-2.79,2.43-5.61,1.73-8.68-1.03-4.52-5.8-7.75-10.1-8.54-5.91-1.09-16.65-1.52-15.5,7.26.11.83.35,1.71.99,2.25.31.26.7.43,1.09.53,2.48.66,3.56-.94,5.64-1.81,2-.83,8.62-2.09,8.72,1.55.08,2.91-3.89,3.32-5.94,2.7-4.53-1.37-9.48-.83-12.01,3.61-1.93,3.4-2.13,8.15.24,11.39,2.08,2.85,5.85,3.84,9.21,3.94,1.56.05,3.15-.08,4.66-.46,1.41-.35,2.58-1.08,3.99-1.37.85-.18,1.83.03,2.51.58.78.63,1.09,1.26,2.2,1.32,1.22.06,2.53-.35,3.58-.96,1.18-.69,2.46-1.71,2.45-3.2,0-.29-.05-.55-.13-.79ZM72.54,66.65c.12.48-.02.71-.08,1.4-.12,1.42.62,1.95.23,2.86-.16.36-.4.57-.57.72-1.26,1.09-4.52,1.57-6.21-.49-1.06-1.29-1.33-3.37-.32-4.78,1.61-2.27,5.17-.94,6.07-.56.56.23.8.51.88.85Z"/>
      <path class="cls-1" d="M203.99,49.73c.45.26.97.46,1.46.6,3.21.94,6.06-1.47,5.51-4.86-.13-.8-.48-1.59-1.09-2.13-2.32-2.07-5.67-.88-7.05,1.63-.88,1.61-.45,3.82,1.17,4.76Z"/>
      <path class="cls-1" d="M115.23,49.73c.45.26.97.46,1.46.6,3.21.94,6.06-1.47,5.51-4.86-.13-.8-.48-1.59-1.09-2.13-2.32-2.07-5.67-.88-7.05,1.63-.88,1.61-.45,3.82,1.17,4.76Z"/>
      <path class="cls-1" d="M151.05,67.64c-1.84-.78-3.64-.28-5.51.23-2.95.81-3.62,1.98-6.74,2.53-2.55.45-3.32-.06-3.53-.23-1.27-.96-1.57-3.23-.65-4.54.7-.99,1.95-1.23,3.07-1.36,6.31-.71,8.56,2.04,11.84.9,3.14-1.09,5.05-4.98,5.26-8.25.03-.47.22-4.22-2.42-7.21-4.23-4.8-11.96-3.14-13.62-2.78-4.34.94-7.94,3.75-10.3,7.45-2.67,4.17-3.57,8.72-2.41,13.56,1.04,4.33,3.71,8.79,8.37,9.79,1.04.22,2.12.25,3.18.14,2.87-.31,6.52-2.27,9.31-.59,1.35.81,2,1.39,3.29,1.3,2.11-.14,4.4-2.45,4.58-5.2.18-2.72-1.78-4.93-3.72-5.74ZM137.79,58.47c-.8.16-2.71.62-2.66-.7.03-.67.43-1.49.78-2.04.73-1.15,1.87-2.11,3.06-2.75,1.81-.97,4.35-.64,5.31,1.31.39.8.56,1.73.33,2.58-.24.85-.93,1.6-1.8,1.77-1.65.31-3.3-.49-4.96-.18-.02,0-.04,0-.06.01Z"/>
      <path class="cls-1" d="M91.42,48.95c.32.24.65.56,1.02.95.66.67,1.77.25,2.6-.19,3.88-2.07,11.3-5.69,14.61-.98,1.08,1.55,1.09,3.58.97,5.47-.14,2.25-1.76,5.34-4.58,4.66-1.08-.26-1.95-1.06-2.76-1.81-1.89-1.75-5.1-2.07-7-.16-2.42,2.43-.8,7.15.06,9.97.53,1.74,1.05,3.47,1.58,5.21.63,2.08.77,4.5-1.59,5.47-.93.38-1.97.44-2.98.44-.69,0-1.38-.03-2.06-.18-3.91-.93-4.51-4.8-3.97-8.21.68-4.36,2.94-8.98.91-13.34-.63-1.36-2.04-2.36-2.5-3.8-.64-2.04,1.26-2.67,2.82-3.46,1.36-.68,2.1-.58,2.86-.02Z"/>
      <path class="cls-1" d="M281.18,88.45c-.9-3.4-3.06-5.79-5.13-8.52-4.24-5.59-8.58-10.56-7.41-18.09.54-3.48,4.15-8.67,2.02-12.04-1.31-2.07-4.9-3.29-7.11-2.26-1.64.76-2.25.83-4,.33-1.49-.42-2.89-1.1-4.44-1.29-6.18-.79-12.01,1.79-13.93,8.01-1.3,4.21-.68,8.89.82,12.96,2.15,5.8,5.55,10.94,12.26,10.89,2.77-.02,5.22-.67,7.71-2,1.63-.87,2.6.72,3.43,1.91,1.08,1.55,1.86,3.31,2.57,5.05,1.6,3.91,2.6,8.21.47,12.13-1.07,1.98-2.76,3.44-5.05,3.38-4.43-.11-6.78-4.99-9.08-8.07-2.69-3.6-6.22-6.56-10.3-8.46-3.35-1.55-9.04-3.07-12.43-.83-1.59,1.05-2.64,2.8-3.03,4.67-.6,2.9.1,5.41,2.3,7.34,2.78,2.45,6.12-.57,11.87-.03,2.54.24,4.83.96,6.61,2.8,2.06,2.13,4.01,4.37,5.85,6.69.22.27,4.66,4.47,10.33,4.69,8.08.31,15.89-7.55,16.29-14.7.1-1.83-.3-3.34-.62-4.56ZM260.07,68.72c-.75,1.15-2.57,1.58-3.91,1.23-1.21-.32-2.23-1.11-3.03-2.05-1.79-2.12-2.7-5.12-2.57-7.88.07-1.48.5-4.08,2.64-5.33,2.43-1.42,6.09-.42,7.18,1.55,1.12,2.02-1.31,3.54-.77,7.9.29,2.37,1.21,3.43.46,4.57Z"/>
      <path class="cls-1" d="M361.45,73.09c-.51-1.49-2.37-2.09-3.37-3.28-1.49-1.77-.7-4.13.03-6.04,1.07-2.79,2.43-5.61,1.73-8.68-1.03-4.52-5.8-7.75-10.1-8.54-5.91-1.09-16.65-1.52-15.5,7.26.11.83.35,1.71.99,2.25.31.26.7.43,1.09.53,2.48.66,3.56-.94,5.64-1.81,2-.83,8.62-2.09,8.72,1.55.08,2.91-3.89,3.32-5.94,2.7-4.53-1.37-9.48-.83-12.01,3.61-1.93,3.4-2.13,8.15.24,11.39,2.08,2.85,5.85,3.84,9.21,3.94,1.56.05,3.15-.08,4.66-.46,1.41-.35,2.58-1.08,3.99-1.37.85-.18,1.83.03,2.51.58.78.63,1.09,1.26,2.2,1.32,1.22.06,2.53-.35,3.58-.96,1.18-.69,2.46-1.71,2.45-3.2,0-.29-.05-.55-.13-.79ZM348.26,65.97c.12.48-.02.71-.08,1.4-.12,1.42.62,1.95.23,2.86-.16.36-.4.57-.57.72-1.26,1.09-4.52,1.57-6.21-.49-1.06-1.29-1.33-3.37-.32-4.78,1.61-2.27,5.17-.94,6.07-.56.56.23.8.51.88.85Z"/>
      <path class="cls-1" d="M182.02,67.64c-1.84-.78-3.64-.28-5.51.23-2.95.81-3.62,1.98-6.74,2.53-2.55.45-3.32-.06-3.53-.23-1.27-.96-1.57-3.23-.65-4.54.7-.99,1.95-1.23,3.07-1.36,6.31-.71,8.56,2.04,11.84.9,3.14-1.09,5.05-4.98,5.26-8.25.03-.47.22-4.22-2.42-7.21-4.23-4.8-11.96-3.14-13.62-2.78-4.34.94-7.94,3.75-10.3,7.45-2.67,4.17-3.57,8.72-2.41,13.56,1.04,4.33,3.71,8.79,8.37,9.79,1.04.22,2.12.25,3.18.14,2.87-.31,6.52-2.27,9.31-.59,1.35.81,2,1.39,3.29,1.3,2.11-.14,4.4-2.45,4.58-5.2.18-2.72-1.78-4.93-3.72-5.74ZM168.76,58.47c-.8.16-2.71.62-2.66-.7.03-.67.43-1.49.78-2.04.73-1.15,1.87-2.11,3.06-2.75,1.81-.97,4.35-.64,5.31,1.31.39.8.56,1.73.33,2.58-.24.85-.93,1.6-1.8,1.77-1.65.31-3.3-.49-4.96-.18-.02,0-.04,0-.06.01Z"/>
      <path class="cls-1" d="M391.01,50.12c-.83.87-1.58,1.81-2.17,2.9-1.5,2.75-2.13,5.9-2.39,9-.7,8.32,5.78,16.21,6.78,17.43,1.56,1.9,4,4.3,5.13,8.52.32,1.22.73,2.73.62,4.56-.4,7.14-8.21,15-16.29,14.7-5.67-.21-10.11-4.41-10.33-4.69-1.84-2.32-3.79-4.56-5.85-6.69-1.77-1.84-4.06-2.56-6.61-2.8-5.75-.54-9.09,2.47-11.87.03-2.2-1.94-2.9-4.44-2.3-7.34.39-1.86,1.44-3.62,3.03-4.67,3.39-2.24,9.08-.73,12.43.83,4.08,1.9,7.62,4.85,10.3,8.46,2.3,3.08,4.65,7.96,9.08,8.07,2.29.06,3.98-1.4,5.05-3.38,3.22-5.95-.5-12.06-2.93-17.62-.63-1.45-1.86-2.82-3.62-2.42-.76.17-1.41.65-2.07,1.06-3.33,2.11-7.86,2.25-11.11-.1-4.23-3.06-3.72-9.07-2.92-13.72.53-3.08,1.24-6.41-.45-9.29-.69-1.17-1.99-1.95-2.54-3.22-2.2-5.03,6.87-8.23,10.2-5.67.65.5,1.07,1.24,1.4,1.99,1.59,3.53,1.56,7.57.18,11.16-.86,2.23-3.46,6.72-1.59,8.93.91,1.08,2.58,1.26,3.03,1.31,1.46.16,3.11-.27,4.18-1.2,1.95-1.7,1.03-4.26,1.65-10.21.35-3.42.59-6.87,1.47-10.21.93-3.54,2.46-7.19,6.54-7.59,2.95-.29,6.73,1.74,8.04,4.4,1.75,3.53-2.01,5.3-4.06,7.46Z"/>
      <g>
        <path class="cls-1" d="M12.79,1.95l-2.31.07-.06-1.81,6.65-.21.06,1.81-2.33.07.28,8.9-2.01.06-.28-8.9Z"/>
        <path class="cls-1" d="M19.53.07l1.99.23-.49,4.23,4.42.51.49-4.23,2.01.23-1.23,10.64-2.01-.23.52-4.51-4.42-.51-.52,4.51-1.99-.23L19.53.07Z"/>
        <path class="cls-1" d="M29.78,10.82c-.57-1.26-.64-2.82-.21-4.26.43-1.44,1.3-2.62,2.46-3.35,1.3-.81,2.87-.97,4.56-.46,1.69.5,2.91,1.51,3.55,2.9.58,1.23.66,2.71.23,4.17-.43,1.42-1.34,2.67-2.51,3.41-1.31.84-2.88,1.01-4.54.51-1.66-.5-2.88-1.5-3.53-2.93ZM33.87,11.74l.06.02c2.32.69,3.84-.21,4.52-2.49.68-2.26-.09-3.81-2.46-4.51-2.34-.7-3.87.19-4.53,2.42-.69,2.31.06,3.86,2.41,4.56Z"/>
        <path class="cls-1" d="M39.85,15.2l.85-1.65c.59.3,1.09,1.43,1.99,1.89.99.52,1.82.46,2.26-.4.53-1.02-.52-2.13-.88-2.51-1.01-1.09-1.83-2.31-.99-3.93.89-1.72,2.75-2.22,4.62-1.25,1.04.54,1.83,1.41,2.18,1.86l-.85,1.63c-.48-.25-1.08-1.41-1.96-1.86-.84-.44-1.65-.37-2.04.36-.47.91.35,1.77,1.2,2.75,1.11,1.26,1.36,2.41.7,3.68-.55,1.06-2.3,2.71-4.94,1.34-1.02-.53-1.82-1.46-2.17-1.92Z"/>
        <path class="cls-1" d="M52.97,10.76l4.29,3.2-.96,1.29-1.77-1.32c-.66-.5-1.38-.36-1.92.37-.64.86-.33,1.57.19,1.96l1.62,1.21-.97,1.3-1.62-1.21c-.68-.5-1.41-.36-1.96.37-.43.58-.62,1.42.18,2.01l1.77,1.32-.96,1.29-4.29-3.2,6.41-8.59Z"/>
      </g>
      <path class="cls-1" d="M405.37,54.04s-.1-.06-.15-.1c-3.16-1.91-5.82,2.32-4.22,4.84,2.05,3.23,10.56-1.34,14.68,2.28,3,2.64,2.52,8.62-.02,12.3-4.84,7.01-20.85,7.86-24.29-1.04-.33-.85-.39-1.85-.39-1.85-.05-.6-.19-2.3.51-3.35,1.34-2.01,6.04-2.1,7.76-.1,1.03,1.2.57,2.65,2.18,4.2.45.44,1.04.9,1.78,1.05,3.05.61,6.29-3.88,4.5-6.54-1.68-2.48-7.2.7-11.71-2.46-2.22-1.55-3.6-4.23-3.53-6.82.13-4.54,4.63-7.11,5.48-7.6,4.08-2.34,8.02-2.15,9.68-2,1.99.19,6.89.65,8.84,4.11.25.44,1.22,2.17.58,4.04-.77,2.22-3.23,2.85-3.36,2.88-2.18.52-4.45-.66-5.49-1.61-1.38-1.27-1.86-1.6-2.84-2.24Z"/>
      <path class="cls-1" d="M326.6,32.8c-9-12.31-25.21-16.53-39.81-15.5-3.35.24-8.45-.06-9.58,3.95-.98,3.5,1.03,6.83,1.58,10.17,1.24,7.56-.01,15.63-1.44,23.07-1.11,5.76-3.43,12.91-1.54,18.73.78,2.4,2.14,3.33,2.43,3.51,2.33,1.49,5.38.63,6.25.4,11.21-2.9,26.65,5.1,37.95-3.76,9.54-7.48,9.4-21.69,9.35-23.72-.05-2.25-.05-9.83-5.19-16.87ZM286.56,67.11c-7.05-5.03,3.64-24.88,2.9-39.33-.02-.34-.07-1.21.48-1.92,2.89-3.71,20.61-.39,27.5,11.55,5.59,9.69,3.47,24.06-4.54,29.56-6.67,4.58-16.68,2.48-22.97,1.16-1.82-.38-2.75-.58-3.37-1.02Z"/>
    </g>
  </g>
</svg>