<?xml version="1.0" encoding="UTF-8"?>
<svg id="Layer_2" data-name="Layer 2" xmlns="http://www.w3.org/2000/svg" viewBox="0 0 47.63 180.71">
  <defs>
    <style>
      .cls-1 {
        fill: #3d6be3;
      }
    </style>
  </defs>
  <g id="Layer_1-2" data-name="Layer 1">
    <g>
      <path class="cls-1" d="M14.18,42c.6.95,1.34,1.81,2.2,2.57.78-.3,1.58-.58,2.39-.82,2.52-.75,4.6-1.05,6.26-1.23,1.06-1.24,1.94-2.6,2.57-4.06.38-.88.55-1.47,1.17-3.86.4-1.53.71-2.73.95-3.69-1.44-2.84-3.22-5.43-5.33-7.7-2.02-2.18-4.61-4.08-7.28-5.36-1.79-.86-2.92-1.11-3.46-.77-.48.3-.64,1.08-.72,1.46-.54,2.64-.6,5.82-.17,8.95.46,3.32.37,6.79-.25,10.36.39,1.44.76,2.69,1.67,4.13ZM17.45,22.85c.49,2.08,1.15,4.15,1.97,6.15.38.92.7,1.62.99,2.24.47,1.02.85,1.83,1.17,3.03.6,2.21.7,4.61.3,7.13l-1.5-.24c.37-2.31.28-4.5-.26-6.5-.29-1.07-.63-1.79-1.09-2.78-.29-.63-.63-1.35-1.02-2.3-.84-2.07-1.53-4.21-2.04-6.37l1.48-.35Z"/>
      <path class="cls-1" d="M34.8,47.76c.74-.84,1.45-1.72,2.1-2.63-.52-.13-1.05-.25-1.58-.35-3.39-.63-6.07-.37-8.92-.1-1.71.16-4.06.38-7,1.26-.96.29-1.95.63-2.84,1-1.27.52-2.5,1.12-3.69,1.8,1.04.67,2.1,1.31,3.17,1.93,1.11.64,2.25,1.27,3.39,1.87l.5.26,1.53,8.91c.07-.01.13-.02.2-.04,4.16-.73,7.96.09,11.13,1.44l-1.64-11.85.47-.4c1.12-.96,2.19-2,3.16-3.1ZM29.91,52.07c-.42-.04-.83-.05-1.25-.05h-.02c-1.72,0-3.07.33-4.49.68-.84.21-1.69.45-2.53.72l-.47-1.44c.87-.28,1.76-.53,2.64-.75,1.52-.37,2.95-.72,4.85-.72h.02c.45,0,.92.02,1.38.06l-.13,1.51ZM31.15,48.39c-1.72-.14-3.01.03-4.51.23l-.18.02c-1.92.26-3.74.5-5.96,1.34-.56.21-1.12.45-1.67.71l-.66-1.37c.58-.28,1.18-.54,1.79-.76,2.38-.9,4.37-1.16,6.29-1.42l.18-.02c1.52-.2,2.96-.4,4.84-.24.57.05,1.15.12,1.73.23l-.27,1.49c-.53-.1-1.06-.17-1.58-.21Z"/>
      <path class="cls-1" d="M35.65,21.74c-1.35,2.16-2.03,4.02-2.44,5.13-.34.94-.47,1.45-1.21,4.3-.26,1.01-.59,2.31-1.04,4.01-.64,2.48-.83,3.17-1.29,4.2-.44.99-.97,1.95-1.59,2.86,2.3-.18,4.75-.24,7.64.3.57.11,1.14.23,1.7.37.48-.98.86-2,1.14-3.05.57-2.17.5-3.8.4-6.26-.03-.84-.07-1.76-.09-2.82-.05-3.42-.09-5.31.28-7.64.52-3.35,1.59-6,2.38-7.85-.09.07-.18.15-.27.22-1.55,1.29-3.67,3.07-5.64,6.22ZM37.19,30.75c.03.71.08,1.34.13,1.92.13,1.55.24,2.89-.15,4.62-.35,1.55-1.01,3.03-1.96,4.42l-1.25-.86c.84-1.22,1.43-2.53,1.73-3.89.34-1.5.25-2.62.12-4.16-.05-.6-.1-1.24-.14-1.98-.1-2.26.03-4.6.39-6.95l1.5.23c-.35,2.25-.48,4.49-.38,6.65Z"/>
      <path class="cls-1" d="M12.65,5.37c-.84,1.52-2.37,4.97-3.3,11.12-.48,3.16-.69,6.41-.64,9.68.61,1.1,1.04,2.14,1.36,2.93.1.24.29.89.71,2.42-.01-1.24-.1-2.46-.26-3.64-.48-3.42-.41-6.87.19-9.76.12-.57.43-2.1,1.73-2.92,1.64-1.04,3.78-.26,5.65.64,2.92,1.4,5.75,3.48,7.97,5.86,1.7,1.83,3.2,3.86,4.5,6.04.19-.68.32-1.08.52-1.63.35-.95.89-2.42,1.84-4.17-1.33-3.91-2.95-7.71-4.84-11.3-1.64-3.1-3.25-5.63-5.8-7.92C20.3.94,18.99-.14,17.53.01c-2.06.2-3.56,2.94-4.89,5.36ZM14.73,11.29c-.04.72-.04,1.44,0,2.15l-1.51.08c-.04-.77-.04-1.55,0-2.32.06-1.1.21-2.21.45-3.3l1.48.32c-.22,1.01-.36,2.04-.41,3.07ZM23.51,7.66c.91,1.41,1.75,2.9,2.48,4.41,1.48,3.04,2.59,6.28,3.29,9.63l-1.48.31c-.68-3.22-1.75-6.35-3.17-9.28-.71-1.46-1.51-2.89-2.39-4.25l1.27-.82ZM19.16,3.87c.17,1.85.41,3.72.74,5.56.33,1.86.74,3.73,1.23,5.56l-1.47.39c-.5-1.87-.92-3.78-1.26-5.69-.33-1.87-.58-3.79-.75-5.69l1.51-.13Z"/>
      <path class="cls-1" d="M46.69,178.2c-2.81-20.69-4.63-34.88-5.41-42.18-.02-.16-1.69-15.85-2.44-21.21-.18-.9-.23-1.78-.26-2.64-.02-.53-.05-1.08-.11-1.64-.03-.23-.06-.48-.1-.71-.04-.21-.08-.42-.13-.64-.05-.2-.09-.3-.12-.35-.09,0-.28.02-.63.11-.24.06-.45.11-.63.16-.4.13-.67.22-.83.31-.02.01-.03.02-.05.03-.03.02-.06.04-.08.07,0,.01-.01.03-.02.04-.01.09-.07.48.05,1.46.05.26.1.52.16.78.12.54.25,1.16.34,1.8,0,.03.04.22.08.53.11.72.15,1.31.18,2.03.01.24.03.49.04.76.11,2.39.18,5.07-.65,8.31-.29,1.49-.75,3.1-1.7,4.85-.46.85-1.01,1.67-1.59,2.46,0,.01-.02.03-.03.04-.1.14-.21.28-.32.42-.03.04-.06.08-.09.13-.42.56-.86,1.11-1.34,1.63-.01,1.53,0,3.06.03,4.59.01.68.04,1.36.05,2.05.03,1.1.06,2.2.11,3.3.03.7.07,1.4.11,2.09.06,1.09.13,2.19.21,3.28.05.69.1,1.37.16,2.06.09,1.1.19,2.19.3,3.28.07.69.14,1.37.21,2.06.17,1.54.36,3.07.56,4.61.02.16.04.31.06.46.22,1.55.46,3.1.71,4.65.09.52.17,1.03.25,1.51.24,1.42.5,2.83.77,4.25.05.27.1.52.15.77.34,1.69.69,3.36,1.07,5.03l10.91-.55ZM39.48,136.12l5.13,38.34-1.5.2-5.13-38.34,1.5-.2ZM37.7,143.06l1.62,14.8-1.51.17-1.62-14.8,1.51-.17Z"/>
      <path class="cls-1" d="M7.79,37.38c.18.98.28,1.78.37,2.48.2,1.56.32,2.5,1.03,3.85.61,1.15,1.46,2.18,2.5,3.09.78-.45,1.58-.87,2.4-1.26-.69-.72-1.32-1.49-1.84-2.32-1.14-1.81-1.58-3.41-2-4.96-1.3-4.78-2.15-7.92-2.3-8.31-.81-1.97-2.16-5.26-5.31-6.9-.87-.45-1.83-.75-2.64-.92.79.79,2.25,2.38,4.21,5.08,2.33,3.22,2.94,6.59,3.58,10.16Z"/>
      <path class="cls-1" d="M23.93,179.75c4.15.67,8.85,1.44,9.67.57.06-.06.07-.17.08-.28-.4-1.83-.76-3.6-1.1-5.38-.02-.11-.04-.23-.07-.34-.68-3.39-1.26-6.8-1.76-10.21-.03-.2-.06-.39-.09-.59-.07-.5-.14-1-.21-1.49-.09-.67-.18-1.35-.27-2.05-.02-.17-.04-.33-.06-.5-.03-.24-.06-.47-.09-.71-.02-.14-.03-.28-.04-.41-.05-.47-.11-.95-.16-1.42-.05-.43-.08-.86-.12-1.29-.11-1.09-.21-2.19-.3-3.29-.06-.7-.11-1.41-.16-2.11-.08-1.1-.15-2.2-.21-3.3-.04-.71-.08-1.42-.11-2.13-.05-1.11-.08-2.23-.12-3.35-.02-.69-.04-1.37-.05-2.06,0-.22-.01-.44-.02-.66,0-.51,0-1.02-.01-1.53-.2.21-.39.4-.57.59-1.31,1.34-1.89,1.97-1.88,2.78l-2.28.03c-.02-1.78,1.1-2.93,2.52-4.39.19-.19.39-.4.6-.62.48-.5,1.04-1.08,1.61-1.72v-.02s.3-.32.3-.32c0,0,.01-.02.02-.02.02-.02.04-.05.07-.08.46-.51.92-1.06,1.37-1.63.03-.05.07-.09.1-.14.11-.15.22-.3.33-.44.76-1.09,2.11-3.34,2.93-6.5.13-.68.23-1.34.32-2,.55-3.96.19-7.4.05-8.44-.08-.47-.15-.82-.23-1.15-.11-.49-.23-1-.32-1.79,0,0,0-.01,0-.02-.17-.95-.23-1.87.12-2.66.05-.12.1-.22.15-.3.01-.02.03-.05.04-.07.01-.02.03-.05.04-.07.08-.12.18-.22.27-.32.01-.01.02-.02.03-.04.02-.02.04-.03.05-.04.12-.11.25-.22.38-.3.07-.04.14-.09.22-.12.05-.02.09-.05.14-.07.32-.16.67-.29,1.09-.4,1-.32,2.04-.64,3.02-.1,0,0,0,0,0,0,0,0,0,0,0,0,.12.07.23.14.32.22.07.06.13.12.19.18.02.02.04.04.06.06.17.2.31.42.42.67.02.04.04.08.05.12.03.09.06.17.09.27.02.05.03.1.04.14.08.28.14.57.19.9.05.27.08.53.11.78,0,.06.02.12.02.18,0,.02,0,.04,0,.06,0,0,0,.01,0,.02.06.48.08.85.09,1.24.02.42.03.89.12,1.68.05.52.11.89.13,1.07.09.4.3,1.4.55,1.82.55-.39,2-2.14,4.14-7.22l.04-.08c1.48-3.5,2.44-6.15,1.32-8.33-.36-.71-.94-1.39-1.68-1.96-.71-.55-2.18-1.71-4.35-1.99-1.05-.14-2.11.08-4.41.57-1.63.35-3.24.77-4.81,1.26l-.68-2.17c1.63-.51,3.31-.95,5.01-1.31,2.3-.49,3.69-.79,5.17-.6,2.79.36,4.66,1.83,5.46,2.45,0,0,.01.01.02.02.19-.84.32-1.7.36-2.56.06-1.32.06-2.03-.22-2.88-.43-1.29-1.47-2-3.58-3.36-1.14-.73-2.59-1.55-4.68-2.07-1.53-.38-5.58-1.39-9.49.76-1.59.87-2.98,2.19-4.04,3.82l-1.91-1.24c1.26-1.95,2.94-3.53,4.86-4.58,4.69-2.57,9.37-1.41,11.13-.97,2.43.6,4.14,1.58,5.36,2.37.13.08.25.16.37.24.04-.93-.08-1.8-.41-2.6-.44-1.09-1.56-2.13-4.01-4.24-2.03-1.74-3.04-2.62-4.38-3.38-.97-.55-2.59-1.31-4.8-1.74-2.2-.43-3.78-.75-5.39-.07-1.16.49-1.84,1.31-3.33,3.09-1.16,1.39-2.17,2.9-3.01,4.5l-2.01-1.06c.92-1.73,2.02-3.38,3.28-4.89,1.62-1.95,2.52-3.03,4.19-3.73,2.25-.95,4.32-.54,6.72-.07,2.5.5,4.36,1.36,5.48,2,1.53.87,2.6,1.79,4.73,3.63.2.18.39.34.58.5.09-1.43-.06-3.15-.84-4.9-.22-.5-.9-2.01-3.36-4.11-3.02-2.57-9.17-6.7-16.43-5.43-2.03.35-3.78.66-5.11,2.02-.8.82-1.92,3.39-3.63,7.28-.28.64-.43.98-.65,1.5-1.13,2.67-1.59,4.1-2.03,5.48-.37,1.16-.75,2.35-1.52,4.22-.21.51-.41.98-.61,1.45-.74,1.74-1.38,3.24-1.98,5.63-.02.08-.08.32-.17.69-.72,3.13-1.25,7.53-1.57,13.08l-.03.52c-.2,3.47-.5,8.7-1.3,14.18-.25,1.69-.42,2.52-.61,3.47-.2,1.01-.43,2.16-.83,4.72-.29,1.85-.58,3.93-.77,6.61-.09,1.23-.13,2.25-.15,2.9-.12,3.56.06,6.36.32,10.23.17,2.49.37,5.59.54,9.64.03.72.04,1.08.05,1.33.17,5.62-.33,9.79-.7,12.84-.43,3.52-.59,5.24.29,5.99.66.56,1.66.5,2.55.45h.08c7.13-.43,14.1.7,19.69,1.61Z"/>
    </g>
  </g>
</svg>