<?xml version="1.0" encoding="UTF-8"?>
<svg id="Layer_2" data-name="Layer 2" xmlns="http://www.w3.org/2000/svg" viewBox="0 0 141.73 141.73">
  <defs>
    <style>
      .cls-1 {
        fill: none;
      }

      .cls-2 {
        fill: #8accff;
      }
    </style>
  </defs>
  <g id="Layer_1-2" data-name="Layer 1">
    <g>
      <g>
        <path class="cls-2" d="M68.31,38.31c-.73-.63-1.46-1.28-1.84-2.18-.44-1.07-.87-1.38-1.86-1.86-.24-.11-.5-.23-.75-.17-.79.2-1.04.63-1.96.52-.93-.12-1.76-.58-2.41-1.25-.86-.94-1.38-.45-1.94.27l-.1.12c-1.54,1.59-3.52,1.18-3,4.21.39,1.53-1.02,2.63-.69,4.12.29,1.29,1.73,1.64,2.73,2.24.48.29,1.03.71,1.18,1.28.14.54.06,1.09.29,1.65.19.46.52.88.97,1.08.4.18.86.18,1.3.17.24,0,.48,0,.7-.1.46-.18.94-.88,1.38-1.18.54-.37,1.15-.74,1.83-.77,1.11-.15,2.53.23,3.09-.44.56-.59-.04-1.91.2-3.03.25-1.18,1.6-2.16,1.66-3.32.03-.61-.38-1.03-.79-1.38ZM65.11,42.17c-.25.32-.48.67-.79.84-.54.23-1.17.17-1.63.6-.76.58-.76,1.59-2.02,1.3-.49-.11-.87-.41-1.29-.67-.45-.28-.42-.45-.62-.94-.08-.2-.23-.36-.37-.52-.65-.71-1.41-1.55-1.26-2.6.06-.57.14-1.24.41-1.73.2-.36.59-.66.93-.88.44-.29.84-.39,1.21-.78.05-.05.09-.09.14-.12.32-.24.68-.17,1.1.02.52.25.97.64,1.51.85.84.28,1.55.09,2.17.62,1.23.87,1.56,2.9.52,4.01Z"/>
        <path class="cls-2" d="M83.71,89.24c.77-1.49,1.3-3.1,2.14-4.57,1.57-2.73,3.47-4.83,6.59-5.59,0,0,.09-.02.09-.02,2.38-.69,5.23-.81,7.24-2.74.98-.98,1.9-2.15,2.77-3.26,1.65-2.65,4.26-4.93,4.67-8.11.03-1.35-1.82-1.21-2.39-1.92-.49-.63-.14-1.67-.52-2.37-.48-1.1-2.58.08-2.94-1.22-.85-3.79-7.68,1.51-8.57,2.59-1.59,1.77-3.03,3.92-3.93,6.13-.43,1.05-.32,2.08-.6,3.17-.31,1.21-.89,2.35-1.58,3.38-1.14,1.69-2.58,3.15-3.86,4.73-1.78,2.21-3.23,4.67-4.29,7.3-.25.62-.67,1.37-1.34,1.3-.63-.07-.9-.82-1.02-1.45-.27-1.45-.23-3.04-.58-4.46-.33-1.31-.82-2.62-1.16-3.95-.77-3.02-1.48-6.16-2.65-9.06-.6-1.48-1.33-2.93-1.99-4.39-.16-.36-.27-.88.08-1.06.29-.15.61.1.87.3.79.63,1.78.94,2.75,1.24,3.43,1.08,6.91-1.55,7.44-5.09.39-2.6,2.1-4.96,4.02-6.75,1.3-1.34,4.05-5.26,1.71-6.76-.52-.33-1.12-.52-1.62-.88-1.32-.96-.61-1.78.49-2.65.51-.41,1.11-.69,1.68-1,2.63-1.41,3.41-4.49,3.17-7.27-.12-1.39-.45-2.9-1.1-4.14-.86-1.63-2.33-2.02-3.63-3.17-1.72-1.51-1.71-4.43-2.84-6.37-1.62-2.78-4.83-3.97-7.89-3.08-1.84.53-4.28,3.69-5.54.83-.29-.67-.39-1.41-.64-2.1-1.2-3.25-4.77-3.6-7.65-4.24-2.7-.59-4.6-3.13-7.46-2.55-2.28.46-4.56,2.25-5.69,4.24-.59,1.03-.93,2.18-1.07,3.36-.07.6-.12,1.23-.06,1.84.05.52.52,1.48.38,1.93-.1.3-.39.54-.71.57-.26.03-.52-.08-.77-.18-3.82-1.56-8.53-2.65-10.01,2.44-.37,1.28-.49,2.62-.9,3.89-.94,2.94-2.83,5.36-2.96,8.55-.12,2.65.85,5.36,2.71,7.26,1.63,1.66,3.2,2.25,5.48,2.37,2.68.14-.71,5.18-1.06,6.65-.61,2.61-.48,5.68,1.54,7.68.94.93,2.15,1.55,3.42,1.9,1.45.4,2.95.69,4.28,1.4,1.27.68,2.08,1.97,3.23,2.82,3.88,3.26,7.79,3.96,11.4-.3.13-.15.33-.31.51-.22.12.06.17.19.21.32.45,1.41,1.32,2.69,1.86,4.08.6,1.57.9,3.24,1.26,4.89.84,3.84,1.67,7.69,2.45,11.55.78,3.85,1.13,7.94,2.39,11.66,2.68,7.88,8.57,15.49,13.87,21.82,1.73,2.07,13.48,16.61,15.61,9.29.32-1.11.22-2.29.11-3.44-.06-.67-.13-1.35-.36-1.99-.58-1.56-2.08-2.55-3.4-3.57-3.59-2.78-6.36-6.45-9.08-10.07l-2.86-3.8c-1.63-2.16-3.28-4.37-4.36-6.87-1.23-2.83-1.13-4.28.25-6.94.71-1.37,1.74-2.52,2.43-3.85ZM100.21,67.48c.57-.79,1.18-1.24,1.55-.32.37.92-.37,1.92-.91,2.59-.87,1.09-1.65,2.15-2.78,2.99-.31.23-.78.89-1.24.8-.51-.1-.4-.63-.16-.98.65-.95,1.47-1.66,2.11-2.63.19-.29.78-1.58,1.42-2.45ZM92.2,70.33c.25-1.25,1.32-2.14,1.97-3.19.62-1.02,1.26-2.05,2.11-2.9.26-.26.76-.81,1.19-1.02.73-.36.7.54.57.93-.21.63-.64,1.15-1.04,1.67-1.06,1.38-1.94,2.91-2.6,4.52-.15.37-.3.76-.58,1.05-.85.89-1.8-.09-1.6-1.07ZM66.69,48.46c-1.2-.02-2.57-.16-3.59.56-.87.62-1.57,1.56-2.71,1.68-1.09.11-2.32-.26-3.1-1-.98-.93-1.3-1.95-1.82-3.12-.51-1.15-1.88-1.51-2.73-2.37-.78-.79-1.45-2.43-.84-3.51.77-1.36.01-2.74.02-4.17,0-.82.61-1.95,1.32-2.38.86-.52,1.89-.39,2.62-1.26.35-.41.53-.94.86-1.37.36-.47.91-.72,1.49-.77.61-.06,1.27.09,1.78.38.94.53,1.7,1.47,2.9,1.16.27-.07.51-.21.77-.3,1.4-.47,3.55.97,4.08,2.25.27.66.36,1.21.89,1.69,1.24,1.12,1.99,1.76,2.44,3.43.09.36.19.72.19,1.09-.01,1.28-1.06,2.06-1.59,3.11-.35.7-.2,1.56-.26,2.32-.13,1.72-.86,2.62-2.71,2.58Z"/>
      </g>
      <rect class="cls-1" width="141.73" height="141.73"/>
    </g>
  </g>
</svg>