<?xml version="1.0" encoding="UTF-8"?>
<svg id="Layer_2" data-name="Layer 2" xmlns="http://www.w3.org/2000/svg" viewBox="0 0 300.61 198.43">
  <defs>
    <style>
      .cls-1 {
        fill: #8accff;
      }
    </style>
  </defs>
  <g id="Layer_1-2" data-name="Layer 1">
    <g>
      <g>
        <path class="cls-1" d="M16.15,9.23c-.14-.11-.37-.09-.56-.12-.41-.02-.86-.02-1.25.14-.36.16-.36.71-.48,1.04-.09.32.39.2.4-.06.03-.6.26-.88.85-.94.13-.01.27,0,.3.16.05.18,0,.62.24.57.21-.05.68-.52.51-.77l-.02-.03Z"/>
        <path class="cls-1" d="M111.09,27.35c-.38-.45-1.21-.54-1.75-.8-.45-.3-.7-.91-1.21-1.13-1.58-.26-3.11.61-4.69.56-.39,0-.66.17-1.04.17-2.82-.03-1.27-1.42-4.16-1.32-.22.02-.45.07-.63.19-.7.33-1.36.44-2.17.57-1.41.46-1.3-.34-2.3-.77-1.98-.6-4.3.24-6.36.23-.45,0-.99-.1-1.43-.04-.17.02-.34,0-.47-.03-.82-.1-2.22.04-3.14.03-.51.02-.88-.04-1.36-.06-.32-.02-.76-.19-1.13-.14-.4.06-.62-.11-.98-.23-.86-.17-1.43-.82-2.18-1.21-.34-.17-.55-.43-.84-.68-.86-.58-1.61-1.37-2.58-1.78-.59-.25-1.33-.07-1.9-.38-.45-.24-.63-.78-.97-1.16-.63-.7-1.61-1.09-2.54-1.04-1.33.11-1.4-.08-2.16-1.08-1.28-1.02-3.12-.55-4.62-.62-.81-.1-1.65-.08-2.44,0-.62-.04-1.25-.66-1.87-.79-.4-.09-.81-.02-1.23-.05-3.13-.23-6.36-.34-9.48-.49-.84-.01-1.82-.28-2.59-.55-.36-.12-.42-.47-.6-.76-.41-.61-1.06-.96-1.76-1.19-1.4-.44-3.15-.36-4.53-.52-.7-.08-2.24-.2-2.76-.68-.26-.24-.39-.74-.63-1.02-.24-.29-.54-.53-.88-.69-.58-.28-1.27-.25-1.53-.95-.09-.25,0-.43-.2-.66-.5-.58-1.27-.8-1.97-1.03-.69-.23-1.09-.59-1.47-1.22-.49-.82-1.16-1.69-1.44-2.62-.51-.83-.94-1.79-1.6-2.48l-.03-.03c-.45-.34-1.15-.99-1.75-.75-.78.45-1.47,2.67-2.06,3.73-.06.1-.15.24-.26.27-.15.06-.32-.12-.4-.24-.7-.8-2.31-5.14-3.67-3.58-.62,1-.89,2.28-1.54,3.28-.98,2.35-.53,2.32-3,3.58-1.66.88-3.48,1.57-5.29,2.07-1.16.3-2.88.29-3.34,1.6-.06.17-.08.82.03.97.02.03.05.06.09.07.35.09.38-.89.52-1.04.15-.17.41-.17.64-.16.21.01.42.02.63.03.22.01.48.05.58.25.09.19-.04.41-.17.57-.36.43-.9.78-1.49.66-.75-.16-.65.18-.69.79-.05.67-.06,1.42.23,2.06.27.65,1.19.71,1.51,1.38.04.08.07.16.13.22.07.08.17.11.28.14.62.16,1.26.02,1.86.33.33.17.73.45,1.12.52.25.06.49.02.74.08.44.09.96.54,1.41.76.37.22.77,0,1.15-.03.27,0,.46.34.79.37.33.04.68-.13,1-.06.32.06.44.39.66.6.29.29.69.14,1.04.2.29.06.57.22.85.34.49.23.82.4,1.31.41.33,0,.78-.08.89.33.11.32.08.74.1,1.07.03.3.35.61.62.81.86.47.5,1.26-.03,1.86-.65.73-1.25,1.51-1.78,2.32-.41.67-.91,1.18-1.69,1.39-2.18,1.12-7.97,2.71-9,4.48-.21.4-.55.67-.85,1.02-.84,1.09-1.61,2.18-2.2,3.37-1.23,1.69-2.57,3.62-2.39,5.78.03.51.44.72.75,1.07.25.3.41.62.71.87,1.18,1.12,3.3,1.1,4.22-.34,1.77-2.58,3.66-5.37,6.37-7.02,1.23-.34,2.28-1.29,3.54-1.51.76-.33,1.64-.07,2.4-.38.35-.13.65-.36.88-.66.25-.4.47-.71.93-.66.32,0,.7.05.99-.09.74-.48,1.3-1.31,2.23-1.41,1.27-.34,2.26.72,1.29,1.77-1.37,1.1-3.16,1.76-4.75,2.59-2.2,1.28-4.83,1.81-6.92,3.25-.35.18-.53.45-.89.77-.3.34-.67.5-1.01.79-.69.75-1.29,1.62-1.95,2.42-.53.64-1.1,1.19-1.41,1.96-.54.85-1.16,2.13-.95,3.17.28.74.73,1.67,1.48,1.97.65.42,1.34.86,2.14.93.7.16,1.21-.21,1.61-.71,1.77-1.79,3.77-3.42,5.62-5.18,1.4-1.29,3.58-1.24,5.16-2.27.58-.41,1.14-1.25,1.68-1.55.63-.35,1.54.2,2.26-.08.7-.26.9-1.16,1.57-1.46.59-.27,1.29.02,1.88-.34.42-.28.78-.33,1.19-.72.31-.36.72-.57,1.13-.78.92-.51,2.09-1.25,3.19-1.17,1.23.19,2.98,1.64,3.95.28.32-.3.6-.52,1.07-.52,1.65.17,3.19,1.19,4.82,1.45,1.22.33,2.61,1.27,3.97,1.37.77-.19.73-.93,1.73-.31,1.06.78,2.09,1.5,3.35,1.81.8.29,1.02.17,1.44-.47.69-.15,2.45,1.7,3.13,1.95.37.1.59.5.97.61.58.19.96-.44,1.43-.61.54-.13,1.18-.04,1.61.28.67.23,1.3.4,1.84.86,1.76.67,2.34,1.99,3.14,3.58.54,1.01,1.1,1.99,1.59,3.02,1.5,3.13,2.73,5.91,4.59,8.54.45.64.86,1.48,1.2,2.17,1.42,2.88,4.1,4.61,7.18,5.21.6.09,1.2-.02,1.76-.22.45-.26.78-.71,1.17-1.08.38-.36.4-.81.59-1.25.18-.47.39-.79.33-1.33-.13-2.92-6.85-4.69-7.48-9.57-.09-.39-.23-.75-.25-1.15-.02-.44.08-.95-.12-1.33-.15-.31-.68-.55-.83-.83-.19-.6.17-1.46-.28-1.97-.31-.36-.9-.57-1.01-1.07-.03-.2.02-.4,0-.6-.06-.3.11-.68.09-1.03-.08-1.1-1.53-1.55-1.59-2.68-.02-.18.08-.36.16-.52.09-.18.32-.22.51-.2.19.03.35.11.51.21,1.02.64,1.37,1.92,2.02,2.87,1.7,2.48,3.04,5.2,4.78,7.67,1.82,2.57,4.05,4.74,6.39,6.82,1.66,1.47,4.6,2.73,6.74,1.75.32-.13.67-.24.94-.44.33-.37.8-.84,1.16-1.24.15-.27.33-.51.37-.76.05-.63.08-1.45-.17-2.05-.39-1.2-1.51-1.73-2.58-2.35-.85-.49-1.72-.46-2.54-1.05-1.33-.95-2.28-2.59-3.31-4.1-2.1-2.95-3.26-6.23-4.06-9.68-.18-.54-.23-1.15-.75-1.47-.36-.3-1.06-.34-1.32-.6-.33-.49-.11-1.26-.29-1.83-.51-1.32-2-.44-2.51-2.18-.25-.46-.81-.79-.87-1.36-.07-.34.25-.58.56-.42.23.09.28.32.45.42.32.2.64.39.87.69.91.89,2.19,1.3,3.27,2,1.01.65,2.03,1.4,3.18,1.82.32.1.56.31.84.48.67.39,1.51.27,2.3.26.5-.06.96.11,1.5.1.35-.15.66-.34.98-.55.33-.32.45-.75.94-.78.28-.05.56.06.84.01.2-.02.44-.18.7-.24.42-.08.93-.04,1.36-.02.76.07,1.33.42,2.08.27,1.07-.26,1.65-1.45,2.49-2.05.48-.34,1.15-.07,1.59.11.41.08.85-.15,1.3-.34.35-.17.52-.5.7-.8.58-.47.72-1.31,1.14-1.91.29-.26.76-.22,1.11-.32.31-.04.63-.27.8-.37.4-.18.84-.29,1.19-.59.25-.21.37-.45.63-.64.67-.43,1.04-1.83.39-2.42ZM13.61,15.65c-.04.11-.07.23-.11.34-.06.15-.15.28-.25.41-.06.08-.12.16-.2.23-.26.21-.74.17-.84-.17-.08-.27.2-.66.32-.89.13-.26.35-.54.58-.78.1-.11.21-.22.3-.32.07-.08.15-.15.25-.19.1-.04.22-.04.3.02.09.07.12.2.11.32-.03.38-.33.68-.46,1.04ZM15.82,10.56c-.34.2-.73.33-1.12.38-.33.05-.85.08-1.14-.11-.1-.06-.14-.13-.17-.2-.03-.12,0-.24.04-.39.2-.81.17-1.31,1.06-1.49.59-.12,1.73-.53,2.13.17.38.67-.27,1.33-.8,1.64ZM17.84,15.56c-.02.06-.03.13-.06.19-.08.14-.27.19-.43.16-.17-.04-.29-.14-.39-.28-.28-.42-.27-1.18-.34-1.6-.04-.27.22-.65.52-.58.18.04.28.24.35.42.15.38.3.75.45,1.13.03.06.05.13.05.2,0,.13-.1.24-.15.36ZM5.56,37.41c-.14.21-.37.35-.54.53-.09.1-.17.21-.26.3-.18.2-.54.45-.83.44-.38-.02-.12-.3.04-.49.14-.18.29-.35.44-.52.16-.19.32-.38.48-.57.05-.06.11-.17.17-.21.08-.05.19-.04.28-.09.21-.14.3-.04.33.13.02.16-.02.38-.1.49ZM7.21,34.53c-.13.06-.48.02-.45-.18.08-.45.55-.66.83-.91.2-.18.32-.43.52-.62.11-.1.35-.26.51-.16.21.13-.01.29-.12.43-.01.01-.02.03-.03.05-.17.24-.23.54-.42.76-.16.17-.38.26-.56.42-.09.08-.17.17-.28.22ZM9.95,36.5c-.13.21-.38.32-.6.43-.38.19-.53.77-1.03.75-.1,0-.2-.05-.24-.14-.05-.1-.02-.21.03-.31.11-.26.29-.48.52-.65.35-.25.53-.54,1-.59.39-.04.54.16.32.51ZM13.25,32.19c-.02.15-.12.27-.23.38-.24.22-.55.37-.88.42-.04,0-.07,0-.11.01-.16.02-.33.03-.48.1-.23.11-.53.47-.8.21-.3-.29.05-.54.27-.68.28-.18,2.36-1.27,2.23-.44ZM15.51,29.71c.01-.09.05-.19.09-.26.06-.1.13-.21.23-.28.07-.05.15-.09.22-.13.27-.15.98-1.27,1.26-.84.11.16.07.37.03.56-.11.53-.76.84-1.17,1.16-.1.08-.2.15-.32.17-.29.04-.37-.17-.34-.38ZM17.24,32.45c-.21.18-.45.34-.71.45-.15.06-.31.1-.47.12-.13.01-.29,0-.37-.11-.19-.24-.12-.61.2-.59.61.04.85-.67,1.38-.71.64-.05.26.59-.03.84ZM12.11,43.73c-.4-.04-.22-.55-.04-.71.27-.25.69-.39,1.02-.53.24-.11,1.41-.71.95.09-.22.38-.34.51-.73.68-.3.13-.6.27-.9.4-.09.04-.19.08-.29.07ZM14.56,45.15c-.07.16-.18.31-.25.47-.1.25-.06.42-.34.57-.12.06-.25.11-.35.2-.15.13-.9.37-.76-.09.03-.09.09-.15.15-.22.4-.41.75-.8,1.19-1.17.05-.04.1-.07.16-.1.08-.03.19-.04.24.03.04.05.01.17-.05.31ZM19.28,42.4c-.08.15-.22.29-.28.36-.04.05-.09.1-.15.13-.06.02-.12.02-.18.03-.43.06-.75.57-1.22.55-.24-.01-.56-.28-.37-.51.19-.23.5-.27.75-.37.32-.13.63-.31.95-.45.1-.04.35-.19.45-.15.01,0,.02,0,.03.02.13.1.1.25.01.4ZM21.17,39.36c-.03.09-.1.15-.18.21-.05.03-.1.06-.15.09-.04.02-.07.04-.11.06-.34.18-.68.37-1.02.55-.09.05-.18.1-.28.09-.13,0-.48-.17-.59-.24-.11-.08-.18-.14-.1-.29.12-.22.51-.21.71-.25.28-.06.52-.11.75-.26.17-.11,1.22-.64.95.04ZM21.74,21.26c-.18.13-.44.1-.63-.15-.34-.45-.41-1.15-.3-1.69.04-.22.34-1.11.72-.82,0,0,.03.02.03.02.21.14.13.62.17.81.11.43.24.88.24,1.33,0,.23-.09.41-.23.5ZM22.09,13.21c-.56.06-1.22-1-1.42-1.42-.08-.17-.17-.48-.06-.65.25-.4.38.07.6.22.1.07.23.09.34.13.48.18.77.81.84,1.29.03.21-.03.41-.3.44ZM23.26,6.92c-.07,0-.15,0-.25,0-.43.01-1.07.03-1.24-.33-.13-.28.18-.47.44-.48.33-.01,1.21.34,1.48,0,.09-.11.02-.26-.04-.38-.25-.44-.46-.95-.59-1.45-.06-.23-.19-.61-.09-.84.11-.24.4-.35.57-.06.38.69.6,1.52.82,2.28.05.19.11.38.11.58.01.65-.72.68-1.2.68ZM23.76,8.93c.14-.29.87-.2,1.15-.23.11,0,.21-.02.32,0,.11.02.22.08.32.13.15.08.3.16.45.24.35.19.41.68-.05.79-.3.07-.57-.16-.87-.24-.27-.08-.55-.04-.82-.09-.25-.05-.64-.29-.49-.6ZM25.01,40.3c-.02.09-.09.17-.16.24-.16.14-.37.23-.59.24-.12,0-.25,0-.37.01-.15.03-.29.11-.42.19-.13.08-.27.16-.42.17-.28.02-.55-.27-.36-.5.11-.15.4-.18.57-.24.28-.11.57-.21.85-.33.12-.05.28-.08.4-.12.13-.04.29.01.41.08.05.03.09.09.1.15,0,.04,0,.07,0,.11ZM26.76,35.99c-.09.12-.22.21-.35.29-.05.03-.09.06-.14.09-.41.26-.82.54-1.21.83-.07.05-.15.11-.24.09-.26-.07-.44-.48-.3-.71.17-.26.47-.13.7-.25.22-.11.39-.3.59-.44.22-.17.46-.39.72-.49.37-.13.42.31.23.58ZM26.5,18.89s-.08.02-.13.03c-.15.01-.29-.04-.42-.11-.25-.13-.47-.32-.64-.55-.08-.1-.14-.21-.23-.29-.11-.1-.25-.17-.35-.29-.22-.25-.13-.81.14-1,.17-.12.37.06.47.15,0,0,.03.02.03.02.15.13.26.32.37.49.05.07.09.18.16.23.09.07.2.05.3.1.04.02.07.05.1.08.22.22.7.97.23,1.13ZM27.51,14.58c-.13.08-.3.08-.45.07-.1,0-.21-.02-.31-.06-.18-.07-.31-.24-.43-.39-.21-.27-.43-.54-.64-.82-.22-.28-.44-.89.14-.59.39.22,1.11.65,1.43.93.14.12.38.38.4.6,0,.1-.03.18-.14.25ZM77.71,57.81c.09-.12.23-.12.38-.08.13.04.27.12.34.19.19.18.32.41.53.57.09.07.19.12.28.2.21.18.29.46.37.72.03.09.05.18.04.27s-.06.18-.15.21c-.07.02-.15,0-.22-.03-.64-.22-1-.95-1.38-1.48-.1-.14-.32-.38-.19-.56ZM76.98,60.17s.06.04.1.1c.22.3.38.66.62.95l.02.02c.32.39.61.54.67,1.08.02.16-.05.35-.21.39-.09.03-.18,0-.27-.03-.24-.11-.41-.33-.53-.57s-.2-.49-.33-.73c-.1-.19-.24-.37-.28-.58-.02-.13,0-.71.2-.62ZM29.01,11.97c.31-.24.47-.41.85-.22.03.01.06.03.09.04.48.08.87.35,1.17.7,0,0,.01.01.02.02.09.11.18.23.17.37,0,.16-.16.29-.32.28-.06,0-.12-.03-.18-.05-.55-.23-1.11-.47-1.66-.7-.13-.06-.29-.16-.25-.3.02-.06.07-.1.11-.14ZM30.99,37.47c-.03.13-.07.27-.18.35-.2.16-.4.35-.63.47-.11.06-.23.11-.34.18-.18.1-.4.19-.59.1-.12-.05-.2-.17-.23-.29-.16-.6.56-.59.94-.78.19-.1.41-.22.54-.39.11-.14.27-.42.5-.29.2.12.04.47,0,.65ZM32.75,21.71l.56,8.87-2,.13-.56-8.87-2.31.15-.11-1.8,6.63-.42.11,1.8-2.32.15ZM44.95,31.11l-2.01-.17.38-4.51-4.42-.37-.38,4.51-2-.17.89-10.65,2,.17-.35,4.24,4.42.37.35-4.24,2.01.17-.89,10.65ZM56.09,32.32c-1.28.88-2.84,1.1-4.51.65-1.67-.44-2.92-1.41-3.61-2.81-.61-1.24-.73-2.79-.35-4.24.39-1.45,1.21-2.65,2.35-3.41,1.27-.85,2.83-1.05,4.53-.6,1.7.45,2.95,1.42,3.63,2.78.61,1.21.75,2.68.36,4.15-.38,1.43-1.26,2.71-2.4,3.48ZM60.37,36.06c-1.04-.5-1.86-1.4-2.22-1.84l.8-1.67c.59.28,1.13,1.39,2.04,1.83,1.01.48,1.83.4,2.25-.47.5-1.04-.58-2.11-.95-2.48-1.04-1.06-1.89-2.25-1.11-3.89.83-1.74,2.68-2.3,4.57-1.39,1.05.5,1.87,1.35,2.24,1.78l-.79,1.66c-.48-.23-1.13-1.37-2.01-1.79-.86-.41-1.66-.32-2.02.42-.44.92.4,1.75,1.29,2.7,1.14,1.23,1.43,2.36.82,3.65-.52,1.08-2.21,2.78-4.89,1.49ZM71.67,50.75s-.04.07-.08.1c-.21.18-.55.18-.76,0-.14-.12-.21-.3-.28-.47-.2-.51-.41-1.03-.61-1.54-.09-.23-.41-.85-.07-1,.34-.15.48.42.59.63.04.07.07.14.09.22.01.06.03.12.07.16.38.33.63.87.85,1.36.05.11.1.21.15.31.04.07.07.16.04.23ZM72.83,47.81c-.3-.35-.46-.68-.53-1.1,0-.06-.02-.13-.02-.19-.02-.18-.03-.38-.12-.54-.09-.18-.2-.19-.14-.41.06-.21.07-.45.26-.58.07-.05.14-.07.2,0,.04.04.05.1.06.16,0,.06,0,.12.02.18.03.12.13.22.18.33.2.41.38.81.61,1.2.05.09.11.19.1.29,0,.08-.05.16-.09.24-.09.17-.2.35-.36.46-.03.02-.05.03-.08.03-.04,0-.07-.03-.09-.06ZM74.39,57.45c-.18-.1-.29-.29-.38-.48-.22-.43-.45-.86-.67-1.29-.05-.09-.09-.18-.12-.28-.03-.12-.04-.24-.05-.36-.01-.27.24-1.19.57-.57.1.19.09.41.15.62v.03c.16.37.31.82.47,1.19.13.29.45.49.51.82.06.3-.19.48-.48.32ZM74.96,51.04s.05-.06.08-.08c.16-.12.37-.03.45.2.03.1.05.2.08.3.05.14.13.26.24.36.06.05.13.1.18.16.05.06.08.14.11.22.07.2.14.39.21.59.03.09.06.17.06.27,0,.32-.45,1.04-.74.48-.04-.08-.05-.16-.06-.25-.07-.41-.22-.8-.44-1.15-.04-.06-.08-.12-.12-.17-.03-.04-.06-.07-.08-.11-.03-.05-.04-.11-.04-.17-.02-.2-.05-.48.08-.65ZM74.56,33.75l-1.81-1.26c-.68-.47-1.39-.31-1.9.42-.61.88-.28,1.58.25,1.94l1.66,1.16-.93,1.33-1.66-1.16c-.69-.48-1.42-.32-1.95.43-.41.59-.57,1.43.24,2l1.81,1.26-.92,1.32-4.38-3.06,6.13-8.76,4.38,3.06-.92,1.32ZM89.82,54.28c.27.03.33.35.45.51l.02.03c.25.28.69.53.91.81.07.12.47.69.3.85-.24.22-.66.21-.89-.03-.11-.11-.17-.27-.27-.38-.09-.11-.21-.18-.31-.29-.2-.22-.69-.79-.65-1.09.02-.16.25-.46.44-.4ZM79.4,42.79c-.28.57-.76-.11-.92-.38-.18-.3-.33-.64-.46-.96-.07-.19-.37-.7-.24-.91.14-.21.54,0,.66.12.16.15.22.35.31.53,0,0,.01.02.02.03.1.18.24.32.37.48.22.27.42.75.25,1.1ZM86.02,48.62c.05,0,.1.03.15.07.05.04.09.08.13.12.27.27.54.55.8.82.19.19.5.57.52.85.01.16-.06.33-.2.43-.03.02-.06.04-.09.04-.03,0-.05-.01-.07-.02-.42-.2-.59-.57-.76-.98-.15-.39-.72-.54-.67-1.08,0-.06.12-.23.19-.23ZM85.4,52.73c.24.29.42.62.65.92l.02.03c.1.16.15.32.27.47.08.09.24.16.24.3,0,.35-.54.31-.74.2-.18-.1-.31-.27-.43-.44-.27-.38-.5-.8-.68-1.23-.03-.07-.05-.13-.07-.2-.14-.85.48-.35.73-.04ZM82.65,41.94c.07-.09.19-.13.34,0,.09.07.14.17.21.26.16.23.4.39.62.57.34.28.58.68.72,1.1.02.05.03.1.02.15-.01.07-.07.12-.13.17-.09.08-.21.16-.32.12-.05-.02-.09-.06-.13-.1-.36-.39-.62-.9-1-1.26-.15-.14-.34-.29-.41-.5-.05-.15-.02-.38.07-.5ZM81.48,46.23c.06,0,.13.02.2.09.26.26.42.89.58,1.23.1.22.72.86.27,1.04-.33.13-.62-.39-.76-.59-.21-.31-.85-.81-.67-1.24.08-.18.19-.51.37-.53ZM83.43,31.24c-.11.48-.79.1-1.07-.1-.25-.18-.51-.36-.7-.61-.18-.22-.48-.73-.11-.85.19-.06.6.31.76.4.32.24,1.15.53,1.14,1.04,0,.04,0,.08-.01.11ZM86.03,27.77s-.05.07-.08.1c-.42.32-1.79-.08-2.14-.23-.12-.05-.24-.11-.32-.22-.49-.7.55-.48.85-.42.31.06,2,.16,1.68.77ZM87.79,30.69c-.02-.07-.01-.13.02-.17.16-.19.72.18.9.23.04.01.08.02.12.04.03.01.05.04.08.05.03.02.07.03.11.05.16.05.34.04.5.07.19.04.42.06.49.27.06.17-.05.38-.2.46-.14.07-.32.05-.47,0-.15-.05-.3-.12-.46-.14-.15-.03-.31-.01-.44-.08-.05-.03-.1-.07-.14-.11-.1-.1-.44-.43-.51-.67ZM90.11,35.69c-.22-.09-.37-.28-.56-.4-.3-.17-.62-.27-.91-.46-.13-.08-.3-.19-.37-.33-.2-.42.57-.52.8-.32.07.06.12.13.19.18.06.05.13.08.2.12.13.07.27.14.39.23.16.1.31.21.43.36.19.23.36.84-.16.63ZM92,27.24c-.13.11-.3.09-.43.17-.14.09-.2.28-.37.35-.13.06-.34.05-.49.06-.23.02-.46.08-.68.05-.57-.08-.64-.51-.35-.73.1-.08.26-.13.45-.14.07,0,.13,0,.2,0,.09,0,.18,0,.27,0,.04,0,.08.01.12.01.32-.02.58-.23.89-.27.28-.04.74.19.38.49ZM94.77,31.16c-.15-.03-.28-.13-.41-.22-.11-.08-.22-.17-.32-.25-.69-.53.89-.37,1.11-.35.2.02.4.03.6.04.09,0,.2,0,.29.03.15.05.55.12.46.36-.03.08-.11.12-.18.16-.14.07-.29.14-.45.14-.09,0-.19-.03-.28-.03-.03,0-.06,0-.09,0-.24.02-.48.16-.72.11ZM97.29,34.53s-.09.01-.13.02c-.04,0-.08.02-.12.04-.71.24-1.52-.32-1.9-.89-.03-.05-.06-.1-.07-.16-.03-.59.66-.06.84,0,.12.04.24,0,.36.04.16.04.29.15.46.18.32.06.61,0,.71.36,0,.02.01.05.02.08.03.14-.04.3-.17.34ZM98.51,27.46c-.1.13-.22.24-.3.28-.26.15-.62.38-.92.42-.09,0-.18,0-.27.02-.06.01-.12.04-.17.06-.37.12-.69-.18-.47-.52.18-.27.51-.36.82-.39.2-.02.43,0,.62-.07.2-.07.35-.23.57-.27.42-.06.31.23.12.47ZM103.83,32.26c-.08.11-.26.08-.39.03-.32-.12-.64-.24-.97-.36-.08-.03-.16-.06-.23-.11-.05-.03-.09-.07-.15-.09-.11-.05-.24-.01-.35-.05-.24-.08-.32-.62-.11-.76.18-.13.51,0,.69.06.07.02.14.05.21.07.32.11.65.23.94.41.23.15.57.49.35.81ZM107.24,28.17c-.03.09-.11.17-.2.26-.13.12-.3.23-.41.3-.24.17-.57.09-.86.11-.2.02-.39.09-.59.1-.23,0-.76-.31-.54-.6.05-.06.18-.12.28-.16.02,0,.03-.02.04-.02.14-.08.28-.16.44-.2.17-.04.35-.02.52,0,.15.02.28.03.42,0,.27-.05.59-.09.84.07.02.01.04.03.05.05.01.03,0,.06,0,.09ZM53.98,23.92c-2.35-.62-3.85.31-4.45,2.56-.62,2.32.18,3.85,2.55,4.48l.06.02c2.34.62,3.82-.33,4.43-2.62.6-2.28-.21-3.79-2.59-4.42ZM79.3,36.51c-.09-.19-.1-.39.11-.55.29-.23.73.15.93.34.08.07.16.15.2.25.07.18-.04.33-.01.5.02.15.17.32.23.46.04.09.08.17.12.26.07.14.13.83-.21.56-.18-.14-.39-.29-.54-.47-.13-.15-.14-.37-.23-.54-.04-.07-.09-.14-.14-.2-.11-.15-.35-.37-.46-.6Z"/>
      </g>
      <g>
        <path class="cls-1" d="M283.96,145.37s-.1-.06-.15-.1c-3.15-1.91-5.81,2.31-4.21,4.82,2.04,3.22,10.53-1.34,14.63,2.28,2.99,2.63,2.51,8.6-.02,12.26-4.83,6.99-20.79,7.83-24.21-1.04-.33-.85-.39-1.85-.39-1.85-.05-.6-.19-2.29.51-3.34,1.34-2,6.02-2.09,7.74-.1,1.03,1.2.56,2.65,2.17,4.19.45.43,1.04.9,1.78,1.05,3.04.61,6.27-3.87,4.48-6.52-1.67-2.47-7.18.7-11.67-2.45-2.21-1.55-3.59-4.22-3.52-6.8.13-4.53,4.61-7.09,5.46-7.58,4.07-2.33,8-2.15,9.65-1.99,1.98.19,6.87.65,8.82,4.1.25.44,1.22,2.17.58,4.03-.77,2.21-3.22,2.84-3.35,2.88-2.17.52-4.44-.65-5.47-1.6-1.38-1.27-1.85-1.6-2.83-2.24Z"/>
        <path class="cls-1" d="M269.68,141.42c-.83.87-1.57,1.81-2.16,2.89-1.5,2.74-2.12,5.89-2.38,8.98-.7,8.3,5.76,16.18,6.76,17.4,1.56,1.9,4,4.29,5.12,8.51.32,1.22.72,2.72.62,4.55-.4,7.13-8.19,14.97-16.25,14.66-5.66-.21-10.09-4.4-10.31-4.68-1.83-2.32-3.78-4.55-5.83-6.68-1.77-1.83-4.05-2.55-6.59-2.79-5.73-.54-9.07,2.47-11.84.03-2.2-1.93-2.9-4.43-2.3-7.33.39-1.86,1.44-3.61,3.02-4.66,3.38-2.24,9.06-.72,12.4.83,4.07,1.89,7.6,4.84,10.28,8.44,2.3,3.08,4.65,7.94,9.06,8.06,2.28.06,3.97-1.4,5.04-3.37,3.21-5.93-.5-12.03-2.93-17.58-.63-1.45-1.86-2.81-3.61-2.42-.76.17-1.41.65-2.06,1.06-3.33,2.1-7.84,2.25-11.09-.1-4.22-3.06-3.72-9.06-2.92-13.69.53-3.08,1.24-6.39-.45-9.27-.68-1.17-1.98-1.94-2.54-3.21-2.2-5.02,6.86-8.22,10.18-5.66.65.5,1.07,1.24,1.4,1.98,1.58,3.53,1.55,7.55.17,11.13-.86,2.23-3.45,6.71-1.59,8.91.91,1.08,2.58,1.26,3.03,1.31,1.46.16,3.1-.27,4.17-1.19,1.95-1.7,1.03-4.25,1.65-10.19.35-3.41.59-6.86,1.46-10.19.93-3.53,2.45-7.17,6.52-7.57,2.95-.29,6.71,1.73,8.03,4.39,1.74,3.53-2,5.29-4.06,7.45Z"/>
        <path class="cls-1" d="M205.4,124.14c-8.99-12.28-25.16-16.5-39.73-15.47-3.34.24-8.43-.06-9.56,3.95-.98,3.49,1.03,6.82,1.58,10.15,1.24,7.54-.01,15.6-1.44,23.02-1.1,5.75-3.43,12.88-1.53,18.69.78,2.39,2.14,3.32,2.42,3.51,2.33,1.49,5.37.63,6.23.4,11.19-2.89,26.59,5.09,37.88-3.75,9.53-7.47,9.38-21.64,9.33-23.67-.05-2.25-.05-9.81-5.18-16.83ZM165.45,158.38c-7.03-5.02,3.64-24.83,2.89-39.25-.02-.34-.07-1.21.48-1.91,2.89-3.7,20.57-.38,27.44,11.53,5.58,9.67,3.46,24.01-4.53,29.5-6.66,4.57-16.64,2.47-22.92,1.16-1.82-.38-2.74-.58-3.36-1.02Z"/>
        <path class="cls-1" d="M240.18,164.35c-.51-1.48-2.36-2.08-3.36-3.27-1.49-1.77-.7-4.12.03-6.03,1.07-2.79,2.43-5.6,1.73-8.66-1.03-4.51-5.79-7.73-10.07-8.52-5.9-1.09-16.61-1.52-15.47,7.25.11.83.35,1.71.99,2.25.31.26.69.43,1.09.53,2.47.66,3.55-.94,5.63-1.8,2-.83,8.6-2.08,8.7,1.54.08,2.9-3.88,3.31-5.93,2.69-4.52-1.36-9.46-.83-11.98,3.6-1.93,3.39-2.13,8.14.24,11.37,2.08,2.84,5.84,3.83,9.2,3.93,1.56.05,3.14-.08,4.65-.46,1.41-.35,2.57-1.08,3.99-1.37.85-.18,1.83.03,2.51.58.78.63,1.09,1.26,2.19,1.32,1.22.06,2.52-.35,3.57-.96,1.18-.69,2.46-1.7,2.44-3.19,0-.29-.05-.55-.13-.79ZM227.02,157.24c.12.48-.02.71-.08,1.4-.12,1.41.62,1.94.23,2.85-.15.36-.4.57-.57.72-1.25,1.08-4.51,1.57-6.19-.49-1.05-1.29-1.32-3.36-.32-4.77,1.61-2.27,5.16-.94,6.06-.56.55.23.79.51.88.85Z"/>
      </g>
      <g>
        <path class="cls-1" d="M206.84,62.97c1.61-2.16,3.84-3.72,6.21-3.55,2.99.21,4.28,3.55,4.43,6.12.36,5.89-.34,12.11-.85,17.99-.69,7.87-1.98,15.75-1.99,23.66,0,1.14.03,3.61,1.48,4.45,1.95,1.13,4.96-1.16,9.83-4,3.92-2.29,9.76-4.38,13.94-2.12,2.9,1.57,5.63,5.71,4.25,9.61-1.37,3.85-6.16,5.84-8.73,4.79-1.43-.58-1.77-1.73-4.27-3.25-1.09-.66-2.11-1-3.09-1.12-2.72-.31-3.8,1.28-9.08,3.02-1.89.63-4.33,1.32-6.32.88-3.26-.71-4.93-3.3-5.16-6.53-.37-5.44.56-11.04.85-16.48,0-4.81-.13-9.67-.67-14.45-.44-3.89-2.13-6.82-3.15-10.5-.67-2.41.38-5.91,2.33-8.52Z"/>
        <path class="cls-1" d="M220.95,80.96c.45-.16,1.04-.18,1.79-.02,1.34.29,2.93,1.08,3.95,2.02.45.42.75,1.1.91,2.08.4,2.49-.66,5.37-1.01,7.94-.55,4.09,1.11,4.18.25,7.15-.87,3.03-3.51,6.15-6.15,6.04-.24,0-.81-.04-1.39-.36-4.04-2.24.55-13.3.3-21.66-.05-1.59.25-2.82,1.34-3.21Z"/>
        <path class="cls-1" d="M232.54,77.88c.06-.08.12-.15.18-.23.63-.72,1.77-1.23,2.74-.98.82.21,1.11.95,2.08.83,1.62-.2,3.03-2.23,4.62-2.79,3.54-1.25,7.88.11,10.39,2.54.35.33.8.78,1.24,1.48,1.38,2.22.77,4.96,1.21,7.42.52,2.88,1.81,5.38,3.04,8.02,1.18,2.54,2.44,6.01.69,8.59-1.47,2.16-4.34,4.23-7.08,3.26-1.89-.67-2.63-3.03-3.16-4.72-.69-2.2-.7-4.05-.41-7.86.62-8.11,1.4-9.83.1-11.12-1.41-1.42-4.21-1.25-6.02-.41-2.05.95-2.97,2.83-3.16,3.26-1.07,2.34-.52,4.73.33,7.03.83,2.25,2.3,4.76,1.98,7.25-.25,1.97-2.03,3.27-3.9,3.43-1.02.09-2.04-.11-3.05-.31-1.12-.22-2.27-.47-3.24-1.09-2.63-1.7-1.6-5.99-1.02-8.53.68-2.98,1.06-5.94,1.54-8.96.3-1.9-.27-4.5.89-6.13Z"/>
        <path class="cls-1" d="M138.52,80.31c1.18-.16,2.17.21,2.52,1.65.65,2.66-1.12,5.35-1.16,7.97-.03,2.33.73,4.64,1.63,6.76,1.65,3.85,3.97,6.64,6.44,9.89,2.07,2.72,4.22,5.12,5.12,8.51.32,1.22.72,2.72.62,4.55-.4,7.13-8.19,14.97-16.25,14.66-5.66-.21-10.09-4.4-10.31-4.68-1.83-2.32-3.78-4.55-5.83-6.68-1.77-1.83-4.05-2.55-6.59-2.79-5.73-.54-9.07,2.47-11.84.03-2.2-1.93-2.9-4.43-2.3-7.33.39-1.86,1.44-3.61,3.02-4.66,3.38-2.24,9.06-.72,12.4.83,4.07,1.89,7.6,4.84,10.28,8.44,2.3,3.08,4.65,7.94,9.06,8.06,2.28.06,3.97-1.4,5.04-3.37,3.21-5.93-.5-12.03-2.93-17.58-1.91-4.37-4.43-8.55-5.46-13.25-.65-2.94-.87-7.49,2.07-9.34,1.28-.8,2.96-1.48,4.46-1.68Z"/>
        <path class="cls-1" d="M104.94,101.63c-.51-1.48-2.36-2.08-3.36-3.27-1.49-1.77-.7-4.12.03-6.03,1.07-2.79,2.43-5.6,1.73-8.66-1.03-4.51-5.79-7.73-10.07-8.52-5.9-1.09-16.61-1.52-15.47,7.25.11.83.35,1.71.99,2.25.31.26.69.43,1.09.53,2.47.66,3.55-.94,5.63-1.8,2-.83,8.6-2.08,8.7,1.54.08,2.9-3.88,3.31-5.93,2.69-4.52-1.36-9.46-.83-11.98,3.6-1.93,3.39-2.13,8.14.24,11.37,2.08,2.84,5.84,3.83,9.2,3.93,1.56.05,3.14-.08,4.65-.46,1.41-.35,2.57-1.08,3.99-1.37.85-.18,1.83.03,2.51.58.78.63,1.09,1.26,2.19,1.32,1.22.06,2.52-.35,3.57-.96,1.18-.69,2.46-1.7,2.44-3.19,0-.29-.05-.55-.13-.79ZM91.77,94.53c.12.48-.02.71-.08,1.4-.12,1.41.62,1.94.23,2.85-.15.36-.4.57-.57.72-1.25,1.08-4.51,1.57-6.19-.49-1.05-1.29-1.32-3.36-.32-4.77,1.61-2.27,5.16-.94,6.06-.56.55.23.79.51.88.85Z"/>
        <path class="cls-1" d="M222.95,77.65c.45.26.96.46,1.46.6,3.2.94,6.05-1.47,5.49-4.85-.13-.8-.48-1.58-1.09-2.12-2.31-2.06-5.66-.88-7.04,1.63-.88,1.6-.45,3.81,1.17,4.75Z"/>
        <path class="cls-1" d="M134.37,77.65c.45.26.96.46,1.46.6,3.2.94,6.05-1.47,5.49-4.85-.13-.8-.48-1.58-1.09-2.12-2.31-2.06-5.66-.88-7.04,1.63-.88,1.6-.45,3.81,1.17,4.75Z"/>
        <path class="cls-1" d="M170.12,95.52c-1.84-.77-3.63-.28-5.5.23-2.94.81-3.62,1.98-6.72,2.52-2.54.45-3.31-.06-3.52-.22-1.27-.96-1.57-3.23-.65-4.53.69-.99,1.95-1.23,3.06-1.35,6.3-.71,8.54,2.03,11.81.89,3.13-1.09,5.04-4.97,5.25-8.23.03-.47.22-4.21-2.41-7.2-4.22-4.79-11.93-3.13-13.59-2.77-4.33.93-7.92,3.74-10.28,7.44-2.66,4.17-3.56,8.7-2.4,13.53,1.03,4.32,3.7,8.77,8.35,9.77,1.04.22,2.12.25,3.18.14,2.87-.31,6.51-2.27,9.29-.59,1.35.81,2,1.39,3.29,1.3,2.1-.14,4.4-2.44,4.57-5.19.18-2.72-1.78-4.92-3.72-5.73ZM156.89,86.37c-.79.16-2.71.62-2.65-.69.03-.67.42-1.49.78-2.04.73-1.15,1.86-2.11,3.05-2.74,1.81-.97,4.34-.64,5.3,1.31.39.79.56,1.72.32,2.57-.24.85-.93,1.6-1.8,1.76-1.64.31-3.3-.49-4.95-.18-.02,0-.04,0-.06.01Z"/>
        <path class="cls-1" d="M110.61,76.87c.32.24.65.56,1.02.94.65.67,1.77.24,2.6-.19,3.88-2.06,11.28-5.68,14.58-.98,1.08,1.54,1.09,3.57.97,5.45-.14,2.25-1.76,5.33-4.57,4.65-1.08-.26-1.94-1.05-2.76-1.81-1.89-1.75-5.09-2.06-6.98-.16-2.41,2.42-.79,7.14.06,9.95.53,1.73,1.05,3.47,1.58,5.2.63,2.08.77,4.49-1.58,5.46-.93.38-1.96.44-2.97.43-.69,0-1.38-.03-2.05-.18-3.9-.92-4.5-4.79-3.96-8.19.68-4.35,2.94-8.96.91-13.31-.63-1.35-2.04-2.35-2.49-3.79-.64-2.04,1.26-2.67,2.81-3.45,1.35-.68,2.1-.58,2.85-.02Z"/>
        <path class="cls-1" d="M299.98,116.28c-.9-3.39-3.05-5.78-5.12-8.51-4.23-5.58-8.57-10.53-7.39-18.06.54-3.47,4.15-8.65,2.02-12.02-1.3-2.07-4.89-3.28-7.1-2.25-1.63.76-2.24.83-3.99.33-1.48-.42-2.89-1.09-4.43-1.29-6.17-.78-11.99,1.79-13.91,8-1.3,4.2-.68,8.87.82,12.94,2.15,5.79,5.54,10.92,12.24,10.86,2.76-.02,5.21-.67,7.69-1.99,1.62-.86,2.6.71,3.43,1.9,1.08,1.55,1.86,3.31,2.57,5.04,1.59,3.9,2.59,8.19.47,12.11-1.07,1.97-2.76,3.43-5.04,3.37-4.42-.11-6.77-4.98-9.06-8.06-2.68-3.6-6.21-6.55-10.28-8.44-3.34-1.55-9.02-3.06-12.4-.83-1.58,1.05-2.64,2.8-3.02,4.66-.6,2.9.1,5.4,2.3,7.33,2.77,2.44,6.11-.57,11.84-.03,2.54.24,4.82.96,6.59,2.79,2.05,2.13,4,4.36,5.83,6.68.22.27,4.65,4.46,10.31,4.68,8.06.3,15.86-7.54,16.25-14.66.1-1.83-.3-3.34-.62-4.55ZM278.91,96.6c-.75,1.15-2.57,1.58-3.9,1.23-1.21-.31-2.23-1.11-3.02-2.05-1.79-2.12-2.69-5.11-2.57-7.86.07-1.48.49-4.07,2.63-5.32,2.43-1.41,6.08-.42,7.17,1.55,1.12,2.02-1.31,3.53-.77,7.88.29,2.37,1.21,3.42.46,4.56Z"/>
        <path class="cls-1" d="M201.02,95.52c-1.84-.77-3.63-.28-5.5.23-2.94.81-3.62,1.98-6.72,2.52-2.54.45-3.31-.06-3.52-.22-1.27-.96-1.57-3.23-.65-4.53.69-.99,1.95-1.23,3.06-1.35,6.3-.71,8.54,2.03,11.81.89,3.13-1.09,5.04-4.97,5.25-8.23.03-.47.22-4.21-2.41-7.2-4.22-4.79-11.93-3.13-13.59-2.77-4.33.93-7.92,3.74-10.28,7.44-2.66,4.17-3.56,8.7-2.4,13.53,1.03,4.32,3.7,8.77,8.35,9.77,1.04.22,2.12.25,3.18.14,2.87-.31,6.51-2.27,9.29-.59,1.35.81,2,1.39,3.29,1.3,2.1-.14,4.4-2.44,4.57-5.19.18-2.72-1.78-4.92-3.72-5.73ZM187.8,86.37c-.79.16-2.71.62-2.65-.69.03-.67.42-1.49.78-2.04.73-1.15,1.86-2.11,3.05-2.74,1.81-.97,4.34-.64,5.3,1.31.39.79.56,1.72.32,2.57-.24.85-.93,1.6-1.8,1.76-1.64.31-3.3-.49-4.95-.18-.02,0-.04,0-.06.01Z"/>
        <path class="cls-1" d="M70.63,60.61c-8.99-12.28-25.16-16.5-39.73-15.47-3.34.24-8.43-.06-9.56,3.95-.98,3.49,1.03,6.82,1.58,10.15,1.24,7.54-.01,15.6-1.44,23.02-1.1,5.75-3.43,12.88-1.53,18.69.78,2.39,2.14,3.32,2.42,3.51,2.33,1.49,5.37.63,6.23.4,11.19-2.89,26.59,5.09,37.88-3.75,9.53-7.47,9.38-21.64,9.33-23.67-.05-2.25-.05-9.81-5.18-16.83ZM30.68,94.85c-7.03-5.02,3.64-24.83,2.89-39.25-.02-.34-.07-1.21.48-1.91,2.89-3.7,20.57-.38,27.44,11.53,5.58,9.67,3.46,24.01-4.53,29.5-6.66,4.57-16.64,2.47-22.92,1.16-1.82-.38-2.74-.58-3.36-1.02Z"/>
      </g>
    </g>
  </g>
</svg>