<?xml version="1.0" encoding="UTF-8"?>
<svg id="Layer_2" data-name="Layer 2" xmlns="http://www.w3.org/2000/svg" viewBox="0 0 141.73 141.73">
  <defs>
    <style>
      .cls-1 {
        fill: none;
      }

      .cls-2 {
        fill: #8accff;
      }
    </style>
  </defs>
  <g id="Layer_1-2" data-name="Layer 1">
    <g>
      <path class="cls-2" d="M95.36,56.66c-4.27-.26-8.93.23-13.3.34-2.25.08-4.17.14-5.52-1.09-1.59-1.46-1.48-4.1-1.5-6.15-.07-3.56.21-6.83.23-10.52.06-5.81-.26-11.6-.26-17.41,0-1.1,0-2.2-.19-3.29-.19-1.18-.59-2.83-1.4-3.76-.57-.64-1.34-.72-2.13-.53-3.29.82-4.59,4.55-6.22,7.09-1.26,1.98-1.97,4.17-3.02,6.31-2.28,4.65-4.54,9.3-6.78,13.97-3.67,7.63-7.28,15.28-10.85,22.96-.93,2-3.84,5.81-1.46,7.68,1.31,1.03,3.85.59,5.34.6,4.55.01,9.09-.55,13.64-.53.95,0,1.97.04,2.74.6,1.15.83,1.31,2.45,1.35,3.87.18,6.73-.02,13.43.13,20.15.14,6.49.29,12.98.45,19.47.05,2.06-.3,10.75,2.51,11.12,2.34.31,4.24-4.67,5.24-6.32,2.71-4.45,4.76-9.45,6.77-14.28,4.72-11.34,9.44-22.68,14.16-34.03,1.25-3.01,2.51-6.03,3.6-9.1,1.45-4.08,1.24-6.93-3.53-7.16ZM89.36,69c-.84,2.37-1.81,4.69-2.78,7.01-.39.92-.75,1.86-1.11,2.8-1.18,3.09-2.16,6.26-3.33,9.35-1.13,3-2.51,5.97-3.73,8.95-.12.29-.81,2.11-1.38,1.51-.68-.73.06-2.92.21-3.76.24-1.34.86-2.61,1.35-3.89,1.07-2.76,2.2-5.5,3.27-8.26,1.26-3.24,2.51-6.47,3.77-9.71.62-1.59,3.51-6.02.95-7.22-.6-.28-1.3-.25-1.96-.22-3.94.21-7.9.54-11.84.52-.57,0-1.15-.01-1.71-.15-3.53-.83-3.1-4.73-3.09-7.51,0-3.49.01-6.97.02-10.46,0-1.77-.2-3.53-.11-5.3.08-1.52.42-2.7,1.29-3.97.7-1.03.64,1.48.65,1.84.06,1.94-.06,3.9-.14,5.84-.15,3.56-.26,7.12-.31,10.68-.02,1.23-.02,2.49.4,3.65.98,2.68,4.15,3.11,6.62,3.03,3.37-.08,6.96-.46,10.25-.26,3.68.18,3.84,2.37,2.72,5.52Z"/>
      <rect class="cls-1" width="141.73" height="141.73"/>
    </g>
  </g>
</svg>