<?xml version="1.0" encoding="UTF-8"?>
<svg id="Layer_2" data-name="Layer 2" xmlns="http://www.w3.org/2000/svg" viewBox="0 0 354.33 353.58">
  <defs>
    <style>
      .cls-1 {
        fill: #007a4e;
      }
    </style>
  </defs>
  <g id="Layer_1-2" data-name="Layer 1">
    <path class="cls-1" d="M353.52,55.37c0-29.35-25.92-53.28-55.26-53.28C235.45,2.09,172.75.1,110.06.04,97.15.02,84.24.01,71.33,0,36.68-.03,2.69,15.69,2.69,55.38c0,19.48-.12,38.7,1.38,58.12,2.28,29.42-2.69,59.21-3.25,88.53-.62,32.31-.82,64.62-.82,96.94,0,13.42,5.85,27.12,13.32,38.03,9.45,13.79,33.38,12.4,47.97,13.93,15.21,1.6,31.46.82,46.84.82,30.63,0,66.3-4.07,79.98-35.98,4.92-11.49,3-24.16,2.85-36.3-.03-2.23-.76-6.13,2.39-3.46,2.33,1.98,4.98,3.57,7.84,4.65,5.46,2.07,11.53,2.25,17.16.75,10.55-2.81,19-11.31,21.43-21.99.22-.98.33-2.06.35-3.19.08-5.44-1.63-10.64-3.02-15.83-.41-1.53-1.16-4.24.56-5.38,1.43-.95,4.01.61,5.4,1.06,2.85.94,5.74,1.78,8.7,2.34,5.75,1.09,11.69,1.04,17.22-1.02,11.7-4.36,16.89-15.56,11.47-27.07-2.18-4.62-5.35-9.02-9.06-13.17-3.54-3.95-7.45-7.55-11.51-10.95-1.87-1.56-9.34-5.77-9.1-8.24.35-3.64,8.7-6.22,11.3-7.95,4.66-3.1,9.08-6.55,13-10.55.7-.71,1.36-1.42,2-2.14,19.88-22.42,8.19-45.52-21.15-43.75-4.31.26-8.59.89-12.81,1.79-2.05.44-9.35,3.56-11,2.65-3.27-1.81.7-10.55,1.07-13.14.69-4.98.99-10.09.3-15.09-1.43-10.33-7.73-18.03-17.78-21.1-11.69-3.57-18.67-2.77-27,6.25-3.08,3.34-5.85,6.96-8.38,10.73-1.31,1.95-2.55,3.94-3.74,5.96-.75,1.28-1.94,4.85-3.13,5.61-4.24,2.71-8.42-8.4-10.06-10.7-3.34-4.67-7.19-8.98-11.66-12.6-5.62-4.55-14.77-4.67-21.34-2.4-8.7,3.01-11.02,9.85-12.51,18.41-1.06,6.09-1.35,12.28-1.19,18.45.08,3,.99,5.96.65,8.98-.14,1.26-.45,3.38-1.76,4.03-1.49.75-2.88-.6-4.28-1.11-8.33-3.03-18.67-2.34-26.7,1.2-8.56,3.77-15.52,11.35-17.83,20.41-2.62,10.26,1.32,19.63,8.86,26.67,3.81,3.55,8.21,6.45,12.73,9.01,3.19,1.81,7.6,2.6,10.15,5.38,3.61,3.94-5.14,8.84-7.79,11.19-2.5,2.22-5,4.44-7.24,6.91-16.74,18.51-3.18,36.63,19.23,36.93,3.33.04,6.63-1.02,9.98-.65,5.91.64,3.39,4.46,2.33,8.7-3.45,13.73-2.71,31.47,4.82,38.43,4.5,4.16,11.57,9.14,17.91,8.22,9.5-1.39,17.35-7.8,23.49-14.81,1.7-1.94,3.29-3.96,4.8-6.04.5-.69,1.39-2.67,2.18-2.97,3.41-1.33,2.91,10.94,3.01,12.55.34,5.86.6,11.72.6,17.59,0,39.78-53.55,37.15-81.36,38.39-19.14.85-45.51,2.29-59.57-13.52-21.42-24.08-10.57-64.28-11.92-93.01-2.27-48.1-.08-96.83-.07-144.99,0-32.96,6.29-72.07,47.96-71.84,41.2.23,81.93,3.69,123.08,1.75,37.96-1.79,146.98-21.92,146.98,39.62,0,19.53,1.66,38.46-.2,58.04-3.01,31.72-.31,61.69-.52,93.21-.2,30.78-.27,61.57-.27,92.35,0,20.52-17.16,38.64-37.67,38.64-25.65,0-51.06-2.76-76.8-2.08-5.96.16-12.19-1.73-14.23,4.97-1.26,4.15,2.04,10.53,5.89,12.21,2.11.93,4.5.9,6.81.85,26.08-.49,52.31-2.34,78.33-2.34,46.59,0,52.78-43.73,50.86-80.6-1.02-19.53.45-39.59,1.01-59.14.79-28.06-1.82-56.39,2.31-84.23,3.51-23.64,1.09-47.89,1.09-71.88ZM152.03,196.84c-14.76-14.88-3.06-35.07,10.34-47.07,4.31-3.86,8.8-6.88,12.64-8.6,7.97-3.56,18.43-1.29,25.68,3,34.49,20.41-13.38,88.26-48.66,52.68Z"/>
  </g>
</svg>