<?xml version="1.0" encoding="UTF-8"?>
<svg id="Layer_2" data-name="Layer 2" xmlns="http://www.w3.org/2000/svg" viewBox="0 0 198.43 198.43">
  <defs>
    <style>
      .cls-1 {
        fill: none;
      }

      .cls-2 {
        fill: #3d6be3;
      }
    </style>
  </defs>
  <g id="Layer_1-2" data-name="Layer 1">
    <g>
      <g>
        <g>
          <path class="cls-2" d="M108.62,70.47c1.09,1.68,4.04,5.89,7.77,8.88,1.98,1.59,3.58,2.34,4.75,2.23.09,0,.18-.02.27-.03.44-.06,1.05-.13,1.83.02.97.18,1.88.65,2.72,1.38l.07.06.03.08c.31.76.66,1.51,1.04,2.24.18.34.37.68.57,1.02-.07-.95-.05-1.86.01-2.73-.37-1.25-.59-2.54-.66-3.83-.04-.67-.03-1.36.02-2.03l.02-.28.28-.02c.26-.02.51-.08.74-.2.3-.15.5-.35.64-.53,0-.03.01-.06.02-.09.34-1.48.69-3.01,1.36-4.89.12-2.3.06-4.62-.17-6.89-.37-3.56-1.18-6.22-2.78-11.52-.32-1.07-1.18-3.89-1.55-4.12-.05.01-.4.18-.94,2.04-.4,1.39-.79,3.28-1.2,5.28-.59,2.9-.89,4.35-1.02,6.22-.35,5.08-.63,9.1,1.45,11.07l-.52.55c-2.33-2.22-2.05-6.39-1.68-11.67.07-1.05.19-1.96.39-3.05-.16-.9-.37-1.8-.64-2.68-.53-1.73-1.6-3.93-3-6.21-.84-1.36-1.45-2.34-1.94-2.98-.58-.76-.78-.74-.8-.74-.03,0-.34.12-.52,1.59-.13,1.07-.15,2.5-.18,4.01-.06,3.36-.12,6.83,1.17,10.98.33,1.07.84,2.7,1.91,4.66.5.92.99,1.65,1.34,2.19.2.3.35.53.44.71.11.12.23.23.34.35.5.53,1.54,1.64,2.41,2.89.54.79.97,1.41,1.32,2.37.3.81.53,1.45.48,2.34-.02.32-.07.55-.11.73-.03.13-.05.23-.05.3l-.76.03c0-.16.03-.32.06-.48.04-.17.08-.36.09-.62.04-.73-.16-1.27-.43-2.03-.32-.87-.7-1.43-1.23-2.2-.83-1.2-1.85-2.28-2.33-2.8-2.64-2.79-5.44-4.9-5.56-4.98-.25-.19-.65-.48-1.15-.83-1.45-1.01-2.64-1.71-3.41-2.15-3.05-1.75-5.49-3.14-6.07-3.18-.05.15-.1.83,1.35,3.43,1.07,1.93,2.6,4.27,3.83,6.15ZM126.15,56.91c.3,2.8.48,5.65.55,8.46.08,3.05.02,6.13-.17,9.17l-.63-.04c.19-3.02.25-6.09.17-9.12-.07-2.8-.25-5.63-.55-8.41l.63-.07ZM119.93,65.69c-1.06-2.4-1.89-4.91-2.48-7.47-.46-2-.77-4.05-.93-6.1l.63-.05c.16,2.02.47,4.04.92,6.01.58,2.51,1.4,4.99,2.44,7.35l-.58.25ZM107.1,64.75c2.97,3.31,6.13,6.52,9.38,9.55,1.66,1.55,3.38,3.08,5.12,4.55l-.41.48c-1.74-1.48-3.47-3.01-5.14-4.57-3.26-3.04-6.43-6.27-9.42-9.59l.47-.42Z"/>
          <path class="cls-2" d="M112.37,88.64c2.97,1.98,5.47,3.57,8.77,5.38,4.94,2.71,6.54,3.11,8.28,2.97,1.23-.1,2.45-.46,3.63-1.09-.12-.37-.17-.69-.22-.95-.09-.46-.13-.66-.34-.81-.1-.07-.15-.08-.3-.1-.12-.02-.29-.04-.51-.11-1.82-.56-2.75-2.64-3.06-3.32-.11-.24-.21-.52-.31-.84h-.01c-.86-.78-1.62-1.31-2.12-1.64-2.74-1.84-5.23-2.44-8.99-3.34-2.48-.6-4.18-.8-7.56-1.2-3.06-.37-4-.28-4.28-.2.24.4,1.56,1.61,7.04,5.26ZM111.23,85.2c1.25.35,2.51.76,3.74,1.2,1.45.53,4.04,1.58,9.75,4.6,1.76.93,3.55,1.91,5.3,2.9l-.31.55c-1.75-.99-3.53-1.96-5.29-2.89-5.68-3-8.24-4.04-9.67-4.56-1.21-.44-2.46-.84-3.69-1.19l.17-.61Z"/>
          <path class="cls-2" d="M138.63,112.93c.33-.05,3.37-.49,7.26-1.81.55-.19,1.1-.39,1.64-.59l.19-.07.16.11c.53.36,1.06.74,1.57,1.11.49.36.87.65,1.21.91.77.58,1.23.94,1.95,1.3.06.03.12.06.19.09-.69-.96-1.3-1.86-1.75-2.53h0c-1.26-.96-2.52-1.95-3.73-2.94-1.61-1.31-2.49-2.04-3.69-3.15-1.1-1.02-2.14-2.09-3.11-3.16-.35-.38-.76-.88-1.39-1.64-.32-.39-.7-.84-1.16-1.39-.47-.56-1.1-1.32-1.86-2.4-1.17-1.68-1.52-2.53-1.39-3.39.05-.31.14-.45.25-.63.08-.13.2-.31.36-.68,0-.02.81-1.83.96-4.97v-.18c.01-.06.02-.19.02-.37,0,0,0-.34,0-.64-.02-1.99-.83-6.93-.87-7.14h0c-.34-2.06-.48-2.77-.59-3.26-.08-.36-.13-.62-.19-.87-.07-.32-.14-.63-.24-1.12-.22-1.05-.34-1.79-.46-2.5l-.06-.37c-.34-2.01-.62-3.67-.84-4.39-.09.22-.19.51-.31.83-.18.49-.39,1.1-.7,1.89-.39,1.01-.58,1.44-.74,1.78-.15.32-.26.58-.49,1.21-.67,1.86-1.02,3.38-1.35,4.86-.21.93-.39,1.83-.53,2.69,0,.03-.12.71-.2,1.36-.3,2.32-.68,5.2.14,8.2.13.48.28.92.43,1.24.27.6,1.1,2.45,2.59,2.9.17.05.28.07.4.08.19.03.39.06.65.24.46.34.54.78.63,1.28.06.32.13.68.29,1.13.16.45.47,1.28,1.24,1.84.25.18.52.32.82.41l.12.04.07.1c.92,1.25,1.91,2.48,2.93,3.66.92,1.06,1.89,2.1,2.88,3.09.2.1.42.21.65.34l-.36.67c-.25-.13-.47-.25-.68-.35-.95-.46-3.11-1.09-6.04-1.36-3.78-.35-9.14.18-12.96.68-4.19.55-5.2.9-5.4,1.07.16.26,1.31,1.09,7.95,3.43,6.88,2.43,10.68,3.77,13.55,3.38ZM132.4,91.3c-.16-2.47-.28-4.97-.35-7.43-.09-3.34-.09-6.72,0-10.06l.63.02c-.09,3.33-.09,6.7,0,10.03.07,2.46.18,4.95.35,7.41l-.63.04ZM138.95,107.32c1.79.35,3.58.8,5.32,1.34l-.19.6c-1.72-.54-3.49-.98-5.25-1.32-4.38-.85-8.89-1.09-13.41-.72l-.05-.63c4.57-.37,9.14-.13,13.58.73Z"/>
          <path class="cls-2" d="M152.03,104.12l.19.15c.77.61,1.58,1.21,2.41,1.78.01,0,1.1.76,2.2,1.43.32.2.65.39.7.42h0s.02.02.03.03c.17-.39.32-.79.46-1.2,0,0,.05-.16.1-.31.35-1.1.61-2.43.76-3.83.2-1.97.2-4.24,0-6.57-.13-1.43-.25-2.01-.51-3.29-.21-1-.49-2.36-.92-4.83-.12-.67-.22-1.27-.31-1.79-.28-1.67-.55-3.26-.77-3.29-.01,0-.31-.03-1,1.2-.49.87-1.03,2.11-1.56,3.3-1.1,2.51-1.8,4.17-2.3,6.64-.64,3.14-.64,6.42,0,9.76.16.13.32.26.5.4ZM155.11,89.15l.62.09c-.38,2.69-.59,5.44-.64,8.16-.04,2.38.05,4.78.27,7.15l-.63.06c-.22-2.39-.31-4.82-.27-7.21.05-2.75.26-5.52.64-8.24Z"/>
          <path class="cls-2" d="M177.08,125.97l.15.04c1.93.54,6.84,1.91,7.91,2.2,1.61.45,4.58,1.28,8.48,1.93,3.87.64,4.65.44,4.81.33-.02-.07-.1-.29-.61-.77-.59-.56-1.31-.68-1.55-.72h-.02c-1.02-.18-4.86-.99-12.49-2.6-.55-.12-2.01-.44-3.65-.89-.68-.19-1.26-.36-1.63-.48-.62-.19-1.25-.4-1.86-.61l-.21-.07-.04-.21c-.09-.45-.15-.92-.19-1.38-.06-.62-.09-.96-.02-1.34.1-.6.41-.96.74-1.33.12-.13.24-.27.36-.43,1.19-1.55,1.6-3.45,1.9-4.84,0,0,.04-.17.07-.32.76-3.93-2.53-11.79-4.11-15.57-.45-1.08-.98-2.33-1.52-3.42-.75-1.52-1.13-1.91-1.26-2.01-.07.08-.22.3-.45.86,0,0-.16.39-.22.81v.04c-.38,2.78-.61,5.16-.61,5.19-.71,7.31-.61,9.29-.42,10.97,0,.05.63,5.25,1.7,7.18.41.73.96,1.32.97,1.33.18.19.29.31.47.45.1.08.19.15.28.2.14.1.28.2.45.37,0,0,.2.2.37.44.48.69.52,1.68.51,2.07v.51s-.5-.16-.5-.16c-.06-.02-.16-.05-.3-.1-1.44-.49-2.84-1.11-4.14-1.83-.08-.05-.2-.11-.34-.19l-.14-.08-.04-.16c-.11-.43-.16-.88-.15-1.32.01-1.43.61-2.55,1.1-3.24l.03.02c-.65-2.33-1-5.24-1.02-5.4-.19-1.73-.3-3.75.42-11.13h0c.03-.31.25-2.56.59-5.08-.42-.77-.57-1.43-.69-1.92-.05-.19-.09-.36-.13-.5-.06-.19-.12-.36-.17-.5-.04-.13-.08-.25-.12-.35-.14.31-.31.79-.5,1.3-.52,1.45-1.32,3.64-2.81,6.61-2.95,5.91-2.09,11.73-1.24,13.47.39.8,1.69,2.73,2.12,3.23.21.24.73.98.96,1.46.39.81.49,1.97.51,2.59l.02.51-.5-.13c-.32-.08-.63-.19-.93-.31-.48-.19-.95-.43-1.38-.72l-.16-.1v-.19c-.02-.24-.05-.48-.08-.72-.35-2.52-1.76-4.24-3.01-5.76-.02-.03-2.2-2.66-5.19-4.38h0s-.02-.01-.03-.02c-.06-.04-.2-.12-.38-.22l-.04-.02c-.11-.07-.39-.23-.68-.41-1.12-.68-2.23-1.45-2.24-1.46-.84-.58-1.66-1.19-2.45-1.81l-.2-.16c-.39-.31-.73-.59-1.05-.84-1.33-1.06-2.06-1.65-3.09-2.26-.59-.35-.92-.49-1.09-.55.03.19.15.57.55,1.35,2.89,5.69,4.26,7.8,4.27,7.83.48.74,1.63,2.5,2.95,4.23.02,0,.03.01.05.02v.04c.59.79,1.22,1.56,1.83,2.24.51.56,1.02,1.05,1.17,1.19,1.14,1.09,1.76,1.7,2.68,2.22.39.22,1.43.81,2.87.99.39.05.75.02,1.14-.01.65-.05,1.33-.11,2.14.24.02,0,.02.01.74.38,1.85.95,2.09,1.07,2.08,1.52-.01.5-.62.76-1.21.95-1.16.38-2.07.36-2.96.34-.65-.01-1.31-.02-2.1.11-.57.1-.97.24-1.78.53-2.13.77-6,3.02-12.31,9.41l-.17.18c-1.97,1.98-3.32,3.36-4.2,4.4-1.16,1.38-1.05,1.7-1.02,1.75.02.04.28.33,2.27-.22,1.41-.39,3.29-1.08,5.28-1.81h.01c4.33-1.6,6.51-2.4,8.82-3.96,4.6-3.12,7.82-7.42,8.26-8.14v-.02c.09-.13.26-.4.55-.71.81-.85,1.94-1.3,2.16-1.38h.02c.11-.05.38-.14.68-.34.09-.06.18-.12.26-.19l.18-.15.21.1c.95.43,1.93.81,2.92,1.14.22.07.43.14.64.21l.47.14-.25.42c-.21.35-.48.64-.8.87-.59.44-1.2.53-1.4.57h-.02c-.86.15-2.57,1.01-4.57,2.31-3.72,2.41-5.97,8.83-8.57,16.26-1.03,2.93-1.63,4.94-1.24,5.25.12.09.86.43,3.9-1.83,1.77-1.32,3.41-2.86,3.48-2.92,7.23-6.78,9.93-15.01,9.44-16.88-.05-.2-.47-1.94.23-2.84.05-.06.22-.28.5-.5.15-.12.3-.22.46-.31l.14-.08ZM162.89,119.11c-1.47-1.45-2.93-2.94-4.35-4.42-2.35-2.46-4.68-5.01-6.92-7.57l.48-.41c2.23,2.56,4.55,5.1,6.9,7.55,1.42,1.48,2.88,2.96,4.34,4.41l-.44.45ZM158.61,131.22c-3.28,2.2-6.62,4.41-9.92,6.58l-.35-.53c3.3-2.17,6.64-4.38,9.92-6.57,2.09-1.4,4.22-2.83,6.31-4.26l.35.52c-2.1,1.42-4.22,2.86-6.32,4.26ZM169.05,114.84l-.63.05c-.26-3.11-.36-6.26-.29-9.37.07-2.89.28-5.8.64-8.67l.63.08c-.35,2.85-.57,5.74-.63,8.61-.07,3.09.02,6.22.28,9.31ZM168.47,136.92c-2.07,3.18-4.04,6.48-5.86,9.8l-.55-.3c1.83-3.34,3.81-6.65,5.88-9.85,1.49-2.29,3.06-4.57,4.67-6.78l.51.37c-1.6,2.2-3.17,4.47-4.65,6.75ZM175.67,118.19l-.63-.04c.16-2.32.16-4.66,0-6.98-.26-3.71-.95-7.41-2.05-10.99l.6-.18c1.11,3.63,1.81,7.37,2.08,11.13.17,2.34.17,4.72,0,7.07Z"/>
          <path class="cls-2" d="M142.88,86.33c-2.03,5.6-2.26,6.95-2.4,8.51-.12,1.29-.37,3.96.64,6.9.9.99,1.87,1.97,2.88,2.92.43-.22.84-.47,1.22-.77.38-.29.74-.63,1.06-.99-.02-.05-.05-.09-.07-.14-.59-1.17-.87-1.97-.42-2.36.24-.21.61-.22,1.63.34.33-.88.58-1.8.76-2.72.26-1.33.33-2.51.28-4.53-.08-3.32-.42-5.93-.58-7.18l-.02-.15c-.65-5.05-1.12-7.95-1.39-8.64-.63.62-2.01,4.43-3.59,8.81ZM144.73,96.65c-.32,1.98-.71,3.97-1.15,5.93l-.62-.14c.44-1.95.82-3.93,1.14-5.89.66-4.02,1.08-8.12,1.25-12.2l.63.03c-.17,4.1-.59,8.23-1.25,12.28Z"/>
          <path class="cls-2" d="M151.86,124.87c1.84-.72,3.48-1.7,3.94-1.98,1.12-.69,2.2-1.47,3.21-2.32-.78-.51-1.42-1.13-2.38-2.06-.14-.13-.61-.59-1.11-1.13-2.97-.45-5.89-.41-8.67.13-2.39.46-4.62,1.47-9.45,3.71-2.54,1.18-4.29,2-5.5,2.64-1.6.86-1.76,1.18-1.77,1.26.01.07.24.76,4.38,1.05,2.55.18,5.63.16,7.88.14,4.26-.03,6.92-.44,9.47-1.44ZM136.74,124.51l-.13-.62c3.66-.75,7.35-1.6,10.97-2.5,2.58-.65,5.19-1.34,7.75-2.06l.17.61c-2.57.73-5.18,1.42-7.77,2.07-3.63.91-7.33,1.75-11,2.51Z"/>
        </g>
        <g>
          <path class="cls-2" d="M89.81,70.47c-1.09,1.68-4.04,5.89-7.77,8.88-1.98,1.59-3.58,2.34-4.75,2.23-.09,0-.18-.02-.27-.03-.44-.06-1.05-.13-1.83.02-.97.18-1.88.65-2.72,1.38l-.07.06-.03.08c-.31.76-.66,1.51-1.04,2.24-.18.34-.37.68-.57,1.02.07-.95.05-1.86-.01-2.73.37-1.25.59-2.54.66-3.83.04-.67.03-1.36-.02-2.03l-.02-.28-.28-.02c-.26-.02-.51-.08-.74-.2-.3-.15-.5-.35-.64-.53,0-.03-.01-.06-.02-.09-.34-1.48-.69-3.01-1.36-4.89-.12-2.3-.06-4.62.17-6.89.37-3.56,1.18-6.22,2.78-11.52.32-1.07,1.18-3.89,1.55-4.12.05.01.4.18.94,2.04.4,1.39.79,3.28,1.2,5.28.59,2.9.89,4.35,1.02,6.22.35,5.08.63,9.1-1.45,11.07l.52.55c2.33-2.22,2.05-6.39,1.68-11.67-.07-1.05-.19-1.96-.39-3.05.16-.9.37-1.8.64-2.68.53-1.73,1.6-3.93,3-6.21.84-1.36,1.45-2.34,1.94-2.98.58-.76.78-.74.8-.74.03,0,.34.12.52,1.59.13,1.07.15,2.5.18,4.01.06,3.36.12,6.83-1.17,10.98-.33,1.07-.84,2.7-1.91,4.66-.5.92-.99,1.65-1.34,2.19-.2.3-.35.53-.44.71-.11.12-.23.23-.34.35-.5.53-1.54,1.64-2.41,2.89-.54.79-.97,1.41-1.32,2.37-.3.81-.53,1.45-.48,2.34.02.32.07.55.11.73.03.13.05.23.05.3l.76.03c0-.16-.03-.32-.06-.48-.04-.17-.08-.36-.09-.62-.04-.73.16-1.27.43-2.03.32-.87.7-1.43,1.23-2.2.83-1.2,1.85-2.28,2.33-2.8,2.64-2.79,5.44-4.9,5.56-4.98.25-.19.65-.48,1.15-.83,1.45-1.01,2.64-1.71,3.41-2.15,3.05-1.75,5.49-3.14,6.07-3.18.05.15.1.83-1.35,3.43-1.07,1.93-2.6,4.27-3.83,6.15ZM72.27,56.91c-.3,2.8-.48,5.65-.55,8.46-.08,3.05-.02,6.13.17,9.17l.63-.04c-.19-3.02-.25-6.09-.17-9.12.07-2.8.25-5.63.55-8.41l-.63-.07ZM78.49,65.69c1.06-2.4,1.89-4.91,2.48-7.47.46-2,.77-4.05.93-6.1l-.63-.05c-.16,2.02-.47,4.04-.92,6.01-.58,2.51-1.4,4.99-2.44,7.35l.58.25ZM91.32,64.75c-2.97,3.31-6.13,6.52-9.38,9.55-1.66,1.55-3.38,3.08-5.12,4.55l.41.48c1.74-1.48,3.47-3.01,5.14-4.57,3.26-3.04,6.43-6.27,9.42-9.59l-.47-.42Z"/>
          <path class="cls-2" d="M86.05,88.64c-2.97,1.98-5.47,3.57-8.77,5.38-4.94,2.71-6.54,3.11-8.28,2.97-1.23-.1-2.45-.46-3.63-1.09.12-.37.17-.69.22-.95.09-.46.13-.66.34-.81.1-.07.15-.08.3-.1.12-.02.29-.04.51-.11,1.82-.56,2.75-2.64,3.06-3.32.11-.24.21-.52.31-.84h.01c.86-.78,1.62-1.31,2.12-1.64,2.74-1.84,5.23-2.44,8.99-3.34,2.48-.6,4.18-.8,7.56-1.2,3.06-.37,4-.28,4.28-.2-.24.4-1.56,1.61-7.04,5.26ZM87.2,85.2c-1.25.35-2.51.76-3.74,1.2-1.45.53-4.04,1.58-9.75,4.6-1.76.93-3.55,1.91-5.3,2.9l.31.55c1.75-.99,3.53-1.96,5.29-2.89,5.68-3,8.24-4.04,9.67-4.56,1.21-.44,2.46-.84,3.69-1.19l-.17-.61Z"/>
          <path class="cls-2" d="M59.8,112.93c-.33-.05-3.37-.49-7.26-1.81-.55-.19-1.1-.39-1.64-.59l-.19-.07-.16.11c-.53.36-1.06.74-1.57,1.11-.49.36-.87.65-1.21.91-.77.58-1.23.94-1.95,1.3-.06.03-.12.06-.19.09.69-.96,1.3-1.86,1.75-2.53h0c1.26-.96,2.52-1.95,3.73-2.94,1.61-1.31,2.49-2.04,3.69-3.15,1.1-1.02,2.14-2.09,3.11-3.16.35-.38.76-.88,1.39-1.64.32-.39.7-.84,1.16-1.39.47-.56,1.1-1.32,1.86-2.4,1.17-1.68,1.52-2.53,1.39-3.39-.05-.31-.14-.45-.25-.63-.08-.13-.2-.31-.36-.68,0-.02-.81-1.83-.96-4.97v-.18c-.01-.06-.02-.19-.02-.37,0,0,0-.34,0-.64.02-1.99.83-6.93.87-7.14h0c.34-2.06.48-2.77.59-3.26.08-.36.13-.62.19-.87.07-.32.14-.63.24-1.12.22-1.05.34-1.79.46-2.5l.06-.37c.34-2.01.62-3.67.84-4.39.09.22.19.51.31.83.18.49.39,1.1.7,1.89.39,1.01.58,1.44.74,1.78.15.32.26.58.49,1.21.67,1.86,1.02,3.38,1.35,4.86.21.93.39,1.83.53,2.69,0,.03.12.71.2,1.36.3,2.32.68,5.2-.14,8.2-.13.48-.28.92-.43,1.24-.27.6-1.1,2.45-2.59,2.9-.17.05-.28.07-.4.08-.19.03-.39.06-.65.24-.46.34-.54.78-.63,1.28-.06.32-.13.68-.29,1.13-.16.45-.47,1.28-1.24,1.84-.25.18-.52.32-.82.41l-.12.04-.07.1c-.92,1.25-1.91,2.48-2.93,3.66-.92,1.06-1.89,2.1-2.88,3.09-.2.1-.42.21-.65.34l.36.67c.25-.13.47-.25.68-.35.95-.46,3.11-1.09,6.04-1.36,3.78-.35,9.14.18,12.96.68,4.19.55,5.2.9,5.4,1.07-.16.26-1.31,1.09-7.95,3.43-6.88,2.43-10.68,3.77-13.55,3.38ZM66.03,91.3c.16-2.47.28-4.97.35-7.43.09-3.34.09-6.72,0-10.06l-.63.02c.09,3.33.09,6.7,0,10.03-.07,2.46-.18,4.95-.35,7.41l.63.04ZM59.47,107.32c-1.79.35-3.58.8-5.32,1.34l.19.6c1.72-.54,3.49-.98,5.25-1.32,4.38-.85,8.89-1.09,13.41-.72l.05-.63c-4.57-.37-9.14-.13-13.58.73Z"/>
          <path class="cls-2" d="M46.39,104.12l-.19.15c-.77.61-1.58,1.21-2.41,1.78-.01,0-1.1.76-2.2,1.43-.32.2-.65.39-.7.42h0s-.02.02-.03.03c-.17-.39-.32-.79-.46-1.2,0,0-.05-.16-.1-.31-.35-1.1-.61-2.43-.76-3.83-.2-1.97-.2-4.24,0-6.57.13-1.43.25-2.01.51-3.29.21-1,.49-2.36.92-4.83.12-.67.22-1.27.31-1.79.28-1.67.55-3.26.77-3.29.01,0,.31-.03,1,1.2.49.87,1.03,2.11,1.56,3.3,1.1,2.51,1.8,4.17,2.3,6.64.64,3.14.64,6.42,0,9.76-.16.13-.32.26-.5.4ZM43.31,89.15l-.62.09c.38,2.69.59,5.44.64,8.16.04,2.38-.05,4.78-.27,7.15l.63.06c.22-2.39.31-4.82.27-7.21-.05-2.75-.26-5.52-.64-8.24Z"/>
          <path class="cls-2" d="M21.34,125.97l-.15.04c-1.93.54-6.84,1.91-7.91,2.2-1.61.45-4.58,1.28-8.48,1.93-3.87.64-4.65.44-4.81.33.02-.07.1-.29.61-.77.59-.56,1.31-.68,1.55-.72h.02c1.02-.18,4.86-.99,12.49-2.6.55-.12,2.01-.44,3.65-.89.68-.19,1.26-.36,1.63-.48.62-.19,1.25-.4,1.86-.61l.21-.07.04-.21c.09-.45.15-.92.19-1.38.06-.62.09-.96.02-1.34-.1-.6-.41-.96-.74-1.33-.12-.13-.24-.27-.36-.43-1.19-1.55-1.6-3.45-1.9-4.84,0,0-.04-.17-.07-.32-.76-3.93,2.53-11.79,4.11-15.57.45-1.08.98-2.33,1.52-3.42.75-1.52,1.13-1.91,1.26-2.01.07.08.22.3.45.86,0,0,.16.39.22.81v.04c.38,2.78.61,5.16.61,5.19.71,7.31.61,9.29.42,10.97,0,.05-.63,5.25-1.7,7.18-.41.73-.96,1.32-.97,1.33-.18.19-.29.31-.47.45-.1.08-.19.15-.28.2-.14.1-.28.2-.45.37,0,0-.2.2-.37.44-.48.69-.52,1.68-.51,2.07v.51s.5-.16.5-.16c.06-.02.16-.05.3-.1,1.44-.49,2.84-1.11,4.14-1.83.08-.05.2-.11.34-.19l.14-.08.04-.16c.11-.43.16-.88.15-1.32-.01-1.43-.61-2.55-1.1-3.24l-.03.02c.65-2.33,1-5.24,1.02-5.4.19-1.73.3-3.75-.42-11.13h0c-.03-.31-.25-2.56-.59-5.08.42-.77.57-1.43.69-1.92.05-.19.09-.36.13-.5.06-.19.12-.36.17-.5.04-.13.08-.25.12-.35.14.31.31.79.5,1.3.52,1.45,1.32,3.64,2.81,6.61,2.95,5.91,2.09,11.73,1.24,13.47-.39.8-1.69,2.73-2.12,3.23-.21.24-.73.98-.96,1.46-.39.81-.49,1.97-.51,2.59l-.02.51.5-.13c.32-.08.63-.19.93-.31.48-.19.95-.43,1.38-.72l.16-.1v-.19c.02-.24.05-.48.08-.72.35-2.52,1.76-4.24,3.01-5.76.02-.03,2.2-2.66,5.19-4.38h0s.02-.01.03-.02c.06-.04.2-.12.38-.22l.04-.02c.11-.07.39-.23.68-.41,1.12-.68,2.23-1.45,2.24-1.46.84-.58,1.66-1.19,2.45-1.81l.2-.16c.39-.31.73-.59,1.05-.84,1.33-1.06,2.06-1.65,3.09-2.26.59-.35.92-.49,1.09-.55-.03.19-.15.57-.55,1.35-2.89,5.69-4.26,7.8-4.27,7.83-.48.74-1.63,2.5-2.95,4.23-.02,0-.03.01-.05.02v.04c-.59.79-1.22,1.56-1.83,2.24-.51.56-1.02,1.05-1.17,1.19-1.14,1.09-1.76,1.7-2.68,2.22-.39.22-1.43.81-2.87.99-.39.05-.75.02-1.14-.01-.65-.05-1.33-.11-2.14.24-.02,0-.02.01-.74.38-1.85.95-2.09,1.07-2.08,1.52.01.5.62.76,1.21.95,1.16.38,2.07.36,2.96.34.65-.01,1.31-.02,2.1.11.57.1.97.24,1.78.53,2.13.77,6,3.02,12.31,9.41l.17.18c1.97,1.98,3.32,3.36,4.2,4.4,1.16,1.38,1.05,1.7,1.02,1.75-.02.04-.28.33-2.27-.22-1.41-.39-3.29-1.08-5.28-1.81h-.01c-4.33-1.6-6.51-2.4-8.82-3.96-4.6-3.12-7.82-7.42-8.26-8.14v-.02c-.09-.13-.26-.4-.55-.71-.81-.85-1.94-1.3-2.16-1.38h-.02c-.11-.05-.38-.14-.68-.34-.09-.06-.18-.12-.26-.19l-.18-.15-.21.1c-.95.43-1.93.81-2.92,1.14-.22.07-.43.14-.64.21l-.47.14.25.42c.21.35.48.64.8.87.59.44,1.2.53,1.4.57h.02c.86.15,2.57,1.01,4.57,2.31,3.72,2.41,5.97,8.83,8.57,16.26,1.03,2.93,1.63,4.94,1.24,5.25-.12.09-.86.43-3.9-1.83-1.77-1.32-3.41-2.86-3.48-2.92-7.23-6.78-9.93-15.01-9.44-16.88.05-.2.47-1.94-.23-2.84-.05-.06-.22-.28-.5-.5-.15-.12-.3-.22-.46-.31l-.14-.08ZM35.53,119.11c1.47-1.45,2.93-2.94,4.35-4.42,2.35-2.46,4.68-5.01,6.92-7.57l-.48-.41c-2.23,2.56-4.55,5.1-6.9,7.55-1.42,1.48-2.88,2.96-4.34,4.41l.44.45ZM39.81,131.22c3.28,2.2,6.62,4.41,9.92,6.58l.35-.53c-3.3-2.17-6.64-4.38-9.92-6.57-2.09-1.4-4.22-2.83-6.31-4.26l-.35.52c2.1,1.42,4.22,2.86,6.32,4.26ZM29.37,114.84l.63.05c.26-3.11.36-6.26.29-9.37-.07-2.89-.28-5.8-.64-8.67l-.63.08c.35,2.85.57,5.74.63,8.61.07,3.09-.02,6.22-.28,9.31ZM29.96,136.92c2.07,3.18,4.04,6.48,5.86,9.8l.55-.3c-1.83-3.34-3.81-6.65-5.88-9.85-1.49-2.29-3.06-4.57-4.67-6.78l-.51.37c1.6,2.2,3.17,4.47,4.65,6.75ZM22.75,118.19l.63-.04c-.16-2.32-.16-4.66,0-6.98.26-3.71.95-7.41,2.05-10.99l-.6-.18c-1.11,3.63-1.81,7.37-2.08,11.13-.17,2.34-.17,4.72,0,7.07Z"/>
          <path class="cls-2" d="M55.54,86.33c2.03,5.6,2.26,6.95,2.4,8.51.12,1.29.37,3.96-.64,6.9-.9.99-1.87,1.97-2.88,2.92-.43-.22-.84-.47-1.22-.77-.38-.29-.74-.63-1.06-.99.02-.05.05-.09.07-.14.59-1.17.87-1.97.42-2.36-.24-.21-.61-.22-1.63.34-.33-.88-.58-1.8-.76-2.72-.26-1.33-.33-2.51-.28-4.53.08-3.32.42-5.93.58-7.18l.02-.15c.65-5.05,1.12-7.95,1.39-8.64.63.62,2.01,4.43,3.59,8.81ZM53.69,96.65c.32,1.98.71,3.97,1.15,5.93l.62-.14c-.44-1.95-.82-3.93-1.14-5.89-.66-4.02-1.08-8.12-1.25-12.2l-.63.03c.17,4.1.59,8.23,1.25,12.28Z"/>
          <path class="cls-2" d="M46.56,124.87c-1.84-.72-3.48-1.7-3.94-1.98-1.12-.69-2.2-1.47-3.21-2.32.78-.51,1.42-1.13,2.38-2.06.14-.13.61-.59,1.11-1.13,2.97-.45,5.89-.41,8.67.13,2.39.46,4.62,1.47,9.45,3.71,2.54,1.18,4.29,2,5.5,2.64,1.6.86,1.76,1.18,1.77,1.26-.01.07-.24.76-4.38,1.05-2.55.18-5.63.16-7.88.14-4.26-.03-6.92-.44-9.47-1.44ZM61.68,124.51l.13-.62c-3.66-.75-7.35-1.6-10.97-2.5-2.58-.65-5.19-1.34-7.75-2.06l-.17.61c2.57.73,5.18,1.42,7.77,2.07,3.63.91,7.33,1.75,11,2.51Z"/>
        </g>
      </g>
      <rect class="cls-1" width="198.43" height="198.43"/>
    </g>
  </g>
</svg>