<?xml version="1.0" encoding="UTF-8"?>
<svg id="Layer_2" data-name="Layer 2" xmlns="http://www.w3.org/2000/svg" viewBox="0 0 141.73 141.73">
  <defs>
    <style>
      .cls-1 {
        fill: none;
      }

      .cls-2 {
        fill: #8accff;
      }
    </style>
  </defs>
  <g id="Layer_1-2" data-name="Layer 1">
    <g>
      <path class="cls-2" d="M112.16,67.4c-3.27-.85-6.32-2.36-9.55-3.38-3.29-1.04-6.61-1.99-9.84-3.21-1.03-.39-2.21-1.05-2.22-2.15,0-.46.22-.9.44-1.31,1.37-2.62,2.66-5.28,3.85-7.99.54-1.23.97-2.54,1.55-3.73.59-1.2,1.36-2.23,1.61-3.59.46-2.94-3.33-.72-5.38-.1-2.97.93-6.94,2.78-10.02,4.49-1.64.72-2.65,1.22-3.14-.83-.47-1.96-.82-3.94-1.12-5.94-.59-3.84-.99-7.71-1.71-11.52-.43-2.26-.85-4.52-1.31-6.77-.38-1.85-.53-4.42-1.43-6.09-.32-.6-.92-1.09-1.6-1.12-.65-.03-1.26.36-1.66.87-.4.51-.62,1.14-.83,1.76-2.83,8.34-4.58,17-6.96,25.48-.29,1.02-.75,3.18-2.04,3.36-.97.14-1.95-1.01-2.65-1.52-1.65-1.21-3.15-2.62-4.72-3.93-1.25-1.04-2.78-2.54-4.45-2.81-2.42-.4-2.78,2.63-2.45,4.36.85,4.35,1.7,8.69,2.54,13.04.16.84.3,1.79-.23,2.46-.38.48-1,.68-1.59.85-4.08,1.19-8.09,2.6-12.24,3.55-2.71.63-5.31,1.71-8.02,2.36-1.09.26-2.2.49-3.28.79-1.07.29-2.72.75-3.27,1.82-1.88,3.6,4.3,5.4,6.56,6.27,5.59,2.16,11.5,3.55,17.08,5.84.28.11.56.23.8.42.54.43.74,1.18.69,1.87-.05.69-.33,1.34-.6,1.97-.99,2.31-7.34,12.76-1.54,13.46,1.23.15,3.4-.89,4.58-1.28,1.9-.62,3.8-1.24,5.7-1.87.53-.17,1.7-.56,2.2-.15.13.11.22.25.29.4.02.04.04.08.06.13,1.86,3.87,2.02,8.27,3.05,12.39,1,4.09,1.94,8.24,3.06,12.31.5,1.79,1.04,3.58,1.63,5.34.45,1.33.66,3.21,2.19,3.73.64.22,1.37.05,1.96-.29,2.14-1.25,2.21-5.13,2.81-7.32,1.38-5.04,2.98-10.02,4.65-14.97.82-2.44,1.66-4.87,2.5-7.3.55-1.6.98-4.63,3.4-3.51,2.67,1.24,4.73,3.48,7.32,4.86,1.78,1.14,5.08,4.99,6.92,2.71,1.01-1.75-.62-3.92-1.28-5.84-.75-2.26-1.62-4.48-2.43-6.72-.46-1.27-1.6-2.92-1.36-4.33.36-2.06,3.09-1.96,4.65-2.39,4.77-1.3,9.52-2.72,14.31-4.01,2.39-.64,4.6-1.79,6.99-2.36,1.49-.35,3.98-.58,4.79-2.1,1.59-2.97-7.51-6.04-9.29-6.5ZM80.47,71.62c-.12.36-.48.57-.83.72-.95.41-6.65.15-6.71,1.12-.01.22.11.42.22.6.51.8,1.07,1.61,1.29,2.54.09.4.06.92-.31,1.1-.17.08-.36.06-.54.03-.63-.1-1.23-.35-1.74-.72-.83-.6-1.31-1.08-1.79-.05-.27.58-.24,1.35-.33,1.98-.24,1.65-.22,3.36-.78,4.95-.19.54-.77,2-1.58,1.7-.9-.33-.95-3.35-.95-4.12,0-.58,0-1.15,0-1.73,0-1.26.21-2.53-.43-3.66-.04-.08-.09-.16-.17-.19-.1-.05-.21-.02-.31,0-.93.26-1.74.79-2.61,1.22-1.3.64-1.88-.39-1.19-1.5,1.09-1.76,1.34-2.65-.95-3.11-1.74-.35-3.72-.06-5.24-1.01-.16-.1-.33-.22-.42-.39-.24-.46.2-.99.66-1.22,1.05-.54,2.4-.4,3.54-.38.69.01,4.83.59,4.31-.87-.32-.91-2.35-3.46-.66-3.89,1.04-.26,2.58,1.35,3.4,1.9.11.07.22.15.35.16.4.04.59-.47.65-.86.29-2.17.35-4.38.84-6.52.19-.84.48-2.49,1.15-3.09.13-.12.26-.19.37-.23,1.95-.56,1.13,8.16,1.06,8.79l-.12,1.05c-.15,1.4.55.84,1.31.39.7-.42,1.52-.65,2.28-.95.35-.13.79-.26,1.07,0,.4.35.07.99-.26,1.4-.47.57-.94,1.15-1.41,1.72-1.12,1.36.49,1.35,1.6,1.42.83.05,5.91-.4,5.23,1.69Z"/>
      <rect class="cls-1" width="141.73" height="141.73"/>
    </g>
  </g>
</svg>