<?xml version="1.0" encoding="UTF-8"?>
<svg id="Layer_2" data-name="Layer 2" xmlns="http://www.w3.org/2000/svg" viewBox="0 0 57.87 56.69">
  <defs>
    <style>
      .cls-1 {
        fill: #8accff;
      }
    </style>
  </defs>
  <g id="Layer_1-2" data-name="Layer 1">
    <path class="cls-1" d="M54.51,17.94c-2.06,0-4.28-.34-6.1-1.5-2.26-1.29-4.48-3.04-7.24-3.43-.83-.17-1.94.35-2.47-.24-.26-.61.37-1.61.72-2.19,1.06-1.53,2.14-2.97,3.14-4.24,1.12-1.69,3.63-3.45,2.85-5.38l-.04-.08c-1.21-1.77-3.87-.63-4.83.9-1.76,2.59-2.86,5.58-4.79,8.04-.44.59-1.08,1.41-1.74,1.6-1,.18-1.55-1.01-2.47-1.53-1.96-1.53-4.03-2.11-6.9-1.95-3.82.11-8.19,2.05-11.84,1.39-1.59-.28-4.51-1.57-5.19.58-.12.94.8,1.95,1.75,2.93,2.19,2.26,1.2,3.21-1.11,4.49-2.33,1.29-4.71,3.22-5.54,5.86-.17.54-.25,1.11-.42,1.65-.5,1.54-2.98,3.35-2.1,5.22.51,1,1.8,1.05,2.7,1.53,2.41.98,5.24,1.87,7.93,1.87,1.87-.06,4.36-1.54,6.28-1.96,1.68-.05-.16,3.53-.36,4.55-.72,2.45-1.8,4.98-2.1,7.62-.23,1.94.01,3.88.25,5.79.35,2.33-.11,4.35.65,6.53.65,1.85,3.76-.61,4.55-1.17,2.59-1.86,5.37-2.81,8.22-4.12,1.04-.48,2.03-1.2,2.97-1.84,1.15-.78,1.92-2.06,2.89-3.03,1.47-1.73,2.39-3.51,2.7-5.52.28-1.07.22-2.65,1.13-3.36.53-.37,1.17.17,1.59.6.98,1.04,2.04,1.91,2.96,2.31,1.01.69,2.03.7,3.22.76,2.34.57,4.39,1.73,6.5,2.81,1.65.74,4.17,1.79,4.39-.84.85-4.13.61-8.18-.21-12.25-1.09-4.95-2.58-5.22,1.16-9.63,1.14-2-1.44-2.82-3.07-2.8ZM45.78,21.63c-1.66-.31-3.46-1.2-4.72-2.32-.93-.83-2.49-1.56-3.72-1.04-1,.42-.77,1.3-.19,2.11.65.89,1.38,1.73,2.17,2.51,1.59,1.55,2.93,3.13,4.89,4.22,1.75.97,2.64,2.44,3.26,4.28.2.58,1.31,3.75-.11,3.66-.62-.04-.48-1.08-.56-1.52-.17-.95-.54-1.92-1.03-2.76-.34-.58-.77-1.1-1.2-1.62-.25-.31-.51-.62-.83-.86-1.59-1.2-3.18-2.16-4.58-3.61-1.25-1.29-2.38-2.71-3.33-4.23-.36-.58-.78-1.16-1.55-.81-.53.24-.89.83-1.19,1.31-.71,1.11-1.42,2.22-2.12,3.32-.48.75-.87,1.5-1.38,2.23-.89,1.26-1.21,3.08-1.62,4.55-1.06,3.73-1.9,7.58-3.23,11.2-.34.93-.88,1.76-1.42,2.59-.23.36-1.12,1.48-1.09.26.05-1.7,1.14-3.24,1.63-4.87.52-1.7.87-3.45,1.22-5.2.43-2.14.91-4.05,1.75-6.06.86-2.04,1.84-4.04,2.99-5.93.37-.61.89-1.11,1.36-1.63.34-.38,1.16-1.13,1-1.72-.12-.46-1.94.14-2.33.21-.91.16-1.83.28-2.75.21-1.35-.11-2.71-.61-4.06-.52-1.37.09-2.66.63-3.9,1.17-1.92.82-3.69,2.4-5.17,3.85-.59.58-1.21,1.86-2.08,2.07-.63.15-.78-.14-.55-.7,1.13-2.78,4.29-5,6.93-6.2,1.55-.7,3.43-1.71,5.23-1.64,2.04.07,3.99.68,6.07.45.69-.07,2.23-.04,2.62-.69.05-.08.09-.17.08-.26,0-.12-.1-.22-.18-.31-2.84-2.82-6.94-2.99-10.69-2.54-1.33.16-2.69.53-4,.2-.31-.08-.63-.21-.81-.47-.24-.35-.11-.49.14-.55.12-.03.26-.04.4-.04,1.78-.05,3.51-.07,5.25-.39,1.41-.26,2.98-.34,4.41-.22,1.74.15,3.31.93,4.74,1.88.59.39,1.11.87,1.67,1.3.48.36.58,1.01,1.21,1.21.6.19.88-.17,1.36-.37.57-.23,1.46-.31,2.08-.31,2.36-.02,4.14,2.14,6.4,2.83,1.06.32,2.23.25,3.31.53.32.08,1.21.25,1.34.63.24.68-2.77.7-3.13.63Z"/>
  </g>
</svg>