<?xml version="1.0" encoding="UTF-8"?>
<svg id="Layer_2" data-name="Layer 2" xmlns="http://www.w3.org/2000/svg" viewBox="0 0 225 456.75">
  <defs>
    <style>
      .cls-1 {
        fill: #a2f4e6;
      }
    </style>
  </defs>
  <g id="Layer_1-2" data-name="Layer 1">
    <g>
      <path class="cls-1" d="M44.56,84.2c-4.17.41-8.46-2.08-10.22-5.73-1.94-4.02-1.5-8.99.8-12.7,1.99-3.2,5.96-4.04,9.31-3.17,2.09.54,3.46,1.66,4.52,3.42,1.47,2.44,2.78,4.78,3.27,7.69.81,4.86-2.34,9.98-7.68,10.5ZM41.95,81.95c3.77.9,7.45-1.38,8.13-5.07.55-3.01-1-8.89-3.6-10.82-2.41-1.79-6.44-1.8-8.55.64-2.87,3.32-3.16,8.51-1.03,12.24,1.02,1.8,3.08,2.54,5.06,3.02Z"/>
      <path class="cls-1" d="M76.93,32.34c-2.76-.02-5.71-1.26-6.96-3.74-2.87-5.68.17-14.01,4.81-14.59,2.99-.38,6.15,1.53,7.43,4.19s.96,5.56.31,8.29c-.76,2.8-2.53,4.97-5.6,5.84ZM74.31,29.48c1.98.77,4.01.31,5.27-1.44,2.28-3.17,2.16-7.69-.29-10.71-1.35-1.67-3.52-2.05-5.15-.5-2.22,2.12-3.41,5.39-3.12,8.45.2,2.09,1.33,3.43,3.28,4.2Z"/>
      <path class="cls-1" d="M102.42,77.03c-1.38,2.53-3.22,3.95-6,4.23-2.33.23-4.45-.09-6.08-1.74s-2.34-3.87-1.81-6.24c.99-4.46,4.18-7.59,8.49-8.86,3.1-.92,6.1.56,6.97,3.79s-.05,6.03-1.57,8.83ZM95.76,79.08c2.47-.15,3.92-1.11,5-3.13s2.01-4.14,1.58-6.56c-.26-1.49-1.16-3.1-2.82-3.25-5.88-.52-10.49,6.63-8.93,10.68.79,2.06,3.14,2.37,5.16,2.25Z"/>
      <path class="cls-1" d="M67.91,51.55c-.37,2.04.11,8.82-1.91,9.48-.34.11-1.03-.75-1.02-1.13l.1-8.13c-1.73-.11-5.77.35-5.62-1.97.04-.56.86-1.58,1.51-1.6l4.33-.17.68-5.47c.04-.3.5-.8.69-.94,1.17-.91,1.29,5.51,1.34,6.42l4.34.4c.17.02.71.32.66.48-.4,1.52-3.76,2.2-5.1,2.63Z"/>
      <path class="cls-1" d="M77.34,104c-2.05.73-4.23.86-6.24.31-2.68-.73-4.76-3.22-4.46-6.1.25-2.39,1.55-4.75,3.3-6.24,2.98-2.52,6.94-1.41,8.84,1.68,1,1.62,1.91,3.17,2,5.15.11,2.32-1.12,4.37-3.45,5.2ZM77.4,102.1c2.95-1.81.78-6.59-.88-8.57-1.88-1.11-3.87-.71-5.55.64-1.72,2.78-3.72,5.22-.81,8.07,2.25,1.25,4.88,1.3,7.24-.14Z"/>
      <path class="cls-1" d="M42.71,20.59c0,.25-.38.92-.49,1.14-.14.27-1.23.06-1.27-.27-.35-3.09-.39-6.49-.38-9.47-1.06-.18-5.49-.09-5.6-1.29-.15-1.56,4.92-1.37,5.82-1.6l.94-8.31c.03-.29.65-.75.9-.79s.78.56.77.82l-.33,8.34,6.53.82c-.47.73-1.29,1.44-2.09,1.52l-4.54.47-.25,8.62Z"/>
      <path class="cls-1" d="M121.62,71.7c-.02.45-.75,1.15-1.12,1.23-.43.1-1.31-.63-1.31-1.14l.1-6.89c-1.36-.46-2.5-.76-4.01-1.68,1.67-.34,2.61-.39,4.22-.5l.54-6.72c.02-.3.44-.8.57-.97.16-.2.91.41.95.67.3,2.19.33,4.68.33,7.05l4.34.76c.43.07.96,1,.87,1.39s-.89.92-1.32.88l-3.84-.36-.3,6.27Z"/>
      <path class="cls-1" d="M41.26,116.96c-.05,1.03-.64,4.17-1.59,3.79-1.53-.62.06-8.67,0-10.35-1.35-.2-2.38-.36-3.63-.7,1.33-1.19,2.26-1.24,3.87-1.6l.56-5.86c.01-.14.31-.5.39-.61.12-.17.7.48.7.72l.07,5.68c1.2.11,5.18-.19,4.92,1.6-.05.33-.72.87-1.05.86l-3.95-.09-.29,6.55Z"/>
      <path class="cls-1" d="M125.25,118.51c-4.53-.16-8.81.1-13.17.26-1.36.05-2.68.2-3.96.11-2.68-.2-4.79-2.08-5.22-4.74-.66-4.02,1.36-10.75,6.24-10.91,1.89-.06,3.96-.35,5.81-.14l5.73.65c3.61.41,7.26.77,10.75,1.35,3.3.55,4.2,3.21,4.19,6.13,0,3.15-1.03,5.47-4.13,6.58-1.99.72-3.86.8-6.22.71ZM131.27,114.26c.82-.65,1.84-5.36-.49-5.69-4.01-.57-8.01-.8-12.13-.89-3.03-.75-5.96-.44-8.93.63-.86,1.15-2.82,6.35-.94,6.74,5.01,1.03,10.06.79,15.15.54,2.51-.12,5.14.41,7.35-1.33Z"/>
      <path class="cls-1" d="M120.78,138.24c-3.02,1.19-5.89.98-8.64-.32-4.1-1.94-9.59-5.97-7.21-11.27,1.2-2.67,3.84-4.2,6.58-5.1,2.22-.72,4.45-1.71,6.86-1.26,2.86.53,5.62,1.97,7.77,3.79,3.21,2.72,3.76,8.84,1.33,10.62-1.99,1.47-4.29,2.59-6.7,3.54ZM125.74,132.32c.95-1.54,1.39-3.37.8-5.09s-2.1-2.38-3.54-3.16c-4.65-2.52-7.82-1.25-12.28,1.01-1.62.82-3.14,2.6-2.87,4.46.38,2.57,2.46,4.24,4.64,5.22,4.68,2.11,8.68-.51,13.25-2.43Z"/>
      <path class="cls-1" d="M179.8,135.52c2.24.47,16.72,2.89,15.11,6.57-.21.49-1.29,1.06-1.94.87l-13.76-4.05c-9.17-2.7-18.05-5.05-27.56-6.21-2.26-.28-4.45-1.02-6.95-1.55,1.27-1.19,2.9-.44,4.38-.58,2.75-.26,5.19.46,7.89.87,7.71,1.17,15.17,2.47,22.82,4.08Z"/>
      <path class="cls-1" d="M81.12,133.12c-.49.62-1.49,1.08-2.09.76-.17-.36-.01-1.35.19-1.78,1.61-3.43-.17-5.31.76-6.33s3.77,4.02,1.14,7.35Z"/>
      <path class="cls-1" d="M76.61,135.57c.21-.26,1.29-.14,1.36.19s.05.96-.08,1.26-.89.36-1.17.17c-.34-.23-.41-1.25-.11-1.63Z"/>
      <path class="cls-1" d="M48.14,77.06c-.39.54-1.41.82-1.82.63-.56-.26-1.01-1.2-.83-1.84,1.29-4.6-1.15-6.58.47-7.22,1.7-.68,2.65,3.52,2.89,4.69.25,1.23.09,2.62-.71,3.74Z"/>
      <path class="cls-1" d="M42.85,78.7c.49-.28,1.5-.03,1.74.4.22.38.01,1.37-.43,1.65-.37.24-1.27.03-1.71-.32-.4-.31-.24-1.37.4-1.73Z"/>
      <path class="cls-1" d="M78,24.61c.36-2.84-.36-4.88.09-6.11.07-.18.71.12.89.32,1.42,1.6,1.22,4.72-.97,5.8Z"/>
      <path class="cls-1" d="M77.17,26.58c.18-.12.85.01,1.01.17.2.2.02.74-.23,1.06-.17.22-.72,0-.94-.18s-.08-.9.15-1.06Z"/>
      <path class="cls-1" d="M100.95,68.94c-.1,1.83-.03,3.21-1.96,4.14-.09-1.29-.61-4.95.81-5.27.4-.09,1.19.6,1.16,1.13Z"/>
      <path class="cls-1" d="M97.54,74.56c.39-.33,1.47-.13,1.68.23.23.4.14,1.36-.22,1.64-.32.25-1.16.26-1.51.05-.41-.25-.54-1.42.05-1.92Z"/>
      <path class="cls-1" d="M76.38,98.94c-.52-.14-1.12-.47-1.25-.75l-1.14-2.45c-.11-.25-.11-.87-.02-1.11.11-.31,1.06-.48,1.38-.31,1.5.82,2.31,2.87,1.03,4.61Z"/>
      <path class="cls-1" d="M75.39,100.41c.2-.2,1.12-.39,1.26-.16s.23.72.2,1-.75.35-1.02.31c-.33-.05-.67-.92-.43-1.15Z"/>
      <g>
        <path class="cls-1" d="M116.32,196.31l.15,3.91c2.13.33,4.19-.15,5.44-1.78.35-.46.18-1.73-.08-2.27-1.1-2.31-3.3,1.73-5.51.14Z"/>
        <path class="cls-1" d="M69.89,189.2c-.06-.48-.5-1.2-.85-1.38-.35-.18-2.65-.23-2.87,1.53-.35,2.8-.44,4.18-1.21,6.63-.4,1.27,5.64-1.32,4.93-6.78Z"/>
        <path class="cls-1" d="M119.67,193.06c.16-.34-.1-1.48-.47-1.48-1.28,0-2.68.98-3.22,1.96l.28,2.06c1.32-1.61,2.71-1.09,3.42-2.54Z"/>
        <path class="cls-1" d="M38.07,190.08c3.06-1.64,3.48-4.57,2.91-7.49-.81-4.14-4.41,6.13-2.91,7.49Z"/>
        <path class="cls-1" d="M52.53,188c.08-1.47-.2-2.87-1.37-3.73-.81-.6-2.31-1.05-3.36-.67l-1.61,7.16h4.15c1.49.02,2.13-1.58,2.2-2.76Z"/>
        <path class="cls-1" d="M86.52,189.88l-1.77,3.31,3.16.69c-.28-1.6-.42-2.52-1.39-4Z"/>
        <path class="cls-1" d="M30.44,188.81c2.71-2.17,3.44-6.02,2.44-9.19-2.66-1.06-4.28,8.56-2.44,9.19Z"/>
        <path class="cls-1" d="M224.86,374.31c-.41-4.03-.23-7.83-.17-11.88l.16-9.77-.08-7.42-.62-19.82c-.24-7.57-.16-14.73-1.22-22.2-.47-3.29-.24-6.53-.46-9.81-.4-6.08-.35-11.96-.53-18.04l-.2-6.83-.18-11.02-.32-7.63-.28-7.12-.25-8.9-.53-15.69c-.2-6.01.11-11.82-.54-17.79-.38-3.52-1.47-6.87-2.51-10.2-.91-2.93-2.87-5.2-4.43-7.72-1.87-3.01-3.7-5.79-6.13-8.43-2.07-2.25-3.9-4.56-5.71-6.99-1.39-1.86-2.01-3.67-1.97-6.05.08-4.2-.84-5.82-.42-8.62,4.95-1.9,7.52-2.06,7.31-8.21-.14-3.97-2.37-6.68-5.69-8.48-1.89-1.02-3.66-2.15-5.74-2.85l-9.74-3.31c-5.13-1.74-9.99-3.1-15.29-4.29-6.14-1.38-12.05-2.89-18.45-2.83-1.58.01-3.13-.06-4.73-.17.84-3.32,1.91-6.2,2.33-9.52.82-6.46.9-10.47-5.42-13.81-1.23-.65-2.64-1.31-3.99-1.65-10.72-2.7-13.52-1.64-23.72-2.62-8.12-.78-16.62.5-22.07,7.02-3.32,3.97-1.27,13.95-1.02,18.71-1.07-.08-2.03-.27-2.92-.17l-8.35.9c-2.3-.98-4.66-1.18-7.11-1.07-2.22.11-3.82,1.21-5.75,1.97-2.8,1.1-6.07,1-9.07,1.6-8.77,1.75-15.55,2.08-23.87,3.68-4.14.8-7.66,2.97-11.13,5.13-2.45,1.52-4.01,3.4-5.19,5.98-1.78,3.87-5.04,11.27,1.01,13.37l3.23,1.12c.09.79-.03,1.93-.31,2.69l-3.05,8.27c-.67,1.83-3.77,2.19-5.55,4.13-2.88,3.14-5.64,6.29-7.86,9.94-1.73,2.85-2.03,6.18-2.56,9.38-1.69,10.34-.12,14.23-.96,22.62-.69,6.87-1.01,13.51-1.37,20.41l-.47,8.91c-.89,16.92.9,31.49.22,48.28-.32,7.8.03,15.3.36,23.08l.21,4.82c.16,3.87.25,7.57.22,11.48l-.14,18.08c0,1.24-.22,2.6-.33,3.85l-1.3,14.43c-.23,2.54-.32,4.95.03,7.47l1.06,7.64,1.12,11.63c.34,3.53,1.36,6.84,2.32,10.23.65,2.29,2.16,4.34,3.19,6.48,3.11,6.46,5.74,7.13,8.78,13.95,1.24,2.77,3.16,4.29,5.41,6.08,2.46,1.95,4.6,4.19,7.9,5.1l.52,5.58c.12,1.27.65,2.74,1.06,3.95,1.36,4.07,4.76,6.66,8.96,7.24,2.18.3,4.26.74,6.38,1.31,6.7,1.8,12.14,1.26,14.4,1.68,2.98.55,5.68,1.24,8.69,1.57,4.05.45,7.94.65,11.97,1.03l12.91,1.23c3.05.29,6.09.4,9.32.41l10.54.05c9.77.05,19.22.15,28.99.79,4.74.31,9.25-.37,13.91-.93l9.79-1.17c5.49-.66,10.66-2.08,16.1-3.03,4.27-.74,8.33-1.36,12.53-2.36,1.81-.43,3.44-1.42,4.95-2.44,1.58-1.07,2.34-2.58,3.06-4.25.77-1.78,1.47-3.48,1.97-5.4,1.56-6.04.05-2.81,1.04-7.68l5.31-4.57c2.68-2.31,5.05-5.35,6.41-8.68l2.93-7.21c.66-1.62.5-3.64.8-5.39.4-2.39.89-4.66,1-7.09.2-4.62.56-9.01,1.08-13.6.32-2.89.52-5.71.23-8.57ZM199.65,187.44c.64.24.82,1.39.16,2.12-1.46,1.64-4.33,2.48-6.28,1.04-.91-.67-1.39-2.4-1.57-3.48l-.81-4.89c-.44-2.65,2.32-3.42,4.46-4.11.25-.08,1.04.23,1.04.5,0,.27-.3.88-.6,1.05l-2.95,1.69.39,2.9,3.41-1.35c.29-.12,1.03.18,1.16.46.7,1.55-3.19,2.3-4.42,2.81l.66,3.32c2.17-.11,3.99-.46,5.36-2.07ZM185.61,193.06c.06.35-.45,1.2-.8,1.16-.35-.04-1.11-.58-1.19-.94l-2.18-10.21c-.04-.19.1-.77.28-.81.22-.06.78-.07,1.01-.19,1.04-.51,2.57-1.56,3.92-.95,2.34,1.06,2.87,3.88,1.19,6.08,2.77.4,4.23,3.31,3.76,5.78-.06.34-.67.92-.92.82-1.27-.53-.44-2.88-1.99-4.36-1.13-1.07-2.74-.35-3.66.37l.58,3.25ZM166.07,198.41c-.35.09-1.04-.49-1.11-.88l-1.52-9.2c-.07-.42.42-1.26.71-1.43.34-.2,1.17.36,1.27.78l.9,3.89,3.98-1.35-.97-5.01c-.03-.17.54-.64.64-.51,1.37,1.87,3.19,9.43,3.76,12.09.06.25-.33.88-.54.99-1.42.75-2.08-4.38-2.43-4.9l-3.9,1.01c.02,1.14.74,4.12-.81,4.53ZM171.39,172.14l-8.21,1.65c-4.17.84-8.19,1.26-12.41,1.76-6.93.81-13.62,1.2-20.64,1.37l-18.95.45-20.42-.32c-6.23-.1-12.13-1-18.25-1.55-3.85-.35-7.44-.76-11.25-1.48l-14.26-2.69-9.52-2.29c-2.13-.51-5.03-1.11-6.69-2.45-.11-.09-.21-.66-.1-.7.17-.06.73-.24.96-.17l9.18,2.75c3.17.95,5.99,1.59,9.2,2.15,5.28.93,10.39,1.87,15.72,2.31l7.19.59c7.86.65,15.51,1.71,23.43,1.97,3.64.12,7.05.47,10.64.37l18.36-.53,14.26-.59,19.31-1.71c1.52-.13,13.46-3.31,17.08-3.84,4.48-.67,8.72-1.68,13.04-2.96.82-.24,1.57-.38,2.61.08-1.79,1.53-3.71,2.04-5.83,2.53l-14.46,3.29ZM132.99,380.7c-1.6-.03-2.78,0-4.4.08-2.49.13-5.92-.66-7.21-3.08-2.64-4.92-2.7-10.42-2.98-15.87l-.78-15.13c-.12-2.36-1.8-5.43.15-6.14,3.09-1.13,7.75-1.21,11.22-.97.87,2,1.02,4.08,1.26,6.25l1.48,13.59c.3,2.73.61,5.32,1.65,7.86.24.53,1.99.3,2.18-.26.64-1.9,1.13-4.07.92-6.05l-1.14-10.99-1.25-9.79c-.46-3.6,4.59-3.57,7.63-3.71,1.79-.08,3.39,1,3.6,2.93l1.56,14.34c.4,3.68,1.09,7.04,1.14,10.74.07,4.42.88,8.63,1.53,13.03,1.69,11.44,2.4,16.05.83,27.85-.78,5.88-3.58,10.83-7.68,14.9-2.07,2.04-4.22,3.25-7.03,4.1-3.33,1.01-6.7,1.75-10.09.36-1.34-.55-2.06-2.13-1.96-3.65.21-3.16.27-6.29.73-9.38,2.42-3.92,8.21.51,9.76-5.29,1.55-5.8.14-19.01-1.11-25.71ZM83.74,414.86c.19,2.59.18,8.49-2.35,9.89-2.24,1.24-4.06-1.53-7.55-.33-.82.28-1.86-.36-1.78-1.29l1.12-12.4c.24-2.66.34-14.57-1.77-15.32-.48-.17-1.64-.07-2.23.05.3,3.45.49,6.68.44,10.23l-.21,13.8c-.02,1.09-.6,2.49-1.32,3.18-.78.75-1.84-.1-2.62-.17l-5.74-.52c-1.13-1.03-.91-2.89-.88-4.25l.45-15.91c.26-9.07-.32-17.83-.83-26.89l-1.06-18.88-.21-7.54c-.08-3.07-.29-6.3.96-9.24,2.04-1.15,4.79-.42,6.9.46,6.52,2.71,9.26,3.02,13.04,9.36,1.66,2.79,2.62,5.59,3.43,8.74,2.64,10.35,1.24,14.6-3.11,23.67-.44.91-1.39,1.77-2.1,2.62,5.15,1.68,7.4,7.43,7.54,12.52.09,3.32.28,6.62.06,9.95-.18,2.85-.4,5.45-.19,8.3ZM45.68,232.75c-.28-1.72.4-2.42,1.46-3.43,2.09-1.99,4.51-2.97,7.55-2.38,3.78.73,7.12,2.93,9.41,6.06,1.18,1.62,2.46,3.13,3.45,4.87,3.16,5.56,4.36,11.82,3.8,18.17.2,6.21-1.72,14.68-5.08,19.9,3.81-.31,6.38,1.88,7.71,5,1.59,3.75,2.54,7.39,2.82,11.46.18,2.55.84,5.04,1.16,7.59.43,3.37.32,6.73-.05,10.06-.24,2.16-1.81,3.73-4.07,3.61-4-.21-1.85-1.33-7.03-1.08-.84.04-1.89-.47-1.92-1.41-.08-2.25-.03-4.29.05-6.54.04-1.01-.7-12-.84-13.06-.24-1.83-1.79-2.84-3.49-2.39.25,2.97.62,5.61,1.04,8.43.46,3.05.73,5.97,1.02,9.09.09.95-.23,2.44-.92,2.94-1.44,1.04-3.04.8-4.66.57-2.42-.35-3.73.8-4.91.02-.4-.27-.94-1.22-.93-1.71.05-3.03-.42-5.65-.88-8.57-.45-2.87-.83-5.72-1.08-8.64l-1.21-13.97c-.66-7.57-1.52-19.82-1.32-27.23.16-5.89-.13-11.61-1.08-17.4ZM44.14,191.47c-.7-2.43.88-4.9,1.34-7.17.29-1.47.99-2.51,2.63-2.71,3.5-.42,6.31,2.52,6.26,6.08-.03,2.31-.82,4.73-3.43,5.47-2.12.61-5.53.09-6.8-1.67ZM59.64,195.03c.4-3.2.96-6.24,1.81-9.34.08-.3.77-.73,1.08-.75.37-.03.92.82.86,1.21l-1.43,8.98c-.08.52-.88,1.2-1.29,1.22-.41.02-1.08-.82-1.02-1.31ZM63.4,194.48c.07-1.2,1.27-9.89,2.62-8.82l.89.7c.94-.71,2.25-.99,3.33-.08,3.47,2.9,1.05,8.81-1.95,11.36-1.16.99-2.94,1.37-3.92.04-.5-.68-1.04-2.2-.98-3.2ZM79.73,193.77c-.1.26-.74.54-1.03.47l-3.36-.89c-1.1.82-1.28,2.52-.97,3.96l2.56-.09c.79-.03,1.86.14,2.43.76-.69,1.42-5.04,2.43-6.17.78-1.19-1.73-.64-3.64-.37-5.48l.63-4.23c.34-2.31,3.69-1.89,5.28-1.58.3.06.86.66.79.93-.07.27-.63.77-.95.8l-2.67.3-.51,2.81c.83.12,4.9.02,4.36,1.46ZM83.88,188.55c.76-1.17,2.51-1.74,3.7-.99.97.62,1.85,1.91,2.07,3.08l1.57,8.62c.06.34-.32,1.09-.6,1.26-.33.21-1.34-.31-1.42-.7l-.92-4.39c-.18.15-1.29.46-1.72.28l-2.53-1.07-2.32,4.11c-.25.44-1.34.71-1.75.52-2.14-.99,2.96-9.23,3.93-10.73ZM82.93,314.39c-.33-4.5.17-9.02.2-13.58l.05-6.5c.04-5.56-.6-10.7-1.16-16.19l-2.08-20.24c-.27-2.62.57-5.07.73-7.82l-2.07-.04c-3.08-.06-5.1-2.44-5.16-5.49l-.17-9.49c-.03-1.79.98-3.43,2.98-3.23,5.26.51,16.24,1.14,21.3.84,1.28-.07,1.92.65,2.21,1.82,1.4,5.54.86,6.37,1.99,12.16.2,1.05-.2,3.12-1.58,3.26-2.54.26-5,.08-7.81-.02.26,3.99.44,8.01.98,12.06.49,3.7.99,7.2,1.18,10.93l2.05,15.29c.54,4.02.09,8,.31,12.21.26,4.99.45,9.57-.16,14.39-.49,3.9-7.88,2.71-10.7,2.48-1.75-.14-2.94-.81-3.09-2.84ZM99.69,196.92c-.13-.39-.95-1.04-1.38-1.06l-3.99-.21c-1.37-.07-2.36-.97-2.33-2.34.04-1.92,1.35-3.22,3.16-3.69,3.19-.83,6.29.05,5.65,1.77-.44,1.17-6.72-1.05-6.63,2.24,2.44.55,6-.17,7.17,2.69,1.16,2.84-3.11,6.39-6.93,6.11-1.43-.1-2.86-1.05-2.68-2.49,2.83.44,5.48.38,7.43-1.48.36-.34.66-1.15.54-1.54ZM87.43,358.58c.33-4.77,2.11-15.81,8.18-16.2,3.21-.21,6.63-.08,9.71.98,7.46,2.57,11.62,15.28,9.3,22.58-4.23.85-5.5-.89-9.73.71-.67.25-1.53-.41-1.62-1.11l-.65-4.98c-.2-1.54-.55-2.99-1.33-4.3-1.29.81-1.84,2.04-1.96,3.39l-.61,7.13c-.87,10.11-.83,10.58-.09,20.54l.75,10.06c.24,3.24.28,6.46,1.56,9.43.91,2.12,2.79,3.94,5.2,3.95.86,0,2.53-.96,3.01-1.68.75-1.14,1.69-5.64,1.06-7.59-2.22-.34-5.28,1.09-6.23.05-.3-.33-.55-1.24-.51-1.75.18-2.33.27-4.29.2-6.59-.03-.95.66-1.91,1.67-2.02,6.45-.68,5.81-.68,11.84.36,1.31.23,1.78,1.1,2.14,2.24,1.2,3.78,1.06,7.63,1.24,11.62.11,2.58.35,5.07.22,7.68-.14,2.69-.13,5.22.4,7.82.65,3.18-4.13,3.07-6.44,3.49-4.93.91-9.74,1.33-14.64.15-2.59-.62-4.57-1.97-6.32-3.89-1.72-1.88-2.24-4.03-2.72-6.56l-1.2-6.34c-.64-3.4-.51-6.59-.97-10.07-1.37-10.26-2.14-20.42-2.34-30.79-.05-2.84.68-5.51.88-8.31ZM123.89,197.63c.06,1.69-.99,3.02-2.41,3.91-2.34,1.46-4.97,1.73-7.39-.18l-.13-4.83c-.04-1.61-.08-3.5.56-4.88,2.14-.57,3.48-2.94,5.75-1.41,1.13.76,1.52,2.18,1.17,3.6,1.46.78,2.39,2.25,2.45,3.79ZM116.57,234.74c.36,2.44,1.03,4.6,1.73,6.89l2.91,9.48,2.5,8.55,1.47-10.92,1.69-11.88.5-5.36c.5-5.31,8.06-3.09,12.23-2.12.76.18,1.42,1.38,1.33,2.09-.3,2.15-.54,4.06-.91,6.08l-1.09,5.98c-1.15,6.27-2,12.41-2.56,18.8-.43,4.83-.77,9.4-1.46,14.19l-2.71,18.63c-.64,4.38-1.37,8.48-1.58,12.88-.13,2.7-.47,5.22-.95,7.91-.1.59-1,1.38-1.51,1.46-.51.08-1.56-.49-1.75-1.04l-2.06-5.97c-.57-1.67-1.53-3.37-1.91-5.11-.82-3.73-1.79-7.13-2.9-10.91l-3.98-13.62-4.07-14.63-3.39-11.44c-1.59-5.37-3.24-10.56-4.41-16.03l-.84-3.93c-.17-.8-.41-1.81.11-2.39.49-.55,1.49-.7,2.33-.76,2.76-.2,5.51-.71,8.25-.67,2.03.03,2.81,2.25,3.04,3.85ZM127.57,194.28l2.94.44c-.79,1.22-1.46,1.48-2.99,1.88l-.37,4.19,3.2-.1c.16,0,.67.41.64.56-.32,1.75-3.22,2.5-4.9,1.74-.71-.32-1.09-1.47-1.06-2.26.09-2.99.04-5.65-.19-8.61-.06-.84.46-2.02,1.33-2.28,1.13-.33,4.35-.91,4.48.69.03.39-.68.91-1.13,1l-2.12.4.17,2.35ZM136.51,200.82c.73-.76,1.11-2.63.28-3.46-.34-.33-1.71-.43-1.66-1.04.1-1.2,1.06-1.64,1.97-1.65,1.04-.01,1.62.94,1.92,1.98.64,2.21.57,4.52-1.47,5.91-.68.46-1.9.74-2.72.55-.66-.15-1.49-1.01-1.84-1.79-1.61-3.61-2.93-12.41,2.8-12.86,1.47-.12,3.03.63,3.31,2.18.05.27-.1.95-.3,1.13-.82.77-1.57-1.15-3.33-.73-2.77.66-2.31,13.24,1.04,9.77ZM142.4,189.06c.36.02.98.7.99,1.05l.2,5.85.17,4.22c.02.4-.68,1.17-1.04,1.21-.36.04-1.15-.59-1.19-1-.15-1.54-.97-11.45.87-11.34ZM146.59,192.01l.38,8.09c.02.36-.69,1.2-1.03,1.18s-.88-.76-.89-1.14l-.2-9.8c0-.32.29-1.21.56-1.19,1.76.12,7.46,7.38,8.34,8.45-.4-1.66-1.66-8.94-.09-8.81,1.41.12,1.3,3.65,1.56,5.03l1.06,5.71c.06.32-.13,1.09-.28,1.35-.79,1.41-3.15-1.27-3.69-1.92l-5.71-6.95ZM39.05,192.19c-.53.27-1.64.23-2.04,0-2.32-1.36-1.2-7.39-.08-10.03.82-1.94,3.26-2.86,4.98-1.61.41.3.59,1.48.78,1.97,1.44,3.73.12,7.75-3.63,9.68ZM32.11,189.61c-.56.54-1.53.85-2.13.74-3.14-.59-2.42-8.18-.19-11.18.98-1.32,2.58-1.67,4.03-.9,1.86,3.84,1.5,8.26-1.71,11.35ZM178.63,182.79c.2,0,.67.75.56.9-.16.2-.53.64-.81.76l-2.39,1.1.84,3.82c1.47-.32,2.64-.52,4.11-.64-.76,1.99-2.3,1.99-3.99,2.61l.28,3.16,4.74-1.35c.43-.12.47,1.43.09,1.67-1.31.77-2.49,1.3-3.95,1.58-1.34.26-2.63-.76-2.87-2.12l-1.41-8.12c-.41-2.39,3.06-3.35,4.8-3.38ZM168.69,128.66c3.42.95,6.81,1.23,10.12,2.44,4.34,1.57,8.52,2.94,12.94,4.24,3.61,1.06,6.96,2.57,9.88,5.28-5.28,3.29-9.73,2.74-16.05,5.28-2.67,1.08-5.27,1.67-8.29,1.92l-12.77,1.05c-4.14.34-8.01,1.13-12.17,1.15-1.92,0-3.59.16-5.83.31,1.68-3.25,1.95-6.55,1.86-10.07-.1-3.82-2.62-6.84-6.45-7.28l2.73-5.83c.3-.64.52-1.69.79-2.47,7.95.32,15.55,1.84,23.24,3.98ZM94.61,115.97c0-3.65.07-7.72,2.34-10.77,3.12-4.19,11.07-5.91,16.04-5.36,4.18.46,8.21.33,12.41.56l8.56.45,6.29.52c1.94.16,4.27,1.83,4.67,3.86.37,1.83-.1,3.85-.36,5.73l-1.62,11.76c-.29,2.09-1.65,3.88-2.46,5.72-1.25,2.84-2.78,4.98-5.51,6.79-1.57,1.04-2.9,2.78-4.76,3.28-4.59,1.24-9.21,1.68-14.02,1.73-2.59.03-5.05-1.01-7.52-1.62-1.98-.48-3.83-1.02-5.75-1.64-2.28-.73-3.91-2.06-4.82-4.32l-2.19-5.47c-1.44-3.59-1.33-7.34-1.32-11.22ZM92.58,123.17l.77,4.96c.22,1.39.52,2.78.92,4.27-2.33-.21-4.82.03-7.28.39l-.25-3.9,4.75-.76c.19-.03.31-.88.14-.98-.17-.09-.65-.41-.88-.41l-4.84-.15-1.95-2.94,8.63-.49ZM66.99,126.86c1.77-3.42,5.32-4.75,8.94-4.71,4.16.05,7.64,2.69,8.05,6.87.28,2.81-.19,8.16-3.65,8.93-3.18.7-9.34,2.06-11.7-.15-2.9-2.73-3.43-7.47-1.64-10.93ZM26.1,135.47c3.38-2.05,6.73-4.26,10.74-4.92l16.84-2.77c3.96-.65,7.65-1.75,11.56-2.14l-1.02,3.31c-8.26.66-16.33,1.74-24.38,3.9-2.68.72-5.07,1.74-7.8,2.23-1.94.35-4.91,1.75-4.64,3.24.04.24.69.5.95.49,3.37-.24,6.05-2.24,9.95-3.27,5.4-1.42,10.7-2.42,16.19-3.39l9.61-1.7c0,4.88,1.68,9.78,6.35,11.94l-3.09,4.16c-.82,1.1-1.45,2.44-2.19,3.66l-3.76-.74c-4.73-.93-9.5-1.05-14.17-2.21-3.74-.94-7.22-1.76-11.1-1.9-5.13-.18-9.88-1.63-14.17-4.2.45-2.66,1.95-4.35,4.14-5.68ZM22.48,150.05c-.3-1.46-.56-2.69-.37-4,10.1,4.76,14.45,1.63,24.15,4.74,3.41,1.09,6.96,1.38,10.5,1.89l6.74.98,12.75,2.35c3.75.69,7.43.41,11.24.59,6.92.33,13.53-.09,20.43-.32,4.99-.17,9.76.57,14.73-.06,3.69-.47,7.28-.51,11-.88l16.83-1.69c5.2-.52,10.1-.69,15.26-1.57,7.09-1.22,13.52-.59,20.55-3.25,5.33-2.02,9.25-2.08,14.95-4.28-.29,1.24-.7,2.58-1.17,3.8-2.84.92-5.34,1.77-8.06,2.84-2.89,1.13-5.7,1.87-8.7,2.61l-7.98,1.96-10.3,1.36c-8.06,1.06-15.74,3.14-23.81,4.29l-10.86,1.55-8.1.89c-3.46.38-6.68.39-10.2.41-7.75.03-15.07-.35-22.81-1.07-13.23-1.23-26.14-2.65-39.04-5.81l-7.92-1.94-13.31-3.25c-2.21-.54-4.2-1.36-6.51-2.13ZM20.87,177.56c1.92-1.92,6.46-1.86,6.92.25.25,1.12-3.47-.26-5.36,1.38-1.83,1.6-1.86,4.23-1.18,6.4l.37,1.18c.08.27,1.03.39,1.22.19.51-.51,1.18-2.07.89-2.9-.18-.5-1.19-1.22-1.05-1.62.2-.56,1.08-.89,1.5-.74,2.33.85,1.23,5.12.31,6.59-.65,1.04-2.2.98-3.1.59-1.06-.46-1.42-1.51-1.79-2.71-.9-2.93-1.08-6.26,1.27-8.62ZM18.56,243.63l.55-8.15c.16-2.35,1.05-4.47,2.01-6.57.93-2.02,2.25-3.42,4.06-4.72,1.63-1.16,3.39-2.76,5.43-3.01,4.2-.5,7.11,2.34,8.9,5.73,1.94,3.66,4.01,7.09,4.52,11.38-.41,1.26-1.74,2.42-2.78,3.23l-4.22,3.29c-.49.38-1.53.24-1.86-.36l-2.44-4.45c-.38-.7-1.21-1.3-1.99-1.6-1.56,2.32-1.98,4.76-2.28,7.46-.2,1.85-.9,3.64-1.24,5.52-.42,2.32.11,4.74.1,7.1-.03,4.85.53,9.41,1.33,14.17.62,3.69.81,7.39,2.2,10.84,1.02,2.52,1.97,4.79,3.76,7.05,1.16-1.11,2-2.46,2.38-4.01l.93-3.79c.11-.46.66-1.21,1.04-1.36,1.41-.57,2.77,2.19,6.45,4.31,1.21.7,2.04,1.87,1.68,3.33l-1.1,4.43c-.6,2.39-.56,4.61-1.53,6.88-.93,2.18-1.92,4.27-4,5.69-3.33,2.27-8.33,1.86-11.02-1.35-1.79-2.14-2.54-4.88-3.71-7.33-1.67-3.52-2.27-7.05-3.21-10.79-2.85-11.35-4.3-17.52-4.51-29.56-.08-4.55.23-8.83.53-13.35ZM30.62,408.47c-2.11.19-9.42-.37-9.06-3.67,1.3-11.85-1.22-29.54-1.87-41.46l-.63-11.59c-.23-4.27-.25-8.44-.2-12.72l.13-11c0-.36.19-1.06.38-1.3.69-.87,3.77-.38,4.79-.01l5.26,1.89c1.4.5,2.13,1.78,2.28,3.23.3,2.95,1.19,5.6,1.84,8.47l3.91,17.12c1.06,4.65,2.6,8.9,4.08,13.32.08-1.79-.11-3.38-.19-5.13l-.26-6.14c-.11-2.58-.54-5.14-.33-7.74.37-4.72.41-9.17-.04-13.91-.09-.93.13-2.1.7-2.7,1.95-2.03,6.81.21,9.5,1.31,1.16.48,1.55,1.69,1.58,2.83l.18,5.38c.21,6.28.61,12.36.46,18.65-.11,4.29.75,8.16,1.37,12.37,1.45,9.86,1.49,19.65,1.23,29.8-.09,3.67-.22,6.87-.78,10.21-.22,1.33-1.41,1.93-2.62,1.52-3.13-1.07-5.27.52-9.98-1.86-.87-.44-1.5-1.34-1.58-2.31-.19-2.45-.63-4.68-.99-7.09-.51-3.37-.79-6.64-1.56-9.99-1.23-5.34-2.66-10.45-4.55-15.52.96,8.25,1.25,16.19.42,24.37-.2,1.95-1.39,3.48-3.47,3.66ZM192.27,444.9c-2.74.73-5.43,1.77-8.26,2.14l-20.7,2.69c-3.96.51-7.61.85-11.56,1.06l-10.67.56c-15.1.79-24.7,2.22-40.84,1.19-2.16-.14-4.36.17-6.49-.21-3.59-.64-7.04-1.18-10.68-1.26l-6.89-.16c-1.85-.04-4.13-.58-5.89-1.16-5.31-1.76-10.46-1.82-15.99-2.2-5.05-.34-9.84-1.77-14.77-2.9-1.23-.28-3-1.7-3.61-2.72-1.74-2.92-2.22-5.7-2.43-8.72,3.6.23,6.56,1.54,9.92,2.43l7.97,2.09c2.83.74,5.34,1.86,8.19,2.52,8.75,2.03,10.44.89,18.14,1.72,10.84,1.16,20.48,2.22,31.4,1.58,4.19-.24,7.62.49,13.91.03,4.01-.29,7.82-.05,11.83-.24l9.85-.47c8.8-.42,13.75-.86,22.21-3.58,2.49-.8,4.82-2.15,7.45-2.54l16.77-2.48c5.03-.74,6.81-1.92,12.01-2.71.56,8.46-3.39,11.35-10.88,13.35ZM216.81,388.26c-.31,2.74-2.4,4.59-5.3,4.24-2.1-.25-4.58-.77-6.43-1.85l-4.17-2.45-4.28-3.2-6.72-4.13c-2.04-1.25-3.94-2.81-5.47-4.65l-9.99-12c-5.1-9.44-10.9-20.13-13.46-30.58l-2.22-9.02c-.49-2.01-.55-4.22-.86-6.34-.64-4.38-.9-8.71-.34-13.09l1.1-8.65c.37-2.93,1.05-5.68,2.3-8.36l3.31-7.09c2.07-4.43,4.5-8.53,6.44-13.03,1.01-2.35,4.76-9.67,6.19-11.36,5.82-6.9,8.89-10.01,17.1-14.08,4.91-2.43,8.79-2.96,14-3.71,1.79-.26,3.11.66,3.42,2.36.66,3.6.88,10.4-.16,13.9-.19,2.45.03,4.89.14,7.48l.95,21.01c.15,3.28.95,6.49.76,9.75-.34,5.87.36,11.32.6,17.2l.4,9.77c.13,3.23-.13,6.27-.04,9.45l.27,8.91.32,12.17,1.24,11.15c.49,4.39.12,10.73.47,13.1.64,4.42.97,8.7.46,13.11Z"/>
        <path class="cls-1" d="M213.47,375.76c-.61,1.32-1.37,2.89-2.96,3.48-2.43.91-4.6.11-6.75-.57-1.42-.45-2.8-.8-3.96-1.74l-6.71-5.41c-2.61-2.11-4-4.71-2.67-8.01,1.29-3.21,2.57-6.45,4.5-9.41l5.73-8.79,3.36-5.25c1.23-1.92,2.5-3.8,3.62-5.8,1.55-2.76,2.74-7.55,4.66-8.12l-.98-13.17-.47-11.76c-1.38-.55-2.49-1.38-3.28-2.67-2.17-3.55-4.6-6.93-6.47-10.64-1.41-2.79-2.8-5.06-4.6-7.59l-4.55-6.42c-1.27-1.79-2.28-3.58-3.05-5.61-.94-2.47-1.44-6.74.31-8.77,2.09-2.42,4.06-4.81,6.48-6.92,1.3-1.13,3.32-1.54,4.8-2.33,4.75-2.54,7.59-.14,7.4-2.39l-.25-3.11c-.06-.69-.9-1.3-1.63-1.06l-8.05,2.6c-1.64.53-3.06.8-4.51,1.74-1.79,1.16-3.88,1.97-5.55,3.34-2.2,1.8-4.32,3.76-5.98,6.05l-4.37,6.02c-1.12,1.54-2.52,2.86-3.46,4.53-2.01,3.58-4.12,6.94-5.91,10.64-1.42,2.95-1.87,6.27-2.71,9.42l-3.29,12.36-1.17,5.48c-.45,2.08-1.12,4.34-.88,6.48l.89,7.71c.24,2.09.38,4.18.91,6.2l2.29,8.75,2.6,7.14c1.12,3.07,2.7,5.82,4.3,8.65l4.06,7.18c1.68,2.96,3.24,5.54,5.65,7.97l5.6,5.63c2.54,2.55,5.24,4.58,8.2,6.59,1.43.97,2.72,2.22,4,3.39,1.8,1.64,3.76,2.9,5.74,4.33,2.37,1.72,4.67,3.18,7.88,3.2,2.39.02,1.07-11.4,1.21-13.34ZM173.33,286.31c.59-2.11,1.03-4.15,1.36-6.31.24-1.56.81-3,1.66-4.31.97-1.49,1.8-2.9,2.65-4.46.65-1.17,1.86-2.14,3.22-2.08,2.43.11,4.15,1.52,5.58,3.32l2.89,3.65c1.45,1.83,3.01,3.58,4.15,5.61l6.64,11.75c1.27,2.25,2.97,3.96,4.08,6.33,1.48,3.15,4.17,4.66,3.84,6.06-.43,1.8-3.69,1.64-4.99.99-1.52-.76-2.95-.81-4.65-1.5l-4.44-1.8-8.28-2.43c-6.51-1.91-7.9-2.64-12.42-8.08-1.66-1.99-1.98-4.34-1.31-6.75ZM166.56,321.23c-.53-2.27-.77-4.94-.47-7.21l.82-6.37.74-4.21c.28-1.59,1.05-3.17,2.68-3.71,1.33-.45,2.7.29,4,.64,3.73,1.01,7.17,2.25,10.74,3.78,2.41,1.04,5.18,1.05,7.65,1.88,2.42.81,4.62,1.59,7.21,1.69,2.75.11,5.35.89,7.57,2.5,1.11.8,1.25,2.37.23,3.33-1.09,1.04-15.55,8.34-18.12,9.17-2.67,1.74-9.95,4.4-12.95,4.84-4.46.65-9.03-1.82-10.08-6.34ZM178.75,352.78c-1.36-.79-1.92-2.33-2.62-3.54-1.34-2.32-2.59-4.43-3.38-7.06-.88-2.93.02-6.81,2.88-8.29,7.48-3.89,13.04-8.68,19.85-12.17l3.15-1.62c2.68-1.38,5.15-2.87,8.07-3.87,1.08-.37,2.26.5,2.88,1.27.74.92.43,2.04.02,3.17l-3.52,9.83c-1.47,4.09-6.69,14.33-9.3,17.39l-5.05,5.92c-3.38,3.96-9.11,1.22-12.98-1.02Z"/>
        <path class="cls-1" d="M186.09,182.63c-.82-.25-2.54.48-2.55,1.5-.01,1.16.47,2.34.98,3.64,1.06-.71,1.96-1.52,2.51-2.65.43-.88.03-2.2-.94-2.5Z"/>
        <path class="cls-1" d="M55.85,246.74c.57-.23,3.99,1.46,4.68,2.57,1.78,2.89,3.46,8.19.68,10.86-1.03.99-2.67,1.71-4.34,1.24-.95-.27-.64-1.69-.72-2.34l-1.23-10.75c-.06-.5.44-1.37.94-1.57Z"/>
        <path class="cls-1" d="M67.65,370.63c-.35-.08-.77-.85-.78-1.25l-.17-5.74-.31-8.06,2.17.49c1.87.25,3.93.67,4.67,2.65.97,2.6,1.14,5.69.35,8.52-.75,2.68-4.38,3.76-5.93,3.38Z"/>
      </g>
      <path class="cls-1" d="M120.26,132.07c-2,1.35-4.45,1.04-6.31-.13-1.21-.75-1.66-2.16-1.04-3.33.58-1.09,1.95-1.55,3.28-1.2,1.43-.72,3.06-.89,4.4.22.55.45,1.02,1.44,1.03,2.12.01.74-.57,1.77-1.37,2.31ZM119.02,129.46c-.68-.23-1.18-.27-1.81-.21-.67.06-1.29-.12-1.81-.43l-.26,1.05c1.25.62,2.64.99,3.88-.41Z"/>
    </g>
  </g>
</svg>