<?xml version="1.0" encoding="UTF-8"?>
<svg id="Layer_2" data-name="Layer 2" xmlns="http://www.w3.org/2000/svg" viewBox="0 0 58 85.04">
  <defs>
    <style>
      .cls-1 {
        fill: #8accff;
      }
    </style>
  </defs>
  <g id="Layer_1-2" data-name="Layer 1">
    <path class="cls-1" d="M52.72,17.19c.68-.18,1.09-.55,1.56-1.04,1.37-1.44,2.82-2.85,3.64-4.56.28-.64-.15-1.05-.76-1.03-.81.02-1.75-.21-2.66-.17-1.19-.14-2.42.38-3.56.69-.03,0-.06.02-.09.01-.16-.01-.16-.25-.11-.4.48-1.45.67-2.93.7-4.46.02-1.05.35-2.41-.33-3.33-.31-.34-.82-.19-1.18.02-.75.43-1.37,1.01-1.99,1.62-.6.59-1.21,1.14-1.77,1.77-.15.17-.79,1.12-1.03,1.08-.22-.03-.12-.35-.13-.51-.02-.27-.07-.53-.14-.79-.13-.51-.32-1-.51-1.49-.58-1.47-.96-4.26-2.74-4.59-.64.05-.92.78-1.12,1.32-.49,1.39-.88,2.47-1.13,3.35-.15.63-.31,1.26-.44,1.9,0,.04-.02.09-.05.12-.03.04-.08.06-.12.04-.04-.02-.05-.06-.06-.1-.27-.8-1.13-1.21-1.73-1.72-.63-.54-1.27-1.06-1.94-1.54-.55-.39-1.12-.76-1.72-1.07-.34-.18-1.17-.69-1.52-.26-.08.1-.1.27-.12.39-.14.94.35,1.9.56,2.8.16.66.29,1.33.38,2,.1.7.25,1.39.22,2.1,0,.05,0,.11-.05.13-.02.01-.05.01-.07.01-.19,0-.35-.12-.51-.2-.68-.33-1.58-.23-2.31-.4-.25-.07-.52-.09-.77-.17-.29-.08-.58-.17-.87-.27-.29-.1-.55-.26-.84-.38-.35-.14-.7-.28-1.05-.43-.56-.26-1.45-.49-1.76.16-.44,1.23-.2,2.63.4,3.76.36.69.88,1.31,1.5,1.79.25.2.53.37.81.53.14.08.73.29.71.47-.01.13-.31.16-.41.19-.7.21-1.51.45-2.09.88-.91.67-1.87,1.25-2.71,2-.42.38-.84.8-1.12,1.3-.14.26-.31.66-.22.97.02.08.06.14.11.2.28.3.6.18.95.18.48,0,.96.05,1.44.1.6.06,1.21.16,1.79.33.51.15,1.02.26,1.52.46.09.04.19.09.22.18.02.07,0,.14-.04.2-.11.16-.28.29-.42.42-.5.45-.98.93-1.45,1.41-.45.46-.9.92-1.28,1.44-.29.41-.73.91-.85,1.4-.15.56-.12.92.51.97.24.02.48.04.72,0,.72-.12,1.42-.48,2.11-.71.67-.22,1.34-.45,2.01-.68.51-.18,1.01-.36,1.5-.57.21-.09.32-.05.21.16-.09.18-.21.34-.33.51-.4.57-.76,1.17-1.08,1.79-.52,1-.98,2.15-1.07,3.28-.2,2.55,3.18.38,4.13-.03.06-.03.14-.05.18,0,.03.03.03.07.02.11-.05.66-.48,1.4-.76,2-2.01,4.23-4.05,8.45-5.56,12.91-.22.64-.57,1.41-1.25,1.44-.2.01-.39-.05-.57-.11-1.18-.41-2.81-1.23-3.37-2.41-.51-1.07-.63-2.46-1.79-3.11-1.97-.97-4.52-.09-6.49.56-1.35.33-2.83.63-4.23.77-2.21.27-7.21.26-8.33,2.59-.11.53.55.93,1.06,1.05,1.1.26,1.84.59,2.37,1.12.66.5,1.25,1.77,1.71,2.57,1.07,1.88,2.36,3.62,3.81,5.23.93,1.03,1.83,2.2,3.09,2.84,1.21.61,2.99.54,4.29.3,1.57-.29,2.84-2.28,3.25-3.71.34-1.19.33-2.5.57-3.71.12-.61-.04-1.06-.03-1.63,0-.21.14-.43.35-.46.1-.01.2.01.29.04,1.21.37,1.94,1.34,2.84,2.23.35.25.74.45,1.05.75.44.44.56,1.01.57,1.67-.03,2.63.06,5.3.38,7.89.26,2.64,1.15,4.76.98,7.33-.33,4.21-3.1,7.73-5.43,11.13-.96,1.21-3.06,3.06-2.02,4.57.85.33,1.9-.31,2.79-.3,1.01-.27,2,.72,3.01.62,1.87-.23,1.57-2.14,2.1-3.48.39-.99,1.11-1.75,1.62-2.67.82-1.46,1.65-3.02,2.02-4.66,1.02-4.45-.26-8.96-.89-13.49-.82-3.47-1.25-6.73-.72-10.17.29-1.53.69-3.04,1.17-4.52.36-1.09.6-2.38,1.49-3.18,2.17-1.93,1.55,1.79,1.81,2.74.24.9.62,2.06,1.22,2.75,1.63,1.76,3.87,1.04,5.97.91,1.44-.12,2.79-.13,4.25.39.84.3,1.58.9,2.45,1.1.78.17,1.98-.13,2.62-.61.94-.7,1.31-2.32,1.34-3.42.06-1.97.15-4.1,0-6.14,0-1.91-1.15-3.76-2.59-5.15-1.78-1.52-4.66-.79-6.48.35-1.29.9-2.44,2-3.82,2.75-.84.45-1.78.78-2.74.84-.61.04-1.18,0-1.78-.11-.23-.04-.5-.12-.55-.34-.09-.4.39-1.29.53-1.67.39-1.07.78-2.13,1.29-3.15.27-.55.57-1.09.88-1.63.3-.53.67-1.06.92-1.61.15-.31.66.68.68.72.43.83.77,1.8,1.36,2.54.6.76,1.52,1.74,2.41.71.19-.23.32-.5.44-.77.41-.9.57-1.74.56-2.72-.01-.81.02-1.64-.08-2.45-.09-.64.12-1.13.88-.8,1.63.71,3.27,1.52,4.55,2.77.65.63,2.6,2.75,3.5,1.32.45-.72.47-1.78.46-2.61-.01-.91-.16-1.82-.39-2.7-.12-.44-.26-.88-.42-1.31-.08-.21-.49-.82-.22-1,.15-.1.66.13.81.17.34.08.69.15,1.04.2,1.36.22,2.84.32,4.21.13,1.42-.2.87-1.78.39-2.63-.57-1.03-1.05-2.04-1.81-2.95-.48-.57-1.04-1.06-1.67-1.44-.32-.19-.66-.35-1.01-.49-.1-.04-.32-.06-.27-.2.03-.08.18-.14.25-.16ZM46.07,19.74c-.34.29-.85.4-1.06.79-.23.41-.01.95-.19,1.39-.2.49-.82.65-1.35.61-.52-.04-1.05-.25-1.57-.17-.46.07-.76.39-1.13.63-.58.37-1.35.29-1.96-.03-.13-.07-.26-.16-.36-.27-.11-.12-.18-.28-.25-.43-.19-.41-.23-.76-.69-.85-.29-.05-.59,0-.88-.01-.66-.03-1.07-.3-1.15-1.01-.02-.49.27-.87.16-1.41-.08-.36-.25-.7-.43-1.01-.1-.18-.22-.36-.26-.57-.11-.49.21-.99.62-1.29.55-.42,1.25-.48,1.53-1.16.21-.52.31-1.07.83-1.38.54-.32,1.18-.17,1.75-.05,1.07.27,1.77-1.56,2.81-.39l.06.07c.27.29.24.77.54,1.03.17.15.43.12.81.04.69-.18,1.62.05,1.94.82.34.81-.61,1.69-.08,2.44.17.24.41.42.56.67.3.48.2,1.17-.23,1.54ZM40.05,43.54c-.03-.14-.08-.26-.18-.36-.25-.26-.71-.3-1.04-.39-.46-.12-.91-.28-1.34-.49-.11-.05-.22-.12-.27-.23-.05-.11,0-.25.08-.34s.2-.14.32-.16c.41-.08.79.13,1.16.26s.79.25,1.2.28c1.41.21,3.32-.56,4.58-1.14.3-.16.63-.29.96-.38.34-.09.85-.12,1.14.13.15.13.22.38.1.54-.19.25-.46.09-.69.09-.37,0-.78.22-1.12.35-.2.08-.99.38-.92.68.07.28,1.15.44,1.38.51,1.27.34,1.84,1.23,2.21,2.43.19.6-.22.81-.65.32-.31-.34-.57-.74-.85-1.1-.22-.28-.36-.58-.71-.73-.71-.3-1.53-.5-2.3-.5-.43,0-.86.04-1.29.06-.3.02-.64.06-.8.31-.09.14-.1.3-.11.46-.03.53-.06,1.05-.1,1.58-.01.24-.02.66-.27.76-.31.13-.67-.09-.66-.43.03-.54.06-1.06.13-1.59.03-.27.1-.64.04-.94ZM11.9,44.99c.33-.29.58-.2,1.07.02.35.17.76.38,1.03.66.36.36.66.9,1.23.99.58.09,1.36-.38,1.98-.39.2,0,.64,0,.71.25.09.29-.49.61-.71.68-.26.09-.53.12-.79.17-.47.09-1.14.22-1.45.63-.21.28-.17.8-.32,1.12-.18.38-.51.65-.81.94-.57.55-1.13,1.12-1.32,1.9-.07.3-.5,1.09-.87.64-.39-.47.03-1.5.34-1.93.08-.11.18-.22.28-.31.09-.08.2-.15.29-.23.45-.4,1.07-1.14.97-1.79-.07-.47-.78-.44-1.16-.52-.39-.09-.8-.18-1.12-.41-.87-.62-1.81-1.26-2.95-.99-.41.1-2.07.45-1.56-.37.62-.44,1.43-.51,2.16-.51.82,0,1.44.26,2.13.7.34.21.67.46,1.04.6s.83.15,1.15-.09c.03-.03.07-.06.08-.1.02-.05,0-.1-.01-.15-.11-.29-.47-.39-.76-.51-.22-.09-.42-.22-.6-.37-.26-.22-.29-.43-.04-.64Z"/>
  </g>
</svg>