<?xml version="1.0" encoding="UTF-8"?>
<svg id="Layer_2" data-name="Layer 2" xmlns="http://www.w3.org/2000/svg" viewBox="0 0 141.73 141.73">
  <defs>
    <style>
      .cls-1 {
        fill: none;
      }

      .cls-2 {
        fill: #8accff;
      }
    </style>
  </defs>
  <g id="Layer_1-2" data-name="Layer 1">
    <g>
      <path class="cls-2" d="M114.72,53.02c-3.54,0-7.34-.59-10.45-2.56-3.87-2.22-7.68-5.21-12.42-5.88-1.43-.3-3.32.6-4.23-.4-.44-1.04.64-2.76,1.23-3.75,1.82-2.63,3.66-5.08,5.38-7.26,1.92-2.89,6.22-5.92,4.89-9.23l-.07-.13c-2.08-3.03-6.63-1.08-8.28,1.55-3.01,4.44-4.91,9.57-8.22,13.79-.75,1.02-1.86,2.43-2.99,2.74-1.72.31-2.66-1.73-4.23-2.62-3.36-2.63-6.91-3.61-11.83-3.34-6.55.19-14.04,3.52-20.29,2.38-2.72-.48-7.73-2.69-8.9.99-.21,1.61,1.36,3.34,3.01,5.02,3.76,3.88,2.06,5.5-1.9,7.7-4,2.22-8.07,5.52-9.51,10.05-.29.93-.42,1.9-.72,2.83-.85,2.64-5.11,5.74-3.61,8.95.87,1.72,3.08,1.81,4.63,2.63,4.13,1.68,8.99,3.2,13.59,3.21,3.21-.1,7.48-2.64,10.77-3.36,2.87-.09-.28,6.06-.62,7.81-1.23,4.2-3.09,8.54-3.61,13.06-.4,3.32.02,6.66.42,9.93.6,3.99-.19,7.47,1.12,11.19,1.12,3.18,6.45-1.05,7.79-2.01,4.44-3.19,9.21-4.82,14.09-7.07,1.79-.83,3.48-2.06,5.09-3.15,1.97-1.34,3.29-3.53,4.95-5.19,2.52-2.97,4.1-6.02,4.64-9.47.47-1.84.39-4.55,1.94-5.75.91-.64,2.01.3,2.72,1.03,1.68,1.78,3.5,3.27,5.07,3.96,1.73,1.19,3.48,1.2,5.53,1.31,4.01.98,7.53,2.97,11.14,4.82,2.84,1.27,7.14,3.07,7.53-1.44,1.45-7.09,1.05-14.02-.36-21-1.87-8.49-4.42-8.95,1.99-16.51,1.96-3.42-2.47-4.84-5.26-4.8ZM99.76,59.35c-2.84-.53-5.94-2.06-8.09-3.98-1.6-1.43-4.26-2.67-6.38-1.78-1.71.72-1.33,2.23-.32,3.62,1.12,1.53,2.37,2.97,3.73,4.3,2.73,2.65,5.02,5.36,8.38,7.23,2.99,1.66,4.52,4.19,5.59,7.33.33.99,2.25,6.43-.19,6.27-1.06-.07-.83-1.85-.96-2.6-.29-1.63-.92-3.3-1.76-4.72-.59-.99-1.32-1.89-2.06-2.78-.43-.53-.87-1.06-1.42-1.47-2.72-2.05-5.45-3.71-7.86-6.19-2.15-2.21-4.07-4.64-5.7-7.26-.62-1-1.34-1.98-2.65-1.38-.91.42-1.53,1.43-2.05,2.24-1.21,1.9-2.43,3.8-3.64,5.7-.82,1.29-1.49,2.57-2.37,3.83-1.53,2.17-2.07,5.29-2.78,7.81-1.81,6.39-3.25,12.99-5.55,19.2-.59,1.59-1.51,3.02-2.43,4.44-.4.62-1.92,2.54-1.87.44.08-2.91,1.95-5.56,2.8-8.36.89-2.92,1.49-5.92,2.09-8.91.74-3.67,1.56-6.94,3.01-10.39,1.47-3.5,3.16-6.92,5.12-10.18.63-1.04,1.53-1.9,2.34-2.8.59-.66,1.98-1.95,1.72-2.95-.21-.78-3.33.24-4,.36-1.56.28-3.14.48-4.72.35-2.32-.19-4.65-1.05-6.97-.9-2.34.15-4.56,1.09-6.69,2-3.29,1.41-6.33,4.11-8.87,6.6-1.02,1-2.08,3.19-3.56,3.54-1.09.26-1.34-.23-.95-1.2,1.94-4.76,7.36-8.57,11.87-10.62,2.65-1.21,5.89-2.93,8.97-2.81,3.5.13,6.85,1.17,10.41.78,1.18-.13,3.82-.07,4.5-1.18.08-.13.15-.28.14-.44-.01-.21-.17-.38-.32-.52-4.87-4.84-11.9-5.13-18.32-4.36-2.29.28-4.62.9-6.85.34-.53-.13-1.07-.36-1.38-.81-.41-.6-.18-.84.24-.94.2-.05.44-.06.68-.07,3.06-.09,6.02-.12,9.01-.67,2.41-.45,5.11-.59,7.56-.37,2.98.27,5.67,1.6,8.13,3.23,1.01.67,1.9,1.5,2.86,2.22.82.62,1,1.73,2.08,2.07,1.03.32,1.5-.3,2.34-.64.98-.4,2.51-.53,3.56-.54,4.04-.04,7.1,3.67,10.97,4.85,1.82.55,3.83.43,5.68.91.55.14,2.07.42,2.3,1.08.41,1.17-4.75,1.2-5.37,1.08Z"/>
      <rect class="cls-1" width="141.73" height="141.73"/>
    </g>
  </g>
</svg>