<svg width="257" height="194" viewBox="0 0 257 194" fill="none" xmlns="http://www.w3.org/2000/svg">
<path d="M65.964 149.421C65.8837 150.367 65.308 154.897 63.8978 154.674C63.5452 151.224 65.8435 148.707 63.3043 145.217C61.18 142.299 62.2734 139.514 63.8398 136.511C65.1072 134.087 65.125 131.481 64.1477 128.924C63.8576 128.17 63.0008 127.438 63.398 126.545C65.9373 129.236 66.6825 133.4 65.3348 136.711C64.1879 139.523 62.5144 141.571 64.536 144.432C65.5713 145.891 66.1158 147.56 65.964 149.412V149.421Z" fill="#B5182F"/>
<path d="M83.3686 155.888C83.3329 156.102 83.0785 156.508 82.967 156.628C82.8241 156.776 82.3556 156.338 82.3288 156.124C81.8067 151.782 83.8729 150.399 81.9227 147.386C80.8204 145.681 80.7133 143.736 81.3336 141.817L82.9491 136.818C83.4757 135.181 83.7792 133.534 83.2124 131.802L82.0209 128.152C82.9402 128.451 83.083 129.223 83.3865 129.964C85.591 135.355 84.3772 137.019 82.7304 142.321C81.4095 146.57 84.8904 146.779 84.1496 151.215L83.3686 155.888Z" fill="#B5182F"/>
<path d="M74.22 147.73C72.6135 152.134 73.9791 152.139 73.0687 156.129C72.1672 154.053 71.8593 151.577 72.3145 149.283C72.6269 147.707 73.2204 146.208 73.6711 144.677C74.5681 141.607 72.3412 139.978 72.3948 137.399C72.4751 133.4 73.622 131.124 75.7374 127.889C76.2238 128.42 75.9828 129.089 75.715 129.611C74.6886 131.624 74.1263 133.619 73.93 135.841C73.4525 141.29 77.0182 140.058 74.2156 147.73H74.22Z" fill="#B5182F"/>
<path d="M100.438 150.635C100.247 152.157 99.7423 155.95 98.0197 156.731C97.9037 156.111 97.9215 155.571 98.0732 155.013L99.0193 151.55C99.5325 149.658 99.1666 147.699 98.3008 145.976C97.6761 144.726 97.5957 143.571 97.9126 142.223L99.2157 136.738C99.8271 134.168 99.479 131.744 98.4704 129.299C99.4745 129.428 99.6129 130.236 99.8628 130.874C100.693 132.989 100.72 135.239 100.26 137.457L99.1621 142.772C98.5864 145.552 100.934 146.645 100.438 150.639V150.635Z" fill="#B5182F"/>
<path d="M91.4327 156.504C91.4193 156.736 89.8306 156.923 90.0582 151.309C90.1162 149.885 90.2769 148.502 90.7232 147.154C91.9325 143.517 89.1166 142.294 89.6878 137.898C89.902 136.261 90.2501 134.663 90.9775 133.199L92.9277 129.268C93.1464 130.08 92.9367 130.705 92.6823 131.396C91.4372 134.984 89.9333 139.179 91.6068 142.812C92.5216 144.793 92.2003 146.641 91.8076 148.676C91.3167 151.224 91.5711 153.772 91.4283 156.499L91.4327 156.504Z" fill="#B5182F"/>
<path d="M96.5425 62.8758C95.7125 64.3664 91.9504 67.7625 90.442 67.0038C90.2322 66.8967 90.0359 66.4103 90.0716 66.1649C90.4331 63.3757 93.8649 61.9654 96.5425 62.8803V62.8758Z" fill="#B5182F"/>
<path d="M96.8594 57.226C95.6053 57.4983 93.7087 56.6102 93.914 55.5838C94.1907 54.2226 99.363 54.1245 100.104 56.5299L96.8594 57.2305V57.226Z" fill="#B5182F"/>
<path d="M88.9514 77.0271C88.5186 77.9732 87.4564 79.138 86.4925 78.5623C86.1221 78.3391 85.9123 77.6296 86.0239 77.0673C86.3899 75.2286 88.8533 73.3944 89.9689 73.6399C90.1118 73.6711 90.2322 74.22 90.1653 74.3673L88.9514 77.0271Z" fill="#B5182F"/>
<path d="M101.211 70.2839C100.715 71.5737 99.6352 75.1349 97.9438 74.6172C97.2789 74.4119 97.0067 73.5997 97.1316 72.8812C97.5511 70.5115 100.452 68.9674 101.05 69.4137C101.224 69.5431 101.3 70.0608 101.211 70.2839Z" fill="#B5182F"/>
<path d="M82.3288 67.6509C81.9539 68.1106 81.1462 67.7536 80.865 67.4412C80.5214 67.0619 80.45 66.3612 80.6463 65.8301C81.4095 63.7371 84.4798 62.8 85.0109 63.4872C85.1626 63.6836 85.1046 64.2503 84.9216 64.4779L82.3333 67.6509H82.3288Z" fill="#B5182F"/>
<path d="M225.818 18.3826C223.743 15.339 220.677 13.5406 217.21 12.6168C214.773 11.9652 212.546 12.0054 210.212 13.0095C208.039 13.9467 206.111 15.0847 204.513 16.9367C202.501 19.2752 200.582 21.7163 199.149 24.4921C197.9 26.9109 197.636 29.5126 197.07 32.2795L194.744 29.2181C193.727 27.8748 191.786 27.5669 190.148 27.2456C186.154 26.4601 182.177 26.7457 178.157 27.3973L172.324 28.3389C168.227 28.9994 164.407 30.5569 160.623 32.2215C153.496 35.3498 147.788 37.7508 142.357 43.5746C141.121 44.9 140.505 46.4709 140.54 48.256C139.849 55.1553 141.388 60.5418 141.719 67.3876L133.851 64.6386C132.516 64.1745 131.267 63.6479 129.87 63.2864C127.112 62.8848 124.649 61.9565 122.181 60.6936C118.785 58.9531 117.647 59.7028 116.678 56.9181C116.37 56.03 115.884 54.7492 114.911 54.4726C112.39 53.7541 109.632 52.9642 107.936 54.9858C105.682 57.6723 105.004 62.2198 105.374 65.674L105.865 70.2215C106.03 71.77 106.999 73.4346 108.547 73.9344C110.015 74.4119 113.983 75.3625 115.112 73.8675L117.517 70.6856C117.749 70.3777 118.294 70.3598 118.602 70.5695C120.097 71.6049 121.409 72.6804 122.953 73.6042L133.891 80.1331L140.344 83.8149C142.205 84.877 143.856 86.0105 145.878 86.7781L146.828 92.0084C147.413 95.2216 148.538 98.1848 150.256 100.947C151.559 103.045 153.447 104.727 155.709 105.691C160.859 107.887 169.039 106.213 174.158 104.339L185.462 100.202C188.211 99.1934 190.692 98.0241 193.307 96.7032L208.713 88.9247C211.105 87.7153 213.305 86.4657 215.487 84.9261C218.343 82.9089 220.601 79.2361 220.793 75.6035C222.485 72.7473 223.819 69.7395 224.613 66.4817L226.26 59.7386L227.827 51.7057C228.603 47.7294 229.518 43.9138 229.902 39.8706C230.593 32.5785 229.995 24.5322 225.809 18.3915L225.818 18.3826ZM142.156 46.9618C142.535 45.8952 143.147 45.0161 143.932 44.1905C146.815 41.1558 150.099 38.7504 153.839 36.8448C157.423 35.0196 160.953 33.3639 164.67 31.8466C167.098 30.8559 169.463 30.2802 172.034 29.8652C177.523 28.9771 189.019 26.7725 193.7 29.6777C196.132 31.1861 192.058 34.4127 190.657 35.274C187.417 37.2643 184.061 38.7861 180.433 40.1071C172.239 43.0882 164.01 45.5248 155.517 47.4438C153.937 47.8008 140.835 50.6837 142.156 46.9573V46.9618ZM112.394 62.7598C112.425 63.0052 112.224 63.5363 112.01 63.6479C111.796 63.7595 111.31 63.5809 111.011 63.2998C110.868 63.1614 110.747 62.7598 110.828 62.6304C110.93 62.4653 111.372 62.1707 111.568 62.1752C111.89 62.1841 112.363 62.5188 112.394 62.7598ZM110.239 58.0963C110.542 57.9624 111.153 58.3283 111.229 58.6006C111.314 58.8996 111.073 59.4842 110.756 59.5913C110.488 59.685 109.998 59.511 109.832 59.2789C109.605 58.9576 109.712 58.3328 110.239 58.0963ZM108.458 60.9122C108.757 60.7516 109.422 60.9836 109.556 61.2425C109.743 61.5995 109.569 62.2421 109.208 62.4028C108.931 62.5277 108.373 62.4251 108.168 62.2243C107.824 61.8896 107.838 61.2514 108.462 60.9122H108.458ZM108.445 65.5445C108.279 65.3348 108.391 64.6163 108.65 64.527C108.922 64.4333 109.431 64.4735 109.547 64.6609C109.699 64.9064 109.672 65.4954 109.449 65.6383C109.212 65.79 108.61 65.7498 108.445 65.5445ZM109.649 70.9132C109.292 70.9623 108.784 70.6365 108.659 70.3018C108.507 69.9046 108.788 69.253 109.417 69.1326C109.748 69.0701 110.35 69.5297 110.395 69.8377C110.453 70.2661 110.056 70.8596 109.654 70.9176L109.649 70.9132ZM110.497 67.2493C110.314 67.0485 110.529 66.4996 110.85 66.2898C111.046 66.1604 111.671 66.3701 111.774 66.5754C111.894 66.8209 111.702 67.3832 111.408 67.584C111.185 67.7357 110.752 67.5215 110.497 67.2448V67.2493ZM146.953 80.1108C146.873 81.9138 146.819 83.5828 146.337 85.5152C145.088 85.0064 143.923 84.6449 142.803 84.0246L136.448 80.4946C134.69 79.5173 133.208 78.3436 131.49 77.2993L122.975 72.1092L118.731 69.4048C117.776 68.7934 116.808 69.4896 116.263 70.2348L115.09 71.8414C114.224 73.0285 113.046 73.265 111.443 72.9928C114.224 69.4762 114.875 59.1048 112.653 55.3428C115.513 55.5302 115.433 59.3726 117.839 60.3008L123.859 62.6215L129.326 64.5494C130.959 65.125 132.548 65.6204 134.132 66.2987C135.957 67.0842 137.756 67.7179 139.643 68.3337L144.588 69.9403C145.195 71.1542 145.552 72.6224 146.034 73.9523C146.779 76.0007 147.056 77.9062 146.953 80.1108ZM149.229 60.7293C150.104 59.926 151.175 59.6448 152.317 59.4663L164.505 57.5875C173.73 56.1639 187.756 50.3713 195.512 44.9625C196.405 44.3422 197.864 43.5255 198.734 43.048C198.823 42.9989 199.189 43.4452 199.122 43.53C199.051 43.6192 198.886 43.9316 198.774 44.003L195.932 45.8774C187.202 51.6253 175.064 57.351 164.764 58.9486L153.87 60.64C152.286 60.8855 150.876 60.9881 149.229 60.7248V60.7293ZM151.327 73.8853C152.746 73.7648 154.482 73.6042 155.91 73.323C159.105 72.6893 162.1 72.1672 165.241 71.3327C172.007 69.5431 178.478 67.401 184.958 64.7234C189.608 62.8 193.856 60.4124 197.904 57.4492L202.858 53.8255C203.389 53.4372 203.969 53.2096 204.683 53.2498C204.353 53.8255 203.991 54.3788 203.523 54.7269L199.966 57.3912C195.035 61.0818 189.853 64.1209 184.083 66.3344C177.987 68.6774 171.962 70.6052 165.639 72.2297C161.85 73.2025 158.181 73.8407 154.33 74.4387C150.095 75.0947 150.666 73.9389 151.327 73.8809V73.8853ZM210.529 65.9551L206.829 68.7354C204.138 70.757 201.51 72.484 198.448 73.8898L186.895 79.196C176.608 83.9175 171.668 85.3724 160.431 87.4921C158.003 87.9518 155.843 88.224 153.344 88.1794C152.697 87.3002 158.422 86.4479 159.083 86.314L167.446 84.6449C171.784 83.7792 175.872 82.6099 179.937 80.8427L194.437 74.5414C203.219 70.7257 202.447 71.0381 210.194 65.5401C210.252 65.4999 210.467 65.2857 210.48 65.2902C210.489 65.2902 210.65 65.4062 210.694 65.4508C210.766 65.5178 210.627 65.8882 210.529 65.9596V65.9551ZM218.508 66.3121C217.022 63.6434 215.603 61.2737 214.086 58.7121L206.682 46.2031L200.872 37.8623L201.787 34.5108C203.402 28.571 209.918 20.4042 216.639 20.5604C218.388 20.6006 219.664 21.8278 220.526 23.2916C221.695 25.2775 222.534 27.308 222.721 29.6465L223.234 36.046C223.591 40.5266 223.44 44.8509 222.328 49.211L220.958 54.5886L219.151 63.5943L218.517 66.3121H218.508ZM227.322 44.668L226.055 50.7774L224.207 59.5734L222.882 64.9912C222.262 67.5171 221.793 69.9492 220.887 72.6135C220.396 70.931 219.945 69.4316 219.142 67.7491C220.789 63.6345 221.672 59.3637 222.587 54.9679C223.408 51.0273 224.689 47.3679 224.774 43.1507C224.872 38.0899 224.555 33.3104 224.042 28.4282C223.797 26.0808 222.668 24.1217 221.516 22.1491C220.369 20.1855 218.406 18.7843 216.099 18.8289C212.876 18.8869 210.141 20.3417 207.686 22.2652C205.928 23.6397 204.585 25.1035 203.371 26.9867C201.497 29.8919 200.278 32.9266 199.926 36.4343L198.042 33.6183C198.899 28.7539 200.845 24.974 203.755 21.1138C204.906 19.5831 206.035 18.1595 207.477 16.9099C208.588 15.9504 209.989 15.3881 211.306 14.8169C213.082 14.0449 214.769 14.1252 216.598 14.5179C220.459 15.339 223.529 17.6597 225.363 21.2075C226.755 23.9119 227.603 26.6833 227.983 29.7625C228.599 34.7652 228.353 39.7322 227.331 44.668H227.322Z" fill="#B5182F"/>
<path d="M173.448 41.1335C170.909 41.9993 170.445 40.4373 167.031 38.5407L162.077 35.7916C161.836 35.6578 161.546 35.1892 161.564 34.966C161.658 33.7968 163.662 33.4398 164.648 33.0962C170.94 30.9005 177.385 29.8696 184.021 29.8741C185.846 29.8741 187.609 29.709 189.104 30.9496C189.501 31.2798 189.965 31.918 190.01 32.3821C190.304 35.5194 176.247 40.1785 173.448 41.1335Z" fill="#B5182F"/>
<mask id="mask0_1_2" style="mask-type:luminance" maskUnits="userSpaceOnUse" x="4" y="4" width="249" height="187">
<mask id="mask1_1_2" style="mask-type:luminance" maskUnits="userSpaceOnUse" x="4" y="4" width="249" height="187">
<path d="M242.808 4.07516H14.1921C8.60222 4.07516 4.0707 8.60668 4.0707 14.1966V180.598C4.0707 186.188 8.60222 190.719 14.1921 190.719H242.808C248.398 190.719 252.929 186.188 252.929 180.598V14.1966C252.929 8.60668 248.398 4.07516 242.808 4.07516Z" fill="white"/>
</mask>
<g mask="url(#mask1_1_2)">
<path d="M242.808 4.07516H14.1921C8.60222 4.07516 4.0707 8.60668 4.0707 14.1966V180.598C4.0707 186.188 8.60222 190.719 14.1921 190.719H242.808C248.398 190.719 252.929 186.188 252.929 180.598V14.1966C252.929 8.60668 248.398 4.07516 242.808 4.07516Z" fill="white"/>
</g>
</mask>
<g mask="url(#mask0_1_2)">
<path d="M255.196 190.21L257.977 189.893C261.029 189.545 263.983 189.702 267.054 189.849L273.186 190.139C275.667 190.255 278.059 190.036 280.545 190.014L289.68 189.92C290.501 190.648 293.656 192.129 293.727 190.755C293.741 190.483 293.469 189.956 293.228 189.782L289.524 187.069C287.301 185.44 285.23 183.784 283.111 181.981C279.103 178.572 275.122 175.559 270.677 172.418L275.569 172.426C276.292 172.426 277.019 172.315 277.711 172.025C278.01 171.9 278.099 170.923 277.818 170.753C277.256 170.409 276.555 170.244 275.894 170.253L267.853 170.36C263.97 168.115 260.511 165.5 256.816 162.97L249.73 158.119L245.784 155.209C245.7 155.147 245.463 154.924 245.396 154.866C245.343 154.821 245.593 154.732 245.682 154.727L246.11 154.718L246.521 154.709L260.132 154.544H260.538H260.931C261.984 154.544 268.156 154.66 268.254 152.991L268.277 152.59C266.956 151.844 265.603 152.67 264.149 152.67L242.487 152.661L229.344 142.142C229.255 141.942 229.299 141.826 229.455 141.817L237.426 141.411C240.67 141.245 245.802 140.531 248.395 140.759C248.957 140.808 250.921 141.17 251.421 140.094C251.515 139.889 251.225 139.286 251.033 139.179C248.632 137.805 244.334 138.416 241.567 138.662C240.246 138.778 238.93 138.867 237.609 138.929L229.509 139.304L212.801 139.434L192.384 139.554C189.34 139.572 186.493 139.71 183.481 139.889L176.354 140.317L156.637 140.634L150.671 141.009C146.944 141.241 143.37 141.335 139.617 141.281C135.332 141.219 131.24 141.446 126.983 141.643L121.239 141.906L110.787 142.241L104.973 142.267L104.366 134.984L104.477 123.944C104.5 121.891 100.465 120.092 99.0059 119.401C94.9538 117.473 89.7012 116.094 85.1983 115.875C84.7699 113.13 85.9704 106.017 85.8276 104.401L85.4125 99.8494C85.2296 97.8501 85.1403 95.8553 85.6981 93.8694C86.0909 93.4365 87.0994 93.7176 87.5903 94.0122L92.303 96.8638C95.7571 98.9524 99.5772 95.6054 101.054 92.2449C101.621 90.9597 103.045 88.8488 101.536 87.3583C100.247 86.0819 97.3904 88.0366 94.9761 86.4479C94.2933 85.9971 93.6507 85.2429 93.0705 84.6673C90.5357 82.1547 86.8049 82.2842 84.3147 84.7253C83.1455 85.8722 82.1101 87.0325 81.7486 88.7283C79.8431 87.0325 77.8884 85.7428 75.4785 85.1805L69.9715 83.8952C65.4687 82.842 66.1425 84.5557 60.408 81.0748C59.0781 80.267 56.0657 78.7274 55.1955 80.6106C54.9545 81.1283 55.1241 81.7754 55.3383 82.369L57.3421 87.9116C58.1409 90.1251 58.8371 92.1378 60.2741 94.0389C61.7914 96.0472 63.1704 98.4035 66.5129 98.3633L72.4528 98.2964C76.2863 98.2517 80.0662 95.4135 80.2581 96.2569C81.6996 102.719 79.8118 109.154 80.2447 115.616C75.3134 115.335 68.6863 116.071 64.2905 118.258C63.3667 118.718 62.4251 119.36 61.604 119.923C60.0019 121.016 59.6493 122.756 59.3146 124.555C58.7032 127.857 58.2837 131.017 58.1989 134.382L57.9981 142.58L23.3942 143.035C21.1673 143.066 19.1368 143.352 16.9233 143.397L12.1259 143.495L3.97252 143.945C4.17781 144.53 4.74457 144.762 5.28902 144.807L9.80082 145.155C5.58803 149.194 1.18333 152.933 -3.31955 156.624L-13.4722 157.583C-13.8337 157.619 -14.2889 158.222 -14.1773 158.503C-13.6641 159.81 -7.96077 158.967 -6.46129 158.98C-6.35865 158.98 -6.33188 159.074 -6.3765 159.217C-10.0404 162.193 -13.258 165.362 -16.6988 168.597L-28.6811 179.866C-30.4975 181.571 -32.3316 183.066 -33.9962 184.909C-35.4109 186.48 -36.656 188.104 -37.9323 189.853C-36.6649 189.496 -36.1383 188.528 -35.3529 187.756C-33.6972 186.127 -32.1888 184.436 -30.3279 183.043C-27.8243 181.169 -25.5037 179.379 -23.0849 177.34C-22.1433 177.215 -21.032 177.161 -20.0235 177.135L-11.7719 177.21L-1.46752 177.474C-4.47985 180.709 -7.06376 184.029 -9.9065 187.278L-14.7352 192.799C-18.8141 193.678 -32.4253 191.594 -34.7861 195.32C-33.8579 195.65 -33.001 195.958 -32.0951 195.954C-30.6492 195.954 -29.3639 196.016 -27.9314 196.097C-24.4103 196.293 -21.0365 196.092 -17.3994 195.909C-19.6397 198.498 -21.6167 201.099 -24.0176 203.424C-26.1909 205.531 -28.2706 207.508 -30.1047 209.913L-33.2554 213.823C-34.5808 214.041 -39.8424 213.546 -40.0075 214.8C-40.0387 215.036 -39.5746 215.523 -39.3336 215.536L-34.4871 215.804L-34.6255 217.116L-33.3938 215.777C-30.7161 215.991 -28.0787 216.174 -25.3609 216.223L-17.8635 216.362L-11.9326 216.139C-9.45577 216.045 -7.15302 215.71 -4.67621 215.965L-7.93845 220.128C-8.06787 220.293 -8.16605 220.78 -8.1482 220.949C-8.13035 221.119 -7.58143 221.025 -7.41631 220.909C-5.54644 219.611 -4.02465 217.812 -2.59212 216L14.5402 215.916L33.5291 215.666C32.9801 216.848 29.9098 220.874 30.8648 221.69C31.4003 222.15 32.5562 220.468 32.8418 220.026L35.6712 215.621L51.7949 215.443L64.179 215.371L61.3853 221.373C63.1615 222.668 65.3482 216.322 66.089 215.273L77.5626 214.911L96.4845 214.483C96.4176 216.572 94.8512 221.057 95.0431 222.275C95.0654 222.427 95.6589 222.601 95.7794 222.485C96.2792 221.989 96.8638 220.775 97.0111 219.95L97.9929 214.496L113.309 214.363L123.381 214.09C123.448 216.491 123.413 218.803 122.69 221.016C122.565 221.391 122.435 221.69 122.524 221.909C122.614 222.128 123.386 222.279 123.582 222.145C125.599 220.789 125.354 216.197 125.528 214.05L156.927 213.889L159.141 221.864C159.221 222.146 159.596 222.552 159.833 222.578C161.024 222.712 160.605 219.481 160.399 218.714L159.172 214.171L159.547 213.845L176.751 213.729L195.4 213.68C195.878 214.983 196.284 216.103 197.212 217.009C197.435 217.223 198.212 217.161 198.373 216.92C198.511 216.714 198.752 216.148 198.672 215.916L197.922 213.765C197.922 213.765 198.118 213.675 198.283 213.599L210.114 213.202L222.926 212.805L232.093 212.444C232.771 212.417 233.53 213.666 235.145 214.635C235.534 214.867 236.529 214.608 236.498 214.108C236.39 212.564 234.994 212.31 236.212 212.247L246.704 211.721L261.654 211.444L272.878 211.404C273.967 212.336 275.011 213.117 276.26 213.84C277.023 214.282 278.514 213.729 278.237 213.506L277.72 213.082C277.662 213.037 277.483 212.903 277.456 212.876L276.153 211.422L290.157 211.319C291.295 211.31 292.634 211.06 293.094 210.101C293.643 208.954 291.442 208.293 290.09 208.302L273.235 208.405L269.196 204.652C267.058 202.666 264.827 200.867 262.841 198.73L258.414 193.968L255.411 190.862C254.813 190.242 254.411 190.335 255.174 190.215L255.196 190.21ZM85.5241 88.7596C88.2865 87.3806 89.0005 88.2954 91.1516 89.5316C95.1055 91.7987 95.4492 88.889 96.9799 90.5223C97.02 90.9552 96.1944 91.4506 95.6857 91.513C93.4454 91.7987 91.2364 91.1337 89.4067 89.7503C87.3494 88.1928 86.4613 90.0002 85.4795 89.6209C85.2742 89.5405 85.3143 88.8622 85.5196 88.7596H85.5241ZM77.1967 92.4859C72.5956 90.9597 68.0347 92.178 64.3753 90.2992C63.0231 89.6075 62.3671 88.0411 62.1752 86.5237C65.8078 88.1482 64.5717 89.5584 69.3111 89.9466C70.3955 90.0359 71.5156 90.2412 72.6447 90.2144C78.656 90.0805 78.0848 92.776 77.1967 92.4815V92.4859ZM248.641 159.676L255.71 164.536L263.457 170.182L261.707 170.079L251.827 169.7L243.343 169.401L231.937 169.316L222.092 160.707L215.469 154.901L242.125 154.772L248.632 159.676H248.641ZM145.128 155.294L162.14 155.214L167.857 165.188L170.833 169.927L155.031 170.833L149.345 171.012C148.837 168.437 148.274 166.125 147.52 163.653L145.124 155.299L145.128 155.294ZM147.239 171.012L128.884 171.155L128.473 155.125L132.726 155.049L143.173 155.303L145.32 163.305L147.239 171.012ZM198.185 169.316L179.138 169.481L173.408 169.744L169.901 164.389L164.554 155.218L184.471 155.2C188.974 160.364 193.477 163.952 198.181 169.316H198.185ZM187.051 155.187L212.533 154.87L220.485 161.961L228.799 169.289L200.952 169.343C196.338 164.103 191.772 160.48 187.051 155.187ZM155.446 173.502L168.655 172.908L172.556 172.73C174.372 175.831 176.072 178.871 177.594 182.137C178.634 184.369 179.763 186.404 181.057 188.613L172.074 188.72C168.928 188.76 165.924 189.086 162.644 189.063L156.222 189.184L152.715 189.362L149.76 173.658L155.446 173.493V173.502ZM179.692 181.544C178.282 178.447 176.715 175.626 175.042 172.538L197.297 172.185L200.791 172.159C204.272 175.756 207.12 179.665 210.011 183.753L213.117 188.14L199.823 188.34C194.196 188.425 188.903 188.684 183.4 188.617C182.021 186.221 180.807 183.98 179.696 181.544H179.692ZM210.181 180.441C208.097 177.487 205.924 174.854 203.451 172.087L231.66 171.824L235.493 174.993C238.992 177.884 242.313 180.812 245.606 183.945L250.078 188.198C246.713 188.363 243.705 188.095 240.371 188.077L215.487 187.966L210.177 180.441H210.181ZM227.528 141.817C227.889 142.5 228.273 143.16 228.862 143.664L239.38 152.634L233.164 152.697L213.256 152.822L207.392 147.761L200.841 142L227.528 141.817ZM184.311 142.281C189.367 142.026 194.37 141.991 199.408 141.995C199.421 142.678 199.622 143.187 200.051 143.597L204.853 148.002L210.163 152.759C206.432 152.978 202.867 152.835 199.091 152.826L185.096 152.799C183.623 151.001 182.285 149.243 180.977 147.359L177.679 142.607L184.306 142.276L184.311 142.281ZM175.765 142.687L182.535 152.844L163.189 152.991L158.628 143.798C158.449 143.441 158.235 143.124 157.985 142.718L175.765 142.687ZM149.903 143.24L156.08 142.816C155.95 143.553 156.575 143.923 156.803 144.396L160.873 152.982L155.66 153.058L144.521 153.134L141.919 143.49C144.704 143.481 147.217 143.423 149.903 143.24ZM136.073 143.553L140.415 143.495L142.602 153.121L133.699 152.92L128.446 152.857L128.246 143.954C130.852 143.704 133.413 143.588 136.073 143.553ZM127.826 183.427L128.803 173.712L147.685 173.614L150.653 189.523L142.571 189.657L133.712 190.094L127.362 190.42C127.362 187.992 127.581 185.837 127.826 183.423V183.427ZM121.172 144.316L127.067 143.977L127.018 152.875L119.276 153.259L114.933 153.353L117.482 144.441L121.168 144.316H121.172ZM127.009 155.125L126.76 171.159L109.85 171.409L112.586 160.993L114.295 155.557L123.417 155.218L127.014 155.125H127.009ZM105.048 144.825L115.884 144.49L113.001 153.478L104.044 153.701C105.397 150.541 105.062 148.024 105.048 144.825ZM112.296 155.754L110.047 162.885L107.878 171.547L92.6109 171.846L85.3411 172.038C86.0998 170.476 86.6889 169.075 87.5636 167.674L91.9102 160.698L96.5068 160.167C97.444 160.06 98.4169 159.61 99.2157 159.154C100.604 158.231 101.737 157.226 102.813 155.852L112.296 155.754ZM64.7502 168.035L61.3541 172.891L36.9252 174.323L30.7533 174.542L41.4102 163.198C43.3381 161.145 45.1812 159.208 47.2474 157.258L56.0524 156.919L61.0729 156.673C64.1477 159.52 66.0221 159.69 70.043 160.15C68.4408 162.912 66.5799 165.42 64.7546 168.031L64.7502 168.035ZM72.069 160.167L82.9268 160.623L89.2862 160.89L85.6223 166.772C84.5869 168.432 83.8997 170.177 82.9759 172.083L74.6262 172.377L63.5185 172.703L69.5074 164.202L72.069 160.167ZM33.9129 168.191L27.8034 174.609L22.0688 174.743L12.407 175.086L4.44111 175.175L12.4606 167.468C15.7987 164.264 19.0788 161.149 22.6668 158.32L30.9675 158.057L37.4786 157.7L44.1682 157.512L33.9129 168.191ZM28.3836 177.228L38.438 176.782L59.5734 175.626C57.9401 178.509 56.1729 181.147 54.3208 183.905L49.2824 191.411L45.6319 191.513C43.3292 191.58 41.2138 191.848 38.7415 191.848L16.2762 191.866L20.6184 186.551L22.6177 184.186L28.3746 177.219L28.3836 177.228ZM58.3953 181.187L61.8182 175.528C66.089 175.167 70.1724 175.144 74.4298 174.988L81.6237 174.725L78.8077 181.539L74.8538 191.005C69.8511 190.433 64.9153 190.746 59.7207 190.973L51.7191 191.326L58.3953 181.182V181.187ZM80.6954 182.146C81.7843 179.611 82.7572 177.193 83.9532 174.694L88.8444 174.569L102.473 174.194L107.217 174.167L104.026 185.886L102.674 191.313C101.487 191.335 100.18 191.393 98.939 191.322L92.0307 190.933L76.9066 190.969L80.6865 182.151L80.6954 182.146ZM101.38 122.065C101.938 122.792 103.063 122.658 102.991 124.176C100.256 122.368 97.1896 121.409 93.9229 120.726C90.9865 120.115 88.3088 119.606 85.2653 119.338L85.2429 117.656C90.857 118.62 96.306 119.476 101.38 122.06V122.065ZM65.1518 119.588C69.3066 117.321 75.2643 116.66 80.0796 116.879L80.026 118.624C75.7508 118.414 72.3546 118.45 67.9723 119.284C65.5669 119.74 63.7684 121.422 61.9431 122.904C61.4612 121.677 64.17 120.128 65.1563 119.592L65.1518 119.588ZM59.6761 147.605L60.0331 140.179C60.1447 137.876 60.1937 135.68 60.4883 133.409L61.595 124.925C63.0276 125.162 64.1656 125.376 65.5044 125.479C74.3584 126.162 77.3886 128.165 87.6528 128.031L93.1509 127.96L97.5689 127.237C99.537 126.916 101.42 126.648 103.201 125.778L103.138 140.174L103.214 143.182C103.348 148.426 103.553 153.487 99.2112 157.276C98.6355 157.775 97.6671 158.235 96.9888 158.592C92.8965 159.23 88.8756 159.685 84.752 159.275L80.7847 158.878C78.4641 158.646 76.2015 158.034 73.8452 158.039C70.5205 158.048 68.8112 157.896 65.6204 157.856C64.0272 157.079 62.1573 156.236 61.1934 154.62C59.9795 152.576 59.5601 149.97 59.6716 147.609L59.6761 147.605ZM58.1007 145.931C57.9044 148.97 58.2034 151.809 59.4753 154.531L49.4966 154.995L53.107 151.416C54.9411 149.769 56.4986 148.011 58.0963 145.931H58.1007ZM57.0431 145.003C55.8471 146.364 54.6555 147.587 53.3346 148.841L46.819 155.04L38.5675 155.41L30.1909 155.861L25.2106 156.138L29.8384 152.099L37.5232 144.936L57.0342 145.003H57.0431ZM1.70547 155.196C5.50323 152.005 9.11357 148.747 12.5499 145.173C14.6607 145.195 16.5663 145.15 18.6102 145.124L35.3811 144.905C33.0025 146.694 30.9541 148.832 28.5978 150.769L21.8457 156.316C17.084 156.539 12.5275 156.535 7.7212 156.213C5.26671 156.048 3.10676 156.138 0.647803 156.249C0.964656 155.888 1.29936 155.535 1.70547 155.196ZM-8.45166 175.35L-12.1066 175.135L-20.5724 175.22L-9.44685 164.742L-2.47609 158.753C0.978044 158.512 4.34739 158.311 7.83277 158.503C11.5368 158.708 15.0847 158.534 18.9405 158.534L10.7023 165.875L0.799537 175.314L-8.45612 175.345L-8.45166 175.35ZM-8.09018 188.492C-4.74315 184.744 -1.73975 180.776 2.11604 177.451L12.7953 177.483L25.6033 177.215L21.1272 182.7L17.3428 187.479L13.5361 191.955L-0.659771 192.147L-6.31402 192.535C-8.20621 192.665 -9.94667 192.785 -11.9326 192.808L-8.08126 188.492H-8.09018ZM-1.95842 212.569L-7.96077 212.778C-9.32189 212.827 -10.6384 212.97 -12.0709 213.104L-17.6627 213.617C-22.4646 214.059 -27.1861 214.019 -31.8363 213.845C-29.3729 211.23 -27.1995 208.735 -24.6647 206.383C-22.6966 204.558 -20.7911 202.862 -19.0149 200.841L-14.1639 195.423L-5.59106 194.932L-0.802578 194.615L11.4877 194.593L6.37346 201.398L-0.628532 210.895L-1.96288 212.564L-1.95842 212.569ZM12.5052 212.421L0.41128 212.475L8.69853 201.532L14.0493 194.588L29.1868 194.499C34.1895 194.468 39.0093 194.432 43.9852 194.111C45.3017 194.026 46.4888 193.892 47.7116 193.99L41.736 203.813L35.6979 212.497L12.5008 212.417L12.5052 212.421ZM65.5267 212.497H37.9828L43.9763 204.022L50.166 193.892L55.6596 193.486L64.3396 193.151C67.4992 193.031 70.5026 193.093 73.8407 193.446C72.0199 198.663 69.7306 203.545 67.3743 208.557L65.5222 212.497H65.5267ZM97.319 211.591C91.2721 211.582 85.4616 211.734 79.4905 211.921L67.5974 212.296L72.975 200.751L75.8802 193.464C81.1462 193.477 86.3229 193.437 91.5934 193.798C95.0788 194.035 98.3633 194.352 101.92 194.361L100.193 201.63L97.319 211.596V211.591ZM123.68 204.317C123.43 206.544 123.671 208.798 123.618 211.024L112.751 211.408L98.8185 211.582L102.148 201.09L103.875 194.289C109.101 194.245 114.126 194.312 119.28 193.955L124.885 193.566L123.68 204.321V204.317ZM124.961 190.576L116.522 191.156L104.584 191.264L109.181 174.02L119.874 173.783L126.657 173.725L125.595 183.253C125.323 185.681 125.086 187.966 124.966 190.581L124.961 190.576ZM125.912 211.002C125.898 208.681 125.827 206.379 126.09 204.067L127.313 193.397L134.31 193L142.401 192.62L151.465 192.486L154.366 204.464L155.897 210.788L125.912 211.002ZM179.219 210.734L158.119 210.806C157.325 208.521 156.923 206.298 156.356 203.987L153.518 192.415L156.624 192.232C161.479 192.281 166.17 192.013 171.034 191.933L183.052 191.737C186.993 197.895 190.643 204.009 194.071 210.623L179.214 210.73L179.219 210.734ZM222.61 209.73L210.529 210.159L197.641 210.636C196.494 210.681 196.405 210.462 195.958 209.681L189.523 198.39L185.484 191.799L187.252 191.665L201.064 191.223L215.148 190.813C218.031 194.481 220.999 197.868 224.167 201.269C226.501 203.777 228.362 206.481 230.241 209.387L222.614 209.73H222.61ZM259.878 198.114C260.837 199.332 261.815 200.394 262.917 201.474L270.008 208.427L252.345 208.561L242.138 208.918L233.276 209.338L229.768 204.647C228.639 203.152 227.523 201.778 226.274 200.372L217.638 190.674L244.08 190.603C246.94 190.594 249.551 190.59 252.425 190.465L259.882 198.118L259.878 198.114ZM252.844 188.251L246.503 182.235C242.692 178.621 238.916 175.283 234.744 171.793L243.736 171.69L251.648 171.873L261.922 172.141L266.576 172.346L274.453 178.188L284.387 186.082L286.609 187.809L281.076 187.992C278.693 188.073 276.363 188.497 273.975 188.39L268.232 188.126C265.849 188.019 263.528 187.662 261.127 187.796L252.844 188.247V188.251Z" fill="#B5182F"/>
</g>
<path d="M236.337 192.79H20.6631C10.372 192.79 2 184.418 2 174.127V20.6631C2 10.372 10.372 2 20.6631 2H236.337C246.628 2 255 10.372 255 20.6631V174.122C255 184.413 246.628 192.785 236.337 192.785V192.79ZM20.6631 6.14586C12.657 6.14586 6.14586 12.657 6.14586 20.6631V174.122C6.14586 182.128 12.657 188.639 20.6631 188.639H236.337C244.343 188.639 250.854 182.128 250.854 174.122V20.6631C250.854 12.657 244.343 6.14586 236.337 6.14586H20.6631Z" fill="#B5182F"/>
<path d="M236.337 192.79H20.6631C10.372 192.79 2 184.418 2 174.127V20.6631C2 10.372 10.372 2 20.6631 2H236.337C246.628 2 255 10.372 255 20.6631V174.122C255 184.413 246.628 192.785 236.337 192.785V192.79ZM20.6631 6.14586C12.657 6.14586 6.14586 12.657 6.14586 20.6631V174.122C6.14586 182.128 12.657 188.639 20.6631 188.639H236.337C244.343 188.639 250.854 182.128 250.854 174.122V20.6631C250.854 12.657 244.343 6.14586 236.337 6.14586H20.6631Z" fill="#B5182F"/>
</svg>
