<svg width="257" height="194" viewBox="0 0 257 194" fill="none" xmlns="http://www.w3.org/2000/svg">
<mask id="mask0_1_4" style="mask-type:luminance" maskUnits="userSpaceOnUse" x="2" y="2" width="253" height="190">
<path d="M244.62 2.10797H12.3894C6.71113 2.10797 2.10797 6.71113 2.10797 12.3894V181.421C2.10797 187.1 6.71113 191.703 12.3894 191.703H244.62C250.298 191.703 254.901 187.1 254.901 181.421V12.3894C254.901 6.71113 250.298 2.10797 244.62 2.10797Z" fill="white"/>
</mask>
<g mask="url(#mask0_1_4)">
<path d="M166.756 112.711L166.96 116.931C167.581 116.972 168.085 116.877 168.493 116.546C169.177 115.988 169.136 113.953 168.583 113.25C168.18 112.738 167.341 112.674 166.761 112.711H166.756Z" fill="#B5182F"/>
<path d="M167.708 64.1503C167.658 63.9825 167.114 63.8601 167.006 63.9961C166.91 64.1095 166.774 64.3361 166.684 64.5084L166.421 66.3988C167.527 66.2174 167.962 64.9889 167.708 64.1548V64.1503Z" fill="#B5182F"/>
<path d="M182.138 65.1023C182.015 65.1023 181.712 65.1385 181.598 65.1839C181.258 65.3335 181.131 65.6689 181.267 66.0588L182.147 65.6009C182.251 65.5465 182.26 65.1023 182.138 65.1023Z" fill="#B5182F"/>
<path d="M172.627 64.6625C172.4 64.9028 172.242 65.2337 172.201 65.5556L173.021 65.6644C172.908 65.2292 172.813 64.9572 172.627 64.6625Z" fill="#B5182F"/>
<path d="M182.913 66.8793C182.963 66.7161 182.822 66.1585 182.668 66.1993L181.961 66.3988C181.766 66.4532 181.308 66.494 181.308 66.6617L181.326 67.5321C181.857 67.7406 182.741 67.4097 182.913 66.8793Z" fill="#B5182F"/>
<path d="M203.476 115.884C203.884 116.464 208.485 119.937 208.53 117.906L208.694 109.905V106.595C207.678 108.359 206.749 109.905 205.538 111.419C204.84 112.294 202.982 115.181 203.476 115.879V115.884Z" fill="#B5182F"/>
<path d="M202.238 103.232C204.051 102.379 205.942 101.455 207.692 100.484C207.846 100.398 208.023 99.9495 207.941 99.809C207.297 98.6802 205.516 98.8026 204.668 98.5805L201.572 97.7599L197.909 96.5087C197.288 96.2957 196.445 96.2775 196.245 97.1162C195.81 98.9295 195.094 102.515 196.522 103.803C198.077 105.204 200.325 104.129 202.243 103.227L202.238 103.232Z" fill="#B5182F"/>
<path d="M206.11 91.9891C206.812 93.1451 207.324 94.292 208.204 95.2621C208.19 94.3872 208.009 93.5032 208.063 92.6373C208.267 89.2918 208.281 86.123 207.764 82.8047C206.64 82.5145 202.809 85.1438 202.691 86.182C202.637 86.6761 202.841 87.2246 203.118 87.6145C204.147 89.0787 205.194 90.4659 206.114 91.98L206.11 91.9891Z" fill="#B5182F"/>
<path d="M162.364 64.7396C162.808 64.6263 162.812 63.6788 162.64 63.2663C162.495 62.9263 161.878 62.6271 161.402 62.6906L160.917 64.7759C161.38 64.8167 161.888 64.862 162.364 64.7396Z" fill="#B5182F"/>
<path d="M199.196 88.5347C198.507 89.5728 198.145 90.5339 197.963 91.7851C197.873 92.4152 197.487 93.2267 197.823 93.8613C199.319 96.6855 201.531 96.613 204.333 97.6013L206.468 98.3538C207.102 98.5759 208.068 98.8343 208.254 98.0682L206.617 95.5976C206.15 94.8949 205.674 94.2285 205.294 93.476C204.237 91.3861 203.004 89.5275 201.336 87.8593C201.096 87.619 200.325 87.4785 200.03 87.5963C199.731 87.7187 199.414 88.1993 199.192 88.5392L199.196 88.5347Z" fill="#B5182F"/>
<path d="M165.183 85.0305C166.054 84.3279 165.664 82.7775 165.138 81.9071C164.802 81.354 164.195 81.0639 163.442 81.0956L163.859 85.2572C164.29 85.375 164.879 85.2753 165.179 85.0305H165.183Z" fill="#B5182F"/>
<path d="M207.111 101.282C204.305 102.601 201.794 104.184 199.242 105.938C197.95 106.251 197.193 107.511 197.664 108.812C198.013 109.778 198.503 110.752 199.174 111.595C199.305 111.759 201.789 113.563 203.172 112.017C203.707 111.414 204.274 110.802 204.741 110.136C206.395 107.792 207.383 105.204 208.304 102.502C208.435 102.112 208.417 101.618 208.136 101.368C207.946 101.201 207.406 101.142 207.107 101.282H207.111Z" fill="#B5182F"/>
<path d="M156.28 64.2772C157.173 63.5564 157.368 62.6226 156.992 61.5074C156.23 61.6298 155.908 63.7332 156.28 64.2772Z" fill="#B5182F"/>
<path d="M158.578 64.5945C159.635 63.9916 159.662 62.9172 159.199 62.0967C158.642 62.8674 158.338 63.7876 158.578 64.5945Z" fill="#B5182F"/>
<path d="M201.295 62.4186C201.127 62.473 200.715 62.7404 200.751 62.9082L200.996 63.9327C201.427 63.6924 201.676 63.4748 201.803 62.9263C201.848 62.7178 201.463 62.3642 201.295 62.4186Z" fill="#B5182F"/>
<path d="M162.549 30.3366C163.093 31.887 162.286 33.4918 160.754 33.868C159.707 34.1264 158.655 33.6278 157.962 32.9433C156.638 31.6377 156.955 28.4689 158.66 27.7799C159.548 27.4217 160.75 27.4625 161.421 28.2559C161.901 28.8225 162.282 29.566 162.554 30.3366H162.549ZM161.452 32.8299C162.79 31.6467 161.711 28.8452 160.65 28.4508C159.943 28.1879 159.045 28.2423 158.547 28.8225C157.721 29.779 157.545 31.3339 158.265 32.4174C158.936 33.4238 160.559 33.6232 161.457 32.8299H161.452Z" fill="#B5182F"/>
<path d="M170.061 18.7904C169.395 19.0261 168.61 18.6635 168.189 18.2691C167.006 17.1584 167.346 14.2889 169.018 13.627C169.68 13.3641 170.478 13.7721 170.945 14.1982C172.033 15.1864 171.87 18.1512 170.061 18.7949V18.7904ZM170.369 17.8792C171.28 16.9726 171.262 15.599 170.596 14.6198C170.424 14.3659 169.966 14.0939 169.716 14.103C169.499 14.1121 169.055 14.3206 168.9 14.4974C168.021 15.531 167.704 17.3624 168.823 17.9472C169.268 18.1784 169.957 18.2827 170.365 17.8792H170.369Z" fill="#B5182F"/>
<path d="M177.636 29.1716C178.076 30.4772 177.269 32.9614 175.383 33.0747C174.785 33.111 174.164 32.9705 173.747 32.5987C173.384 32.2723 173.103 31.5923 173.157 31.0529C173.307 29.6022 174.286 28.6321 175.583 28.206C176.448 27.9204 177.319 28.2423 177.632 29.1716H177.636ZM176.14 32.1635C176.952 31.6059 177.251 30.5996 177.21 29.7246C177.183 29.167 176.793 28.6503 176.217 28.6729C174.694 28.7364 173.271 30.4092 173.901 31.8961C174.209 32.6259 175.524 32.5851 176.14 32.1635Z" fill="#B5182F"/>
<path d="M167.015 26.7145C167.006 26.8097 166.811 27.0817 166.774 27.1452C166.72 27.2404 166.362 26.9548 166.362 26.8233L166.38 24.602L165.251 24.4434C165.111 24.4252 164.825 24.185 164.766 24.049C164.694 23.8767 165.061 23.5095 165.251 23.4959L166.434 23.4053L166.811 21.4786C167.3 22.1586 167.205 22.7842 167.25 23.4053L168.724 23.6455C168.293 24.1623 167.862 24.2484 167.259 24.466L167.006 26.7191L167.015 26.7145Z" fill="#B5182F"/>
<path d="M169.245 39.8248C168.32 39.9245 167.599 39.6525 167.133 39.036C166.67 38.4285 166.802 37.6035 167.228 36.8645C167.59 36.2389 168.202 35.7675 168.882 35.7675C170.242 35.7675 171.271 37.744 170.841 38.841C170.628 39.385 169.97 39.7477 169.24 39.8248H169.245ZM170.26 38.8229C170.6 38.0341 170.052 36.4157 169.064 36.4384C167.926 36.4656 167.182 38.0613 167.568 38.7821C168.098 39.784 169.998 39.4349 170.26 38.8229Z" fill="#B5182F"/>
<path d="M159.539 15.9662C159.249 15.0097 159.29 13.9443 159.276 13.0286L157.613 12.7294C158.129 12.0313 158.601 12.267 159.326 12.1945L159.616 9.90066C159.625 9.82812 159.734 9.60599 159.752 9.55613C159.78 9.47906 160.088 9.67853 160.088 9.76466L160.038 12.1401C160.75 12.2308 161.208 12.2852 161.829 12.5617C161.226 12.8835 160.704 12.9334 160.065 12.9742C159.671 13.8899 160.396 14.9553 159.544 15.9707L159.539 15.9662Z" fill="#B5182F"/>
<path d="M182.813 30.1236C182.804 30.3049 182.487 30.7265 182.364 30.6449C182.242 30.5633 182.074 30.2505 182.079 30.0828L182.097 28.3511L181.054 27.8615L182.16 27.6439L182.328 25.8759C182.337 25.7852 182.487 25.554 182.537 25.4815C182.586 25.409 182.813 25.7626 182.818 25.8623L182.89 27.6665C183.847 28.0156 184.046 27.6393 184.368 28.3239C184.418 28.4281 184.051 28.5687 183.924 28.5641L182.89 28.5369L182.818 30.1326L182.813 30.1236Z" fill="#B5182F"/>
<path d="M159.444 44.0271C159.435 44.2039 158.891 44.5666 158.887 44.4215C158.855 43.3698 158.927 42.5221 159.009 41.5746L158.048 41.2618L159.027 40.8402L159.381 39.0269C159.589 39.6525 159.598 40.0832 159.621 40.7858L160.691 40.9399C160.763 40.949 160.922 41.0805 160.976 41.1349C161.053 41.2119 160.804 41.5157 160.691 41.5202L159.566 41.5701L159.435 44.0271H159.444Z" fill="#B5182F"/>
<path d="M234.198 122.638L239.479 122.394L251.134 121.714L260.826 121.918C263.156 121.968 265.328 120.725 264.122 120.363C263.084 120.05 261.928 119.864 260.835 119.891C259.022 119.932 257.345 119.891 255.545 119.787C250.073 119.452 244.787 119.928 239.307 120.304C232.597 120.766 226.083 120.852 219.397 120.934C217.171 120.961 215.036 121.07 212.86 121.274C212.814 121.274 212.624 121.247 212.628 121.201L212.656 120.934C212.796 119.488 212.692 118.114 212.678 116.646L212.56 104.469C212.538 102.103 212.47 99.9223 212.22 97.5877C211.976 95.2848 211.944 93.0045 211.889 90.6654L211.699 82.4465L211.472 76.3085L211.341 69.5403C211.287 66.6753 210.811 64.7623 209.247 62.4322C208.639 61.53 208.068 60.7141 207.356 59.8618C204.822 56.8154 205.384 57.985 205.035 53.692C205.593 53.4518 206.445 53.2704 206.744 52.8806C207.791 51.5025 207.03 49.6302 205.647 48.9004C205.126 48.6284 204.636 48.302 204.138 48.1297L200.933 47.0009C198.099 46.0036 193.14 44.8521 190.234 44.9745C190.157 44.9745 189.885 44.7388 189.962 44.7388L190.601 42.2727C190.615 42.2183 190.61 41.9599 190.615 41.8965L190.628 41.6154C190.628 41.5519 190.638 41.3751 190.656 41.2935C191.304 38.161 187.151 37.3133 184.821 37.1773L181.834 37.0051C179.096 36.8464 177.065 36.6379 174.807 38.6914C174.209 39.2354 173.973 40.2191 174.028 41.0533L174.223 43.9999C174.223 44.0679 174.223 44.3172 174.218 44.3716C174.218 44.4215 174.141 44.3943 173.973 44.3988L171.194 44.562C169.617 44.6527 168.556 44.3626 167.092 44.8658C165.324 45.4777 159.884 45.9401 157.613 46.4569C156.171 46.7833 154.739 47.5585 153.678 48.6057C152.884 49.3945 152.517 50.6638 152.295 51.7019C151.892 53.6195 154.086 53.479 154.29 54.0501C152.952 58.5381 152.739 57.16 152 57.8944C150.917 58.9687 149.747 60.1066 149.172 61.5346C148.057 64.2908 148.51 67.9899 148.256 71.2947C147.93 75.5288 147.635 79.6722 147.735 83.9244L147.902 91.164C147.984 94.7136 147.871 98.118 148.038 101.677C148.165 104.392 148.193 107.017 147.998 109.723L147.54 116.129L148.052 120.939L138.786 120.948L127.321 120.744L128.577 107.602L129.157 101.024C129.262 96.0418 130.087 91.2637 130.409 86.2953L131.152 74.8397L131.506 65.9273C131.637 62.6634 131.927 59.5218 132.303 56.2714C132.743 52.4816 133.559 48.8414 133.677 45.0108C133.75 42.6762 133.745 40.5093 134.103 38.22C134.493 35.7085 134.724 33.2651 134.869 30.7129C134.933 29.6113 134.77 28.5143 134.665 27.4399C134.493 25.6946 133.668 24.3119 132.145 23.4506C130.626 22.5938 129.044 22.0045 127.362 21.5013L123.468 20.3362C119.139 19.0443 115.358 19.0216 110.439 17.7432C107.339 16.9363 104.315 16.7459 101.096 16.7187L91.1005 16.6371C89.5411 16.6235 88.027 16.8411 86.4766 16.9816L80.7284 17.5029L76.7391 17.9472C74.8578 18.1557 72.9811 18.1784 71.1496 18.668L63.57 20.7125C62.1602 21.0933 56.6613 21.5557 57.0149 25.146C57.3413 28.4463 57.6858 31.6649 58.189 34.9832C58.8191 39.1402 59.4039 43.1023 59.7893 47.2956L60.8772 59.0957L62.2962 70.6283C62.5591 72.7725 62.9399 74.7309 63.2889 76.8525L65.3017 89.1467C65.7278 91.7488 66.1404 94.156 66.562 96.7671L68.3617 107.914L70.1795 118.953L69.9347 119.143C66.4804 118.871 63.1801 118.658 59.7213 118.636L48.0209 118.563L38.1565 118.527L29.2804 117.874C26.0028 117.634 22.8749 117.484 19.5928 117.525C17.1494 117.557 14.7966 117.525 12.3804 117.33C9.59693 117.108 6.9495 117.14 4.14341 117.23L-6.17431 117.566C-6.80444 117.588 -7.46176 117.974 -7.35296 118.599L4.3066 118.744L10.0684 118.763C16.7278 119.406 22.3943 118.867 29.1308 119.592C25.9258 124.733 23.3509 129.923 20.8213 135.323L14.8283 148.115L9.71933 147.707C6.51884 147.449 3.44075 147.227 0.240263 147.304C-0.0906659 147.313 -0.52586 147.83 -0.494127 148.093C-0.462394 148.369 -0.0453332 148.75 0.276529 148.795C1.50958 148.963 2.59303 149.108 3.82608 149.208L13.4955 149.988C13.627 149.997 13.8355 150.001 13.8174 150.065C13.7993 150.128 13.7449 150.368 13.7131 150.432L10.8164 156.321L7.84255 161.951L-0.630125 177.926L-3.48155 183.647C-4.04821 184.781 -4.837 184.096 -4.89593 184.898C-4.91406 185.116 -4.67833 185.456 -4.46527 185.723L-6.96763 191.213L-6.6639 191.571C-4.6194 190.307 -3.51328 187.972 -2.4661 185.882L4.65113 185.787C10.1953 185.714 15.5763 185.61 21.1024 185.9L27.6711 186.24L47.0236 186.335L58.4293 185.941L55.8544 191.671C55.5779 192.288 55.4283 192.94 55.4963 193.616C56.217 193.593 56.8698 193.126 57.2098 192.464C58.3205 190.32 59.2951 188.144 60.2834 185.896L68.9057 185.719L90.7016 185.61L102.905 185.819L111.55 185.923L123.699 186.227L131.333 186.499L131.215 189.45C131.197 189.935 131.356 193.643 132.376 193.534C132.498 193.521 132.775 193.312 132.843 193.199C134.094 191.1 132.43 189.015 132.866 186.576L150.387 186.603L160.414 186.363L165.863 186.499L188.108 186.58L196.635 186.644L197.075 190.03C197.202 191.005 197.805 194.863 199.083 194.677C199.332 194.64 199.722 194.074 199.663 193.815L198.847 190.134L198.389 186.694L206.091 186.544L213.494 186.231L231.877 186.1L236.269 185.914L249.148 185.587C251.859 185.519 254.448 185.121 257.163 185.157C257.549 186.122 258.709 190.556 260.105 190.071C260.686 189.871 260.794 189.046 260.599 188.502L259.489 185.42C259.471 185.365 259.439 185.116 259.439 185.111C259.439 185.107 259.652 185.03 259.738 185.016L263.27 184.486C263.668 184.427 263.981 184.363 264.176 183.965C262.413 183.747 261.012 183.792 259.298 183.865C259.099 183.874 258.845 183.502 258.759 183.312L256.646 178.47L251.655 167.522C248.931 161.548 246.27 155.731 243.971 149.525L258.491 149.24C259.534 149.217 260.459 149.208 261.388 149.04C261.461 148.115 260.386 147.961 260.01 147.952L252.585 147.907C249.497 147.889 246.51 147.789 243.391 147.998L239.366 137.118C237.956 133.31 234.751 126.691 233.785 122.811C233.762 122.711 234.021 122.657 234.17 122.652L234.198 122.638ZM207.927 78.7746C209.682 78.6567 208.757 83.1719 208.798 84.083L209.179 92.3019L209.315 96.4181L209.641 104.469C209.741 106.885 209.673 109.265 209.845 111.659L210.303 118.096C210.393 119.361 210.806 122.344 209.913 123.019C208.548 124.057 205.96 122.167 204.7 121.242C203.648 120.472 202.41 120.005 201.535 119.084C198.004 115.367 196.893 113.354 194.94 108.535C193.915 106.01 192.963 101.309 193.176 98.5623C193.598 93.2538 193.979 93.612 196.018 89.3326L197.619 85.978C199.509 82.0159 203.421 79.0647 207.923 78.7655L207.927 78.7746ZM153.569 118.812C153.107 113.916 152.821 109.166 153.084 104.197C153.75 103.83 156.457 104.691 156.597 105.312L157.241 108.164C157.921 111.165 158.519 114.116 159.566 116.963L159.376 111.695L159.367 107.402C159.367 107.185 159.435 106.795 159.539 106.654C160.006 106.029 162.06 106.885 162.708 107.321L162.908 113.667C162.957 115.29 163.048 116.763 163.302 118.45C163.878 122.249 163.778 125.93 163.533 129.665C163.52 129.869 163.379 130.295 163.229 130.381C163.048 130.49 160.029 130.409 159.453 129.679C158.819 125.934 158.75 123.636 157.336 119.914C157.517 122.19 157.617 124.456 157.418 126.832C157.372 127.358 156.955 127.879 156.42 127.924C155.509 128.006 154.593 127.779 153.8 127.294C153.909 124.397 153.836 121.687 153.564 118.812H153.569ZM160.845 76.6893C160.922 75.5469 162.599 75.1026 163.506 75.3202C164.784 75.624 165.55 76.3448 166.298 77.2786C167.722 79.0511 168.334 81.15 168.257 83.4484C168.184 85.5836 167.876 87.6507 166.77 89.4686C169.322 89.396 169.635 93.0045 169.884 94.768C170.093 96.2413 171.049 100.942 168.638 100.389C167.885 100.217 167.382 100.144 166.403 100.031L166.344 97.9548L166.126 94.0472C166.117 93.884 165.895 93.5485 165.782 93.4578C165.65 93.3491 165.26 93.3672 165.106 93.4488L165.705 98.2586C165.736 98.526 165.641 99.0564 165.487 99.2332C165.333 99.41 164.852 99.5143 164.594 99.5098L162.722 99.4644C162.345 99.4554 162.386 98.4444 162.345 98.0682L161.588 91.3997C161.167 87.6961 161.035 84.0831 161.094 80.334C161.112 79.1282 160.768 77.8906 160.845 76.6984V76.6893ZM158.32 58.4792C157.626 58.325 156.815 58.3522 156.42 57.5317L160.382 58.6741C163.347 59.5263 174.576 60.4466 178.021 60.5055C179.667 60.5327 181.285 60.4647 182.945 60.3967L186.893 60.2381C189.051 60.1519 191.141 59.9479 193.303 59.7122C194.785 59.549 196.232 59.0594 197.687 58.7511L202.95 57.6269C202.932 57.8581 202.515 58.1981 202.229 58.2616L196.88 59.4901C192.764 60.4375 188.679 60.705 184.418 60.8364C179.925 60.977 175.573 61.1039 171.117 60.6415L166.906 60.2018C165.12 60.0159 163.393 59.6125 161.625 59.2181L158.315 58.4792H158.32ZM158.932 65.1975C158.751 65.3108 158.084 65.2201 158.021 64.9889C157.663 63.7105 158.021 61.4484 159.372 61.6932C159.916 61.793 160.786 64.0369 158.927 65.1975H158.932ZM156.266 64.7033C155.31 64.5084 155.523 62.4956 156.094 61.5482C156.366 61.0948 156.91 60.977 157.336 61.2263C158.252 62.7042 157.051 64.8665 156.266 64.7033ZM201.3 65.2473L201.331 65.61C201.336 65.6825 201.173 65.7777 201.105 65.7777C200.996 65.7732 200.769 65.5284 200.747 65.4015L200.153 62.5682C200.457 62.2146 201.25 61.9018 201.644 62.0378C202.46 62.3188 202.32 63.1983 202.075 63.7604C202.827 64.0777 203.471 64.8303 202.905 65.7142C202.469 65.5057 202.596 64.3724 202.043 64.3044C201.848 64.2817 201.399 64.3044 201.3 64.454C201.205 64.6081 201.286 65.0207 201.304 65.2473H201.3ZM198.793 64.3951L199.704 64.2319C199.763 64.2228 199.935 64.4313 199.885 64.4631L199.564 64.658L198.915 65.0479C198.748 65.1476 198.929 65.7958 198.997 65.8185L200.416 65.5465C200.298 66.3942 198.906 66.7252 198.571 66.163C198.108 65.3788 197.995 64.1548 198.018 63.2255C198.031 62.686 199.047 62.278 199.509 62.7359L198.616 63.2799L198.793 64.3905V64.3951ZM195.452 67.0878L194.921 64.1321C194.899 64.0143 195.144 63.6153 195.216 63.6833C195.289 63.7513 195.474 63.9508 195.502 64.0415L195.783 65.0252L196.925 64.6263C196.803 64.0324 196.621 63.6561 196.88 63.1711C197.256 64.0596 197.981 65.9953 197.746 66.8113C197.723 66.8929 197.433 66.6934 197.41 66.6164L197.048 65.4468L195.964 65.7142C195.787 66.2537 196.336 66.7206 195.447 67.0833L195.452 67.0878ZM186.118 119.982C185.356 119.705 183.416 120.304 182.704 118.976C181.965 117.588 181.952 116.024 181.866 114.483L181.612 109.864L181.426 108.372C182.07 107.924 184.146 107.883 184.744 107.951C184.948 107.973 185.143 108.467 185.166 108.685L185.601 112.683C185.687 113.454 185.837 115.739 186.335 116.07C187.115 116.582 187.129 114.075 187.038 113.35L186.403 108.186C186.249 106.944 188.271 107.026 189.123 107.153C189.436 107.198 189.658 107.928 189.695 108.254L190.325 113.998C190.506 115.657 190.56 117.271 190.864 118.926C191.376 121.709 191.558 124.411 191.086 127.208C190.778 129.035 189.867 130.626 188.366 131.782C187.26 132.634 184.722 133.292 183.711 132.516C183.489 132.349 183.316 131.759 183.343 131.429L183.593 128.808C184.259 127.797 186.299 129.053 186.512 126.909C186.739 124.615 186.471 122.321 186.104 119.987L186.118 119.982ZM170.401 132.666C169.78 132.48 169.444 132.498 168.429 132.535L168.755 128.455C168.805 127.852 169.005 123.178 167.631 124.221C167.735 126.582 167.744 128.94 167.649 131.306C167.636 131.596 167.264 132.104 167.001 132.072C165.337 131.877 164.571 132.045 164.594 131.138C164.657 128.033 164.825 125.023 164.666 121.877L164.118 111.038C164.063 109.95 164.036 108.934 164.381 107.883C165.142 107.171 168.307 108.712 168.946 109.225C170.224 110.245 170.773 111.795 171.19 113.3C172.01 116.242 171.367 118.413 169.739 120.88C172.523 121.954 171.847 126.265 171.806 128.949C171.793 129.96 172.142 133.192 170.396 132.666H170.401ZM171.539 100.525L171.648 95.9965C171.698 93.8976 171.503 91.9301 171.285 89.8448L170.718 84.4094C170.641 83.6615 170.85 82.7276 170.913 82.0159C170.437 81.9841 169.871 81.9388 169.49 81.7393C169.159 81.5671 168.828 80.9007 168.823 80.47L168.81 77.3511C168.81 76.9114 169.372 76.6938 169.753 76.721C171.96 76.8978 173.964 76.9704 176.258 77.0066C176.661 78.0039 176.77 79.0557 176.893 80.1935C176.938 80.6468 177.364 81.694 176.63 81.8889C175.986 82.0567 175.188 81.9569 174.313 81.9615C174.422 83.6433 174.567 85.307 174.78 87.0342L175.528 93.1541C175.7 94.5549 175.583 95.9738 175.655 97.4109C175.719 98.6303 175.755 99.9223 175.456 101.155C174.653 101.776 173.552 101.545 172.668 101.495C172.078 101.464 171.525 101.214 171.543 100.521L171.539 100.525ZM169.431 65.2383C169.907 65.3335 170.383 65.1793 170.678 65.7686L169.272 65.619C169.168 65.7958 169.05 66.4532 169.077 66.6889L170.478 66.775L171.752 64.2545C171.874 64.0143 172.432 63.7513 172.668 63.7967C173.855 64.0052 174.164 68.1395 173.665 67.6635C173.153 67.1694 173.384 67.0833 173.135 66.3217L171.824 66.027C171.598 66.4305 171.308 67.2193 170.954 67.2057C169.911 66.9246 169.803 67.6273 168.968 67.31C168.216 67.0244 168.71 65.0116 168.882 64.2409C169.018 63.6153 170.396 63.57 170.551 64.2183L169.639 64.4812C169.435 64.5401 169.413 65.0207 169.431 65.2337V65.2383ZM176.389 66.5121C175.777 65.9681 174.644 66.562 174.277 65.8774C174.164 65.6689 174.25 65.1204 174.422 64.9164C174.893 64.3633 176.308 64.0641 176.757 64.8303C177.083 65.3833 175.002 64.726 174.744 65.5601L176.195 65.8593C176.752 65.9726 177.196 66.562 176.816 67.1921C176.417 67.8539 175.678 68.2257 174.889 68.1985C174.594 68.1894 174.173 67.7814 174.105 67.5774L175.8 67.3916C176.081 67.3598 176.593 66.6934 176.389 66.5121ZM173.094 111.895C173.252 110.857 173.669 109.778 174.449 109.098C175.12 108.513 178.221 108.413 179.558 110.167C180.619 111.555 181.081 113.255 180.918 115.023C180.805 116.26 179.381 115.208 177.65 115.816C177.169 114.782 177.487 113.994 176.938 112.747C176.022 112.371 175.981 119.529 175.986 119.574L176.471 126.247C176.562 127.525 177.559 128.949 178.652 128.514C179.477 128.187 179.617 126.886 179.517 125.934C179.146 125.744 177.5 126.351 177.536 125.649L177.659 123.033C179.196 122.638 180.51 122.72 181.979 123.192C182.387 124.375 182.473 125.549 182.5 126.805L182.573 130.259L182.641 132.081C181.027 132.707 178.384 132.965 176.72 132.625C174.984 132.267 174.041 130.907 173.837 129.271L173.488 126.46C173.048 122.901 172.618 119.42 172.649 115.825C172.663 114.501 172.899 113.191 173.094 111.895ZM181.34 77.8362L183.402 84.7766L184.468 76.9069C184.536 76.4082 184.599 75.7328 185.275 75.6829C186.267 75.6149 187.31 75.8098 188.303 76.1362C188.353 76.576 188.366 77.1154 188.28 77.5325C187.523 81.218 187.274 84.7993 186.766 88.5257L185.506 97.7327L185.143 101.074C185.125 101.223 184.767 101.55 184.64 101.523C184.486 101.491 184.2 101.26 184.146 101.096C183.81 100.131 183.416 99.1562 183.121 98.1362L182.029 94.3237L179.218 84.482C178.484 81.9116 177.7 79.5588 177.233 76.8026C178.389 76.6032 179.422 76.4717 180.424 76.4354C181.24 76.4082 181.195 77.3239 181.344 77.8317L181.34 77.8362ZM180.624 65.2383C180.964 64.9572 181.589 64.5809 181.979 64.5356C182.591 64.4676 182.673 65.2337 182.854 65.6553C183.026 66.0497 183.602 66.4849 183.416 67.0516C183.04 68.203 181.616 68.6609 180.66 67.8993C180.537 67.1332 180.551 66.0678 180.619 65.2337L180.624 65.2383ZM185.193 65.9772C185.37 66.639 184.2 65.8321 184.459 67.6862L185.519 67.7723C185.311 68.1622 185.062 68.3526 184.835 68.4206C184.59 68.4977 183.865 68.3254 183.819 68.067C183.774 67.0652 183.742 65.9137 183.801 64.9209C183.838 64.3225 185.098 64.3089 185.347 64.6897C185.646 65.1431 184.427 64.8575 184.45 65.4558C184.459 65.7686 184.713 65.8457 185.193 65.9772ZM186.648 67.8131C186.775 67.9945 187.251 67.6636 187.301 67.446C187.387 67.0742 187.228 66.6844 186.784 66.4033C186.644 66.2854 187.129 65.9001 187.324 65.9409C187.89 66.0678 188.19 67.1921 187.682 68.0035C187.51 68.2755 186.725 68.5747 186.462 68.2846C185.578 67.3236 185.497 65.8185 185.995 64.6535C186.154 64.2863 186.789 64.1049 187.133 64.1457C187.541 64.1956 187.84 64.5039 187.908 65.0615L186.707 64.8892C186.227 65.687 186.059 66.9473 186.657 67.8041L186.648 67.8131ZM188.788 64.3316C188.865 64.2591 189.105 64.6263 189.11 64.7441L189.196 67.3825C189.196 67.5049 189.019 67.7995 188.969 67.8857C188.511 68.6291 188.185 64.8937 188.783 64.3316H188.788ZM190.098 65.2564C190.098 66.2945 190.157 67.0697 189.835 67.9945C189.522 66.6889 189.522 65.7188 189.581 64.3679C189.867 64.454 190.261 64.6263 190.402 64.7895L192.12 66.7932C191.97 65.9001 191.893 65.1748 191.848 64.3769C192.115 64.2817 192.138 64.25 192.174 64.2908C192.229 64.3543 192.378 64.6127 192.392 64.7033L192.818 67.31C192.836 67.4278 192.741 67.7225 192.682 67.7995C192.605 67.9038 192.22 67.7769 192.124 67.6635L190.103 65.2609L190.098 65.2564ZM167.287 66.8476C167.133 66.979 166.661 67.0924 166.466 67.0244C165.464 66.6708 166.144 64.3225 166.389 63.434L167.672 63.4068C168.307 63.3932 169 65.3425 167.282 66.8476H167.287ZM165.274 66.3897C164.58 67.523 164.957 62.8946 165.782 63.0714C165.99 63.7649 165.564 65.9137 165.274 66.3897ZM160.972 62.4231C161.185 62.0242 162.105 62.133 162.463 62.3596C162.853 62.6044 163.225 63.1258 163.284 63.7015C163.352 64.3633 163.166 65.0705 162.495 65.4105C161.919 65.7052 160.609 65.6326 160.36 64.93C160.178 64.2183 160.609 63.1122 160.976 62.4186L160.972 62.4231ZM160.305 135.821L163.615 136.8C164.521 137.068 165.501 137.363 166.443 137.426L170.464 137.689C173.629 137.893 176.657 138.188 179.803 138.138L184.921 138.061L188.543 137.956C191.775 137.866 194.867 137.494 197.809 136.129C199.736 135.907 201.572 135.749 203.458 135.304L206.363 134.615C206.708 136.193 205.887 137.648 204.333 138.142C203.172 138.509 201.966 138.967 200.742 139.126L193.453 140.06L188.888 140.332C184.314 140.604 179.839 140.98 175.215 140.64C173.257 140.495 171.453 140.205 169.463 140.205C168.687 140.205 167.826 139.856 167.069 139.674C165.791 139.366 164.539 139.357 163.211 139.253C161.942 139.153 160.741 138.818 159.471 138.559C157.749 138.21 157.323 136.664 157.273 135.087C158.401 135.227 159.299 135.531 160.305 135.826V135.821ZM205.579 63.91C205.552 64.4177 205.235 64.7668 204.94 64.8575C204.518 64.9889 203.721 65.0207 203.544 64.6671C203.122 63.8329 202.941 62.8628 203.027 61.938C203.072 61.453 204.038 61.1175 204.487 61.2716C204.713 61.6706 203.557 61.8292 203.557 62.2055C203.557 62.3778 203.662 62.8266 203.702 62.89C204.269 62.6815 204.65 62.3823 204.99 62.8084C204.854 63.0124 204.251 63.3116 203.852 63.4385C203.643 63.5065 203.702 64.2364 203.915 64.3588C204.41 64.5492 204.954 64.1503 205.575 63.91H205.579ZM196.327 46.7607C197.347 47.0281 198.362 47.2004 199.346 47.5177L203.086 48.7281C204.16 49.0772 205.049 49.4398 206.01 50.2694C205.457 50.6094 204.967 50.8225 204.405 50.9494C202.991 51.2667 201.717 51.7019 200.316 52.1054C198.838 52.5315 197.224 52.4182 195.701 52.6222C193.815 52.8715 191.975 53.0256 190.08 53.071C190.42 52.0736 190.588 51.235 190.57 50.2377C190.551 49.0908 189.772 48.2249 188.715 48.039L189.744 45.65C191.97 45.7543 194.155 46.1895 196.322 46.7607H196.327ZM174.943 43.1748C175.002 42.037 174.952 40.6679 175.796 39.8248C177.246 38.365 179.318 38.3922 181.249 38.5056C183.665 38.6506 185.986 38.6506 188.384 38.9272C189.024 38.9997 189.676 39.7794 189.604 40.3687C189.25 43.2519 189.25 45.8313 187.532 47.9166C186.979 48.5921 186.245 49.0092 185.515 49.6302C180.959 50.5187 181.39 50.2603 177.627 49.3174C176.621 49.0636 176.172 48.447 175.791 47.5721C175.175 46.1487 174.857 44.7796 174.943 43.1748ZM174.372 45.2193L174.803 47.8396L172.844 47.971L172.631 46.9465L174.155 46.5612C173.778 46.1305 173.175 46.2167 172.545 46.2711C172.373 46.0716 172.133 45.6953 171.942 45.3689L174.372 45.2193ZM167.173 45.9356C167.654 45.3236 168.52 44.8839 169.476 44.9111C170.487 44.9383 171.466 45.3825 171.761 46.4479C171.97 47.2049 172.042 48.5649 171.276 49.1905C170.841 49.5441 167.599 50.6955 166.87 48.6238C166.552 47.7217 166.548 46.7289 167.173 45.9311V45.9356ZM158.284 47.3409L163.098 46.5385L166.416 45.9084L166.108 46.9239C162.948 47.1052 159.952 47.6809 156.946 48.6646C156.361 48.855 155.654 48.8052 155.477 49.6619C156.688 49.8342 157.762 48.8822 160.083 48.447L166.099 47.3182C166.099 48.8505 166.675 50.1243 167.921 50.8089L166.425 53.012L161.489 52.2504C160.287 52.0646 159.195 51.6929 157.98 51.6385C156.516 51.575 155.233 51.1942 153.932 50.4553C153.75 49.0046 157.227 47.5177 158.279 47.3409H158.284ZM154.077 53.0528L153.895 51.8651C155.645 52.6448 157.255 52.7219 159.131 52.8307C160.169 52.8896 161.235 53.3611 162.286 53.5288L169.943 54.7301C172.958 55.2016 175.968 54.8117 178.992 54.8389C180.891 54.8571 182.641 54.8661 184.504 54.6893L191.168 54.0683L195.769 53.5787C197.297 53.4155 198.793 53.3112 200.298 53.012C201.186 52.8352 202.07 52.459 202.932 52.2323L205.883 51.4617C205.806 51.7382 205.634 52.2278 205.484 52.5406L201.191 53.9822C199.387 54.5896 197.646 54.7029 195.774 55.0293C191.535 55.7728 187.419 56.5797 183.13 57.0013C180.302 57.2778 176.331 57.0648 173.42 56.82C169.295 56.4709 165.324 55.9269 161.325 54.9477L157.862 54.1C156.615 53.7963 155.387 53.4699 154.081 53.0483L154.077 53.0528ZM153.066 61.9743C153.143 61.4394 153.578 60.8727 153.945 60.7367C154.539 60.5191 155.287 60.4149 155.586 61.1039C155.065 61.19 154.353 61.2218 154.077 61.4394C153.351 62.006 153.46 63.017 153.904 63.7332C154.077 63.7105 154.426 63.4159 154.426 63.2436C154.426 63.0759 154.29 62.6543 154.213 62.4412C154.172 62.3324 154.525 62.1375 154.603 62.2055C155.174 62.7087 154.902 63.7287 154.589 64.1231C154.462 64.2817 154.04 64.3815 153.864 64.318C153.156 64.0732 152.966 62.6951 153.07 61.9698L153.066 61.9743ZM152.957 79.3413C153.102 77.9087 153.034 76.5352 153.982 75.3338C154.503 74.6765 155.409 73.9195 156.248 73.6792C158.488 73.04 159.97 76.9386 160.319 78.6431C160.097 79.1418 158.356 80.4519 158.039 80.529C157.576 80.6423 157.264 78.9877 156.47 78.5525C155.904 79.4636 155.89 80.2162 155.681 81.1364C155.115 83.6479 155.491 86.2454 155.849 88.8611C156.099 90.6835 156.47 92.3653 157.595 93.8069C158.642 92.7008 158.211 90.3752 159.335 91.2909L160.985 92.6283C161.416 92.9773 160.981 93.8976 160.904 94.369C160.659 95.933 160.188 98.4671 158.193 98.6167C157.359 98.6802 156.439 98.4308 155.981 97.7373C154.843 96.0055 154.467 94.1152 153.927 92.1795C152.758 87.959 152.504 83.7204 152.948 79.3503L152.957 79.3413ZM134.452 146.52L134.797 140.273C135.11 134.643 135.295 129.171 135.2 123.541C135.2 123.296 135.318 122.806 135.504 122.706H148.174L148.909 125.513C149.389 127.344 151.583 129.774 152.35 131.406C152.975 132.739 154.938 134.085 156.207 134.797C156.321 135.848 156.434 137.045 156.91 137.979C157.517 139.167 158.619 139.416 159.793 139.679C161.656 140.096 163.433 140.232 165.315 140.495L169.245 141.039L174.835 141.51C179.631 141.918 184.368 141.411 189.259 141.928L190.388 148.727L175.229 148.75L168.139 148.954L155.609 149.027L149.575 149.262L135.504 149.349L134.266 149.367L134.448 146.529L134.452 146.52ZM58.8191 23.6999C58.9189 23.3463 59.5445 23.0063 59.8709 22.8522C61.6796 22.0045 63.5292 21.6872 65.5012 21.4106C68.0126 21.0616 70.3563 20.4904 72.7136 19.62C76.313 18.7405 79.849 18.7496 83.5345 18.5229L89.9446 18.1331L100.951 17.8973C103.698 17.8384 106.31 18.3461 109.007 18.7043L115.267 19.5248C117.425 19.8104 119.443 20.2546 121.537 20.853L126.279 22.2085C127.843 22.6573 132.575 24.2303 132.911 25.953C132.979 26.2975 132.539 27.1135 132.199 27.2449L130.409 27.934L127.738 28.8814L124.973 29.7564C121.9 30.731 118.908 31.5425 115.671 31.7465L109.265 32.1545L100.552 32.8299C98.4444 32.9931 96.3455 33.2425 94.2104 33.1745L85.8329 32.9115C82.5327 32.8073 76.44 32.1137 73.4027 31.0982C66.8566 28.9086 64.454 30.2278 59.2317 25.7535C58.7783 25.3682 58.6605 24.2348 58.8146 23.6954L58.8191 23.6999ZM120.503 109.311C120.399 108.363 120.707 107.244 120.889 106.296C121.179 104.809 121.306 103.395 121.46 101.899C121.673 99.8452 122.026 97.8461 122.049 95.7607C122.076 93.0725 122.072 90.5022 122.502 87.8502C122.779 86.1457 122.797 84.5092 122.951 82.7956L123.432 77.4509C123.486 76.8389 123.604 76.2541 123.949 75.7373C124.325 75.973 124.592 76.449 124.601 76.857C124.688 82.6279 124.697 83.1537 123.604 88.7024C123.201 90.7379 123.332 92.7144 123.178 94.7861L122.276 106.917C122.19 108.046 122.135 109.143 121.337 109.614C121.165 109.714 120.531 109.533 120.508 109.311H120.503ZM120.744 116.029L120.023 119.878C119.95 120.272 119.56 120.653 119.157 120.689C119.266 118.277 119.501 116.029 119.81 113.617C119.841 113.382 120.213 113.037 120.417 113.042C121.31 113.055 120.875 115.308 120.739 116.024L120.744 116.029ZM120.957 62.8764C118.695 65.1567 117.122 68.0126 116.854 71.2992C116.709 73.0989 116.895 74.8805 116.904 76.7029L116.936 83.2807L116.695 94.4506C116.614 98.2903 116.623 101.958 116.954 105.779C117.076 107.18 117.026 108.499 116.904 109.9L115.984 120.395C115.721 123.382 115.898 126.27 116.011 129.266C116.034 129.928 115.793 130.499 115.027 130.576C114.683 126.374 114.624 122.312 114.814 118.105L115.304 107.262C115.444 104.193 115.295 101.287 115.417 98.2178L115.802 88.4033C115.92 85.3705 116.034 82.4556 115.952 79.4274L115.784 73.2757C115.739 71.6347 115.077 70.0345 114.238 68.6518C111.981 64.9345 107.008 64.5492 103.232 66.7886C101.731 67.6772 100.389 68.6609 99.265 69.9166C98.0455 71.2766 98.0138 74.0827 98.186 75.8824C98.458 78.8018 98.2676 81.6487 98.2042 84.5862L98.0364 92.1432L97.9775 104.256L98.1135 116.945L98.1226 125.64L97.9775 133.128C97.9775 133.274 97.6783 133.541 97.5514 133.55C97.3927 133.559 97.0754 133.255 97.0709 133.06L96.5541 114.814L96.5949 94.4552C96.5994 91.3635 96.2685 88.4758 96.3863 85.4022C96.5269 81.6215 96.6719 77.9767 96.5586 74.2096C96.5178 72.8949 96.1506 71.739 95.4842 70.6192C94.904 69.6446 94.4325 68.5974 93.5258 67.8403C91.6581 66.2809 89.1286 65.2247 86.6262 65.3879C85.2254 65.4785 83.8382 66.1721 82.6097 66.7796C81.354 67.4006 79.8762 69.3318 79.994 70.787C80.393 75.6557 80.597 80.3567 80.6151 85.23C80.6242 87.8411 80.9098 90.2347 81.1863 92.8005C81.4356 95.1034 81.4764 97.3791 81.5399 99.6911L81.7303 106.582L82.1111 115.961L82.3151 125.159L82.3649 130.517C81.9977 130.617 81.5036 130.54 81.2543 130.331C80.5788 129.765 80.7375 123.427 80.7284 122.045L80.6786 116.129L80.7148 109.719L80.3612 102.991L80.1346 97.2703L79.6314 86.7259L79.4636 81.1002C79.3684 77.8951 79.0965 74.808 78.7202 71.6211C78.5162 69.8577 78.0629 68.3027 77.4237 66.6798C76.3538 63.9553 74.4408 61.9698 71.7979 60.6914C70.3472 59.9887 68.9691 59.4538 67.2782 59.6261C66.766 59.6805 66.29 59.2951 66.2673 58.9007C66.2265 58.2253 66.571 57.976 67.1694 57.8445C68.6699 57.509 69.9982 57.7901 71.331 58.4656C74.5043 60.0658 77.1879 62.6498 78.5434 65.9681L79.4999 68.3163C80.1346 66.6118 81.5716 65.4921 83.2399 64.8983C85.8057 63.978 86.8347 63.4748 89.5819 64.3769C93.8613 65.7822 94.8405 67.319 97.089 70.9638C97.6964 69.9392 98.313 69.0417 99.206 68.3979L102.552 65.9862C105.598 63.7876 109.682 63.7332 112.824 65.7913C114.424 66.8385 115.24 68.4387 115.907 70.2248C115.934 70.5014 115.961 70.4923 116.102 70.2792C116.51 67.0108 117.901 64.3407 119.941 61.8972C121.229 60.3514 122.648 59.0413 124.814 58.8146C125.281 58.7647 125.98 59.0141 126.469 59.1773C127.335 59.4629 127.888 60.1565 127.534 61.1674C127.19 61.0948 126.723 60.9679 126.419 60.8319C124.121 59.7938 122.552 61.2716 120.948 62.89L120.957 62.8764ZM120.857 56.2397L114.107 57.9805C110.517 58.9053 106.967 59.4538 103.277 60.0023C97.157 60.918 91.4088 59.957 85.3252 59.005C82.2153 58.52 79.3412 57.645 76.3266 56.8653C73.4707 56.1264 70.9592 55.1109 68.4841 53.4971C67.8313 53.071 66.8974 52.9259 66.3806 52.3184C65.9636 51.8288 65.7278 51.1443 66.3444 50.7227C66.6254 50.9313 67.0289 51.4481 67.3372 51.6203C69.2865 52.7219 71.2176 53.7328 73.3256 54.4853L79.1418 56.5616C82.0657 57.6042 91.5131 59.3677 94.2104 59.2317L101.287 58.8826C106.758 58.6151 111.931 57.704 117.19 56.2805C120.848 55.2923 124.307 54.1544 127.439 51.7608C128.047 52.0918 128.047 52.5451 127.87 53.0483C127.462 54.2315 122.33 55.8499 120.852 56.2307L120.857 56.2397ZM72.6637 47.9121C73.4435 47.5222 74.3184 47.5222 75.1525 47.3137C77.2151 46.7924 79.3186 46.1124 81.4356 45.8449C82.0113 45.7543 82.5916 45.6817 83.1764 45.6273C84.627 45.4868 86.0867 45.4415 87.5419 45.4913C88.2627 45.5185 88.9971 45.6319 89.7179 45.6228C90.203 45.6183 90.6336 45.5412 90.9509 46.0489C91.1277 46.33 91.1731 47.1868 90.8013 47.2638C89.5547 47.5222 88.3806 47.3772 87.1385 47.3409C84.2916 47.2638 81.5671 47.69 78.7882 48.2702C77.5143 48.5377 76.2133 48.7417 74.9168 48.8596C74.2277 48.923 73.448 49.0182 72.7589 48.8868C71.9611 48.7326 71.9475 48.2702 72.6683 47.9076L72.6637 47.9121ZM94.8586 46.2257C94.5504 47.0327 93.5349 47.0553 92.9637 46.7697C92.796 46.6836 92.6328 46.2257 92.7371 46.0716C93.1768 45.4007 93.8024 45.4777 94.3645 45.4868C94.5866 45.4868 94.9538 45.9809 94.8586 46.2303V46.2257ZM96.1959 55.5643C96.6357 55.4781 98.1362 55.596 97.8642 56.3621C97.6284 57.033 95.2621 56.9106 94.6093 56.9786C94.1786 57.024 92.6147 57.0421 92.7325 56.2851C92.7914 55.9088 93.272 56.0493 93.5666 56.0357C94.4461 55.9904 95.3301 55.7365 96.1959 55.5688V55.5643ZM120.036 50.4643C119.855 49.9838 119.275 49.8161 118.772 49.7118C118.151 49.5803 117.53 49.4534 116.913 49.322C115.898 49.1089 114.687 49.3582 113.735 49.0092C113.486 48.9185 114.139 48.4108 114.229 48.3836C115.508 47.9982 117.43 48.5785 118.744 48.719C120.032 48.8596 121.247 49.0953 122.253 49.9974C124.361 51.8832 117.797 54.0501 116.605 54.3629C115.675 54.6077 114.719 54.7619 113.803 55.0565C112.194 55.5371 110.585 55.9768 108.921 56.2352C107.307 56.4845 105.689 56.4845 104.07 56.6296C103.431 56.6885 102.769 56.7474 102.157 56.557C101.94 56.489 101.704 56.3621 101.659 56.14C101.649 56.0901 101.645 56.0448 101.649 55.9995C101.713 55.2923 103.667 55.5733 104.088 55.5189L108.517 54.9387C112.058 54.4717 116.056 54.1408 119.071 52.0872C119.352 51.8968 119.642 51.6974 119.846 51.4254C120.05 51.1534 120.159 50.7817 120.036 50.4598V50.4643ZM127.738 49.0998L123.903 46.8151L121.41 45.8857C120.005 45.3599 118.858 45.0924 117.416 44.8522L113.935 44.2719L103.254 43.4378C100.906 43.2519 98.7119 42.8802 96.3455 42.9436C93.1904 43.0298 90.1304 42.9255 86.9707 43.2111C83.5073 43.5239 80.2071 44.1268 76.7845 44.6391C75.08 44.893 73.4797 45.3644 71.7979 45.7135C69.3409 46.2257 67.183 47.2865 65.1521 48.7961C63.9644 43.2655 64.3951 38.8954 63.0578 33.4691C62.8084 32.1499 62.6543 30.8761 62.5999 29.6022C63.9871 30.4046 65.1884 31.0076 66.63 31.3793L72.2693 32.8209C74.1416 33.2969 76.0002 33.4872 77.9269 33.7638C80.7375 34.1718 83.4484 34.3486 86.2862 34.4392L92.0707 34.616L100.294 34.3576L110.698 33.7547L115.888 32.9931C118.391 32.6259 120.889 32.5353 123.346 31.9369C124.824 31.5787 126.229 31.1526 127.652 30.663L129.738 29.9468C129.81 34.5526 128.976 38.9453 128.854 43.5103L128.677 50.0291C128.4 49.7345 128.056 49.2902 127.738 49.0998ZM69.2003 100.897L68.3073 95.5976C67.9401 93.4035 67.6771 91.3227 67.1785 89.1648C66.7025 87.1022 66.6209 85.0577 66.2492 82.9679L64.522 73.2621L63.5292 66.5212L62.6226 59.7349L61.7431 49.2721C61.5164 46.5884 61.3986 44.0316 60.8818 41.3842C59.957 36.6605 59.141 32.0502 58.7194 27.3129L61.0223 28.6412L62.278 36.3024C62.8175 39.5936 62.9716 42.8122 63.162 46.1396C63.2889 48.3337 63.6652 50.3827 63.9145 52.5587C64.2137 55.1563 64.3135 57.6722 64.5991 60.2789L65.6236 69.6537C65.9182 72.36 66.2492 74.8443 66.6708 77.5415L69.0099 92.456L69.7489 97.1434C70.6555 102.928 71.2675 101.813 71.331 108.735C71.3446 110 71.7254 111.165 71.9565 112.389L74.3819 125.245C74.5632 126.211 74.5949 127.407 75.284 128.133C76.3357 129.239 77.6911 129.937 78.9559 130.749C80.4791 131.728 82.0612 132.458 83.8382 132.816C86.3361 133.314 88.7251 133.623 91.2547 133.972C93.6845 134.303 95.9829 134.76 98.4354 134.933C100.312 135.069 102.144 134.702 104.025 134.674C106.169 134.647 108.209 134.171 110.254 133.518L113.622 132.444C115.159 131.954 116.514 131.283 117.91 130.495C119.569 129.561 121.161 128.672 122.407 127.208C122.865 126.669 123.364 125.966 123.405 125.236C123.59 121.732 123.949 118.382 124.61 114.941C124.969 113.078 125.109 111.283 125.372 109.406L126.088 104.238L126.886 99.4871C127.24 97.3746 127.199 95.2802 127.299 93.1269L127.72 83.9017L128.196 74.1053L129.107 64.8711C129.425 61.6615 129.311 58.5607 129.434 55.3467L129.688 48.6148C129.765 46.5793 129.783 44.6119 130.046 42.6218C130.191 41.5338 130.322 40.5047 130.386 39.3986C130.594 35.7222 131.356 33.2742 131.093 29.8652C131.052 29.3574 131.238 29.1126 131.651 28.9268L132.856 28.3873C132.834 28.3601 132.929 28.4825 132.988 28.5596C132.594 31.1299 132.213 33.5371 132.14 36.1165L131.882 45.5004C131.773 49.39 131.283 53.1344 130.894 56.9877L130.209 63.7241L129.633 72.1062L128.831 83.2852L127.494 98.6756L126.832 103.916C126.433 107.053 126.12 110.113 125.875 113.282L124.96 125.154L124.61 129.991L120.612 132.798L116.111 136.37L116.092 131.895C115.689 131.982 115.236 132.213 114.955 132.48L114.732 137.653L111.668 138.419L107.166 139.375C105.584 139.711 103.97 139.588 102.375 139.86L98.109 140.59C98.1679 139.951 98.1906 139.335 98.1543 138.664L97.9866 135.477C97.9775 135.332 97.8506 135.105 97.7463 135.023C97.6421 134.942 97.089 135.082 97.0845 135.259C97.0255 136.905 96.8986 139.121 97.1525 140.722C94.9629 139.947 92.5557 139.883 90.4432 139.244C88.9563 138.795 87.5782 138.328 86.055 138.052L82.5689 137.426C82.7321 135.848 82.5825 134.384 82.4103 132.748L81.0503 132.399L81.0322 136.683L79.7764 135.821C77.6821 134.384 75.701 132.934 73.5069 131.601C73.244 127.879 72.6003 124.334 72.0789 120.626L70.2294 107.461L69.2139 100.911L69.2003 100.897ZM19.4115 142.812L23.0834 135.164C25.3138 130.517 27.4036 125.952 29.906 121.455C30.2278 120.88 30.4228 120.299 30.6041 119.674L36.5744 120.186L42.4541 120.372L53.6286 120.304L64.3089 120.635L70.4606 121.02L71.816 131.397C71.8704 131.809 72.1787 132.385 72.4869 132.589L75.2613 134.443C75.9549 134.91 76.576 135.318 77.2967 135.885C76.4581 137.417 76.3674 138.949 75.8189 140.531L72.7408 149.38C71.1224 149.448 69.5585 149.208 67.9174 149.185L58.7194 149.072L54.2632 148.913L36.5427 148.895L29.634 148.505C26.4199 148.324 23.3146 148.442 20.1096 148.283L16.9499 148.125L19.4069 142.807L19.4115 142.812ZM59.2543 183.711L47.5449 184.187L31.7873 184.205L24.8378 183.869L17.3216 183.493C10.5308 183.117 5.27219 183.992 -1.68638 184.164L3.02822 174.898L9.57879 162.604L12.8201 156.452L15.9979 150.065C17.4304 150.038 18.9309 150.006 20.4405 150.065L27.0092 150.305C28.9585 150.378 30.8172 150.423 32.7483 150.645C34.48 150.844 36.0939 151.008 37.8664 151.017L55.7592 151.135L67.4369 151.416L71.9022 151.66L68.1259 160.913L65.6916 166.525C64.7487 168.706 63.9372 170.759 63.0985 173.076L59.2453 183.72L59.2543 183.711ZM132.294 155.555L132.04 161.14L131.787 166.888L131.555 170.478L131.447 178.384C131.419 180.379 131.265 182.296 131.32 184.305L119.198 183.856L110.313 183.634L99.1471 183.584L91.6264 183.375L67.7134 183.534L61.122 183.647L65.0161 172.649C65.7777 170.496 66.5892 168.524 67.5457 166.457C68.8241 163.692 69.9347 160.985 71.068 158.152L73.6656 151.651L78.6567 151.901L92.2384 151.973L98.9884 152.132L110.974 152.078L115.648 151.883L125.921 151.81L132.34 151.597L132.29 155.545L132.294 155.555ZM132.616 146.03L132.399 149.521L125.93 149.77L119.456 149.843L110.639 150.074L97.5786 150.015C95.8197 150.006 94.1741 149.879 92.4061 149.752L82.5417 149.684C79.8127 149.666 77.2741 149.648 74.3592 149.439L77.9495 138.6L78.5343 136.719L81.6305 138.618C84.219 139.248 86.7577 140.114 89.4323 140.49C92.3744 140.908 95.1805 141.121 97.9775 142.209C100.176 141.905 102.148 141.415 104.279 141.016L110.784 139.792C112.167 139.534 113.418 139.357 114.841 139.208C115.399 139.149 115.929 138.505 116.401 138.16L123.16 133.251L126.279 130.749C126.487 130.141 126.7 129.425 126.759 128.763L127.294 122.525L133.781 122.67C133.709 123.436 133.641 124.116 133.609 124.851L132.983 139.933L132.616 146.03ZM175.723 184.622C170.718 184.645 165.931 184.613 160.967 184.368C157.336 184.191 153.895 184.459 150.242 184.45L132.897 184.404C132.843 180.007 133.532 176.684 133.305 172.151L133.505 167.055L133.818 161.144L134.108 155.559L134.185 151.47C137.793 151.316 141.234 151.379 144.824 151.298L153.705 151.089L168.311 150.962L173.66 150.74L189.182 150.631L190.692 150.572L192.886 162.309C193.498 165.578 194.051 168.71 194.486 172.001C194.931 175.329 195.28 178.511 195.919 181.793C196.1 182.718 196.204 183.579 196.331 184.522L175.719 184.622H175.723ZM249.819 168.298L255.105 179.948L256.683 183.702L251.633 183.693C249.683 183.693 247.843 183.833 245.875 183.761C241.061 183.584 236.423 183.788 231.614 183.806L216.559 183.874L207.932 184.182L202.487 184.441C201.01 184.509 199.586 184.481 198.081 184.472L196.794 176.915C195.905 171.702 195.465 166.57 194.391 161.38C193.625 157.676 192.9 154.158 192.383 150.486L199.214 150.11L205.493 149.815L242.276 149.639C244.443 156.053 247.036 162.169 249.819 168.298ZM234.134 127.661L238.237 138.006C239.551 141.325 240.617 144.57 241.727 148.061L224.252 148.038L206.128 147.979L199.55 148.224L192.088 148.605L190.71 141.923L196.395 141.257L204.246 139.756C205.153 139.584 206.119 138.972 206.499 138.215C207.188 136.855 207.578 135.567 207.506 134.071L208.73 133.033C210.031 131.927 210.901 130.594 211.486 128.99C211.744 128.282 211.98 127.571 212.066 126.809L212.447 123.341C214.618 123.006 216.826 122.906 219.111 122.883L232.801 122.734L234.139 127.652L234.134 127.661Z" fill="#B5182F"/>
<path d="M87.5827 30.8217L78.6114 30.1508C77.0066 30.0329 75.4154 30.0782 73.856 29.7156C72.0835 29.3076 70.4016 28.7409 68.5929 28.5823C67.3508 28.4735 66.2673 28.2876 65.1612 27.7527C63.5972 27.0001 61.5708 26.7871 60.8818 25.554C60.3378 24.5839 61.0404 23.4415 61.9652 23.0607C64.0596 22.1949 66.6118 21.8594 68.8694 21.5421L71.3944 21.184L79.8898 20.2773C84.2644 19.8104 87.1883 19.9554 91.7443 19.5973C93.5213 19.4568 95.2168 19.5248 97.0074 19.493L104.56 19.3525C108.812 19.2709 115.417 20.3725 119.474 21.6509C120.521 21.9818 121.546 22.2357 122.616 22.4986L128.446 24.3618C129.135 24.5839 129.869 24.9375 130.282 25.545C130.739 26.2295 130.313 27.1951 129.593 27.4988C126.669 28.7364 126.211 28.3647 123.4 29.3484C121.886 29.6521 120.381 30.0148 118.849 30.1825L113.762 30.731C111.627 30.9622 109.519 30.9803 107.37 31.0801C105.086 31.0121 102.914 31.0347 100.629 31.0982C98.1815 31.1617 95.8423 30.9531 93.3989 30.9169L87.5873 30.8262L87.5827 30.8217ZM98.0772 30.1598C100.779 30.2732 103.245 30.1734 105.82 29.9422C107.76 29.7654 109.673 29.507 111.627 29.5524C116.306 29.6566 116.55 29.7926 121.22 28.9404C122.539 28.7001 123.713 28.4055 124.982 27.9612C126.233 27.5215 127.652 27.3039 128.795 26.6873C129.185 25.9983 128.391 25.3138 127.788 25.1279C126.65 24.7834 125.603 24.466 124.515 24.0716C120.367 22.5621 114.424 21.2429 109.982 21.0208L97.0119 20.3634C95.7245 20.3 94.5096 20.2546 93.2221 20.3453L84.9988 20.9528L74.6765 21.8957C71.1904 22.213 67.863 22.7661 64.4585 23.4823C63.3977 23.7045 62.473 23.9493 61.6434 24.8242C62.473 25.4362 63.3025 25.7626 64.2364 26.0164L68.4931 27.1724L71.8795 28.2015C73.5251 28.7001 75.1525 28.9132 76.857 29.167C79.7538 29.5977 82.5644 29.6476 85.4974 29.8244L89.9446 30.0918C92.6464 30.255 95.2485 30.051 98.0682 30.1689L98.0772 30.1598Z" fill="#B5182F"/>
<path d="M186.843 41.4658C186.979 42.7034 186.304 43.7732 184.971 43.8095L179.05 43.9636C178.049 43.9908 177.296 43.2066 177.319 42.1866C177.341 41.289 177.609 40.1376 178.484 39.6752C179.454 39.1629 180.723 39.4122 181.784 39.5074C183.153 39.6298 184.427 39.7658 185.742 39.997C186.444 40.1194 186.762 40.7269 186.839 41.4613L186.843 41.4658ZM185.601 42.5991C185.941 42.309 185.887 41.4749 185.71 41.0397C184.427 40.8538 183.149 40.7631 181.825 40.6815C181.045 40.6317 180.057 40.4911 179.404 40.9717C178.887 41.3525 178.738 42.3362 178.964 42.862C180.46 43.1204 181.934 43.1023 183.434 43.0343C184.15 43.0026 184.975 43.134 185.601 42.6037V42.5991Z" fill="#B5182F"/>
<path d="M181.553 49.7662C180.002 49.8659 178.366 48.7326 177.89 47.4452C177.382 46.0761 178.756 45.165 179.771 44.757C181.1 44.2266 182.088 44.2356 183.348 44.9292C184.436 45.5276 185.542 47.0553 184.613 48.3292C184.046 49.1044 182.682 49.6982 181.553 49.7662ZM181.294 48.787C182.274 48.6646 183.085 48.3201 183.91 47.8713C184.241 47.6945 184.345 46.8785 184.241 46.4343C184.091 45.8087 182.319 44.3898 180.021 45.5639C179.449 45.854 178.652 46.2756 178.819 47.1007C179.01 48.0662 180.193 48.9185 181.294 48.7825V48.787Z" fill="#B5182F"/>
<path d="M200.878 49.0454C201.54 49.1678 204.337 49.8115 204.047 50.6955C203.988 50.8678 203.553 50.9857 203.367 50.9313L199.532 49.7843C196.871 48.9865 194.291 48.3382 191.508 47.9756C190.873 47.894 190.248 47.69 189.667 47.5313C190.819 47.2638 191.852 47.3817 192.963 47.5857L200.878 49.05V49.0454Z" fill="#B5182F"/>
<path d="M170.972 48.1841C170.918 48.2476 170.496 48.4062 170.501 48.3246C170.542 47.0825 170.727 47.7353 170.7 45.9265C171.525 46.262 171.539 47.5222 170.977 48.1841H170.972Z" fill="#B5182F"/>
<path d="M169.794 48.8324C169.852 48.7961 170.161 48.8188 170.147 48.8868L170.061 49.2721C170.047 49.3356 169.794 49.2268 169.73 49.2086C169.635 49.1814 169.712 48.8868 169.798 48.8324H169.794Z" fill="#B5182F"/>
<path d="M161.57 31.6739C161.529 31.7873 161.239 32.0094 161.149 32.0502C161.026 32.1046 160.772 31.8145 160.772 31.6558V29.3348C161.647 29.5977 161.856 30.867 161.57 31.6694V31.6739Z" fill="#B5182F"/>
<path d="M159.925 32.3721C160.006 32.295 160.45 32.3222 160.437 32.431C160.423 32.5398 160.401 32.7393 160.392 32.8526C160.382 32.9659 160.011 32.8843 159.879 32.8571C159.734 32.8254 159.816 32.4718 159.925 32.3721Z" fill="#B5182F"/>
<path d="M170.17 16.5918L170.138 14.8601C170.882 15.1592 170.882 16.1203 170.17 16.5918Z" fill="#B5182F"/>
<path d="M176.29 30.6404C176.117 30.2278 176.154 29.4028 176.457 29.158C177.033 29.498 176.865 30.2641 176.29 30.6404Z" fill="#B5182F"/>
<path d="M175.913 31.0801C176.009 31.0574 176.29 31.1843 176.303 31.2795C176.321 31.4065 176.29 31.5878 176.19 31.6694C176.09 31.751 175.768 31.683 175.705 31.5742C175.641 31.4654 175.791 31.1118 175.913 31.0846V31.0801Z" fill="#B5182F"/>
<path d="M169.603 38.084C169.277 38.1021 168.823 37.1411 169.082 36.9325C169.667 36.6152 170.174 37.7621 169.603 38.084Z" fill="#B5182F"/>
<path d="M182.011 47.9756C181.127 48.1841 180.202 47.8033 180.175 47.0598C180.17 46.8785 180.483 46.5113 180.673 46.4841L181.861 46.2937C182.174 46.2439 182.691 46.6337 182.763 46.9148C182.867 47.3318 182.546 47.8532 182.011 47.9801V47.9756ZM181.974 47.0191L180.782 46.8785C181.054 47.486 181.702 47.4361 181.974 47.0191Z" fill="#B5182F"/>
</g>
<path d="M238.046 193.806H18.9581C8.50441 193.806 0 185.302 0 174.848V18.9581C0 8.50441 8.50441 0 18.9581 0H238.042C248.496 0 257 8.50441 257 18.9581V174.844C257 185.297 248.496 193.802 238.042 193.802L238.046 193.806ZM18.9581 4.21141C10.8254 4.21141 4.21141 10.8254 4.21141 18.9581V174.844C4.21141 182.976 10.8254 189.59 18.9581 189.59H238.042C246.175 189.59 252.789 182.976 252.789 174.844V18.9581C252.789 10.8254 246.175 4.21141 238.042 4.21141H18.9581Z" fill="#B5182F"/>
</svg>
