<?xml version="1.0" encoding="UTF-8"?>
<svg id="Layer_2" data-name="Layer 2" xmlns="http://www.w3.org/2000/svg" xmlns:xlink="http://www.w3.org/1999/xlink" viewBox="0 0 567.75 425.81">
  <defs>
    <style>
      .cls-1, .cls-2 {
        fill: none;
      }

      .cls-2 {
        clip-path: url(#clippath);
      }

      .cls-3 {
        clip-path: url(#clippath-1);
      }

      .cls-4 {
        fill: #b5182f;
      }
    </style>
    <clipPath id="clippath">
      <rect class="cls-1" width="567.75" height="425.81" rx="22.68" ry="22.68"/>
    </clipPath>
    <clipPath id="clippath-1">
      <rect class="cls-2" width="567.75" height="425.81" rx="22.68" ry="22.68"/>
    </clipPath>
  </defs>
  <g id="Layer_1-2" data-name="Layer 1">
    <g>
      <g>
        <path class="cls-4" d="M141.21,331.6c-.18,2.16-1.5,12.49-4.71,11.98-.81-7.87,4.44-13.61-1.35-21.57-4.85-6.66-2.36-13.01,1.22-19.86,2.89-5.53,2.93-11.48.7-17.3-.66-1.72-2.61-3.39-1.72-5.42,5.8,6.13,7.5,15.64,4.42,23.19-2.61,6.42-6.44,11.09-1.82,17.62,2.36,3.33,3.61,7.14,3.25,11.36Z"/>
        <path class="cls-4" d="M180.91,346.35c-.08.49-.66,1.42-.91,1.69-.32.34-1.39-.66-1.45-1.15-1.19-9.9,3.52-13.06-.93-19.93-2.52-3.89-2.76-8.33-1.35-12.71l3.68-11.41c1.21-3.74,1.9-7.49.6-11.45l-2.72-8.33c2.1.69,2.42,2.44,3.12,4.14,5.03,12.3,2.26,16.09-1.5,28.19-3.01,9.69,4.93,10.17,3.24,20.29l-1.78,10.66Z"/>
        <path class="cls-4" d="M160.03,327.74c-3.67,10.05-.55,10.05-2.62,19.16-2.05-4.74-2.76-10.39-1.72-15.62.71-3.6,2.07-7.01,3.09-10.51,2.05-7.01-3.03-10.72-2.91-16.6.19-9.12,2.8-14.32,7.63-21.7,1.11,1.21.56,2.74-.05,3.93-2.34,4.59-3.62,9.14-4.07,14.22-1.09,12.43,7.04,9.62.65,27.12Z"/>
        <path class="cls-4" d="M219.85,334.37c-.43,3.48-1.59,12.12-5.51,13.91-.27-1.42-.23-2.65.12-3.92l2.15-7.91c1.18-4.31.33-8.79-1.63-12.72-1.43-2.85-1.61-5.49-.88-8.57l2.97-12.52c1.39-5.86.6-11.39-1.7-16.97,2.29.29,2.6,2.14,3.18,3.6,1.9,4.82,1.95,9.96.9,15.02l-2.51,12.12c-1.31,6.34,4.05,8.84,2.91,17.95Z"/>
        <path class="cls-4" d="M199.31,347.76c-.03.53-3.65.95-3.14-11.85.13-3.25.5-6.41,1.52-9.47,2.76-8.3-3.66-11.09-2.36-21.11.49-3.74,1.28-7.38,2.94-10.72l4.45-8.97c.5,1.86.02,3.28-.56,4.86-2.84,8.19-6.27,17.76-2.45,26.05,2.09,4.52,1.36,8.74.46,13.38-1.12,5.81-.53,11.62-.86,17.85Z"/>
      </g>
      <g>
        <path class="cls-4" d="M210.97,134.15c-1.89,3.4-10.48,11.15-13.92,9.42-.48-.24-.92-1.35-.85-1.92.83-6.36,8.65-9.58,14.77-7.5Z"/>
        <path class="cls-4" d="M211.68,121.27c-2.86.62-7.19-1.41-6.72-3.75.63-3.11,12.44-3.33,14.12,2.15l-7.4,1.59Z"/>
        <path class="cls-4" d="M193.65,166.44c-.99,2.16-3.41,4.82-5.61,3.5-.85-.51-1.33-2.13-1.07-3.41.84-4.2,6.46-8.38,9-7.82.33.07.6,1.32.45,1.66l-2.77,6.06Z"/>
        <path class="cls-4" d="M221.61,151.05c-1.14,2.94-3.6,11.07-7.46,9.88-1.52-.47-2.14-2.32-1.85-3.96.96-5.4,7.57-8.93,8.94-7.91.4.3.57,1.48.37,1.99Z"/>
        <path class="cls-4" d="M178.53,145.05c-.86,1.05-2.7.23-3.34-.48-.79-.87-.94-2.46-.5-3.67,1.74-4.78,8.74-6.91,9.96-5.34.35.45.21,1.74-.21,2.26l-5.91,7.24Z"/>
        <path class="cls-4" d="M505.9,32.65c-4.74-6.94-11.73-11.05-19.64-13.15-5.56-1.48-10.64-1.39-15.96.89-4.96,2.13-9.36,4.73-13,8.96-4.59,5.33-8.97,10.9-12.23,17.24-2.85,5.52-3.46,11.45-4.74,17.77l-5.31-6.98c-2.33-3.06-6.75-3.77-10.49-4.5-9.11-1.79-18.19-1.14-27.35.34l-13.31,2.15c-9.35,1.51-18.06,5.06-26.7,8.86-16.26,7.14-29.28,12.61-41.68,25.9-2.82,3.03-4.22,6.61-4.15,10.68-1.58,15.74,1.94,28.03,2.69,43.65l-17.95-6.27c-3.05-1.06-5.89-2.26-9.08-3.09-6.29-.92-11.91-3.03-17.54-5.92-7.75-3.97-10.34-2.26-12.56-8.62-.71-2.02-1.81-4.95-4.03-5.58-5.75-1.64-12.05-3.44-15.92,1.17-5.14,6.13-6.69,16.5-5.84,24.39l1.12,10.38c.38,3.53,2.58,7.33,6.12,8.47,3.35,1.09,12.4,3.26,14.98-.16l5.49-7.26c.53-.7,1.77-.75,2.47-.27,3.42,2.36,6.41,4.82,9.93,6.92l24.96,14.89,14.72,8.4c4.24,2.42,8.01,5.01,12.63,6.76l2.17,11.94c1.33,7.33,3.9,14.09,7.82,20.4,2.97,4.78,7.28,8.62,12.45,10.82,11.75,5.01,30.41,1.19,42.09-3.08l25.79-9.44c6.27-2.3,11.93-4.96,17.9-7.98l35.15-17.75c5.46-2.76,10.47-5.61,15.46-9.13,6.52-4.6,11.66-12.98,12.11-21.27,3.86-6.52,6.91-13.38,8.72-20.81l3.75-15.39,3.57-18.33c1.77-9.07,3.86-17.78,4.74-27,1.58-16.64.22-35-9.34-49ZM315.03,97.84c.87-2.44,2.26-4.44,4.05-6.32,6.58-6.93,14.07-12.41,22.6-16.76,8.18-4.17,16.23-7.94,24.71-11.4,5.53-2.26,10.94-3.57,16.8-4.52,12.52-2.02,38.75-7.06,49.43-.43,5.55,3.44-3.74,10.81-6.94,12.77-7.39,4.54-15.05,8.01-23.33,11.03-18.69,6.8-37.46,12.36-56.84,16.74-3.61.82-33.5,7.39-30.48-1.11ZM247.13,133.89c.07.56-.38,1.77-.88,2.03-.49.26-1.6-.15-2.28-.8-.33-.31-.6-1.23-.41-1.53.23-.38,1.24-1.04,1.69-1.03.74.02,1.81.78,1.89,1.33ZM242.21,123.25c.69-.31,2.08.53,2.26,1.15.19.69-.36,2.01-1.08,2.26-.62.21-1.73-.18-2.1-.71-.52-.73-.28-2.16.93-2.7ZM238.15,129.68c.68-.37,2.19.16,2.5.75.42.82.03,2.28-.8,2.65-.63.28-1.9.05-2.37-.41-.79-.76-.75-2.22.67-2.99ZM238.12,140.24c-.38-.47-.12-2.12.47-2.32.62-.22,1.78-.13,2.05.3.35.56.28,1.91-.22,2.23-.54.35-1.91.26-2.29-.21ZM240.87,152.49c-.81.11-1.97-.63-2.26-1.4-.35-.91.3-2.39,1.73-2.67.76-.15,2.13.9,2.23,1.61.13.98-.78,2.33-1.69,2.46ZM242.8,144.14c-.42-.46.07-1.71.8-2.19.44-.29,1.87.18,2.11.66.27.56-.17,1.85-.83,2.3-.51.35-1.5-.14-2.08-.77ZM325.98,173.48c-.19,4.12-.31,7.92-1.4,12.33-2.85-1.16-5.51-1.98-8.07-3.4l-14.5-8.05c-4.02-2.23-7.4-4.9-11.31-7.29l-19.42-11.84-9.68-6.17c-2.18-1.39-4.39.2-5.63,1.89l-2.68,3.66c-1.98,2.7-4.66,3.25-8.32,2.62,6.34-8.02,7.83-31.68,2.75-40.27,6.53.43,6.35,9.19,11.83,11.31l13.74,5.3,12.47,4.4c3.72,1.31,7.36,2.44,10.97,4,4.16,1.79,8.27,3.24,12.57,4.64l11.28,3.67c1.39,2.77,2.2,6.12,3.3,9.15,1.7,4.67,2.33,9.02,2.1,14.05ZM331.16,129.25c2-1.83,4.44-2.48,7.05-2.88l27.8-4.29c21.05-3.25,53.05-16.46,70.74-28.8,2.03-1.42,5.37-3.27,7.35-4.37.21-.11,1.04.9.88,1.1-.16.2-.54.92-.79,1.08l-6.49,4.27c-19.92,13.11-47.61,26.17-71.11,29.83l-24.85,3.86c-3.61.56-6.83.8-10.59.2ZM335.95,159.27c3.23-.28,7.19-.64,10.45-1.28,7.29-1.45,14.12-2.64,21.29-4.54,15.43-4.09,30.2-8.97,44.98-15.08,10.61-4.39,20.3-9.84,29.54-16.6l11.3-8.27c1.22-.89,2.53-1.4,4.17-1.31-.75,1.31-1.58,2.58-2.64,3.37l-8.12,6.08c-11.25,8.42-23.07,15.35-36.23,20.41-13.91,5.34-27.66,9.74-42.08,13.45-8.65,2.22-17.02,3.68-25.8,5.04-9.66,1.5-8.36-1.14-6.85-1.27ZM471.02,141.18l-8.44,6.34c-6.14,4.61-12.14,8.55-19.12,11.76l-26.36,12.1c-23.47,10.78-34.74,14.09-60.38,18.93-5.54,1.04-10.47,1.67-16.17,1.57-1.47-2,11.59-3.95,13.1-4.25l19.08-3.81c9.89-1.98,19.22-4.65,28.5-8.68l33.08-14.37c20.04-8.7,18.28-7.99,35.95-20.54.13-.09.62-.58.65-.57.02,0,.38.27.49.37.17.16-.15.99-.38,1.16ZM489.22,141.99c-3.39-6.09-6.62-11.49-10.09-17.34l-16.89-28.53-13.26-19.03,2.08-7.65c3.69-13.55,18.55-32.19,33.88-31.83,3.99.09,6.9,2.89,8.86,6.23,2.67,4.53,4.58,9.17,5.01,14.49l1.17,14.6c.82,10.23.46,20.09-2.07,30.04l-3.12,12.27-4.13,20.55-1.45,6.2ZM509.34,92.61l-2.89,13.94-4.21,20.07-3.03,12.36c-1.41,5.76-2.49,11.32-4.55,17.39-1.12-3.84-2.15-7.26-3.98-11.1,3.75-9.39,5.77-19.13,7.86-29.15,1.87-8.99,4.8-17.34,4.99-26.96.23-11.54-.5-22.45-1.67-33.59-.56-5.36-3.14-9.83-5.77-14.32-2.62-4.48-7.1-7.67-12.36-7.58-7.35.14-13.59,3.45-19.19,7.84-4.01,3.14-7.08,6.48-9.85,10.77-4.28,6.63-7.06,13.55-7.86,21.55l-4.3-6.43c1.95-11.09,6.39-19.72,13.03-28.53,2.63-3.49,5.2-6.74,8.49-9.59,2.54-2.19,5.73-3.47,8.74-4.78,4.06-1.76,7.91-1.57,12.08-.68,8.81,1.88,15.82,7.16,19.99,15.26,3.18,6.17,5.11,12.5,5.97,19.52,1.41,11.41.85,22.74-1.48,34Z"/>
        <path class="cls-4" d="M386.42,84.55c-5.79,1.98-6.85-1.59-14.64-5.91l-11.3-6.27c-.55-.31-1.21-1.38-1.17-1.89.22-2.67,4.79-3.48,7.03-4.26,14.35-5.01,29.05-7.36,44.2-7.35,4.16,0,8.19-.37,11.6,2.45.91.75,1.97,2.21,2.07,3.27.67,7.16-31.4,17.79-37.78,19.96Z"/>
      </g>
      <g class="cls-3">
        <path class="cls-4" d="M572.93,424.66l6.34-.72c6.97-.8,13.71-.44,20.71-.1l13.99.66c5.66.27,11.12-.23,16.78-.29l20.84-.21c1.87,1.66,9.07,5.04,9.23,1.9.03-.62-.59-1.82-1.14-2.22l-8.45-6.19c-5.07-3.72-9.8-7.5-14.63-11.61-9.14-7.78-18.23-14.65-28.37-21.82l11.16.02c1.65,0,3.31-.26,4.88-.92.68-.28.89-2.52.25-2.91-1.29-.79-2.88-1.16-4.39-1.14l-18.35.24c-8.86-5.12-16.75-11.09-25.18-16.86l-16.17-11.07-9-6.64c-.19-.14-.73-.65-.89-.79-.12-.1.45-.31.65-.31l.98-.02.94-.02,31.05-.37h.93s.9,0,.9,0c2.4,0,16.48.26,16.71-3.54l.06-.92c-3.01-1.7-6.1.19-9.41.19l-49.42-.02-29.99-24c-.2-.46-.1-.72.26-.74l18.19-.92c7.4-.38,19.11-2.01,25.03-1.49,1.28.11,5.77.94,6.9-1.52.21-.46-.45-1.84-.89-2.09-5.48-3.13-15.28-1.74-21.59-1.18-3.01.27-6.02.47-9.03.61l-18.48.85-38.12.29-46.58.28c-6.94.04-13.44.35-20.31.77l-16.26.98-44.98.72-13.61.85c-8.5.53-16.65.74-25.22.62-9.77-.14-19.11.38-28.83.83l-13.1.6-23.85.76-13.26.06-1.38-16.61.25-25.19c.05-4.69-9.16-8.78-12.48-10.36-9.24-4.4-21.23-7.54-31.5-8.05-.98-6.26,1.77-22.5,1.43-26.17l-.95-10.38c-.41-4.56-.62-9.11.65-13.64.89-.99,3.2-.35,4.31.32l10.75,6.5c7.89,4.77,16.6-2.87,19.97-10.54,1.29-2.93,4.54-7.74,1.1-11.15-2.94-2.91-9.46,1.54-14.97-2.08-1.56-1.03-3.02-2.75-4.35-4.06-5.79-5.73-14.29-5.44-19.97.13-2.67,2.61-5.03,5.26-5.85,9.13-4.34-3.87-8.81-6.81-14.3-8.09l-12.56-2.93c-10.28-2.4-8.74,1.5-21.82-6.44-3.03-1.84-9.91-5.36-11.9-1.06-.55,1.18-.16,2.66.33,4.01l4.57,12.65c1.82,5.05,3.41,9.64,6.69,13.98,3.46,4.59,6.61,9.96,14.24,9.87l13.55-.16c8.75-.1,17.37-6.58,17.8-4.65,3.29,14.75-1.02,29.42-.03,44.16-11.25-.64-26.37,1.04-36.4,6.03-2.11,1.05-4.26,2.52-6.13,3.79-3.66,2.49-4.46,6.47-5.22,10.57-1.39,7.53-2.36,14.74-2.54,22.42l-.46,18.71-78.94,1.04c-5.08.07-9.72.72-14.76.83l-10.95.22-18.6,1.03c.47,1.33,1.76,1.87,3.01,1.96l10.3.79c-9.61,9.21-19.66,17.75-29.93,26.17l-23.16,2.19c-.82.08-1.86,1.46-1.61,2.09,1.17,2.98,14.18,1.06,17.61,1.08.24,0,.29.21.19.54-8.36,6.79-15.7,14.02-23.55,21.4l-27.34,25.71c-4.14,3.89-8.33,7.3-12.12,11.51-3.23,3.58-6.06,7.29-8.98,11.28,2.89-.82,4.09-3.02,5.89-4.79,3.78-3.71,7.22-7.57,11.47-10.75,5.71-4.28,11-8.36,16.52-13.01,2.15-.28,4.68-.41,6.98-.47l18.83.17,23.51.6c-6.87,7.38-12.76,14.95-19.25,22.37l-11.02,12.59c-9.3,2.01-40.36-2.75-45.75,5.76,2.12.75,4.08,1.45,6.14,1.45,3.3,0,6.23.14,9.5.33,8.04.45,15.73-.01,24.03-.42-5.11,5.9-9.62,11.84-15.1,17.14-4.96,4.81-9.7,9.32-13.89,14.8l-7.19,8.92c-3.03.5-15.02-.63-15.41,2.23-.07.54.99,1.65,1.54,1.68l11.06.61-.31,2.99,2.81-3.06c6.11.49,12.13.9,18.33,1.02l17.1.32,13.53-.51c5.65-.21,10.9-.97,16.56-.4l-7.44,9.49c-.3.38-.52,1.49-.48,1.88.04.39,1.29.17,1.67-.09,4.27-2.97,7.74-7.07,11.01-11.2l39.09-.19,43.32-.57c-1.26,2.69-8.26,11.88-6.08,13.75,1.22,1.04,3.86-2.79,4.51-3.8l6.46-10.05,36.78-.41,28.26-.16-6.37,13.69c4.05,2.95,9.04-11.53,10.73-13.92l26.18-.82,43.17-.98c-.15,4.76-3.73,15-3.29,17.78.06.35,1.4.75,1.68.47,1.14-1.13,2.47-3.9,2.81-5.78l2.24-12.44,34.94-.31,22.98-.63c.16,5.47.07,10.75-1.58,15.8-.28.86-.58,1.54-.38,2.04.21.5,1.96.84,2.41.54,4.6-3.09,4.04-13.57,4.43-18.46l71.64-.37,5.05,18.2c.18.65,1.04,1.57,1.58,1.63,2.72.3,1.76-7.07,1.29-8.82l-2.8-10.36.85-.74,39.25-.27,42.55-.11c1.09,2.97,2.02,5.53,4.14,7.59.5.49,2.29.34,2.65-.2.31-.47.87-1.76.68-2.29l-1.71-4.91s.45-.21.83-.38l26.99-.9,29.23-.91,20.91-.83c1.55-.06,3.28,2.79,6.96,5,.88.53,3.16-.06,3.08-1.2-.25-3.53-3.43-4.11-.65-4.25l23.94-1.2,34.1-.63,25.6-.09c2.48,2.13,4.86,3.91,7.72,5.56,1.74,1,5.14-.25,4.51-.76l-1.19-.97c-.13-.11-.54-.4-.6-.47l-2.97-3.32,31.95-.23c2.59-.02,5.65-.59,6.7-2.78,1.25-2.62-3.77-4.12-6.85-4.1l-38.46.23-9.21-8.56c-4.88-4.53-9.96-8.64-14.5-13.52l-10.1-10.87-6.86-7.08c-1.37-1.41-2.28-1.2-.54-1.48ZM185.83,193.21c6.3-3.15,7.93-1.05,12.84,1.76,9.02,5.17,9.8-1.47,13.3,2.26.09.99-1.79,2.12-2.95,2.26-5.11.66-10.16-.87-14.32-4.02-4.7-3.56-6.72.57-8.96-.29-.46-.18-.37-1.73.09-1.97ZM166.83,201.7c-10.5-3.48-20.9-.7-29.25-4.99-3.08-1.58-4.58-5.15-5.02-8.61,8.28,3.71,5.47,6.92,16.28,7.81,2.48.2,5.03.67,7.61.61,13.71-.31,12.41,5.85,10.38,5.18ZM557.97,355l16.13,11.09,17.67,12.88-3.99-.24-22.54-.87-19.35-.68-26.02-.2-22.46-19.64-15.11-13.25,60.82-.29,14.85,11.19ZM321.81,345l38.81-.18,13.04,22.75,6.79,10.81-36.05,2.07-12.97.4c-1.16-5.88-2.45-11.14-4.16-16.79l-5.47-19.06ZM326.62,380.86l-41.88.32-.94-36.57,9.71-.17,23.83.58,4.9,18.26,4.37,17.59ZM442.86,376.99l-43.46.38-13.07.6-8-12.21-12.19-20.92,45.44-.04c10.27,11.78,20.55,19.96,31.28,32.2ZM417.46,344.76l58.14-.73,18.14,16.18,18.97,16.72-63.53.12c-10.53-11.95-20.94-20.22-31.71-32.29ZM345.35,386.54l30.14-1.35,8.9-.4c4.14,7.08,8.03,14.01,11.5,21.47,2.37,5.09,4.95,9.73,7.9,14.78l-20.49.25c-7.18.09-14.03.84-21.52.78l-14.65.28-8,.41-6.74-35.83,12.97-.37ZM400.66,404.89c-3.22-7.07-6.79-13.51-10.61-20.54l50.78-.8,7.97-.06c7.94,8.2,14.43,17.12,21.03,26.45l7.09,10.01-30.33.45c-12.84.19-24.91.78-37.47.63-3.14-5.46-5.92-10.58-8.45-16.14ZM470.23,402.38c-4.75-6.74-9.71-12.75-15.35-19.05l64.35-.6,8.75,7.22c7.98,6.59,15.56,13.28,23.07,20.42l10.21,9.7c-7.68.37-14.54-.24-22.14-.27l-56.77-.26-12.11-17.16ZM509.8,314.25c.83,1.55,1.7,3.07,3.05,4.22l23.99,20.46-14.18.14-45.42.29-13.38-11.54-14.95-13.15,60.89-.42ZM411.2,315.31c11.54-.58,22.95-.66,34.44-.66.03,1.56.48,2.72,1.47,3.66l10.96,10.05,12.11,10.86c-8.51.5-16.65.17-25.26.16l-31.93-.06c-3.36-4.1-6.41-8.11-9.4-12.41l-7.52-10.84,15.12-.75ZM391.71,316.24l15.45,23.17-44.14.34-10.4-20.98c-.4-.81-.89-1.53-1.47-2.47l40.56-.07ZM332.7,317.5l14.1-.96c-.29,1.68,1.13,2.52,1.65,3.6l9.28,19.58-11.89.17-25.41.17-5.94-22c6.36-.02,12.09-.15,18.21-.57ZM301.15,318.21l9.9-.14,4.99,21.96-20.31-.46-11.99-.15-.45-20.31c5.95-.57,11.79-.83,17.86-.92ZM282.34,409.19l2.23-22.16,43.07-.22,6.77,36.3-18.44.3-20.21,1-14.48.74c0-5.54.49-10.46,1.06-15.97ZM267.15,319.95l13.45-.77-.11,20.3-17.66.87-9.9.22,5.82-20.33,8.41-.28ZM280.48,344.62l-.58,36.59-38.58.57,6.24-23.76,3.9-12.4,20.81-.78,8.21-.21ZM230.38,321.11l24.72-.76-6.58,20.5-20.43.5c3.08-7.21,2.32-12.95,2.29-20.25ZM246.91,346.05l-5.13,16.27-4.95,19.76-34.84.68-16.59.44c1.73-3.57,3.08-6.76,5.07-9.96l9.92-15.92,10.49-1.21c2.14-.25,4.36-1.28,6.18-2.32,3.17-2.1,5.76-4.39,8.21-7.54l21.64-.22ZM138.43,374.07l-7.75,11.08-55.73,3.27-14.08.5,24.31-25.88c4.4-4.69,8.61-9.1,13.32-13.55l20.09-.77,11.45-.56c7.01,6.5,11.29,6.88,20.47,7.93-3.66,6.3-7.9,12.02-12.07,17.98ZM155.13,356.12l24.77,1.04,14.51.61-8.36,13.42c-2.36,3.79-3.93,7.77-6.04,12.11l-19.05.68-25.34.74,13.66-19.39,5.85-9.2ZM68.08,374.43l-13.94,14.64-13.08.3-22.04.79-18.17.21,18.29-17.58c7.61-7.31,15.1-14.42,23.28-20.87l18.93-.6,14.85-.82,15.27-.43-23.4,24.36ZM55.47,395.05l22.94-1.02,48.22-2.63c-3.72,6.58-7.76,12.59-11.98,18.89l-11.49,17.12-8.33.24c-5.26.15-10.08.76-15.72.77l-51.25.04,9.91-12.13,4.56-5.4,13.14-15.89ZM123.94,404.08l7.81-12.91c9.75-.82,19.06-.87,28.77-1.23l16.41-.6-6.42,15.55-9.02,21.6c-11.41-1.31-22.67-.59-34.52-.07l-18.26.8,15.23-23.14ZM174.81,406.26c2.48-5.79,4.7-11.3,7.44-17.01l11.16-.28,31.1-.85,10.82-.06-7.28,26.73-3.08,12.38c-2.7.05-5.69.18-8.52.02l-15.76-.89-34.5.08,8.62-20.12ZM222,269.19c1.27,1.66,3.84,1.36,3.68,4.82-6.24-4.12-13.24-6.31-20.69-7.87-6.7-1.4-12.8-2.56-19.76-3.16l-.05-3.84c12.81,2.2,25.24,4.16,36.82,10.05ZM139.35,263.54c9.48-5.17,23.07-6.68,34.05-6.18l-.12,3.98c-9.75-.48-17.5-.39-27.5,1.5-5.49,1.04-9.59,4.88-13.75,8.25-1.1-2.8,5.09-6.33,7.33-7.56ZM126.86,327.46l.81-16.95c.25-5.25.37-10.27,1.04-15.45l2.52-19.35c3.26.54,5.86,1.02,8.92,1.26,20.2,1.56,27.11,6.13,50.53,5.82l12.54-.16,10.08-1.65c4.49-.73,8.79-1.34,12.85-3.33l-.14,32.84.18,6.86c.31,11.96.77,23.51-9.13,32.15-1.31,1.14-3.52,2.19-5.08,3-9.34,1.46-18.51,2.5-27.92,1.55l-9.05-.91c-5.29-.53-10.46-1.93-15.84-1.92-7.58.02-11.49-.33-18.76-.41-3.64-1.77-7.9-3.69-10.1-7.38-2.77-4.66-3.73-10.61-3.47-16ZM123.27,323.64c-.45,6.93.24,13.41,3.14,19.62l-22.76,1.06,8.23-8.16c4.19-3.76,7.73-7.77,11.39-12.51ZM120.84,321.52c-2.73,3.1-5.45,5.9-8.46,8.76l-14.86,14.14-18.82.85-19.11,1.03-11.36.63,10.56-9.22,17.53-16.34,44.52.16ZM-5.4,344.77c8.66-7.28,16.9-14.71,24.74-22.87,4.82.05,9.16-.05,13.83-.11l38.26-.5c-5.43,4.08-10.1,8.96-15.48,13.38l-15.4,12.66c-10.86.51-21.26.5-32.22-.23-5.6-.38-10.52-.17-16.14.08.73-.82,1.49-1.63,2.41-2.41ZM-28.57,390.76l-8.34-.49-19.31.19,25.38-23.91,15.9-13.66c7.88-.55,15.57-1.01,23.52-.57,8.45.47,16.55.08,25.34.07l-18.79,16.74-22.59,21.54-21.11.08ZM-27.75,420.74c7.63-8.55,14.49-17.6,23.29-25.19l24.36.07,29.22-.61-10.21,12.52-8.64,10.9-8.69,10.21-32.39.44-12.9.89c-4.31.3-8.28.57-12.82.62l8.79-9.85ZM-13.76,475.67l-13.69.48c-3.1.11-6.11.44-9.38.74l-12.75,1.17c-10.95,1.01-21.73.91-32.33.52,5.62-5.96,10.58-11.66,16.36-17.02,4.49-4.17,8.84-8.04,12.89-12.65l11.07-12.36,19.56-1.12,10.93-.72,28.04-.05-11.67,15.53-15.97,21.67-3.04,3.81ZM19.24,475.33l-27.59.12,18.91-24.97,12.21-15.84,34.53-.2c11.41-.07,22.41-.15,33.76-.88,3.01-.19,5.72-.5,8.5-.27l-13.63,22.41-13.77,19.82-52.92-.18ZM140.21,475.51h-62.84s13.68-19.34,13.68-19.34l14.13-23.11,12.54-.92,19.81-.76c7.21-.28,14.06-.13,21.68.67-4.15,11.9-9.38,23.04-14.76,34.47l-4.23,8.99ZM212.74,473.44c-13.8-.02-27.05.32-40.68.75l-27.13.86,12.27-26.33,6.63-16.63c12.02.03,23.82-.06,35.85.76,7.95.54,15.44,1.26,23.56,1.28l-3.94,16.58-6.56,22.73ZM272.88,456.84c-.57,5.08-.02,10.22-.15,15.3l-24.79.88-31.79.39,7.59-23.94,3.94-15.52c11.93-.11,23.39.05,35.14-.76l12.79-.89-2.74,24.54ZM275.8,425.5l-19.26,1.32-27.23.25,10.48-39.34,24.39-.54,15.48-.13-2.43,21.74c-.62,5.54-1.16,10.75-1.43,16.72ZM277.97,472.09c-.03-5.29-.2-10.55.41-15.82l2.79-24.34,15.96-.91,18.46-.86,20.68-.3,6.62,27.33,3.5,14.42-68.41.49ZM399.59,471.49l-48.14.16c-1.81-5.22-2.73-10.28-4.02-15.55l-6.47-26.4,7.09-.42c11.08.11,21.77-.5,32.88-.68l27.42-.44c8.99,14.05,17.31,28,25.14,43.09l-33.89.24ZM498.58,469.19l-27.56.98-29.41,1.09c-2.62.1-2.82-.4-3.84-2.18l-14.68-25.76-9.22-15.04,4.03-.31,31.51-1.01,32.13-.93c6.58,8.37,13.35,16.1,20.57,23.86,5.33,5.72,9.57,11.89,13.86,18.52l-17.4.79ZM583.61,442.7c2.19,2.78,4.42,5.2,6.94,7.67l16.18,15.86-40.3.3-23.28.81-20.22.95-8.01-10.7c-2.58-3.41-5.12-6.55-7.98-9.76l-19.71-22.12,60.32-.17c6.53-.02,12.48-.03,19.04-.31l17.01,17.46ZM567.56,420.2l-14.46-13.73c-8.69-8.25-17.31-15.87-26.83-23.83l20.52-.23,18.05.42,23.44.61,10.62.47,17.97,13.32,22.66,18.01,5.07,3.94-12.63.42c-5.43.18-10.75,1.15-16.2.91l-13.11-.6c-5.44-.25-10.73-1.06-16.21-.76l-18.89,1.03Z"/>
      </g>
    </g>
  </g>
</svg>