<?xml version="1.0" encoding="UTF-8"?>
<svg id="Layer_2" data-name="Layer 2" xmlns="http://www.w3.org/2000/svg" viewBox="0 0 193.89 197.12">
  <defs>
    <style>
      .cls-1 {
        fill: #007a4e;
      }
    </style>
  </defs>
  <g id="Layer_1-2" data-name="Layer 1">
    <g>
      <path class="cls-1" d="M61.08,196.86c-5.77.98-11.61-.89-16.14-3.85-5.44-3.56-7.84-9.85-7.73-16.13.17-10.01-.15-15.46,6.09-23.7-11.66.23-18.55,4.04-28.97-2.92-4.55-3.04-7.2-7.25-7.77-12.74-.62-5.97.49-11.35,3.13-16.69,2.73-5.53,6.49-10.09,12.57-12.6-10.46-6.14-19.75-15.57-21.97-27.58-.61-3.32-.02-6.91.01-10.22.05-5.2,2.18-9.03,4.89-13.12,2.6-3.91,5.17-7.17,9.17-9.77,8.88-5.77,15.2-7.25,25.5-3.66.31-11.98.38-27.88,9.36-36.7,3.34-3.28,8.97-5.08,13.69-4.51,12.32,1.49,22.41,9.52,27.25,20.84,4.01-8.22,12.73-17.83,21.04-21.07,4.89-3,10.61-3.26,15.83-.57,8.68,4.47,13.48,8.85,18.36,17.28,2.94,5.07,3.46,10.86,2.46,16.56,5.86-.83,11.89.13,17.75.91,6.97.93,13.67,2.8,19.4,7.07,4.94,3.68,8.74,9.32,8.88,15.55.25,10.87-3.4,20.9-11.06,28.41-4.8,4.71-10.44,7.94-16.31,11.53,13.59,7.37,23.24,20.62,25.04,35.89.22,4.89-.77,9.4-3.65,13.22-5.74,8.81-24.11,6.94-33.09,3.45,3.19,10.98-1.19,27.66-9.54,35.06-3.69,3.31-8.24,5.08-13.24,4.44-7.41-.95-14.22-3.22-21.02-6.21-5.09-2.24-9.96-4.49-14.54-7.59-1.46-.99-2.92-1.28-4.35-.04-4.39,3.79-7.97,8.2-12.64,11.76-5.2,3.96-11.71,6.58-18.41,7.72ZM49.08,188.02c4.05,3.88,9.94,4.25,14.77,2.06,4.09-1.85,8.07-4.1,11.29-7.27,4.63-4.57,8.61-9.56,12.85-14.41,2.41-2.76,5.93-2.31,8.29,0,4.76,4.69,10.64,7.47,16.72,10.03s11.66,3.49,18.06,3.52c3.49.02,6.43-.71,8.76-3.66,3.22-4.08,5.78-9.36,5.83-14.89.06-7.59-6.84-19.48-1.06-21.81,4.07-1.64,9.57,6.15,20.55,5.72,4.43-.17,9.11-1.07,13.1-3.06,2.78-1.39,4.05-5.65,3.84-8.67-.63-9.06-4.89-16.81-11.24-23.01-4.65-4.53-8.52-9.28-11.95-14.71.26-.69.99-1.82,1.65-2.09,4.76-2.01,9.14-5.21,13.16-8.72,4.25-3.73,8.12-7.67,10.29-13.08,2.46-6.13,3.66-17.29-1.15-21.82-4.9-4.61-11.94-5.62-18.24-6.04-6.74-.45-12.73-.28-19.3,1.2-.78.18-2.52-.32-3.13-.79s-1.14-2.08-1.18-2.99l-.36-9.19c-.29-7.4-2.69-14.87-8.22-20.04-2.13-1.99-5.17-3.23-7.8-4.52-2.1-1.03-5.01-.96-6.97.16-2.4,1.37-4.77,2.55-6.93,4.15-9.06,6.69-13.94,20.19-19.22,19.97-.77-.03-1.98-1.06-2.39-1.93-4.83-10.14-14.75-20.73-26.65-22.18-6.55-.8-10.68,7.54-11.64,13.1-1.01,5.83-1.29,11.55-1.42,17.43l-.25,10.74c-.02.79-.63,2.15-1.24,2.45-.52.26-1.91.44-2.51.23l-5.94-2.08c-6.71-2.36-13.56-.86-19.09,3.26-2.76,2.06-4.29,4.44-6.02,7.36-4.58,7.71-6.5,16.35-2.15,24.71,2.42,4.65,5.53,8.54,9.57,11.9,5.82,4.84,10.45,1.17,11.73,4.87.36,1.03.18,2.97-.54,3.89-6.74,8.62-8.08,6.87-13.11,17.28-2.28,4.72-4.68,10.08-3.34,15.52,1.17,4.76,6.35,7.28,10.79,7.96,10.99,1.69,12.69-2.99,19.91-1.26.83.2,2.06,1,2.31,1.64,1.05,2.69-3.71,5.87-3.43,16.4l.42,15.64c.06,2.29.84,5.36,2.6,7.04Z"/>
      <path class="cls-1" d="M93.64,123.47c-4.31,1.46-8.5,1.11-12.32-1-2.86-1.57-5.92-3.96-7.49-6.89-4.4-8.21-3.95-17.41-.85-25.8,1.89-5.12,4.37-8.92,8.34-12.61,2.55-2.38,4.95-4.66,8.07-6.42,5.63-3.18,11.31-5.76,17.7-7.22s12.81,1.39,15.48,7.36c10.23,8.61,5.41,25.74-1.23,34.78-4.44,6.06-10.51,10.84-17.19,14.1-3.31,1.62-6.87,2.46-10.51,3.68ZM88.81,114c12.41-1.72,13.09-2.2,22.19-9.43,4.97-3.94,7.96-8.77,9.65-14.89,1.69-6.13-.42-12.92-6.11-16.19-.91-.52-3.08-.27-4.1-.12l-13.41,1.93c-4.65.67-8.72,2.46-11.53,6.18-8.38,4.86-14.15,20.84-7.69,28.7,3.28,2.14,7.01,3.31,11,3.82Z"/>
    </g>
  </g>
</svg>