<?xml version="1.0" encoding="UTF-8"?>
<svg id="Layer_2" data-name="Layer 2" xmlns="http://www.w3.org/2000/svg" viewBox="0 0 193.89 197.12">
  <defs>
    <style>
      .cls-1 {
        fill: #007a4e;
      }
    </style>
  </defs>
  <g id="Layer_1-2" data-name="Layer 1">
    <path class="cls-1" d="M166.51,99.16c5.87-3.59,11.51-6.83,16.31-11.53,7.66-7.51,11.31-17.54,11.06-28.41-.14-6.23-3.94-11.87-8.88-15.55-5.74-4.27-12.43-6.14-19.4-7.07-5.85-.78-11.89-1.74-17.75-.91,1-5.7.48-11.48-2.46-16.56-4.89-8.44-9.68-12.81-18.36-17.28-5.22-2.69-10.94-2.42-15.83.57-8.31,3.23-17.02,12.85-21.04,21.07-4.83-11.32-14.93-19.35-27.25-20.84-4.72-.57-10.34,1.23-13.69,4.51-8.98,8.81-9.06,24.72-9.36,36.7-10.31-3.59-16.63-2.11-25.51,3.66-4,2.6-6.57,5.85-9.17,9.77-2.71,4.08-4.84,7.92-4.89,13.12-.03,3.31-.62,6.9-.01,10.22,2.22,12.01,11.51,21.43,21.97,27.58-6.09,2.51-9.84,7.08-12.57,12.6-2.64,5.34-3.75,10.72-3.13,16.69.57,5.49,3.23,9.71,7.77,12.74,10.42,6.96,17.31,3.15,28.97,2.92-6.24,8.24-5.92,13.7-6.09,23.7-.11,6.28,2.29,12.58,7.73,16.13,4.54,2.96,10.38,4.83,16.14,3.85,6.7-1.13,13.2-3.75,18.41-7.72,4.67-3.56,8.26-7.97,12.64-11.76,1.43-1.24,2.88-.95,4.35.04,4.58,3.1,9.45,5.35,14.54,7.59,6.8,2.99,13.61,5.26,21.02,6.21,4.99.64,9.54-1.13,13.24-4.44,8.35-7.4,12.73-24.07,9.54-35.06,8.98,3.49,27.35,5.36,33.09-3.45,2.88-3.83,3.87-8.33,3.65-13.22-1.8-15.27-11.46-28.52-25.04-35.89ZM121.33,105.69c-4.44,6.06-10.51,10.84-17.19,14.1-3.31,1.62-6.87,2.46-10.51,3.68-4.31,1.46-8.5,1.11-12.32-1-2.86-1.57-5.92-3.96-7.49-6.89-4.4-8.21-3.95-17.41-.85-25.8,1.89-5.12,4.37-8.92,8.34-12.61,2.55-2.38,4.95-4.66,8.07-6.42,5.63-3.18,11.31-5.76,17.7-7.22,6.22-1.41,12.81,1.39,15.48,7.36,10.23,8.61,5.41,25.74-1.23,34.78Z"/>
  </g>
</svg>