<?xml version="1.0" encoding="UTF-8"?>
<svg id="Layer_2" data-name="Layer 2" xmlns="http://www.w3.org/2000/svg" xmlns:xlink="http://www.w3.org/1999/xlink" viewBox="0 0 557.64 418.23">
  <defs>
    <style>
      .cls-1 {
        fill: none;
      }

      .cls-2 {
        fill: #b5182f;
      }

      .cls-3 {
        clip-path: url(#clippath);
      }
    </style>
    <clipPath id="clippath">
      <rect class="cls-1" width="557.64" height="418.23" rx="22.68" ry="22.68"/>
    </clipPath>
  </defs>
  <g id="Layer_1-2" data-name="Layer 1">
    <g class="cls-3">
      <g>
        <path class="cls-2" d="M363.21,243.99l.45,9.31c1.37.09,2.48-.12,3.38-.85,1.51-1.23,1.42-5.72.2-7.27-.89-1.13-2.74-1.27-4.02-1.19Z"/>
        <path class="cls-2" d="M365.31,136.86c-.11-.37-1.31-.64-1.55-.34-.21.25-.51.75-.71,1.13l-.58,4.17c2.44-.4,3.4-3.11,2.84-4.95Z"/>
        <path class="cls-2" d="M397.13,138.96c-.27,0-.94.08-1.19.18-.75.33-1.03,1.07-.73,1.93l1.94-1.01c.23-.12.25-1.1-.02-1.1Z"/>
        <path class="cls-2" d="M376.15,137.99c-.5.53-.85,1.26-.94,1.97l1.81.24c-.25-.96-.46-1.56-.87-2.21Z"/>
        <path class="cls-2" d="M398.85,142.89c.11-.36-.2-1.59-.54-1.5l-1.56.44c-.43.12-1.44.21-1.44.58l.04,1.92c1.17.46,3.12-.27,3.5-1.44Z"/>
        <path class="cls-2" d="M444.2,250.98c.9,1.28,11.05,8.94,11.15,4.46l.36-17.65v-7.3c-2.24,3.89-4.29,7.3-6.96,10.64-1.54,1.93-5.64,8.3-4.55,9.84Z"/>
        <path class="cls-2" d="M441.47,223.07c4-1.88,8.17-3.92,12.03-6.06.34-.19.73-1.18.55-1.49-1.42-2.49-5.35-2.22-7.22-2.71l-6.83-1.81-8.08-2.76c-1.37-.47-3.23-.51-3.67,1.34-.96,4-2.54,11.91.61,14.75,3.43,3.09,8.39.72,12.62-1.27Z"/>
        <path class="cls-2" d="M450.01,198.27c1.55,2.55,2.68,5.08,4.62,7.22-.03-1.93-.43-3.88-.31-5.79.45-7.38.48-14.37-.66-21.69-2.48-.64-10.93,5.16-11.19,7.45-.12,1.09.33,2.3.94,3.16,2.27,3.23,4.58,6.29,6.61,9.63Z"/>
        <path class="cls-2" d="M353.52,138.17c.98-.25.99-2.34.61-3.25-.32-.75-1.68-1.41-2.73-1.27l-1.07,4.6c1.02.09,2.14.19,3.19-.08Z"/>
        <path class="cls-2" d="M434.76,190.65c-1.52,2.29-2.32,4.41-2.72,7.17-.2,1.39-1.05,3.18-.31,4.58,3.3,6.23,8.18,6.07,14.36,8.25l4.71,1.66c1.4.49,3.53,1.06,3.94-.63l-3.61-5.45c-1.03-1.55-2.08-3.02-2.92-4.68-2.33-4.61-5.05-8.71-8.73-12.39-.53-.53-2.23-.84-2.88-.58-.66.27-1.36,1.33-1.85,2.08Z"/>
        <path class="cls-2" d="M359.74,182.93c1.92-1.55,1.06-4.97-.1-6.89-.74-1.22-2.08-1.86-3.74-1.79l.92,9.18c.95.26,2.25.04,2.91-.5Z"/>
        <path class="cls-2" d="M452.22,218.78c-6.19,2.91-11.73,6.4-17.36,10.27-2.85.69-4.52,3.47-3.48,6.34.77,2.13,1.85,4.28,3.33,6.14.29.36,5.77,4.34,8.82.93,1.18-1.33,2.43-2.68,3.46-4.15,3.65-5.17,5.83-10.88,7.86-16.84.29-.86.25-1.95-.37-2.5-.42-.37-1.61-.5-2.27-.19Z"/>
        <path class="cls-2" d="M340.09,137.14c1.97-1.59,2.4-3.65,1.57-6.11-1.68.27-2.39,4.91-1.57,6.11Z"/>
        <path class="cls-2" d="M345.16,137.84c2.33-1.33,2.39-3.7,1.37-5.51-1.23,1.7-1.9,3.73-1.37,5.51Z"/>
        <path class="cls-2" d="M439.39,133.04c-.37.12-1.28.71-1.2,1.08l.54,2.26c.95-.53,1.5-1.01,1.78-2.22.1-.46-.75-1.24-1.12-1.12Z"/>
        <path class="cls-2" d="M353.92,62.27c1.2,3.42-.58,6.96-3.96,7.79-2.31.57-4.63-.53-6.16-2.04-2.92-2.88-2.22-9.87,1.54-11.39,1.96-.79,4.61-.7,6.09,1.05,1.06,1.25,1.9,2.89,2.5,4.59ZM351.51,67.77c2.95-2.61.57-8.79-1.77-9.66-1.56-.58-3.54-.46-4.64.82-1.82,2.11-2.21,5.54-.62,7.93,1.48,2.22,5.06,2.66,7.04.91Z"/>
        <path class="cls-2" d="M370.49,36.81c-1.47.52-3.2-.28-4.13-1.15-2.61-2.45-1.86-8.78,1.83-10.24,1.46-.58,3.22.32,4.25,1.26,2.4,2.18,2.04,8.72-1.95,10.14ZM371.17,34.79c2.01-2,1.97-5.03.5-7.19-.38-.56-1.39-1.16-1.94-1.14-.48.02-1.46.48-1.8.87-1.94,2.28-2.64,6.32-.17,7.61.98.51,2.5.74,3.4-.15Z"/>
        <path class="cls-2" d="M387.21,59.71c.97,2.88-.81,8.36-4.97,8.61-1.32.08-2.69-.23-3.61-1.05-.8-.72-1.42-2.22-1.3-3.41.33-3.2,2.49-5.34,5.35-6.28,1.91-.63,3.83.08,4.52,2.13ZM383.9,66.3c1.79-1.23,2.45-3.45,2.36-5.38-.06-1.23-.92-2.37-2.19-2.32-3.36.14-6.5,3.83-5.11,7.11.68,1.61,3.58,1.52,4.94.59Z"/>
        <path class="cls-2" d="M363.77,54.29c-.02.21-.45.81-.53.95-.12.21-.91-.42-.91-.71l.04-4.9-2.49-.35c-.31-.04-.94-.57-1.07-.87-.16-.38.65-1.19,1.07-1.22l2.61-.2.83-4.25c1.08,1.5.87,2.88.97,4.25l3.25.53c-.95,1.14-1.9,1.33-3.23,1.81l-.56,4.97Z"/>
        <path class="cls-2" d="M368.69,83.2c-2.04.22-3.63-.38-4.66-1.74-1.02-1.34-.73-3.16.21-4.79.8-1.38,2.15-2.42,3.65-2.42,3,0,5.27,4.36,4.32,6.78-.47,1.2-1.92,2-3.53,2.17ZM370.94,80.99c.75-1.74-.46-5.31-2.64-5.26-2.51.06-4.15,3.58-3.3,5.17,1.17,2.21,5.36,1.44,5.94.09Z"/>
        <path class="cls-2" d="M347.28,30.57c-.64-2.11-.55-4.46-.58-6.48l-3.67-.66c1.14-1.54,2.18-1.02,3.78-1.18l.64-5.06c.02-.16.26-.65.3-.76.06-.17.74.27.74.46l-.11,5.24c1.57.2,2.58.32,3.95.93-1.33.71-2.48.82-3.89.91-.87,2.02.73,4.37-1.15,6.61Z"/>
        <path class="cls-2" d="M398.63,61.81c-.02.4-.72,1.33-.99,1.15s-.64-.87-.63-1.24l.04-3.82-2.3-1.08,2.44-.48.37-3.9c.02-.2.35-.71.46-.87s.61.62.62.84l.16,3.98c2.11.77,2.55-.06,3.26,1.45.11.23-.7.54-.98.53l-2.28-.06-.16,3.52Z"/>
        <path class="cls-2" d="M347.07,92.47c-.02.39-1.22,1.19-1.23.87-.07-2.32.09-4.19.27-6.28l-2.12-.69,2.16-.93.78-4c.46,1.38.48,2.33.53,3.88l2.36.34c.16.02.51.31.63.43.17.17-.38.84-.63.85l-2.48.11-.29,5.42Z"/>
        <path class="cls-2" d="M511.98,265.89l11.65-.54,25.71-1.5,21.38.45c5.14.11,9.93-2.63,7.27-3.43-2.29-.69-4.84-1.1-7.25-1.04-4,.09-7.7,0-11.67-.23-12.07-.74-23.73.31-35.82,1.14-14.8,1.02-29.17,1.21-43.92,1.39-4.91.06-9.62.3-14.42.75-.1,0-.52-.06-.51-.16l.06-.59c.31-3.19.08-6.22.05-9.46l-.26-26.86c-.05-5.22-.2-10.03-.75-15.18-.54-5.08-.61-10.11-.73-15.27l-.42-18.13-.5-13.54-.29-14.93c-.12-6.32-1.17-10.54-4.62-15.68-1.34-1.99-2.6-3.79-4.17-5.67-5.59-6.72-4.35-4.14-5.12-13.61,1.23-.53,3.11-.93,3.77-1.79,2.31-3.04.63-7.17-2.42-8.78-1.15-.6-2.23-1.32-3.33-1.7l-7.07-2.49c-6.25-2.2-17.19-4.74-23.6-4.47-.17,0-.77-.52-.6-.52l1.41-5.44c.03-.12.02-.69.03-.83l.03-.62c0-.14.02-.53.06-.71,1.43-6.91-7.73-8.78-12.87-9.08l-6.59-.38c-6.04-.35-10.52-.81-15.5,3.72-1.32,1.2-1.84,3.37-1.72,5.21l.43,6.5c0,.15,0,.7-.01.82,0,.11-.17.05-.54.06l-6.13.36c-3.48.2-5.82-.44-9.05.67-3.9,1.35-15.9,2.37-20.91,3.51-3.18.72-6.34,2.43-8.68,4.74-1.75,1.74-2.56,4.54-3.05,6.83-.89,4.23,3.95,3.92,4.4,5.18-2.95,9.9-3.42,6.86-5.05,8.48-2.39,2.37-4.97,4.88-6.24,8.03-2.46,6.08-1.46,14.24-2.02,21.53-.72,9.34-1.37,18.48-1.15,27.86l.37,15.97c.18,7.83-.07,15.34.3,23.19.28,5.99.34,11.78-.09,17.75l-1.01,14.13,1.13,10.61-20.44.02-25.29-.45,2.77-28.99,1.28-14.51c.23-10.99,2.05-21.53,2.76-32.49l1.64-25.27.78-19.66c.29-7.2.93-14.13,1.76-21.3.97-8.36,2.77-16.39,3.03-24.84.16-5.15.15-9.93.94-14.98.86-5.54,1.37-10.93,1.69-16.56.14-2.43-.22-4.85-.45-7.22-.38-3.85-2.2-6.9-5.56-8.8-3.35-1.89-6.84-3.19-10.55-4.3l-8.59-2.57c-9.55-2.85-17.89-2.9-28.74-5.72-6.84-1.78-13.51-2.2-20.61-2.26l-22.05-.18c-3.44-.03-6.78.45-10.2.76l-12.68,1.15-8.8.98c-4.15.46-8.29.51-12.33,1.59l-16.72,4.51c-3.11.84-15.24,1.86-14.46,9.78.72,7.28,1.48,14.38,2.59,21.7,1.39,9.17,2.68,17.91,3.53,27.16l2.4,26.03,3.13,25.44c.58,4.73,1.42,9.05,2.19,13.73l4.44,27.12c.94,5.74,1.85,11.05,2.78,16.81l3.97,24.59,4.01,24.35-.54.42c-7.62-.6-14.9-1.07-22.53-1.12l-25.81-.16-21.76-.08-19.58-1.44c-7.23-.53-14.13-.86-21.37-.77-5.39.07-10.58,0-15.91-.43-6.14-.49-11.98-.42-18.17-.22l-22.76.74c-1.39.05-2.84.9-2.6,2.28l25.72.32,12.71.04c14.69,1.42,27.19.23,42.05,1.83-7.07,11.34-12.75,22.79-18.33,34.7l-13.22,28.22-11.27-.9c-7.06-.57-13.85-1.06-20.91-.89-.73.02-1.69,1.16-1.62,1.74.07.61.99,1.45,1.7,1.55,2.72.37,5.11.69,7.83.91l21.33,1.72c.29.02.75.03.71.17-.04.14-.16.67-.23.81l-6.39,12.99-6.56,12.42-18.69,35.24-6.29,12.62c-1.25,2.5-2.99.99-3.12,2.76-.04.48.48,1.23.95,1.82l-5.52,12.11.67.79c4.51-2.79,6.95-7.94,9.26-12.55l15.7-.21c12.23-.16,24.1-.39,36.29.25l14.49.75,42.69.21,25.16-.87-5.68,12.64c-.61,1.36-.94,2.8-.79,4.29,1.59-.05,3.03-1.08,3.78-2.54,2.45-4.73,4.6-9.53,6.78-14.49l19.02-.39,48.08-.24,26.92.46,19.07.23,26.8.67,16.84.6-.26,6.51c-.04,1.07.31,9.25,2.56,9.01.27-.03.88-.49,1.03-.74,2.76-4.63-.91-9.23.05-14.61l38.65.06,22.12-.53,12.02.3,49.07.18,18.81.14.97,7.47c.28,2.15,1.61,10.66,4.43,10.25.55-.08,1.41-1.33,1.28-1.9l-1.8-8.12-1.01-7.59,16.99-.33,16.33-.69,40.55-.29,9.69-.41,28.41-.72c5.98-.15,11.69-1.03,17.68-.95.85,2.13,3.41,11.91,6.49,10.84,1.28-.44,1.52-2.26,1.09-3.46l-2.45-6.8c-.04-.12-.11-.67-.11-.68,0-.01.47-.18.66-.21l7.79-1.17c.88-.13,1.57-.27,2-1.15-3.89-.48-6.98-.38-10.76-.22-.44.02-1-.8-1.19-1.22l-4.66-10.68-11.01-24.15c-6.01-13.18-11.88-26.01-16.95-39.7l32.03-.63c2.3-.05,4.34-.07,6.39-.44.16-2.04-2.21-2.38-3.04-2.4l-16.38-.1c-6.81-.04-13.4-.26-20.28.2l-8.88-24c-3.11-8.4-10.18-23-12.31-31.56-.05-.22.52-.34.85-.35ZM454.02,169.13c3.87-.26,1.83,9.7,1.92,11.71l.84,18.13.3,9.08.72,17.76c.22,5.33.07,10.58.45,15.86l1.01,14.2c.2,2.79,1.11,9.37-.86,10.86-3.01,2.29-8.72-1.88-11.5-3.92-2.32-1.7-5.05-2.73-6.98-4.76-7.79-8.2-10.24-12.64-14.55-23.27-2.26-5.57-4.36-15.94-3.89-22,.93-11.71,1.77-10.92,6.27-20.36l3.53-7.4c4.17-8.74,12.8-15.25,22.73-15.91ZM334.12,257.44c-1.02-10.8-1.65-21.28-1.07-32.24,1.47-.81,7.44,1.09,7.75,2.46l1.42,6.29c1.5,6.62,2.82,13.13,5.13,19.41l-.42-11.62-.02-9.47c0-.48.15-1.34.38-1.65,1.03-1.38,5.56.51,6.99,1.47l.44,14c.11,3.58.31,6.83.87,10.55,1.27,8.38,1.05,16.5.51,24.74-.03.45-.34,1.39-.67,1.58-.4.24-7.06.06-8.33-1.55-1.4-8.26-1.55-13.33-4.67-21.54.4,5.02.62,10.02.18,15.26-.1,1.16-1.02,2.31-2.2,2.41-2.01.18-4.03-.32-5.78-1.39.24-6.39.08-12.37-.52-18.71ZM350.16,164.52c.17-2.52,3.87-3.5,5.87-3.02,2.82.67,4.51,2.26,6.16,4.32,3.14,3.91,4.49,8.54,4.32,13.61-.16,4.71-.84,9.27-3.28,13.28,5.63-.16,6.32,7.8,6.87,11.69.46,3.25,2.57,13.62-2.75,12.4-1.66-.38-2.77-.54-4.93-.79l-.13-4.58-.48-8.62c-.02-.36-.51-1.1-.76-1.3-.29-.24-1.15-.2-1.49-.02l1.32,10.61c.07.59-.14,1.76-.48,2.15s-1.4.62-1.97.61l-4.13-.1c-.83-.02-.74-2.25-.83-3.08l-1.67-14.71c-.93-8.17-1.22-16.14-1.09-24.41.04-2.66-.72-5.39-.55-8.02ZM344.6,124.35c-1.53-.34-3.32-.28-4.19-2.09l8.74,2.52c6.54,1.88,31.31,3.91,38.91,4.04,3.63.06,7.2-.09,10.86-.24l8.71-.35c4.76-.19,9.37-.64,14.14-1.16,3.27-.36,6.46-1.44,9.67-2.12l11.61-2.48c-.04.51-.96,1.26-1.59,1.4l-11.8,2.71c-9.08,2.09-18.09,2.68-27.49,2.97-9.91.31-19.51.59-29.34-.43l-9.29-.97c-3.94-.41-7.75-1.3-11.65-2.17l-7.3-1.63ZM345.94,139.17c-.4.25-1.87.05-2.01-.46-.79-2.82,0-7.81,2.98-7.27,1.2.22,3.12,5.17-.98,7.73ZM340.06,138.08c-2.11-.43-1.64-4.87-.38-6.96.6-1,1.8-1.26,2.74-.71,2.02,3.26-.63,8.03-2.36,7.67ZM439.4,139.28l.07.8c.01.16-.35.37-.5.37-.24-.01-.74-.55-.79-.83l-1.31-6.25c.67-.78,2.42-1.47,3.29-1.17,1.8.62,1.49,2.56.95,3.8,1.66.7,3.08,2.36,1.83,4.31-.96-.46-.68-2.96-1.9-3.11-.43-.05-1.42,0-1.64.33-.21.34-.03,1.25.01,1.75ZM433.88,137.4l2.01-.36c.13-.02.51.44.4.51l-.71.43-1.43.86c-.37.22.03,1.65.18,1.7l3.13-.6c-.26,1.87-3.33,2.6-4.07,1.36-1.02-1.73-1.27-4.43-1.22-6.48.03-1.19,2.27-2.09,3.29-1.08l-1.97,1.2.39,2.45ZM426.5,143.34l-1.17-6.52c-.05-.26.49-1.14.65-.99.16.15.57.59.63.79l.62,2.17,2.52-.88c-.27-1.31-.67-2.14-.1-3.21.83,1.96,2.43,6.23,1.91,8.03-.05.18-.69-.26-.74-.43l-.8-2.58-2.39.59c-.39,1.19.82,2.22-1.14,3.02ZM405.92,260.03c-1.68-.61-5.96.71-7.53-2.22-1.63-3.06-1.66-6.51-1.85-9.91l-.56-10.19-.41-3.29c1.42-.99,6-1.08,7.32-.93.45.05.88,1.14.93,1.62l.96,8.82c.19,1.7.52,6.74,1.62,7.47,1.72,1.13,1.75-4.4,1.55-6l-1.4-11.39c-.34-2.74,4.12-2.56,6-2.28.69.1,1.18,1.71,1.26,2.43l1.39,12.67c.4,3.66.52,7.22,1.19,10.87,1.13,6.14,1.53,12.1.49,18.27-.68,4.03-2.69,7.54-6,10.09-2.44,1.88-8.04,3.33-10.27,1.62-.49-.37-.87-1.67-.81-2.4l.55-5.78c1.47-2.23,5.97.54,6.44-4.19.5-5.06-.09-10.12-.9-15.27ZM371.24,288c-1.37-.41-2.11-.37-4.35-.29l.72-9c.11-1.33.55-11.64-2.48-9.34.23,5.21.25,10.41.04,15.63-.03.64-.85,1.76-1.43,1.69-3.67-.43-5.36-.06-5.31-2.06.14-6.85.51-13.49.16-20.43l-1.21-23.91c-.12-2.4-.18-4.64.58-6.96,1.68-1.57,8.66,1.83,10.07,2.96,2.82,2.25,4.03,5.67,4.95,8.99,1.81,6.49.39,11.28-3.2,16.72,6.14,2.37,4.65,11.88,4.56,17.8-.03,2.23.74,9.36-3.11,8.2ZM373.76,217.1l.24-9.99c.11-4.63-.32-8.97-.8-13.57l-1.25-11.99c-.17-1.65.29-3.71.43-5.28-1.05-.07-2.3-.17-3.14-.61-.73-.38-1.46-1.85-1.47-2.8l-.03-6.88c0-.97,1.24-1.45,2.08-1.39,4.87.39,9.29.55,14.35.63.89,2.2,1.13,4.52,1.4,7.03.1,1,1.04,3.31-.58,3.74-1.42.37-3.18.15-5.11.16.24,3.71.56,7.38,1.03,11.19l1.65,13.5c.38,3.09.12,6.22.28,9.39.14,2.69.22,5.54-.44,8.26-1.77,1.37-4.2.86-6.15.75-1.3-.07-2.52-.62-2.48-2.15ZM369.1,139.26c1.05.21,2.1-.13,2.75,1.17l-3.1-.33c-.23.39-.49,1.84-.43,2.36l3.09.19,2.81-5.56c.27-.53,1.5-1.11,2.02-1.01,2.62.46,3.3,9.58,2.2,8.53-1.13-1.09-.62-1.28-1.17-2.96l-2.89-.65c-.5.89-1.14,2.63-1.92,2.6-2.3-.62-2.54.93-4.38.23-1.66-.63-.57-5.07-.19-6.77.3-1.38,3.34-1.48,3.68-.05l-2.01.58c-.45.13-.5,1.19-.46,1.66ZM384.45,142.08c-1.35-1.2-3.85.11-4.66-1.4-.25-.46-.06-1.67.32-2.12,1.04-1.22,4.16-1.88,5.15-.19.72,1.22-3.87-.23-4.44,1.61l3.2.66c1.23.25,2.21,1.55,1.37,2.94-.88,1.46-2.51,2.28-4.25,2.22-.65-.02-1.58-.92-1.73-1.37l3.74-.41c.62-.07,1.75-1.54,1.3-1.94ZM377.19,242.18c.35-2.29,1.27-4.67,2.99-6.17,1.48-1.29,8.32-1.51,11.27,2.36,2.34,3.06,3.36,6.81,3,10.71-.25,2.73-3.39.41-7.21,1.75-1.06-2.28-.36-4.02-1.57-6.77-2.02-.83-2.11,14.96-2.1,15.06l1.07,14.72c.2,2.82,2.4,5.96,4.81,5,1.82-.72,2.13-3.59,1.91-5.69-.82-.42-4.45.92-4.37-.63l.27-5.77c3.39-.87,6.29-.69,9.53.35.9,2.61,1.09,5.2,1.15,7.97l.16,7.62.15,4.02c-3.56,1.38-9.39,1.95-13.06,1.2-3.83-.79-5.91-3.79-6.36-7.4l-.77-6.2c-.97-7.85-1.92-15.53-1.85-23.46.03-2.92.55-5.81.98-8.67ZM395.38,167.06l4.55,15.31,2.35-17.36c.15-1.1.29-2.59,1.78-2.7,2.19-.15,4.49.28,6.68,1,.11.97.14,2.16-.05,3.08-1.67,8.13-2.22,16.03-3.34,24.25l-2.78,20.31-.8,7.37c-.04.33-.83,1.05-1.11.99-.34-.07-.97-.58-1.09-.94-.74-2.13-1.61-4.28-2.26-6.53l-2.41-8.41-6.2-21.71c-1.62-5.67-3.35-10.86-4.38-16.94,2.55-.44,4.83-.73,7.04-.81,1.8-.06,1.7,1.96,2.03,3.08ZM393.79,139.26c.75-.62,2.13-1.45,2.99-1.55,1.35-.15,1.53,1.54,1.93,2.47.38.87,1.65,1.83,1.24,3.08-.83,2.54-3.97,3.55-6.08,1.87-.27-1.69-.24-4.04-.09-5.88ZM403.88,140.9c.39,1.46-2.19-.32-1.62,3.77l2.34.19c-.46.86-1.01,1.28-1.51,1.43-.54.17-2.14-.21-2.24-.78-.1-2.21-.17-4.75-.04-6.94.08-1.32,2.86-1.35,3.41-.51.66,1-2.03.37-1.98,1.69.02.69.58.86,1.64,1.15ZM407.08,144.95c.28.4,1.33-.33,1.44-.81.19-.82-.16-1.68-1.14-2.3-.31-.26.76-1.11,1.19-1.02,1.25.28,1.91,2.76.79,4.55-.38.6-2.11,1.26-2.69.62-1.95-2.12-2.13-5.44-1.03-8.01.35-.81,1.75-1.21,2.51-1.12.9.11,1.56.79,1.71,2.02l-2.65-.38c-1.06,1.76-1.43,4.54-.11,6.43ZM411.8,137.27c.17-.16.7.65.71.91l.19,5.82c0,.27-.39.92-.5,1.11-1.01,1.64-1.73-6.6-.41-7.84ZM414.69,139.31c0,2.29.13,4-.58,6.04-.69-2.88-.69-5.02-.56-8,.63.19,1.5.57,1.81.93l3.79,4.42c-.33-1.97-.5-3.57-.6-5.33.59-.21.64-.28.72-.19.12.14.45.71.48.91l.94,5.75c.04.26-.17.91-.3,1.08-.17.23-1.02-.05-1.23-.3l-4.46-5.3ZM364.38,142.81c-.34.29-1.38.54-1.81.39-2.21-.78-.71-5.96-.17-7.92l2.83-.06c1.4-.03,2.93,4.27-.86,7.59ZM359.93,141.81c-1.53,2.5-.7-7.71,1.12-7.32.46,1.53-.48,6.27-1.12,7.32ZM350.45,133.06c.47-.88,2.5-.64,3.29-.14.86.54,1.68,1.69,1.81,2.96.15,1.46-.26,3.02-1.74,3.77-1.27.65-4.16.49-4.71-1.06-.4-1.57.55-4.01,1.36-5.54ZM348.98,294.97l7.3,2.16c2,.59,4.16,1.24,6.24,1.38l8.87.58c6.98.45,13.66,1.1,20.6.99l11.29-.17,7.99-.23c7.13-.2,13.95-1.02,20.44-4.03,4.25-.49,8.3-.84,12.46-1.82l6.41-1.52c.76,3.48-1.05,6.69-4.48,7.78-2.56.81-5.22,1.82-7.92,2.17l-16.08,2.06-10.07.6c-10.09.6-19.96,1.43-30.16.68-4.32-.32-8.3-.96-12.69-.96-1.71,0-3.61-.77-5.28-1.17-2.82-.68-5.58-.7-8.51-.93-2.8-.22-5.45-.96-8.25-1.53-3.8-.77-4.74-4.18-4.85-7.66,2.49.31,4.47.98,6.69,1.63ZM448.84,136.34c-.06,1.12-.76,1.89-1.41,2.09-.93.29-2.69.36-3.08-.42-.93-1.84-1.33-3.98-1.14-6.02.1-1.07,2.23-1.81,3.22-1.47.5.88-2.05,1.23-2.05,2.06,0,.38.23,1.37.32,1.51,1.25-.46,2.09-1.12,2.84-.18-.3.45-1.63,1.11-2.51,1.39-.46.15-.33,1.76.14,2.03,1.09.42,2.29-.46,3.66-.99ZM428.43,98.51c2.25.59,4.49.97,6.66,1.67l8.25,2.67c2.37.77,4.33,1.57,6.45,3.4-1.22.75-2.3,1.22-3.54,1.5-3.12.7-5.93,1.66-9.02,2.55-3.26.94-6.82.69-10.18,1.14-4.16.55-8.22.89-12.4.99.75-2.2,1.12-4.05,1.08-6.25-.04-2.53-1.76-4.44-4.09-4.85l2.27-5.27c4.91.23,9.73,1.19,14.51,2.45ZM381.27,90.6c.13-2.51.02-5.53,1.88-7.39,3.2-3.22,7.77-3.16,12.03-2.91,5.33.32,10.45.32,15.74.93,1.41.16,2.85,1.88,2.69,3.18-.78,6.36-.78,12.05-4.57,16.65-1.22,1.49-2.84,2.41-4.45,3.78-10.05,1.96-9.1,1.39-17.4-.69-2.22-.56-3.21-1.92-4.05-3.85-1.36-3.14-2.06-6.16-1.87-9.7ZM380.01,95.1l.95,5.78-4.32.29-.47-2.26,3.36-.85c-.83-.95-2.16-.76-3.55-.64-.38-.44-.91-1.27-1.33-1.99l5.36-.33ZM364.13,96.69c1.06-1.35,2.97-2.32,5.08-2.26,2.23.06,4.39,1.04,5.04,3.39.46,1.67.62,4.67-1.07,6.05-.96.78-8.11,3.32-9.72-1.25-.7-1.99-.71-4.18.67-5.94ZM344.52,99.79l10.62-1.77,7.32-1.39-.68,2.24c-6.97.4-13.58,1.67-20.21,3.84-1.29.42-2.85.31-3.24,2.2,2.67.38,5.04-1.72,10.16-2.68l13.27-2.49c0,3.38,1.27,6.19,4.02,7.7l-3.3,4.86-10.89-1.68c-2.65-.41-5.06-1.23-7.74-1.35-3.23-.14-6.06-.98-8.93-2.61-.4-3.2,7.27-6.48,9.59-6.87ZM335.23,112.38l-.4-2.62c3.86,1.72,7.41,1.89,11.55,2.13,2.29.13,4.64,1.17,6.96,1.54l16.89,2.65c6.65,1.04,13.29.18,19.96.24,4.19.04,8.05.06,12.16-.33l14.7-1.37,10.15-1.08c3.37-.36,6.67-.59,9.99-1.25,1.96-.39,3.91-1.22,5.81-1.72l6.51-1.7c-.17.61-.55,1.69-.88,2.38l-9.47,3.18c-3.98,1.34-7.82,1.59-11.95,2.31-9.35,1.64-18.43,3.42-27.89,4.35-6.24.61-15,.14-21.42-.4-9.1-.77-17.86-1.97-26.68-4.13l-7.64-1.87c-2.75-.67-5.46-1.39-8.34-2.32ZM333.01,132.07c.17-1.18,1.13-2.43,1.94-2.73,1.31-.48,2.96-.71,3.62.81-1.15.19-2.72.26-3.33.74-1.6,1.25-1.36,3.48-.38,5.06.38-.05,1.15-.7,1.15-1.08,0-.37-.3-1.3-.47-1.77-.09-.24.69-.67.86-.52,1.26,1.11.66,3.36-.03,4.23-.28.35-1.21.57-1.6.43-1.56-.54-1.98-3.58-1.75-5.18ZM332.77,170.38c.32-3.16.17-6.19,2.26-8.84,1.15-1.45,3.15-3.12,5-3.65,4.94-1.41,8.21,7.19,8.98,10.95-.49,1.1-4.33,3.99-5.03,4.16-1.02.25-1.71-3.4-3.46-4.36-1.25,2.01-1.28,3.67-1.74,5.7-1.25,5.54-.42,11.27.37,17.04.55,4.02,1.37,7.73,3.85,10.91,2.31-2.44,1.36-7.57,3.84-5.55l3.64,2.95c.95.77-.01,2.8-.18,3.84-.54,3.45-1.58,9.04-5.98,9.37-1.84.14-3.87-.41-4.88-1.94-2.51-3.82-3.34-7.99-4.53-12.26-2.58-9.31-3.14-18.66-2.16-28.3ZM291.94,318.56l.76-13.78c.69-12.42,1.1-24.49.89-36.91,0-.54.26-1.62.67-1.84h27.95s1.62,6.19,1.62,6.19c1.06,4.04,5.9,9.4,7.59,13,1.38,2.94,5.71,5.91,8.51,7.48.25,2.32.5,4.96,1.55,7.02,1.34,2.62,3.77,3.17,6.36,3.75,4.11.92,8.03,1.22,12.18,1.8l8.67,1.2,12.33,1.04c10.58.9,21.03-.22,31.82.92l2.49,15-33.44.05-15.64.45-27.64.16-13.31.52-31.04.19-2.73.04.4-6.26ZM125.1,47.64c.22-.78,1.6-1.53,2.32-1.87,3.99-1.87,8.07-2.57,12.42-3.18,5.54-.77,10.71-2.03,15.91-3.95,7.94-1.94,15.74-1.92,23.87-2.42l14.14-.86,24.28-.52c6.06-.13,11.82.99,17.77,1.78l13.81,1.81c4.76.63,9.21,1.61,13.83,2.93l10.46,2.99c3.45.99,13.89,4.46,14.63,8.26.15.76-.82,2.56-1.57,2.85l-3.95,1.52-5.89,2.09-6.1,1.93c-6.78,2.15-13.38,3.94-20.52,4.39l-14.13.9-19.22,1.49c-4.65.36-9.28.91-13.99.76l-18.48-.58c-7.28-.23-20.72-1.76-27.42-4-14.44-4.83-19.74-1.92-31.26-11.79-1-.85-1.26-3.35-.92-4.54ZM261.17,236.48c-.23-2.09.45-4.56.85-6.65.64-3.28.92-6.4,1.26-9.7.47-4.53,1.25-8.94,1.3-13.54.06-5.93.05-11.6,1-17.45.61-3.76.65-7.37.99-11.15l1.06-11.79c.12-1.35.38-2.64,1.14-3.78.83.52,1.42,1.57,1.44,2.47.19,12.73.21,13.89-2.2,26.13-.89,4.49-.6,8.85-.94,13.42l-1.99,26.76c-.19,2.49-.31,4.91-2.07,5.95-.38.22-1.78-.18-1.83-.67ZM261.7,251.3l-1.59,8.49c-.16.87-1.02,1.71-1.91,1.79.24-5.32.76-10.28,1.44-15.6.07-.52.89-1.28,1.34-1.27,1.97.03,1.01,5,.71,6.58ZM262.18,134.06c-4.99,5.03-8.46,11.33-9.05,18.58-.32,3.97.09,7.9.11,11.92l.07,14.51-.53,24.64c-.18,8.47-.16,16.56.57,24.99.27,3.09.16,6-.11,9.09l-2.03,23.15c-.58,6.59-.19,12.96.06,19.57.05,1.46-.48,2.72-2.17,2.89-.76-9.27-.89-18.23-.47-27.51l1.08-23.92c.31-6.77-.02-13.18.25-19.95l.85-21.65c.26-6.69.51-13.12.33-19.8l-.37-13.57c-.1-3.62-1.56-7.15-3.41-10.2-4.98-8.2-15.95-9.05-24.28-4.11-3.31,1.96-6.27,4.13-8.75,6.9-2.69,3-2.76,9.19-2.38,13.16.6,6.44.18,12.72.04,19.2l-.37,16.67-.13,26.72.3,27.99.02,19.18-.32,16.52c0,.32-.66.91-.94.93-.35.02-1.05-.65-1.06-1.08l-1.14-40.25.09-44.91c.01-6.82-.72-13.19-.46-19.97.31-8.34.63-16.38.38-24.69-.09-2.9-.9-5.45-2.37-7.92-1.28-2.15-2.32-4.46-4.32-6.13-4.12-3.44-9.7-5.77-15.22-5.41-3.09.2-6.15,1.73-8.86,3.07-2.77,1.37-6.03,5.63-5.77,8.84.88,10.74,1.33,21.11,1.37,31.86.02,5.76.65,11.04,1.26,16.7.55,5.08.64,10.1.78,15.2l.42,15.2.84,20.69.45,20.29.11,11.82c-.81.22-1.9.05-2.45-.41-1.49-1.25-1.14-15.23-1.16-18.28l-.11-13.05.08-14.14-.78-14.84-.5-12.62-1.11-23.26-.37-12.41c-.21-7.07-.81-13.88-1.64-20.91-.45-3.89-1.45-7.32-2.86-10.9-2.36-6.01-6.58-10.39-12.41-13.21-3.2-1.55-6.24-2.73-9.97-2.35-1.13.12-2.18-.73-2.23-1.6-.09-1.49.67-2.04,1.99-2.33,3.31-.74,6.24-.12,9.18,1.37,7,3.53,12.92,9.23,15.91,16.55l2.11,5.18c1.4-3.76,4.57-6.23,8.25-7.54,5.66-2.03,7.93-3.14,13.99-1.15,9.44,3.1,11.6,6.49,16.56,14.53,1.34-2.26,2.7-4.24,4.67-5.66l7.38-5.32c6.72-4.85,15.73-4.97,22.66-.43,3.53,2.31,5.33,5.84,6.8,9.78.06.61.12.59.43.12.9-7.21,3.97-13.1,8.47-18.49,2.84-3.41,5.97-6.3,10.75-6.8,1.03-.11,2.57.44,3.65.8,1.91.63,3.13,2.16,2.35,4.39-.76-.16-1.79-.44-2.46-.74-5.07-2.29-8.53.97-12.07,4.54ZM261.96,119.41l-14.89,3.84c-7.92,2.04-15.75,3.25-23.89,4.46-13.5,2.02-26.18-.1-39.6-2.2-6.86-1.07-13.2-3-19.85-4.72-6.3-1.63-11.84-3.87-17.3-7.43-1.44-.94-3.5-1.26-4.64-2.6-.92-1.08-1.44-2.59-.08-3.52.62.46,1.51,1.6,2.19,1.98,4.3,2.43,8.56,4.66,13.21,6.32l12.83,4.58c6.45,2.3,27.29,6.19,33.24,5.89l15.61-.77c12.07-.59,23.48-2.6,35.08-5.74,8.07-2.18,15.7-4.69,22.61-9.97,1.34.73,1.34,1.73.95,2.84-.9,2.61-12.22,6.18-15.48,7.02ZM155.65,101.05c1.72-.86,3.65-.86,5.49-1.32,4.55-1.15,9.19-2.65,13.86-3.24,1.27-.2,2.55-.36,3.84-.48,3.2-.31,6.42-.41,9.63-.3,1.59.06,3.21.31,4.8.29,1.07-.01,2.02-.18,2.72.94.39.62.49,2.51-.33,2.68-2.75.57-5.34.25-8.08.17-6.28-.17-12.29.77-18.42,2.05-2.81.59-5.68,1.04-8.54,1.3-1.52.14-3.24.35-4.76.06-1.76-.34-1.79-1.36-.2-2.16ZM204.6,97.32c-.68,1.78-2.92,1.83-4.18,1.2-.37-.19-.73-1.2-.5-1.54.97-1.48,2.35-1.31,3.59-1.29.49,0,1.3,1.09,1.09,1.64ZM207.56,117.93c.97-.19,4.28.07,3.68,1.76-.52,1.48-5.74,1.21-7.18,1.36-.95.1-4.4.14-4.14-1.53.13-.83,1.19-.52,1.84-.55,1.94-.1,3.89-.66,5.8-1.03ZM260.15,106.67c-.4-1.06-1.68-1.43-2.79-1.66-1.37-.29-2.74-.57-4.1-.86-2.24-.47-4.91.08-7.01-.69-.55-.2.89-1.32,1.09-1.38,2.82-.85,7.06.43,9.96.74,2.84.31,5.52.83,7.74,2.82,4.65,4.16-9.83,8.94-12.46,9.63-2.05.54-4.16.88-6.18,1.53-3.55,1.06-7.1,2.03-10.77,2.6-3.56.55-7.13.55-10.7.87-1.41.13-2.87.26-4.22-.16-.48-.15-1-.43-1.1-.92-.02-.11-.03-.21-.02-.31.14-1.56,4.45-.94,5.38-1.06,0,0,9.77-1.28,9.77-1.28,7.81-1.03,16.63-1.76,23.28-6.29.62-.42,1.26-.86,1.71-1.46.45-.6.69-1.42.42-2.13ZM277.14,103.66l-8.46-5.04-5.5-2.05c-3.1-1.16-5.63-1.75-8.81-2.28l-7.68-1.28-23.56-1.84c-5.18-.41-10.02-1.23-15.24-1.09-6.96.19-13.71-.04-20.68.59-7.64.69-14.92,2.02-22.47,3.15-3.76.56-7.29,1.6-11,2.37-5.42,1.13-10.18,3.47-14.66,6.8-2.62-12.2-1.67-21.84-4.62-33.81-.55-2.91-.89-5.72-1.01-8.53,3.06,1.77,5.71,3.1,8.89,3.92l12.44,3.18c4.13,1.05,8.23,1.47,12.48,2.08,6.2.9,12.18,1.29,18.44,1.49l12.76.39,18.14-.57,22.95-1.33,11.45-1.68c5.52-.81,11.03-1.01,16.45-2.33,3.26-.79,6.36-1.73,9.5-2.81l4.6-1.58c.16,10.16-1.68,19.85-1.95,29.92l-.39,14.38c-.61-.65-1.37-1.63-2.07-2.05ZM148,217.92l-1.97-11.69c-.81-4.84-1.39-9.43-2.49-14.19-1.05-4.55-1.23-9.06-2.05-13.67l-3.81-21.41-2.19-14.87-2-14.97-1.94-23.08c-.5-5.92-.76-11.56-1.9-17.4-2.04-10.42-3.84-20.59-4.77-31.04l5.08,2.93,2.77,16.9c1.19,7.26,1.53,14.36,1.95,21.7.28,4.84,1.11,9.36,1.66,14.16.66,5.73.88,11.28,1.51,17.03l2.26,20.68c.65,5.97,1.38,11.45,2.31,17.4l5.16,32.9,1.63,10.34c2,12.76,3.35,10.3,3.49,25.57.03,2.79.87,5.36,1.38,8.06l5.35,28.36c.4,2.13.47,4.77,1.99,6.37,2.32,2.44,5.31,3.98,8.1,5.77,3.36,2.16,6.85,3.77,10.77,4.56,5.51,1.1,10.78,1.78,16.36,2.55,5.36.73,10.43,1.74,15.84,2.12,4.14.3,8.18-.51,12.33-.57,4.73-.06,9.23-1.11,13.74-2.55l7.43-2.37c3.39-1.08,6.38-2.56,9.46-4.3,3.66-2.06,7.17-4.02,9.92-7.25,1.01-1.19,2.11-2.74,2.2-4.35.41-7.73,1.2-15.12,2.66-22.71.79-4.11,1.1-8.07,1.68-12.21l1.58-11.4,1.76-10.48c.78-4.66.69-9.28.91-14.03l.93-20.35,1.05-21.61,2.01-20.37c.7-7.08.45-13.92.72-21.01l.56-14.85c.17-4.49.21-8.83.79-13.22.32-2.4.61-4.67.75-7.11.46-8.11,2.14-13.51,1.56-21.03-.09-1.12.32-1.66,1.23-2.07l2.66-1.19c-.05-.06.16.21.29.38-.87,5.67-1.71,10.98-1.87,16.67l-.57,20.7c-.24,8.58-1.32,16.84-2.18,25.34l-1.51,14.86-1.27,18.49-1.77,24.66-2.95,33.95-1.46,11.56c-.88,6.92-1.57,13.67-2.11,20.66l-2.02,26.19-.77,10.67-8.82,6.19-9.93,7.88-.04-9.87c-.89.19-1.89.7-2.51,1.29l-.49,11.41-6.76,1.69-9.93,2.11c-3.49.74-7.05.47-10.57,1.07l-9.41,1.61c.13-1.41.18-2.77.1-4.25l-.37-7.03c-.02-.32-.3-.82-.53-1-.23-.18-1.45.13-1.46.52-.13,3.63-.41,8.52.15,12.05-4.83-1.71-10.14-1.85-14.8-3.26-3.28-.99-6.32-2.02-9.68-2.63l-7.69-1.38c.36-3.48.03-6.71-.35-10.32l-3-.77-.04,9.45-2.77-1.9c-4.62-3.17-8.99-6.37-13.83-9.31-.58-8.21-2-16.03-3.15-24.21l-4.08-29.04-2.24-14.45ZM38.18,310.39l8.1-16.87c4.92-10.25,9.53-20.32,15.05-30.24.71-1.27,1.14-2.55,1.54-3.93l13.17,1.13,12.97.41,24.65-.15,23.56.73,13.57.85,2.99,22.89c.12.91.8,2.18,1.48,2.63l6.12,4.09c1.53,1.03,2.9,1.93,4.49,3.18-1.85,3.38-2.05,6.76-3.26,10.25l-6.79,19.52c-3.57.15-7.02-.38-10.64-.43l-20.29-.25-9.83-.35-39.09-.04-15.24-.86c-7.09-.4-13.94-.14-21.01-.49l-6.97-.35,5.42-11.73ZM126.06,400.6l-25.83,1.05-34.76.04-15.33-.74-16.58-.83c-14.98-.83-26.58,1.1-41.93,1.48l10.4-20.44,14.45-27.12,7.15-13.57,7.01-14.09c3.16-.06,6.47-.13,9.8,0l14.49.53c4.3.16,8.4.26,12.66.75,3.82.44,7.38.8,11.29.82l39.47.26,25.76.62,9.85.54-8.33,20.41-5.37,12.38c-2.08,4.81-3.87,9.34-5.72,14.45l-8.5,23.48ZM287.19,338.5l-.56,12.32-.56,12.68-.51,7.92-.24,17.44c-.06,4.4-.4,8.63-.28,13.06l-26.74-.99-19.6-.49-24.63-.11-16.59-.46-52.75.35-14.54.25,8.59-24.26c1.68-4.75,3.47-9.1,5.58-13.66,2.82-6.1,5.27-12.07,7.77-18.32l5.73-14.34,11.01.55,29.96.16,14.89.35,26.44-.12,10.31-.43,22.66-.16,14.16-.47-.11,8.71ZM287.89,317.48l-.48,7.7-14.27.55-14.28.16-19.45.51-28.81-.13c-3.88-.02-7.51-.3-11.41-.58l-21.76-.15c-6.02-.04-11.62-.08-18.05-.54l7.92-23.91,1.29-4.15,6.83,4.19c5.71,1.39,11.31,3.3,17.21,4.13,6.49.92,12.68,1.39,18.85,3.79,4.85-.67,9.2-1.75,13.9-2.63l14.35-2.7c3.05-.57,5.81-.96,8.95-1.29,1.23-.13,2.4-1.55,3.44-2.31l14.91-10.83,6.88-5.52c.46-1.34.93-2.92,1.06-4.38l1.18-13.76,14.31.32c-.16,1.69-.31,3.19-.38,4.81l-1.38,33.27-.81,13.45ZM382.99,402.62c-11.04.05-21.6-.02-32.55-.56-8.01-.39-15.6.2-23.66.18l-38.26-.1c-.12-9.7,1.4-17.03.9-27.03l.44-11.24.69-13.04.64-12.32.17-9.02c7.96-.34,15.55-.2,23.47-.38l19.59-.46,32.22-.28,11.8-.49,34.24-.24,3.33-.13,4.84,25.89c1.35,7.21,2.57,14.12,3.53,21.38.98,7.34,1.75,14.36,3.16,21.6.4,2.04.63,3.94.91,6.02l-45.47.22ZM546.44,366.61l11.66,25.7,3.48,8.28-11.14-.02c-4.3,0-8.36.31-12.7.15-10.62-.39-20.85.06-31.46.1l-33.21.15-19.03.68-12.01.57c-3.26.15-6.4.09-9.72.07l-2.84-16.67c-1.96-11.5-2.93-22.82-5.3-34.27-1.69-8.17-3.29-15.93-4.43-24.03l15.07-.83,13.85-.65,81.14-.39c4.78,14.15,10.5,27.64,16.64,41.16ZM511.83,276.96l9.05,22.82c2.9,7.32,5.25,14.48,7.7,22.18l-38.55-.05-39.98-.13-14.51.54-16.46.84-3.04-14.74,12.54-1.47,17.32-3.31c2-.38,4.13-1.73,4.97-3.4,1.52-3,2.38-5.84,2.22-9.14l2.7-2.29c2.87-2.44,4.79-5.38,6.08-8.92.57-1.56,1.09-3.13,1.28-4.81l.84-7.65c4.79-.74,9.66-.96,14.7-1.01l30.2-.33,2.95,10.85Z"/>
        <path class="cls-2" d="M188.56,63.35l-19.79-1.48c-3.54-.26-7.05-.16-10.49-.96-3.91-.9-7.62-2.15-11.61-2.5-2.74-.24-5.13-.65-7.57-1.83-3.45-1.66-7.92-2.13-9.44-4.85-1.2-2.14.35-4.66,2.39-5.5,4.62-1.91,10.25-2.65,15.23-3.35l5.57-.79,18.74-2c9.65-1.03,16.1-.71,26.15-1.5,3.92-.31,7.66-.16,11.61-.23l16.66-.31c9.38-.18,23.95,2.25,32.9,5.07,2.31.73,4.57,1.29,6.93,1.87l12.86,4.11c1.52.49,3.14,1.27,4.05,2.61,1.01,1.51.07,3.64-1.52,4.31-6.45,2.73-7.46,1.91-13.66,4.08-3.34.67-6.66,1.47-10.04,1.84l-11.22,1.21c-4.71.51-9.36.55-14.1.77-5.04-.15-9.83-.1-14.87.04-5.4.14-10.56-.32-15.95-.4l-12.82-.2ZM211.7,61.88c5.96.25,11.4.03,17.08-.48,4.28-.39,8.5-.96,12.81-.86,10.32.23,10.86.53,21.16-1.35,2.91-.53,5.5-1.18,8.3-2.16,2.76-.97,5.89-1.45,8.41-2.81.86-1.52-.89-3.03-2.22-3.44-2.51-.76-4.82-1.46-7.22-2.33-9.15-3.33-22.26-6.24-32.06-6.73l-28.61-1.45c-2.84-.14-5.52-.24-8.36-.04l-18.14,1.34-22.77,2.08c-7.69.7-15.03,1.92-22.54,3.5-2.34.49-4.38,1.03-6.21,2.96,1.83,1.35,3.66,2.07,5.72,2.63l9.39,2.55,7.47,2.27c3.63,1.1,7.22,1.57,10.98,2.13,6.39.95,12.59,1.06,19.06,1.45l9.81.59c5.96.36,11.7-.09,17.92.17Z"/>
        <path class="cls-2" d="M407.51,86.83c.3,2.73-1.19,5.09-4.13,5.17l-13.06.34c-2.21.06-3.87-1.67-3.82-3.92.05-1.98.64-4.52,2.57-5.54,2.14-1.13,4.94-.58,7.28-.37,3.02.27,5.83.57,8.73,1.08,1.55.27,2.25,1.61,2.42,3.23ZM404.78,89.32c.75-.64.63-2.48.24-3.44-2.83-.41-5.65-.61-8.57-.79-1.72-.11-3.9-.42-5.34.64-1.14.84-1.47,3.01-.97,4.17,3.3.57,6.55.53,9.86.38,1.58-.07,3.4.22,4.78-.95Z"/>
        <path class="cls-2" d="M395.84,105.13c-3.42.22-7.03-2.28-8.08-5.12-1.12-3.02,1.91-5.03,4.15-5.93,2.93-1.17,5.11-1.15,7.89.38,2.4,1.32,4.84,4.69,2.79,7.5-1.25,1.71-4.26,3.02-6.75,3.17ZM395.28,102.98c2.16-.27,3.95-1.03,5.77-2.02.73-.39.96-2.19.73-3.17-.33-1.38-4.24-4.51-9.31-1.92-1.26.64-3.02,1.57-2.65,3.39.42,2.13,3.03,4.01,5.46,3.71Z"/>
        <path class="cls-2" d="M438.48,103.54c1.46.27,7.63,1.69,6.99,3.64-.13.38-1.09.64-1.5.52l-8.46-2.53c-5.87-1.76-11.56-3.19-17.7-3.99-1.4-.18-2.78-.63-4.06-.98,2.54-.59,4.82-.33,7.27.12l17.46,3.23Z"/>
        <path class="cls-2" d="M372.5,101.65c-.12.14-1.05.49-1.04.31.09-2.74.5-1.3.44-5.29,1.82.74,1.85,3.52.61,4.98Z"/>
        <path class="cls-2" d="M369.9,103.07c.13-.08.81-.03.78.12l-.19.85c-.03.14-.59-.1-.73-.14-.21-.06-.04-.71.15-.83Z"/>
        <path class="cls-2" d="M351.76,65.23c-.09.25-.73.74-.93.83-.27.12-.83-.52-.83-.87v-5.12c1.93.58,2.39,3.38,1.76,5.15Z"/>
        <path class="cls-2" d="M348.13,66.77c.18-.17,1.16-.11,1.13.13s-.08.68-.1.93-.84.07-1.13.01c-.32-.07-.14-.85.1-1.07Z"/>
        <path class="cls-2" d="M370.74,31.95l-.07-3.82c1.64.66,1.64,2.78.07,3.82Z"/>
        <path class="cls-2" d="M384.23,62.94c-.38-.91-.3-2.73.37-3.27,1.27.75.9,2.44-.37,3.27Z"/>
        <path class="cls-2" d="M383.4,63.91c.21-.05.83.23.86.44.04.28-.03.68-.25.86s-.93.03-1.07-.21.19-1.02.46-1.08Z"/>
        <path class="cls-2" d="M369.48,79.37c-.72.04-1.72-2.08-1.15-2.54,1.29-.7,2.41,1.83,1.15,2.54Z"/>
        <path class="cls-2" d="M396.86,101.19c-1.95.46-3.99-.38-4.05-2.02-.01-.4.68-1.21,1.1-1.27l2.62-.42c.69-.11,1.83.75,1.99,1.37.23.92-.48,2.07-1.66,2.35ZM396.77,99.07l-2.63-.31c.6,1.34,2.03,1.23,2.63.31Z"/>
      </g>
    </g>
  </g>
</svg>