<?xml version="1.0" encoding="UTF-8"?>
<svg id="Layer_2" data-name="Layer 2" xmlns="http://www.w3.org/2000/svg" viewBox="0 0 50.77 56.69">
  <defs>
    <style>
      .cls-1 {
        fill: #8accff;
      }
    </style>
  </defs>
  <g id="Layer_1-2" data-name="Layer 1">
    <path class="cls-1" d="M46.03,26.61c-1.64-.43-3.16-1.18-4.77-1.69-1.64-.52-3.3-1-4.92-1.6-.51-.19-1.11-.52-1.11-1.07,0-.23.11-.45.22-.65.69-1.31,1.33-2.64,1.92-3.99.27-.61.48-1.27.78-1.87.3-.6.68-1.12.81-1.8.23-1.47-1.66-.36-2.69-.05-1.48.47-3.47,1.39-5.01,2.25-.82.36-1.33.61-1.57-.41-.23-.98-.41-1.97-.56-2.97-.29-1.92-.49-3.85-.85-5.76-.21-1.13-.43-2.26-.66-3.38-.19-.93-.26-2.21-.71-3.04-.16-.3-.46-.55-.8-.56-.32-.02-.63.18-.83.44-.2.26-.31.57-.41.88-1.42,4.17-2.29,8.5-3.48,12.74-.14.51-.38,1.59-1.02,1.68-.48.07-.98-.51-1.33-.76-.83-.6-1.57-1.31-2.36-1.96-.62-.52-1.39-1.27-2.22-1.41-1.21-.2-1.39,1.32-1.22,2.18.42,2.17.85,4.35,1.27,6.52.08.42.15.9-.11,1.23-.19.24-.5.34-.8.42-2.04.59-4.05,1.3-6.12,1.78-1.36.31-2.65.85-4.01,1.18-.55.13-1.1.25-1.64.39-.53.15-1.36.38-1.64.91-.94,1.8,2.15,2.7,3.28,3.14,2.8,1.08,5.75,1.77,8.54,2.92.14.06.28.12.4.21.27.22.37.59.34.93-.03.34-.16.67-.3.99-.49,1.16-3.67,6.38-.77,6.73.62.07,1.7-.45,2.29-.64.95-.31,1.9-.62,2.85-.93.26-.09.85-.28,1.1-.08.06.05.11.12.15.2.01.02.02.04.03.06.93,1.93,1.01,4.14,1.52,6.2.5,2.04.97,4.12,1.53,6.15.25.9.52,1.79.81,2.67.22.67.33,1.61,1.1,1.87.32.11.69.03.98-.15,1.07-.62,1.1-2.56,1.41-3.66.69-2.52,1.49-5.01,2.32-7.48.41-1.22.83-2.44,1.25-3.65.28-.8.49-2.31,1.7-1.75,1.34.62,2.36,1.74,3.66,2.43.89.57,2.54,2.49,3.46,1.36.51-.87-.31-1.96-.64-2.92-.38-1.13-.81-2.24-1.21-3.36-.23-.64-.8-1.46-.68-2.16.18-1.03,1.54-.98,2.33-1.19,2.38-.65,4.76-1.36,7.16-2,1.19-.32,2.3-.9,3.5-1.18.74-.18,1.99-.29,2.4-1.05.8-1.48-3.75-3.02-4.65-3.25ZM30.19,28.73c-.06.18-.24.29-.41.36-.48.2-3.33.08-3.35.56,0,.11.05.21.11.3.26.4.54.8.64,1.27.05.2.03.46-.16.55-.08.04-.18.03-.27.02-.31-.05-.61-.17-.87-.36-.42-.3-.65-.54-.89-.03-.13.29-.12.68-.17.99-.12.83-.11,1.68-.39,2.48-.09.27-.39,1-.79.85-.45-.16-.48-1.68-.47-2.06,0-.29,0-.58,0-.86,0-.63.1-1.27-.21-1.83-.02-.04-.05-.08-.09-.1-.05-.02-.1-.01-.15,0-.46.13-.87.4-1.3.61-.65.32-.94-.19-.6-.75.54-.88.67-1.32-.47-1.56-.87-.18-1.86-.03-2.62-.51-.08-.05-.17-.11-.21-.19-.12-.23.1-.49.33-.61.53-.27,1.2-.2,1.77-.19.35,0,2.42.3,2.16-.44-.16-.45-1.17-1.73-.33-1.94.52-.13,1.29.67,1.7.95.05.04.11.07.17.08.2.02.3-.23.32-.43.14-1.09.17-2.19.42-3.26.1-.42.24-1.25.58-1.55.07-.06.13-.1.19-.11.97-.28.57,4.08.53,4.39l-.06.52c-.08.7.27.42.65.2.35-.21.76-.33,1.14-.47.18-.07.39-.13.53,0,.2.18.04.5-.13.7-.24.29-.47.57-.71.86-.56.68.25.68.8.71.41.03,2.95-.2,2.61.85Z"/>
  </g>
</svg>