<svg width="280" height="324" viewBox="0 0 280 324" fill="none" xmlns="http://www.w3.org/2000/svg">
<g clip-path="url(#clip0_2_2)">
<path d="M123.817 80.8871C124.825 82.4904 126.068 83.9419 127.512 85.2247C128.822 84.7183 130.166 84.2457 131.526 83.8407C135.759 82.5748 139.253 82.0685 142.041 81.7647C143.821 79.6718 145.299 77.3765 146.357 74.9123C146.996 73.427 147.281 72.4312 148.322 68.3974C148.994 65.8151 149.515 63.7898 149.918 62.1695C147.499 57.3762 144.51 53.0048 140.966 49.1735C137.573 45.4942 133.223 42.2874 128.738 40.127C125.732 38.6755 123.834 38.2536 122.927 38.8274C122.121 39.3337 121.852 40.6502 121.717 41.2916C120.81 45.7473 120.71 51.1145 121.432 56.3973C122.204 62.0007 122.053 67.8573 121.012 73.8827C121.667 76.3131 122.288 78.4229 123.817 80.8533V80.8871ZM129.309 48.5659C130.132 52.0765 131.241 55.5702 132.618 58.9458C133.256 60.4986 133.794 61.68 134.281 62.7265C135.07 64.448 135.709 65.8151 136.246 67.8405C137.254 71.5705 137.422 75.6212 136.75 79.8744L134.231 79.4693C134.852 75.5705 134.701 71.8743 133.794 68.4987C133.307 66.6928 132.736 65.4776 131.963 63.8066C131.476 62.7433 130.905 61.5281 130.25 59.9247C128.839 56.431 127.68 52.8192 126.823 49.1735L129.309 48.5828V48.5659Z" fill="#3D6BE3"/>
<path d="M158.451 90.6087C159.693 89.191 160.886 87.7057 161.978 86.1698C161.104 85.9504 160.214 85.7479 159.324 85.5791C153.63 84.5158 149.129 84.9546 144.342 85.4103C141.47 85.6804 137.523 86.0517 132.584 87.5369C130.972 88.0264 129.309 88.6002 127.814 89.2247C125.681 90.1024 123.615 91.115 121.617 92.2627C123.363 93.3936 125.144 94.4737 126.941 95.5202C128.805 96.6003 130.72 97.6637 132.635 98.6763L133.475 99.1151L136.045 114.153C136.162 114.136 136.263 114.12 136.38 114.086C143.368 112.854 149.75 114.238 155.075 116.516L152.32 96.516L153.109 95.8408C154.991 94.2206 156.788 92.4653 158.417 90.6087H158.451ZM150.237 97.8831C149.532 97.8156 148.843 97.7987 148.138 97.7987H148.104C145.215 97.7987 142.948 98.3556 140.563 98.9464C139.152 99.3008 137.724 99.7059 136.313 100.162L135.524 97.7312C136.985 97.2586 138.48 96.8366 139.958 96.4653C142.511 95.8408 144.913 95.2501 148.104 95.2501H148.138C148.894 95.2501 149.683 95.2839 150.456 95.3514L150.237 97.8999V97.8831ZM152.32 91.672C149.431 91.4357 147.264 91.7226 144.745 92.0602L144.443 92.094C141.218 92.5328 138.161 92.9378 134.432 94.3556C133.491 94.71 132.551 95.1151 131.627 95.5539L130.519 93.2416C131.493 92.7691 132.501 92.3302 133.525 91.9589C137.523 90.4399 140.865 90.0011 144.09 89.5623L144.392 89.5285C146.945 89.191 149.364 88.8534 152.522 89.1235C153.479 89.2078 154.453 89.326 155.427 89.5116L154.974 92.0264C154.084 91.8577 153.193 91.7395 152.32 91.672Z" fill="#3D6BE3"/>
<path d="M159.878 46.6925C157.611 50.3381 156.469 53.4774 155.78 55.3508C155.209 56.9374 154.991 57.7981 153.748 62.6083C153.311 64.313 152.757 66.5071 152.001 69.3763C150.926 73.5621 150.607 74.7266 149.834 76.4651C149.095 78.136 148.205 79.7562 147.164 81.2921C151.027 80.9883 155.142 80.8871 159.996 81.7985C160.953 81.9841 161.911 82.1866 162.851 82.4229C163.657 80.7689 164.296 79.0474 164.766 77.2752C165.723 73.6127 165.606 70.8616 165.438 66.7096C165.387 65.2919 165.32 63.7391 165.287 61.9501C165.203 56.1779 165.135 52.9879 165.757 49.0554C166.63 43.4013 168.427 38.9287 169.754 35.8063C169.603 35.9244 169.452 36.0594 169.301 36.1776C166.697 38.3548 163.137 41.3591 159.828 46.6756L159.878 46.6925ZM162.465 61.8995C162.515 63.0978 162.599 64.1611 162.683 65.14C162.902 67.7561 163.086 70.0177 162.431 72.9376C161.843 75.5536 160.735 78.0516 159.139 80.3976L157.04 78.9461C158.451 76.887 159.442 74.676 159.945 72.3806C160.516 69.8489 160.365 67.9586 160.147 65.3594C160.063 64.3467 159.979 63.2666 159.912 62.0176C159.744 58.2032 159.962 54.2538 160.567 50.2875L163.086 50.6757C162.498 54.4732 162.28 58.2538 162.448 61.8995H162.465Z" fill="#3D6BE3"/>
<path d="M121.247 19.0634C119.836 21.6289 117.266 27.4517 115.704 37.8316C114.898 43.165 114.545 48.6503 114.629 54.1694C115.654 56.026 116.376 57.7813 116.914 59.1146C117.082 59.5197 117.401 60.6167 118.106 63.199C118.089 61.1062 117.938 59.0471 117.67 57.0555C116.863 51.2833 116.981 45.4604 117.989 40.5827C118.19 39.6207 118.711 37.0383 120.894 35.6544C123.649 33.8991 127.243 35.2155 130.384 36.7345C135.289 39.0974 140.042 42.608 143.771 46.625C146.626 49.7136 149.145 53.1398 151.329 56.8192C151.648 55.6715 151.866 54.9964 152.202 54.0681C152.79 52.4647 153.697 49.9837 155.293 47.03C153.059 40.4308 150.338 34.0172 147.164 27.9581C144.409 22.7259 141.705 18.4558 137.422 14.5908C134.096 11.5865 131.896 9.76371 129.444 10.0169C125.984 10.3544 123.464 14.979 121.23 19.0634H121.247ZM124.741 29.0551C124.674 30.2703 124.674 31.4855 124.741 32.6839L122.204 32.8189C122.137 31.5193 122.137 30.2028 122.204 28.9032C122.305 27.0466 122.557 25.1732 122.96 23.3335L125.446 23.8736C125.077 25.5783 124.841 27.3167 124.758 29.0551H124.741ZM139.488 22.9284C141.016 25.3082 142.427 27.823 143.653 30.3716C146.139 35.5025 148.003 40.9709 149.179 46.625L146.693 47.1482C145.551 41.7135 143.754 36.4307 141.369 31.4855C140.176 29.0214 138.833 26.6078 137.355 24.3124L139.488 22.9284ZM132.181 16.5317C132.467 19.6541 132.87 22.8103 133.424 25.9158C133.979 29.0551 134.667 32.2113 135.49 35.2999L133.021 35.9582C132.181 32.802 131.476 29.5783 130.905 26.3547C130.351 23.1985 129.931 19.9579 129.645 16.7511L132.181 16.5317Z" fill="#3D6BE3"/>
<path d="M178.421 310.764C173.701 275.843 170.645 251.894 169.334 239.573C169.301 239.303 166.496 212.821 165.236 203.775C164.934 202.256 164.85 200.771 164.799 199.319C164.766 198.425 164.716 197.496 164.615 196.551C164.564 196.163 164.514 195.741 164.447 195.353C164.38 194.998 164.312 194.644 164.228 194.273C164.144 193.935 164.077 193.766 164.027 193.682C163.876 193.682 163.557 193.716 162.969 193.868C162.566 193.969 162.213 194.053 161.911 194.138C161.239 194.357 160.785 194.509 160.516 194.661C160.483 194.678 160.466 194.695 160.432 194.711C160.382 194.745 160.332 194.779 160.298 194.83C160.298 194.846 160.281 194.88 160.265 194.897C160.248 195.049 160.147 195.707 160.349 197.361C160.433 197.8 160.516 198.239 160.617 198.678C160.819 199.589 161.037 200.636 161.188 201.716C161.188 201.766 161.256 202.087 161.323 202.61C161.507 203.825 161.575 204.821 161.625 206.036C161.642 206.442 161.675 206.863 161.692 207.319C161.877 211.353 161.995 215.876 160.6 221.345C160.113 223.859 159.341 226.577 157.745 229.53C156.972 230.965 156.049 232.349 155.075 233.682C155.075 233.699 155.041 233.733 155.024 233.75C154.856 233.986 154.671 234.223 154.487 234.459C154.436 234.526 154.386 234.594 154.335 234.678C153.63 235.623 152.891 236.552 152.085 237.429C152.068 240.012 152.085 242.594 152.135 245.176C152.152 246.324 152.202 247.472 152.219 248.636C152.27 250.493 152.32 252.349 152.404 254.206C152.454 255.387 152.522 256.569 152.589 257.733C152.689 259.573 152.807 261.43 152.941 263.269C153.025 264.434 153.109 265.582 153.21 266.746C153.361 268.603 153.529 270.442 153.714 272.282C153.832 273.447 153.949 274.594 154.067 275.759C154.352 278.358 154.671 280.94 155.007 283.54C155.041 283.81 155.075 284.063 155.108 284.316C155.478 286.932 155.881 289.548 156.301 292.164C156.452 293.042 156.586 293.903 156.721 294.713C157.124 297.109 157.56 299.489 158.014 301.886C158.098 302.342 158.182 302.764 158.266 303.185C158.837 306.038 159.425 308.856 160.063 311.675L178.388 310.747L178.421 310.764ZM166.311 239.742L174.928 304.451L172.408 304.789L163.792 240.079L166.311 239.742ZM163.321 251.455L166.042 276.434L163.506 276.721L160.785 251.742L163.321 251.455Z" fill="#3D6BE3"/>
<path d="M113.084 73.0895C113.387 74.7435 113.554 76.0937 113.706 77.2752C114.042 79.9081 114.243 81.4947 115.436 83.7732C116.46 85.7141 117.888 87.4525 119.635 88.9884C120.945 88.2289 122.288 87.5201 123.666 86.8618C122.507 85.6466 121.449 84.347 120.575 82.9462C118.661 79.8913 117.921 77.1908 117.216 74.5747C115.033 66.5071 113.605 61.2075 113.353 60.5492C111.992 57.2243 109.725 51.6715 104.434 48.9035C102.973 48.144 101.36 47.6376 100 47.3507C101.327 48.6841 103.779 51.3677 107.071 55.9247C110.985 61.3594 112.009 67.0472 113.084 73.0726V73.0895Z" fill="#3D6BE3"/>
<path d="M140.193 313.38C147.164 314.511 155.058 315.81 156.435 314.342C156.536 314.24 156.553 314.055 156.569 313.869C155.898 310.781 155.293 307.793 154.722 304.789C154.688 304.603 154.655 304.401 154.604 304.215C153.462 298.493 152.488 292.738 151.648 286.983C151.598 286.645 151.547 286.324 151.497 285.987C151.379 285.143 151.262 284.299 151.144 283.472C150.993 282.341 150.842 281.194 150.691 280.012C150.657 279.725 150.624 279.455 150.59 279.168C150.54 278.763 150.489 278.375 150.439 277.97C150.405 277.734 150.388 277.497 150.372 277.278C150.288 276.485 150.187 275.675 150.103 274.881C150.019 274.156 149.969 273.43 149.901 272.704C149.717 270.864 149.549 269.008 149.397 267.151C149.297 265.97 149.213 264.771 149.129 263.59C148.994 261.733 148.877 259.877 148.776 258.02C148.709 256.822 148.642 255.624 148.591 254.425C148.507 252.552 148.457 250.662 148.39 248.771C148.356 247.607 148.322 246.459 148.306 245.294C148.306 244.923 148.289 244.552 148.272 244.18C148.272 243.32 148.272 242.459 148.255 241.598C147.919 241.953 147.6 242.273 147.298 242.594C145.098 244.856 144.123 245.919 144.14 247.286L140.311 247.337C140.277 244.332 142.158 242.391 144.543 239.927C144.862 239.607 145.198 239.252 145.551 238.881C146.357 238.037 147.298 237.058 148.255 235.978V235.944L148.759 235.404C148.759 235.404 148.776 235.37 148.793 235.37C148.826 235.336 148.86 235.286 148.91 235.235C149.683 234.374 150.456 233.446 151.211 232.484C151.262 232.4 151.329 232.332 151.379 232.248C151.564 231.995 151.749 231.741 151.934 231.505C153.21 229.665 155.478 225.868 156.855 220.535C157.073 219.387 157.241 218.273 157.392 217.159C158.316 210.475 157.712 204.669 157.476 202.914C157.342 202.121 157.224 201.53 157.09 200.973C156.905 200.146 156.704 199.285 156.553 197.952C156.553 197.952 156.553 197.935 156.553 197.918C156.267 196.315 156.166 194.762 156.754 193.429C156.838 193.226 156.922 193.057 157.006 192.922C157.023 192.889 157.056 192.838 157.073 192.804C157.09 192.77 157.124 192.72 157.14 192.686C157.275 192.484 157.443 192.315 157.594 192.146C157.611 192.129 157.628 192.112 157.644 192.078C157.678 192.045 157.712 192.028 157.728 192.011C157.93 191.825 158.148 191.64 158.367 191.505C158.484 191.437 158.602 191.353 158.736 191.302C158.82 191.268 158.887 191.218 158.971 191.184C159.509 190.914 160.097 190.694 160.802 190.509C162.482 189.969 164.228 189.429 165.874 190.34C166.076 190.458 166.261 190.576 166.412 190.711C166.529 190.813 166.63 190.914 166.731 191.015C166.765 191.049 166.798 191.083 166.832 191.116C167.117 191.454 167.353 191.825 167.537 192.247C167.571 192.315 167.604 192.382 167.621 192.45C167.672 192.602 167.722 192.737 167.772 192.905C167.806 192.99 167.823 193.074 167.84 193.142C167.974 193.614 168.075 194.104 168.159 194.661C168.243 195.116 168.293 195.555 168.343 195.977C168.343 196.079 168.377 196.18 168.377 196.281C168.377 196.315 168.377 196.349 168.377 196.382C168.377 196.382 168.377 196.399 168.377 196.416C168.478 197.226 168.511 197.851 168.528 198.509C168.562 199.218 168.579 200.011 168.73 201.344C168.814 202.222 168.915 202.847 168.948 203.15C169.099 203.825 169.452 205.513 169.872 206.222C170.796 205.564 173.231 202.61 176.826 194.036L176.893 193.901C179.379 187.994 180.991 183.521 179.11 179.842C178.505 178.644 177.531 177.496 176.288 176.534C175.096 175.606 172.626 173.648 168.982 173.175C167.218 172.939 165.438 173.31 161.575 174.137C158.837 174.728 156.133 175.437 153.496 176.264L152.354 172.601C155.091 171.741 157.913 170.998 160.768 170.39C164.632 169.563 166.966 169.057 169.452 169.378C174.138 169.985 177.279 172.466 178.623 173.513C178.623 173.513 178.64 173.53 178.656 173.547C178.975 172.129 179.194 170.677 179.261 169.226C179.362 166.998 179.362 165.8 178.891 164.365C178.169 162.188 176.422 160.989 172.878 158.694C170.964 157.462 168.528 156.078 165.018 155.2C162.448 154.559 155.646 152.854 149.078 156.483C146.408 157.951 144.073 160.179 142.293 162.93L139.085 160.838C141.201 157.546 144.023 154.88 147.248 153.107C155.125 148.77 162.986 150.728 165.942 151.47C170.023 152.483 172.895 154.137 174.944 155.47C175.163 155.605 175.364 155.74 175.566 155.875C175.633 154.306 175.431 152.837 174.877 151.487C174.138 149.648 172.257 147.892 168.142 144.331C164.732 141.394 163.036 139.909 160.785 138.626C159.156 137.698 156.435 136.415 152.723 135.69C149.028 134.964 146.374 134.424 143.67 135.571C141.722 136.398 140.579 137.782 138.077 140.787C136.128 143.133 134.432 145.681 133.021 148.382L129.645 146.593C131.19 143.673 133.038 140.888 135.154 138.339C137.875 135.048 139.387 133.225 142.192 132.044C145.971 130.44 149.448 131.132 153.479 131.926C157.678 132.77 160.802 134.221 162.683 135.301C165.253 136.77 167.05 138.322 170.628 141.428C170.964 141.732 171.283 142.002 171.602 142.272C171.753 139.858 171.501 136.955 170.191 134.002C169.822 133.158 168.679 130.609 164.548 127.065C159.475 122.727 149.145 115.757 136.951 117.9C133.542 118.491 130.603 119.014 128.369 121.31C127.025 122.694 125.144 127.031 122.272 133.597C121.801 134.677 121.549 135.251 121.18 136.128C119.282 140.635 118.509 143.048 117.77 145.377C117.149 147.335 116.511 149.344 115.217 152.5C114.865 153.361 114.529 154.154 114.193 154.947C112.95 157.884 111.875 160.416 110.867 164.449C110.834 164.584 110.733 164.989 110.582 165.614C109.372 170.897 108.482 178.323 107.945 187.69L107.894 188.568C107.558 194.424 107.054 203.252 105.711 212.501C105.291 215.353 105.005 216.754 104.686 218.357C104.35 220.062 103.964 222.003 103.292 226.324C102.805 229.446 102.318 232.957 101.999 237.48C101.848 239.556 101.78 241.277 101.747 242.374C101.545 248.383 101.848 253.109 102.284 259.641C102.57 263.843 102.906 269.075 103.191 275.911C103.242 277.126 103.258 277.734 103.275 278.156C103.561 287.641 102.721 294.679 102.1 299.827C101.377 305.768 101.109 308.671 102.587 309.937C103.695 310.882 105.375 310.781 106.87 310.696H107.004C118.98 309.97 130.687 311.878 140.076 313.413L140.193 313.38Z" fill="#3D6BE3"/>
</g>
<defs>
<clipPath id="clip0_2_2">
<rect width="80" height="305" fill="white" transform="translate(100 10)"/>
</clipPath>
</defs>
</svg>
